<?xml version="1.0" encoding="utf-8"?>
<svg width="120px" height="320px" viewBox="0 0 120 320" version="1.1" xmlns:xlink="http://www.w3.org/1999/xlink" xmlns="http://www.w3.org/2000/svg">
  <desc>Created with Lunacy</desc>
  <defs>
    <path d="M0 0L45.7043 0L45.7043 43.3215L0 43.3215L0 0Z" transform="translate(0.1676002 0.00876453)" id="path_1" />
    <path d="M0 0L38.9756 0L38.9756 29.5318L0 29.5318L0 0Z" transform="translate(0.1956217 0.4660234)" id="path_2" />
    <path d="M0 0L46.7588 0L46.7588 34.7741L0 34.7741L0 0Z" transform="translate(0 0.4984139)" id="path_3" />
    <clipPath id="mask_1">
      <use xlink:href="#path_1" />
    </clipPath>
    <clipPath id="mask_2">
      <use xlink:href="#path_2" />
    </clipPath>
    <clipPath id="mask_3">
      <use xlink:href="#path_3" />
    </clipPath>
  </defs>
  <g id="1.人物组件/6.产品经理/站立/摸头" transform="matrix(-1 0 0 1 119.3831 0.3831177)">
    <g id="分组">
      <path d="M16.6016 4.53377C16.6016 4.53377 25.1083 10.1352 24.437 14.8571C23.8285 19.1331 18.2384 19.0997 18.2384 19.0997C18.2384 19.0997 13.871 18.5795 9.32264 16.7463C6.34235 15.5449 0.333987 14.1027 0.542675 12.4195C0.813382 10.2261 6.71447 12.6979 7.86099 11.5641C10.185 9.26653 1.31205 4.40455 0.298787 2.84892C-1.68081 -0.193992 6.44962 -2.26317 16.6016 4.53377" transform="translate(52.85236 6.839536)" id="Fill-1" fill="#BC877A" stroke="none" />
      <path d="M7.97036 5.3972C7.97036 5.3972 4.53749 1.59398 0 0" transform="translate(54.23364 8.346821)" id="Stroke-3" fill="none" stroke="#965C56" stroke-width="0.623295" stroke-linecap="round" stroke-linejoin="round" />
      <path d="M0 0C0 0 3.79242 1.14713 8.19916 5.14627" transform="translate(56.47229 7.165006)" id="Stroke-5" fill="none" stroke="#965C56" stroke-width="0.623295" stroke-linecap="round" stroke-linejoin="round" />
      <path d="M5.97734 4.04748C5.97734 4.04748 4.20392 2.2084 0 0" transform="translate(61.32072 7.664042)" id="Stroke-7" fill="none" stroke="#965C56" stroke-width="0.623295" stroke-linecap="round" stroke-linejoin="round" />
      <g id="分组" transform="translate(72.07685 20.37581)">
        <path d="M0 0L45.7043 0L45.7043 43.3215L0 43.3215L0 0Z" transform="translate(0.1676002 0.00876453)" id="Clip-10" fill="none" stroke="none" />
        <g clip-path="url(#mask_1)">
          <path d="M26.9858 39.748C26.9858 39.748 36.1421 47.5279 42.9274 40.129C49.9256 32.4992 41.4901 24.6319 41.4901 24.6319C41.4901 24.6319 35.4163 19.2413 27.9606 12.5653C23.408 8.48945 18.2914 4.08932 14.1159 1.42407C9.59437 -1.46211 7.21751 0.353633 3.82487 4.05348C-0.20389 8.4461 -1.42082 10.6703 1.98021 14.7712C5.22199 18.6811 10.2405 23.3422 13.9642 27.1287C21.0646 34.3492 26.9858 39.748 26.9858 39.748" transform="translate(0.1676002 0.00876453)" id="Fill-9" fill="#ADC6FF" stroke="none" />
        </g>
      </g>
      <path d="M7.84548 0L0 8.55432L5.24569 14.4442L14.2209 4.6569L7.84548 0Z" transform="translate(69.15053 17.62252)" id="Fill-11" fill="#ADC6FF" stroke="none" />
      <path d="M18.243 12.3509L16.54 0L0 1.4731L0.712388 13.9899C0.963818 18.836 5.18283 22.5225 10.0463 22.1457C10.1394 22.1382 10.2316 22.1307 10.3254 22.124C15.2987 21.7405 18.9219 17.2679 18.243 12.3509" transform="translate(41.45408 35.03154)" id="Fill-13" fill="#CE998A" stroke="none" />
      <path d="M0.344547 2.56575C0.344547 2.56575 4.14032 -2.59052 6.99657 1.71623C9.71119 5.80707 5.4377 12.0971 1.26562 11.2785C-0.871541 7.41022 0.344547 2.56575 0.344547 2.56575" transform="translate(63.35152 19.45148)" id="Fill-15" fill="#CE998A" stroke="none" />
      <path d="M7.11315 1.86519C7.11315 1.86519 2.46168 -2.54411 0.414196 2.19615C-1.53104 6.69966 3.79007 12.141 7.75179 10.6021C9.16902 6.42038 7.11315 1.86519 7.11315 1.86519" transform="translate(27.14212 22.75611)" id="Fill-17" fill="#CE998A" stroke="none" />
      <path d="M33.4113 17.0702C34.7389 31.927 27.6712 36.5106 18.5191 37.3201C9.36784 38.1296 2.2381 34.9591 0.269397 20.0014C-1.54174 6.24157 6.03973 0.89689 15.191 0.0873935C24.3431 -0.722103 32.2447 4.0265 33.4113 17.0702" transform="translate(32.10828 5.808011)" id="Fill-19" fill="#CE998A" stroke="none" />
      <path d="M0.0048806 5.68294C0.131434 8.6925 2.68681 11.031 5.7132 10.9051C8.73875 10.7792 11.0896 8.23648 10.9622 5.22692C10.8357 2.21736 8.28031 -0.120259 5.25476 0.00479216C2.22837 0.131511 -0.121673 2.67338 0.0048806 5.68294" transform="translate(50.60405 20.23971)" id="Fill-21" fill="#FFFFFF" stroke="none" />
      <path d="M0.0048806 5.68294C0.131434 8.6925 2.68681 11.031 5.7132 10.9051C8.73875 10.7792 11.0896 8.23648 10.9622 5.22692C10.8357 2.21736 8.28031 -0.120259 5.25476 0.00479216C2.22837 0.131511 -0.121673 2.67338 0.0048806 5.68294Z" transform="translate(50.60405 20.23971)" id="Stroke-23" fill="none" stroke="#7D4556" stroke-width="0.7662373" />
      <path d="M0.000685568 2.09125C0.000685568 2.09125 -0.0848009 0.0745898 1.65342 0.00206024C3.39165 -0.0704693 3.61459 1.79613 3.61459 1.79613" transform="translate(54.37308 23.93604)" id="Stroke-25" fill="none" stroke="#7D4556" stroke-width="0.7662373" stroke-linecap="round" stroke-linejoin="round" />
      <path d="M0 1.63213C0 1.63213 1.77259 -1.50999 7.99131 0.925171" transform="translate(37.13952 19.14443)" id="Stroke-27" fill="none" stroke="#7D4556" stroke-width="0.7662373" stroke-linecap="round" stroke-linejoin="round" />
      <path d="M0 1.60903C0 1.60903 4.48553 -1.02955 7.36273 0.451056" transform="translate(51.80632 18.03907)" id="Stroke-29" fill="none" stroke="#7D4556" stroke-width="0.7662373" stroke-linecap="round" stroke-linejoin="round" />
      <path d="M3.29207 9.88153C-0.703168 9.80233 1.5178 7.59477 1.4231 4.43014C1.35437 2.15254 0 0 0 0" transform="translate(46.53768 21.67334)" id="Stroke-31" fill="none" stroke="#965C56" stroke-width="0.623295" stroke-linecap="round" stroke-linejoin="round" />
      <path d="M0 0.729464C0 0.729464 4.12011 1.46476 8.25364 0" transform="translate(45.2144 32.63523)" id="Stroke-33" fill="none" stroke="#7D4556" stroke-width="0.6548753" stroke-linecap="round" stroke-linejoin="round" />
      <path d="M0.0281576 6.00309C0.332389 9.00015 3.02186 11.1844 6.03484 10.8818C9.04782 10.5791 11.2436 7.90387 10.9394 4.90681C10.6352 1.90892 7.94571 -0.275302 4.93273 0.0281547C1.91976 0.330778 -0.276074 3.00604 0.0281576 6.00309" transform="translate(36.60062 21.0797)" id="Fill-35" fill="#FFFFFF" stroke="none" />
      <path d="M0.0281576 6.00309C0.332389 9.00015 3.02186 11.1844 6.03484 10.8818C9.04782 10.5791 11.2436 7.90387 10.9394 4.90681C10.6352 1.90892 7.94571 -0.275302 4.93273 0.0281547C1.91976 0.330778 -0.276074 3.00604 0.0281576 6.00309Z" transform="translate(36.60062 21.0797)" id="Stroke-37" fill="none" stroke="#7D4556" stroke-width="0.7662373" />
      <path d="M0.00739769 2.19413C0.00739769 2.19413 -0.196261 0.184977 1.53358 0.0115734C3.26511 -0.162664 3.59867 1.68809 3.59867 1.68809" transform="translate(40.38548 24.77262)" id="Stroke-39" fill="none" stroke="#7D4556" stroke-width="0.7662373" stroke-linecap="round" stroke-linejoin="round" />
      <g id="分组" transform="translate(46.93376 23.64875)">
        <path d="M0 0.662108C0 0.662108 1.41723 -0.245763 2.86631 0.408671" transform="translate(0.4577717 0.01447998)" id="Fill-41" fill="#FFFFFF" stroke="none" />
        <path d="M0 0.662108C0 0.662108 1.41723 -0.245763 2.86631 0.408671" transform="translate(0.4577717 0.01447998)" id="Stroke-43" fill="none" stroke="#7D4556" stroke-width="0.7662373" />
      </g>
      <path d="M0 1.59315C2.96269 2.32261 9.42028 3.27384 15.7966 0" transform="translate(42.97021 40.99038)" id="Stroke-44" fill="none" stroke="#965C56" stroke-width="0.623295" stroke-linecap="round" stroke-linejoin="round" />
      <path d="M0 0.526047L2.46821 0.307625" transform="translate(48.58155 35.61644)" id="Stroke-46" fill="none" stroke="#965C56" stroke-width="0.623295" stroke-linecap="round" stroke-linejoin="round" />
      <path d="M0.368345 0L0.469755 3.40222" transform="translate(48.96289 39.44742)" id="Stroke-48" fill="none" stroke="#965C56" stroke-width="0.623295" stroke-linecap="round" stroke-linejoin="round" />
      <path d="M0.203239 0L0.634861 2.57021" transform="translate(50.57096 40.34379)" id="Stroke-50" fill="none" stroke="#965C56" stroke-width="0.623295" stroke-linecap="round" stroke-linejoin="round" />
      <path d="M0.468498 0L0.369602 1.54063" transform="translate(47.75049 41.35904)" id="Stroke-52" fill="none" stroke="#965C56" stroke-width="0.623295" stroke-linecap="round" stroke-linejoin="round" />
      <path d="M0.156725 0L0.681376 1.74571" transform="translate(51.93279 40.89218)" id="Stroke-54" fill="none" stroke="#965C56" stroke-width="0.623295" stroke-linecap="round" stroke-linejoin="round" />
      <path d="M0 0.981465C0 0.981465 0.762673 -1.08855 2.23354 0.783884C3.22334 2.58128 1.44237 3.13151 2.56711 4.52458C3.10014 5.18484 3.80582 5.12232 3.80582 5.12232" transform="translate(28.44253 25.86649)" id="Stroke-56" fill="none" stroke="#965C56" stroke-width="0.623295" stroke-linecap="round" stroke-linejoin="round" />
      <path d="M3.01131 0.790632C3.01131 0.790632 1.89328 -1.11348 0.77776 0.988213C0.123201 2.93067 1.9729 3.1591 1.11216 4.72891C0.704845 5.47171 0 5.53424 0 5.53424" transform="translate(66.22488 22.44943)" id="Stroke-58" fill="none" stroke="#965C56" stroke-width="0.623295" stroke-linecap="round" stroke-linejoin="round" />
      <g id="分组" transform="translate(28.4955 0.3676499)">
        <path d="M0 0L38.9756 0L38.9756 29.5318L0 29.5318L0 0Z" transform="translate(0.1956217 0.4660234)" id="Clip-61" fill="none" stroke="none" />
        <g clip-path="url(#mask_2)">
          <path d="M3.27731 27.4701C3.27731 27.4701 0.534198 25.0416 1.49466 21.6577C-1.0473 17.9545 0.0279842 14.0896 1.9397 12.5065C1.00689 9.1326 2.81384 2.84587 7.61617 1.79294C10.5763 2.66997 13.995 2.48489 13.995 2.48489C13.995 2.48489 21.7256 -2.91148 27.8681 2.20061C33.6099 1.06431 37.1727 7.34771 36.912 9.72701C40.3935 13.3468 38.4164 19.4918 38.4164 19.4918C38.4164 19.4918 38.2715 21.8136 37.4937 25.0724C36.6891 28.443 35.8426 24.2754 35.7597 23.3401C35.6758 22.4047 33.2562 21.8336 33.6627 17.5552C30.8316 15.9204 31.1618 12.985 31.1618 12.985C31.1618 12.985 29.4161 15.1034 23.6952 12.9383C20.0704 16.559 13.8232 13.812 13.8232 13.812C13.8232 13.812 9.21024 16.5373 6.23581 15.0717C6.23581 15.0717 7.22896 17.341 5.32731 20.8082C6.39002 23.8561 4.20676 25.5026 5.00129 27.3175C5.79497 29.1324 4.23861 31.1549 3.27731 27.4701" transform="translate(0.1956217 0.4658976)" id="Fill-60" fill="#7D4556" stroke="none" />
        </g>
      </g>
      <path d="M23.9496 73.7702C25.0668 51.9805 25.9988 29.4438 26.329 11.4998C26.329 11.4998 24.3578 -1.58885 12.3402 0.161032C0.562367 1.8759 0 16.5661 0 16.5661L2.85709 74.5305C2.85709 74.5305 3.42784 83.966 13.9661 83.4016C23.5783 82.8881 23.9496 73.7702 23.9496 73.7702" transform="translate(50.98632 137.1319)" id="Fill-62" fill="#597EF7" stroke="none" />
      <path d="M7.78478 0.130058L7.78478 0.130058C3.67221 -0.694446 -0.137811 2.50936 0.00382886 6.6794C0.165583 11.478 0.35248 17.9615 0.458081 24.9452C0.567034 32.1331 0.671797 38.0889 1.18807 38.8459C3.46268 42.1814 8.01442 43.4261 12.6894 46.7324C16.3887 49.3493 17.0257 50.5915 21.7434 51.4752C28.4306 52.7274 25.3154 49.9029 17.8982 40.9701C11.2914 33.0118 11.7398 29.2828 11.7398 29.2828L12.9919 6.82696C13.1704 3.61815 10.952 0.764483 7.78478 0.130058" transform="translate(57.36565 264.5964)" id="Fill-64" fill="#CE998A" stroke="none" />
      <path d="M16.8619 7.11958C21.6885 12.4659 27.2217 16.6935 27.0842 19.2304C26.9476 21.7664 24.9345 24.0557 16.6188 21.1111C10.9281 19.0961 12.5582 17.8831 7.12815 14.3609C4.41604 12.6018 3.42708 12.7902 0.927022 10.7444C-0.505296 8.90864 0.149262 0 0.149262 0L9.66089 10.3884C9.66089 10.3884 7.19016 5.55144 9.22592 4.50601C11.2608 3.45975 13.1348 2.74862 14.3333 3.60898C15.5326 4.46849 16.8619 7.11958 16.8619 7.11958" transform="translate(57.7328 296.3349)" id="Fill-66" fill="#7D4556" stroke="none" />
      <path d="M21.3599 10.8538C19.206 48.5659 17.5608 86.3179 17.5608 86.3179L3.10098 86.5347L0 11.149C0 11.149 0.990638 -0.168987 11.5424 0.0019162C21.0632 0.156146 21.3599 10.8538 21.3599 10.8538" transform="translate(53.50977 201.9712)" id="Fill-68" fill="#597EF7" stroke="none" />
      <path d="M2.52437 73.7336C1.45914 51.9406 0.286631 30.7344 0 12.7888C0 12.7888 2.29808 -1.62626 14.3114 0.151961C26.086 1.89517 26.6123 16.587 26.6123 16.587L23.6152 74.544C23.6152 74.544 23.0218 83.9787 12.4852 83.3892C2.87469 82.8515 2.52437 73.7336 2.52437 73.7336" transform="translate(25.97625 137.0157)" id="Fill-70" fill="#597EF7" stroke="none" />
      <path d="M17.761 0.126939L17.761 0.126939C21.8752 -0.68756 25.6777 2.52458 25.5268 6.69545C25.3525 11.4932 25.1497 17.9759 25.0273 24.9587C24.9016 32.1467 24.7818 38.1033 24.2638 38.8586C21.9808 42.1883 17.4266 43.4221 12.7441 46.7176C9.038 49.3253 8.39686 50.5658 3.6775 51.4379C-3.01224 52.6742 0.109694 49.8572 7.54786 40.9419C14.1756 33.0004 13.7347 29.2705 13.7347 29.2705L12.5388 6.81133C12.3661 3.60169 14.5921 0.753861 17.761 0.126939" transform="translate(20.39508 264.4702)" id="Fill-72" fill="#CE998A" stroke="none" />
      <path d="M10.254 7.07955C5.4156 12.4142 -0.129285 16.6285 0.00229762 19.1653C0.133042 21.703 2.1403 23.9965 10.4635 21.0719C16.1592 19.0703 14.5316 17.8531 19.9701 14.3442C22.6864 12.5918 23.6754 12.7819 26.1804 10.7419C27.6169 8.90947 26.985 0 26.985 0L17.4466 10.3651C17.4466 10.3651 19.9299 5.53476 17.8966 4.48433C15.8634 3.43307 13.9919 2.71778 12.7901 3.57479C11.5899 4.43181 10.254 7.07955 10.254 7.07955" transform="translate(18.36372 296.2227)" id="Fill-74" fill="#7D4556" stroke="none" />
      <path d="M0 10.83C2.06341 48.547 3.6139 86.3049 3.6139 86.3049L18.0754 86.5542L21.3599 11.176C21.3599 11.176 20.3961 -0.144495 9.84435 0.00139813C0.32267 0.132285 0 10.83 0 10.83" transform="translate(28.56204 201.8424)" id="Fill-76" fill="#597EF7" stroke="none" />
      <path d="M42.0474 3.87325L40.9881 0L20.385 0.559395L19.5569 4.27174C19.5569 4.27174 2.92898 6.36927 0.458257 12.5168C-2.09125 18.8594 6.70045 54.814 9.5324 61.0741C7.01474 66.082 8.83929 70.8739 8.83929 70.8739L50.7444 70.8739C50.7444 70.8739 55.7839 69.5242 52.6377 64.2037C54.3148 52.8516 60.7665 14.2391 59.2453 8.18167C57.5691 1.51228 42.0474 3.87325 42.0474 3.87325" transform="translate(20.57972 49.0901)" id="Fill-78" fill="#ADC6FF" stroke="none" />
      <path d="M2.97479 29.4912C2.97479 29.4912 -0.651679 9.03202 0.103452 0" transform="translate(23.16706 66.72747)" id="Stroke-80" fill="none" stroke="#965C56" stroke-width="0.623295" stroke-linecap="round" stroke-linejoin="round" />
      <path d="M0 0.630258C0 0.630258 11.9371 2.24842 20.0524 0" transform="translate(41.00837 53.67314)" id="Stroke-82" fill="none" stroke="#597EF7" stroke-width="0.623295" stroke-linecap="round" stroke-linejoin="round" />
      <path d="M51.8082 24.1307C50.4706 10.0466 48.3921 2.64608 46.8039 0C12.6797 0.970396 4.17878 0.52438 4.17878 0.52438C4.17878 0.52438 0.41989 7.90989 0 24.4433C0 24.4433 12.7651 39.8846 26.3231 39.8846C38.546 39.8846 51.8082 24.1307 51.8082 24.1307" transform="translate(25.6871 125.9365)" id="Fill-84" fill="#597EF7" stroke="none" />
      <path d="M42.6251 6.72274L41.9797 0.335137L0.19444 0L0 6.39761C0 6.39761 22.1142 8.0783 42.6251 6.72274" transform="translate(29.86613 120.0471)" id="Fill-86" fill="#597EF7" stroke="none" />
      <path d="M0.0963816 0C0.0963816 0 0.457603 27.3245 0.741719 39.1184" transform="translate(50.52973 126.2854)" id="Stroke-88" fill="none" stroke="#1D39C4" stroke-width="0.637423038" stroke-linecap="round" stroke-linejoin="round" />
      <path d="M6.26314 0C6.26314 0 6.6076 16.5092 6.42155 24.2482C5.86085 29.4037 0 28.4808 0 28.4808" transform="translate(50.32707 126.5952)" id="Stroke-90" fill="none" stroke="#1D39C4" stroke-width="0.637423038" stroke-linecap="round" stroke-linejoin="round" />
      <path d="M0 0C0 0 0.156725 9.85902 5.34877 11.4238" transform="translate(68.76232 127.4797)" id="Stroke-92" fill="none" stroke="#1D39C4" stroke-width="0.637423038" stroke-linecap="round" stroke-linejoin="round" />
      <path d="M4.17291 0C4.17291 0 4.24834 10.2142 0 11.3096" transform="translate(29.4325 128.219)" id="Stroke-94" fill="none" stroke="#1D39C4" stroke-width="0.637423038" stroke-linecap="round" stroke-linejoin="round" />
      <path d="M0 0.41684L41.9052 0.41684" transform="translate(29.83805 119.9641)" id="Stroke-96" fill="none" stroke="#1D39C4" stroke-width="0.637423038" stroke-linecap="round" stroke-linejoin="round" />
      <path d="M0 0.41684L42.7432 0.41684" transform="translate(29.83805 125.7998)" id="Stroke-98" fill="none" stroke="#1D39C4" stroke-width="0.637423038" stroke-linecap="round" stroke-linejoin="round" />
      <path d="M11.2226 8.52594C11.2226 8.52594 14.5926 -2.65279 24.8351 0.590198C35.2795 3.89738 31.4251 15.0761 31.4251 15.0761C31.4251 15.0761 29.1949 22.9093 26.1886 32.3031C23.8402 39.6436 22.066 45.2851 20.1123 49.8403C18.0062 54.7548 12.7563 57.6101 7.95901 56.0912C0.668358 53.7827 -0.934095 48.4314 0.453803 43.2976C1.80399 38.3056 3.83387 31.6254 5.44387 26.1565C8.5415 15.6405 11.2226 8.52594 11.2226 8.52594" transform="translate(5.683792 56.87082)" id="Fill-100" fill="#ADC6FF" stroke="none" />
      <path d="M43.3563 34.7721L1.90119 32.9005C0.802441 32.8513 -0.0473951 31.9251 0.00205294 30.8321L1.3229 1.89198C1.37235 0.799032 2.30348 -0.0471465 3.40224 0.00204019L44.8565 1.87364C45.9561 1.92366 46.8059 2.84904 46.7565 3.94281L45.4356 32.883C45.3862 33.9759 44.455 34.8221 43.3563 34.7721" transform="translate(1.41124 161.8286)" id="Fill-102" fill="#4E5C93" stroke="none" />
      <g id="分组" transform="translate(0 161.2666)">
        <path d="M0 0L46.7588 0L46.7588 34.7741L0 34.7741L0 0Z" transform="translate(0 0.4984139)" id="Clip-105" fill="none" stroke="none" />
        <g clip-path="url(#mask_3)">
          <path d="M43.3563 34.7721L1.90203 32.9005C0.803277 32.8504 -0.047397 31.9242 0.00205103 30.8313L1.3229 1.89114C1.37235 0.799032 2.30432 -0.0471465 3.40223 0.00204021L44.8573 1.87364C45.9569 1.92366 46.8067 2.84903 46.7573 3.94281L45.4356 32.8829C45.3862 33.9759 44.4559 34.8212 43.3563 34.7721" transform="translate(-0.0005424487 0.4984139)" id="Fill-104" fill="#253368" stroke="none" />
        </g>
      </g>
      <path d="M17.009 14.9428C14.4403 14.7561 12.4079 14.9428 11.3133 14.8936C8.48889 14.7677 9.26917 24.1941 8.70261 25.6797C7.8402 27.9406 2.49813 26.6493 0.442267 18.1558C-0.142728 15.7415 0.0223779 12.1433 0.0190255 8.72278C0.0190255 8.72278 0.726384 0.506926 4.03019 0.0375682C6.89566 -0.370098 9.31275 2.67448 9.31275 2.67448C9.31275 2.67448 12.3542 6.90537 13.9114 10.7528L17.009 14.9428Z" transform="translate(9.591165 147.8789)" id="Fill-106" fill="#CE998A" stroke="none" />
      <path d="M0.570173 0C0.570173 0 -0.101985 3.94411 0.558439 8.23169" transform="translate(15.73545 165.2426)" id="Stroke-108" fill="none" stroke="#965C56" stroke-width="0.623295" stroke-linecap="round" stroke-linejoin="round" />
      <path d="M0.925344 8.47929C0.925344 8.47929 -0.70728 4.99204 0.364654 0" transform="translate(13.23834 164.3359)" id="Stroke-110" fill="none" stroke="#965C56" stroke-width="0.623295" stroke-linecap="round" stroke-linejoin="round" />
      <path d="M0.29207 0C0.29207 0 0.017172 2.50602 0.609711 6.6302" transform="translate(10.89484 162.7004)" id="Stroke-112" fill="none" stroke="#965C56" stroke-width="0.623295" stroke-linecap="round" stroke-linejoin="round" />
      <path d="M21.002 11.9665C21.002 11.9665 20.6031 -0.00416728 10.5358 1.08836e-06C0.152535 0.00500313 0 11.5064 0 11.5064C0 11.5064 0.0938675 19.6022 0.165944 29.5804C0.208688 35.6729 0.39307 42.399 1.23033 47.2626C2.13632 52.5298 5.08728 53.0516 10.1218 53.0491C16.0991 53.0466 18.5707 52.4397 19.3216 47.1767C20.039 42.158 20.1153 35.3302 20.4153 30.0414C20.9869 19.9573 21.002 11.9665 21.002 11.9665" transform="translate(5.017889 96.00533)" id="Fill-114" fill="#ADC6FF" stroke="none" />
      <path d="M0.841455 7.82986L12.4835 7.82486L13.3183 0L0 0.00583572L0.841455 7.82986Z" transform="translate(9.24218 146.391)" id="Fill-116" fill="#ADC6FF" stroke="none" />
      <path d="M7.25161 14.0349C7.25161 14.0349 -3.54399 18.2333 1.20889 29.1402C6.05564 40.2614 16.7808 35.5403 16.7808 35.5403C16.7808 35.5403 24.364 32.74 33.4105 29.0227C40.479 26.119 45.9175 23.9206 50.2312 21.5838C54.8877 19.0611 57.0106 13.2462 54.7846 8.1383C51.402 0.374304 45.7691 -1.09046 40.7891 0.665256C35.9457 2.37262 29.4974 4.89865 24.2098 6.91197C14.0436 10.7827 7.25161 14.0349 7.25161 14.0349" transform="translate(60.00313 42.2114)" id="Fill-118" fill="#ADC6FF" stroke="none" />
      <path d="M6.19358 0C6.19358 0 2.73222 35.0526 1.47422 38.4957C4.30533 44.1288 0 45.5828 0 45.5828" transform="translate(71.74287 74.79842)" id="Stroke-120" fill="none" stroke="#597EF7" stroke-width="0.623295" stroke-linecap="round" stroke-linejoin="round" />
      <path d="M0 0C0 0 0.943704 17.5263 5.97819 36.9301C4.08994 40.3731 6.33354 47.1476 6.33354 47.1476" transform="translate(23.50476 73.23362)" id="Stroke-122" fill="none" stroke="#597EF7" stroke-width="0.623295" stroke-linecap="round" stroke-linejoin="round" />
    </g>
  </g>
</svg>