<?xml version="1.0" encoding="utf-8"?>
<svg width="167px" height="388px" viewBox="0 0 167 388" version="1.1" xmlns:xlink="http://www.w3.org/1999/xlink" xmlns="http://www.w3.org/2000/svg">
  <desc>Created with Lunacy</desc>
  <defs>
    <path d="M0 0L40.4757 0L40.4757 34.9273L0 34.9273L0 0Z" transform="translate(0.000284583 0.2671669)" id="path_1" />
    <path d="M0 0L30.951 0L30.951 35.0905L0 35.0905L0 0Z" transform="translate(0.2681133 0.1039348)" id="path_2" />
    <path d="M0 0L36.9801 0L36.9801 36.3755L0 36.3755L0 0Z" transform="translate(0.3218609 0.03073747)" id="path_3" />
    <clipPath id="mask_1">
      <use xlink:href="#path_1" />
    </clipPath>
    <clipPath id="mask_2">
      <use xlink:href="#path_2" />
    </clipPath>
    <clipPath id="mask_3">
      <use xlink:href="#path_3" />
    </clipPath>
  </defs>
  <g id="1.人物组件/2.保安/站立/自信" transform="translate(0.6826172 0.6826172)">
    <g id="分组" transform="translate(0.3787275 0.1731257)">
      <path d="M19.1057 46.6285C39.4329 39.7911 53.1788 29.4819 55.4889 21.1593C58.0513 11.9283 56.3433 -2.25861 37.383 0.304735C28.6825 1.48166 18.5132 12.8472 12.0468 21.6721C6.40975 29.3638 1.54136 36.287 1.54136 36.287C1.54136 36.287 -1.05005 41.1589 0.487334 43.8937C2.02472 46.6285 -0.025129 48.9363 4.24512 54.2352C5.91992 56.3141 3.2202 57.3972 8.51537 58.9356C11.2652 59.7348 17.654 55.0045 19.1057 46.6285" transform="translate(106.9854 129.3292)" id="Fill-1" fill="#FFC2BD" stroke="none" />
      <path d="M28.2292 85.7594C28.2292 85.7594 -2.76423 23.1884 0.199809 17.2553C3.16466 11.3213 25.0462 -2.01956 58.121 0.259054C91.3397 2.54738 102.955 16.0516 102.955 16.0516C102.955 16.0516 94.4145 55.7094 87.2514 81.444C91.0245 88.186 84.1661 92.973 84.1661 92.973C84.1661 92.973 41.1127 90.9807 30.8716 91.5202C26.0889 89.4689 28.2292 85.7594 28.2292 85.7594" transform="translate(24.50258 63.83984)" id="Fill-3" fill="#597EF7" stroke="none" />
      <path d="M74.5601 48.4169L37.7549 65.4438L0 50.554C0 50.554 4.61135 21.8363 13.1955 8.50349C14.5615 4.74219 15.1168 1.92244 15.1168 1.92244C15.1168 1.92244 48.9377 -3.20587 67.3864 3.28944L68.0694 9.44341C68.0694 9.44341 70.9938 16.403 72.5102 22.7762C75.0725 33.5456 74.5601 48.4169 74.5601 48.4169" transform="translate(41.28241 153.5234)" id="Fill-5" fill="#4E5C93" stroke="none" />
      <path d="M27.4183 14.6428C27.4183 14.6428 53.8594 -24.8629 66.671 25.9057C35.553 134.877 30.4308 152.076 30.4308 152.076C30.4308 152.076 30.6604 161.306 24.5116 164.896L2.98903 164.896C2.98903 164.896 -5.21037 159.768 5.55134 147.973C23.9992 33.1039 27.4183 14.6428 27.4183 14.6428" transform="translate(14.9529 184.838)" id="Fill-7" fill="#4E5C93" stroke="none" />
      <path d="M41.6747 0.509174C41.6747 0.509174 23.8298 -4.85613 4.86954 19.2461C3.24163 131.788 1.62664 134.283 1.62664 134.283C1.62664 134.283 -3.1003 144.256 3.56171 149.384L25.7641 149.384C25.7641 149.384 31.516 142.833 28.9537 135.654C40.7403 36.6815 41.6747 0.509174 41.6747 0.509174" transform="translate(74.16778 199.7217)" id="Fill-9" fill="#4E5C93" stroke="none" />
      <g id="分组" transform="translate(0 348.4539)">
        <path d="M0 0L40.4757 0L40.4757 34.9273L0 34.9273L0 0Z" transform="translate(0.000284583 0.2671669)" id="Clip-12" fill="none" stroke="none" />
        <g clip-path="url(#mask_1)">
          <path d="M1.33858 34.9275L30.0001 34.9275L40.4757 0L18.0809 0L14.2374 23.3006L0.593331 32.4806C-0.501916 33.2167 0.0194379 34.9275 1.33858 34.9275" transform="translate(0.000284583 0.2671669)" id="Fill-11" fill="#253368" stroke="none" />
        </g>
      </g>
      <g id="分组" transform="translate(75.98025 348.4539)">
        <path d="M0 0L30.951 0L30.951 35.0905L0 35.0905L0 0Z" transform="translate(0.2681133 0.1039348)" id="Clip-14" fill="none" stroke="none" />
        <g clip-path="url(#mask_2)">
          <path d="M1.58265 0L22.7739 0.10111L19.358 22.0994L30.3622 32.0074C31.5666 33.0921 30.7995 35.0909 29.1805 35.0909L0 35.0909L1.58265 0Z" transform="translate(0.2681133 0.1039348)" id="Fill-13" fill="#253368" stroke="none" />
        </g>
      </g>
      <path d="M0 29.7725L1.70551 0L29.8893 0L29.8627 32.1651L21.7788 47.5501L0 29.7725Z" transform="translate(59.47378 29.60692)" id="Fill-15" fill="#FFC2BD" stroke="none" />
      <path d="M9.28295 1.14151C9.28295 1.14151 24.9979 -2.96114 29.2682 4.38916C33.4212 11.5381 33.709 37.3802 25.5104 41.3113C18.8274 44.5161 5.18325 43.0205 1.93793 30.5427C1.93793 30.5427 -0.794938 20.9696 0.229987 12.423C1.2541 3.87633 9.28295 1.14151 9.28295 1.14151" transform="translate(61.06417 11.88482)" id="Fill-17" fill="#FFC2BD" stroke="none" />
      <path d="M8.49466 5.08049C8.49466 5.08049 4.22441 -3.1248 0.979082 1.32C-2.26625 5.76399 3.19948 13.9693 7.9822 13.6271C12.7649 13.2858 8.49466 5.08049 8.49466 5.08049" transform="translate(54.50751 29.82549)" id="Fill-19" fill="#FFC2BD" stroke="none" />
      <g id="分组" transform="translate(56.58104 0.2388895)">
        <path d="M0 0L36.9801 0L36.9801 36.3755L0 36.3755L0 0Z" transform="translate(0.3218609 0.03073747)" id="Clip-22" fill="none" stroke="none" />
        <g clip-path="url(#mask_3)">
          <path d="M36.1623 30.8763C36.1623 30.8763 38.2122 20.9618 35.8212 14.8079C33.4295 8.65391 30.3547 2.50075 28.1343 5.74841C27.7924 4.20992 25.7425 1.13294 24.2059 0.107276C22.6677 -0.918385 17.885 5.74841 17.885 5.74841C17.885 5.74841 18.2269 2.67143 16.3476 4.55207C14.4691 6.43191 3.02442 12.2437 1.14593 15.3207C-0.733367 18.3977 0.264884 29.7091 0.264884 29.7091C0.264884 29.7091 3.9378 29.3669 5.90197 36.3759C5.38951 30.7347 7.73601 27.7864 8.94037 26.6644C9.39706 26.239 9.65895 25.6477 9.70664 25.0257C9.79717 23.8309 9.93135 21.8249 9.98146 19.865C10.0041 19.0011 10.6346 18.2869 11.4857 18.1397C20.1458 16.6384 29.666 17.9884 33.0568 18.5732C33.8231 18.7051 34.4107 19.3214 34.5126 20.0931L35.367 26.5043C35.367 26.5043 35.8212 27.6278 36.1623 30.8763" transform="translate(0.3218609 0.03039576)" id="Fill-21" fill="#253368" stroke="none" />
        </g>
      </g>
      <path d="M0 0.768437L2.88887 0L8.42896 0.96904" transform="translate(69.23692 29.52248)" id="Stroke-23" fill="none" stroke="#253368" stroke-width="1.36521959" stroke-linecap="round" stroke-linejoin="round" />
      <path d="M0 1.45275L5.46573 0L7.60126 0.597763" transform="translate(83.49979 28.92342)" id="Stroke-25" fill="none" stroke="#253368" stroke-width="1.36521959" stroke-linecap="round" stroke-linejoin="round" />
      <path d="M0.506115 0.222878C0.506115 0.222878 4.92024 3.67114 7.22633 7.26095C10.4296 3.28692 13.8035 1.57694 13.8035 1.57694C13.8035 1.57694 17.6728 4.45332 19.7227 3.55628C20.3628 2.78703 20.2941 2.00484 20.2941 2.00484C20.2941 2.00484 23.7528 3.28692 26.1866 6.87673C27.2124 4.31258 30.0996 0.992123 30.0996 0.992123C30.0996 0.992123 30.7139 17.7311 18.4148 17.9867C5.98801 17.9867 1.84628 11.1072 0.43741 5.33743C0.111665 3.52958 -0.39029 -1.0592 0.506115 0.222878" transform="translate(62.75221 37.97355)" id="Fill-27" fill="#EFADAB" stroke="none" />
      <path d="M0 0C0 0 5.23698 2.06426 9.33587 0.782188" transform="translate(74.16367 42.79847)" id="Stroke-29" fill="none" stroke="#D18682" stroke-width="1.092014" stroke-linecap="round" stroke-linejoin="round" />
      <path d="M0 8.93166C0 8.93166 4.48364 11.6244 5.63708 10.7266C6.78972 9.82871 5.03894 1.88065 5.03894 1.88065L5.20949 0" transform="translate(76.83801 30.80318)" id="Stroke-31" fill="none" stroke="#D18682" stroke-width="0.8083005" stroke-linecap="round" stroke-linejoin="round" />
      <path d="M2.87755 0.397564L0 0.411315" transform="translate(78.75935 46.75972)" id="Stroke-33" fill="none" stroke="#D18682" stroke-width="0.8083005" stroke-linecap="round" stroke-linejoin="round" />
      <path d="M2.56231 1.79491C2.56231 2.78659 1.98842 3.58981 1.28115 3.58981C0.573893 3.58981 0 2.78659 0 1.79491C0 0.804028 0.573893 0 1.28115 0C1.98842 0 2.56231 0.804028 2.56231 1.79491" transform="translate(71.20117 33.19641)" id="Fill-35" fill="#253368" stroke="none" />
      <path d="M2.56231 1.79491C2.56231 2.78659 1.98923 3.58981 1.28115 3.58981C0.573893 3.58981 0 2.78659 0 1.79491C0 0.804028 0.573893 0 1.28115 0C1.98923 0 2.56231 0.804028 2.56231 1.79491" transform="translate(84.65259 33.19641)" id="Fill-37" fill="#253368" stroke="none" />
      <path d="M2.22121 0L0 2.222" transform="translate(72.62605 41.43114)" id="Stroke-39" fill="none" stroke="#D18682" stroke-width="0.8083005" stroke-linecap="round" stroke-linejoin="round" />
      <path d="M0 0C0 0 3.71495 15.1277 20.6262 11.6665" transform="translate(63.31709 43.82421)" id="Stroke-41" fill="none" stroke="#D18682" stroke-width="0.6822056" stroke-linecap="round" stroke-linejoin="round" />
      <path d="M0.768692 0C0.768692 0 2.4346 2.82057 0 4.35906" transform="translate(79.84319 51.51611)" id="Stroke-43" fill="none" stroke="#D18682" stroke-width="0.8083005" stroke-linecap="round" stroke-linejoin="round" />
      <path d="M0.0208892 1.33196C0.0208892 1.33196 -0.278182 -0.505012 1.38692 0.135621C3.05282 0.776255 2.75375 2.35762 2.41184 3.72463C2.05781 5.1434 2.62604 5.9903 3.9072 6.24672" transform="translate(56.72011 33.09064)" id="Stroke-45" fill="none" stroke="#D18682" stroke-width="0.6822056" stroke-linecap="round" stroke-linejoin="round" />
      <path d="M0.720199 0.456907C0.6911 0.631625 0.526206 0.749721 0.351612 0.720601C0.177019 0.692291 0.0590062 0.52647 0.0881051 0.352561C0.117204 0.177843 0.282098 0.0597466 0.456692 0.0880574C0.631285 0.117177 0.749298 0.282189 0.720199 0.456907" transform="translate(75.47215 46.05935)" id="Fill-47" fill="#D18682" stroke="none" />
      <path d="M0.720199 0.456907C0.6911 0.631625 0.526206 0.749721 0.351612 0.720601C0.177019 0.692291 0.0590062 0.52647 0.0881051 0.352561C0.117204 0.177843 0.282098 0.0597466 0.456692 0.0880574C0.631285 0.117177 0.749298 0.282189 0.720199 0.456907" transform="translate(70.66373 47.26563)" id="Fill-49" fill="#D18682" stroke="none" />
      <path d="M0.704437 0.292624C0.765868 0.458444 0.681804 0.642869 0.516102 0.705153C0.3504 0.766627 0.165298 0.681695 0.103867 0.515875C0.042436 0.350054 0.1265 0.16563 0.292202 0.104155C0.457904 0.0418711 0.643006 0.126804 0.704437 0.292624" transform="translate(86.16985 48.47774)" id="Fill-51" fill="#D18682" stroke="none" />
      <path d="M0.704437 0.292624C0.765868 0.458444 0.681804 0.642869 0.516102 0.705153C0.3504 0.766627 0.165298 0.681695 0.103867 0.515875C0.042436 0.350054 0.1265 0.16563 0.292202 0.104155C0.457904 0.0418711 0.642197 0.126804 0.704437 0.292624" transform="translate(89.17567 46.94523)" id="Fill-53" fill="#D18682" stroke="none" />
      <path d="M0.704386 0.292978C0.765817 0.458798 0.681754 0.643223 0.516051 0.704697C0.350349 0.766172 0.165247 0.682049 0.103816 0.516228C0.0423853 0.350408 0.127257 0.165984 0.292959 0.104509C0.458662 0.0422249 0.642955 0.127157 0.704386 0.292978" transform="translate(83.5611 49.41107)" id="Fill-55" fill="#D18682" stroke="none" />
      <path d="M0.704386 0.292624C0.765817 0.458444 0.681754 0.642869 0.516051 0.705153C0.350349 0.766627 0.165247 0.681695 0.103816 0.515875C0.0423853 0.350054 0.127257 0.16563 0.292959 0.104155C0.458662 0.0418711 0.642955 0.126804 0.704386 0.292624" transform="translate(79.82344 48.67599)" id="Fill-57" fill="#D18682" stroke="none" />
      <path d="M0.704223 0.292624C0.766463 0.458444 0.681591 0.643678 0.515888 0.705153C0.350186 0.766627 0.165893 0.681695 0.103653 0.515875C0.0422223 0.350054 0.127094 0.16563 0.292796 0.104155C0.458499 0.0418711 0.642792 0.126804 0.704223 0.292624" transform="translate(66.94843 46.11192)" id="Fill-59" fill="#D18682" stroke="none" />
      <path d="M0.720199 0.457017C0.6911 0.631735 0.526206 0.749832 0.351612 0.720712C0.177019 0.691592 0.0590062 0.526581 0.0881051 0.351863C0.117204 0.177145 0.282098 0.0590482 0.456692 0.0881679C0.631285 0.117288 0.749298 0.282299 0.720199 0.457017" transform="translate(73.0559 50.55791)" id="Fill-61" fill="#D18682" stroke="none" />
      <path d="M0.720199 0.457017C0.6911 0.631735 0.526206 0.749832 0.351612 0.720712C0.177019 0.691592 0.0590062 0.526581 0.0881051 0.351863C0.117204 0.177145 0.282098 0.0590482 0.456692 0.0881679C0.631285 0.117288 0.749298 0.282299 0.720199 0.457017" transform="translate(75.54077 50.0606)" id="Fill-63" fill="#D18682" stroke="none" />
      <path d="M0.720089 0.456907C0.69099 0.631625 0.526096 0.749721 0.351502 0.720601C0.177717 0.692291 0.0597045 0.52647 0.0879951 0.352561C0.117094 0.177843 0.281988 0.0597466 0.456582 0.0880574C0.631175 0.117177 0.749188 0.282189 0.720089 0.456907" transform="translate(85.57674 50.92371)" id="Fill-65" fill="#D18682" stroke="none" />
      <path d="M0.720089 0.457017C0.69099 0.631735 0.526096 0.749832 0.351502 0.720712C0.177717 0.691592 0.0597045 0.526581 0.0879951 0.351863C0.117094 0.177145 0.281988 0.0590482 0.456582 0.0881679C0.631175 0.117288 0.749188 0.282299 0.720089 0.457017" transform="translate(83.98698 47.13747)" id="Fill-67" fill="#D18682" stroke="none" />
      <path d="M0.720199 0.457017C0.6911 0.631735 0.526206 0.749832 0.351612 0.720712C0.177019 0.691592 0.0590062 0.526581 0.0881051 0.351863C0.117204 0.177145 0.282098 0.0590482 0.456692 0.0881679C0.631285 0.117288 0.749298 0.282299 0.720199 0.457017" transform="translate(85.14015 43.93236)" id="Fill-69" fill="#D18682" stroke="none" />
      <path d="M0.720089 0.457017C0.69099 0.631735 0.526096 0.749832 0.351502 0.720712C0.177717 0.691592 0.0597045 0.526581 0.0879951 0.351863C0.117094 0.177145 0.281988 0.0590482 0.456582 0.0881679C0.631175 0.117288 0.749188 0.282299 0.720089 0.457017" transform="translate(70.34853 49.26361)" id="Fill-71" fill="#D18682" stroke="none" />
      <path d="M37.5229 7.77739L36.2418 2.56334L30.4899 3.07617L27.0449 16.3216L19.417 1.73828L2.39499 0L0 8.20448C0 8.20448 11.0875 23.2804 29.0681 20.5124C37.9497 19.1446 37.5229 7.77739 37.5229 7.77739" transform="translate(54.747 58.43956)" id="Fill-73" fill="#597EF7" stroke="none" />
      <path d="M0 0C0 0 10.9323 27.3499 0.683014 52.1356C8.88241 66.8362 17.4229 77.6048 22.5475 82.391C27.6722 87.1771 47.3292 86.094 48.8529 70.0839C50.2189 55.7254 25.1842 21.568 21.5226 15.3841C16.0569 6.15397 3.75779 0 0 0" transform="translate(113.7925 72.37043)" id="Fill-75" fill="#FFC2BD" stroke="none" />
      <path d="M35.7851 37.8621C29.0342 26.2191 23.4286 18.6035 21.5218 15.3841C16.0561 6.15316 3.75779 0 0 0C0 0 10.9315 27.3491 0.683014 52.1356C4.16032 58.3697 3.77476 57.8131 7.0888 62.4771C7.0888 62.4771 9.6503 56.836 19.3871 48.6307C29.5119 40.0987 35.7851 37.8621 35.7851 37.8621" transform="translate(113.3658 71.60159)" id="Fill-77" fill="#597EF7" stroke="none" />
      <path d="M5.80764 0C5.80764 0 9.39407 15.3849 0 37.6065" transform="translate(115.1593 93.56642)" id="Stroke-79" fill="none" stroke="#1D39C4" stroke-width="0.6199665" stroke-linecap="round" stroke-linejoin="round" />
      <path d="M55.0873 10.2914C29.081 6.95795 0 8.86772 0 8.86772L1.02493 1.5611C1.02493 1.5611 34.0771 -2.67016 54.4892 2.7995C54.9588 6.30438 55.0873 10.2914 55.0873 10.2914" transform="translate(54.34956 152.7607)" id="Fill-81" fill="#253368" stroke="none" />
      <path d="M0 10.9401L8.5405 0" transform="translate(125.7497 131.8562)" id="Stroke-83" fill="none" stroke="#D18682" stroke-width="0.8083005" stroke-linecap="round" stroke-linejoin="round" />
      <path d="M5.46573 0C5.46573 0 4.0997 38.9201 0 55.3299" transform="translate(78.94695 162.283)" id="Stroke-85" fill="none" stroke="#253368" stroke-width="0.910146356" stroke-linecap="round" stroke-linejoin="round" />
      <path d="M12.6402 0C12.6402 0 12.2983 34.7616 9.22352 37.1551C6.14955 39.5478 0 42.6248 0 42.6248" transform="translate(81.67966 162.625)" id="Stroke-87" fill="none" stroke="#253368" stroke-width="0.910146356" stroke-linecap="round" stroke-linejoin="round" />
      <path d="M0 9.11792L0 1.81858C0 0.864913 0.726662 0.0843427 1.64651 0.0568407C4.69703 -0.0345628 11.4762 -0.11626 17.6258 0.66431C18.4834 0.773509 19.1309 1.52172 19.1309 2.41635L19.1309 9.27889C19.1309 10.2609 18.3622 11.0536 17.414 11.0414C13.9278 10.9986 5.98708 10.9039 1.68692 10.8797C0.750911 10.8748 0 10.087 0 9.11792" transform="translate(77.75091 151.5833)" id="Fill-89" fill="#E1E7F3" stroke="none" />
      <path d="M0 6.03346L0.0024249 1.20202C0.0024249 0.571097 0.595718 0.0542232 1.34663 0.0364278C3.83458 -0.0234293 9.36578 -0.0743888 14.3821 0.443294C15.0821 0.516094 15.6099 1.01194 15.6099 1.60404L15.6083 6.14671C15.6083 6.79624 14.9802 7.32039 14.2075 7.31311C11.3631 7.28318 4.88375 7.21766 1.37654 7.20068C0.612692 7.19663 0 6.67491 0 6.03346" transform="translate(79.72389 153.4078)" id="Fill-91" fill="#253368" stroke="none" />
      <path d="M16.1498 0L0 7.21279L0.666848 8.68172L16.9509 1.33546L16.1498 0Z" transform="translate(79.13068 152.9189)" id="Fill-93" fill="#E1E7F3" stroke="none" />
      <path d="M16.8272 7.12866L0.639366 0L0 1.48187L16.3762 8.61943L16.8272 7.12866Z" transform="translate(79.14717 152.7716)" id="Fill-95" fill="#E1E7F3" stroke="none" />
      <path d="M13.3232 0C13.3232 0 9.73598 17.179 0 13.5892" transform="translate(49.7378 162.283)" id="Stroke-97" fill="none" stroke="#253368" stroke-width="0.910146356" stroke-linecap="round" stroke-linejoin="round" />
      <path d="M0 0L10.2484 6.66679" transform="translate(86.12086 207.4101)" id="Stroke-99" fill="none" stroke="#253368" stroke-width="0.910146356" stroke-linecap="round" stroke-linejoin="round" />
      <path d="M0 0L4.61216 7.17882" transform="translate(81.50903 205.8717)" id="Stroke-101" fill="none" stroke="#253368" stroke-width="0.910146356" stroke-linecap="round" stroke-linejoin="round" />
      <path d="M1.28566 46.8472L0.00126853 7.0705C-0.0399548 5.7957 0.928389 4.71423 2.19904 4.61474L54.779 0.00735416C56.1264 -0.0978003 57.292 0.937567 57.347 2.28921L59.088 45.0313C59.1422 46.3603 58.1003 47.4765 56.7723 47.5137L3.73481 49.1558C2.42294 49.1913 1.32769 48.16 1.28566 46.8472" transform="translate(15.25346 182.3166)" id="Fill-103" fill="#FFC540" stroke="none" />
      <path d="M1.31053 47.273L0.00108098 6.72223C-0.0336759 5.65936 0.773816 4.75746 1.83269 4.67496L55.2015 0.00609572C56.3251 -0.0812634 57.2967 0.781003 57.3427 1.90777L59.1169 45.4644C59.1622 46.5717 58.2933 47.5028 57.1859 47.5335L3.35149 49.1966C2.25786 49.2273 1.34609 48.3675 1.31053 47.273" transform="translate(12.90473 182.3394)" id="Fill-105" fill="#FF7A46" stroke="none" />
      <path d="M16.0136 0C16.0136 0 6.79013 2.05132 2.69043 17.7776C-1.40927 33.503 0.128116 47.8623 1.15304 67.6912C2.17797 87.5193 9.35244 122.219 12.4272 134.869C15.5012 147.518 16.6271 151.74 19.7714 156.235C21.5651 158.799 24.5541 159.398 26.6048 158.629C29.3369 161.364 33.6928 159.484 33.6928 159.484C33.6928 159.484 40.2691 161.193 41.636 157.432C47.016 158.202 44.7107 150.766 45.3938 148.031C46.0768 145.295 43.259 139.826 35.7426 132.305C30.9599 123.758 35.2302 47.5201 37.28 37.9478C39.3299 28.3755 39.2442 2.05132 16.0136 0" transform="translate(13.73852 75.10558)" id="Fill-107" fill="#FFC2BD" stroke="none" />
      <path d="M36.1119 52.2873C36.1119 52.2873 41.0652 21.5183 36.2825 11.946C31.4997 2.37369 23.8354 -4.89087 11.6859 4.08285C-2.66308 14.6808 0.241147 45.6205 0.241147 45.6205C0.241147 45.6205 16.1267 49.2103 36.1119 52.2873" transform="translate(13.62557 73.07355)" id="Fill-109" fill="#597EF7" stroke="none" />
      <path d="M0 0.0313781C0.213391 0.0564534 13.8357 -2.01994 14.6901 23.6208L12.8108 45.1588" transform="translate(36.92656 81.22768)" id="Stroke-111" fill="none" stroke="#1D39C4" stroke-width="0.6199665" stroke-linecap="round" stroke-linejoin="round" />
      <path d="M0.0899056 0C0.0899056 0 -0.251197 7.52097 0.772919 9.74377" transform="translate(54.60116 222.7943)" id="Stroke-113" fill="none" stroke="#D18682" stroke-width="0.8083005" stroke-linecap="round" stroke-linejoin="round" />
      <path d="M0 0L11.2734 4.10265" transform="translate(56.39925 66.90061)" id="Stroke-115" fill="none" stroke="#1D39C4" stroke-width="0.6199665" stroke-linecap="round" stroke-linejoin="round" />
      <path d="M0 0C0 0 3.18955 10.9992 2.16463 19.2036" transform="translate(81.7916 74.76075)" id="Stroke-117" fill="none" stroke="#1D39C4" stroke-width="0.6199665" stroke-linecap="round" stroke-linejoin="round" />
    </g>
  </g>
</svg>