<?xml version="1.0" encoding="utf-8"?>
<svg width="155px" height="339px" viewBox="0 0 155 339" version="1.1" xmlns:xlink="http://www.w3.org/1999/xlink" xmlns="http://www.w3.org/2000/svg">
  <desc>Created with Lunacy</desc>
  <defs>
    <path d="M0 0L32.4103 0L32.4103 18.3879L0 18.3879L0 0Z" transform="translate(0.4804442 0.2340434)" id="path_1" />
    <path d="M0 0L74.645 0L74.645 46.6371L0 46.6371L0 0Z" transform="translate(0.4274552 0.6759107)" id="path_2" />
    <clipPath id="mask_1">
      <use xlink:href="#path_1" />
    </clipPath>
    <clipPath id="mask_2">
      <use xlink:href="#path_2" />
    </clipPath>
  </defs>
  <g id="分组" transform="translate(0.4232178 0.4232178)">
    <path d="M11.423 60.8887L11.423 60.8887C4.91122 60.6821 -0.200489 55.2352 0.00604454 48.7235L1.18853 11.4238C1.39507 4.91122 6.84197 -0.200489 13.3537 0.00604454C19.8663 0.212578 24.978 5.65948 24.7715 12.1712L23.5881 49.4709C23.3816 55.9835 17.9347 61.0952 11.423 60.8887" transform="translate(73.53971 61.93251)" id="Fill-1" fill="#CCD7EE" stroke="none" />
    <path d="M6.54961 0.0328611C2.30213 0.435771 -0.675682 4.40393 0.132677 8.59216C1.51578 15.7531 3.50155 26.79 4.77292 37.137C5.91224 46.4107 4.84994 52.8683 6.8044 55.1952C8.91121 57.704 12.9809 55.3001 16.531 58.4819C20.081 61.6646 22.6474 64.115 31.745 61.7086C42.3841 58.8941 32.7489 56.4276 27.5534 52.0912C18.3804 44.4351 17.1455 40.6743 16.4065 34.7585C14.8914 22.6432 14.5206 13.2663 14.4597 7.13965C14.4174 2.91333 10.7573 -0.365817 6.54961 0.0328611" transform="translate(57.03605 272.4483)" id="Fill-3" fill="#FFC6A0" stroke="none" />
    <g id="分组" transform="translate(61.79085 318.3964)">
      <path d="M0 0L32.4103 0L32.4103 18.3879L0 18.3879L0 0Z" transform="translate(0.4804442 0.2340434)" id="Clip-6" fill="none" stroke="none" />
      <g clip-path="url(#mask_1)">
        <path d="M0.195954 0C0.195954 0 1.79913 1.93329 7.22741 5.91415C11.5096 9.05363 14.286 10.9471 16.4935 9.86791C20.5235 7.89738 23.6485 6.85117 23.6485 6.85117C23.6485 6.85117 27.5642 8.62617 30.542 10.6915C33.5182 12.756 33.3412 16.3864 27.0479 17.6857C20.7537 18.9842 17.0903 18.7844 10.8578 14.4726C4.62458 10.1591 2.10216 12.1872 1.0441 9.59874C-0.60902 5.55187 0.195954 0 0.195954 0" transform="translate(0.4804442 0.2340434)" id="Fill-5" fill="#253368" stroke="none" />
      </g>
    </g>
    <path d="M13.7652 65.2408L0.594443 20.2791C-2.01008 10.9453 4.22402 1.46083 13.8236 0.148837C22.1332 -0.987099 29.9062 4.49282 31.6287 12.7008L41.3087 58.8231C41.3087 58.8231 44.7867 71.811 31.0159 74.8887C17.6242 77.8826 13.7652 65.2408 13.7652 65.2408" transform="translate(28.78821 164.712)" id="Fill-7" fill="#253368" stroke="none" />
    <path d="M0.0442583 13.7213L14.6972 95.7745C15.0467 97.7357 16.7727 99.151 18.7643 99.1112L32.8264 98.8294C35.1939 98.782 37.0172 96.7208 36.7734 94.3635L28.3081 12.5194C28.3081 12.5194 27.3922 -1.44704 12.4854 0.123124C-1.41925 1.58748 0.0442583 13.7213 0.0442583 13.7213" transform="translate(42.23135 209.3012)" id="Fill-9" fill="#253368" stroke="none" />
    <path d="M3.11811 12.0283L26.1703 11.5669C26.6587 11.5568 27.0371 11.1378 26.9973 10.6511L26.1889 0.777228C26.1525 0.331149 25.7759 -0.00912438 25.3281 0.000186574L0.830153 0.491128C0.293504 0.501285 -0.0984027 1.00238 0.0217932 1.52549L2.27589 11.3714C2.36477 11.7625 2.71604 12.0367 3.11811 12.0283" transform="translate(53.70171 296.9925)" id="Fill-11" fill="#4E5C93" stroke="none" />
    <path d="M30.6743 0.88646C26.9296 -1.15687 22.2403 0.464928 20.5668 4.38907C17.7058 11.098 13.1756 21.3562 8.43807 30.6426C4.19312 38.9657 -0.301529 43.7228 0.0158899 46.7446C0.358702 50.0026 5.07681 50.2878 6.23814 54.912C7.39947 59.5361 8.15451 63.0032 17.0405 66.0995C27.4333 69.7206 20.8284 62.2846 18.9493 55.7847C15.632 44.3051 16.7121 40.4969 19.4098 35.1812C24.9354 24.2933 29.8753 16.3147 33.2534 11.203C35.5837 7.67668 34.3851 2.91032 30.6743 0.88646" transform="translate(24.30795 260.6046)" id="Fill-13" fill="#FFC6A0" stroke="none" />
    <path d="M4.73478 0C4.73478 0 4.9811 2.49957 7.25297 8.83609C9.0449 13.8352 10.2866 16.9578 12.7202 17.2989C17.1624 17.9202 20.3374 18.8022 20.3374 18.8022C20.3374 18.8022 22.5889 22.4648 23.9009 25.8421C25.2121 29.2195 23.0342 32.1287 17.0913 29.6833C11.1483 27.2371 8.22385 25.0228 5.47204 17.96C2.72023 10.898 -0.505592 11.1672 0.0666077 8.42895C0.961305 4.15015 4.73478 0 4.73478 0" transform="translate(23.49509 299.1113)" id="Fill-15" fill="#253368" stroke="none" />
    <path d="M38.1481 60.0341L31.7887 13.6165C30.3514 4.03384 20.7849 -2.07414 11.4875 0.652277C3.43941 3.01218 -1.41414 11.1914 0.36764 19.3859L10.3871 65.4353C10.3871 65.4353 12.5218 78.7102 26.3477 75.8907C39.7936 73.1482 38.1481 60.0341 38.1481 60.0341" transform="translate(48.15282 159.2839)" id="Fill-17" fill="#253368" stroke="none" />
    <path d="M56.8782 17.1881L21.0226 85.4459C20.1652 87.0778 18.1379 87.8261 16.2427 87.2099L2.86711 82.8633C0.613861 82.1312 -0.58048 79.778 0.28036 77.766L30.1626 7.88989C30.1626 7.88989 34.7554 -4.1881 48.5966 1.54321C61.5083 6.88939 56.8782 17.1881 56.8782 17.1881" transform="translate(28.65316 208.9978)" id="Fill-19" fill="#253368" stroke="none" />
    <path d="M21.8706 19.2747L0.52648 10.5528C0.0744756 10.3683 -0.127826 9.84013 0.084633 9.40083L4.39052 0.478396C4.58436 0.0754859 5.05837 -0.105654 5.47229 0.0627891L28.1546 9.33226C28.6523 9.53541 28.836 10.1432 28.5364 10.5884L22.8931 18.964C22.6688 19.2967 22.2413 19.427 21.8706 19.2747" transform="translate(26.17893 279.3059)" id="Fill-21" fill="#4E5C93" stroke="none" />
    <path d="M33.8423 48.7394L54.0945 29.4962C55.8187 28.202 56.7244 26.0876 56.4739 23.9461L58.1617 0L0.294988 0.916705L0.000423098 26.2645C-0.0181988 27.8414 0.578549 29.3566 1.65947 30.5035C4.9767 34.0197 13.2922 41.0097 27.7564 48.5354C29.7193 49.5563 32.1266 50.1352 33.8423 48.7394" transform="translate(32.25787 152.5531)" id="Fill-23" fill="#253368" stroke="none" />
    <path d="M52.4215 0L0 1.07584" transform="translate(36.58492 159.9103)" id="Stroke-25" fill="none" stroke="#253368" stroke-width="0.649227142" stroke-linecap="round" stroke-linejoin="round" />
    <path d="M0.350007 0L0.496443 7.14827" transform="translate(58.48682 153.3781)" id="Stroke-27" fill="none" stroke="#253368" stroke-width="0.649227142" stroke-linecap="round" stroke-linejoin="round" />
    <path d="M4.85006 17.4944C4.85006 17.4944 1.71143 0.150668 23.7115 0C36.0172 0.74149 36.6571 21.1088 36.6571 21.1088C36.6571 21.1088 37.7059 25.3427 36.3008 29.8137C34.7264 34.8213 30.1268 36.6826 23.9959 37.5172C12.5392 37.6332 7.64419 31.5523 7.64419 31.5523C7.64419 31.5523 -0.205783 32.5003 0.00413634 22.5596C0.261457 13.3367 4.85006 17.4944 4.85006 17.4944" transform="translate(37.13208 6.105275)" id="Fill-29" fill="#FFC6A0" stroke="none" />
    <path d="M16.2773 7.61382C16.5727 12.1034 13.1717 15.9827 8.68129 16.2772C4.19172 16.5718 0.313287 13.1716 0.0178764 8.68204C-0.277535 4.19247 3.1235 0.313193 7.61392 0.0177817C12.1026 -0.276783 15.9819 3.12341 16.2773 7.61382" transform="translate(26.98278 3.863615)" id="Fill-31" fill="#253368" stroke="none" />
    <path d="M41.7422 27.8516C41.7422 27.8516 44.1088 23.0471 45.3489 17.4224C46.5889 11.7978 35.3591 1.44909 33.8761 0.652581C32.3931 -0.143928 31.6228 -0.987839 22.0639 3.21648C-6.93041 6.28994 1.71607 32.4715 1.71607 32.4715C1.71607 32.4715 -1.5089 35.1437 0.883168 41.6021C3.63074 48.0377 12.7453 47.6695 12.7453 47.6695L12.3856 37.3437C12.3856 37.3437 9.32481 37.777 6.77615 34.3684C4.22834 30.9597 5.94409 26.5006 7.34497 26.0512C8.55031 25.0168 11.7524 25.2843 12.003 29.0891C12.1291 31.0046 15.4929 26.4718 16.4401 19.0849C26.4603 16.46 28.5384 9.22881 28.5384 9.22881C28.5384 9.22881 29.3391 15.9708 27.9239 18.9249C33.16 16.9713 35.8221 13.9359 34.7327 10.9674C40.9617 13.2401 41.7422 27.8516 41.7422 27.8516" transform="translate(31.98186 0.0002012787)" id="Fill-33" fill="#253368" stroke="none" />
    <path d="M2.99484 16.2358L2.24235 0.853222L22.3066 0C22.3066 0 22.9194 10.496 23.5957 14.7257C37.1085 21.0411 7.97366 28.3688 0.624784 20.7313C-1.6437 18.3722 2.99484 16.2358 2.99484 16.2358" transform="translate(41.81596 32.70243)" id="Fill-35" fill="#FFC6A0" stroke="none" />
    <path d="M12.2943 7.28541C12.1741 11.2045 9.32662 14.2974 5.93235 14.1941C2.53978 14.0909 -0.114685 10.8295 0.00381826 6.91128C0.124014 2.99221 2.97147 -0.101561 6.36574 0.00255253C9.75916 0.105819 12.4136 3.36634 12.2943 7.28541" transform="translate(49.739 18.01837)" id="Fill-37" fill="#FFFFFF" stroke="none" />
    <path d="M12.2943 7.28541C12.1741 11.2045 9.32662 14.2974 5.93235 14.1941C2.53978 14.0909 -0.114685 10.8295 0.00381826 6.91128C0.124014 2.99221 2.97147 -0.101561 6.36574 0.00255253C9.75916 0.105819 12.4136 3.36634 12.2943 7.28541Z" transform="translate(49.739 18.01837)" id="Stroke-39" fill="none" stroke="#4E5C93" stroke-width="0.84645" stroke-linecap="round" stroke-linejoin="round" />
    <path d="M11.5107 7.27324C11.3914 11.1923 8.71912 14.2912 5.54155 14.1938C2.36398 14.0973 -0.114424 10.8419 0.0040785 6.92281C0.124274 3.00374 2.79652 -0.0951099 5.97409 0.00223191C9.15166 0.0987272 11.6309 3.35417 11.5107 7.27324" transform="translate(64.1245 16.61121)" id="Fill-41" fill="#FFFFFF" stroke="none" />
    <path d="M11.5107 7.27324C11.3914 11.1923 8.71912 14.2912 5.54155 14.1938C2.36398 14.0973 -0.114424 10.8419 0.0040785 6.92281C0.124274 3.00374 2.79652 -0.0951099 5.97409 0.00223191C9.15166 0.0987272 11.6309 3.35417 11.5107 7.27324Z" transform="translate(64.1245 16.61121)" id="Stroke-43" fill="none" stroke="#4E5C93" stroke-width="0.84645" stroke-linecap="round" stroke-linejoin="round" />
    <path d="M0 0L2.37598 2.23209L0.100728 4.50735" transform="translate(63.3914 26.38122)" id="Stroke-45" fill="none" stroke="#DD9987" stroke-width="0.6348375" stroke-linecap="round" stroke-linejoin="round" />
    <path d="M0 0.224311C0 0.224311 3.42559 0.937869 5.08294 0.453699" transform="translate(59.1054 32.45407)" id="Stroke-47" fill="none" stroke="#F5222D" stroke-width="0.84645" stroke-linecap="round" stroke-linejoin="round" />
    <g id="分组" transform="translate(61.79085 22.1389)">
      <path d="M0 0.618898C0 0.618898 1.02336 -0.164915 2.02217 0.486005" transform="translate(0.2134747 0.6893754)" id="Fill-49" fill="#FFFFFF" stroke="none" />
      <path d="M0 0.618898C0 0.618898 1.02336 -0.164915 2.02217 0.486005" transform="translate(0.2134747 0.6893754)" id="Stroke-51" fill="none" stroke="#4E5C93" stroke-width="0.84645" stroke-linecap="round" stroke-linejoin="round" />
    </g>
    <path d="M9.72317 0.403726C9.72317 0.403726 4.02656 0.93699 0 0.246286" transform="translate(54.28656 42.65561)" id="Stroke-52" fill="none" stroke="#DD9987" stroke-width="0.6348375" stroke-linecap="round" stroke-linejoin="round" />
    <path d="M1.90899 1.6822C1.97248 2.64546 1.5975 3.45467 1.0727 3.48853C0.547055 3.52323 0.0696576 2.77074 0.00702034 1.80748C-0.0564634 0.844218 0.317667 0.0358582 0.843313 0.00115374C1.36811 -0.0335507 1.84636 0.718943 1.90899 1.6822" transform="translate(56.58392 22.84369)" id="Fill-54" fill="#253368" stroke="none" />
    <path d="M1.90966 1.6822C1.9723 2.64546 1.59817 3.45467 1.07337 3.48853C0.547728 3.52323 0.0703299 2.77074 0.00684619 1.80748C-0.0557911 0.844218 0.31834 0.0358582 0.843985 0.00115374C1.36878 -0.0335507 1.84618 0.718943 1.90966 1.6822" transform="translate(68.96012 22.1898)" id="Fill-56" fill="#253368" stroke="none" />
    <g id="分组" transform="translate(44.0154 24.67825)">
      <path d="M5.52224 0.181987L0 0.664463" transform="translate(0.2056027 0.06907032)" id="Fill-58" fill="#FFFFFF" stroke="none" />
      <path d="M5.52224 0.181987L0 0.664463" transform="translate(0.2056027 0.06907032)" id="Stroke-60" fill="none" stroke="#4E5C93" stroke-width="0.84645" stroke-linecap="round" stroke-linejoin="round" />
    </g>
    <path d="M30.8345 1.10208L29.878 1.06483C30.4917 6.82069 8.81154 7.3091 5.57218 0.588283C5.49007 0.4173 5.4249 0.256474 5.37157 0.103267L2.73319 0L0 100.066C0 100.066 18.7523 108.434 36.9746 101.939C46.1476 22.1601 30.8345 1.10208 30.8345 1.10208" transform="translate(38.21265 50.42506)" id="Fill-61" fill="#597EF7" stroke="none" />
    <path d="M0 0C0 0 10.0719 4.68849 19.7849 0.299643" transform="translate(46.22844 58.86577)" id="Stroke-63" fill="none" stroke="#3C65D6" stroke-width="0.649227142" stroke-linecap="round" stroke-linejoin="round" />
    <path d="M0.00261833 0.296432C0.00261833 0.296432 5.3234 13.0694 5.76864 62.7975C6.12245 102.404 4.20609 171.532 4.20609 171.532C4.20609 171.532 21.4432 170.24 24.9399 163.667C28.5458 156.891 28.6439 106.664 28.4146 81.3356C27.999 35.2074 29.5209 24.7732 25.7923 14.4508C21.4948 11.9673 14.6928 8.31485 8.04812 4.69035C6.43394 3.81005 3.62881 1.44253 2.60376 0.875404C-0.184447 -0.665135 0.00261833 0.296432 0.00261833 0.296432" transform="translate(65.22144 48.5814)" id="Fill-65" fill="#CCD7EE" stroke="none" />
    <path d="M0 0C0 0 3.19281 23.9765 2.81952 49.7205" transform="translate(90.14472 73.01495)" id="Stroke-67" fill="none" stroke="#96A7CA" stroke-width="0.84645" stroke-linecap="round" stroke-linejoin="round" />
    <path d="M2.17453 10.7042C8.97237 7.63159 16.3754 6.4855 20.6872 4.17215C23.4484 2.69002 25.6855 0.66277 27.8465 0C40.6965 62.3021 35.4815 139.744 32.1736 175.391C15.887 177.137 0 164.667 0 164.667C0 164.667 1.17149 107.56 3.46198 75.1521C5.36649 48.1952 0.435922 11.4897 2.17453 10.7042" transform="translate(16.51873 47.58217)" id="Fill-69" fill="#CCD7EE" stroke="none" />
    <path d="M12.6862 75.5948C11.1118 58.9967 8.53436 51.7401 3.83403 33.7471C-0.866311 15.7541 0.0774804 4.44979 0.0774804 4.44979L6.84993 0" transform="translate(37.33722 47.36404)" id="Stroke-71" fill="none" stroke="#96A7CA" stroke-width="0.84645" stroke-linecap="round" stroke-linejoin="round" />
    <path d="M6.87825 75.957C11.8943 25.1133 8.25289 5.1972 8.25289 5.1972L0 0" transform="translate(65.49348 48.09326)" id="Stroke-73" fill="none" stroke="#96A7CA" stroke-width="0.84645" stroke-linecap="round" stroke-linejoin="round" />
    <path d="M1.8588 0L16.389 2.58506L15.1997 32.8998C15.0973 35.5103 12.7188 37.4334 10.1447 36.9865L0 35.2267" transform="translate(17.29898 144.2754)" id="Stroke-75" fill="none" stroke="#96A7CA" stroke-width="0.84645" stroke-linecap="round" stroke-linejoin="round" />
    <path d="M8.25672 0L0.744476 2.24986L0.000446186 34.6029C-0.0257938 35.7185 1.11014 36.4879 2.13689 36.0503L9.16242 33.053" transform="translate(82.56745 145.4451)" id="Stroke-77" fill="none" stroke="#96A7CA" stroke-width="0.84645" stroke-linecap="round" stroke-linejoin="round" />
    <path d="M59.6013 46.1071L3.21592 46.637C1.07186 46.6565 -0.478835 44.5954 0.135688 42.541L12.0232 2.80105C12.4236 1.46366 13.6484 0.542723 15.0434 0.530027L71.4305 0.000148888C73.5737 -0.0201659 75.1244 2.04179 74.509 4.09612L62.6215 43.8361C62.222 45.1735 60.9971 46.0936 59.6013 46.1071" transform="translate(75.91768 72.75536)" id="Fill-79" fill="#96A7CA" stroke="none" />
    <g id="分组" transform="translate(77.8734 72.07945)">
      <path d="M0 0L74.645 0L74.645 46.6371L0 46.6371L0 0Z" transform="translate(0.4274552 0.6759107)" id="Clip-82" fill="none" stroke="none" />
      <g clip-path="url(#mask_2)">
        <path d="M59.6013 46.1071L3.21592 46.637C1.07186 46.6565 -0.478835 44.5954 0.135688 42.541L12.0241 2.80105C12.4244 1.46366 13.6484 0.542723 15.0434 0.530027L71.4305 0.000148888C73.5737 -0.0201659 75.1244 2.04179 74.5099 4.09612L62.6215 43.8361C62.2219 45.1735 60.9971 46.0936 59.6013 46.1071" transform="translate(0.4274552 0.6759107)" id="Fill-81" fill="#253368" stroke="none" />
      </g>
    </g>
    <path d="M3.21531 2.37274C3.21531 2.37274 10.4804 -0.716804 12.1826 0.15504C14.8201 1.50597 10.8884 6.11235 10.8884 6.11235C10.8884 6.11235 12.6363 8.57129 10.0369 10.6798C10.003 13.6906 8.06039 14.3889 8.06039 14.3889C8.06039 14.3889 8.81712 16.9799 6.01029 17.7561C3.20262 18.5323 -1.56459 16.1411 0.506673 12.9906C-0.737608 10.3124 1.63499 9.05377 1.63499 9.05377C1.63499 9.05377 0.899426 6.67948 3.23478 5.50968C2.10731 4.12912 2.46028 2.70285 3.21531 2.37274" transform="translate(139.5573 99.11314)" id="Fill-83" fill="#FFC999" stroke="none" />
    <path d="M0 1.01489L6.4474 0" transform="translate(142.7924 103.608)" id="Stroke-85" fill="none" stroke="#DD936F" stroke-width="0.6280659" stroke-linecap="round" stroke-linejoin="round" />
    <path d="M5.62805 0.693666L0 0.152784" transform="translate(141.1924 108.0139)" id="Stroke-87" fill="none" stroke="#DD936F" stroke-width="0.6280659" stroke-linecap="round" stroke-linejoin="round" />
    <path d="M5.23445 1.01235L0 0" transform="translate(140.0634 112.1039)" id="Stroke-89" fill="none" stroke="#DD936F" stroke-width="0.6280659" stroke-linecap="round" stroke-linejoin="round" />
    <path d="M8.74641 64.7325L8.74641 64.7325C2.45305 63.0455 -1.28233 56.577 0.405488 50.2836L11.5355 8.74661C13.2216 2.45326 19.691 -1.28128 25.9835 0.404849C32.2777 2.09182 36.0123 8.5604 34.3261 14.8538L23.1953 56.3907C21.5083 62.6841 15.0406 66.4186 8.74641 64.7325" transform="translate(0.00021524 57.15248)" id="Fill-91" fill="#CCD7EE" stroke="none" />
    <path d="M11.6036 17.8176C11.6036 17.8176 1.78054 16.8095 0.247624 11.1924C-1.1414 6.10524 3.76632 4.10847 3.76632 4.10847C3.76632 4.10847 8.33038 1.35074 14.1912 0.463656C18.0527 -0.121241 25.5082 -0.487754 26.0889 1.49886C26.8473 4.089 18.3854 4.01367 18.3396 5.97658C18.2939 7.99198 20.0419 8.13672 23.9059 9.7746C26.3217 10.798 29.1048 10.8564 30.9865 12.1142C34.666 14.5731 26.2116 20.5575 11.6036 17.8176" transform="translate(62.07827 105.6951)" id="Fill-93" fill="#FFC6A0" stroke="none" />
    <path d="M0 0C0 0 4.05365 3.11494 10.9827 2.70949" transform="translate(81.04615 117.0407)" id="Stroke-95" fill="none" stroke="#DD9987" stroke-width="0.6348375" stroke-linecap="round" stroke-linejoin="round" />
    <path d="M9.46162 1.80887C9.46162 1.80887 4.60977 2.2414 0 0" transform="translate(79.18032 120.1063)" id="Stroke-97" fill="none" stroke="#DD9987" stroke-width="0.6348375" stroke-linecap="round" stroke-linejoin="round" />
    <path d="M0 0C0 0 2.50718 1.56 8.11322 1.94937" transform="translate(76.01959 121.8912)" id="Stroke-99" fill="none" stroke="#DD9987" stroke-width="0.6348375" stroke-linecap="round" stroke-linejoin="round" />
    <path d="M67.11 3.3046L66.52 23.5043L11.4525 23.5889C4.93994 23.3993 -0.185311 17.9651 0.00514043 11.4525C0.194745 4.93994 5.62895 -0.185311 12.1424 0.00514043L67.11 3.3046Z" transform="translate(1.432047 100.2507)" id="Fill-101" fill="#CCD7EE" stroke="none" />
    <path d="M4.31182 0L55.9554 4.09512L55.3646 24.2957L0 24.371" transform="translate(12.88441 99.46854)" id="Stroke-103" fill="none" stroke="#96A7CA" stroke-width="0.84645" stroke-linecap="round" stroke-linejoin="round" />
    <path d="M0.172676 17.1525L0.673775 0" transform="translate(59.32125 104.8611)" id="Stroke-105" fill="none" stroke="#96A7CA" stroke-width="0.84645" stroke-linecap="round" stroke-linejoin="round" />
  </g>
</svg>
