<?xml version="1.0" encoding="utf-8"?>
<svg width="101px" height="357px" viewBox="0 0 101 357" version="1.1" xmlns:xlink="http://www.w3.org/1999/xlink" xmlns="http://www.w3.org/2000/svg">
  <desc>Created with Lunacy</desc>
  <defs>
    <path d="M0 0L30.2991 0L30.2991 27.5081L0 27.5081L0 0Z" transform="translate(0 0.1684865)" id="path_1" />
    <clipPath id="mask_1">
      <use xlink:href="#path_1" />
    </clipPath>
  </defs>
  <g id="1.人物组件/4.商务拓展/站立/叉腰" transform="translate(0.4373779 0.4373779)">
    <g id="分组" transform="translate(0 0.2916)">
      <path d="M50.0846 77.4846C36.6984 97.5446 18.688 85.8512 14.1207 80.6321C8.94798 74.7202 2.46221 75.4594 0.491284 68.2344C-1.76308 59.9684 4.54248 54.6873 3.31076 50.9921C-0.383516 36.7066 9.77904 41.8391 8.20877 33.0124C5.58437 18.2615 7.84748 18.5484 14.1207 8.05257C21.602 -4.4667 29.5556 1.34897 29.5556 1.34897C29.5556 1.34897 40.5571 -1.30692 45.4831 13.472C46.3745 16.1436 49.9988 17.741 50.0811 24.4734C50.2902 41.6283 59.5727 42.9851 61.4115 54.6873C63.3317 66.9039 54.5181 70.5876 50.0846 77.4846" transform="translate(21.91007 0.0005806175)" id="Fill-1" fill="#253368" stroke="none" />
      <path d="M4.10019 3.78838C4.77291 -0.453523 1.6315 0.01537 1.6315 0.01537C1.6315 0.01537 0.112849 4.42611 0 7.9953C4.43611 8.03903 4.10019 3.78838 4.10019 3.78838" transform="translate(60.87637 23.06002)" id="Fill-3" fill="#F4B784" stroke="none" />
      <path d="M0.0757992 3.78838C-0.596048 -0.453523 3.41929 0.01537 3.41929 0.01537C3.41929 0.01537 4.93794 4.42611 5.05079 7.9953C0.614676 8.03903 0.0757992 3.78838 0.0757992 3.78838" transform="translate(34.49638 23.06002)" id="Fill-5" fill="#F4B784" stroke="none" />
      <path d="M7.73586 22.1674L7.73586 22.1674C3.83687 22.1674 0.720835 18.9254 0 15.0299L0.59224 0L14.0038 0L14.5969 15.0299C14.7509 18.9254 11.634 22.1674 7.73586 22.1674" transform="translate(41.96975 34.24431)" id="Fill-7" fill="#F4B784" stroke="none" />
      <path d="M0 0.476329L1.16611 0.398472" transform="translate(49.55996 35.07729)" id="Stroke-9" fill="none" stroke="#DD936F" stroke-width="0.6709716" stroke-linecap="round" stroke-linejoin="round" />
      <path d="M12.2166 33.4987C5.55065 33.4987 0.879217 26.5747 0.14701 18.104C-1.07684 3.94185 5.55065 0 12.2166 0C18.8817 0 25.9239 3.61642 24.2854 18.104C23.2129 27.5868 18.8817 33.4987 12.2166 33.4987Z" transform="translate(37.85833 7.888772)" id="Fill-11" fill="#FFC999" stroke="none" />
      <path d="M31.8146 10.8459C30.3362 5.11681 27.5456 -0.648999 19.1702 0.829413C9.07154 -4.58997 -6.50952 18.2843 2.91383 19.2737C11.7817 20.2054 10.7547 13.2664 12.6311 8.71136C14.3553 4.52369 17.5282 9.20387 17.5282 9.20387C17.5282 9.20387 19.2813 7.23295 21.2514 7.97216C24.5538 9.21 20.9767 15.7719 29.3512 19.8773C30.3712 20.3768 29.4911 26.0823 29.8445 25.6247C31.4865 23.4894 33.2921 16.5723 31.8146 10.8459" transform="translate(31.80235 4.104284)" id="Fill-13" fill="#253368" stroke="none" />
      <path d="M0 0L5.9119 1.04189" transform="translate(40.62781 18.39809)" id="Stroke-15" fill="none" stroke="#253368" stroke-width="0.8748" stroke-linecap="round" stroke-linejoin="round" />
      <path d="M0 0.794318L7.11475 0.0804816" transform="translate(52.06853 18.64601)" id="Stroke-17" fill="none" stroke="#253368" stroke-width="0.8748" stroke-linecap="round" stroke-linejoin="round" />
      <path d="M0 0L0.902794 2.08115L0.574744 9.27725L2.49143 10.0987" transform="translate(47.36053 20.20447)" id="Stroke-19" fill="none" stroke="#DD936F" stroke-width="0.6709716" stroke-linecap="round" stroke-linejoin="round" />
      <path d="M0 2.09427C0 0.937785 0.771574 0 1.72423 0C2.67601 0 3.44846 0.937785 3.44846 2.09427" transform="translate(41.8597 22.53117)" id="Stroke-21" fill="none" stroke="#253368" stroke-width="0.8748" stroke-linecap="round" stroke-linejoin="round" />
      <path d="M0 2.09427C0 0.937785 0.771574 0 1.72423 0C2.67689 0 3.44846 0.937785 3.44846 2.09427" transform="translate(53.68237 22.53117)" id="Stroke-23" fill="none" stroke="#253368" stroke-width="0.8748" stroke-linecap="round" stroke-linejoin="round" />
      <path d="M6.07549 0.163588C3.16065 0.163588 0 0 0 0C0 0 0.451397 2.35146 3.03731 2.35146C5.86991 2.35146 6.07549 0.163588 6.07549 0.163588Z" transform="matrix(0.9993908 -0.0348995 0.0348995 0.9993908 46.66464 32.13474)" id="Stroke-25" fill="#FFFFFF" stroke="#B53026" stroke-width="0.8748" stroke-linecap="round" stroke-linejoin="round" />
      <path d="M0 0.437401L1.72423 0.437401" transform="translate(49.00253 36.17219)" id="Stroke-27" fill="none" stroke="#DD936F" stroke-width="0.6709716" stroke-linecap="round" stroke-linejoin="round" />
      <path d="M1.42808 0.17731C1.35197 -0.0641351 1.00905 -0.0571367 0.943443 0.186933C0.359077 2.34594 -1.00211 8.15899 1.254 8.29546C3.79791 8.4503 2.12005 2.38093 1.42808 0.17731" transform="translate(61.58997 29.67515)" id="Fill-29" fill="#FFFFFF" stroke="none" />
      <path d="M1.42808 0.17731C1.35197 -0.0641351 1.00905 -0.0571367 0.943443 0.186933C0.359077 2.34594 -1.00211 8.15899 1.254 8.29546C3.79791 8.4503 2.12005 2.38093 1.42808 0.17731" transform="translate(36.0277 29.67515)" id="Fill-31" fill="#FFFFFF" stroke="none" />
      <path d="M3.45063 49.7101L3.45063 49.7101C-0.0914361 47.3472 -1.05459 42.4553 1.25401 38.5607L19.8015 6.02868C22.8782 0.841116 27.4954 -1.78766 32.2132 1.36075C36.8767 4.47154 36.1227 11.3877 32.634 16.2201L14.6743 47.3394C11.9913 51.0555 7.03643 52.1018 3.45063 49.7101" transform="translate(0.290803 54.0699)" id="Fill-33" fill="#FFC999" stroke="none" />
      <path d="M13.3005 31.7227L0 21.1315L8.12777 6.35264C12.1055 -0.844338 17.0079 -0.48567 23.2251 0.590334L22.9408 0.893014C27.984 3.89358 28.2473 12.5392 25.1584 17.5291L13.3005 31.7227Z" transform="translate(11.65741 52.40409)" id="Fill-35" fill="#597EF7" stroke="none" />
      <g id="分组" transform="translate(0 90.36771)">
        <path d="M0 0L30.2991 0L30.2991 27.5081L0 27.5081L0 0Z" transform="translate(0 0.1684865)" id="Clip-38" fill="none" stroke="none" />
        <g clip-path="url(#mask_1)">
          <path d="M29.1052 18.8091L30.2993 27.5081C30.2993 27.5081 7.66825 19.6559 2.37658 13.1981C-6.21046 2.71975 11.2339 0 11.2339 0L29.1052 18.8091Z" transform="translate(-0.0001865575 0.1684865)" id="Fill-37" fill="#FFC999" stroke="none" />
        </g>
      </g>
      <path d="M6.65023 5.41851C6.65023 5.41851 3.94097 0 0 0" transform="translate(10.42595 91.51633)" id="Stroke-39" fill="none" stroke="#DD936F" stroke-width="0.5" stroke-linecap="round" stroke-linejoin="round" />
      <path d="M0 0L13.3005 10.5912L14.6555 8.86697" transform="translate(11.65732 73.53525)" id="Stroke-41" fill="none" stroke="#1D39C4" stroke-width="0.6561" stroke-linecap="round" stroke-linejoin="round" />
      <path d="M34.0496 48.5212L34.0496 48.5212C37.4719 45.9878 38.1944 41.0539 35.6978 37.2782L17.054 5.41715C13.728 0.387052 7.5117 -1.73696 2.95312 1.63802C-1.5521 4.97363 -0.46035 11.8452 3.26105 16.5009L22.7227 46.7025C25.5851 50.283 30.5854 51.0861 34.0496 48.5212" transform="translate(61.96649 55.2763)" id="Fill-43" fill="#FFC999" stroke="none" />
      <path d="M13.8697 31.2523L27.171 20.6611L19.0424 5.88313C16.1328 0.785666 8.51938 -2.04956 4.45419 1.75844L4.23024 0.422624C-0.813861 3.42319 -1.0763 12.0688 2.01262 17.0587L13.8697 31.2523Z" transform="translate(59.73234 53.5793)" id="Fill-45" fill="#597EF7" stroke="none" />
      <path d="M28.2431 28.3803C28.2589 28.1555 26.3877 83.9923 26.5915 87.9962C27.1461 98.9233 28.4785 100.359 22.7958 103.559C21.3401 104.379 19.042 103.657 16.813 106.44C10.7113 114.059 1.45676 118.67 0.0465811 114.547C-0.927946 110.667 13.6996 97.3854 14.8062 89.2043C15.9557 80.7065 6.66532 14.9154 12.1941 9.84771C17.7228 4.78087 23.8683 -17.4574 28.2431 28.3803" transform="translate(15.97057 235.218)" id="Fill-47" fill="#FFC999" stroke="none" />
      <path d="M32.5144 13.2366C32.5144 13.2366 34.1048 7.2031 32.5101 0C32.5101 0 27.8229 4.74929 23.7883 9.89399C19.1282 15.8339 17.9403 16.1856 17.9403 16.1856C11.8027 18.453 10.2079 14.9556 10.2079 14.9556C10.2079 14.9556 7.03764 19.5107 0.872923 24.5618C-4.64706 29.0845 17.7093 28.7695 20.4658 22.9731C23.2223 17.1776 27.0732 13.6731 27.0732 13.6731L29.2716 22.1202L31.3938 21.9479L32.5144 13.2366Z" transform="translate(10.08596 326.7513)" id="Fill-49" fill="#253368" stroke="none" />
      <path d="M35.342 26.0445L35.6482 107.407L0.0088212 106.04C0.0088212 106.04 -0.148643 69.3944 0.867 25.6246C0.867 25.6246 -0.20638 0 17.8565 0C35.9185 0 35.342 26.0445 35.342 26.0445" transform="translate(14.06802 196.3566)" id="Fill-51" fill="#CCD7EE" stroke="none" />
      <path d="M0.0958576 87.9688C1.00652 52.6881 2.71938 9.1537 5.93077 1.44671C5.93077 1.44671 9.87175 -3.2081 21.6947 4.18134C35.4798 12.7972 34.2306 25.3637 34.2306 25.3637L34.4038 89.1778C34.1221 93.844 33.6339 108.332 15.6183 108.332C-2.11564 108.332 0.0757372 88.7369 0.0958576 87.9688" transform="translate(14.99234 130.3856)" id="Fill-53" fill="#CCD7EE" stroke="none" />
      <path d="M9.88416e-05 28.3803C-0.0156476 28.1555 1.85555 83.9922 1.65172 87.9962C1.0971 98.9242 -0.235222 100.359 5.44748 103.559C6.90315 104.379 9.20124 103.657 11.4302 106.44C17.532 114.059 26.7865 118.671 28.1967 114.547C29.1712 110.667 14.5436 97.3854 13.437 89.2043C12.2875 80.7065 21.5779 14.9154 16.0492 9.84771C10.5204 4.78087 4.37497 -17.4574 9.88416e-05 28.3803" transform="translate(55.48995 235.3538)" id="Fill-55" fill="#FFC999" stroke="none" />
      <path d="M0.705544 13.2366C0.705544 13.2366 -0.884842 7.2031 0.709918 0C0.709918 0 5.3971 4.74929 9.43167 9.89399C14.0917 15.8339 15.2797 16.1856 15.2797 16.1856C21.4173 18.453 23.0121 14.9556 23.0121 14.9556C23.0121 14.9556 26.1823 19.5107 32.3471 24.5618C37.8671 29.0845 15.5107 28.7695 12.7542 22.9731C9.99767 17.1776 6.1468 13.6731 6.1468 13.6731L3.94843 22.1202L1.82529 21.9479L0.705544 13.2366Z" transform="translate(56.39781 326.8871)" id="Fill-57" fill="#253368" stroke="none" />
      <path d="M0.30618 26.0445L0 107.407L35.6393 106.04C35.6393 106.04 35.7968 69.3944 34.7812 25.6246C34.7812 25.6246 35.8546 0 17.7917 0C-0.270313 0 0.30618 26.0445 0.30618 26.0445" transform="translate(50.86236 196.4925)" id="Fill-59" fill="#CCD7EE" stroke="none" />
      <path d="M34.3079 87.9695C33.3972 52.688 31.6844 9.15442 28.473 1.44656C28.473 1.44656 24.532 -3.20825 12.7091 4.18206C-1.076 12.7971 0.172336 25.3645 0.172336 25.3645L0 89.1785C0.281686 93.8438 0.769824 108.333 18.7855 108.333C36.5194 108.333 34.3271 88.7376 34.3079 87.9695" transform="translate(51.29311 134.3262)" id="Fill-61" fill="#CCD7EE" stroke="none" />
      <path d="M63.1396 30.8708C63.1396 30.8708 62.0968 10.6734 48.5768 0.133844L12.4414 0C12.4414 0 0 11.0898 0 31.8558C0 31.8558 6.31868 33.0753 13.6574 37.85C18.4443 40.9643 23.7954 45.2385 32.1585 45.2385C40.6852 45.2385 45.1589 41.3579 50.0027 38.178C57.1944 33.4576 63.1396 30.8708 63.1396 30.8708" transform="translate(18.59615 114.5083)" id="Fill-63" fill="#CCD7EE" stroke="none" />
      <path d="M0 5.5821L36.4345 5.37915L34.8284 0L1.84845 0.0376164L0 5.5821Z" transform="translate(30.85805 109.2627)" id="Fill-65" fill="#CCD7EE" stroke="none" />
      <path d="M0 0.437401L33.944 0.437401" transform="translate(32.20235 108.863)" id="Stroke-67" fill="none" stroke="#DD936F" stroke-width="0.6709716" stroke-linecap="round" stroke-linejoin="round" />
      <path d="M34.1644 0.437401L0 0.437401" transform="translate(31.96887 114.1177)" id="Stroke-69" fill="none" stroke="#A3B5D6" stroke-width="0.6561" stroke-linecap="round" stroke-linejoin="round" />
      <path d="M0.437401 0L0.437401 48.8261" transform="translate(49.16779 109.1714)" id="Stroke-71" fill="none" stroke="#A3B5D6" stroke-width="0.6561" stroke-linecap="round" stroke-linejoin="round" />
      <path d="M49.5331 8.40333C42.7954 5.76668 37.7819 7.92306 35.5757 5.94077C34.2713 4.76766 34.3824 0 34.3824 0L18.112 0C18.112 0 18.462 4.30926 17.1585 5.48237C14.9523 7.46467 9.77169 5.47275 3.69358 8.76637C-2.04598 11.8754 -0.0269442 22.4439 2.60096 29.5044C3.20807 31.1368 2.16006 34.2134 3.17482 36.4835C4.19659 38.7668 5.74849 41.5329 6.36435 43.0104C8.38776 47.8656 7.97223 53.096 9.27743 57.5015C9.27743 57.5015 7.19803 61.5247 10.4803 63.1579L42.0133 63.1579C45.9508 61.3602 43.2162 57.5015 43.2162 57.5015C44.4628 53.2972 43.7052 49.9065 45.5528 43.7487C45.9228 42.5179 47.3111 40.5662 48.4956 37.9611C50.3432 33.8968 49.4806 29.9969 49.7273 29.0119C51.8863 20.3776 55.375 10.6901 49.5331 8.40333" transform="translate(23.08387 46.21437)" id="Fill-73" fill="#597EF7" stroke="none" />
      <path d="M0 0L9.87999 1.21335" transform="translate(43.91129 53.71517)" id="Stroke-75" fill="none" stroke="#1D39C4" stroke-width="0.6561" stroke-linecap="round" stroke-linejoin="round" />
      <path d="M2.55948 0C2.55948 0 -0.582802 6.61349 0.0960425 13.9163C0.385601 17.028 1.56133 19.4774 3.65473 22.8786C3.65473 22.8786 5.81286 35.1398 6.44534 37.521C4.89957 40.2714 6.49433 43.0043 7.64819 43.1775L39.2845 43.1775C39.2845 43.1775 42.215 41.7498 40.3841 37.521C42.1048 28.5718 42.8554 23.2067 42.8554 23.2067C45.59 19.2439 46.7124 16.1672 46.8952 12.8079C47.2661 5.96176 43.9506 0.32805 43.9506 0.32805" transform="translate(25.9164 66.19472)" id="Stroke-77" fill="none" stroke="#1D39C4" stroke-width="0.6561" stroke-linecap="round" stroke-linejoin="round" />
      <path d="M0 0.437401L38.9164 0.437401" transform="translate(29.21482 78.31936)" id="Stroke-79" fill="none" stroke="#1D39C4" stroke-width="0.6561" stroke-linecap="round" stroke-linejoin="round" />
      <path d="M1.88694 18.4355L0 27.4766C0 27.4766 24.3212 20.8867 30.3442 14.4972C40.1201 4.12731 22.0117 0 22.0117 0L1.88694 18.4355Z" transform="translate(66.40896 89.95927)" id="Fill-81" fill="#FFC999" stroke="none" />
      <path d="M0.133695 5.62569C0.133695 5.62569 3.79473 0.174811 5.37637 0.0094735C7.82756 -0.245968 7.17934 4.74914 7.17934 4.74914C7.17934 4.74914 9.51243 5.66943 8.65775 8.3192C10.0014 10.4327 8.9648 11.8009 8.9648 11.8009C8.9648 11.8009 10.668 13.2627 9.06366 15.0788C7.46015 16.894 3.05115 17.3909 3.06515 14.2547C0.982252 12.953 2.06438 10.9987 2.06438 10.9987C2.06438 10.9987 0.473993 9.67776 1.57099 7.80219C0.159065 7.35254 -0.243344 6.19781 0.133695 5.62569" transform="translate(63.5926 101.8051)" id="Fill-83" fill="#FFC999" stroke="none" />
      <path d="M0 3.63304L4.0337 0" transform="translate(65.16367 105.9745)" id="Stroke-85" fill="none" stroke="#DD936F" stroke-width="0.5" stroke-linecap="round" stroke-linejoin="round" />
      <path d="M4.05295 13.9242L3.58843 11.7914C3.58843 11.7914 4.82452 10.4679 3.28137 8.30973C4.20866 6.1376 1.80296 4.73967 1.80296 4.73967C1.80296 4.73967 2.69263 0.247568 0 0" transform="translate(68.96897 101.8147)" id="Stroke-87" fill="none" stroke="#DD936F" stroke-width="0.5" stroke-linecap="round" stroke-linejoin="round" />
      <path d="M4.16842 0L0 2.17738" transform="translate(65.65715 110.6262)" id="Stroke-89" fill="none" stroke="#DD936F" stroke-width="0.5" stroke-linecap="round" stroke-linejoin="round" />
      <path d="M4.10719 0L0 1.66999" transform="translate(66.6581 114.3899)" id="Stroke-91" fill="none" stroke="#DD936F" stroke-width="0.5" stroke-linecap="round" stroke-linejoin="round" />
      <path d="M0 5.41851C0 5.41851 3.58406 0 7.52503 0" transform="translate(80.60932 92.22115)" id="Stroke-93" fill="none" stroke="#DD936F" stroke-width="0.5" stroke-linecap="round" stroke-linejoin="round" />
      <path d="M14.6555 0L1.35419 10.5912L0 8.86697" transform="translate(72.24746 74.24052)" id="Stroke-95" fill="none" stroke="#1D39C4" stroke-width="0.6561" stroke-linecap="round" stroke-linejoin="round" />
      <path d="M9.61826 5.62569C9.61826 5.62569 5.95722 0.174811 4.37558 0.0094735C1.9244 -0.245968 2.57262 4.74914 2.57262 4.74914C2.57262 4.74914 0.239531 5.66943 1.09334 8.3192C-0.249482 10.4327 0.787156 11.8009 0.787156 11.8009C0.787156 11.8009 -0.91608 13.2627 0.688303 15.0788C2.29181 16.894 6.7008 17.3909 6.68681 14.2547C8.76883 12.953 7.6867 10.9987 7.6867 10.9987C7.6867 10.9987 9.27709 9.67776 8.18009 7.80219C9.59289 7.35254 9.99442 6.19781 9.61826 5.62569" transform="translate(26.30584 101.8051)" id="Fill-97" fill="#FFC999" stroke="none" />
      <path d="M4.03283 3.63304L0 0" transform="translate(30.45345 105.9745)" id="Stroke-99" fill="none" stroke="#DD936F" stroke-width="0.5" stroke-linecap="round" stroke-linejoin="round" />
      <path d="M0.00463284 13.9242L0.469152 11.7914C0.469152 11.7914 -0.767816 10.4679 0.775332 8.30973C-0.151082 6.1376 2.25462 4.73967 2.25462 4.73967C2.25462 4.73967 1.36495 0.247568 4.05758 0" transform="translate(26.62384 101.8147)" id="Stroke-101" fill="none" stroke="#DD936F" stroke-width="0.5" stroke-linecap="round" stroke-linejoin="round" />
      <path d="M0 0L4.16842 2.17738" transform="translate(29.82482 110.6262)" id="Stroke-103" fill="none" stroke="#DD936F" stroke-width="0.5" stroke-linecap="round" stroke-linejoin="round" />
      <path d="M0 0L4.10806 1.66999" transform="translate(28.88467 114.3899)" id="Stroke-105" fill="none" stroke="#DD936F" stroke-width="0.5" stroke-linecap="round" stroke-linejoin="round" />
    </g>
  </g>
</svg>
