<?xml version="1.0" encoding="utf-8"?>
<svg width="113px" height="389px" viewBox="0 0 113 389" version="1.1" xmlns:xlink="http://www.w3.org/1999/xlink" xmlns="http://www.w3.org/2000/svg">
  <desc>Created with Lunacy</desc>
  <defs>
    <path d="M0 0L26.571 0L26.571 8.24682L0 8.24682L0 0Z" transform="translate(0.3516192 0.09797616)" id="path_1" />
    <clipPath id="mask_1">
      <use xlink:href="#path_1" />
    </clipPath>
  </defs>
  <g id="1.人物组件/9.互联网人群/站立/自信" transform="matrix(0.9993908 0.0348995 -0.0348995 0.9993908 14.03809 0.6367188)">
    <g id="分组" transform="translate(0.4104 0.2736)">
      <path d="M0.395179 0L22.817 0.04104L24.8985 65.1764L12.4979 74.9144L0.501062 73.5634C0.501062 73.5634 -0.552024 11.3049 0.395179 0" transform="translate(3.830136 212.7535)" id="Fill-1" fill="#FF7A46" stroke="none" />
      <path d="M0.991526 2.03572C0.991526 2.03572 1.45856 22.3883 1.70234 32.1033C1.92806 41.0574 0 87.3127 0 87.3127L12.1134 87.8159C12.1134 87.8159 17.7514 58.5847 18.7717 44.0443C19.4456 34.4368 19.9479 1.99878 19.9479 1.99878C19.9479 1.99878 3.86761 -2.523 0.991526 2.03572" transform="translate(2.610226 94.42863)" id="Fill-3" fill="#FFC999" stroke="none" />
      <path d="M65.7436 30.6101L36.4534 44.7467C36.4534 44.7467 29.2369 47.0573 24.1455 44.0597C16.164 39.3574 5.0512 30.6782 0 27.8998C0.716558 9.73141 6.56066 0 6.56066 0L56.8683 0.35951C56.8683 0.35951 63.4437 6.05504 65.7436 30.6101" transform="translate(18.85599 144.1116)" id="Fill-5" fill="#597EF7" stroke="none" />
      <path d="M0.0683817 45.5788C0.0683817 45.5788 -0.88785 16.1228 4.35132 9.30602C10.4113 -0.393375 23.581 0.00225065 23.581 0.00225065L22.2045 48.0798C22.2045 48.0798 10.1232 48.5214 0.0683817 45.5788" transform="translate(2.897661 58.5766)" id="Fill-7" fill="#CCD7EE" stroke="none" />
      <path d="M6.33247 86.8047C19.8732 87.7257 56.1698 87.5393 56.1698 87.5393C60.2098 86.089 59.215 77.7078 59.215 77.7078L66.0564 11.5546C66.0564 11.5546 57.1055 5.95017 43.046 1.71402C28.1214 -2.78232 10.6581 2.29679 0 8.52994L0.48263 28.1897C0.48263 28.1897 1.57922 60.3208 5.30401 74.3195C1.67197 81.6345 6.33247 86.8047 6.33247 86.8047" transform="translate(19.20319 51.99257)" id="Fill-9" fill="#CCD7EE" stroke="none" />
      <path d="M35.0096 6.32591C35.0096 6.32591 35.6556 28.0599 30.3606 39.5092C28.5031 43.5237 25.5638 45.8491 20.1843 45.4444C8.51826 44.5662 0 1.84023 0 1.84023L10.6753 0L18.3408 12.6789L35.0096 6.32591Z" transform="translate(61.1734 94.06779)" id="Fill-11" fill="#FFC999" stroke="none" />
      <path d="M23.1592 0C23.1592 0 4.63702 3.99401 0.570777 15.72C-1.51816 21.7487 2.43728 52.4729 7.39409 88.1047C8.2313 94.1244 8.63185 97.5513 9.50354 103.848C13.5074 132.771 17.2256 150.634 20.041 183.489C11.4644 205.29 34.4715 200.337 35.5918 196.548C36.301 194.15 34.4066 177.697 34.4066 177.697C34.4066 177.697 33.8452 170.73 34.2203 159.171C34.9828 135.607 35.8627 105.109 31.4796 84.2518C23.201 44.8551 35.3587 33.9171 23.1592 0" transform="translate(55.78864 169.3825)" id="Fill-13" fill="#FFC999" stroke="none" />
      <path d="M13.973 7.68429C7.77763 17.0652 10.4666 41.8345 14.7881 85.8384C17.8119 116.63 22.1835 173.658 22.1835 173.658C22.1835 173.658 24.0319 189.681 10.474 194.457C4.40825 196.594 -1.41369 205.374 0.305889 207.399C3.16802 210.773 21.4456 206.519 30.5877 197.478C35.0405 197.347 39.7232 196.647 39.4392 193.379C37.0958 166.443 39.6436 147.98 39.9514 120.863C40.0745 110.078 38.0471 98.2333 38.1029 88.6119C38.2966 55.1109 37.5924 18.8176 37.5924 18.8176C37.5924 18.8176 28.7244 -14.6538 13.973 7.68429" transform="translate(9.749486 163.953)" id="Fill-15" fill="#FFC999" stroke="none" />
      <path d="M33.4763 5.09047C33.4763 5.09047 14.7457 -13.4974 0 20.3656C1.91657 37.9766 6.72564 63.9755 6.72564 63.9755C6.72564 63.9755 21.7414 67.857 39.446 61.7823C35.2542 15.1477 33.4763 5.09047 33.4763 5.09047" transform="translate(50.44276 165.609)" id="Fill-17" fill="#597EF7" stroke="none" />
      <path d="M33.0067 66.2899C19.0769 70.9102 2.16597 67.1378 2.16597 67.1378C1.81959 55.1098 -1.74678 43.168 1.08498 5.47031C20.9656 -11.5679 31.6565 16.6365 31.6565 16.6365L33.0067 66.2899Z" transform="translate(18.02826 161.9241)" id="Fill-19" fill="#597EF7" stroke="none" />
      <path d="M22.462 26.0981C28.6886 25.2847 25.0919 16.3043 22.5671 6.82487C21.7972 3.93401 21.8432 4.73265 20.9296 2.10773C19.6492 -1.57356 3.96859 0.13617 4.08104 2.90719C4.29937 8.2465 2.56831 12.9521 2.56831 12.9521C-0.115708 17.0939 -1.26483 22.979 1.95763 25.1254C10.3503 30.7175 22.462 26.0981 22.462 26.0981" transform="translate(70.465 352.013)" id="Fill-21" fill="#4E5C93" stroke="none" />
      <path d="M48.3067 13.7047C48.3067 13.7047 34.2398 17.725 29.5136 20.1677C24.7858 22.6104 10.6779 29.1349 1.04664 22.9715C-0.441472 21.4161 -0.10084 19.5349 0.585349 18.0689C1.23789 16.6744 2.42312 15.6032 3.86362 15.0582C8.22782 13.41 18.661 9.49401 23.832 1.27781C24.437 0.315833 25.5623 -0.170081 26.6761 0.0539976C28.0247 0.325682 29.7804 0.930612 31.0625 2.27098C32.1303 3.38809 29.3601 7.82779 30.5043 7.99688C33.6488 8.46145 38.8814 7.42724 42.1884 5.10356C44.9578 3.15662 46.2932 1.17849 46.2932 1.17849C46.2932 1.17849 49.5567 9.14189 48.3067 13.7047" transform="translate(2.20652 350.2459)" id="Fill-23" fill="#4E5C93" stroke="none" />
      <path d="M0 22.1138C0 22.1138 1.34037 26.7677 12.1996 27.0115C23.2902 27.261 26.4076 22.2451 26.4076 22.2451L23.7367 21.1059C23.7367 21.1059 23.0719 13.2787 22.705 1.8581C10.6195 -2.11211 2.29332 1.51501 2.29332 1.51501C2.29332 1.51501 2.54776 13.3485 2.54694 21.0927C2.54694 21.0927 1.14502 21.7551 0 22.1138" transform="translate(36.17241 31.62332)" id="Fill-25" fill="#FFC999" stroke="none" />
      <path d="M29.7832 17.3257C29.7832 17.3257 30.3922 0.399152 17.6247 0.0174799C2.20347 -0.442168 1.52549 8.28047 0.597168 12.3623C-0.389433 16.6986 -1.31776 34.8949 8.00899 38.6255C11.9661 39.9281 14.4153 40.6536 21.1114 36.658C30.8535 30.8443 29.7832 17.3257 29.7832 17.3257" transform="translate(32.21883 7.497437)" id="Fill-27" fill="#FFC999" stroke="none" />
      <path d="M0 11.4902L0.028728 2.01158C0.028728 2.01158 7.30758 -2.62676 8.23837 2.18313C9.18722 7.08741 5.86462 10.5545 2.78005 11.7775C0.796997 12.5638 0 11.4902 0 11.4902" transform="translate(58.45664 25.93034)" id="Fill-29" fill="#FFC999" stroke="none" />
      <path d="M31.1069 4.52751C31.1069 4.52751 23.0589 -0.694423 19.3768 0.0779495C15.6955 0.850322 18.6824 3.63694 18.6824 3.63694C18.6824 3.63694 8.40274 2.16114 7.52777 4.49139C6.65361 6.82246 10.3727 7.82138 10.3727 7.82138C10.3727 7.82138 0.421279 10.8846 0.0240122 13.8986C-0.374076 16.9117 4.30941 16.118 4.30941 16.118C4.30941 16.118 0.857945 20.5068 2.0678 23.0234C3.27766 25.5408 5.58165 25.1829 5.58165 25.1829L7.27906 28.5367L7.65745 21.3638C7.65745 21.3638 11.2123 19.7074 17.7664 16.3314C13.8512 20.5758 16.3399 20.52 19.6896 19.7575C23.6154 18.8636 28.1939 17.378 27.9575 17.2688C27.9575 17.2688 28.1807 21.9252 31.3367 23.9772C35.2084 26.4938 32.6172 31.9258 33.6226 32.1359C35.5581 32.5562 35.1772 27.3244 38.8536 26.3222C41.7371 26.0292 42.1237 22.4759 41.2889 21.3006C45.09 20.6792 44.852 16.7541 39.8509 13.4709C44.1133 12.802 41.3718 8.9311 34.9835 7.45038C36.7975 0.361125 31.1069 4.52751 31.1069 4.52751" transform="translate(25.14467 0.0001086004)" id="Fill-31" fill="#253368" stroke="none" />
      <path d="M8.01675 1.6111C7.11579 0.549808 4.00838 -0.761887 0 0.549808" transform="matrix(0.9902681 -0.1391731 0.1391731 0.9902681 45.61591 23.76172)" id="Stroke-33" fill="none" stroke="#253368" stroke-width="1.2312" stroke-linecap="round" stroke-linejoin="round" />
      <path d="M3.14284 9.75931L0.343094 9.19542L0.659102 1.98962L0 0" transform="translate(40.93141 24.61768)" id="Stroke-35" fill="none" stroke="#DD936F" stroke-width="0.6090336" stroke-linecap="round" stroke-linejoin="round" />
      <path d="M4.3486 0.771625C4.3486 0.771625 2.42875 -0.94467 0 0.802815" transform="translate(47.82941 27.89744)" id="Stroke-37" fill="none" stroke="#253368" stroke-width="0.8208" stroke-linecap="round" stroke-linejoin="round" />
      <path d="M3.69688 0.69178C3.69688 0.69178 1.50699 -0.802899 0 0.770577" transform="translate(35.62568 27.96768)" id="Stroke-39" fill="none" stroke="#253368" stroke-width="0.8208" stroke-linecap="round" stroke-linejoin="round" />
      <path d="M8.50759 0C8.50759 0 4.17213 1.09331 0 0.566352C0 0.566352 1.17621 3.05912 4.10646 2.97048C7.80581 2.85803 8.50759 0 8.50759 0" transform="translate(39.93356 35.84146)" id="Fill-41" fill="#FFFFFF" stroke="none" />
      <path d="M8.50759 0C8.50759 0 4.17213 1.09331 0 0.566352C0 0.566352 1.17621 3.05912 4.10646 2.97048C7.80581 2.85803 8.50759 0 8.50759 0Z" transform="translate(39.93356 35.84146)" id="Stroke-43" fill="none" stroke="#FF7A46" stroke-width="0.6943968" stroke-linecap="round" stroke-linejoin="round" />
      <path d="M0 0C0 0 4.95517 3.62383 12.1725 0.6156" transform="translate(38.84083 45.59084)" id="Stroke-45" fill="none" stroke="#DD936F" stroke-width="0.6090336" stroke-linecap="round" stroke-linejoin="round" />
      <path d="M2.08319 0.356638L0 0.464163" transform="translate(43.45225 40.49212)" id="Stroke-47" fill="none" stroke="#DD936F" stroke-width="0.6090336" stroke-linecap="round" stroke-linejoin="round" />
      <path d="M4.1631 0.216596C4.1631 0.216596 2.90974 -0.757694 1.64735 1.42646C0.384134 3.6106 1.58332 2.08228 2.1505 3.37996C2.71767 4.67847 1.23284 5.48039 0 5.50583" transform="translate(60.69561 28.51419)" id="Stroke-49" fill="none" stroke="#DD936F" stroke-width="0.6090336" stroke-linecap="round" stroke-linejoin="round" />
      <path d="M5.34417 43.7042L22.3093 42.0199C22.3093 42.0199 22.4932 10.8771 14.5954 3.29294C5.39342 -5.54379 0.0434483 6.20268 0.0434483 6.20268C0.0434483 6.20268 -0.306213 12.6673 0.97834 24.0994C1.90749 32.3796 2.83335 39.0429 3.27412 42.0881C3.4194 43.096 4.33213 43.8043 5.34417 43.7042" transform="translate(74.50374 62.57535)" id="Fill-51" fill="#CCD7EE" stroke="none" />
      <path d="M21.9143 27.8949C21.9143 27.8949 22.3115 2.67258 16.1859 2.53469C13.5027 -1.28285 12.8658 0.680503 12.8658 0.680503C12.8658 0.680503 10.3369 -1.15645 9.88791 1.20582C7.32784 0.753555 8.26191 4.4726 9.86247 8.66935C11.179 12.1192 9.36506 16.9799 7.98202 16.9488C6.59897 16.9176 3.43314 11.3649 0.306714 14.0407C-1.22818 15.3556 3.41098 16.6812 5.09198 21.0692C6.77298 25.4563 8.16834 30.1981 12.0893 31.6698C16.0119 33.1423 21.8609 30.2671 21.9143 27.8949" transform="translate(50.22428 65.79362)" id="Fill-53" fill="#FFC999" stroke="none" />
      <path d="M0.910158 0C0.910158 0 0.0934629 1.17292 1.27623 3.35707C2.46065 5.54122 2.50005 10.6277 2.47296 11.8597C2.44505 13.0918 -1.87317 20.0842 0.966793 24.0002" transform="translate(65.49962 68.32799)" id="Stroke-55" fill="none" stroke="#DD936F" stroke-width="0.6090336" stroke-linecap="round" stroke-linejoin="round" />
      <path d="M0.329179 0C0.329179 0 -0.605712 0.694397 0.675557 2.97868C2.60197 6.41209 2.4846 11.6488 2.75464 13.3511" transform="translate(62.76046 66.47397)" id="Stroke-57" fill="none" stroke="#DD936F" stroke-width="0.6090336" stroke-linecap="round" stroke-linejoin="round" />
      <path d="M0 0C0 0 0.247061 2.23011 1.43804 4.10564C2.6282 5.98199 2.6479 11.9919 2.6479 11.9919" transform="translate(60.11186 66.99977)" id="Stroke-59" fill="none" stroke="#DD936F" stroke-width="0.6090336" stroke-linecap="round" stroke-linejoin="round" />
      <path d="M0 5.99676L0.597542 0L50.4472 0.196171L51.0891 5.9114C51.0891 5.9114 5.08321 6.11167 0 5.99676" transform="translate(24.94329 138.5662)" id="Fill-61" fill="#597EF7" stroke="none" />
      <path d="M2.37861 49.6715C-0.110873 34.7141 0.000756086 0 0.000756086 0" transform="translate(45.3331 139.011)" id="Stroke-63" fill="none" stroke="#1D39C4" stroke-width="0.6156" stroke-linecap="round" stroke-linejoin="round" />
      <path d="M6.5073 0C6.5073 0 7.45861 21.7455 7.31333 28.215C7.20909 32.8361 0 33.5986 0 33.5986" transform="translate(46.39293 145.1914)" id="Stroke-65" fill="none" stroke="#1D39C4" stroke-width="0.6156" stroke-linecap="round" stroke-linejoin="round" />
      <path d="M0 0L14.4059 3.55981L20.9132 43.1577C20.9132 43.1577 35.4462 47.9536 53.6344 40.9645" transform="translate(36.25498 186.427)" id="Stroke-67" fill="none" stroke="#1D39C4" stroke-width="0.6156" stroke-linecap="round" stroke-linejoin="round" />
      <path d="M0.195142 8.23262C0.195142 8.23262 2.41623 12.3621 13.0513 11.4534C23.6873 10.5448 28.4619 5.64546 34.0318 4.69415C44.387 2.92615 48.8193 0 48.8193 0C48.8193 0 49.4095 1.56116 48.5928 3.72479C47.332 7.06134 37.5046 6.29471 31.8074 9.17572C27.6854 11.2605 24.4506 12.4704 17.5231 14.3229C10.5963 16.1763 1.73004 14.4354 0.63427 12.115C-0.461498 9.79542 0.195142 8.23262 0.195142 8.23262" transform="translate(1.999841 363.0964)" id="Fill-69" fill="#96A7CA" stroke="none" />
      <path d="M12.0346 30.2502C12.0346 30.2502 2.50836 30.6811 2.01671 28.1128C0.11327 18.1442 0 6.12357 0 6.12357C0 6.12357 0.729691 0.648838 4.84436 0.0398042C8.72839 -0.534756 12.1372 5.22069 14.4338 10.2038C17.5323 16.9261 15.5517 21.0145 15.5747 28.4362C15.5812 30.7935 15.1405 32.1027 12.0346 30.2502" transform="translate(2.72087 175.3862)" id="Fill-71" fill="#FFC999" stroke="none" />
      <g id="分组" transform="translate(69.768 373.1918)">
        <path d="M0 0L26.571 0L26.571 8.24682L0 8.24682L0 0Z" transform="translate(0.3516192 0.09797616)" id="Clip-74" fill="none" stroke="none" />
        <g clip-path="url(#mask_1)">
          <path d="M0.622588 0.645149C0.622588 0.645149 13.1258 6.79704 26.289 0C27.2707 4.06132 26.2956 8.07421 13.3548 8.24329C6.73755 8.32948 3.06939 6.86189 1.18319 5.72016C-0.762101 4.54231 0.174431 1.72943 0.622588 0.645149" transform="translate(0.3516192 0.09797616)" id="Fill-73" fill="#96A7CA" stroke="none" />
        </g>
      </g>
      <path d="M0 39.089C0 39.089 17.7777 43.495 30.3959 37.4605L29.8509 0" transform="translate(20.19406 189.9731)" id="Stroke-75" fill="none" stroke="#1D39C4" stroke-width="0.6156" stroke-linecap="round" stroke-linejoin="round" />
      <path d="M0 3.43669L11.6357 0" transform="translate(35.60573 191.2969)" id="Stroke-77" fill="none" stroke="#1D39C4" stroke-width="0.6156" stroke-linecap="round" stroke-linejoin="round" />
      <path d="M0 0.27629C0 0.27629 36.3023 -0.140677 51.0784 0.653858" transform="translate(24.94329 144.2867)" id="Stroke-79" fill="none" stroke="#1D39C4" stroke-width="0.6156" stroke-linecap="round" stroke-linejoin="round" />
      <path d="M0 0C0 0 2.94421 13.0113 9.37189 15.0042" transform="translate(69.06293 146.017)" id="Stroke-81" fill="none" stroke="#1D39C4" stroke-width="0.6156" stroke-linecap="round" stroke-linejoin="round" />
      <path d="M0 0C0 0 5.97132 9.82333 8.30814 29.2935C9.88818 42.4575 12.6485 83.0206 12.6485 83.0206" transform="translate(73.04989 145.6635)" id="Stroke-83" fill="none" stroke="#1D39C4" stroke-width="0.6156" stroke-linecap="round" stroke-linejoin="round" />
      <path d="M0 2.09796C0 2.09796 21.2045 4.88539 30.0987 0" transform="translate(59.02176 220.4394)" id="Stroke-85" fill="none" stroke="#1D39C4" stroke-width="0.6156" stroke-linecap="round" stroke-linejoin="round" />
      <path d="M0 0.742824C0 0.742824 13.3068 5.20305 28.6804 0" transform="translate(21.59278 220.9537)" id="Stroke-87" fill="none" stroke="#1D39C4" stroke-width="0.6156" stroke-linecap="round" stroke-linejoin="round" />
      <path d="M0 0C0 0 0.024624 26.3526 5.414 46.619C5.414 46.619 0.429278 53.9602 5.98774 59.3126C5.98774 59.3126 40.2397 58.7758 55.981 59.9726" transform="translate(19.55285 79.25407)" id="Stroke-89" fill="none" stroke="#96A7CA" stroke-width="0.8208" stroke-linecap="round" stroke-linejoin="round" />
      <path d="M0 0C0 0 10.0622 2.47964 18.4229 3.11083" transform="translate(2.966043 104.1554)" id="Stroke-91" fill="none" stroke="#96A7CA" stroke-width="0.8208" stroke-linecap="round" stroke-linejoin="round" />
      <path d="M0 1.85337C0 1.85337 12.7396 8.69966 26.8049 0" transform="translate(36.99083 58.05658)" id="Stroke-93" fill="none" stroke="#96A7CA" stroke-width="0.8208" stroke-linecap="round" stroke-linejoin="round" />
      <path d="M0 0C0 0 10.1689 10.1689 27.1668 0.0804384" transform="translate(35.75799 54.05534)" id="Stroke-95" fill="none" stroke="#96A7CA" stroke-width="0.8208" stroke-linecap="round" stroke-linejoin="round" />
      <path d="M0 1.65801L17.6103 0" transform="translate(79.20268 104.595)" id="Stroke-97" fill="none" stroke="#96A7CA" stroke-width="0.8208" stroke-linecap="round" stroke-linejoin="round" />
      <path d="M0 0C0 0 13.0113 19.7665 15.578 23.8122" transform="translate(72.11845 95.34618)" id="Stroke-99" fill="none" stroke="#DD936F" stroke-width="0.6090336" stroke-linecap="round" stroke-linejoin="round" />
      <path d="M6.10265 0C6.10265 0 3.98498 11.973 0 10.9593" transform="translate(22.14871 144.7914)" id="Stroke-101" fill="none" stroke="#1D39C4" stroke-width="0.6156" stroke-linecap="round" stroke-linejoin="round" />
      <path d="M2.7729 1.11018C2.75894 1.70609 2.12775 2.17476 1.36194 2.15671C0.596956 2.14029 -0.0137192 1.64288 0.000234442 1.0478C0.014188 0.451901 0.644563 -0.0167762 1.41119 0.000460603C2.17618 0.0176974 2.78603 0.514282 2.7729 1.11018" transform="translate(47.66896 140.3275)" id="Fill-103" fill="#1D39C4" stroke="none" />
      <path d="M4.27814 0C4.27814 0 0.897266 6.82167 0.000951962 24.0642C-0.0285968 24.6347 0.63543 26.1556 1.20096 26.0875C2.82368 25.893 2.93531 23.6497 2.93531 23.6497C2.93531 23.6497 2.89427 10.1402 6.04286 3.73874C6.54191 2.13162 4.27814 0 4.27814 0" transform="translate(7.01615 196.4994)" id="Fill-105" fill="#4E5C93" stroke="none" />
      <path d="M0 0C0 0 3.46624 0.077976 4.28129 4.95025C5.09635 9.82334 6.7954 10.7689 8.18173 10.7993" transform="translate(8.77821 195.2874)" id="Stroke-107" fill="none" stroke="#DD936F" stroke-width="0.6090336" stroke-linecap="round" stroke-linejoin="round" />
      <path d="M0 0.012312C0 0.012312 4.26324 2.44845 12.4786 0" transform="translate(5.910991 367.7193)" id="Stroke-109" fill="none" stroke="#96A7CA" stroke-width="0.7641648" stroke-linecap="round" stroke-linejoin="round" />
      <path d="M0 0C0 0 3.45885 0.518743 5.04217 2.62408" transform="translate(22.88489 355.632)" id="Stroke-111" fill="none" stroke="#96A7CA" stroke-width="0.8208" stroke-linecap="round" stroke-linejoin="round" />
      <path d="M0 1.49303C0 1.49303 4.22219 4.64818 10.9043 3.5951C17.5881 2.54037 17.5389 0 17.5389 0" transform="translate(74.57206 367.283)" id="Stroke-113" fill="none" stroke="#96A7CA" stroke-width="0.8208" stroke-linecap="round" stroke-linejoin="round" />
      <path d="M0 0.679341C0 0.679341 9.06327 -0.908088 12.4811 0.809848" transform="translate(77.16431 358.7729)" id="Stroke-115" fill="none" stroke="#96A7CA" stroke-width="0.8208" stroke-linecap="round" stroke-linejoin="round" />
      <path d="M2.61753 0C2.61753 0 1.24679 3.51795 0 4.42247" transform="translate(55.83911 37.42052)" id="Stroke-117" fill="none" stroke="#DD936F" stroke-width="0.6090336" stroke-linecap="round" stroke-linejoin="round" />
      <path d="M6.16585 0.974553C5.34737 0.512602 4.61191 0.239271 3.95102 0.104637C2.12257 -0.267849 0.865024 0.421321 0 1.11491" transform="translate(34.44799 23.57259)" id="Stroke-119" fill="none" stroke="#253368" stroke-width="1.2312" stroke-linecap="round" stroke-linejoin="round" />
      <path d="M16.5596 75.0498L14.3935 0.25609L2.99264 0L0 73.4599L16.5596 75.0498Z" transform="translate(0.00016416 212.6217)" id="Fill-121" fill="#FAAD14" stroke="none" />
    </g>
  </g>
</svg>
