<?xml version="1.0" encoding="utf-8"?>
<svg width="160px" height="377px" viewBox="0 0 160 377" version="1.1" xmlns:xlink="http://www.w3.org/1999/xlink" xmlns="http://www.w3.org/2000/svg">
  <desc>Created with Lunacy</desc>
  <defs>
    <path d="M0 0L37.7762 0L37.7762 28.513L0 28.513L0 0Z" transform="translate(0.1118279 0.3298953)" id="path_1" />
    <path d="M0 0L34.0368 0L34.0368 37.0291L0 37.0291L0 0Z" transform="translate(0.1966259 0.3167799)" id="path_2" />
    <path d="M0 0L45.6067 0L45.6067 39.3024L0 39.3024L0 0Z" transform="translate(0 0.2374208)" id="path_3" />
    <clipPath id="mask_1">
      <use xlink:href="#path_1" />
    </clipPath>
    <clipPath id="mask_2">
      <use xlink:href="#path_2" />
    </clipPath>
    <clipPath id="mask_3">
      <use xlink:href="#path_3" />
    </clipPath>
  </defs>
  <g id="分组" transform="matrix(0.9993908 0.0348995 -0.0348995 0.9993908 13.37378 0.4262085)">
    <path d="M21.843 3.42182C21.843 3.42182 16.7493 17.6949 3.31846 21.7271C-5.47614 24.3667 4.3123 31.8526 19.7507 27.2666C28.5527 24.6518 26.1637 20.2529 31.1494 19.7675C34.0386 19.4856 39.7083 17.4386 39.7824 15.2251C39.9118 11.3569 39.9044 10.2741 39.8022 5.78034C39.6852 0.610876 26.79 -2.95904 21.843 3.42182" transform="translate(10.27765 339.4677)" id="Fill-1" fill="#253368" stroke="none" />
    <g id="分组" transform="translate(107.1306 341.7784)">
      <path d="M0 0L37.7762 0L37.7762 28.513L0 28.513L0 0Z" transform="translate(0.1118279 0.3298953)" id="Clip-4" fill="none" stroke="none" />
      <g clip-path="url(#mask_1)">
        <path d="M0 4.55559C0 4.55559 0.87023 11.3938 1.45286 13.8273C2.03548 16.2608 2.63789 17.764 7.28324 18.4298C15.3749 19.5901 13.9204 26.1985 23.1229 27.8408C35.6671 30.0791 38.8588 26.2718 37.4784 23.1065C36.0973 19.9412 24.2107 16.696 18.6572 3.38292C15.2191 -4.86119 0 4.55559 0 4.55559" transform="translate(0.1118279 0.3298953)" id="Fill-3" fill="#253368" stroke="none" />
      </g>
    </g>
    <path d="M0 21.8777C0 21.8777 12.1948 -12.6958 26.8329 5.0821C42.1229 49.6196 55.2448 140.723 64.3023 185.689C56.9523 189.207 45.3418 187.89 45.3418 187.89C45.3418 187.89 4.85384 49.8751 0 21.8777" transform="translate(61.90428 159.4697)" id="Fill-5" fill="#4E5C93" stroke="none" />
    <path d="M32.0931 44.6718C32.0931 44.6718 28.8825 45.2882 25.7469 44.0167C17.4533 40.6544 2.17401 32.5339 0.176437 28.9277C-0.779497 20.7545 2.32729 0.702942 5.20086 0.683164C10.7173 0.645256 29.386 4.16738 37.1571 2.64118C43.2026 1.45286 50.8294 0 50.8294 0C50.8294 0 52.9333 3.51224 54.4472 6.80856C58.1184 14.8022 57.9545 25.2449 57.9545 25.2449C57.9545 25.2449 36.1797 45.5519 32.0931 44.6718" transform="translate(31.01918 140.0015)" id="Fill-7" fill="#4E5C93" stroke="none" />
    <path d="M10.0574 75.3117C10.0574 75.3117 -3.7155 33.8876 0.973522 11.1841C9.29592 6.48932 16.4819 0.982808 33.3863 0.0672533C52.4242 -0.962849 70.5812 10.1812 70.5812 10.1812L68.0406 44.2974L58.8488 71.867C58.8488 71.867 67.4835 83.4256 50.2684 85.9555C38.2772 87.7182 19.8574 89.3771 12.2091 85.0433C8.87729 83.1553 8.46607 79.6167 10.0574 75.3117" transform="translate(23.43949 51.08194)" id="Fill-9" fill="#ADC6FF" stroke="none" />
    <path d="M23.9745 2.34223C23.9745 2.34223 8.57731 24.6312 0.416426 52.7546C-2.03275 61.194 6.78987 67.106 14.6261 63.4273C22.4623 59.7494 40.3926 17.8679 41.4483 13.366C43.5077 4.58621 32.3957 -4.36332 23.9745 2.34223" transform="translate(0.2096292 60.38927)" id="Fill-11" fill="#ADC6FF" stroke="none" />
    <path d="M0 18.4166L0.599107 5.94245L19.5291 0L21.5333 17.5966C21.5333 17.5966 12.3019 39.12 0 18.4166" transform="translate(47.5046 31.90342)" id="Fill-13" fill="#A08889" stroke="none" />
    <path d="M34.8823 21.7006C32.7076 35.9984 22.7601 42.4089 13.2543 42.8515C1.92152 43.3789 -0.578743 33.6259 0.103597 19.5085C0.79665 5.17281 6.96902 0.304956 17.6236 0.00911062C28.7306 -0.299096 37.0851 7.21818 34.8823 21.7006" transform="translate(38.89632 1.392326)" id="Fill-15" fill="#A08889" stroke="none" />
    <g id="分组" transform="translate(41.20409 0.1458625)">
      <path d="M0 0L34.0368 0L34.0368 37.0291L0 37.0291L0 0Z" transform="translate(0.1966259 0.3167799)" id="Clip-18" fill="none" stroke="none" />
      <g clip-path="url(#mask_2)">
        <path d="M24.5412 24.7086C24.8757 23.5928 25.1996 21.7221 26.9928 20.9804C29.4609 19.9586 31.6316 22.7522 31.2772 25.7477C30.847 29.3778 27.6381 31.5723 25.8242 31.5839C26.0014 35.1406 26.275 37.0294 26.275 37.0294C26.275 37.0294 30.2776 33.0919 32.5051 26.9558C35.9802 17.3817 33.831 3.97467 23.0718 0.895898C6.25973 -3.40334 0 9.16721 0 9.16721L20.8377 8.8862L20.3021 15.8505C20.3021 15.8505 24.0162 16.0582 23.2581 24.3006L24.5412 24.7086Z" transform="translate(0.1966259 0.3164935)" id="Fill-17" fill="#604346" stroke="none" />
      </g>
    </g>
    <path d="M0 0.0189539L6.47811 0.162344L8.55644 0.805128" transform="translate(50.69306 17.98979)" id="Stroke-19" fill="none" stroke="#604346" stroke-width="0.8240818" stroke-linecap="round" stroke-linejoin="round" />
    <path d="M20.2353 6.22375C17.8488 2.84502 18.0614 -0.172771 8.20126 0.00770289C3.40428 0.0950556 1.71574 1.674 0 5.51339C1.31523 11.4221 6.14353 15.1469 12.5491 14.6516C26.0064 13.6116 26.6154 0.149445 26.6154 0.149445C26.6154 0.149445 24.7183 0.634829 24.106 1.64433C22.4142 4.43549 21.3108 5.13432 20.2353 6.22375" transform="translate(40.1327 29.9663)" id="Fill-21" fill="#7F6567" stroke="none" />
    <path d="M0 0.289253C0 0.289253 3.48257 0.498569 8.8152 0C8.8152 0 8.03315 2.20936 4.18963 2.23409C1.17349 2.25386 0 0.289253 0 0.289253" transform="translate(44.98811 32.47863)" id="Fill-23" fill="#FFFFFF" stroke="none" />
    <path d="M0 0.289253C0 0.289253 3.48257 0.498569 8.8152 0C8.8152 0 8.03315 2.20936 4.18963 2.23409C1.17349 2.25386 0 0.289253 0 0.289253Z" transform="translate(44.98811 32.47863)" id="Stroke-25" fill="none" stroke="#604346" stroke-width="0.6180613" stroke-linecap="round" stroke-linejoin="round" />
    <path d="M6.17576 12.0028L0.964269 11.9418C0.356097 11.9352 -0.0979722 11.3781 0.0182234 10.7806L1.67051 2.31649L1.03679 0" transform="translate(44.5946 17.95518)" id="Stroke-27" fill="none" stroke="#604346" stroke-width="0.6180613" stroke-linecap="round" stroke-linejoin="round" />
    <path d="M3.71002 0L0 4.78544L5.53948 14.9653L13.9525 6.44185L3.71002 0Z" transform="translate(43.59747 49.11198)" id="Fill-29" fill="#ADC6FF" stroke="none" />
    <path d="M0 6.85883L11.4836 0L15.4046 4.558L7.79005 14.611L0 6.85883Z" transform="translate(57.54975 48.69466)" id="Fill-31" fill="#ADC6FF" stroke="none" />
    <path d="M0 6.61655L6.41877 0L12.9224 6.64869L9.22065 13.9509L2.76067 13.908L0 6.61655Z" transform="translate(51.13411 55.62074)" id="Fill-33" fill="#4E5C93" stroke="none" />
    <path d="M6.83541 0.0412041L13.2163 0L19.3483 45.0674C19.4002 45.4539 19.3013 45.8453 19.0714 46.1601L10.1977 58.284C9.55982 59.1559 8.23799 59.0924 7.68586 58.1629L0.210612 45.5643C0.0326106 45.2643 -0.0357882 44.9125 0.0177771 44.5672L6.83541 0.0412041Z" transform="translate(47.17417 69.37087)" id="Fill-35" fill="#4E5C93" stroke="none" />
    <path d="M0 1.5262L0.0362596 7.09452C0.0362596 7.09452 6.54733 9.37228 22.0961 9.7357C37.0557 10.0851 46.8985 5.86169 46.8985 5.86169L46.4914 0C46.4914 0 27.6471 6.91487 0 1.5262" transform="translate(35.18203 134.1378)" id="Fill-37" fill="#12183F" stroke="none" />
    <path d="M1.56771 0.0857821C1.56771 0.0857821 21.5031 -1.53354 29.2832 9.29902C30.732 22.8931 29.603 46.0753 28.4476 76.8292C27.3582 105.862 20.5389 178.36 20.5389 178.36C20.5389 178.36 11.2754 181.205 1.81164 176.931C3.53974 163.77 1.3106 99.8475 0.267311 78.9957C-0.775152 58.1432 1.56771 0.0857821 1.56771 0.0857821" transform="translate(29.60977 166.1225)" id="Fill-39" fill="#4E5C93" stroke="none" />
    <path d="M7.47237 52.7173C7.47237 52.7173 -0.661321 23.113 0.0432693 0" transform="translate(25.46115 70.98196)" id="Stroke-41" fill="none" stroke="#597EF7" stroke-width="0.8240818" stroke-linecap="round" stroke-linejoin="round" />
    <path d="M0 0.391851L2.49367 0.432231" transform="translate(48.14038 36.9234)" id="Stroke-43" fill="none" stroke="#604346" stroke-width="0.6180613" stroke-linecap="round" stroke-linejoin="round" />
    <path d="M0 0.644432L5.50322 10.6224L13.9558 2.36759L21.7426 10.053L29.3571 0" transform="translate(43.59747 53.25299)" id="Stroke-45" fill="none" stroke="#597EF7" stroke-width="0.8240818" stroke-linecap="round" stroke-linejoin="round" />
    <path d="M0 0.429758L5.45213 0.394323" transform="translate(54.00957 68.98232)" id="Stroke-47" fill="none" stroke="#597EF7" stroke-width="0.5" stroke-linecap="round" stroke-linejoin="round" />
    <path d="M0.148886 6.20364L0.00137541 2.16069C-0.0398287 1.02181 0.85018 0.0889474 1.94044 0.135096C4.55443 0.245523 9.17093 0.362543 12.5109 0.00983549C13.6028 -0.104712 14.5472 0.79601 14.5547 1.94313L14.5819 6.07591C14.5876 7.04255 13.9193 7.86334 13.0062 8.01909C10.8364 8.3891 6.64924 8.84647 1.75172 8.06936C0.860069 7.92762 0.183497 7.14556 0.148886 6.20364" transform="translate(49.2638 136.6991)" id="Fill-49" fill="#F1F2F6" stroke="none" />
    <path d="M0.113104 4.39363L0.0010294 1.53407C-0.0302857 0.728121 0.656998 0.0672077 1.49839 0.100171C3.51409 0.176811 7.07659 0.257571 9.65267 0.00704981C10.4957 -0.0745342 11.2234 0.562481 11.2291 1.37338L11.2481 4.29722C11.253 4.9812 10.7363 5.56218 10.0318 5.67261C8.35804 5.93467 5.12682 6.26018 1.34923 5.71299C0.661119 5.61327 0.139475 5.06032 0.113104 4.39363" transform="translate(50.9695 137.9444)" id="Fill-51" fill="#12183F" stroke="none" />
    <path d="M0 0.336637L5.4991 0.487444" transform="translate(39.82309 17.46963)" id="Stroke-53" fill="none" stroke="#604346" stroke-width="0.8240818" stroke-linecap="round" stroke-linejoin="round" />
    <path d="M0 1.78084C0 1.78084 5.81307 3.59959 12.1321 0" transform="translate(48.04462 42.45579)" id="Stroke-55" fill="none" stroke="#7C5B4D" stroke-width="0.6180613" stroke-linecap="round" stroke-linejoin="round" />
    <path d="M2.61151 0.0399477C2.61151 0.0399477 0.210141 -0.56328 0 2.91847C2.01323 3.21513 1.71409 4.76358 0.791117 5.54317" transform="translate(67.3405 23.24861)" id="Stroke-57" fill="none" stroke="#7C5B4D" stroke-width="0.6180613" stroke-linecap="round" stroke-linejoin="round" />
    <path d="M42.6233 41.7727L5.51241 45.8758C3.92935 46.0514 2.52347 44.8655 2.42788 43.2767L0.00507661 3.06148C-0.0905169 1.46359 1.1761 0.114565 2.77564 0.10962L38.718 1.7626e-05C40.5837 -0.00575095 42.1494 1.40508 42.3365 3.26091L45.8331 37.8031C46.0325 39.7826 44.6003 41.5543 42.6233 41.7727" transform="translate(71.10963 151.0136)" id="Fill-59" fill="#FAAD14" stroke="none" />
    <path d="M1.77427 0.00169163L2.05281 4.34664e-05C3.00627 -0.00654919 3.79657 0.737597 3.84848 1.69024L6.1246 44.1247C6.17816 45.1128 5.41836 45.9558 4.43111 46.0044C3.4521 46.0539 2.61648 45.3056 2.55797 44.3282L0.00331905 1.89543C-0.0584871 0.872746 0.750761 0.00828428 1.77427 0.00169163" transform="translate(71.04835 151.1184)" id="Fill-61" fill="#FF7A46" stroke="none" />
    <path d="M0 0.471375L3.35236 0.449948L41.6367 0.352707" transform="translate(72.39443 164.6509)" id="Stroke-63" fill="none" stroke="#FF7A46" stroke-width="0.5" stroke-linecap="round" stroke-linejoin="round" />
    <path d="M14.7391 19.5078C13.6686 21.371 12.5841 21.0686 11.1939 21.3875C9.80369 21.7056 8.11514 23.7271 8.11514 23.7271C4.4933 25.8392 5.38414 20.0327 4.68531 19.5729C4.3359 19.3438 4.14389 21.0933 2.69186 22.2157C1.239 23.339 -0.325103 22.7473 0.058919 21.7691C0.972002 19.4427 2.74048 13.7631 3.08165 10.7659C3.52006 6.89605 5.73932 3.32365 5.73932 3.32365C8.425 -2.13507 17.0919 0.774766 17.0919 0.774766C17.0919 0.774766 19.677 17.619 17.6704 18.2511C17.6704 18.2511 15.1891 18.7257 14.7391 19.5078" transform="translate(94.6111 175.6247)" id="Fill-65" fill="#A08889" stroke="none" />
    <path d="M0.845538 23.871C0.845538 23.871 -3.89376 5.20228 9.06822 0.245432C19.3305 -3.67885 33.8426 40.3123 34.0412 70.9393C34.1706 90.8903 30.4045 118.298 30.4045 118.298C30.4045 118.298 21.3874 120.365 15.3214 117.381C16.0836 103.842 14.9233 74.5413 13.0469 64.8798C11.1696 55.2183 0.845538 23.871 0.845538 23.871" transform="translate(82.94199 61.03041)" id="Fill-67" fill="#ADC6FF" stroke="none" />
    <path d="M0 0L4.96262 13.8899" transform="translate(84.2978 88.47392)" id="Stroke-69" fill="none" stroke="#597EF7" stroke-width="0.8240818" stroke-linecap="round" stroke-linejoin="round" />
    <path d="M0 18.3993C0 18.3993 1.05895 2.84638 10.5548 0" transform="translate(81.92287 61.73683)" id="Stroke-71" fill="none" stroke="#597EF7" stroke-width="0.8240818" stroke-linecap="round" stroke-linejoin="round" />
    <path d="M0 0C4.11629 2.67992 14.9241 1.21635 14.9241 1.21635" transform="translate(98.26367 178.4119)" id="Stroke-73" fill="none" stroke="#597EF7" stroke-width="0.8240818" stroke-linecap="round" stroke-linejoin="round" />
    <path d="M0 0.0438864C0 0.0438864 7.74225 1.23139 11.1408 0.590252" transform="translate(100.3142 172.5539)" id="Stroke-75" fill="none" stroke="#597EF7" stroke-width="0.8240818" stroke-linecap="round" stroke-linejoin="round" />
    <path d="M2.5654 1.27487C2.57034 1.98358 1.99925 2.56209 1.29054 2.56621C0.582658 2.57115 0.00415232 2.00006 3.19118e-05 1.29136C-0.00491258 0.582647 0.565352 0.00496667 1.27489 2.21887e-05C1.98277 -0.00409821 2.56128 0.566165 2.5654 1.27487" transform="translate(108.3364 174.9666)" id="Fill-77" fill="#FFFFFF" stroke="none" />
    <path d="M14.9398 1.20892L0 0" transform="translate(48.17252 183.4644)" id="Stroke-79" fill="none" stroke="#12183F" stroke-width="0.8240818" stroke-linecap="round" stroke-linejoin="round" />
    <path d="M3.32599 0C3.33176 0.959231 2.59256 1.74211 1.67453 1.74788C0.755683 1.75365 0.00659265 0.980657 0 0.0214261" transform="translate(52.3816 21.96096)" id="Stroke-81" fill="none" stroke="#604346" stroke-width="0.8240818" stroke-linecap="round" stroke-linejoin="round" />
    <path d="M3.32517 0C3.33176 0.959231 2.59174 1.74211 1.67371 1.74788C0.755683 1.75365 0.00659266 0.980657 0 0.0214261" transform="translate(40.89679 22.03562)" id="Stroke-83" fill="none" stroke="#604346" stroke-width="0.8240818" stroke-linecap="round" stroke-linejoin="round" />
    <path d="M0 13.9627C0 13.9627 11.0781 0.528533 13.8322 0.259882C17.2332 -0.0713987 20.9218 -0.0450281 22.3648 0.112372C22.8122 0.160992 23.1748 0.492273 23.2671 0.932333L24.6252 7.38242C24.7801 8.11997 24.6161 8.88967 24.172 9.49866L20.2551 14.2462C20.0598 14.4844 19.82 14.6821 19.5489 14.8288L5.8584 22.2686C5.8584 22.2686 0.251345 17.1898 0 13.9627" transform="translate(38.58054 74.12149)" id="Fill-85" fill="#A08889" stroke="none" />
    <path d="M0 0.74497L7.26593 0.0791118" transform="translate(54.75232 76.56041)" id="Stroke-87" fill="none" stroke="#7C5B4D" stroke-width="0.6180613" stroke-linecap="round" stroke-linejoin="round" />
    <path d="M0 2.20112L5.40021 0" transform="translate(56.78764 78.80364)" id="Stroke-89" fill="none" stroke="#7C5B4D" stroke-width="0.6180613" stroke-linecap="round" stroke-linejoin="round" />
    <path d="M0 3.11585L3.38285 0" transform="translate(59.12548 80.65807)" id="Stroke-91" fill="none" stroke="#7C5B4D" stroke-width="0.6180613" stroke-linecap="round" stroke-linejoin="round" />
    <g id="分组" transform="translate(0 86.67445)">
      <path d="M0 0L45.6067 0L45.6067 39.3024L0 39.3024L0 0Z" transform="translate(0 0.2374208)" id="Clip-94" fill="none" stroke="none" />
      <g clip-path="url(#mask_3)">
        <path d="M3.52183 21.7038L39.0414 0L45.6069 10.6307C45.6069 10.6307 20.7361 36.45 11.6827 38.928C2.62935 41.4052 -4.57889 31.128 3.52183 21.7038" transform="translate(-0.0002004992 0.2374208)" id="Fill-93" fill="#ADC6FF" stroke="none" />
      </g>
    </g>
    <path d="M0 18.9943C7.39448 14.3052 30.7366 0 30.7366 0L37.5344 10.629C37.5344 10.629 13.3295 34.918 3.6103 38.9255" transform="translate(8.072622 86.91376)" id="Stroke-95" fill="none" stroke="#597EF7" stroke-width="0.8240818" stroke-linecap="round" stroke-linejoin="round" />
    <path d="M2.56621 1.27488C2.57116 1.98359 2.00007 2.56209 1.29136 2.56621C0.583472 2.57116 0.00496668 2.00007 2.21888e-05 1.29136C-0.00409822 0.582648 0.566167 0.00496668 1.27488 2.21888e-05C1.98359 -0.00409822 2.56127 0.566167 2.56621 1.27488" transform="translate(39.95608 95.48279)" id="Fill-97" fill="#FFFFFF" stroke="none" />
    <path d="M0 0L5.16205 8.78389" transform="translate(34.67176 92.97324)" id="Stroke-99" fill="none" stroke="#597EF7" stroke-width="0.8240818" stroke-linecap="round" stroke-linejoin="round" />
  </g>
</svg>
