<?xml version="1.0" encoding="utf-8"?>
<svg width="109px" height="331px" viewBox="0 0 109 331" version="1.1" xmlns:xlink="http://www.w3.org/1999/xlink" xmlns="http://www.w3.org/2000/svg">
  <desc>Created with Lunacy</desc>
  <defs>
    <path d="M0 0L29.6443 0L29.6443 4.86805L0 4.86805L0 0Z" transform="translate(0.3254029 0.07367583)" id="path_1" />
    <path d="M0 0L30.4364 0L30.4364 5.4L0 5.4L0 0Z" transform="translate(0.2605472 0.2775626)" id="path_2" />
    <clipPath id="mask_1">
      <use xlink:href="#path_1" />
    </clipPath>
    <clipPath id="mask_2">
      <use xlink:href="#path_2" />
    </clipPath>
  </defs>
  <g id="1.人物组件/7.设计师/站立原型" transform="translate(0.4371338 0.4371338)">
    <path d="M17.1737 26.3261C17.1737 26.3261 8.96276 25.1295 6.79267 33.847C-1.1641 36.7523 1.006 45.4691 1.006 45.4691C1.006 45.4691 -2.99065 52.3171 4.94824 55.8258C5.58326 62.8409 13.5221 61.5662 13.5221 61.5662C13.5221 61.5662 15.4272 66.9874 21.461 64.7549C27.9713 69.8396 40.2395 68.8194 44.5953 62.6028C53.2329 69.0785 68.2627 61.1744 66.3771 55.263C76.4651 54.6495 81.3556 43.9048 75.4453 34.7775C79.9853 27.5579 74.8095 23.2967 74.8095 23.2967C74.8095 23.2967 76.2381 6.71326 64.8063 4.4808C58.9325 -4.44904 46.2298 2.72684 46.2298 2.72684C46.2298 2.72684 37.8153 0.972874 34.798 8.30799C25.3947 9.75987 25.8362 14.9515 25.1126 19.3103C16.698 19.7888 17.1737 26.3261 17.1737 26.3261" id="Fill-1" fill="#253368" stroke="none" />
    <path d="M5.89314 55.523L5.32579 55.3188C1.14266 53.8168 -1.0279 49.2155 0.478024 45.0421L14.8089 5.31408C16.314 1.1399 20.9244 -1.02523 25.1075 0.476692L25.6757 0.680935C29.858 2.18286 32.0278 6.78416 30.5219 10.9576L16.1918 50.6856C14.6867 54.8598 10.0755 57.0257 5.89314 55.523" transform="translate(14 50)" id="Fill-3" fill="#FFC999" stroke="none" />
    <path d="M15.4363 28L21.5514 10.8434C23.0255 6.70773 20.7457 2.0567 16.4845 0.507652C12.2233 -1.0414 7.53091 1.07566 6.0568 5.21137L0 22.2052L15.4363 28Z" transform="translate(23 49)" id="Fill-5" fill="#597EF7" stroke="none" />
    <path d="M0 11.2581L15.7568 17L22 0" transform="translate(23 60)" id="Stroke-7" fill="none" stroke="#1D39C4" stroke-width="0.506115556" stroke-linecap="round" stroke-linejoin="round" />
    <path d="M11.4172 90.9982L11.4172 90.9982C7.9174 91.0807 4.97605 88.3829 4.75535 84.8874L0.01935 10.1055C-0.321517 4.71935 3.88355 0.129224 9.27694 0.00270277C14.6703 -0.124604 19.0867 4.26199 18.9987 9.65918L17.7845 84.5802C17.7279 88.0835 14.9177 90.9156 11.4172 90.9982" transform="translate(27 209)" id="Fill-9" fill="#FFC999" stroke="none" />
    <path d="M10.2528 0.00303103L10.2528 0.00303103C4.35789 0.144983 -0.266382 5.23659 0.0119342 11.2763L3.01075 76.2143C3.24098 81.2163 7.32246 85.1147 12.2039 84.9974C17.0854 84.8794 20.9832 80.7882 20.984 75.781L21 10.7697C21.0015 4.72332 16.1484 -0.138921 10.2528 0.00303103" transform="translate(25 150)" id="Fill-11" fill="#FFC999" stroke="none" />
    <path d="M0.868477 18.8464L13.063 19L14 0.177186L0 0L0.868477 18.8464Z" transform="translate(32 286)" id="Fill-13" fill="#597EF7" stroke="none" />
    <path d="M0 0.3925L13 0.6075" transform="translate(32 290)" id="Stroke-15" fill="none" stroke="#DFE5F1" stroke-width="0.8116132" stroke-linecap="round" stroke-linejoin="round" />
    <path d="M28.6549 0.168487L29 24L0.0247396 23.62L8.61529e-05 19.9616C-0.00364922 18.6167 0.945135 17.4622 2.25326 17.2212L10.2353 15.4286L13.9554 12.8111C15.1552 12.1409 15.8926 10.8633 15.8739 9.4776C15.8343 6.49998 15.7738 1.4499 15.7962 0L28.6549 0.168487Z" transform="translate(17 304)" id="Fill-17" fill="#4E5C93" stroke="none" />
    <g id="分组" transform="translate(16 324)">
      <path d="M0 0L29.6443 0L29.6443 4.86805L0 4.86805L0 0Z" transform="translate(0.3254029 0.07367583)" id="Clip-20" fill="none" stroke="none" />
      <g clip-path="url(#mask_1)">
        <path d="M29.1047 4.86813L0.484853 4.4718C0.213214 4.46864 -0.00365414 4.23021 4.6669e-05 3.94125L0.0414958 0.517949C0.0451966 0.228199 0.267986 -0.00312607 0.538885 3.19532e-05L29.1588 0.396364C29.4297 0.400312 29.6473 0.637954 29.6443 0.926913L29.6021 4.35101C29.5984 4.63996 29.3756 4.87208 29.1047 4.86813" transform="translate(0.3254029 0.07367583)" id="Fill-19" fill="#CCD7EE" stroke="none" />
      </g>
    </g>
    <path d="M0 4.93699L0 4.93699C0.0249893 2.9345 1.46294 1.24634 3.39283 0.95252L9.65015 0L10 5L0 4.93699Z" transform="translate(16 320)" id="Fill-21" fill="#CCD7EE" stroke="none" />
    <path d="M0 0.2495L29 0.7505" transform="translate(17 324)" id="Stroke-23" fill="none" stroke="#96A7CA" stroke-width="0.5" stroke-linecap="round" stroke-linejoin="round" />
    <path d="M2.33566 7C1.45581 5.60827 0 5.35869 0 5.35869C0 5.35869 3.03953 4.59328 5.05659 4.85001C4.06357 3.45668 2.95039 2.75167 2.95039 2.75167C2.95039 2.75167 5.76589 1.98388 7 1.99977C5.7845 0.488816 3.65891 0 3.65891 0" transform="translate(29 313)" id="Stroke-25" fill="none" stroke="#CCD7EE" stroke-width="0.83056134" stroke-linecap="round" stroke-linejoin="round" />
    <path d="M0.461591 1.76429e-07C0.461591 1.76429e-07 7.33187 -0.00976546 7.96445 4.56581C8.59839 9.14139 0.544309 1.30559 0.544309 1.30559C0.544309 1.30559 -0.623224 0.419171 0.461591 1.76429e-07Z" transform="translate(32 309)" id="Stroke-27" fill="none" stroke="#CCD7EE" stroke-width="0.83056134" stroke-linecap="round" stroke-linejoin="round" />
    <path d="M19.3313 88.9326L19.3313 88.9326C22.7741 88.509 25.2666 86.2339 24.9771 82.8L18.7952 8.57296C18.3492 3.28147 13.5633 -0.579896 8.25838 0.0717815C2.95342 0.725005 -0.740673 5.62921 0.126237 10.8689L12.9392 84.3763C13.5019 87.7761 15.8886 89.3562 19.3313 88.9326" transform="translate(62 217)" id="Fill-29" fill="#FFC999" stroke="none" />
    <path d="M9.4532 0.0821966L9.4532 0.0821966C15.4578 -0.655809 20.8987 3.66011 21.4983 9.63989L27.9538 73.9258C28.451 78.8773 24.8786 83.318 19.905 83.9298C14.9322 84.5408 10.3766 81.0995 9.64311 76.177L0.117658 12.2682C-0.768344 6.32332 3.44783 0.820202 9.4532 0.0821966" transform="translate(53 152)" id="Fill-31" fill="#FFC999" stroke="none" />
    <path d="M16 20L3.12634 20L0 0.320566L13.514 0L16 20Z" transform="translate(73 287)" id="Fill-33" fill="#597EF7" stroke="none" />
    <path d="M14 0.3135L0 0.6865" transform="translate(73 291)" id="Stroke-35" fill="none" stroke="#DFE5F1" stroke-width="0.8116132" stroke-linecap="round" stroke-linejoin="round" />
    <path d="M0 0.278757L2.50809 23L30 22.3719L29.9888 18.8849C29.9808 17.6028 28.9536 16.5108 27.5534 16.2933L22.7573 14.2793L18.48 12.1962C17.1908 11.5688 16.0582 10.2895 15.5957 9.0362C14.7426 6.71683 13.7849 1.38154 13.7466 0L0 0.278757Z" transform="translate(75 305)" id="Fill-37" fill="#4E5C93" stroke="none" />
    <g id="分组" transform="translate(77 324)">
      <path d="M0 0L30.4364 0L30.4364 5.4L0 5.4L0 0Z" transform="translate(0.2605472 0.2775626)" id="Clip-40" fill="none" stroke="none" />
      <g clip-path="url(#mask_2)">
        <path d="M0.589317 5.39987L29.9427 4.6815C30.2214 4.67489 30.4416 4.42359 30.4363 4.12021L30.3619 0.536666C30.355 0.233284 30.1242 -0.00727185 29.8463 0.000168028L0.49289 0.71853C0.214237 0.725143 -0.00595146 0.976445 0.000122708 1.27983L0.073772 4.8642C0.0806055 5.16675 0.311424 5.40648 0.589317 5.39987" transform="translate(0.2605472 0.2775626)" id="Fill-39" fill="#CCD7EE" stroke="none" />
      </g>
    </g>
    <path d="M10 4.83963C9.95573 2.83905 8.50268 1.16579 6.5698 0.891183L0.304177 0L0 5L10 4.83963Z" transform="translate(97 319)" id="Fill-41" fill="#CCD7EE" stroke="none" />
    <path d="M30 0.186701L0 0.813299" transform="translate(77 324)" id="Stroke-43" fill="none" stroke="#96A7CA" stroke-width="0.5" stroke-linecap="round" stroke-linejoin="round" />
    <path d="M4.68982 7C5.55276 5.59697 7 5.33261 7 5.33261C7 5.33261 3.96659 4.59606 1.9613 4.87317C2.93693 3.46695 4.03837 2.75031 4.03837 2.75031C4.03837 2.75031 1.2288 2.00819 0 2.03686C1.19638 0.510408 3.30819 0 3.30819 0" transform="translate(86 312)" id="Stroke-45" fill="none" stroke="#CCD7EE" stroke-width="0.83056134" stroke-linecap="round" stroke-linejoin="round" />
    <path d="M7.53215 0C7.53215 0 0.62865 0.0616144 0.0317826 4.5899C-0.565766 9.11819 7.46061 1.29168 7.46061 1.29168C7.46061 1.29168 8.62504 0.403092 7.53215 0Z" transform="translate(81 310)" id="Stroke-47" fill="none" stroke="#CCD7EE" stroke-width="0.83056134" stroke-linecap="round" stroke-linejoin="round" />
    <path d="M0.544634 7.93633C7.07287 9.09235 9.05858 4.10877 9.05858 4.10877C9.05858 4.10877 11.7516 -2.9097 12.442 1.39921C12.8084 3.68875 16.318 0.65 17.932 3.09171C19.0172 4.73453 16.3034 6.85172 19.8315 11.2321C21.8749 13.7693 13.8112 15.7941 18.7863 20.4718C18.7863 20.4718 15.2489 26.1813 21.3246 28.043L21.9688 34.7377C22.3429 38.6344 19.3043 42.0062 15.4236 42C11.7231 41.9946 8.75919 38.9069 8.87156 35.1764L9.11785 27.0135C-0.315843 27.0135 -0.776868 13.9354 0.544634 7.93633" transform="translate(43 10)" id="Fill-49" fill="#FFC999" stroke="none" />
    <path d="M4 0C4 0 2.44067 2.31503 0 1.96371" transform="translate(51 25)" id="Stroke-51" fill="none" stroke="#F5222D" stroke-width="0.874275148" stroke-linecap="round" stroke-linejoin="round" />
    <path d="M1.76988 0C1.76988 0 1.89255 1.68073 0 4.32175C2.03976 5.56807 3 6 3 6" transform="translate(49 19)" id="Stroke-53" fill="none" stroke="#DD936F" stroke-width="0.655706346" stroke-linecap="round" stroke-linejoin="round" />
    <path d="M0 0C0 1.10459 0.895056 2 1.99965 2C3.10425 2 4 1.10459 4 0" transform="translate(55 19)" id="Stroke-55" fill="none" stroke="#373A65" stroke-width="0.8701198" stroke-linecap="round" stroke-linejoin="round" />
    <path d="M0 0C0 1.10459 0.895315 2 2.00039 2C3.10468 2 4 1.10459 4 0" transform="translate(45 19)" id="Stroke-57" fill="none" stroke="#373A65" stroke-width="0.8252426" stroke-linecap="round" stroke-linejoin="round" />
    <path d="M0 0.858897C0 0.858897 3.15159 -1.16451 6 1" transform="translate(54 14)" id="Stroke-59" fill="none" stroke="#373A65" stroke-width="0.8701198" stroke-linecap="round" stroke-linejoin="round" />
    <path d="M0 2C1.95466 1.96642 3.98533 1.35309 6 0" transform="translate(52 35)" id="Stroke-61" fill="none" stroke="#DD936F" stroke-width="0.655706346" stroke-linecap="round" stroke-linejoin="round" />
    <path d="M64.3779 0.715906C71.0811 1.23975 86.9898 43.5367 93 58.661C92.1998 61.7071 87.3116 67.0808 87.3116 67.0808C87.3116 67.0808 87.8346 69.5062 88.1564 70.9628C82.4359 75.6602 71.3747 78.2122 71.3747 78.2122L71.3496 80.2958C53.6628 88.4279 29.9782 80.6344 29.9782 80.6344C29.9782 80.6344 29.5366 80.1824 29.8537 78.5484C21.8226 78.4553 4.62823 68.2818 4.62823 68.2818L7.07272 63.2482L0 56.0207C0 56.0207 19.0986 20.9371 24.9773 11.124C30.1379 2.50871 34.9784 0.0286519 34.9784 0.0286519C34.9784 0.0286519 52.4851 -0.214506 64.3779 0.715906" transform="translate(2 104)" id="Fill-63" fill="#4E5C93" stroke="none" />
    <path d="M29 0L0 59.3301C0 59.3301 9.67652 66.9103 24.6125 70" transform="translate(7 112)" id="Stroke-65" fill="none" stroke="#253368" stroke-width="0.632436633" stroke-linecap="round" stroke-linejoin="round" />
    <path d="M0 0L19 50.1839C19 50.1839 11.4767 55.1156 2.14208 57" transform="translate(71 124)" id="Stroke-67" fill="none" stroke="#253368" stroke-width="0.632436633" stroke-linecap="round" stroke-linejoin="round" />
    <path d="M13.4425 11.6733L0 77.9766C0 77.9766 21.481 84.804 42 77.9393C37.3268 49.2216 27.3294 0 27.3294 0" transform="translate(31 106)" id="Stroke-69" fill="none" stroke="#253368" stroke-width="0.632436633" stroke-linecap="round" stroke-linejoin="round" />
    <path d="M3 0L0 55" transform="translate(49 107)" id="Stroke-71" fill="none" stroke="#253368" stroke-width="0.632436633" stroke-linecap="round" stroke-linejoin="round" />
    <path d="M12 0L0 38" transform="translate(32 105)" id="Stroke-73" fill="none" stroke="#253368" stroke-width="0.632436633" stroke-linecap="round" stroke-linejoin="round" />
    <path d="M0 4.19706L0.501364 0.611202C0.501364 0.611202 15.4957 0.696213 30.2022 0C30.5739 1.5925 31 4.4565 31 4.4565C29.7644 3.49792 16.4061 6.29889 0 4.19706" transform="translate(36 100)" id="Fill-75" fill="#4E5C93" stroke="none" />
    <path d="M0.00658588 0.522943C-0.323538 0.668943 11.7943 1.18194 28 0.210943" transform="translate(37 104)" id="Stroke-77" fill="none" stroke="#253368" stroke-width="0.632436633" stroke-linecap="round" stroke-linejoin="round" />
    <path d="M5.15598 16.267C3.50302 19.8275 0.441306 25.9556 0.0604564 30.0044C-0.55754 36.568 3.76608 41.4527 3.76608 41.4527C3.76608 41.4527 3.80927 39.5214 4.22938 56.5282C24.0335 59.9621 36.6597 56.3108 36.6597 56.3108L36.2741 51.8026L39.4905 41.1468C39.4905 41.1468 41.4442 37.1781 45.4585 28.3254C48.2501 22.1709 48.0561 14.5399 47.6776 10.461C47.5166 8.71294 48.8162 7.51836 47.1067 7.04332C41.1348 5.38378 36.3416 5.057 36.3416 5.057L35.7786 1.16276C35.6828 0.495997 35.1049 0 34.4233 0L19.8654 0C19.2411 0 18.6946 0.419153 18.5391 1.01761L17.4727 5.12996L6.08101 5.78897C4.66677 6.06297 5.98207 8.30621 5.83444 9.72357L5.15598 16.267Z" transform="translate(31 43)" id="Fill-79" fill="#597EF7" stroke="none" />
    <path d="M13 0.5L0 0.5" transform="translate(50 48)" id="Stroke-81" fill="none" stroke="#1D39C4" stroke-width="0.528554142" stroke-linecap="round" stroke-linejoin="round" />
    <path d="M20 0L5.62324 18L0 1.07869" transform="translate(48 47)" id="Stroke-83" fill="none" stroke="#C9D4EA" stroke-width="0.678144932" stroke-linecap="round" stroke-linejoin="round" />
    <path d="M0.794331 2.60113C-0.698419 5.02327 -0.0258346 8.06065 2.29676 9.38577C4.61935 10.7109 7.71292 9.82101 9.20567 7.39887C10.6984 4.9775 10.0258 1.93935 7.70324 0.61423C5.38065 -0.710889 2.28789 0.178989 0.794331 2.60113" transform="translate(49 64)" id="Fill-85" fill="#C9D4EA" stroke="none" />
    <path d="M0.794315 2.60083C-0.698404 5.02301 -0.025834 8.06044 2.29671 9.38558C4.61926 10.7107 7.71276 9.8216 9.20628 7.39942C10.6982 4.97724 10.0256 1.93904 7.70308 0.613896C5.38053 -0.710468 2.28784 0.178648 0.794315 2.60083" transform="translate(48 64)" id="Fill-87" fill="#F0F0F5" stroke="none" />
    <path d="M0.635506 2.08064C-0.558568 4.01839 -0.0209435 6.44857 1.83706 7.50857C3.69589 8.56858 6.17046 7.85711 7.36453 5.91936C8.55861 3.98081 8.02098 1.55143 6.16215 0.491425C4.30415 -0.568582 1.82958 0.142886 0.635506 2.08064" transform="translate(49 65)" id="Fill-89" fill="#FAAD14" stroke="none" />
    <path d="M41 23.6546L35.8286 38.9529L36.2899 43.6094C36.2899 43.6094 21.7624 46.7863 4.10805 43.5364C4.10805 42.3169 3.61155 29.0644 3.61155 29.0644C3.61155 29.0644 0 22.5871 0 18.002C0 12.51 1.69201 10.1453 5.07447 4.04278L5.22772 0" transform="translate(31 56)" id="Stroke-91" fill="none" stroke="#1D39C4" stroke-width="0.528554142" stroke-linecap="round" stroke-linejoin="round" />
    <path d="M0.00411694 6.98534L0.00411694 6.98534C-0.100115 9.49525 1.78695 11.6392 4.28851 11.8534L52.5696 15.9888C57.0197 16.2221 60.8078 12.7729 60.993 8.31883C61.1796 3.82509 57.6295 0.0670935 53.1351 0L4.46508 2.4817C2.03897 2.60521 0.105237 4.55778 0.00411694 6.98534" transform="translate(20 88)" id="Fill-93" fill="#FFC999" stroke="none" />
    <path d="M6.86728 53.8651L7.20585 53.9142C11.4951 54.5364 15.4018 51.7076 15.9313 47.5954L20.9402 8.7079C21.4697 4.59569 18.4219 0.75793 14.1326 0.134938L13.794 0.0858157C9.50471 -0.536397 5.59804 2.29163 5.06932 6.40462L0.0596114 45.2921C-0.46911 49.4043 2.57799 53.2429 6.86728 53.8651" transform="translate(64 50)" id="Fill-95" fill="#FFC999" stroke="none" />
    <path d="M0 26.8477L2.18924 7.46623C2.59351 2.89904 6.69939 -0.439235 11.3135 0.0470648C15.9276 0.533364 19.372 4.66769 18.9678 9.23487L17.3068 28L0 26.8477Z" transform="translate(66 50)" id="Fill-97" fill="#597EF7" stroke="none" />
    <path d="M17 21L0 19.6252L1.93944 0" transform="translate(66 57)" id="Stroke-99" fill="none" stroke="#1D39C4" stroke-width="0.521905661" stroke-linecap="round" stroke-linejoin="round" />
    <path d="M55.988 6.57564L55.988 6.57564C56.1588 9.21912 54.4898 11.5082 52.1996 11.7709L8.62707 16.9816C4.54741 17.2941 0.323679 13.578 0.0205784 8.88567C-0.285672 4.15214 2.86343 0.137576 6.98875 0L51.7572 1.89419C53.9883 1.98824 55.8227 4.01845 55.988 6.57564" transform="translate(14 89)" id="Fill-101" fill="#FFC999" stroke="none" />
    <path d="M18.6964 8.97879C20.2309 10.8465 17.3139 12.2178 17.3139 12.2178C17.3139 12.2178 18.3939 13.6673 15.9417 14.0932C13.764 14.4717 0.261065 16 0.261065 16L0 6.16648L5.14728 5.49692C5.14728 5.49692 8.06993 2.84931 9.57981 1.81356C11.0881 0.778575 14.9993 1.1034 17.0249 0.151914C19.0506 -0.800335 18.0501 3.01096 13.2307 3.63072C20.8231 3.69201 21.8093 1.74921 21.9907 3.65907C22.1491 5.33297 20.223 5.41495 20.223 5.41495C20.223 5.41495 22.3823 7.21449 18.6964 8.97879" transform="translate(62 85)" id="Fill-103" fill="#FFC999" stroke="none" />
    <path d="M6.19211 4.30359L45.4213 5.66443C45.4213 5.66443 48.2966 2.93564 49.7812 1.86922C51.265 0.802011 55.1136 1.1367 57.1055 0.15632C59.0983 -0.824058 58.1149 3.10219 53.3729 3.74157C60.8421 3.80392 61.8123 1.80291 61.9908 3.76998C62.1474 5.49551 60.2525 5.57997 60.2525 5.57997C60.2525 5.57997 62.376 7.43416 58.7499 9.25126C60.2603 11.1757 57.3906 12.5886 57.3906 12.5886C57.3906 12.5886 58.4813 14.3015 56.0406 14.521C53.5992 14.7412 0 21 0 21" transform="translate(22 85)" id="Stroke-105" fill="none" stroke="#DD936F" stroke-width="0.5875594" stroke-linecap="round" stroke-linejoin="round" />
    <path d="M19 10C19 10 12.1742 0.26096 9.6375 0.0372772C7.10083 -0.186405 2.60908 0.612576 1.86264 2.00375C0.105534 5.28657 0 9.77551 0 9.77551L8.55212 9.62907L19 10Z" transform="translate(17 79)" id="Fill-107" fill="#FFC999" stroke="none" />
    <path d="M19 10C19 10 12.1742 0.26096 9.6375 0.0372772C7.10083 -0.186405 2.60908 0.612576 1.86264 2.00375C0.105534 5.28657 0 9.77551 0 9.77551L8.55212 9.62907L19 10Z" transform="translate(17 79)" id="Stroke-109" fill="none" stroke="#DD936F" stroke-width="0.623295" stroke-linecap="round" stroke-linejoin="round" />
    <path d="M0 0.890367C0 0.890367 4.03296 -0.100633 7 0.150367" transform="translate(18 82)" id="Stroke-111" fill="none" stroke="#DD936F" stroke-width="0.5" stroke-linecap="round" stroke-linejoin="round" />
    <path d="M0 0.657811C0 0.657811 4.39291 0.0878109 6 0.479811" transform="translate(18 84)" id="Stroke-113" fill="none" stroke="#DD936F" stroke-width="0.5" stroke-linecap="round" stroke-linejoin="round" />
    <path d="M0 0.4815L7 0.5185" transform="translate(18 86)" id="Stroke-115" fill="none" stroke="#DD936F" stroke-width="0.5" stroke-linecap="round" stroke-linejoin="round" />
  </g>
</svg>