<?xml version="1.0" encoding="utf-8"?>
<svg width="151px" height="375px" viewBox="0 0 151 375" version="1.1" xmlns:xlink="http://www.w3.org/1999/xlink" xmlns="http://www.w3.org/2000/svg">
  <desc>Created with Lunacy</desc>
  <defs>
    <path d="M0 0L38.6016 0L38.6016 33.375L0 33.375L0 0Z" transform="translate(0 0.04283297)" id="path_1" />
    <clipPath id="mask_1">
      <use xlink:href="#path_1" />
    </clipPath>
  </defs>
  <g id="编组" transform="translate(0.8144531 0.8143921)">
    <path d="M9.18408 33.5035L0 10.3018L17.9006 0C17.9006 0 35.7295 32.0009 31.9284 39.069C26.3526 49.4357 15.6856 50.8017 9.18408 33.5035" transform="translate(88.61133 90.21334)" id="Fill-1" fill="#FFC999" stroke="none" />
    <g id="编组" transform="translate(0 338.4588)">
      <path d="M0 0L38.6016 0L38.6016 33.375L0 33.375L0 0Z" transform="translate(0 0.04283297)" id="Clip-4" fill="none" stroke="none" />
      <g clip-path="url(#mask_1)">
        <path d="M16.552 31.7854C5.59241 36.3365 0.0166031 29.6694 0.0166031 29.6694C0.0166031 29.6694 -0.281171 27.3452 1.6454 24.7591C4.05746 21.5228 9.39692 20.394 15.7526 14.2107C20.6339 9.46083 23.8787 2.04548 23.8787 2.04548C27.4144 -3.11309 38.5677 3.11201 38.5677 3.11201C38.5677 3.11201 38.7008 13.8114 38.4414 19.9307C38.4414 19.9307 38.0191 23.2992 29.6225 24.4596C23.3394 25.3273 23.115 29.0602 16.552 31.7854" transform="translate(-0.000221248 0.04283297)" id="Fill-3" fill="#4E5C93" stroke="none" />
      </g>
    </g>
    <path d="M0.124996 4.85256C0.124996 4.85256 -0.428745 20.452 0.794774 24.568C4.3783 28.6592 7.56679 26.788 12.3295 30.8664C17.093 34.9457 27.1235 41.7169 36.2231 34.7384C37.3519 30.0072 34.3571 27.8614 30.6481 25.3265C15.3584 14.8762 18.0478 13.0162 15.285 6.98305C11.0445 -2.2744 0.0558846 -1.63534 0.124996 4.85256" transform="translate(81.68163 334.0044)" id="Fill-5" fill="#4E5C93" stroke="none" />
    <path d="M10.5079 73.386C10.5079 73.386 5.58144 48.018 3.39122 38.6437C1.20185 29.2702 -2.08049 6.83812 1.79569 5.18031C5.67273 3.52336 14.9532 0.0089354 14.9532 0.0089354C14.9532 0.0089354 22.3276 -0.216315 30.6167 1.59507C37.1788 3.03019 37.1489 -0.841727 45.1061 0.517456C48.4763 1.09338 61.6577 5.2955 64.208 7.32531C66.7583 9.35513 61.6756 75.0174 61.6756 75.0174C61.6756 75.0174 64.8095 78.2724 60.9666 82.4515C59.0622 84.4079 50.8696 83.698 40.3767 83.6682C28.4324 83.6332 14.3747 85.0572 11.7801 82.7723C6.90649 78.4797 10.5079 73.386 10.5079 73.386" transform="translate(31.56638 58.59766)" id="Fill-7" fill="#597EF7" stroke="none" />
    <path d="M7.65681 0L0 6.43841L8.52795 15.3332L12.8862 4.78913L7.65681 0Z" transform="translate(65.24099 54.53997)" id="Fill-9" fill="#597EF7" stroke="none" />
    <path d="M38.565 43.028L37.3107 54.4321C37.3107 54.4321 7.16728 37.9359 1.25616 28.5198C-3.99201 20.1591 8.90188 0 8.90188 0C8.90188 0 21.4383 8.94944 23.7351 14.5184L21.585 20.7341L38.565 43.028Z" transform="translate(2.091199 93.76086)" id="Fill-11" fill="#FFC999" stroke="none" />
    <path d="M13.261 52.0937C13.261 52.0937 0.873118 30.293 0.0429334 17.6739C-0.771893 5.29791 10.2142 -3.8401 15.7789 1.61114C23.8871 9.55548 32.3536 35.9883 32.3536 35.9883C32.3536 35.9883 22.9997 47.7081 13.261 52.0937" transform="translate(82.08212 65.83884)" id="Fill-13" fill="#597EF7" stroke="none" />
    <path d="M0 13.0091C0 13.0091 8.8317 9.55096 15.4561 0" transform="translate(95.8731 97.27323)" id="Stroke-15" fill="none" stroke="#1D39C4" stroke-width="0.8148266" stroke-linecap="round" stroke-linejoin="round" />
    <path d="M0 13.3137C0 13.3137 8.82829 9.55011 15.4527 0" transform="translate(95.64563 104.3098)" id="Stroke-17" fill="none" stroke="#1D39C4" stroke-width="0.8148266" stroke-linecap="round" stroke-linejoin="round" />
    <path d="M0 40.5445C0 40.5445 15.0244 9.3524 22.9892 3.30733C30.954 -2.7369 34.4369 0.530943 37.5742 4.94125C39.5494 7.71677 44.0757 15.5826 33.6929 31.9372C25.8739 44.2526 22.6035 48.813 21.6641 50.8719C8.81037 49.8574 0 40.5445 0 40.5445" transform="translate(5.449185 63.35701)" id="Fill-19" fill="#597EF7" stroke="none" />
    <path d="M14.5978 33.018L22.0686 25.6086L21.049 0L1.10577 0.901855L0 26.141L14.5978 33.018Z" transform="translate(50.79271 29.1231)" id="Fill-21" fill="#FFC999" stroke="none" />
    <path d="M2.02904 1.71239C2.02904 1.71239 5.13135 -1.38907 6.37705 0.755927C7.62361 2.90093 5.24568 10.4519 1.93945 10.591C-2.47597 10.7779 2.02904 1.71239 2.02904 1.71239" transform="translate(75.0074 25.13542)" id="Fill-23" fill="#FFC999" stroke="none" />
    <path d="M8.35412 38.5567C8.35412 38.5567 14.743 43.9747 23.4169 38.8604C29.6608 35.1796 30.6565 21.4854 29.6352 11.4046C29.0584 5.70084 26.4859 2.59341 20.963 0.815295C15.441 -0.962819 0.391859 -1.27254 0.0147351 15.4788C-0.406756 34.1362 8.35412 38.5567 8.35412 38.5567" transform="translate(49.12819 7.40029)" id="Fill-25" fill="#FFC999" stroke="none" />
    <path d="M3.23286 0L2.27725 3.52722L4.01356 13.108L0 13.0756" transform="translate(65.77545 21.58514)" id="Stroke-27" fill="none" stroke="#DD936F" stroke-width="0.610906661" stroke-linecap="round" stroke-linejoin="round" />
    <path d="M0 0.577542C1.45816 0.891528 5.35396 0.41287 7.94861 0.172261" transform="translate(56.45998 20.20062)" id="Stroke-29" fill="none" stroke="#253368" stroke-width="1.6288" stroke-linecap="round" stroke-linejoin="round" />
    <path d="M0 0.188939C0 0.188939 2.75164 0.947453 6.98959 0.548146" transform="translate(62.83081 37.17875)" id="Stroke-31" fill="none" stroke="#FF7A45" stroke-width="0.8148266" stroke-linecap="round" stroke-linejoin="round" />
    <path d="M3.90808 30.0922L0.757982 23.5812C0.757982 23.5812 -1.14556 14.2393 1.0805 10.2752C4.53349 4.12437 12.1809 4.42811 16.7525 2.85306C21.3223 1.27716 21.307 -0.251808 23.1448 0.034874C24.9818 0.321556 32.0251 5.42382 32.7325 10.6396C33.3553 15.2248 31.9816 26.8542 31.9816 26.8542C31.9816 26.8542 30.881 16.514 29.9356 13.7717C26.364 12.2044 13.2892 11.8955 7.80047 13.4808C7.80047 13.4808 7.2655 16.9841 6.9481 19.4525C3.98828 21.4908 3.90808 30.0922 3.90808 30.0922" transform="translate(47.01594 0.000193414)" id="Fill-33" fill="#253368" stroke="none" />
    <path d="M13.6703 0C13.6703 0 9.23271 4.69272 0 0.954754" transform="translate(59.22919 45.89112)" id="Stroke-35" fill="none" stroke="#DD936F" stroke-width="0.5" stroke-linecap="round" stroke-linejoin="round" />
    <path d="M0 0.46074L2.95385 0.392482" transform="translate(65.8054 24.75648)" id="Stroke-37" fill="none" stroke="#090D33" stroke-width="1.22181332" stroke-linecap="round" stroke-linejoin="round" />
    <path d="M0 0.716392C0 0.716392 1.99398 -0.565147 3.21067 0.683116" transform="translate(65.71206 26.61759)" id="Stroke-39" fill="none" stroke="#090D33" stroke-width="1.22181332" stroke-linecap="round" stroke-linejoin="round" />
    <path d="M0 1.26415C0 1.26415 4.59886 -1.26992 7.67899 0.837541" transform="translate(69.68986 19.74063)" id="Stroke-41" fill="none" stroke="#253368" stroke-width="1.6288" stroke-linecap="round" stroke-linejoin="round" />
    <path d="M0 0.438983L2.40694 0.414239" transform="translate(65.60796 40.1974)" id="Stroke-43" fill="none" stroke="#DD936F" stroke-width="0.5" stroke-linecap="round" stroke-linejoin="round" />
    <path d="M4.84459 0.415519L0 0.437703" transform="translate(50.01312 24.89086)" id="Stroke-45" fill="none" stroke="#090D33" stroke-width="1.22181332" stroke-linecap="round" stroke-linejoin="round" />
    <path d="M1.20199 0.0947745L10.4526 6.69198e-05C11.0985 -0.00675885 11.6266 0.50944 11.6292 1.15533C11.6335 2.36008 11.5848 4.29262 11.2879 5.94958C10.939 7.90431 9.19667 9.11674 7.21464 9.22936C4.73859 9.36929 2.51424 9.39403 1.37775 8.12018C-0.355141 6.17824 0.0305151 2.9488 0.049286 1.24065C0.056965 0.613533 0.575724 0.100747 1.20199 0.0947745" transform="translate(54.00896 24.25088)" id="Fill-47" fill="#FFEDE1" stroke="none" />
    <path d="M1.20199 0.0947745L10.4526 6.69198e-05C11.0985 -0.00675885 11.6266 0.50944 11.6292 1.15533C11.6335 2.36008 11.5848 4.29262 11.2879 5.94958C10.939 7.90431 9.19667 9.11674 7.21464 9.22936C4.73859 9.36929 2.51424 9.39403 1.37775 8.12018C-0.355141 6.17824 0.0305151 2.9488 0.049286 1.24065C0.056965 0.613533 0.575724 0.100747 1.20199 0.0947745Z" transform="translate(54.00896 24.25088)" id="Stroke-49" fill="none" stroke="#253368" stroke-width="0.5" stroke-linecap="round" stroke-linejoin="round" />
    <path d="M3.36596 0C3.37705 1.06482 2.63304 1.93596 1.70303 1.94535C0.773019 1.95558 0.0102387 1.0998 0 0.0349821" transform="translate(58.20251 26.96735)" id="Stroke-51" fill="none" stroke="#090D33" stroke-width="0.8148266" stroke-linecap="round" stroke-linejoin="round" />
    <path d="M0.87969 0.106653L11.3513 0C11.7549 1.52641 11.4426 7.44777 9.65849 8.73443C7.26264 10.0202 2.39416 9.52366 1.62626 8.24724C0.459905 6.30957 -0.00339418 2.5955 1.87063e-05 0.99571C0.00172515 0.506814 0.391647 0.111772 0.87969 0.106653" transform="translate(68.7577 23.98816)" id="Fill-53" fill="#FFEDE1" stroke="none" />
    <path d="M0.87969 0.106653L11.3513 0C11.7549 1.52641 11.4426 7.44777 9.65849 8.73443C7.26264 10.0202 2.39416 9.52366 1.62626 8.24724C0.459905 6.30957 -0.00339418 2.5955 1.87063e-05 0.99571C0.00172515 0.506814 0.391647 0.111772 0.87969 0.106653Z" transform="translate(68.7577 23.98816)" id="Stroke-55" fill="none" stroke="#96A7CA" stroke-width="0.5" stroke-linecap="round" stroke-linejoin="round" />
    <path d="M3.36681 0C3.37791 1.06567 2.63304 1.93596 1.70303 1.94535C0.773019 1.95558 0.0102387 1.0998 0 0.0349821" transform="translate(71.27327 26.83322)" id="Stroke-57" fill="none" stroke="#090D33" stroke-width="0.8148266" stroke-linecap="round" stroke-linejoin="round" />
    <path d="M0 0.335316L11.469 0.517906" transform="translate(54.20773 24.08406)" id="Stroke-59" fill="none" stroke="#253368" stroke-width="1.22181332" stroke-linecap="round" stroke-linejoin="round" />
    <path d="M0 0.563126L11.2344 0.290095" transform="translate(68.96334 23.92749)" id="Stroke-61" fill="none" stroke="#253368" stroke-width="1.22181332" stroke-linecap="round" stroke-linejoin="round" />
    <path d="M5.21274 1.1528C4.12744 -0.151774 2.24353 -0.48965 0.904825 0.876358C-1.25127 3.07682 0.437259 11.5459 6.0634 12.0647C7.93623 11.7839 6.81253 3.07426 5.21274 1.1528" transform="translate(44.33648 23.69864)" id="Fill-63" fill="#FFC999" stroke="none" />
    <path d="M0 40.6765C0 40.6765 3.50418 53.7879 15.0995 51.5235C23.0191 49.9766 31.204 8.87692 31.8695 4.09973C32.3448 0.685137 22.0404 0 22.0404 0L0 40.6765Z" transform="translate(101.205 82.08581)" id="Fill-65" fill="#FFC999" stroke="none" />
    <path d="M0 23.4939C0 23.4939 0.43429 22.5152 1.30202 17.9189C2.1706 13.3226 11.1132 2.08144 11.6917 1.58145C13.6609 -0.121579 15.2155 2.30754 11.0014 8.46866C16.1071 7.0378 19.293 4.71107 21.0933 1.48077C22.8936 -1.74953 26.4345 0.582329 25.2673 5.79381C24.1001 11.0044 23.8586 15.2321 20.4406 19.0708C15.5474 24.5664 11.498 26.3522 9.21479 27.2941C7.35989 28.0595 1.41549 27.1482 0 23.4939" transform="translate(123.0987 59.20538)" id="Fill-67" fill="#FFC999" stroke="none" />
    <path d="M20.2333 200.036L45.6439 40.8307L47.1695 40.5082L57.7802 199.646C57.7802 199.646 70.9326 203.621 77.9162 199.481C78.353 168.453 77.7933 67.7584 74.9487 21.7109C74.4905 14.2972 72.2662 4.21213 71.8259 1.4093C50.695 -2.27832 21.8194 2.43658 21.8194 2.43658L0 197.5C0 197.5 10.4281 203.122 20.2333 200.036" transform="translate(21.06033 144.0704)" id="Fill-69" fill="#ADC6FF" stroke="none" />
    <path d="M0 5.18246L12.7872 0" transform="translate(66.39864 179.7217)" id="Stroke-71" fill="none" stroke="#597EF7" stroke-width="0.610906661" stroke-linecap="round" stroke-linejoin="round" />
    <path d="M0.157846 1.6456C0.157846 1.6456 27.1111 -2.19049 49.4766 1.85122C49.6507 3.83667 49.8298 6.28115 49.8298 6.28115C49.8298 6.28115 31.7398 1.73518 0 7.5789C0.116038 2.19336 0.157846 1.6456 0.157846 1.6456" transform="translate(43.06133 139.6572)" id="Fill-73" fill="#ADC6FF" stroke="none" />
    <path d="M0 1.55502C0 1.55502 27.1785 -1.79388 48.9237 1.33745" transform="translate(43.37753 146.5952)" id="Stroke-75" fill="none" stroke="#597EF7" stroke-width="0.610906661" stroke-linecap="round" stroke-linejoin="round" />
    <path d="M0 1.55502C0 1.55502 27.1794 -1.79388 48.9237 1.33745" transform="translate(43.30501 139.8686)" id="Stroke-77" fill="none" stroke="#1D39C4" stroke-width="0.8148266" stroke-linecap="round" stroke-linejoin="round" />
    <path d="M2.00422 0C2.00422 0 1.68682 27.5241 0 41.3027" transform="translate(68.20731 141.1357)" id="Stroke-79" fill="none" stroke="#597EF7" stroke-width="0.610906661" stroke-linecap="round" stroke-linejoin="round" />
    <path d="M2.14085 1.36434C2.14852 2.12456 1.67584 2.74571 1.08541 2.75168C0.494129 2.75765 0.00864593 2.14675 0.000113714 1.38738C-0.0084185 0.627161 0.464266 0.00601603 1.0564 4.34824e-05C1.64683 -0.00592906 2.13231 0.604124 2.14085 1.36434" transform="translate(73.29 141.7033)" id="Fill-81" fill="#FFFFFF" stroke="none" />
    <path d="M4.37021 0L3.10488 3.22432C3.10488 3.22432 3.19788 11.9383 0 13.1191" transform="translate(129.7296 67.67413)" id="Stroke-83" fill="none" stroke="#DD936F" stroke-width="0.5" stroke-linecap="round" stroke-linejoin="round" />
    <path d="M0 6.25529C4.11509 5.0642 5.91112 1.37572 5.91112 1.37572C5.91112 1.37572 7.49129 -0.933947 8.42386 0.43206" transform="translate(138.6233 69.85608)" id="Stroke-85" fill="none" stroke="#DD936F" stroke-width="0.5" stroke-linecap="round" stroke-linejoin="round" />
    <path d="M0 6.42506C0 6.42506 2.52042 6.1691 6.13723 1.31427C6.13723 1.31427 8.40168 -1.46211 8.88716 1.05574" transform="translate(138.8109 65.78555)" id="Stroke-87" fill="none" stroke="#DD936F" stroke-width="0.5" stroke-linecap="round" stroke-linejoin="round" />
    <path d="M0 7.66403C0 7.66403 2.05626 6.9533 4.55194 4.40473C7.08857 1.81349 8.39058 -1.14121 10.0134 0.447486" transform="translate(138.0943 61.80237)" id="Stroke-89" fill="none" stroke="#DD936F" stroke-width="0.5" stroke-linecap="round" stroke-linejoin="round" />
    <path d="M9.23271 0L0 15.9237" transform="translate(104.8706 99.30791)" id="Stroke-91" fill="none" stroke="#E2A688" stroke-width="0.610906661" stroke-linecap="round" stroke-linejoin="round" />
    <path d="M18.4688 8.40765L11.004 18.1199L0 5.04766L4.08352 0L18.4688 8.40765Z" transform="translate(46.84417 53.58138)" id="Fill-93" fill="#597EF7" stroke="none" />
    <path d="M0 0C0 0 5.73536 7.27798 17.5448 10.8206" transform="translate(13.71221 90.67365)" id="Stroke-95" fill="none" stroke="#ADC6FF" stroke-width="1.6288" stroke-linecap="round" stroke-linejoin="round" />
    <path d="M0 0C0 0 3.77039 9.43919 15.1285 13.5986" transform="translate(20.0089 78.98639)" id="Stroke-97" fill="none" stroke="#ADC6FF" stroke-width="1.6288" stroke-linecap="round" stroke-linejoin="round" />
    <path d="M35.4718 42.8897C31.5999 23.9721 25.0574 12.7284 25.0574 12.7284C19.6872 9.46223 12.1985 6.70803 6.25241 5.6671L0 0" transform="translate(71.0016 57.79962)" id="Stroke-99" fill="none" stroke="#ADC6FF" stroke-width="1.6288" stroke-linecap="round" stroke-linejoin="round" />
    <path d="M0 37.0819C0 37.0819 13.8026 12.3947 16.6677 8.69433C19.5337 4.99476 36.1826 0 36.1826 0" transform="translate(13.66059 63.07176)" id="Stroke-101" fill="none" stroke="#ADC6FF" stroke-width="1.6288" stroke-linecap="round" stroke-linejoin="round" />
    <path d="M0 31.8315C0 31.8315 12.4016 9.40969 15.5602 7.12562C30.5803 -3.7376 65.6281 -0.520101 74.8693 5.80227L80.0433 32.0448" transform="translate(20.36469 73.29607)" id="Stroke-103" fill="none" stroke="#ADC6FF" stroke-width="1.6288" stroke-linecap="round" stroke-linejoin="round" />
    <path d="M54.7333 4.68229C25.5685 -6.0137 0 4.96214 0 4.96214" transform="translate(38.50103 87.58655)" id="Stroke-105" fill="none" stroke="#ADC6FF" stroke-width="1.6288" stroke-linecap="round" stroke-linejoin="round" />
    <path d="M0 4.24625C0 4.24625 27.4985 -5.06837 54.3502 3.89387" transform="translate(39.18309 102.0558)" id="Stroke-107" fill="none" stroke="#ADC6FF" stroke-width="1.6288" stroke-linecap="round" stroke-linejoin="round" />
    <path d="M0 2.64349C0 2.64349 25.699 -3.28897 52.1361 2.62045" transform="translate(40.61454 115.9515)" id="Stroke-109" fill="none" stroke="#ADC6FF" stroke-width="1.6288" stroke-linecap="round" stroke-linejoin="round" />
    <path d="M0 0C0 0 6.4896 6.35223 10.5322 41.1679C12.7454 60.2409 13.3615 69.8823 13.0313 74.7789" transform="translate(38.49898 63.80502)" id="Stroke-111" fill="none" stroke="#ADC6FF" stroke-width="1.6288" stroke-linecap="round" stroke-linejoin="round" />
    <path d="M9.95795 80.2165C9.95795 80.2165 8.95371 54.0354 6.75069 37.7465C3.88728 16.5627 0 6.93413 0 6.93413L4.97087 0" transform="translate(52.27126 57.94672)" id="Stroke-113" fill="none" stroke="#ADC6FF" stroke-width="1.6288" stroke-linecap="round" stroke-linejoin="round" />
    <path d="M0 0C2.62537 9.60386 3.6262 60.2775 1.0469 76.3599" transform="translate(81.58667 61.12667)" id="Stroke-115" fill="none" stroke="#ADC6FF" stroke-width="1.6288" stroke-linecap="round" stroke-linejoin="round" />
    <path d="M9.07487 0C9.07487 0 4.51781 2.80113 0 9.2711" transform="translate(96.11285 80.59744)" id="Stroke-117" fill="none" stroke="#ADC6FF" stroke-width="1.6288" stroke-linecap="round" stroke-linejoin="round" />
    <path d="M12.0219 0C12.0219 0 6.33261 4.18932 0 12.5134" transform="translate(96.00884 89.05261)" id="Stroke-119" fill="none" stroke="#ADC6FF" stroke-width="1.6288" stroke-linecap="round" stroke-linejoin="round" />
    <path d="M0 1.60631C0 1.60631 32.599 -2.4883 47.5577 2.39725" transform="translate(43.49084 128.5776)" id="Stroke-121" fill="none" stroke="#ADC6FF" stroke-width="1.6288" stroke-linecap="round" stroke-linejoin="round" />
    <path d="M0 0C0 0 3.30879 9.138 4.96404 42.4512C5.77887 58.8416 5.11506 70.8114 4.71064 75.8616" transform="translate(65.78125 62.90146)" id="Stroke-123" fill="none" stroke="#1D39C4" stroke-width="0.8148266" stroke-linecap="round" stroke-linejoin="round" />
    <path d="M0 0L10.6695 11.1234" transform="translate(49.65502 56.19352)" id="Stroke-125" fill="none" stroke="#ADC6FF" stroke-width="1.6288" stroke-linecap="round" stroke-linejoin="round" />
    <path d="M5.26437 0L0 8.15936" transform="translate(70.17227 57.90542)" id="Stroke-127" fill="none" stroke="#ADC6FF" stroke-width="1.6288" stroke-linecap="round" stroke-linejoin="round" />
    <path d="M3.74565 0C3.74565 0 3.98113 7.79503 2.50165 12.3973C2.50165 12.3973 3.97858 34.4898 0.64077 65.4865C0.64077 65.4865 3.52381 69.0103 0 72.5341" transform="translate(92.36662 68.31029)" id="Stroke-129" fill="none" stroke="#1D39C4" stroke-width="0.8148266" stroke-linecap="round" stroke-linejoin="round" />
    <path d="M0 0C0 0 11.1286 0.130543 15.8494 2.32418C15.945 11.3026 15.4962 15.5474 15.4962 15.5474L9.11411 19.8553L0.905268 15.2044L0 0Z" transform="translate(75.09084 75.64475)" id="Stroke-131" fill="none" stroke="#1D39C4" stroke-width="0.8148266" stroke-linecap="round" stroke-linejoin="round" />
    <path d="M0 0C0 0 6.49899 7.26945 18.7615 10.196" transform="translate(9.516919 98.66927)" id="Stroke-133" fill="none" stroke="#1D39C4" stroke-width="0.8148266" stroke-linecap="round" stroke-linejoin="round" />
    <path d="M11.7028 6.22013C11.7028 6.22013 4.98022 -0.241311 2.73454 0.00697651C-0.744895 0.390073 1.66119 7.12711 1.66119 7.12711C1.66119 7.12711 -1.29949 9.10658 0.684252 12.5271C-0.542681 15.8649 1.30796 17.4511 1.30796 17.4511C1.30796 17.4511 -0.615205 19.9937 2.15777 22.0295C4.93074 24.0653 11.1985 23.4262 10.2344 19.079C12.7326 16.6456 10.6422 14.2583 10.6422 14.2583C10.6422 14.2583 12.451 11.9461 10.3632 9.67483C12.1865 8.62366 12.3973 6.90101 11.7028 6.22013" transform="translate(36.70161 125.8989)" id="Fill-135" fill="#FFC999" stroke="none" />
    <path d="M6.69182 3.82755L0 0" transform="translate(40.37274 131.746)" id="Stroke-137" fill="none" stroke="#E2A688" stroke-width="0.610906661" stroke-linecap="round" stroke-linejoin="round" />
    <path d="M1.64355 0C1.64355 0 -1.27447 2.66461 0.665755 5.40004C-0.825677 8.859 1.29031 10.324 1.29031 10.324L1.28775 13.4237" transform="translate(36.7196 133.026)" id="Stroke-139" fill="none" stroke="#E2A688" stroke-width="0.610906661" stroke-linecap="round" stroke-linejoin="round" />
    <path d="M0 0L6.44097 1.76532" transform="translate(40.90285 138.3915)" id="Stroke-141" fill="none" stroke="#E2A688" stroke-width="0.610906661" stroke-linecap="round" stroke-linejoin="round" />
    <path d="M0 0L6.20377 1.08018" transform="translate(40.73203 143.8974)" id="Stroke-143" fill="none" stroke="#E2A688" stroke-width="0.610906661" stroke-linecap="round" stroke-linejoin="round" />
    <path d="M2.29355 1.36351C2.30208 2.12373 1.79526 2.74487 1.16217 2.7517C0.529083 2.75852 0.00861834 2.14762 8.61206e-05 1.38825C-0.00759287 0.628028 0.499221 0.0068825 1.13316 5.67247e-05C1.76625 -0.00676905 2.28587 0.603285 2.29355 1.36351" transform="translate(63.55605 67.9587)" id="Fill-145" fill="#FFFFFF" stroke="none" />
    <path d="M2.29353 1.36351C2.30206 2.12373 1.79525 2.74487 1.16216 2.7517C0.529065 2.75852 0.00860047 2.14762 6.8258e-05 1.38825C-0.00675751 0.628028 0.499203 0.0068825 1.13315 5.67247e-05C1.76624 -0.00676905 2.28585 0.603285 2.29353 1.36351" transform="translate(65.31081 81.92986)" id="Fill-147" fill="#FFFFFF" stroke="none" />
    <path d="M2.29355 1.36351C2.30123 2.12373 1.79441 2.74487 1.16132 2.7517C0.528231 2.75852 0.00776526 2.14762 8.62635e-05 1.38825C-0.00759273 0.628028 0.498368 0.0068825 1.13231 5.67247e-05C1.7654 -0.00676905 2.28501 0.603285 2.29355 1.36351" transform="translate(66.39063 97.0545)" id="Fill-149" fill="#FFFFFF" stroke="none" />
    <path d="M2.29355 1.36351C2.30123 2.12373 1.79441 2.74487 1.16132 2.7517C0.528231 2.75852 0.00776526 2.14762 8.62635e-05 1.38825C-0.00759273 0.628028 0.498368 0.0068825 1.13231 5.67247e-05C1.7654 -0.00676905 2.28501 0.603285 2.29355 1.36351" transform="translate(66.77227 111.2698)" id="Fill-151" fill="#FFFFFF" stroke="none" />
    <path d="M2.29355 1.36351C2.30208 2.12373 1.79441 2.74487 1.16132 2.7517C0.529085 2.75852 0.00861849 2.14762 8.62636e-05 1.38825C-0.00759274 0.628028 0.498368 0.0068825 1.13231 5.67247e-05C1.7654 -0.00676905 2.28502 0.603285 2.29355 1.36351" transform="translate(66.74394 130.076)" id="Fill-153" fill="#FFFFFF" stroke="none" />
    <path d="M0 0L10.6337 12.6755L18.4117 3.72517" transform="translate(46.98538 59.02775)" id="Stroke-155" fill="none" stroke="#1D39C4" stroke-width="0.8148266" stroke-linecap="round" stroke-linejoin="round" />
    <path d="M0 3.03832L8.35048 11.8171L12.428 0" transform="translate(65.70122 59.55811)" id="Stroke-157" fill="none" stroke="#1D39C4" stroke-width="0.8148266" stroke-linecap="round" stroke-linejoin="round" />
    <path d="M7.09966 0C7.09966 0 9.17213 22.2239 0 22.322" transform="translate(69.68431 148.0986)" id="Stroke-159" fill="none" stroke="#597EF7" stroke-width="0.610906661" stroke-linecap="round" stroke-linejoin="round" />
    <path d="M0 0C0 0 10.0987 6.4222 8.17642 27.2425" transform="translate(28.77695 69.71887)" id="Stroke-161" fill="none" stroke="#1D39C4" stroke-width="0.8148266" stroke-linecap="round" stroke-linejoin="round" />
    <path d="M0 0C0 0 9.73782 10.3026 21.6642 10.3274" transform="translate(5.449185 103.9015)" id="Stroke-163" fill="none" stroke="#1D39C4" stroke-width="0.8148266" stroke-linecap="round" stroke-linejoin="round" />
    <path d="M0 0C0 0 2.3694 0.973526 1.8677 3.07586C1.64843 3.99649 0.727799 3.66203 0.621999 4.58009C0.462446 5.98108 2.1322 6.39916 2.1322 6.39916" transform="translate(47.037 25.83376)" id="Stroke-165" fill="none" stroke="#DD936F" stroke-width="0.5" stroke-linecap="round" stroke-linejoin="round" />
  </g>
</svg>