<?xml version="1.0" encoding="utf-8"?>
<svg width="139px" height="332px" viewBox="0 0 139 332" version="1.1" xmlns:xlink="http://www.w3.org/1999/xlink" xmlns="http://www.w3.org/2000/svg">
  <desc>Created with Lunacy</desc>
  <defs>
    <path d="M0 0L54.44 0L54.44 13.101L0 13.101L0 0Z" transform="translate(0.006174288 0.506983)" id="path_1" />
    <path d="M0 0L77.059 0L77.059 36.7366L0 36.7366L0 0Z" transform="translate(0 0.02787913)" id="path_2" />
    <clipPath id="mask_1">
      <use xlink:href="#path_1" />
    </clipPath>
    <clipPath id="mask_2">
      <use xlink:href="#path_2" />
    </clipPath>
  </defs>
  <g id="1.人物组件/1.商人/站立/思考" transform="translate(0.8505859 0.8505249)">
    <g id="分组">
      <path d="M23.9937 19.0594C23.9937 19.0594 12.2857 31.304 1.8475 34.1158C-3.99968 35.6918 4.82595 42.7186 17.1905 41.1528C31.2272 39.3753 27.9774 36.498 39.8674 37.3349C46.8168 37.824 54.0657 35.6782 54.0657 35.6782L51.7591 23.0567C51.7591 23.0567 39.551 -26.0435 23.9937 19.0594" transform="translate(2.543288 283.3677)" id="Fill-1" fill="#CCD7EE" stroke="none" />
      <path d="M3.83342 2.79814C3.83342 2.79814 3.87849 4.5978 11.0975 7.19863C19.5064 10.229 31.9229 5.19996 39.2057 2.94953C50.423 -0.515403 51.5048 1.66273 53.5562 0C55.5804 2.95209 53.6906 5.98837 53.6906 5.98837C53.6906 5.98837 51.3151 7.36278 42.7166 7.57966C34.1197 7.79568 34.3026 10.1073 23.5973 11.742C8.51627 14.0443 0.826049 10.047 0.156706 6.95879C-0.685289 3.07371 2.05672 1.39227 3.83342 2.79814" transform="translate(2.196458 314.9305)" id="Fill-3" fill="#B0BEDC" stroke="none" />
      <path d="M30.3569 18.4758C30.3569 18.4758 41.8497 30.9228 52.2369 33.9166C58.0551 35.5938 49.1087 42.4658 36.7731 40.6849C22.7696 38.6624 26.0695 35.8421 14.1668 36.4715C7.20884 36.8397 0 34.5664 0 34.5664L2.52598 21.9875C2.52598 21.9875 14.5427 -25.0528 30.3569 18.4758" transform="translate(81.67487 285.7914)" id="Fill-5" fill="#CCD7EE" stroke="none" />
      <g id="分组" transform="translate(81.6075 315.7515)">
        <path d="M0 0L54.44 0L54.44 13.101L0 13.101L0 0Z" transform="translate(0.006174288 0.506983)" id="Clip-8" fill="none" stroke="none" />
        <g clip-path="url(#mask_1)">
          <path d="M50.6548 3.66566C50.6548 3.66566 50.5783 5.46361 43.315 7.93857C34.8551 10.8226 22.5279 5.57758 15.2851 3.20043C4.12991 -0.460971 3.01065 1.69845 0.989012 0C-1.08706 2.91636 0.750021 5.98497 0.750021 5.98497C0.750021 5.98497 3.1008 7.40105 11.6934 7.76762C20.286 8.13333 20.0623 10.4424 30.7378 12.2634C45.7763 14.8285 53.5346 10.9655 54.2584 7.89009C55.1684 4.02031 52.4562 2.29125 50.6548 3.66566" transform="translate(0.006174288 0.506983)" id="Fill-7" fill="#B0BEDC" stroke="none" />
        </g>
      </g>
      <path d="M2.89418 129.26C2.89418 129.26 -4.97635 6.15607 5.24071 1.20616C15.4586 -3.74545 44.8349 7.02358 46.6737 24.8101C48.5125 42.5974 38.8865 132.624 38.8865 132.624C38.8865 132.624 41.7425 143.414 37.1702 146.625C30.8569 149.302 24.4952 138.242 6.20432 140.864C-2.29217 136.764 2.89418 129.26 2.89418 129.26" transform="translate(18.82138 161.1342)" id="Fill-9" fill="#4E5C93" stroke="none" />
      <path d="M0 26.0078L15.2384 128.284C15.2384 128.284 10.4654 142.989 20.6969 145.226C23.8795 145.921 29.6408 141.949 36.4048 140.927C43.1697 139.904 50.9365 141.832 52.5167 139.035C55.6763 133.44 51.7546 125.115 51.7546 125.115C51.7546 125.115 53.2268 38.3775 48.5857 5.2148C46.6993 -8.26732 1.83963 6.43952 0 26.0078" transform="translate(63.22685 164.2861)" id="Fill-11" fill="#4E5C93" stroke="none" />
      <path d="M3.32483 0C3.32483 0 -0.922571 26.7678 0.18393 37.3438C1.29043 47.9206 30.0909 59.2969 46.3661 59.8063C55.1016 60.0802 86.8218 50.3241 89.8751 37.5326C93.7355 21.362 91.1432 16.3645 88.8894 9.38867C87.2649 4.35796 85.7638 2.10244 85.7638 2.10244C85.7638 2.10244 10.5056 0.225383 3.32483 0" transform="translate(20.01366 147.2016)" id="Fill-13" fill="#4E5C93" stroke="none" />
      <path d="M0 0C0 0 7.77782 11.7437 27.62 12.9455L40.6471 99.0161" transform="translate(37.81816 193.5539)" id="Stroke-15" fill="none" stroke="#3B4A7A" stroke-width="0.8505" stroke-linecap="round" stroke-linejoin="round" />
      <path d="M0.224346 0C0.224346 0 -1.59147 18.3742 5.10877 33.9179" transform="translate(55.25785 166.1938)" id="Stroke-17" fill="none" stroke="#3B4A7A" stroke-width="0.8505" stroke-linecap="round" stroke-linejoin="round" />
      <path d="M0 8.15204L15.1091 0" transform="translate(72.13218 195.9384)" id="Stroke-19" fill="none" stroke="#3B4A7A" stroke-width="0.8505" stroke-linecap="round" stroke-linejoin="round" />
      <path d="M0 0C0 0 31.4506 21.083 83.315 1.91532" transform="translate(23.98384 153.1373)" id="Stroke-21" fill="none" stroke="#3B4A7A" stroke-width="0.8505" stroke-linecap="round" stroke-linejoin="round" />
      <path d="M0.447362 13.8972L0.403136 0" transform="translate(54.86584 148.6812)" id="Stroke-23" fill="none" stroke="#3B4A7A" stroke-width="0.8505" stroke-linecap="round" stroke-linejoin="round" />
      <path d="M0 0L81.6352 2.21555" transform="translate(23.69025 147.2129)" id="Stroke-25" fill="none" stroke="#3B4A7A" stroke-width="0.8505" stroke-linecap="round" stroke-linejoin="round" />
      <path d="M12.7176 74.2823L12.7176 74.2823C22.3869 77.39 32.7392 72.0387 35.7942 62.3532L47.9444 23.8349C50.9765 14.2234 45.6753 3.96806 36.0808 0.884151L36.0808 0.884151C26.4115 -2.22443 16.0592 3.12692 13.0042 12.8133L0.853095 51.3316C-2.17809 60.9422 3.12308 71.1984 12.7176 74.2823" transform="translate(0.4091316 56.51694)" id="Fill-27" fill="#CCD7EE" stroke="none" />
      <path d="M10.5131 14.0638C10.5131 14.0638 12.8987 22.0449 8.27625 24.2962C4.21341 26.2744 0.332575 25.4852 0.0263945 19.9646C-0.279786 14.4448 2.10672 -0.574136 5.68222 0.0169615C9.25687 0.608059 10.5131 14.0638 10.5131 14.0638" transform="translate(79.03481 18.35154)" id="Fill-29" fill="#51342D" stroke="none" />
      <path d="M19.4901 45.8771C19.4901 45.8771 10.3762 46.6307 4.78072 42.8187C-1.93568 38.243 0.294336 23.7803 0.59031 19.0515C1.10996 10.7566 4.88108 6.45901 4.88108 6.45901C4.88108 6.45901 8.733 -0.433441 23.2638 0.0215769C37.7946 0.476594 37.8915 13.9859 37.6968 20.2133C37.5012 26.4407 35.5527 38.2167 31.5808 41.321C26.7883 45.0666 19.4901 45.8771 19.4901 45.8771" transform="translate(49.55236 1.915267)" id="Fill-31" fill="#B69882" stroke="none" />
      <path d="M4.14545 15.8014C4.14545 15.8014 -1.88714 9.37844 0.602269 4.52208C3.09253 -0.335123 7.77879 -0.708493 12.9286 0.751816C18.0775 2.21212 38.5337 -2.93 40.4899 8.10864C49.0119 17.9855 42.3338 26.1784 42.3338 26.1784C42.3338 26.1784 38.8101 22.0526 37.4068 25.3857C36.0043 28.718 34.9165 30.9786 33.9113 29.9078C32.906 28.8379 33.9708 24.8601 32.212 22.9864C30.4523 21.1136 28.3753 15.4391 29.9887 11.6756C30.5807 9.35632 11.1272 8.48796 6.91893 10.1737C4.54604 11.1245 4.14545 15.8014 4.14545 15.8014" transform="translate(46.93813 0.0001110706)" id="Fill-33" fill="#51342D" stroke="none" />
      <path d="M0 1.10451C0 1.10451 1.00954 -0.647523 5.13702 0.261662" transform="translate(52.26714 18.37058)" id="Stroke-35" fill="none" stroke="#51342D" stroke-width="1.701" stroke-linecap="round" stroke-linejoin="round" />
      <path d="M0 0.167994C0 0.167994 3.13835 -0.512407 5.6924 0.865404" transform="translate(66.04413 18.95907)" id="Stroke-37" fill="none" stroke="#51342D" stroke-width="1.701" stroke-linecap="round" stroke-linejoin="round" />
      <path d="M2.73252 0C2.73252 0 -4.23052 7.92751 4.07376 8.18776" transform="translate(57.41875 22.71099)" id="Stroke-39" fill="none" stroke="#7C5B4D" stroke-width="0.637875" stroke-linecap="round" stroke-linejoin="round" />
      <path d="M2.85526 1.73222C2.82634 2.66352 2.1638 3.39835 1.37539 3.37369C0.586975 3.34902 -0.0279375 2.57422 0.000979481 1.64292C0.0298965 0.71077 0.693287 -0.0240613 1.48085 0.00060316C2.26926 0.0252677 2.88418 0.800073 2.85526 1.73222" transform="translate(66.73206 24.51906)" id="Fill-41" fill="#51342D" stroke="none" />
      <path d="M2.85531 1.73218C2.82555 2.66348 2.16386 3.39831 1.37544 3.3745C0.58703 3.34898 -0.0287321 2.57418 0.00103538 1.64288C0.0299524 0.711581 0.692492 -0.0232512 1.48091 0.000562836C2.26932 0.0252273 2.88423 0.800883 2.85531 1.73218" transform="translate(53.23907 24.09631)" id="Fill-43" fill="#51342D" stroke="none" />
      <path d="M0.155651 0.415894L0.000860006 15.4706C-0.0867415 24.0538 6.52845 31.2202 15.0913 31.8172C24.5157 32.4738 32.5044 24.9707 32.4389 15.5242L32.3309 0L0.155651 0.415894Z" transform="translate(53.55495 32.47532)" id="Fill-45" fill="#B69882" stroke="none" />
      <path d="M0.172267 3.83029C0.172267 3.83029 0.606022 0.170589 5.72178 0.0115459C10.141 -0.126235 12.9187 0.95305 14.379 4.11521C15.8376 7.27822 6.40048 3.86601 6.40048 3.86601C6.40048 3.86601 -1.23106 7.16255 0.172267 3.83029" transform="translate(53.54582 30.4987)" id="Fill-47" fill="#51342D" stroke="none" />
      <path d="M9.08757 7.218C8.44034 10.7178 5.91605 13.186 3.44875 12.7301C0.981452 12.2742 -0.495015 9.06698 0.152215 5.56718C0.798595 2.06652 3.32373 -0.401632 5.79103 0.0542356C8.25833 0.510104 9.73395 3.71734 9.08757 7.218" transform="translate(82.28054 22.71433)" id="Fill-49" fill="#B69882" stroke="none" />
      <path d="M0 4.51786C0 4.51786 11.156 13.5663 26.755 0" transform="translate(54.81404 40.46603)" id="Stroke-51" fill="none" stroke="#7C5B4D" stroke-width="0.637875" stroke-linecap="round" stroke-linejoin="round" />
      <path d="M0.0300985 0C0.0300985 0 -0.398553 3.50066 1.97944 4.05433" transform="translate(61.34623 43.03411)" id="Stroke-53" fill="none" stroke="#7C5B4D" stroke-width="0.637875" stroke-linecap="round" stroke-linejoin="round" />
      <path d="M2.82196 0.000181702C2.82196 0.000181702 0.109715 -0.0848683 0 3.42515C2.69183 4.14892 2.02419 5.43403 0.86751 6.50141" transform="translate(85.0187 25.97409)" id="Stroke-55" fill="none" stroke="#7C5B4D" stroke-width="0.637875" stroke-linecap="round" stroke-linejoin="round" />
      <path d="M5.84082 61.0995C5.84082 61.0995 -12.8413 98.5291 16.6184 106.817C30.7826 110.802 42.386 112.043 52.8658 111.439C75.7757 110.117 87.323 106.091 90.1858 102.969C97.876 94.5854 93.7502 81.3439 95.4954 61.2713C97.085 42.9694 105.727 21.4509 95.6774 11.3486C88.1088 6.78145 80.9901 3.09113 70.8131 0.230899C63.042 -1.95319 57.7128 12.0801 50.0821 11.9321C43.7476 11.8096 38.3605 -0.879004 32.6409 0.650195C21.5019 3.62695 16.9535 5.55418 7.70852 10.0559C7.70852 10.0559 4.05307 24.1112 8.22307 44.4824C8.22307 44.4824 5.22591 52.9976 5.84082 61.0995" transform="translate(17.24804 47.9626)" id="Fill-57" fill="#CCD7EE" stroke="none" />
      <path d="M0 3.57465C0 3.57465 1.41183 33.9656 6.95284 48.2744C24.5072 18.1573 35.8596 0.05103 36.3368 0L14.7264 9.14628L0 3.57465Z" transform="translate(52.07901 49.31165)" id="Fill-59" fill="#FFFFFF" stroke="none" />
      <path d="M0 5.27225L7.59241 0L15.5276 6.71725L10.9145 12.8442L1.2783 12.5959L0 5.27225Z" transform="translate(57.67326 56.95586)" id="Fill-61" fill="#253368" stroke="none" />
      <path d="M0 9.10971L5.45851 0L15.0326 0.300227L17.1861 7.73105L4.80532 29.0658L0 9.10971Z" transform="translate(53.66536 69.46101)" id="Fill-63" fill="#253368" stroke="none" />
      <path d="M1.445 17.0687L14.4602 9.48988L2.13901 0L0 2.00973L1.445 17.0687Z" transform="translate(51.58538 47.74579)" id="Fill-65" fill="#FFFFFF" stroke="none" />
      <path d="M0 10.8634L10.9102 19.5105L22.6088 2.94613L20.3057 0L0 10.8634Z" transform="translate(66.04541 46.37249)" id="Fill-67" fill="#FFFFFF" stroke="none" />
      <path d="M1.42799 18.7978L14.4602 10.3582L2.48601 0L0 2.87724L1.42799 18.7978Z" transform="translate(51.11403 46.6239)" id="Fill-69" fill="#FFFFFF" stroke="none" />
      <path d="M1.42799 18.7978L14.4602 10.3582L2.48601 0L0 2.87724L1.42799 18.7978Z" transform="translate(51.11403 46.6239)" id="Stroke-71" fill="none" stroke="#CCD7EE" stroke-width="0.8505" stroke-linecap="round" stroke-linejoin="round" />
      <path d="M0 11.9113L11.5906 22.0807L24.2784 3.658L20.0191 0L0 11.9113Z" transform="translate(65.5744 45.07055)" id="Fill-73" fill="#FFFFFF" stroke="none" />
      <path d="M0 11.9113L11.5906 22.0807L24.2784 3.658L20.0191 0L0 11.9113Z" transform="translate(65.5744 45.07055)" id="Stroke-75" fill="none" stroke="#CCD7EE" stroke-width="0.8505" />
      <path d="M6.45824 0L6.20734 18.2007C6.20734 18.2007 -6.32308 45.1207 4.22228 60.3047" transform="translate(51.71375 97.87852)" id="Stroke-77" fill="none" stroke="#96A7CA" stroke-width="0.8505" stroke-linecap="round" stroke-linejoin="round" />
      <path d="M8.96104 0C8.40737 2.37885 9.97484 10.0946 9.97484 10.0946L6.88838 40.1785C6.88838 40.1785 -12.1807 70.1611 13.1361 82.5504C13.1361 82.5504 52.6206 97.6799 89.5714 80.6291C89.5714 80.6291 98.75 70.6145 92.9241 57.7336" transform="translate(16.88284 70.99098)" id="Stroke-79" fill="none" stroke="#96A7CA" stroke-width="0.8505" stroke-linecap="round" stroke-linejoin="round" />
      <path d="M0 0.102911C0 0.102911 1.37356 33.3056 7.55584 50.1098C7.55584 50.1098 29.2164 12.3858 39.1876 0" transform="translate(50.90498 48.73603)" id="Stroke-81" fill="none" stroke="#96A7CA" stroke-width="0.8505" stroke-linecap="round" stroke-linejoin="round" />
      <path d="M0 1.16174C0 1.16174 11.0505 -2.02253 29.6076 2.15257" transform="translate(44.66954 116.419)" id="Stroke-83" fill="none" stroke="#96A7CA" stroke-width="0.8505" stroke-linecap="round" stroke-linejoin="round" />
      <path d="M0 0C0 0 14.3411 1.08779 17.5424 0.868363" transform="translate(50.6039 111.697)" id="Stroke-85" fill="none" stroke="#96A7CA" stroke-width="0.8505" stroke-linecap="round" stroke-linejoin="round" />
      <path d="M24.6779 76.7638L24.6779 76.7638C34.7946 75.7151 42.12 66.6275 40.9965 56.5194L36.5271 16.2967C35.4155 6.29478 26.4427 -0.937874 16.4323 0.0988852L16.4315 0.0988852C6.31562 1.14755 -1.00974 10.2351 0.113773 20.3433L4.58315 60.566C5.69475 70.5679 14.6675 77.8014 24.6779 76.7638" transform="translate(85.99416 57.37102)" id="Fill-87" fill="#CCD7EE" stroke="none" />
      <path d="M9.32079 25.3286C9.32079 25.3286 19.4911 36.5909 26.364 34.5871C32.5879 32.7722 30.7585 24.5385 30.7585 24.5385C30.7585 24.5385 32.2834 17.726 26.8096 12.9147C20.5916 7.44938 21.0441 -0.629519 18.5878 0.0389743C15.3857 0.910737 18.2783 9.93199 17.9142 11.3583C16.7099 16.076 3.65221 1.83778 3.1232 1.67108C1.85851 1.2722 1.48939 2.85753 1.16195 3.08717C0.461134 3.57961 -0.0100434 4.33995 0.000162587 5.76624C0.00611609 6.55976 0.788576 7.36178 0.757958 8.34496C0.755407 8.42491 0.0928671 11.9919 2.16128 14.5383C4.55119 17.4802 1.06924 17.5389 9.32079 25.3286" transform="translate(51.16311 40.37585)" id="Fill-89" fill="#B69882" stroke="none" />
      <path d="M9.74928 10.5198C9.74928 10.5198 3.35182 6.30816 0 0" transform="translate(52.68686 44.04382)" id="Stroke-91" fill="none" stroke="#7C5B4D" stroke-width="0.637875" stroke-linecap="round" stroke-linejoin="round" />
      <path d="M8.87727 13.6599C8.87727 13.6599 5.75849 11.4562 1.56467 5.77064C1.56467 5.77064 -1.17394 0.910035 0.5951 0" transform="translate(51.64235 48.81071)" id="Stroke-93" fill="none" stroke="#7C5B4D" stroke-width="0.637875" stroke-linecap="round" stroke-linejoin="round" />
      <path d="M9.65219 18.3722C2.75208 12.7742 1.04258 8.85172 1.04258 8.85172C1.04258 8.85172 -1.50977 3.66112 1.37257 3.43148C2.11081 0.260819 4.17497 2.83528 4.17497 2.83528C4.17497 2.83528 12.1935 11.3666 15.9272 11.9518C19.8072 12.559 17.1715 9.83405 17.0583 4.70978C16.9257 -1.34407 20.0623 -1.73275 21.4631 4.53968C22.7703 10.3971 26.4836 12.5242 28.6379 15.1471C30.7914 17.7701 31.1001 23.2099 31.1001 23.2099" transform="translate(51.18969 40.11829)" id="Stroke-95" fill="none" stroke="#7C5B4D" stroke-width="0.637875" stroke-linecap="round" stroke-linejoin="round" />
      <path d="M16.4786 1.51882L3.27634 11.1125C-0.165636 13.6138 -1.02719 18.3808 1.32104 21.9291L29.3476 64.2704C35.2951 72.4548 46.7513 74.2689 54.9357 68.3205C63.1209 62.3729 64.9342 50.9167 58.9858 42.7323L27.3693 2.99954C24.7208 -0.329321 19.9198 -0.982505 16.4786 1.51882" transform="translate(63.23455 63.41771)" id="Fill-97" fill="#CCD7EE" stroke="none" />
      <path d="M58.7661 43.0593L27.4958 3.05345C24.8754 -0.298369 20.0811 -0.992377 16.6179 1.47833L3.33223 10.9571C-0.131005 13.4279 -1.03424 18.1881 1.28338 21.7559L28.9408 64.3396C28.9408 64.3396 37.1685 74.0889 47.1951 70.6435" transform="translate(63.49445 63.45463)" id="Stroke-99" fill="none" stroke="#96A7CA" stroke-width="0.8505" stroke-linecap="round" stroke-linejoin="round" />
      <path d="M18.4318 24.4322C18.4318 24.4322 2.47814 21.947 0.311068 14.6761C-1.65189 8.09154 6.3173 1.08171 6.3173 1.08171C6.3173 1.08171 12.9648 0.447242 20.7231 0.095135C25.8074 -0.13535 35.4809 -0.143855 36.2983 2.42721C37.3639 5.77903 27.2353 6.09881 26.3389 8.49552C24.5214 13.3519 40.5099 14.5256 43.0002 16.1075C47.8676 19.1991 37.546 27.5586 18.4318 24.4322" transform="translate(69.40765 111.2358)" id="Fill-101" fill="#B69882" stroke="none" />
      <path d="M0 0C0 0 7.46144 3.23444 15.0453 2.54299" transform="translate(96.69453 127.4541)" id="Stroke-103" fill="none" stroke="#7C5B4D" stroke-width="0.637875" stroke-linecap="round" stroke-linejoin="round" />
      <path d="M15.2095 2.0293C15.2095 2.0293 8.99233 2.8747 0 0" transform="translate(94.09634 131.1541)" id="Stroke-105" fill="none" stroke="#7C5B4D" stroke-width="0.637875" stroke-linecap="round" stroke-linejoin="round" />
      <path d="M0 0C0 0 3.77197 1.48837 11.2844 1.90681" transform="translate(90.71612 133.7557)" id="Stroke-107" fill="none" stroke="#7C5B4D" stroke-width="0.637875" stroke-linecap="round" stroke-linejoin="round" />
      <g id="分组" transform="translate(0 97.17303)">
        <path d="M0 0L77.059 0L77.059 36.7366L0 36.7366L0 0Z" transform="translate(0 0.02787913)" id="Clip-110" fill="none" stroke="none" />
        <g clip-path="url(#mask_2)">
          <path d="M76.1207 31.1378L77.0529 10.8584C77.1974 7.72009 74.845 5.02486 71.716 4.74419L19.161 0.0196638C9.05453 -0.444709 0.484037 7.37224 0.0196638 17.4787C-0.444709 27.5852 7.37224 36.1549 17.4787 36.6192L70.2455 36.7366C73.3872 36.7434 75.977 34.2753 76.1207 31.1378" transform="translate(-0.0001873655 0.02787913)" id="Fill-109" fill="#CCD7EE" stroke="none" />
        </g>
      </g>
      <path d="M0.709317 36.0399L53.4701 36.8938C56.611 36.9449 59.2348 34.5133 59.4227 31.3775L60.6381 11.1135C60.8261 7.97769 58.511 5.25014 55.3871 4.92525L0 0" transform="translate(16.66359 97.52964)" id="Stroke-111" fill="none" stroke="#96A7CA" stroke-width="0.8505" stroke-linecap="round" stroke-linejoin="round" />
    </g>
  </g>
</svg>