<?xml version="1.0" encoding="utf-8"?>
<svg width="261px" height="255px" viewBox="0 0 261 255" version="1.1" xmlns:xlink="http://www.w3.org/1999/xlink" xmlns="http://www.w3.org/2000/svg">
  <desc>Created with Lunacy</desc>
  <g id="编组" transform="matrix(0.9848077 -0.1736482 0.1736482 0.9848077 0 39.24448)">
    <path d="M58.8592 29.4296C58.8592 13.1761 45.6832 0 29.4296 0C13.1761 0 0 13.1761 0 29.4296C0 44.7825 11.7563 57.3896 26.7578 58.7396L26.6268 58.8592C26.6268 58.8592 27.1048 58.8245 27.9869 58.8245C28.4649 58.8475 28.9459 58.8592 29.4296 58.8592C29.4836 58.8592 29.5375 58.8591 29.5914 58.8588C41.6103 59.3504 86.7716 66.0996 101.602 138.74L101.717 138.615C105.461 150.565 116.621 159.235 129.806 159.235C146.059 159.235 159.235 146.059 159.235 129.806C159.235 113.766 146.404 100.723 130.446 100.383C112.762 97.164 60.8922 83.1594 58.8592 29.4296Z" transform="translate(0 58.824)" id="形状结合" fill="#597EF7" fill-rule="evenodd" stroke="none" />
    <path d="M83.1637 5.63461C77.9843 -0.84449 68.5432 -1.88987 62.0766 3.30022C58.9735 5.79082 57.1193 9.26469 56.6024 12.9206C53.974 21.7329 43.97 47.247 16.6504 45.2664L16.6504 45.2665C8.4153 44.3546 1.00201 50.3051 0.0920098 58.5563C-0.817639 66.8078 5.12027 74.2363 13.3557 75.1477C21.1345 76.009 28.18 70.7478 29.7039 63.2077L29.757 63.2807C29.757 63.2807 29.7661 63.0378 29.815 62.5929C29.8538 62.3501 29.8869 62.105 29.9141 61.8579C29.9174 61.8288 29.9205 61.7998 29.9235 61.7708C30.8201 55.8721 36.4493 34.4912 71.1206 30.0602C74.5228 30.138 77.97 29.0625 80.8339 26.7641C87.3005 21.574 88.3438 12.1141 83.1637 5.63461Z" transform="translate(138.4416 0.2736)" id="形状结合" fill="#597EF7" fill-rule="evenodd" stroke="none" />
    <path d="M16.7005 0.0923482C24.9603 1.00508 30.9164 8.44062 30.0036 16.7005C29.0913 24.96 21.6554 30.9164 13.3959 30.0037C5.1357 29.0913 -0.820382 21.6554 0.0923481 13.3955C1.00473 5.1357 8.44062 -0.820382 16.7005 0.0923482" transform="translate(195.0768 0)" id="Fill-9" fill="#597EF7" stroke="none" />
  </g>
</svg>
