<?xml version="1.0" encoding="utf-8"?>
<svg width="147px" height="147px" viewBox="0 0 147 147" version="1.1" xmlns:xlink="http://www.w3.org/1999/xlink" xmlns="http://www.w3.org/2000/svg">
  <desc>Created with Lunacy</desc>
  <g id="2.通用组件/彩色版/点立法" transform="matrix(0.8829476 0.4694716 -0.4694716 0.8829476 50.70288 0)" opacity="0.199102491">
    <g id="编组">
      <path d="M0.437708 16.104L0 14.8159L43.4114 0L43.6217 0.0649725L88.44 13.8934L88.0405 15.1939L43.4324 1.43025L0.437708 16.104Z" transform="translate(10.032 10.23)" id="Fill-1" fill="#597EF7" stroke="none" />
      <path d="M0 58.3703L46.332 72.6L46.332 14.0371L0 0L0 58.3703ZM44.9743 70.7628L1.35771 57.367L1.35771 1.82992L44.9743 15.0444L44.9743 70.7628Z" transform="translate(9.9 25.146)" id="Fill-2" fill="#597EF7" fill-rule="evenodd" stroke="none" />
      <path d="M0.174084 14.6518L0 73.788L43.6375 58.5392L43.824 0L0.174084 14.6518ZM1.36431 71.8728L1.5299 15.6291L42.4594 1.89056L42.2819 57.5744L1.36431 71.8728Z" transform="translate(54.78 24.09)" id="Fill-3" fill="#597EF7" fill-rule="evenodd" stroke="none" />
      <g id="编组" transform="translate(0 0.066)">
        <path d="M16.6278 8.31488C16.6278 12.9071 12.9056 16.6298 8.31392 16.6298C3.72226 16.6298 0 12.9071 0 8.31488C0 3.72269 3.72226 0 8.31392 0C12.9056 0 16.6278 3.72269 16.6278 8.31488" transform="translate(1.527047 16.29037)" id="Fill-4" fill="#597EF7" stroke="none" />
        <path d="M19.6819 9.8421C19.6819 15.2778 15.2761 19.6842 9.84097 19.6842C4.40587 19.6842 0 15.2778 0 9.8421C0 4.40638 4.40587 0 9.84097 0C15.2761 0 19.6819 4.40638 19.6819 9.8421" transform="translate(0 73.81573)" id="Fill-6" fill="#597EF7" stroke="none" />
        <path d="M19.6819 9.8421C19.6819 15.2778 15.2761 19.6842 9.84097 19.6842C4.40587 19.6842 0 15.2778 0 9.8421C0 4.40638 4.40587 0 9.84097 0C15.2761 0 19.6819 4.40638 19.6819 9.8421" transform="translate(45.47205 86.88197)" id="Fill-8" fill="#597EF7" stroke="none" />
        <path d="M19.6819 9.8421C19.6819 15.2778 15.2761 19.6842 9.84097 19.6842C4.40587 19.6842 0 15.2778 0 9.8421C0 4.40638 4.40587 0 9.84097 0C15.2761 0 19.6819 4.40638 19.6819 9.8421" transform="translate(43.09665 0)" id="Fill-10" fill="#597EF7" stroke="none" />
        <path d="M19.6819 9.8421C19.6819 15.2778 15.2761 19.6842 9.84097 19.6842C4.40587 19.6842 0 15.2778 0 9.8421C0 4.40638 4.40587 0 9.84097 0C15.2761 0 19.6819 4.40638 19.6819 9.8421" transform="translate(87.72034 71.10068)" id="Fill-12" fill="#597EF7" stroke="none" />
        <path d="M15.6098 7.8058C15.6098 12.1168 12.1154 15.6116 7.8049 15.6116C3.49439 15.6116 0 12.1168 0 7.8058C0 3.49479 3.49439 0 7.8049 0C12.1154 0 15.6098 3.49479 15.6098 7.8058" transform="translate(89.75641 16.12068)" id="Fill-14" fill="#597EF7" stroke="none" />
        <path d="M13.9131 6.95735C13.9131 10.7998 10.7986 13.9147 6.95655 13.9147C3.1145 13.9147 0 10.7998 0 6.95735C0 3.11485 3.1145 0 6.95655 0C10.7986 0 13.9131 3.11485 13.9131 6.95735" transform="translate(48.52615 32.58074)" id="Fill-16" fill="#597EF7" stroke="none" />
      </g>
    </g>
  </g>
</svg>
