<?xml version="1.0" encoding="utf-8"?>
<svg width="92px" height="298px" viewBox="0 0 92 298" version="1.1" xmlns:xlink="http://www.w3.org/1999/xlink" xmlns="http://www.w3.org/2000/svg">
  <desc>Created with Lunacy</desc>
  <defs>
    <path d="M0 0L34.2758 0L34.2758 40.2073L0 40.2073L0 0Z" transform="translate(0.1256912 0.008134498)" id="path_1" />
    <path d="M0 0L29.2296 0L29.2296 27.4089L0 27.4089L0 0Z" transform="translate(0.1467059 0.4325238)" id="path_2" />
    <path d="M0 0L35.0666 0L35.0666 32.2744L0 32.2744L0 0Z" transform="translate(0 0.4625859)" id="path_3" />
    <clipPath id="mask_1">
      <use xlink:href="#path_1" />
    </clipPath>
    <clipPath id="mask_2">
      <use xlink:href="#path_2" />
    </clipPath>
    <clipPath id="mask_3">
      <use xlink:href="#path_3" />
    </clipPath>
  </defs>
  <g id="1.人物组件/6.产品经理/站立/摸头" transform="matrix(-1 0 0 1 91 0.3831177)">
    <g id="分组" transform="translate(0.04655798 0.2579152)">
      <path d="M12.4503 4.20786C12.4503 4.20786 18.8299 9.40666 18.3264 13.7892C17.8701 17.7577 13.6778 17.7267 13.6778 17.7267C13.6778 17.7267 10.4025 17.2439 6.99149 15.5425C4.75642 14.4275 0.250473 13.0889 0.406977 11.5267C0.609993 9.491 5.03549 11.7852 5.89533 10.7329C7.63825 8.60042 0.98397 4.08793 0.224074 2.64412C-1.26052 -0.180047 4.83688 -2.10048 12.4503 4.20786" transform="translate(39.63647 6.347882)" id="Fill-1" fill="#BC877A" stroke="none" />
      <path d="M5.97735 5.00923C5.97735 5.00923 3.40288 1.4794 0 0" transform="translate(40.67236 7.746818)" id="Stroke-3" fill="none" stroke="#965C56" stroke-width="0.623295" stroke-linecap="round" stroke-linejoin="round" />
      <path d="M0 0C0 0 2.84411 1.06467 6.14894 4.77633" transform="translate(42.35123 6.649956)" id="Stroke-5" fill="none" stroke="#965C56" stroke-width="0.623295" stroke-linecap="round" stroke-linejoin="round" />
      <path d="M4.4827 3.75653C4.4827 3.75653 3.15272 2.04965 0 0" transform="translate(45.98729 7.11312)" id="Stroke-7" fill="none" stroke="#965C56" stroke-width="0.623295" stroke-linecap="round" stroke-linejoin="round" />
      <g id="分组" transform="translate(54.05382 18.91111)">
        <path d="M0 0L34.2758 0L34.2758 40.2073L0 40.2073L0 0Z" transform="translate(0.1256912 0.008134498)" id="Clip-10" fill="none" stroke="none" />
        <g clip-path="url(#mask_1)">
          <path d="M20.238 36.8908C20.238 36.8908 27.1047 44.1114 32.1933 37.2444C37.4415 30.1631 31.1153 22.8612 31.1153 22.8612C31.1153 22.8612 26.5604 17.8582 20.9689 11.662C17.5547 7.8792 13.7176 3.79537 10.5862 1.3217C7.19527 -1.35701 5.41275 0.328213 2.86845 3.7621C-0.152907 7.83896 -1.06554 9.90331 1.48505 13.7094C3.91621 17.3382 7.67987 21.6642 10.4724 25.1786C15.7974 31.88 20.238 36.8908 20.238 36.8908" transform="translate(0.1256912 0.008134498)" id="Fill-9" fill="#ADC6FF" stroke="none" />
        </g>
      </g>
      <path d="M5.8837 0L0 7.9394L3.93399 13.4059L10.6649 4.32214L5.8837 0Z" transform="translate(51.85923 16.35574)" id="Fill-11" fill="#ADC6FF" stroke="none" />
      <path d="M13.6813 11.463L12.4041 0L0 1.36721L0.534253 12.9842C0.722813 17.482 3.88685 20.9035 7.53422 20.5538C7.60399 20.5468 7.67313 20.5398 7.74353 20.5337C11.4732 20.1777 14.1904 16.0266 13.6813 11.463" transform="translate(31.08836 32.51333)" id="Fill-13" fill="#CE998A" stroke="none" />
      <path d="M0.258392 2.38131C0.258392 2.38131 3.10502 -2.4043 5.24706 1.59286C7.28287 5.38963 4.07798 11.2275 0.949149 10.4677C-0.653609 6.87755 0.258392 2.38131 0.258392 2.38131" transform="translate(47.51029 18.05323)" id="Fill-15" fill="#CE998A" stroke="none" />
      <path d="M5.33449 1.73111C5.33449 1.73111 1.84613 -2.36123 0.310625 2.03828C-1.1482 6.21806 2.84236 11.2683 5.81343 9.83996C6.87628 5.95885 5.33449 1.73111 5.33449 1.73111" transform="translate(20.35516 21.12031)" id="Fill-17" fill="#CE998A" stroke="none" />
      <path d="M25.0567 15.8431C26.0523 29.632 20.7519 33.8861 13.8883 34.6374C7.02538 35.3887 1.67846 32.4461 0.202033 18.5636C-1.15623 5.7929 4.52948 0.832418 11.3924 0.0811113C18.256 -0.670196 24.1818 3.73706 25.0567 15.8431" transform="translate(24.07951 5.390508)" id="Fill-19" fill="#CE998A" stroke="none" />
      <path d="M0.00366019 5.27443C0.0985686 8.06765 2.01497 10.238 4.2846 10.1212C6.5536 10.0043 8.31663 7.64441 8.2211 4.85119C8.12619 2.05797 6.20979 -0.111614 3.94079 0.00444768C1.67116 0.122057 -0.0912483 2.48121 0.00366019 5.27443" transform="translate(37.95036 18.7848)" id="Fill-21" fill="#FFFFFF" stroke="none" />
      <path d="M0.00366019 5.27443C0.0985686 8.06765 2.01497 10.238 4.2846 10.1212C6.5536 10.0043 8.31663 7.64441 8.2211 4.85119C8.12619 2.05797 6.20979 -0.111614 3.94079 0.00444768C1.67116 0.122057 -0.0912483 2.48121 0.00366019 5.27443Z" transform="translate(37.95036 18.7848)" id="Stroke-23" fill="none" stroke="#7D4556" stroke-width="0.7662373" />
      <path d="M0.000514139 1.94092C0.000514139 1.94092 -0.0635962 0.069228 1.23998 0.00191214C2.54356 -0.0654037 2.71075 1.66701 2.71075 1.66701" transform="translate(40.77693 22.21542)" id="Stroke-25" fill="none" stroke="#7D4556" stroke-width="0.7662373" stroke-linecap="round" stroke-linejoin="round" />
      <path d="M0 1.5148C0 1.5148 1.32935 -1.40144 5.99306 0.858667" transform="translate(27.85268 17.76825)" id="Stroke-27" fill="none" stroke="#7D4556" stroke-width="0.7662373" stroke-linecap="round" stroke-linejoin="round" />
      <path d="M0 1.49337C0 1.49337 3.36391 -0.95554 5.52166 0.418633" transform="translate(38.852 16.74235)" id="Stroke-29" fill="none" stroke="#7D4556" stroke-width="0.7662373" stroke-linecap="round" stroke-linejoin="round" />
      <path d="M2.46888 9.17121C-0.527339 9.0977 1.13827 7.04882 1.06725 4.11168C1.01571 1.99781 0 0 0 0" transform="translate(34.90079 20.11537)" id="Stroke-31" fill="none" stroke="#965C56" stroke-width="0.623295" stroke-linecap="round" stroke-linejoin="round" />
      <path d="M0 0.677028C0 0.677028 3.08987 1.35947 6.18979 0" transform="translate(33.9084 30.28927)" id="Stroke-33" fill="none" stroke="#7D4556" stroke-width="0.6548753" stroke-linecap="round" stroke-linejoin="round" />
      <path d="M0.0211167 5.57156C0.249274 8.35318 2.26624 10.3804 4.52581 10.0995C6.78539 9.81865 8.43214 7.3357 8.20398 4.55409C7.97583 1.7717 5.95886 -0.255513 3.69929 0.0261308C1.43971 0.307 -0.207041 2.78995 0.0211167 5.57156" transform="translate(27.44853 19.56441)" id="Fill-35" fill="#FFFFFF" stroke="none" />
      <path d="M0.0211167 5.57156C0.249274 8.35318 2.26624 10.3804 4.52581 10.0995C6.78539 9.81865 8.43214 7.3357 8.20398 4.55409C7.97583 1.7717 5.95886 -0.255513 3.69929 0.0261308C1.43971 0.307 -0.207041 2.78995 0.0211167 5.57156Z" transform="translate(27.44853 19.56441)" id="Stroke-37" fill="none" stroke="#7D4556" stroke-width="0.7662373" />
      <path d="M0.00554787 2.03641C0.00554787 2.03641 -0.147186 0.171681 1.15011 0.0107415C2.44866 -0.150971 2.69881 1.56674 2.69881 1.56674" transform="translate(30.28697 22.99186)" id="Stroke-39" fill="none" stroke="#7D4556" stroke-width="0.7662373" stroke-linecap="round" stroke-linejoin="round" />
      <g id="分组" transform="translate(35.19783 21.94878)">
        <path d="M0 0.662262C0 0.662262 1.06285 -0.24582 2.14958 0.408766" transform="translate(0.3433046 0.01448335)" id="Fill-41" fill="#FFFFFF" stroke="none" />
        <path d="M0 0.662262C0 0.662262 1.06285 -0.24582 2.14958 0.408766" transform="translate(0.3433046 0.01448335)" id="Stroke-43" fill="none" stroke="#7D4556" stroke-width="0.7662373" />
      </g>
      <path d="M0 1.47863C2.22186 2.15565 7.06471 3.0385 11.8466 0" transform="translate(32.22538 38.04383)" id="Stroke-44" fill="none" stroke="#965C56" stroke-width="0.623295" stroke-linecap="round" stroke-linejoin="round" />
      <path d="M0 0.488234L1.85103 0.285512" transform="translate(36.43359 33.05619)" id="Stroke-46" fill="none" stroke="#965C56" stroke-width="0.623295" stroke-linecap="round" stroke-linejoin="round" />
      <path d="M0.27624 0L0.352292 3.15765" transform="translate(36.71958 36.61178)" id="Stroke-48" fill="none" stroke="#965C56" stroke-width="0.623295" stroke-linecap="round" stroke-linejoin="round" />
      <path d="M0.152419 0L0.476113 2.38546" transform="translate(37.92554 37.44371)" id="Stroke-50" fill="none" stroke="#965C56" stroke-width="0.623295" stroke-linecap="round" stroke-linejoin="round" />
      <path d="M0.35135 0L0.277183 1.42988" transform="translate(35.81034 38.38598)" id="Stroke-52" fill="none" stroke="#965C56" stroke-width="0.623295" stroke-linecap="round" stroke-linejoin="round" />
      <path d="M0.117536 0L0.510997 1.62022" transform="translate(38.94685 37.95268)" id="Stroke-54" fill="none" stroke="#965C56" stroke-width="0.623295" stroke-linecap="round" stroke-linejoin="round" />
      <path d="M0 0.910913C0 0.910913 0.571965 -1.0103 1.67504 0.727535C2.41734 2.39573 1.08171 2.9064 1.9252 4.19933C2.32494 4.81214 2.85417 4.75411 2.85417 4.75411" transform="translate(21.33039 24.0071)" id="Stroke-56" fill="none" stroke="#965C56" stroke-width="0.623295" stroke-linecap="round" stroke-linejoin="round" />
      <path d="M2.25832 0.733798C2.25832 0.733798 1.41986 -1.03344 0.583279 0.917176C0.0923944 2.72 1.47957 2.93201 0.834064 4.38897C0.528596 5.07838 0 5.13641 0 5.13641" transform="translate(49.66515 20.83567)" id="Stroke-58" fill="none" stroke="#965C56" stroke-width="0.623295" stroke-linecap="round" stroke-linejoin="round" />
      <g id="分组" transform="translate(21.37011 0.3412218)">
        <path d="M0 0L29.2296 0L29.2296 27.4089L0 27.4089L0 0Z" transform="translate(0.1467059 0.4325238)" id="Clip-61" fill="none" stroke="none" />
        <g clip-path="url(#mask_2)">
          <path d="M2.45781 25.4954C2.45781 25.4954 0.40062 23.2415 1.12092 20.1009C-0.785421 16.6639 0.0209866 13.0768 1.45467 11.6075C0.755113 8.47611 2.11023 2.6413 5.71172 1.66406C7.9317 2.47804 10.4955 2.30627 10.4955 2.30627C10.4955 2.30627 16.2931 -2.70219 20.8996 2.04242C25.2057 0.987803 27.8776 6.81952 27.6821 9.02779C30.293 12.3874 28.8103 18.0907 28.8103 18.0907C28.8103 18.0907 28.7016 20.2456 28.1183 23.2701C27.5149 26.3984 26.8801 22.5304 26.8179 21.6623C26.755 20.7941 24.9404 20.2641 25.2453 16.2933C23.1221 14.7759 23.3697 12.0516 23.3697 12.0516C23.3697 12.0516 22.0605 14.0177 17.7701 12.0083C15.0517 15.3686 10.3666 12.8191 10.3666 12.8191C10.3666 12.8191 6.90719 15.3485 4.67653 13.9883C4.67653 13.9883 5.42134 16.0944 3.9952 19.3124C4.79218 22.1412 3.15485 23.6694 3.7507 25.3538C4.34592 27.0383 3.17874 28.9154 2.45781 25.4954" transform="translate(0.1467059 0.4324069)" id="Fill-60" fill="#7D4556" stroke="none" />
        </g>
      </g>
      <path d="M17.961 68.4673C18.7988 48.2439 19.4977 27.3273 19.7454 10.6732C19.7454 10.6732 18.267 -1.47464 9.25452 0.149457C0.421746 1.74105 0 15.3752 0 15.3752L2.14267 69.173C2.14267 69.173 2.5707 77.9302 10.4739 77.4064C17.6825 76.9298 17.961 68.4673 17.961 68.4673" transform="translate(38.23704 127.2743)" id="Fill-62" fill="#597EF7" stroke="none" />
      <path d="M5.83817 0.120709L5.83817 0.120709C2.75396 -0.644526 -0.103351 2.32898 0.00287144 6.19925C0.124178 10.6529 0.264341 16.6704 0.343536 23.152C0.425245 29.8233 0.503812 35.3509 0.890988 36.0535C2.59683 39.1492 6.01039 40.3044 9.51634 43.3731C12.2907 45.8019 12.7684 46.9548 16.3064 47.7749C21.3214 48.9371 18.9852 46.3156 13.4227 38.025C8.46795 30.6388 8.80421 27.1778 8.80421 27.1778L9.74324 6.33621C9.87712 3.35806 8.21339 0.709529 5.83817 0.120709" transform="translate(43.0212 245.5761)" id="Fill-64" fill="#CE998A" stroke="none" />
      <path d="M12.6455 6.60779C16.2652 11.5698 20.4148 15.4935 20.3117 17.848C20.2093 20.2017 18.6995 22.3264 12.4632 19.5936C8.1955 17.7234 9.41799 16.5976 5.34573 13.3285C3.3118 11.6959 2.57013 11.8708 0.695217 9.97204C-0.378945 8.26825 0.111939 0 0.111939 0L7.24516 9.64165C7.24516 9.64165 5.39224 5.15237 6.91895 4.1821C8.44503 3.21105 9.85042 2.55104 10.7492 3.34955C11.6487 4.14728 12.6455 6.60779 12.6455 6.60779" transform="translate(43.29655 275.0331)" id="Fill-66" fill="#7D4556" stroke="none" />
      <path d="M16.0188 10.0736C14.4035 45.0748 13.1696 80.1131 13.1696 80.1131L2.32557 80.3142L0 10.3475C0 10.3475 0.742926 -0.156839 8.65615 0.00177845C15.7963 0.144921 16.0188 10.0736 16.0188 10.0736" transform="translate(40.12949 187.4527)" id="Fill-68" fill="#597EF7" stroke="none" />
      <path d="M1.89314 68.4334C1.09428 48.2069 0.214958 28.5251 0 11.8695C0 11.8695 1.72344 -1.50936 10.7328 0.141038C19.5631 1.75894 19.9578 15.3947 19.9578 15.3947L17.7102 69.1854C17.7102 69.1854 17.2652 77.9419 9.36325 77.3949C2.15587 76.8958 1.89314 68.4334 1.89314 68.4334" transform="translate(19.48081 127.1665)" id="Fill-70" fill="#597EF7" stroke="none" />
      <path d="M13.3198 0.117814L13.3198 0.117814C16.4053 -0.638135 19.2569 2.34311 19.1438 6.21416C19.013 10.6671 18.8609 16.6837 18.7692 23.1646C18.6749 29.8358 18.585 35.3642 18.1966 36.0653C16.4845 39.1556 13.069 40.3007 9.5574 43.3594C6.77802 45.7796 6.2972 46.931 2.75793 47.7403C-2.25902 48.8878 0.082265 46.2733 5.66049 37.9988C10.6309 30.6281 10.3003 27.1664 10.3003 27.1664L9.40341 6.32171C9.27393 3.34279 10.9433 0.699671 13.3198 0.117814" transform="translate(15.29523 245.459)" id="Fill-72" fill="#CE998A" stroke="none" />
      <path d="M7.68994 6.57064C4.06142 11.5218 -0.0969566 15.4331 0.00172309 17.7876C0.0997742 20.1429 1.60511 22.2715 7.84707 19.5572C12.1186 17.6994 10.898 16.5697 14.9765 13.3131C17.0136 11.6866 17.7553 11.8631 19.6339 9.9697C20.7113 8.26901 20.2373 0 20.2373 0L13.084 9.61997C13.084 9.61997 14.9463 5.13689 13.4215 4.16197C11.8967 3.18628 10.4932 2.52241 9.59188 3.31782C8.69182 4.11323 7.68994 6.57064 7.68994 6.57064" transform="translate(13.77182 274.929)" id="Fill-74" fill="#7D4556" stroke="none" />
      <path d="M0 10.0515C1.54745 45.0573 2.71023 80.101 2.71023 80.101L13.5556 80.3323L16.0188 10.3726C16.0188 10.3726 15.296 -0.134108 7.38275 0.00129763C0.241985 0.122776 0 10.0515 0 10.0515" transform="translate(21.42002 187.3332)" id="Fill-76" fill="#597EF7" stroke="none" />
      <path d="M31.5334 3.59482L30.7389 0L15.2877 0.519183L14.6667 3.96467C14.6667 3.96467 2.19658 5.91142 0.343669 11.617C-1.56833 17.5037 5.02498 50.8738 7.14879 56.6838C5.26068 61.3317 6.629 65.7792 6.629 65.7792L38.0556 65.7792C38.0556 65.7792 41.835 64.5265 39.4755 59.5885C40.7332 49.0524 45.5716 13.2156 44.4308 7.59354C43.1738 1.40357 31.5334 3.59482 31.5334 3.59482" transform="translate(15.4337 45.56131)" id="Fill-78" fill="#ADC6FF" stroke="none" />
      <path d="M2.23094 27.3712C2.23094 27.3712 -0.488725 8.38276 0.0775833 0" transform="translate(17.37407 61.93082)" id="Stroke-80" fill="none" stroke="#965C56" stroke-width="0.623295" stroke-linecap="round" stroke-linejoin="round" />
      <path d="M0 0.584953C0 0.584953 8.95219 2.0868 15.0383 0" transform="translate(30.75411 49.8149)" id="Stroke-82" fill="none" stroke="#597EF7" stroke-width="0.623295" stroke-linecap="round" stroke-linejoin="round" />
      <path d="M38.8534 22.3961C37.8502 9.32441 36.2915 2.45587 35.1004 0C9.50907 0.90064 3.13386 0.486686 3.13386 0.486686C3.13386 0.486686 0.314895 7.3413 0 22.6862C0 22.6862 9.57318 37.0175 19.741 37.0175C28.9075 37.0175 38.8534 22.3961 38.8534 22.3961" transform="translate(19.26396 116.8836)" id="Fill-84" fill="#597EF7" stroke="none" />
      <path d="M31.9665 6.23948L31.4826 0.311046L0.14582 0L0 5.93772C0 5.93772 16.5845 7.49759 31.9665 6.23948" transform="translate(22.39802 111.4177)" id="Fill-86" fill="#597EF7" stroke="none" />
      <path d="M0.0722812 0C0.0722812 0 0.343179 25.3603 0.556251 36.3065" transform="translate(37.89462 117.2075)" id="Stroke-88" fill="none" stroke="#1D39C4" stroke-width="0.637423038" stroke-linecap="round" stroke-linejoin="round" />
      <path d="M4.69703 0C4.69703 0 4.95535 15.3225 4.81582 22.5052C4.39533 27.29 0 26.4335 0 26.4335" transform="translate(37.74264 117.495)" id="Stroke-90" fill="none" stroke="#1D39C4" stroke-width="0.637423038" stroke-linecap="round" stroke-linejoin="round" />
      <path d="M0 0C0 0 0.117536 9.15031 4.0113 10.6026" transform="translate(51.5681 118.316)" id="Stroke-92" fill="none" stroke="#1D39C4" stroke-width="0.637423038" stroke-linecap="round" stroke-linejoin="round" />
      <path d="M3.12947 0C3.12947 0 3.18603 9.47993 0 10.4966" transform="translate(22.07281 119.0021)" id="Stroke-94" fill="none" stroke="#1D39C4" stroke-width="0.637423038" stroke-linecap="round" stroke-linejoin="round" />
      <path d="M0 0.386871L31.4266 0.386871" transform="translate(22.37696 111.3406)" id="Stroke-96" fill="none" stroke="#1D39C4" stroke-width="0.637423038" stroke-linecap="round" stroke-linejoin="round" />
      <path d="M0 0.386871L32.0552 0.386871" transform="translate(22.37696 116.7568)" id="Stroke-98" fill="none" stroke="#1D39C4" stroke-width="0.637423038" stroke-linecap="round" stroke-linejoin="round" />
      <path d="M8.41635 7.91306C8.41635 7.91306 10.9437 -2.4621 18.625 0.547773C26.4578 3.61722 23.5671 13.9924 23.5671 13.9924C23.5671 13.9924 21.8946 21.2625 19.6401 29.9811C17.8789 36.7939 16.5483 42.0298 15.0832 46.2576C13.5037 50.8188 9.56656 53.4689 5.96884 52.0591C0.501233 49.9166 -0.700522 44.9499 0.340328 40.1852C1.35289 35.552 2.8752 29.352 4.08261 24.2762C6.40567 14.5162 8.41635 7.91306 8.41635 7.91306" transform="translate(4.262543 52.78271)" id="Fill-100" fill="#ADC6FF" stroke="none" />
      <path d="M32.5149 32.2725L1.42579 30.5354C0.601788 30.4898 -0.0355438 29.6302 0.00153959 28.6158L0.992107 1.75598C1.02919 0.741594 1.72749 -0.0437575 2.5515 0.00189354L33.64 1.73895C34.4646 1.78538 35.102 2.64423 35.0649 3.65939L34.0743 30.5192C34.0372 31.5336 33.3389 32.3189 32.5149 32.2725" transform="translate(1.058355 150.1956)" id="Fill-102" fill="#4E5C93" stroke="none" />
      <g id="分组" transform="translate(0 149.6741)">
        <path d="M0 0L35.0666 0L35.0666 32.2744L0 32.2744L0 0Z" transform="translate(0 0.4625859)" id="Clip-105" fill="none" stroke="none" />
        <g clip-path="url(#mask_3)">
          <path d="M32.5149 32.2725L1.42642 30.5354C0.602415 30.489 -0.0355453 29.6294 0.00153817 28.615L0.992106 1.7552C1.02919 0.741594 1.72812 -0.0437574 2.5515 0.00189355L33.6406 1.73895C34.4652 1.78538 35.1026 2.64423 35.0655 3.65939L34.0743 30.5192C34.0372 31.5336 33.3395 32.3182 32.5149 32.2725" transform="translate(-0.0004068077 0.4625859)" id="Fill-104" fill="#253368" stroke="none" />
        </g>
      </g>
      <path d="M12.7559 13.8687C10.8294 13.6953 9.30524 13.8687 8.48438 13.823C6.36622 13.7062 6.95138 22.4549 6.5265 23.8337C5.87974 25.9321 1.87347 24.7336 0.331677 16.8507C-0.107039 14.6099 0.0167822 11.2704 0.0142681 8.09575C0.0142681 8.09575 0.54475 0.470486 3.02243 0.0348676C5.17138 -0.343494 6.98407 2.48222 6.98407 2.48222C6.98407 2.48222 9.26501 6.40898 10.4328 9.97982L12.7559 13.8687Z" transform="translate(7.192866 137.2488)" id="Fill-106" fill="#CE998A" stroke="none" />
      <path d="M0.4276 0C0.4276 0 -0.0764833 3.66059 0.4188 7.63997" transform="translate(11.80076 153.3643)" id="Stroke-108" fill="none" stroke="#965C56" stroke-width="0.623295" stroke-linecap="round" stroke-linejoin="round" />
      <path d="M0.693959 7.86977C0.693959 7.86977 -0.530422 4.63319 0.273471 0" transform="translate(9.928056 152.5228)" id="Stroke-110" fill="none" stroke="#965C56" stroke-width="0.623295" stroke-linecap="round" stroke-linejoin="round" />
      <path d="M0.219037 0C0.219037 0 0.0128781 2.32588 0.457251 6.15359" transform="translate(8.170556 151.0049)" id="Stroke-112" fill="none" stroke="#965C56" stroke-width="0.623295" stroke-linecap="round" stroke-linejoin="round" />
      <path d="M15.7504 11.1063C15.7504 11.1063 15.4512 -0.00386772 7.90129 1.01012e-06C0.114393 0.00464348 0 10.6792 0 10.6792C0 10.6792 0.0703957 18.1931 0.124449 27.454C0.156505 33.1086 0.294782 39.3511 0.922686 43.8652C1.60213 48.7537 3.81519 49.2381 7.59079 49.2357C12.0735 49.2334 13.927 48.6701 14.4902 43.7855C15.0282 39.1275 15.0854 32.7906 15.3104 27.8819C15.7391 18.5227 15.7504 11.1063 15.7504 11.1063" transform="translate(3.763151 89.10406)" id="Fill-114" fill="#ADC6FF" stroke="none" />
      <path d="M0.631047 7.26701L9.362 7.26237L9.98801 0L0 0.00541622L0.631047 7.26701Z" transform="translate(6.931145 135.8678)" id="Fill-116" fill="#ADC6FF" stroke="none" />
      <path d="M5.43832 13.026C5.43832 13.026 -2.65781 16.9226 0.906602 27.0455C4.54141 37.3672 12.5847 32.9855 12.5847 32.9855C12.5847 32.9855 18.2717 30.3865 25.0561 26.9364C30.3571 24.2414 34.4357 22.2011 37.6707 20.0323C41.1629 17.6909 42.7549 12.294 41.0856 7.55329C38.5488 0.347398 34.3244 -1.01207 30.5897 0.617435C26.9574 2.20207 22.1215 4.54651 18.1561 6.41511C10.532 10.0076 5.43832 13.026 5.43832 13.026" transform="translate(44.99917 39.17707)" id="Fill-118" fill="#ADC6FF" stroke="none" />
      <path d="M4.64486 0C4.64486 0 2.04902 32.5329 1.10559 35.7285C3.22877 40.9567 0 42.3061 0 42.3061" transform="translate(53.80335 69.42161)" id="Stroke-120" fill="none" stroke="#597EF7" stroke-width="0.623295" stroke-linecap="round" stroke-linejoin="round" />
      <path d="M0 0C0 0 0.707728 16.2665 4.48332 34.2754C3.06724 37.4709 4.74982 43.7584 4.74982 43.7584" transform="translate(17.62733 67.96929)" id="Stroke-122" fill="none" stroke="#597EF7" stroke-width="0.623295" stroke-linecap="round" stroke-linejoin="round" />
    </g>
  </g>
</svg>
