<?xml version="1.0" encoding="utf-8"?>
<svg width="127px" height="361px" viewBox="0 0 127 361" version="1.1" xmlns:xlink="http://www.w3.org/1999/xlink" xmlns="http://www.w3.org/2000/svg">
  <desc>Created with Lunacy</desc>
  <defs>
    <path d="M0 0L30.6634 0L30.6634 32.5747L0 32.5747L0 0Z" transform="translate(0.0002155932 0.2491712)" id="path_1" />
    <path d="M0 0L23.4477 0L23.4477 32.7269L0 32.7269L0 0Z" transform="translate(0.2031161 0.096934)" id="path_2" />
    <path d="M0 0L28.0152 0L28.0152 33.9254L0 33.9254L0 0Z" transform="translate(0.243834 0.02866707)" id="path_3" />
    <clipPath id="mask_1">
      <use xlink:href="#path_1" />
    </clipPath>
    <clipPath id="mask_2">
      <use xlink:href="#path_2" />
    </clipPath>
    <clipPath id="mask_3">
      <use xlink:href="#path_3" />
    </clipPath>
  </defs>
  <g id="1.人物组件/2.保安/站立/自信" transform="translate(0.6826172 0.6826172)">
    <g id="分组" transform="translate(0.2869148 0.1614643)">
      <path d="M14.474 43.4877C29.8734 37.1108 40.287 27.496 42.0371 19.7341C43.9782 11.1249 42.6843 -2.10647 28.3205 0.284209C21.7291 1.38186 14.0252 11.9819 9.12639 20.2123C4.85587 27.3859 1.16769 33.8428 1.16769 33.8428C1.16769 33.8428 -0.795495 38.3865 0.369192 40.9371C1.53388 43.4877 -0.0190371 45.64 3.216 50.5821C4.48479 52.5209 2.43954 53.531 6.45104 54.9659C8.53425 55.7112 13.3743 51.2995 14.474 43.4877" transform="translate(81.04951 120.6179)" id="Fill-1" fill="#FFC2BD" stroke="none" />
      <path d="M21.3858 79.9828C21.3858 79.9828 -2.09411 21.6265 0.151371 16.093C2.39747 10.5587 18.9744 -1.88353 44.0311 0.241605C69.1968 2.37579 77.9962 14.9704 77.9962 14.9704C77.9962 14.9704 71.5261 51.957 66.0995 75.9581C68.958 82.246 63.7622 86.7105 63.7622 86.7105C63.7622 86.7105 31.146 84.8525 23.3876 85.3556C19.7643 83.4425 21.3858 79.9828 21.3858 79.9828" transform="translate(18.56256 59.53975)" id="Fill-3" fill="#597EF7" stroke="none" />
      <path d="M56.4849 45.1557L28.6022 61.0357L0 47.1488C0 47.1488 3.49345 20.3654 9.9966 7.93072C11.0315 4.42277 11.4521 1.79295 11.4521 1.79295C11.4521 1.79295 37.0741 -2.98993 51.0503 3.06788L51.5677 8.80733C51.5677 8.80733 53.7832 15.2982 54.932 21.242C56.8731 31.2861 56.4849 45.1557 56.4849 45.1557" transform="translate(31.27456 143.1824)" id="Fill-5" fill="#4E5C93" stroke="none" />
      <path d="M20.7714 13.6565C20.7714 13.6565 40.8026 -23.1882 50.5083 24.1607C26.9341 125.792 23.0537 141.832 23.0537 141.832C23.0537 141.832 23.2276 150.441 18.5694 153.789L2.26442 153.789C2.26442 153.789 -3.94725 149.007 4.20556 138.006C18.1812 30.8741 20.7714 13.6565 20.7714 13.6565" transform="translate(11.32795 172.3878)" id="Fill-7" fill="#4E5C93" stroke="none" />
      <path d="M31.5717 0.474877C31.5717 0.474877 18.0529 -4.52904 3.68905 17.9497C2.45578 122.911 1.2323 125.238 1.2323 125.238C1.2323 125.238 -2.34871 134.539 2.69827 139.322L19.5183 139.322C19.5183 139.322 23.8757 133.212 21.9346 126.516C30.8639 34.2107 31.5717 0.474877 31.5717 0.474877" transform="translate(56.18771 186.2689)" id="Fill-9" fill="#4E5C93" stroke="none" />
      <g id="分组" transform="translate(0 324.9829)">
        <path d="M0 0L30.6634 0L30.6634 32.5747L0 32.5747L0 0Z" transform="translate(0.0002155932 0.2491712)" id="Clip-12" fill="none" stroke="none" />
        <g clip-path="url(#mask_1)">
          <path d="M1.01408 32.5748L22.7274 32.5748L30.6634 0L13.6977 0L10.7859 21.7311L0.449493 30.2928C-0.380239 30.9793 0.0147257 32.5748 1.01408 32.5748" transform="translate(0.0002155932 0.2491712)" id="Fill-11" fill="#253368" stroke="none" />
        </g>
      </g>
      <g id="分组" transform="translate(57.56079 324.9829)">
        <path d="M0 0L23.4477 0L23.4477 32.7269L0 32.7269L0 0Z" transform="translate(0.2031161 0.096934)" id="Clip-14" fill="none" stroke="none" />
        <g clip-path="url(#mask_2)">
          <path d="M1.19898 0L17.2529 0.0942996L14.6651 20.6109L23.0017 29.8515C23.9141 30.8631 23.3329 32.7272 22.1064 32.7272L0 32.7272L1.19898 0Z" transform="translate(0.2031161 0.096934)" id="Fill-13" fill="#253368" stroke="none" />
        </g>
      </g>
      <path d="M0 27.7671L1.29206 0L22.6434 0L22.6232 29.9986L16.4991 44.3472L0 27.7671Z" transform="translate(45.05589 27.61267)" id="Fill-15" fill="#FFC2BD" stroke="none" />
      <path d="M7.03254 1.06462C7.03254 1.06462 18.9378 -2.76168 22.1729 4.09352C25.3191 10.7609 25.5371 34.8623 19.3261 38.5287C14.2632 41.5176 3.92671 40.1227 1.46813 28.4854C1.46813 28.4854 -0.602225 19.5571 0.174233 11.5862C0.950079 3.61523 7.03254 1.06462 7.03254 1.06462" transform="translate(46.26073 11.08428)" id="Fill-17" fill="#FFC2BD" stroke="none" />
      <path d="M6.43535 4.73828C6.43535 4.73828 3.20031 -2.91432 0.741729 1.23109C-1.71685 5.37574 2.42385 13.0283 6.04712 12.7092C9.67039 12.3909 6.43535 4.73828 6.43535 4.73828" transform="translate(41.29357 27.81652)" id="Fill-19" fill="#FFC2BD" stroke="none" />
      <g id="分组" transform="translate(42.86442 0.2227985)">
        <path d="M0 0L28.0152 0L28.0152 33.9254L0 33.9254L0 0Z" transform="translate(0.243834 0.02866707)" id="Clip-22" fill="none" stroke="none" />
        <g clip-path="url(#mask_3)">
          <path d="M27.3957 28.7965C27.3957 28.7965 28.9486 19.5499 27.1373 13.8105C25.3253 8.071 22.996 2.33231 21.3138 5.36121C21.0548 3.92635 19.5019 1.05662 18.3378 0.10005C17.1725 -0.856525 13.5493 5.36121 13.5493 5.36121C13.5493 5.36121 13.8083 2.49149 12.3846 4.24546C10.9615 5.99868 2.29123 11.419 0.86813 14.2887C-0.555581 17.1585 0.20067 27.7079 0.20067 27.7079C0.20067 27.7079 2.98318 27.3888 4.47119 33.9257C4.08296 28.6645 5.86061 25.9147 6.77301 24.8684C7.11899 24.4716 7.31739 23.9201 7.35352 23.34C7.4221 22.2257 7.52375 20.3548 7.56172 18.5269C7.57886 17.7212 8.05649 17.0551 8.7013 16.9178C15.262 15.5177 22.4742 16.7767 25.0431 17.3222C25.6236 17.4451 26.0687 18.02 26.1459 18.7397L26.7931 24.719C26.7931 24.719 27.1373 25.7669 27.3957 28.7965" transform="translate(0.243834 0.02834838)" id="Fill-21" fill="#253368" stroke="none" />
        </g>
      </g>
      <path d="M0 0.716676L2.18853 0L6.38557 0.903767" transform="translate(52.45221 27.53392)" id="Stroke-23" fill="none" stroke="#253368" stroke-width="1.36521959" stroke-linecap="round" stroke-linejoin="round" />
      <path d="M0 1.3549L4.1407 0L5.75853 0.557499" transform="translate(63.25741 26.97521)" id="Stroke-25" fill="none" stroke="#253368" stroke-width="1.36521959" stroke-linecap="round" stroke-linejoin="round" />
      <path d="M0.383421 0.207865C0.383421 0.207865 3.72746 3.42386 5.47449 6.77187C7.90123 3.06552 10.4572 1.47072 10.4572 1.47072C10.4572 1.47072 13.3885 4.15336 14.9414 3.31673C15.4264 2.5993 15.3743 1.8698 15.3743 1.8698C15.3743 1.8698 17.9946 3.06552 19.8384 6.41353C20.6154 4.02209 22.8027 0.925296 22.8027 0.925296C22.8027 0.925296 23.2681 16.5368 13.9506 16.7752C4.53637 16.7752 1.3987 10.359 0.331371 4.97791C0.0845946 3.29184 -0.295674 -0.987853 0.383421 0.207865" transform="translate(47.53955 35.41574)" id="Fill-27" fill="#EFADAB" stroke="none" />
      <path d="M0 0C0 0 3.96741 1.92522 7.07263 0.729502" transform="translate(56.1846 39.91568)" id="Stroke-29" fill="none" stroke="#D18682" stroke-width="1.092014" stroke-linecap="round" stroke-linejoin="round" />
      <path d="M0 8.33005C0 8.33005 3.3967 10.8414 4.27052 10.0041C5.14373 9.16667 3.81738 1.75397 3.81738 1.75397L3.94659 0" transform="translate(58.21062 28.72835)" id="Stroke-31" fill="none" stroke="#D18682" stroke-width="0.8083005" stroke-linecap="round" stroke-linejoin="round" />
      <path d="M2.17996 0.370787L0 0.383612" transform="translate(59.66617 43.61011)" id="Stroke-33" fill="none" stroke="#D18682" stroke-width="0.8083005" stroke-linecap="round" stroke-linejoin="round" />
      <path d="M1.94115 1.67401C1.94115 2.5989 1.50638 3.34801 0.970573 3.34801C0.434768 3.34801 0 2.5989 0 1.67401C0 0.74987 0.434768 0 0.970573 0C1.50638 0 1.94115 0.74987 1.94115 1.67401" transform="translate(53.94028 30.96038)" id="Fill-35" fill="#253368" stroke="none" />
      <path d="M1.94115 1.67401C1.94115 2.5989 1.50699 3.34801 0.970573 3.34801C0.434768 3.34801 0 2.5989 0 1.67401C0 0.74987 0.434768 0 0.970573 0C1.50699 0 1.94115 0.74987 1.94115 1.67401" transform="translate(64.13074 30.96038)" id="Fill-37" fill="#253368" stroke="none" />
      <path d="M1.68274 0L0 2.07233" transform="translate(55.01973 38.64044)" id="Stroke-39" fill="none" stroke="#D18682" stroke-width="0.8083005" stroke-linecap="round" stroke-linejoin="round" />
      <path d="M0 0C0 0 2.81436 14.1087 15.6259 10.8807" transform="translate(47.96749 40.87233)" id="Stroke-41" fill="none" stroke="#D18682" stroke-width="0.6822056" stroke-linecap="round" stroke-linejoin="round" />
      <path d="M0.582343 0C0.582343 0 1.84439 2.63058 0 4.06544" transform="translate(60.48727 48.04611)" id="Stroke-43" fill="none" stroke="#D18682" stroke-width="0.8083005" stroke-linecap="round" stroke-linejoin="round" />
      <path d="M0.0158252 1.24224C0.0158252 1.24224 -0.210744 -0.470996 1.05069 0.126486C2.31275 0.723968 2.08618 2.19881 1.82715 3.47374C1.55894 4.79695 1.98943 5.58681 2.96 5.82595" transform="translate(42.96978 30.86174)" id="Stroke-45" fill="none" stroke="#D18682" stroke-width="0.6822056" stroke-linecap="round" stroke-linejoin="round" />
      <path d="M0.545604 0.426132C0.52356 0.589082 0.39864 0.699224 0.266372 0.672066C0.134105 0.645662 0.0447016 0.49101 0.0667462 0.328815C0.0887908 0.165865 0.21371 0.0557224 0.345978 0.0821263C0.478246 0.109285 0.567649 0.263182 0.545604 0.426132" transform="translate(57.17587 42.9569)" id="Fill-47" fill="#D18682" stroke="none" />
      <path d="M0.545604 0.426132C0.52356 0.589082 0.39864 0.699224 0.266372 0.672066C0.134105 0.645662 0.0447016 0.49101 0.0667462 0.328815C0.0887908 0.165865 0.21371 0.0557224 0.345978 0.0821263C0.478246 0.109285 0.567649 0.263182 0.545604 0.426132" transform="translate(53.53313 44.08193)" id="Fill-49" fill="#D18682" stroke="none" />
      <path d="M0.533663 0.272914C0.580202 0.427566 0.516518 0.599569 0.390986 0.657658C0.265454 0.714992 0.125226 0.63578 0.078687 0.481128C0.0321484 0.326477 0.0958328 0.154474 0.221365 0.0971396C0.346897 0.0390509 0.487125 0.118263 0.533663 0.272914" transform="translate(65.28018 45.21239)" id="Fill-51" fill="#D18682" stroke="none" />
      <path d="M0.533663 0.272914C0.580202 0.427566 0.516518 0.599569 0.390986 0.657658C0.265454 0.714992 0.125226 0.63578 0.078687 0.481128C0.0321484 0.326477 0.0958328 0.154474 0.221365 0.0971396C0.346897 0.0390509 0.486512 0.118263 0.533663 0.272914" transform="translate(67.55733 43.78312)" id="Fill-53" fill="#D18682" stroke="none" />
      <path d="M0.533625 0.273244C0.580164 0.427896 0.516479 0.599899 0.390947 0.657233C0.265416 0.714567 0.125187 0.63611 0.0786487 0.481458C0.03211 0.326807 0.0964068 0.154804 0.221939 0.0974695C0.347471 0.0393809 0.487086 0.118593 0.533625 0.273244" transform="translate(63.30387 46.08287)" id="Fill-55" fill="#D18682" stroke="none" />
      <path d="M0.533625 0.272914C0.580164 0.427566 0.516479 0.599569 0.390947 0.657658C0.265416 0.714992 0.125187 0.63578 0.0786487 0.481128C0.03211 0.326477 0.0964068 0.154474 0.221939 0.0971396C0.347471 0.0390509 0.487086 0.118263 0.533625 0.272914" transform="translate(60.47231 45.3973)" id="Fill-57" fill="#D18682" stroke="none" />
      <path d="M0.533502 0.272914C0.580653 0.427566 0.516356 0.600323 0.390824 0.657658C0.265292 0.714992 0.125676 0.63578 0.0785252 0.481128C0.0319865 0.326477 0.0962833 0.154474 0.221815 0.0971396C0.347347 0.0390509 0.486963 0.118263 0.533502 0.272914" transform="translate(50.71851 43.00594)" id="Fill-59" fill="#D18682" stroke="none" />
      <path d="M0.545604 0.426235C0.52356 0.589185 0.39864 0.699327 0.266372 0.672169C0.134105 0.645011 0.0447016 0.491113 0.0667462 0.328163C0.0887908 0.165213 0.21371 0.0550711 0.345978 0.0822294C0.478246 0.109388 0.567649 0.263285 0.545604 0.426235" transform="translate(55.34538 47.15245)" id="Fill-61" fill="#D18682" stroke="none" />
      <path d="M0.545604 0.426235C0.52356 0.589185 0.39864 0.699327 0.266372 0.672169C0.134105 0.645011 0.0447016 0.491113 0.0667462 0.328163C0.0887908 0.165213 0.21371 0.0550711 0.345978 0.0822294C0.478246 0.109388 0.567649 0.263285 0.545604 0.426235" transform="translate(57.22786 46.68865)" id="Fill-63" fill="#D18682" stroke="none" />
      <path d="M0.545521 0.426132C0.523476 0.589082 0.398557 0.699224 0.266289 0.672066C0.134634 0.645662 0.0452306 0.49101 0.0666628 0.328815C0.0887075 0.165865 0.213627 0.0557224 0.345895 0.0821263C0.478162 0.109285 0.567566 0.263182 0.545521 0.426132" transform="translate(64.83086 47.49362)" id="Fill-65" fill="#D18682" stroke="none" />
      <path d="M0.545518 0.426235C0.523473 0.589185 0.398554 0.699327 0.266287 0.672169C0.134633 0.645011 0.0452303 0.491113 0.0666624 0.328163C0.0887069 0.165213 0.213626 0.0550711 0.345892 0.0822294C0.478159 0.109388 0.567562 0.263285 0.545518 0.426235" transform="translate(63.6265 43.96241)" id="Fill-67" fill="#D18682" stroke="none" />
      <path d="M0.545604 0.426235C0.52356 0.589185 0.39864 0.699327 0.266372 0.672169C0.134105 0.645011 0.0447016 0.491113 0.0667462 0.328163C0.0887908 0.165213 0.21371 0.0550711 0.345978 0.0822294C0.478246 0.109388 0.567649 0.263285 0.545604 0.426235" transform="translate(64.50011 40.97319)" id="Fill-69" fill="#D18682" stroke="none" />
      <path d="M0.545521 0.426235C0.523476 0.589185 0.398557 0.699327 0.266289 0.672169C0.134634 0.645011 0.0452306 0.491113 0.0666628 0.328163C0.0887075 0.165213 0.213627 0.0550711 0.345895 0.0822294C0.478162 0.109388 0.567566 0.263285 0.545521 0.426235" transform="translate(53.29433 45.94534)" id="Fill-71" fill="#D18682" stroke="none" />
      <path d="M28.4265 7.25352L27.4559 2.39068L23.0984 2.86897L20.4886 15.2222L14.7098 1.6212L1.81439 0L0 7.65184C0 7.65184 8.39959 21.7123 22.0213 19.1307C28.7498 17.8551 28.4265 7.25352 28.4265 7.25352" transform="translate(41.475 54.50322)" id="Fill-73" fill="#597EF7" stroke="none" />
      <path d="M0 0C0 0 8.28202 25.5077 0.517435 48.6239C6.7291 62.3343 13.1992 72.3776 17.0815 76.8413C20.9638 81.3051 35.8555 80.295 37.0098 65.3632C38.0446 51.9719 19.079 20.1152 16.305 14.3479C12.1643 5.73945 2.84681 0 0 0" transform="translate(86.20641 67.49574)" id="Fill-75" fill="#FFC2BD" stroke="none" />
      <path d="M27.1099 35.3118C21.9956 24.453 17.7489 17.3504 16.3044 14.3479C12.1637 5.73869 2.84681 0 0 0C0 0 8.28141 25.5069 0.517435 48.6239C3.15176 54.438 2.85967 53.919 5.3703 58.2688C5.3703 58.2688 7.31083 53.0077 14.6872 45.3551C22.3575 37.3977 27.1099 35.3118 27.1099 35.3118" transform="translate(85.88322 66.77868)" id="Fill-77" fill="#597EF7" stroke="none" />
      <path d="M4.39972 0C4.39972 0 7.11672 14.3486 0 35.0734" transform="translate(87.2419 87.26402)" id="Stroke-79" fill="none" stroke="#1D39C4" stroke-width="0.6199665" stroke-linecap="round" stroke-linejoin="round" />
      <path d="M41.7328 9.59814C22.0311 6.48928 0 8.27041 0 8.27041L0.776458 1.45595C0.776458 1.45595 25.816 -2.4903 41.2797 2.61093C41.6354 5.87973 41.7328 9.59814 41.7328 9.59814" transform="translate(41.17391 142.4711)" id="Fill-81" fill="#253368" stroke="none" />
      <path d="M0 10.2032L6.47008 0" transform="translate(95.26489 122.9747)" id="Stroke-83" fill="none" stroke="#D18682" stroke-width="0.8083005" stroke-linecap="round" stroke-linejoin="round" />
      <path d="M4.1407 0C4.1407 0 3.10583 36.2985 0 51.603" transform="translate(59.8083 151.3521)" id="Stroke-85" fill="none" stroke="#253368" stroke-width="0.910146356" stroke-linecap="round" stroke-linejoin="round" />
      <path d="M9.57591 0C9.57591 0 9.31689 32.4202 6.98751 34.6524C4.65875 36.884 0 39.7537 0 39.7537" transform="translate(61.87852 151.671)" id="Stroke-87" fill="none" stroke="#253368" stroke-width="0.910146356" stroke-linecap="round" stroke-linejoin="round" />
      <path d="M0 8.50377L0 1.69609C0 0.806655 0.550502 0.0786616 1.24735 0.0530121C3.55836 -0.0322348 8.69413 -0.108429 13.3529 0.619564C14.0026 0.721408 14.4931 1.41923 14.4931 2.25359L14.4931 8.65389C14.4931 9.56973 13.9107 10.309 13.1924 10.2977C10.5514 10.2577 4.53567 10.1695 1.27797 10.1468C0.568872 10.1423 0 9.40753 0 8.50377" transform="translate(58.90221 141.373)" id="Fill-89" fill="#E1E7F3" stroke="none" />
      <path d="M0 5.62708L0.00183705 1.12106C0.00183705 0.532631 0.451301 0.0505709 1.02017 0.0339742C2.90498 -0.0218512 7.09529 -0.0693783 10.8955 0.413436C11.4258 0.481332 11.8257 0.943777 11.8257 1.496L11.8245 5.73269C11.8245 6.33847 11.3487 6.82732 10.7633 6.82053C8.6084 6.79262 3.69981 6.73151 1.04283 6.71567C0.464161 6.7119 0 6.22531 0 5.62708" transform="translate(60.39689 143.0746)" id="Fill-91" fill="#253368" stroke="none" />
      <path d="M12.2347 0L0 6.72695L0.505188 8.09694L12.8416 1.24551L12.2347 0Z" transform="translate(59.94748 142.6186)" id="Fill-93" fill="#E1E7F3" stroke="none" />
      <path d="M12.7479 6.6485L0.484368 0L0 1.38205L12.4062 8.03885L12.7479 6.6485Z" transform="translate(59.95998 142.4812)" id="Fill-95" fill="#E1E7F3" stroke="none" />
      <path d="M10.0933 0C10.0933 0 7.37574 16.0219 0 12.6739" transform="translate(37.68015 151.3521)" id="Stroke-97" fill="none" stroke="#253368" stroke-width="0.910146356" stroke-linecap="round" stroke-linejoin="round" />
      <path d="M0 0L7.76397 6.21774" transform="translate(65.24308 193.4395)" id="Stroke-99" fill="none" stroke="#253368" stroke-width="0.910146356" stroke-linecap="round" stroke-linejoin="round" />
      <path d="M0 0L3.49406 6.69527" transform="translate(61.74926 192.0047)" id="Stroke-101" fill="none" stroke="#253368" stroke-width="0.910146356" stroke-linecap="round" stroke-linejoin="round" />
      <path d="M0.973983 43.6917L0.000961006 6.59425C-0.0302688 5.40532 0.703325 4.39669 1.66594 4.3039L41.4992 0.0068588C42.52 -0.0912127 43.403 0.874415 43.4447 2.13501L44.7637 41.9981C44.8047 43.2376 44.0154 44.2786 43.0093 44.3133L2.8294 45.8447C1.83556 45.8779 1.00583 44.9161 0.973983 43.6917" transform="translate(11.55565 170.0362)" id="Fill-103" fill="#FFC540" stroke="none" />
      <path d="M0.992824 44.0888L0.000818922 6.26944C-0.0255121 5.27816 0.586224 4.43701 1.3884 4.36006L41.8193 0.00568513C42.6705 -0.0757897 43.4066 0.728397 43.4415 1.77927L44.7856 42.402C44.8199 43.4348 44.1616 44.3031 43.3227 44.3318L2.539 45.8828C1.7105 45.9115 1.01977 45.1095 0.992824 44.0888" transform="translate(9.776311 170.0575)" id="Fill-105" fill="#FF7A46" stroke="none" />
      <path d="M12.1315 0C12.1315 0 5.14404 1.91315 2.0382 16.5801C-1.06763 31.2463 0.0970573 44.6384 0.873516 63.1317C1.64997 81.6242 7.08518 113.987 9.41456 125.784C11.7433 137.582 12.5963 141.52 14.9784 145.712C16.3372 148.103 18.6016 148.661 20.1552 147.944C22.2249 150.495 25.5248 148.741 25.5248 148.741C25.5248 148.741 30.5069 150.335 31.5424 146.828C35.6182 147.546 33.8718 140.61 34.3892 138.06C34.9066 135.508 32.772 130.407 27.0778 123.393C23.4545 115.422 26.6895 44.3193 28.2424 35.3918C29.7954 26.4642 29.7305 1.91315 12.1315 0" transform="translate(10.40797 70.04665)" id="Fill-107" fill="#FFC2BD" stroke="none" />
      <path d="M27.3575 48.7654C27.3575 48.7654 31.11 20.0689 27.4867 11.1413C23.8634 2.2138 18.0572 -4.56143 8.85293 3.80784C-2.01748 13.6919 0.182687 42.5476 0.182687 42.5476C0.182687 42.5476 12.2172 45.8956 27.3575 48.7654" transform="translate(10.3224 68.1515)" id="Fill-109" fill="#597EF7" stroke="none" />
      <path d="M0 0.0292645C0.16166 0.0526508 10.4816 -1.88389 11.1288 22.0297L9.70512 42.1171" transform="translate(27.97467 75.75639)" id="Stroke-111" fill="none" stroke="#1D39C4" stroke-width="0.6199665" stroke-linecap="round" stroke-linejoin="round" />
      <path d="M0.0681105 0C0.0681105 0 -0.190301 7.01438 0.585547 9.08746" transform="translate(41.36452 207.7874)" id="Stroke-113" fill="none" stroke="#D18682" stroke-width="0.8083005" stroke-linecap="round" stroke-linejoin="round" />
      <path d="M0 0L8.54043 3.8263" transform="translate(42.7267 62.39436)" id="Stroke-115" fill="none" stroke="#1D39C4" stroke-width="0.6199665" stroke-linecap="round" stroke-linejoin="round" />
      <path d="M0 0C0 0 2.41633 10.2583 1.63987 17.9101" transform="translate(61.96334 69.72505)" id="Stroke-117" fill="none" stroke="#1D39C4" stroke-width="0.6199665" stroke-linecap="round" stroke-linejoin="round" />
    </g>
  </g>
</svg>
