<?xml version="1.0" encoding="utf-8"?>
<svg width="118px" height="316px" viewBox="0 0 118 316" version="1.1" xmlns:xlink="http://www.w3.org/1999/xlink" xmlns="http://www.w3.org/2000/svg">
  <desc>Created with Lunacy</desc>
  <defs>
    <path d="M0 0L24.4646 0L24.4646 17.1366L0 17.1366L0 0Z" transform="translate(0.3626579 0.2181174)" id="path_1" />
    <path d="M0 0L56.345 0L56.345 43.4636L0 43.4636L0 0Z" transform="translate(0.3226597 0.6299168)" id="path_2" />
    <clipPath id="mask_1">
      <use xlink:href="#path_1" />
    </clipPath>
    <clipPath id="mask_2">
      <use xlink:href="#path_2" />
    </clipPath>
  </defs>
  <g id="1.人物组件/5.用研/走路/看电脑" transform="translate(0.4233398 0.4232178)">
    <g id="分组" transform="translate(0.2129777 0)">
      <path d="M8.62249 56.7453L8.62249 56.7453C3.70718 56.5529 -0.151337 51.4766 0.00456266 45.408L0.897152 10.6464C1.05305 4.57703 5.16459 -0.186846 10.0799 0.00563322C14.9959 0.198113 18.8544 5.27437 18.6985 11.343L17.8052 46.1045C17.6493 52.174 13.5378 56.9378 8.62249 56.7453" transform="translate(55.51062 57.71817)" id="Fill-1" fill="#CCD7EE" stroke="none" />
      <path d="M4.9439 0.030625C1.73774 0.406118 -0.510031 4.10425 0.10015 8.00749C1.14417 14.6812 2.6431 24.967 3.60278 34.6099C4.46279 43.2526 3.66092 49.2707 5.13622 51.4393C6.72653 53.7774 9.79852 51.5371 12.4782 54.5024C15.1579 57.4685 17.0951 59.7522 23.9624 57.5095C31.9931 54.8866 24.7202 52.5878 20.7984 48.5466C13.8743 41.4114 12.9421 37.9065 12.3843 32.3932C11.2406 21.1024 10.9607 12.3635 10.9147 6.65382C10.8828 2.71509 8.12004 -0.340924 4.9439 0.030625" transform="translate(43.05302 253.9089)" id="Fill-3" fill="#FFC6A0" stroke="none" />
      <g id="分组" transform="translate(46.64212 296.7304)">
        <path d="M0 0L24.4646 0L24.4646 17.1366L0 17.1366L0 0Z" transform="translate(0.3626579 0.2181174)" id="Clip-6" fill="none" stroke="none" />
        <g clip-path="url(#mask_1)">
          <path d="M0.147914 0C0.147914 0 1.35805 1.80174 5.45553 5.5117C8.6879 8.43755 10.7836 10.2022 12.4499 9.19643C15.4919 7.35998 17.8508 6.38496 17.8508 6.38496C17.8508 6.38496 20.8065 8.03918 23.0543 9.96398C25.3008 11.888 25.1673 15.2714 20.4168 16.4823C15.6657 17.6924 12.9004 17.5062 8.19592 13.4878C3.49081 9.46779 1.58679 11.3579 0.788125 8.94557C-0.459712 5.17408 0.147914 0 0.147914 0" transform="translate(0.3626579 0.2181174)" id="Fill-5" fill="#253368" stroke="none" />
        </g>
      </g>
      <path d="M10.3905 60.8014L0.448709 18.8992C-1.51729 10.2005 3.18845 1.36143 10.4346 0.138709C16.707 -0.919929 22.5743 4.18709 23.8746 11.8366L31.1814 54.8203C31.1814 54.8203 33.8068 66.9244 23.412 69.7927C13.3034 72.5829 10.3905 60.8014 10.3905 60.8014" transform="translate(21.73045 153.5038)" id="Fill-7" fill="#253368" stroke="none" />
      <path d="M0.0334079 12.7876L11.094 89.2573C11.3579 91.0851 12.6606 92.404 14.1641 92.367L24.7787 92.1043C26.5657 92.0601 27.942 90.1392 27.758 87.9423L21.368 11.6675C21.368 11.6675 20.6767 -1.34857 9.42445 0.114745C-1.07131 1.47946 0.0334079 12.7876 0.0334079 12.7876" transform="translate(31.87786 195.0588)" id="Fill-9" fill="#253368" stroke="none" />
      <path d="M2.35367 11.2098L19.7544 10.7798C20.123 10.7704 20.4086 10.3799 20.3786 9.92629L19.7684 0.724339C19.741 0.308615 19.4566 -0.00850349 19.1186 0.000173878L0.626631 0.457708C0.221548 0.467174 -0.0742782 0.934174 0.0164503 1.42168L1.71793 10.5976C1.78502 10.9621 2.05017 11.2176 2.35367 11.2098" transform="translate(40.53613 276.7829)" id="Fill-11" fill="#4E5C93" stroke="none" />
      <path d="M23.1542 0.826139C20.3275 -1.07815 16.7878 0.433291 15.5247 4.0904C13.3651 10.3428 9.94549 19.9029 6.36938 28.5574C3.16513 36.3142 -0.227606 40.7475 0.0119943 43.5637C0.270762 46.6 3.83218 46.8659 4.70879 51.1754C5.58541 55.4849 6.15534 58.716 12.8629 61.6016C20.7077 64.9763 15.7221 58.0463 14.3037 51.9887C11.7997 41.2903 12.615 37.7412 14.6512 32.7872C18.8222 22.6402 22.551 15.2045 25.101 10.4407C26.86 7.1543 25.9552 2.71228 23.1542 0.826139" transform="translate(18.34858 242.8711)" id="Fill-13" fill="#FFC6A0" stroke="none" />
      <path d="M3.57399 0C3.57399 0 3.75992 2.32948 5.47482 8.23482C6.82744 12.8938 7.76476 15.8039 9.60169 16.1218C12.9548 16.7008 15.3515 17.5228 15.3515 17.5228C15.3515 17.5228 17.051 20.9361 18.0414 24.0836C19.0311 27.2312 17.3871 29.9424 12.9011 27.6635C8.41519 25.3837 6.20768 23.32 4.13051 16.7379C2.05333 10.1565 -0.381641 10.4073 0.0502781 7.85539C0.72563 3.86774 3.57399 0 3.57399 0" transform="translate(17.735 278.7576)" id="Fill-15" fill="#253368" stroke="none" />
      <path d="M28.7957 55.949L23.9953 12.6899C22.9104 3.75935 15.6892 -1.933 8.67117 0.607891C2.5962 2.80721 -1.06745 10.4299 0.277509 18.0667L7.84056 60.9826C7.84056 60.9826 9.45195 73.3542 19.8883 70.7265C30.0377 68.1706 28.7957 55.949 28.7957 55.949" transform="translate(36.34761 148.4451)" id="Fill-17" fill="#253368" stroke="none" />
      <path d="M42.9339 16.0185L15.8687 79.6315C15.2214 81.1524 13.6912 81.8498 12.2606 81.2755L2.16421 77.2247C0.463366 76.5424 -0.438169 74.3493 0.211626 72.4743L22.7679 7.35301C22.7679 7.35301 26.2347 -3.90311 36.6826 1.4382C46.4289 6.42058 42.9339 16.0185 42.9339 16.0185" transform="translate(21.62852 194.7761)" id="Fill-19" fill="#253368" stroke="none" />
      <path d="M16.5087 17.9631L0.397407 9.83476C0.0562171 9.66279 -0.096488 9.17054 0.0638843 8.76113L3.31414 0.445843C3.46045 0.0703493 3.81826 -0.098465 4.13069 0.0585165L21.2522 8.69723C21.6279 8.88656 21.7665 9.45295 21.5403 9.86789L17.2806 17.6736C17.1113 17.9836 16.7886 18.1051 16.5087 17.9631" transform="translate(19.76087 260.2999)" id="Fill-21" fill="#4E5C93" stroke="none" />
      <path d="M25.5455 45.4229L40.8326 27.4891C42.1341 26.2829 42.8178 24.3124 42.6287 22.3166L43.9027 0L0.222668 0.854326L0.000319371 24.4773C-0.0137372 25.9469 0.436711 27.3589 1.25263 28.4278C3.75661 31.7047 10.0335 38.2191 20.9516 45.2327C22.4333 46.1841 24.2504 46.7237 25.5455 45.4229" transform="translate(24.34949 142.1723)" id="Fill-23" fill="#253368" stroke="none" />
      <path d="M39.5698 0L0 1.00262" transform="translate(27.61572 149.0289)" id="Stroke-25" fill="none" stroke="#253368" stroke-width="0.649227142" stroke-linecap="round" stroke-linejoin="round" />
      <path d="M0.2642 0L0.374735 6.66185" transform="translate(44.14811 142.9411)" id="Stroke-27" fill="none" stroke="#253368" stroke-width="0.649227142" stroke-linecap="round" stroke-linejoin="round" />
      <path d="M3.66101 16.304C3.66101 16.304 1.29185 0.140416 17.8984 0C27.1872 0.691034 27.6702 19.6724 27.6702 19.6724C27.6702 19.6724 28.4618 23.6182 27.4012 27.7849C26.2128 32.4518 22.7408 34.1865 18.113 34.9643C9.46508 35.0723 5.77013 29.4052 5.77013 29.4052C5.77013 29.4052 -0.155333 30.2887 0.00312227 21.0245C0.197358 12.4291 3.66101 16.304 3.66101 16.304" transform="translate(28.02873 5.689827)" id="Fill-29" fill="#FFC6A0" stroke="none" />
      <path d="M12.2868 7.09572C12.5097 11.2798 9.94252 14.8951 6.55297 15.1696C3.16407 15.4441 0.236481 12.2753 0.0134938 8.09125C-0.209494 3.90719 2.35774 0.291881 5.74728 0.0165717C9.13554 -0.257949 12.0638 2.91087 12.2868 7.09572" transform="translate(20.36765 3.600706)" id="Fill-31" fill="#253368" stroke="none" />
      <path d="M31.5086 25.9563C31.5086 25.9563 33.2951 21.4788 34.2311 16.2369C35.1671 10.995 26.6904 1.35048 25.571 0.608175C24.4516 -0.134135 23.8701 -0.920619 16.6547 2.99761C-5.23134 5.86192 1.29536 30.2619 1.29536 30.2619C1.29536 30.2619 -1.13898 32.7523 0.666649 38.7712C2.74063 44.7689 9.62066 44.4257 9.62066 44.4257L9.34911 34.8025C9.34911 34.8025 7.03873 35.2064 5.1149 32.0297C3.19171 28.853 4.48683 24.6973 5.54427 24.2784C6.45411 23.3145 8.87119 23.5637 9.06031 27.1096C9.15552 28.8948 11.6946 24.6705 12.4096 17.7862C19.9733 15.34 21.5419 8.60082 21.5419 8.60082C21.5419 8.60082 22.1463 14.884 21.078 17.6371C25.0305 15.8164 27.0399 12.9876 26.2176 10.2211C30.9195 12.3392 31.5086 25.9563 31.5086 25.9563" transform="translate(24.14115 0.0001875822)" id="Fill-33" fill="#253368" stroke="none" />
      <path d="M2.26062 15.131L1.69261 0.795162L16.8379 0C16.8379 0 17.3005 9.78176 17.811 13.7236C28.0109 19.6093 6.01883 26.4384 0.471611 19.3205C-1.24073 17.122 2.26062 15.131 2.26062 15.131" transform="translate(31.56431 30.47711)" id="Fill-35" fill="#FFC6A0" stroke="none" />
      <path d="M9.28019 6.78966C9.18946 10.442 7.04009 13.3245 4.47797 13.2283C1.91713 13.132 -0.0865685 10.0926 0.00288217 6.44098C0.0936107 2.7886 2.24298 -0.0946499 4.8051 0.00237884C7.36659 0.0986187 9.37028 3.13727 9.28019 6.78966" transform="translate(37.54492 16.79227)" id="Fill-37" fill="#FFFFFF" stroke="none" />
      <path d="M9.28019 6.78966C9.18946 10.442 7.04009 13.3245 4.47797 13.2283C1.91713 13.132 -0.0865685 10.0926 0.00288217 6.44098C0.0936107 2.7886 2.24298 -0.0946499 4.8051 0.00237884C7.36659 0.0986187 9.37028 3.13727 9.28019 6.78966Z" transform="translate(37.54492 16.79227)" id="Stroke-39" fill="none" stroke="#4E5C93" stroke-width="0.84645" stroke-linecap="round" stroke-linejoin="round" />
      <path d="M8.68874 6.77831C8.59865 10.4307 6.58154 13.3187 4.18298 13.228C1.78442 13.138 -0.086372 10.1041 0.00307861 6.45173C0.0938071 2.79935 2.11092 -0.0886379 4.50948 0.00208003C6.90803 0.0920091 8.77947 3.12593 8.68874 6.77831" transform="translate(48.40365 15.48086)" id="Fill-41" fill="#FFFFFF" stroke="none" />
      <path d="M8.68874 6.77831C8.59865 10.4307 6.58154 13.3187 4.18298 13.228C1.78442 13.138 -0.086372 10.1041 0.00307861 6.45173C0.0938071 2.79935 2.11092 -0.0886379 4.50948 0.00208003C6.90803 0.0920091 8.77947 3.12593 8.68874 6.77831Z" transform="translate(48.40365 15.48086)" id="Stroke-43" fill="none" stroke="#4E5C93" stroke-width="0.84645" stroke-linecap="round" stroke-linejoin="round" />
      <path d="M0 0L1.79348 2.0802L0.076033 4.20063" transform="translate(47.85028 24.58605)" id="Stroke-45" fill="none" stroke="#DD9987" stroke-width="0.6348375" stroke-linecap="round" stroke-linejoin="round" />
      <path d="M0 0.209047C0 0.209047 2.58576 0.874048 3.8368 0.422825" transform="translate(44.61505 30.24566)" id="Stroke-47" fill="none" stroke="#F5222D" stroke-width="0.84645" stroke-linecap="round" stroke-linejoin="round" />
      <g id="分组" transform="translate(46.64212 20.63241)">
        <path d="M0 0.576783C0 0.576783 0.77247 -0.153693 1.52641 0.452934" transform="translate(0.161139 0.6424653)" id="Fill-49" fill="#FFFFFF" stroke="none" />
        <path d="M0 0.576783C0 0.576783 0.77247 -0.153693 1.52641 0.452934" transform="translate(0.161139 0.6424653)" id="Stroke-51" fill="none" stroke="#4E5C93" stroke-width="0.84645" stroke-linecap="round" stroke-linejoin="round" />
      </g>
      <path d="M7.33942 0.376253C7.33942 0.376253 3.0394 0.873231 0 0.229527" transform="translate(40.9776 39.75301)" id="Stroke-52" fill="none" stroke="#DD9987" stroke-width="0.6348375" stroke-linecap="round" stroke-linejoin="round" />
      <path d="M1.44098 1.56773C1.4889 2.46545 1.20585 3.21959 0.809715 3.25114C0.412938 3.28349 0.0525802 2.5822 0.00529922 1.68448C-0.0426207 0.786771 0.239787 0.0334181 0.636564 0.00107523C1.0327 -0.0312677 1.3937 0.670021 1.44098 1.56773" transform="translate(42.71173 21.28923)" id="Fill-54" fill="#253368" stroke="none" />
      <path d="M1.44149 1.56773C1.48877 2.46545 1.20636 3.21959 0.810224 3.25114C0.413447 3.28349 0.0530878 2.5822 0.00516778 1.68448C-0.0421133 0.786771 0.240295 0.0334181 0.637073 0.00107523C1.03321 -0.0312677 1.39357 0.670021 1.44149 1.56773" transform="translate(52.05377 20.67985)" id="Fill-56" fill="#253368" stroke="none" />
      <g id="分组" transform="translate(33.22453 22.99896)">
        <path d="M4.1684 0.182566L0 0.666579" transform="translate(0.1551969 0.06929029)" id="Fill-58" fill="#FFFFFF" stroke="none" />
        <path d="M4.1684 0.182566L0 0.666579" transform="translate(0.1551969 0.06929029)" id="Stroke-60" fill="none" stroke="#4E5C93" stroke-width="0.84645" stroke-linecap="round" stroke-linejoin="round" />
      </g>
      <path d="M23.2751 1.02708L22.5531 0.992375C23.0163 6.35656 6.65129 6.81173 4.2061 0.548252C4.14412 0.388904 4.09492 0.239022 4.05467 0.0962399L2.06312 0L0 93.2572C0 93.2572 14.1549 101.056 27.9099 95.0022C34.834 20.6521 23.2751 1.02708 23.2751 1.02708" transform="translate(28.84439 46.99377)" id="Fill-61" fill="#597EF7" stroke="none" />
      <path d="M0 0C0 0 7.60267 4.36945 14.9344 0.279253" transform="translate(34.89502 54.86012)" id="Stroke-63" fill="none" stroke="#3C65D6" stroke-width="0.649227142" stroke-linecap="round" stroke-linejoin="round" />
      <path d="M0.00197642 0.276261C0.00197642 0.276261 4.01831 12.18 4.35439 58.5243C4.62146 95.4354 3.17492 159.859 3.17492 159.859C3.17492 159.859 16.1862 158.656 18.8256 152.53C21.5474 146.215 21.6216 99.4057 21.4484 75.8009C21.1347 32.8116 22.2835 23.0875 19.469 13.4674C16.2251 11.1529 11.0907 7.74905 6.07504 4.37119C4.85659 3.55078 2.73917 1.34437 1.96542 0.815835C-0.139228 -0.619875 0.00197642 0.276261 0.00197642 0.276261" transform="translate(49.23166 45.27557)" id="Fill-65" fill="#CCD7EE" stroke="none" />
      <path d="M0 0C0 0 2.41006 22.345 2.12829 46.3371" transform="translate(68.04472 68.04647)" id="Stroke-67" fill="none" stroke="#96A7CA" stroke-width="0.84645" stroke-linecap="round" stroke-linejoin="round" />
      <path d="M1.64142 9.97581C6.77269 7.11228 12.3608 6.04418 15.6155 3.88825C17.6997 2.50697 19.3884 0.617671 21.0196 0C30.7193 58.0626 26.7828 130.235 24.2859 163.456C11.9921 165.083 0 153.462 0 153.462C0 153.462 0.884284 100.241 2.61324 70.0382C4.05084 44.9156 0.329051 10.7079 1.64142 9.97581" transform="translate(12.46897 44.34433)" id="Fill-69" fill="#CCD7EE" stroke="none" />
      <path d="M9.57604 70.4507C8.38762 54.9822 6.44207 48.2193 2.89407 31.4507C-0.653926 14.6821 0.0584852 4.14699 0.0584852 4.14699L5.17059 0" transform="translate(28.18358 44.14104)" id="Stroke-71" fill="none" stroke="#96A7CA" stroke-width="0.84645" stroke-linecap="round" stroke-linejoin="round" />
      <path d="M5.19197 70.7884C8.97829 23.4044 6.2296 4.84355 6.2296 4.84355L0 0" transform="translate(49.43701 44.82064)" id="Stroke-73" fill="none" stroke="#96A7CA" stroke-width="0.84645" stroke-linecap="round" stroke-linejoin="round" />
      <path d="M1.4031 0L12.371 2.40915L11.4733 30.6611C11.396 33.0939 9.60061 34.8862 7.65761 34.4696L0 32.8296" transform="translate(13.05794 134.4578)" id="Stroke-75" fill="none" stroke="#96A7CA" stroke-width="0.84645" stroke-linecap="round" stroke-linejoin="round" />
      <path d="M6.23249 0L0.561959 2.09677L0.000336799 32.2482C-0.0194701 33.288 0.837978 34.005 1.613 33.5972L6.91615 30.8039" transform="translate(62.32511 135.5479)" id="Stroke-77" fill="none" stroke="#96A7CA" stroke-width="0.84645" stroke-linecap="round" stroke-linejoin="round" />
      <path d="M44.9894 42.9697L2.4275 43.4635C0.809083 43.4816 -0.361443 41.5608 0.102423 39.6462L9.0756 2.61045C9.37782 1.36406 10.3024 0.505792 11.3553 0.49396L53.9185 0.000138757C55.5363 -0.0187937 56.7068 1.90285 56.2423 3.81739L47.2691 40.8532C46.9675 42.0996 46.043 42.957 44.9894 42.9697" transform="translate(57.3056 67.80455)" id="Fill-79" fill="#96A7CA" stroke="none" />
      <g id="分组" transform="translate(58.78186 67.17464)">
        <path d="M0 0L56.345 0L56.345 43.4636L0 43.4636L0 0Z" transform="translate(0.3226597 0.6299168)" id="Clip-82" fill="none" stroke="none" />
        <g clip-path="url(#mask_2)">
          <path d="M44.9894 42.9697L2.4275 43.4635C0.809083 43.4816 -0.361443 41.5608 0.102423 39.6462L9.07624 2.61045C9.37846 1.36406 10.3024 0.505792 11.3553 0.49396L53.9185 0.000138757C55.5363 -0.0187937 56.7068 1.90285 56.2429 3.81739L47.2691 40.8532C46.9675 42.0996 46.043 42.957 44.9894 42.9697" transform="translate(0.3226597 0.6299168)" id="Fill-81" fill="#253368" stroke="none" />
        </g>
      </g>
      <path d="M2.42704 2.21128C2.42704 2.21128 7.91101 -0.668027 9.1959 0.14449C11.1868 1.4035 8.21897 5.69643 8.21897 5.69643C8.21897 5.69643 9.53837 7.98804 7.57621 9.95307C7.55065 12.759 6.0843 13.4098 6.0843 13.4098C6.0843 13.4098 6.6555 15.8245 4.5368 16.5479C2.41746 17.2712 -1.18101 15.0427 0.382457 12.1066C-0.556775 9.61071 1.23415 8.43768 1.23415 8.43768C1.23415 8.43768 0.678922 6.22496 2.44174 5.13476C1.59068 3.84815 1.85711 2.51893 2.42704 2.21128" transform="translate(105.3432 92.36876)" id="Fill-83" fill="#FFC999" stroke="none" />
      <path d="M0 0.945831L4.86675 0" transform="translate(107.7852 96.55777)" id="Stroke-85" fill="none" stroke="#DD936F" stroke-width="0.6280659" stroke-linecap="round" stroke-linejoin="round" />
      <path d="M4.24827 0.646462L0 0.142387" transform="translate(106.5775 100.6638)" id="Stroke-87" fill="none" stroke="#DD936F" stroke-width="0.6280659" stroke-linecap="round" stroke-linejoin="round" />
      <path d="M3.95116 0.943466L0 0" transform="translate(105.7253 104.4755)" id="Stroke-89" fill="none" stroke="#DD936F" stroke-width="0.6280659" stroke-linecap="round" stroke-linejoin="round" />
      <path d="M6.60213 60.3276L6.60213 60.3276C1.85166 58.7555 -0.967955 52.7271 0.306078 46.8619L8.70741 8.15143C9.98017 2.28632 14.8635 -1.19409 19.6134 0.377301C24.3645 1.94948 27.1834 7.97788 25.9107 13.843L17.5087 52.5535C16.2353 58.4186 11.3532 61.899 6.60213 60.3276" transform="translate(0.0001624715 53.2634)" id="Fill-91" fill="#CCD7EE" stroke="none" />
      <path d="M8.75884 16.6051C8.75884 16.6051 1.34402 15.6656 0.186916 10.4308C-0.861574 5.6898 2.84296 3.8289 2.84296 3.8289C2.84296 3.8289 6.28809 1.25882 10.7121 0.432105C13.6269 -0.112991 19.2546 -0.454564 19.6929 1.39687C20.2654 3.81076 13.878 3.74055 13.8435 5.56989C13.809 7.44815 15.1284 7.58304 18.0451 9.10947C19.8686 10.0632 21.9694 10.1176 23.3898 11.2899C26.1672 13.5815 19.7856 19.1586 8.75884 16.6051" transform="translate(46.85908 98.50279)" id="Fill-93" fill="#FFC6A0" stroke="none" />
      <path d="M0 0C0 0 3.05985 2.90298 8.29016 2.52512" transform="translate(61.17677 109.0764)" id="Stroke-95" fill="none" stroke="#DD9987" stroke-width="0.6348375" stroke-linecap="round" stroke-linejoin="round" />
      <path d="M7.142 1.68577C7.142 1.68577 3.47963 2.08888 0 0" transform="translate(59.76837 111.9333)" id="Stroke-97" fill="none" stroke="#DD9987" stroke-width="0.6348375" stroke-linecap="round" stroke-linejoin="round" />
      <path d="M0 0C0 0 1.89252 1.45385 6.12418 1.81673" transform="translate(57.38253 113.5968)" id="Stroke-99" fill="none" stroke="#DD9987" stroke-width="0.6348375" stroke-linecap="round" stroke-linejoin="round" />
      <path d="M50.6572 3.07973L50.2119 21.9049L8.64481 21.9838C3.72886 21.8071 -0.13988 16.7426 0.0038802 10.6732C0.147001 4.60379 4.24895 -0.172701 9.16554 0.00479064L50.6572 3.07973Z" transform="translate(1.080965 93.42889)" id="Fill-101" fill="#CCD7EE" stroke="none" />
      <path d="M3.25473 0L42.2373 3.81646L41.7913 22.6424L0 22.7126" transform="translate(9.72565 92.69997)" id="Stroke-103" fill="none" stroke="#96A7CA" stroke-width="0.84645" stroke-linecap="round" stroke-linejoin="round" />
      <path d="M0.130343 15.9853L0.508592 0" transform="translate(44.77797 97.72559)" id="Stroke-105" fill="none" stroke="#96A7CA" stroke-width="0.84645" stroke-linecap="round" stroke-linejoin="round" />
    </g>
  </g>
</svg>
