<?xml version="1.0" encoding="utf-8"?>
<svg width="77px" height="333px" viewBox="0 0 77 333" version="1.1" xmlns:xlink="http://www.w3.org/1999/xlink" xmlns="http://www.w3.org/2000/svg">
  <desc>Created with Lunacy</desc>
  <defs>
    <path d="M0 0L23.0273 0L23.0273 25.6536L0 25.6536L0 0Z" transform="translate(0 0.1571278)" id="path_1" />
    <clipPath id="mask_1">
      <use xlink:href="#path_1" />
    </clipPath>
  </defs>
  <g id="1.人物组件/4.商务拓展/站立/叉腰" transform="translate(0.4375 0.4373779)">
    <g id="分组" transform="translate(0 0.2719416)">
      <path d="M38.0643 72.2609C27.8908 90.9686 14.2029 80.0634 10.7317 75.1962C6.80046 69.6829 1.87128 70.3723 0.373376 63.6344C-1.33994 55.9256 3.45229 51.0005 2.51618 47.5545C-0.291472 34.232 7.43207 39.0185 6.23867 30.7868C4.24412 17.0304 5.96408 17.298 10.7317 7.5097C16.4175 -4.16557 22.4623 1.25803 22.4623 1.25803C22.4623 1.25803 30.8234 -1.21881 34.5672 12.5637C35.2447 15.0553 37.9991 16.545 38.0616 22.8235C38.2205 38.8219 45.2752 40.0872 46.6727 51.0005C48.1321 62.3935 41.4337 65.8289 38.0643 72.2609" transform="translate(16.65165 0.0005414747)" id="Fill-1" fill="#253368" stroke="none" />
      <path d="M3.11614 3.53299C3.62741 -0.422948 1.23994 0.0143338 1.23994 0.0143338C1.23994 0.0143338 0.0857654 4.12772 0 7.45629C3.37144 7.49708 3.11614 3.53299 3.11614 3.53299" transform="translate(46.26604 21.50541)" id="Fill-3" fill="#F4B784" stroke="none" />
      <path d="M0.0576074 3.53299C-0.452996 -0.422948 2.59866 0.0143338 2.59866 0.0143338C2.59866 0.0143338 3.75283 4.12772 3.8386 7.45629C0.467154 7.49708 0.0576074 3.53299 0.0576074 3.53299" transform="translate(26.21725 21.50541)" id="Fill-5" fill="#F4B784" stroke="none" />
      <path d="M5.87925 20.673L5.87925 20.673C2.91602 20.673 0.547835 17.6496 0 14.0167L0.450102 0L10.6429 0L11.0937 14.0167C11.2107 17.6496 8.84181 20.673 5.87925 20.673" transform="translate(31.89701 31.9357)" id="Fill-7" fill="#F4B784" stroke="none" />
      <path d="M0 0.444217L0.886242 0.371609" transform="translate(37.66557 32.71253)" id="Stroke-9" fill="none" stroke="#DD936F" stroke-width="0.6709716" stroke-linecap="round" stroke-linejoin="round" />
      <path d="M9.28463 31.2404C4.21849 31.2404 0.668205 24.7831 0.111727 16.8835C-0.818395 3.67611 4.21849 0 9.28463 0C14.3501 0 19.7021 3.37262 18.4569 16.8835C17.6418 25.727 14.3501 31.2404 9.28463 31.2404Z" transform="translate(28.77233 7.356944)" id="Fill-11" fill="#FFC999" stroke="none" />
      <path d="M24.1791 10.1147C23.0555 4.77185 20.9346 -0.605246 14.5694 0.773498C6.89437 -4.28054 -4.94724 17.0516 2.21451 17.9743C8.95407 18.8432 8.17354 12.3721 9.59964 8.12408C10.9101 4.21873 13.3215 8.58339 13.3215 8.58339C13.3215 8.58339 14.6538 6.74533 16.1511 7.43471C18.6609 8.5891 15.9423 14.7086 22.3069 18.5373C23.0821 19.0031 22.4133 24.3239 22.6819 23.8972C23.9298 21.9058 25.302 15.4551 24.1791 10.1147" transform="translate(24.16979 3.827591)" id="Fill-13" fill="#253368" stroke="none" />
      <path d="M0 0L4.49304 0.971647" transform="translate(30.87714 17.15777)" id="Stroke-15" fill="none" stroke="#253368" stroke-width="0.8748" stroke-linecap="round" stroke-linejoin="round" />
      <path d="M0 0.740769L5.40721 0.0750559" transform="translate(39.57209 17.38898)" id="Stroke-17" fill="none" stroke="#253368" stroke-width="0.8748" stroke-linecap="round" stroke-linejoin="round" />
      <path d="M0 0L0.686123 1.94085L0.436805 8.65182L1.89349 9.41788" transform="translate(35.99401 18.84237)" id="Stroke-19" fill="none" stroke="#DD936F" stroke-width="0.6709716" stroke-linecap="round" stroke-linejoin="round" />
      <path d="M0 1.95308C0 0.874564 0.586396 0 1.31042 0C2.03377 0 2.62083 0.874564 2.62083 1.95308" transform="translate(31.81338 21.01222)" id="Stroke-21" fill="none" stroke="#253368" stroke-width="0.8748" stroke-linecap="round" stroke-linejoin="round" />
      <path d="M0 1.95308C0 0.874564 0.586396 0 1.31042 0C2.03443 0 2.62083 0.874564 2.62083 1.95308" transform="translate(40.7986 21.01222)" id="Stroke-23" fill="none" stroke="#253368" stroke-width="0.8748" stroke-linecap="round" stroke-linejoin="round" />
      <path d="M4.61766 0.115954C2.40177 0.1335 -5.31071e-13 0 -5.24967e-13 0C-5.31071e-13 0 0.329002 2.18973 2.29484 2.17416C4.44821 2.15711 4.61766 0.115954 4.61766 0.115954Z" transform="matrix(0.9993908 -0.0348995 0.0348995 0.9993908 35.46513 29.96835)" id="Stroke-25" fill="#FFFFFF" stroke="#B53026" stroke-width="0.8748" stroke-linecap="round" stroke-linejoin="round" />
      <path d="M0 0.407913L1.31042 0.407913" transform="translate(37.24192 33.73362)" id="Stroke-27" fill="none" stroke="#DD936F" stroke-width="0.6709716" stroke-linecap="round" stroke-linejoin="round" />
      <path d="M1.08534 0.165356C1.0275 -0.0598114 0.766881 -0.0532848 0.717017 0.17433C0.272899 2.18779 -0.761605 7.60894 0.953038 7.73621C2.88642 7.88061 1.61124 2.22042 1.08534 0.165356" transform="translate(46.80838 27.67458)" id="Fill-29" fill="#FFFFFF" stroke="none" />
      <path d="M1.08534 0.165356C1.0275 -0.0598114 0.766881 -0.0532848 0.717017 0.17433C0.272899 2.18779 -0.761605 7.60894 0.953038 7.73621C2.88642 7.88061 1.61124 2.22042 1.08534 0.165356" transform="translate(27.38106 27.67458)" id="Fill-31" fill="#FFFFFF" stroke="none" />
      <path d="M2.62248 46.3588L2.62248 46.3588C-0.0694914 44.1553 -0.801489 39.5932 0.953045 35.9611L15.0492 5.62225C17.3874 0.784412 20.8965 -1.66714 24.482 1.26901C28.0263 4.17008 27.4532 10.62 24.8018 15.1266L11.1525 44.1479C9.11339 47.6136 5.34769 48.5893 2.62248 46.3588" transform="translate(0.2210103 50.42474)" id="Fill-33" fill="#FFC999" stroke="none" />
      <path d="M10.1083 29.5841L0 19.7069L6.1771 5.92437C9.20017 -0.787417 12.926 -0.452929 17.6511 0.550536L17.435 0.832811C21.2678 3.63109 21.4679 11.6939 19.1204 16.3474L10.1083 29.5841Z" transform="translate(8.859632 48.87123)" id="Fill-35" fill="#597EF7" stroke="none" />
      <g id="分组" transform="translate(0 84.27551)">
        <path d="M0 0L23.0273 0L23.0273 25.6536L0 25.6536L0 0Z" transform="translate(0 0.1571278)" id="Clip-38" fill="none" stroke="none" />
        <g clip-path="url(#mask_1)">
          <path d="M22.12 17.541L23.0275 25.6536C23.0275 25.6536 5.82787 18.3308 1.8062 12.3083C-4.71995 2.5364 8.53779 0 8.53779 0L22.12 17.541Z" transform="translate(-0.0001417837 0.1571278)" id="Fill-37" fill="#FFC999" stroke="none" />
        </g>
      </g>
      <path d="M5.05417 5.05322C5.05417 5.05322 2.99514 0 0 0" transform="translate(7.923725 85.34669)" id="Stroke-39" fill="none" stroke="#DD936F" stroke-width="0.5" stroke-linecap="round" stroke-linejoin="round" />
      <path d="M0 0L10.1083 9.87719L11.1382 8.2692" transform="translate(8.859565 68.57782)" id="Stroke-41" fill="none" stroke="#1D39C4" stroke-width="0.6561" stroke-linecap="round" stroke-linejoin="round" />
      <path d="M25.8777 45.2501L25.8777 45.2501C28.4786 42.8875 29.0278 38.2862 27.1303 34.7651L12.9611 5.05195C10.4333 0.360958 5.70889 -1.61986 2.24437 1.52759C-1.1796 4.63833 -0.349866 11.0466 2.4784 15.3885L17.2693 43.554C19.4447 46.8932 23.2449 47.6421 25.8777 45.2501" transform="translate(47.09453 51.5498)" id="Fill-43" fill="#FFC999" stroke="none" />
      <path d="M10.5409 29.1454L20.65 19.2682L14.4722 5.48651C12.2609 0.7327 6.47473 -1.91139 3.38518 1.6399L3.21498 0.394133C-0.618534 3.19241 -0.817988 11.2552 1.52959 15.9087L10.5409 29.1454Z" transform="translate(45.39658 49.96722)" id="Fill-45" fill="#597EF7" stroke="none" />
      <path d="M21.4648 26.4671C21.4768 26.2574 20.0546 78.3298 20.2095 82.0639C20.6311 92.2543 21.6436 93.5931 17.3248 96.5774C16.2185 97.3418 14.4719 96.6688 12.7779 99.2639C8.14056 106.37 1.10714 110.67 0.0354016 106.825C-0.705239 103.206 10.4117 90.8201 11.2527 83.1905C12.1263 75.2656 5.06564 13.9099 9.26748 9.18382C13.4693 4.45856 18.1399 -16.2805 21.4648 26.4671" transform="translate(12.13763 219.3606)" id="Fill-47" fill="#FFC999" stroke="none" />
      <path d="M24.711 12.3442C24.711 12.3442 25.9197 6.7175 24.7076 0C24.7076 0 21.1454 4.42911 18.0791 9.22697C14.5375 14.7664 13.6346 15.0944 13.6346 15.0944C8.97003 17.209 7.75801 13.9473 7.75801 13.9473C7.75801 13.9473 5.3486 18.1953 0.663422 22.9059C-3.53177 27.1237 13.4591 26.83 15.554 21.4244C17.649 16.0195 20.5756 12.7513 20.5756 12.7513L22.2464 20.6289L23.8593 20.4682L24.711 12.3442Z" transform="translate(7.665329 304.7231)" id="Fill-49" fill="#253368" stroke="none" />
      <path d="M26.8599 24.2887L27.0926 100.166L0.00670411 98.891C0.00670411 98.891 -0.112969 64.7161 0.65892 23.8971C0.65892 23.8971 -0.156849 0 13.5709 0C27.298 0 26.8599 24.2887 26.8599 24.2887" transform="translate(10.6917 183.1191)" id="Fill-51" fill="#CCD7EE" stroke="none" />
      <path d="M0.0728518 82.0383C0.764959 49.1361 2.06673 8.5366 4.50739 1.34918C4.50739 1.34918 7.50253 -2.99182 16.4879 3.89945C26.9646 11.9345 26.0152 23.6538 26.0152 23.6538L26.1469 83.1658C25.9328 87.5174 25.5618 101.029 11.8699 101.029C-1.60788 101.029 0.0575603 82.7546 0.0728518 82.0383" transform="translate(11.39418 121.5955)" id="Fill-53" fill="#CCD7EE" stroke="none" />
      <path d="M7.51196e-05 26.4671C-0.0118921 26.2574 1.41022 78.3299 1.25531 82.0639C0.833795 92.2552 -0.178769 93.5931 4.14008 96.5774C5.24639 97.3418 6.99295 96.6688 8.68698 99.2639C13.3243 106.37 20.3577 110.671 21.4295 106.825C22.1701 103.206 11.0532 90.8201 10.2121 83.1905C9.33853 75.2656 16.3992 13.9099 12.1974 9.18382C7.99554 4.45856 3.32498 -16.2805 7.51196e-05 26.4671" transform="translate(42.17236 219.4873)" id="Fill-55" fill="#FFC999" stroke="none" />
      <path d="M0.536214 12.3442C0.536214 12.3442 -0.67248 6.7175 0.539538 0C0.539538 0 4.10179 4.42911 7.16807 9.22697C10.7097 14.7664 11.6126 15.0944 11.6126 15.0944C16.2772 17.209 17.4892 13.9473 17.4892 13.9473C17.4892 13.9473 19.8986 18.1953 24.5838 22.9059C28.779 27.1237 11.7881 26.83 9.69317 21.4244C7.59823 16.0195 4.67157 12.7513 4.67157 12.7513L3.00081 20.6289L1.38722 20.4682L0.536214 12.3442Z" transform="translate(42.86234 304.8498)" id="Fill-57" fill="#253368" stroke="none" />
      <path d="M0.232697 24.2887L0 100.166L27.0859 98.891C27.0859 98.891 27.2056 64.7161 26.4337 23.8971C26.4337 23.8971 27.2495 0 13.5217 0C-0.205438 0 0.232697 24.2887 0.232697 24.2887" transform="translate(38.65539 183.2458)" id="Fill-59" fill="#CCD7EE" stroke="none" />
      <path d="M26.074 82.039C25.3819 49.136 24.0801 8.53727 21.6395 1.34904C21.6395 1.34904 18.6443 -2.99196 9.65891 3.90012C-0.817763 11.9344 0.130975 23.6545 0.130975 23.6545L0 83.1665C0.214081 87.5173 0.585066 101.03 14.2769 101.03C27.7547 101.03 26.0886 82.7553 26.074 82.039" transform="translate(38.98277 125.2705)" id="Fill-61" fill="#CCD7EE" stroke="none" />
      <path d="M47.9861 28.7896C47.9861 28.7896 47.1936 9.95388 36.9183 0.124821L9.45547 0C9.45547 0 0 10.3422 0 29.7083C0 29.7083 4.8022 30.8455 10.3796 35.2983C14.0177 38.2026 18.0845 42.1887 24.4405 42.1887C30.9207 42.1887 34.3208 38.5697 38.002 35.6042C43.4678 31.202 47.9861 28.7896 47.9861 28.7896" transform="translate(14.13307 106.7886)" id="Fill-63" fill="#CCD7EE" stroke="none" />
      <path d="M0 5.20578L27.6903 5.01651L26.4696 0L1.40482 0.0350805L0 5.20578Z" transform="translate(23.45211 101.8967)" id="Fill-65" fill="#CCD7EE" stroke="none" />
      <path d="M0 0.407913L25.7974 0.407913" transform="translate(24.47379 101.5239)" id="Stroke-67" fill="none" stroke="#DD936F" stroke-width="0.6709716" stroke-linecap="round" stroke-linejoin="round" />
      <path d="M25.965 0.407913L0 0.407913" transform="translate(24.29634 106.4244)" id="Stroke-69" fill="none" stroke="#A3B5D6" stroke-width="0.6561" stroke-linecap="round" stroke-linejoin="round" />
      <path d="M0.332424 0L0.332424 45.5344" transform="translate(37.36752 101.8115)" id="Stroke-71" fill="none" stroke="#A3B5D6" stroke-width="0.6561" stroke-linecap="round" stroke-linejoin="round" />
      <path d="M37.6452 7.83681C32.5245 5.37792 28.7143 7.38892 27.0375 5.54027C26.0462 4.44624 26.1307 0 26.1307 0L13.7651 0C13.7651 0 14.0311 4.01875 13.0405 5.11277C11.3637 6.96143 7.42648 5.1038 2.80712 8.17538C-1.55495 11.0748 -0.0204776 20.9308 1.97673 27.5153C2.43813 29.0376 1.64164 31.9069 2.41287 34.024C3.18941 36.1533 4.36885 38.7329 4.8369 40.1108C6.37469 44.6387 6.05889 49.5165 7.05085 53.625C7.05085 53.625 5.4705 57.377 7.96501 58.9001L31.9301 58.9001C34.9226 57.2236 32.8443 53.625 32.8443 53.625C33.7917 49.7041 33.2159 46.542 34.6201 40.7994C34.9013 39.6515 35.9564 37.8314 36.8566 35.4019C38.2608 31.6116 37.6053 27.9746 37.7928 27.056C39.4336 19.0038 42.085 9.96938 37.6452 7.83681" transform="translate(17.54374 43.0988)" id="Fill-73" fill="#597EF7" stroke="none" />
      <path d="M0 0L7.50879 1.13155" transform="translate(33.37258 50.09392)" id="Stroke-75" fill="none" stroke="#1D39C4" stroke-width="0.6561" stroke-linecap="round" stroke-linejoin="round" />
      <path d="M1.9452 0C1.9452 0 -0.44293 6.16763 0.0729923 12.9781C0.293057 15.88 1.18661 18.1643 2.77759 21.3363C2.77759 21.3363 4.41777 32.7709 4.89846 34.9915C3.72367 37.5565 4.93569 40.1051 5.81262 40.2667L29.8562 40.2667C29.8562 40.2667 32.0834 38.9352 30.6919 34.9915C31.9997 26.6457 32.5701 21.6422 32.5701 21.6422C34.6484 17.9465 35.5014 15.0773 35.6404 11.9445C35.9223 5.55984 33.4025 0.305934 33.4025 0.305934" transform="translate(19.69646 61.73215)" id="Stroke-77" fill="none" stroke="#1D39C4" stroke-width="0.6561" stroke-linecap="round" stroke-linejoin="round" />
      <path d="M0 0.407913L29.5764 0.407913" transform="translate(22.20326 73.0394)" id="Stroke-79" fill="none" stroke="#1D39C4" stroke-width="0.6561" stroke-linecap="round" stroke-linejoin="round" />
      <path d="M1.43408 17.1927L0 25.6242C0 25.6242 18.4841 19.4786 23.0616 13.5198C30.4913 3.84906 16.7289 0 16.7289 0L1.43408 17.1927Z" transform="translate(50.47081 83.8946)" id="Fill-81" fill="#FFC999" stroke="none" />
      <path d="M0.101608 5.24643C0.101608 5.24643 2.884 0.163026 4.08604 0.00883484C5.94895 -0.229386 5.45629 4.42897 5.45629 4.42897C5.45629 4.42897 7.22944 5.28722 6.57989 7.75836C7.60109 9.72939 6.81325 11.0053 6.81325 11.0053C6.81325 11.0053 8.10771 12.3686 6.88838 14.0622C5.66971 15.7551 2.31888 16.2185 2.32951 13.2937C0.746511 12.0798 1.56893 10.2572 1.56893 10.2572C1.56893 10.2572 0.360234 9.02533 1.19395 7.2762C0.120889 6.85687 -0.184941 5.77998 0.101608 5.24643" transform="translate(48.33038 94.94183)" id="Fill-83" fill="#FFC999" stroke="none" />
      <path d="M0 3.38812L3.06561 0" transform="translate(49.52439 98.83015)" id="Stroke-85" fill="none" stroke="#DD936F" stroke-width="0.5" stroke-linecap="round" stroke-linejoin="round" />
      <path d="M3.08024 12.9855L2.72721 10.9965C2.72721 10.9965 3.66664 9.76216 2.49385 7.74952C3.19858 5.72383 1.37025 4.42014 1.37025 4.42014C1.37025 4.42014 2.0464 0.230878 0 0" transform="translate(52.41642 94.95074)" id="Stroke-87" fill="none" stroke="#DD936F" stroke-width="0.5" stroke-linecap="round" stroke-linejoin="round" />
      <path d="M3.168 0L0 2.03059" transform="translate(49.89944 103.1683)" id="Stroke-89" fill="none" stroke="#DD936F" stroke-width="0.5" stroke-linecap="round" stroke-linejoin="round" />
      <path d="M3.12146 0L0 1.55741" transform="translate(50.66016 106.6782)" id="Stroke-91" fill="none" stroke="#DD936F" stroke-width="0.5" stroke-linecap="round" stroke-linejoin="round" />
      <path d="M0 5.05322C0 5.05322 2.72388 0 5.71902 0" transform="translate(61.26308 86.004)" id="Stroke-93" fill="none" stroke="#DD936F" stroke-width="0.5" stroke-linecap="round" stroke-linejoin="round" />
      <path d="M11.1382 0L1.02918 9.87719L0 8.2692" transform="translate(54.90807 69.23553)" id="Stroke-95" fill="none" stroke="#1D39C4" stroke-width="0.6561" stroke-linecap="round" stroke-linejoin="round" />
      <path d="M7.30988 5.24643C7.30988 5.24643 4.52749 0.163026 3.32544 0.00883484C1.46254 -0.229386 1.95519 4.42897 1.95519 4.42897C1.95519 4.42897 0.182043 5.28722 0.830935 7.75836C-0.189607 9.72939 0.598238 11.0053 0.598238 11.0053C0.598238 11.0053 -0.696221 12.3686 0.52311 14.0622C1.74178 15.7551 5.09261 16.2185 5.08197 13.2937C6.66431 12.0798 5.84189 10.2572 5.84189 10.2572C5.84189 10.2572 7.05059 9.02533 6.21687 7.2762C7.2906 6.85687 7.59576 5.77998 7.30988 5.24643" transform="translate(19.99244 94.94183)" id="Fill-97" fill="#FFC999" stroke="none" />
      <path d="M3.06495 3.38812L0 0" transform="translate(23.14462 98.83015)" id="Stroke-99" fill="none" stroke="#DD936F" stroke-width="0.5" stroke-linecap="round" stroke-linejoin="round" />
      <path d="M0.00352095 12.9855L0.356555 10.9965C0.356555 10.9965 -0.58354 9.76216 0.589252 7.74952C-0.114822 5.72383 1.71351 4.42014 1.71351 4.42014C1.71351 4.42014 1.03736 0.230878 3.08376 0" transform="translate(20.23412 94.95074)" id="Stroke-101" fill="none" stroke="#DD936F" stroke-width="0.5" stroke-linecap="round" stroke-linejoin="round" />
      <path d="M0 0L3.168 2.03059" transform="translate(22.66686 103.1683)" id="Stroke-103" fill="none" stroke="#DD936F" stroke-width="0.5" stroke-linecap="round" stroke-linejoin="round" />
      <path d="M0 0L3.12213 1.55741" transform="translate(21.95235 106.6782)" id="Stroke-105" fill="none" stroke="#DD936F" stroke-width="0.5" stroke-linecap="round" stroke-linejoin="round" />
    </g>
  </g>
</svg>
