<?xml version="1.0" encoding="utf-8"?>
<svg width="89px" height="361px" viewBox="0 0 89 361" version="1.1" xmlns:xlink="http://www.w3.org/1999/xlink" xmlns="http://www.w3.org/2000/svg">
  <desc>Created with Lunacy</desc>
  <defs>
    <path d="M0 0L20.1498 0L20.1498 7.68818L0 7.68818L0 0Z" transform="translate(0.266646 0.09133918)" id="path_1" />
    <clipPath id="mask_1">
      <use xlink:href="#path_1" />
    </clipPath>
  </defs>
  <g id="1.人物组件/9.互联网人群/站立/自信" transform="matrix(0.9993908 0.0348995 -0.0348995 0.9993908 13.09595 0.6367188)">
    <g id="分组" transform="translate(0.3112216 0.2550661)">
      <path d="M0.299679 0L17.303 0.0382599L18.8815 60.7613L9.4776 69.8397L0.379974 68.5801C0.379974 68.5801 -0.418621 10.5391 0.299679 0" transform="translate(2.904535 198.3414)" id="Fill-1" fill="#FF7A46" stroke="none" />
      <path d="M0.751911 1.89782C0.751911 1.89782 1.10608 20.8717 1.29095 29.9286C1.46212 38.2761 0 81.3981 0 81.3981L9.18602 81.8672C9.18602 81.8672 13.4616 54.6162 14.2353 41.0607C14.7463 32.104 15.1272 1.86338 15.1272 1.86338C15.1272 1.86338 2.93295 -2.35209 0.751911 1.89782" transform="translate(1.979432 88.03197)" id="Fill-3" fill="#FFC999" stroke="none" />
      <path d="M49.8558 28.5365L27.644 41.7155C27.644 41.7155 22.1714 43.8696 18.3104 41.0751C12.2578 36.6913 3.83052 28.6001 0 26.0099C0.543393 9.07219 4.97519 0 4.97519 0L43.1254 0.335157C43.1254 0.335157 48.1118 5.64487 49.8558 28.5365" transform="translate(14.2992 134.3494)" id="Fill-5" fill="#597EF7" stroke="none" />
      <path d="M0.0518564 42.4913C0.0518564 42.4913 -0.67329 15.0306 3.29977 8.67562C7.89526 -0.366727 17.8824 0.00209819 17.8824 0.00209819L16.8385 44.8228C16.8385 44.8228 7.67679 45.2345 0.0518564 42.4913" transform="translate(2.197405 54.60858)" id="Fill-7" fill="#CCD7EE" stroke="none" />
      <path d="M4.80215 80.9245C15.0706 81.7831 42.5957 81.6094 42.5957 81.6094C45.6593 80.2572 44.9049 72.4438 44.9049 72.4438L50.093 10.7719C50.093 10.7719 43.3052 5.5471 32.6434 1.59791C21.3255 -2.59385 8.08243 2.1412 0 7.95212L0.365997 26.2801C0.365997 26.2801 1.19758 56.2346 4.02223 69.2851C1.26792 76.1045 4.80215 80.9245 4.80215 80.9245" transform="translate(14.5625 48.47055)" id="Fill-9" fill="#CCD7EE" stroke="none" />
      <path d="M26.5491 5.89738C26.5491 5.89738 27.0389 26.1591 23.0236 36.8328C21.615 40.5754 19.386 42.7432 15.3065 42.366C6.45972 41.5472 0 1.71557 0 1.71557L8.0955 0L13.9085 11.82L26.5491 5.89738Z" transform="translate(46.39008 87.69556)" id="Fill-11" fill="#FFC999" stroke="none" />
      <path d="M17.5625 0C17.5625 0 3.51643 3.72346 0.432841 14.6551C-1.15128 20.2755 1.84828 48.9184 5.60721 82.1364C6.2421 87.7484 6.54586 90.9431 7.20689 96.8137C10.2432 123.777 13.0628 140.43 15.1978 171.059C8.69391 191.384 26.141 186.766 26.9906 183.234C27.5284 180.998 26.0918 165.66 26.0918 165.66C26.0918 165.66 25.6661 159.164 25.9505 148.389C26.5288 126.421 27.196 97.989 23.8722 78.5445C17.5942 41.8166 26.8139 31.6195 17.5625 0" transform="translate(42.3066 157.9084)" id="Fill-13" fill="#FFC999" stroke="none" />
      <path d="M10.5963 7.16376C5.89807 15.9092 7.93719 39.0006 11.2144 80.0237C13.5074 108.729 16.8226 161.895 16.8226 161.895C16.8226 161.895 18.2243 176.832 7.94279 181.285C3.34294 183.276 -1.07205 191.462 0.231967 193.35C2.40243 196.495 16.263 192.529 23.1958 184.101C26.5725 183.978 30.1236 183.326 29.9082 180.279C28.1311 155.168 30.0632 137.955 30.2966 112.675C30.39 102.621 28.8525 91.5789 28.8949 82.6093C29.0418 51.3777 28.5077 17.5429 28.5077 17.5429C28.5077 17.5429 21.7828 -13.6611 10.5963 7.16376" transform="translate(7.393399 152.8467)" id="Fill-15" fill="#FFC999" stroke="none" />
      <path d="M25.3863 4.74564C25.3863 4.74564 11.1822 -12.583 0 18.986C1.4534 35.4041 5.1003 59.6417 5.1003 59.6417C5.1003 59.6417 16.4873 63.2603 29.9134 57.5971C26.7346 14.1216 25.3863 4.74564 25.3863 4.74564" transform="translate(38.25262 154.3905)" id="Fill-17" fill="#597EF7" stroke="none" />
      <path d="M25.0302 61.7994C14.4667 66.1067 1.64254 62.5899 1.64254 62.5899C1.37986 51.3766 -1.32465 40.2438 0.822778 5.09975C15.899 -10.7842 24.0063 15.5095 24.0063 15.5095L25.0302 61.7994Z" transform="translate(13.6715 150.9552)" id="Fill-19" fill="#597EF7" stroke="none" />
      <path d="M17.0338 24.3302C21.7557 23.5719 19.0281 15.1998 17.1135 6.36255C16.5296 3.66752 16.5645 4.41206 15.8717 1.96495C14.9007 -1.46696 3.00953 0.126946 3.09481 2.71026C3.26038 7.68787 1.94764 12.0748 1.94764 12.0748C-0.0877459 15.9359 -0.959167 21.4224 1.48455 23.4234C7.84903 28.6367 17.0338 24.3302 17.0338 24.3302" transform="translate(53.43624 328.1673)" id="Fill-21" fill="#4E5C93" stroke="none" />
      <path d="M36.6327 12.7764C36.6327 12.7764 25.9653 16.5243 22.3813 18.8015C18.796 21.0788 8.09745 27.1613 0.793705 21.4154C-0.334784 19.9654 -0.0764705 18.2116 0.443892 16.8449C0.938735 15.5448 1.83754 14.5463 2.92993 14.0382C6.23946 12.5016 14.1513 8.85089 18.0727 1.19125C18.5315 0.294438 19.3848 -0.158559 20.2295 0.0503398C21.2522 0.30362 22.5836 0.867572 23.5558 2.11714C24.3656 3.15858 22.2649 7.29753 23.1326 7.45516C25.5172 7.88827 29.4852 6.92412 31.9931 4.75784C34.0932 2.94279 35.1059 1.09866 35.1059 1.09866C35.1059 1.09866 37.5807 8.52262 36.6327 12.7764" transform="translate(1.673286 326.52)" id="Fill-23" fill="#4E5C93" stroke="none" />
      <path d="M0 20.6158C0 20.6158 1.01645 24.9545 9.25137 25.1817C17.6618 25.4144 20.0259 20.7382 20.0259 20.7382L18.0004 19.6761C18.0004 19.6761 17.4963 12.3792 17.218 1.73223C8.05317 -1.96903 1.73911 1.41238 1.73911 1.41238C1.73911 1.41238 1.93206 12.4442 1.93144 19.6639C1.93144 19.6639 0.868308 20.2814 0 20.6158" transform="translate(27.43089 29.48113)" id="Fill-25" fill="#FFC999" stroke="none" />
      <path d="M22.5857 16.152C22.5857 16.152 23.0475 0.372113 13.3654 0.0162958C1.67098 -0.412215 1.15684 7.71955 0.452855 11.5249C-0.295322 15.5674 -0.999305 32.5311 6.07352 36.0089C9.07432 37.2233 10.9317 37.8997 16.0096 34.1748C23.3974 28.7548 22.5857 16.152 22.5857 16.152" transform="translate(24.43274 6.989554)" id="Fill-27" fill="#FFC999" stroke="none" />
      <path d="M0 10.7118L0.0217855 1.87531C0.0217855 1.87531 5.54161 -2.44882 6.24746 2.03524C6.96701 6.6073 4.44736 9.8395 2.10822 10.9796C0.604392 11.7127 0 10.7118 0 10.7118" transform="translate(44.32985 24.1738)" id="Fill-29" fill="#FFC999" stroke="none" />
      <path d="M23.5895 4.22081C23.5895 4.22081 17.4865 -0.647383 14.6942 0.0726691C11.9025 0.792721 14.1676 3.39057 14.1676 3.39057C14.1676 3.39057 6.37211 2.01474 5.70859 4.18714C5.04568 6.3603 7.86597 7.29155 7.86597 7.29155C7.86597 7.29155 0.319472 10.1473 0.0182094 12.9571C-0.283676 15.7661 3.26799 15.0262 3.26799 15.0262C3.26799 15.0262 0.650612 19.1177 1.56809 21.4638C2.48557 23.8107 4.23277 23.477 4.23277 23.477L5.51999 26.6036L5.80693 19.9166C5.80693 19.9166 8.50273 18.3724 13.4729 15.2251C10.5039 19.182 12.3911 19.1299 14.9313 18.4191C17.9085 17.5858 21.3805 16.2008 21.2012 16.099C21.2012 16.099 21.3705 20.44 23.7638 22.3529C26.6999 24.699 24.7348 29.7631 25.4973 29.959C26.965 30.3508 26.6762 25.4734 29.4641 24.5391C31.6508 24.2659 31.9439 20.9534 31.3109 19.8576C34.1935 19.2784 34.0129 15.6192 30.2204 12.5584C33.4528 11.9348 31.3738 8.3261 26.5293 6.94568C27.9049 0.336663 23.5895 4.22081 23.5895 4.22081" transform="translate(19.06814 0.0001012437)" id="Fill-31" fill="#253368" stroke="none" />
      <path d="M6.08097 1.38686C5.42014 0.422631 3.08465 -0.721307 -3.44661e-13 0.593194" transform="matrix(0.9902681 -0.1391731 0.1391731 0.9902681 34.56772 22.07223)" id="Stroke-33" fill="none" stroke="#253368" stroke-width="1.2312" stroke-linecap="round" stroke-linejoin="round" />
      <path d="M2.38334 9.09821L0.260181 8.57252L0.499822 1.85484L0 0" transform="translate(31.03981 22.95006)" id="Stroke-35" fill="none" stroke="#DD936F" stroke-width="0.6090336" stroke-linecap="round" stroke-linejoin="round" />
      <path d="M3.2977 0.719353C3.2977 0.719353 1.84181 -0.880675 0 0.748431" transform="translate(36.27083 26.00765)" id="Stroke-37" fill="none" stroke="#253368" stroke-width="0.8208" stroke-linecap="round" stroke-linejoin="round" />
      <path d="M2.80348 0.644917C2.80348 0.644917 1.14281 -0.748508 0 0.718376" transform="translate(27.01628 26.07313)" id="Stroke-39" fill="none" stroke="#253368" stroke-width="0.8208" stroke-linecap="round" stroke-linejoin="round" />
      <path d="M6.45162 0C6.45162 0 3.16388 1.01924 0 0.527987C0 0.527987 0.891961 2.85189 3.11408 2.76925C5.91944 2.66442 6.45162 0 6.45162 0" transform="translate(30.28311 33.41354)" id="Fill-41" fill="#FFFFFF" stroke="none" />
      <path d="M6.45162 0C6.45162 0 3.16388 1.01924 0 0.527987C0 0.527987 0.891961 2.85189 3.11408 2.76925C5.91944 2.66442 6.45162 0 6.45162 0Z" transform="translate(30.28311 33.41354)" id="Stroke-43" fill="none" stroke="#FF7A46" stroke-width="0.6943968" stroke-linecap="round" stroke-linejoin="round" />
      <path d="M0 0C0 0 3.75769 3.37835 9.23083 0.573899" transform="translate(29.45445 42.50248)" id="Stroke-45" fill="none" stroke="#DD936F" stroke-width="0.6090336" stroke-linecap="round" stroke-linejoin="round" />
      <path d="M1.57976 0.332478L0 0.432719" transform="translate(32.95146 37.74915)" id="Stroke-47" fill="none" stroke="#DD936F" stroke-width="0.6090336" stroke-linecap="round" stroke-linejoin="round" />
      <path d="M3.15703 0.201924C3.15703 0.201924 2.20656 -0.706367 1.24924 1.32983C0.291303 3.36602 1.20069 1.94122 1.6308 3.151C2.06091 4.36154 0.93491 5.10914 0 5.13286" transform="translate(46.02775 26.58262)" id="Stroke-49" fill="none" stroke="#DD936F" stroke-width="0.6090336" stroke-linecap="round" stroke-linejoin="round" />
      <path d="M4.05269 40.7437L16.918 39.1735C16.918 39.1735 17.0574 10.1403 11.0682 3.06988C4.09003 -5.16825 0.0329485 5.78251 0.0329485 5.78251C0.0329485 5.78251 -0.232212 11.8092 0.741911 22.4669C1.44652 30.1862 2.14863 36.3981 2.48289 39.237C2.59306 40.1766 3.28521 40.837 4.05269 40.7437" transform="translate(56.49897 58.33645)" id="Fill-51" fill="#CCD7EE" stroke="none" />
      <path d="M16.6184 26.0053C16.6184 26.0053 16.9197 2.49154 12.2744 2.36299C10.2396 -1.19595 9.7566 0.634406 9.7566 0.634406C9.7566 0.634406 7.83885 -1.07811 7.49837 1.12413C5.55697 0.702508 6.26531 4.16962 7.47908 8.08208C8.47748 11.2982 7.10188 15.8297 6.05306 15.8006C5.00424 15.7716 2.60348 10.595 0.232593 13.0895C-0.931376 14.3154 2.58667 15.5512 3.86144 19.6419C5.1362 23.7319 6.19435 28.1525 9.16777 29.5245C12.1424 30.8972 16.578 28.2167 16.6184 26.0053" transform="translate(38.08694 61.33672)" id="Fill-53" fill="#FFC999" stroke="none" />
      <path d="M0.690207 0C0.690207 0 0.0708765 1.09347 0.967817 3.12966C1.866 5.16585 1.89588 9.90779 1.87534 11.0564C1.85418 12.2049 -1.4205 18.7236 0.733156 22.3744" transform="translate(49.67081 63.6994)" id="Stroke-55" fill="none" stroke="#DD936F" stroke-width="0.6090336" stroke-linecap="round" stroke-linejoin="round" />
      <path d="M0.249629 0C0.249629 0 -0.459334 0.647358 0.5123 2.7769C1.97317 5.97773 1.88416 10.8597 2.08895 12.4467" transform="translate(47.5936 61.97097)" id="Stroke-57" fill="none" stroke="#DD936F" stroke-width="0.6090336" stroke-linecap="round" stroke-linejoin="round" />
      <path d="M0 0C0 0 0.187356 2.07904 1.09052 3.82752C1.99306 5.57677 2.008 11.1795 2.008 11.1795" transform="translate(45.58507 62.46115)" id="Stroke-59" fill="none" stroke="#DD936F" stroke-width="0.6090336" stroke-linecap="round" stroke-linejoin="round" />
      <path d="M0 5.59054L0.453139 0L38.256 0.182883L38.7427 5.51096C38.7427 5.51096 3.85479 5.69767 0 5.59054" transform="translate(18.91543 129.1796)" id="Fill-61" fill="#597EF7" stroke="none" />
      <path d="M1.80379 46.3067C-0.0840789 32.3625 0.000573368 0 0.000573368 0" transform="translate(34.37778 129.5943)" id="Stroke-63" fill="none" stroke="#1D39C4" stroke-width="0.6156" stroke-linecap="round" stroke-linejoin="round" />
      <path d="M4.93473 0C4.93473 0 5.65614 20.2724 5.54597 26.3037C5.46692 30.6118 0 31.3226 0 31.3226" transform="translate(35.18149 135.356)" id="Stroke-65" fill="none" stroke="#1D39C4" stroke-width="0.6156" stroke-linecap="round" stroke-linejoin="round" />
      <path d="M0 0L10.9245 3.31867L15.8592 40.2341C15.8592 40.2341 26.8802 44.7052 40.6729 38.1895" transform="translate(27.49351 173.7983)" id="Stroke-67" fill="none" stroke="#1D39C4" stroke-width="0.6156" stroke-linecap="round" stroke-linejoin="round" />
      <path d="M0.147984 7.67495C0.147984 7.67495 1.83232 11.5247 9.89731 10.6776C17.9629 9.83051 21.5837 5.26304 25.8076 4.37617C33.6603 2.72793 37.0215 0 37.0215 0C37.0215 0 37.4691 1.45541 36.8497 3.47247C35.8937 6.58301 28.4411 5.86831 24.1208 8.55416C20.9949 10.4978 18.5418 11.6257 13.2884 13.3527C8.03558 15.0805 1.31195 13.4576 0.480991 11.2943C-0.349971 9.13189 0.147984 7.67495 0.147984 7.67495" transform="translate(1.516554 338.5)" id="Fill-69" fill="#96A7CA" stroke="none" />
      <path d="M9.12626 28.201C9.12626 28.201 1.90219 28.6027 1.52934 26.2084C0.0858972 16.9151 0 5.70876 0 5.70876C0 5.70876 0.553352 0.604885 3.67366 0.0371079C6.61906 -0.498531 9.20407 4.86704 10.9457 9.51256C13.2954 15.7795 11.7934 19.591 11.8109 26.5099C11.8158 28.7076 11.4816 29.9281 9.12626 28.201" transform="translate(2.063337 163.5054)" id="Fill-71" fill="#FFC999" stroke="none" />
      <g id="分组" transform="translate(52.90768 347.9115)">
        <path d="M0 0L20.1498 0L20.1498 7.68818L0 7.68818L0 0Z" transform="translate(0.266646 0.09133918)" id="Clip-74" fill="none" stroke="none" />
        <g clip-path="url(#mask_1)">
          <path d="M0.472132 0.601446C0.472132 0.601446 9.95381 6.33661 19.9359 0C20.6804 3.7862 19.9409 7.52726 10.1275 7.68489C5.10933 7.76523 2.32764 6.39706 0.897261 5.33267C-0.57793 4.23461 0.132278 1.61227 0.472132 0.601446" transform="translate(0.266646 0.09133918)" id="Fill-73" fill="#96A7CA" stroke="none" />
        </g>
      </g>
      <path d="M0 36.441C0 36.441 13.4815 40.5486 23.0503 34.9229L22.637 0" transform="translate(15.31391 177.1042)" id="Stroke-75" fill="none" stroke="#1D39C4" stroke-width="0.6156" stroke-linecap="round" stroke-linejoin="round" />
      <path d="M0 3.20389L8.82376 0" transform="translate(27.00115 178.3383)" id="Stroke-77" fill="none" stroke="#1D39C4" stroke-width="0.6156" stroke-linecap="round" stroke-linejoin="round" />
      <path d="M0 0.257573C0 0.257573 27.5294 -0.131147 38.7346 0.609564" transform="translate(18.91543 134.5126)" id="Stroke-79" fill="none" stroke="#1D39C4" stroke-width="0.6156" stroke-linecap="round" stroke-linejoin="round" />
      <path d="M0 0C0 0 2.2327 12.1299 7.10706 13.9878" transform="translate(52.373 136.1257)" id="Stroke-81" fill="none" stroke="#1D39C4" stroke-width="0.6156" stroke-linecap="round" stroke-linejoin="round" />
      <path d="M0 0C0 0 4.52828 9.15789 6.30037 27.3092C7.49858 39.5814 9.59185 77.3967 9.59185 77.3967" transform="translate(55.39646 135.7962)" id="Stroke-83" fill="none" stroke="#1D39C4" stroke-width="0.6156" stroke-linecap="round" stroke-linejoin="round" />
      <path d="M0 1.95585C0 1.95585 16.0802 4.55447 22.825 0" transform="translate(44.7584 205.5067)" id="Stroke-85" fill="none" stroke="#1D39C4" stroke-width="0.6156" stroke-linecap="round" stroke-linejoin="round" />
      <path d="M0 0.692504C0 0.692504 10.0911 4.85058 21.7494 0" transform="translate(16.37461 205.9861)" id="Stroke-87" fill="none" stroke="#1D39C4" stroke-width="0.6156" stroke-linecap="round" stroke-linejoin="round" />
      <path d="M0 0C0 0 0.0186733 24.5675 4.10564 43.461C4.10564 43.461 0.325538 50.3049 4.54072 55.2948C4.54072 55.2948 30.5153 54.7943 42.4525 55.91" transform="translate(14.82766 73.88534)" id="Stroke-89" fill="none" stroke="#96A7CA" stroke-width="0.8208" stroke-linecap="round" stroke-linejoin="round" />
      <path d="M0 0C0 0 7.63053 2.31166 13.9707 2.9001" transform="translate(2.249261 97.09985)" id="Stroke-91" fill="none" stroke="#96A7CA" stroke-width="0.8208" stroke-linecap="round" stroke-linejoin="round" />
      <path d="M0 1.72782C0 1.72782 9.66094 8.11034 20.3271 0" transform="translate(28.05153 54.12378)" id="Stroke-93" fill="none" stroke="#96A7CA" stroke-width="0.8208" stroke-linecap="round" stroke-linejoin="round" />
      <path d="M0 0C0 0 7.71145 9.48005 20.6016 0.0749895" transform="translate(27.11662 50.39359)" id="Stroke-95" fill="none" stroke="#96A7CA" stroke-width="0.8208" stroke-linecap="round" stroke-linejoin="round" />
      <path d="M0 1.5457L13.3545 0" transform="translate(60.06236 97.50969)" id="Stroke-97" fill="none" stroke="#96A7CA" stroke-width="0.8208" stroke-linecap="round" stroke-linejoin="round" />
      <path d="M0 0C0 0 9.86697 18.4275 11.8134 22.1992" transform="translate(54.69011 88.88735)" id="Stroke-99" fill="none" stroke="#DD936F" stroke-width="0.6090336" stroke-linecap="round" stroke-linejoin="round" />
      <path d="M4.62786 0C4.62786 0 3.02196 11.162 0 10.2169" transform="translate(16.7962 134.9831)" id="Stroke-101" fill="none" stroke="#1D39C4" stroke-width="0.6156" stroke-linecap="round" stroke-linejoin="round" />
      <path d="M2.10279 1.03498C2.09221 1.59051 1.61355 2.02744 1.03281 2.01061C0.452694 1.9953 -0.0104037 1.53159 0.000177786 0.976823C0.0107593 0.421289 0.488795 -0.0156398 1.07016 0.000429401C1.65027 0.0164986 2.11275 0.479444 2.10279 1.03498" transform="translate(36.14915 130.8216)" id="Fill-103" fill="#1D39C4" stroke="none" />
      <path d="M3.24427 0C3.24427 0 0.68043 6.35957 0.000721908 22.4341C-0.021686 22.9659 0.481871 24.3838 0.910734 24.3203C2.1413 24.139 2.22596 22.0477 2.22596 22.0477C2.22596 22.0477 2.19483 9.45326 4.58253 3.48548C4.96097 1.98722 3.24427 0 3.24427 0" transform="translate(5.320608 183.1884)" id="Fill-105" fill="#4E5C93" stroke="none" />
      <path d="M0 0C0 0 2.62858 0.0726939 3.24666 4.61491C3.86475 9.1579 5.15321 10.0394 6.20451 10.0677" transform="translate(6.656844 182.0585)" id="Stroke-107" fill="none" stroke="#DD936F" stroke-width="0.6090336" stroke-linecap="round" stroke-linejoin="round" />
      <path d="M0 0.0114778C0 0.0114778 3.23297 2.28256 9.46301 0" transform="translate(4.482525 342.8097)" id="Stroke-109" fill="none" stroke="#96A7CA" stroke-width="0.7641648" stroke-linecap="round" stroke-linejoin="round" />
      <path d="M0 0C0 0 2.62298 0.483608 3.82367 2.44635" transform="translate(17.35447 331.5413)" id="Stroke-111" fill="none" stroke="#96A7CA" stroke-width="0.8208" stroke-linecap="round" stroke-linejoin="round" />
      <path d="M0 1.39189C0 1.39189 3.20185 4.3333 8.26916 3.35156C13.3377 2.36828 13.3004 0 13.3004 0" transform="translate(56.55078 342.4029)" id="Stroke-113" fill="none" stroke="#96A7CA" stroke-width="0.8208" stroke-linecap="round" stroke-linejoin="round" />
      <path d="M0 0.633321C0 0.633321 6.87302 -0.846572 9.46487 0.754987" transform="translate(58.51658 334.4694)" id="Stroke-115" fill="none" stroke="#96A7CA" stroke-width="0.8208" stroke-linecap="round" stroke-linejoin="round" />
      <path d="M1.98497 0C1.98497 0 0.945491 3.27964 0 4.12289" transform="translate(42.34488 34.88562)" id="Stroke-117" fill="none" stroke="#DD936F" stroke-width="0.6090336" stroke-linecap="round" stroke-linejoin="round" />
      <path d="M4.67579 0.908536C4.05511 0.477877 3.49738 0.223062 2.99621 0.0975488C1.60963 -0.249705 0.655981 0.39278 0 1.03938" transform="translate(26.1232 21.97577)" id="Stroke-119" fill="none" stroke="#253368" stroke-width="1.2312" stroke-linecap="round" stroke-linejoin="round" />
      <path d="M12.5578 69.9659L10.9152 0.238742L2.26943 0L0 68.4837L12.5578 69.9659Z" transform="translate(0.0001244887 198.2185)" id="Fill-121" fill="#FAAD14" stroke="none" />
    </g>
  </g>
</svg>
