<?xml version="1.0" encoding="utf-8"?>
<svg width="125px" height="352px" viewBox="0 0 125 352" version="1.1" xmlns:xlink="http://www.w3.org/1999/xlink" xmlns="http://www.w3.org/2000/svg">
  <desc>Created with Lunacy</desc>
  <defs>
    <path d="M0 0L28.6471 0L28.6471 26.5815L0 26.5815L0 0Z" transform="translate(0.08480327 0.307548)" id="path_1" />
    <path d="M0 0L25.8114 0L25.8114 34.5207L0 34.5207L0 0Z" transform="translate(0.1491088 0.295321)" id="path_2" />
    <path d="M0 0L34.5852 0L34.5852 36.64L0 36.64L0 0Z" transform="translate(0 0.2213378)" id="path_3" />
    <clipPath id="mask_1">
      <use xlink:href="#path_1" />
    </clipPath>
    <clipPath id="mask_2">
      <use xlink:href="#path_2" />
    </clipPath>
    <clipPath id="mask_3">
      <use xlink:href="#path_3" />
    </clipPath>
  </defs>
  <g id="1.人物组件/3.商务经理/站立/自信" transform="matrix(0.9993908 0.0348995 -0.0348995 0.9993908 12.53638 0.4262085)">
    <g id="分组" transform="translate(0.1315646 0.1886949)">
      <path d="M16.5644 3.19002C16.5644 3.19002 12.7017 16.4962 2.51651 20.2553C-4.15276 22.7161 3.27018 29.6949 14.9777 25.4196C21.6526 22.9819 19.8409 18.8809 23.6217 18.4284C25.8127 18.1657 30.1123 16.2573 30.1685 14.1938C30.2666 10.5876 30.261 9.57808 30.1835 5.38877C30.0948 0.569495 20.3158 -2.7586 16.5644 3.19002" transform="translate(7.793927 316.4719)" id="Fill-1" fill="#253368" stroke="none" />
      <g id="分组" transform="translate(81.24116 318.626)">
        <path d="M0 0L28.6471 0L28.6471 26.5815L0 26.5815L0 0Z" transform="translate(0.08480327 0.307548)" id="Clip-4" fill="none" stroke="none" />
        <g clip-path="url(#mask_1)">
          <path d="M0 4.24699C0 4.24699 0.659928 10.622 1.10176 12.8907C1.54358 15.1593 2.00041 16.5606 5.52315 17.1814C11.6594 18.2631 10.5564 24.4237 17.535 25.9549C27.0477 28.0415 29.468 24.4921 28.4213 21.5412C27.3739 18.5904 18.3599 15.565 14.1485 3.15376C11.5412 -4.53189 0 4.24699 0 4.24699" transform="translate(0.08480327 0.307548)" id="Fill-3" fill="#253368" stroke="none" />
        </g>
      </g>
      <path d="M0 20.3957C0 20.3957 9.24774 -11.8358 20.3484 4.73784C31.9434 46.2583 41.8942 131.19 48.7628 173.11C43.189 176.39 34.3844 175.162 34.3844 175.162C34.3844 175.162 3.68085 46.4965 0 20.3957" transform="translate(46.94433 148.6671)" id="Fill-5" fill="#4E5C93" stroke="none" />
      <path d="M24.3374 41.6457C24.3374 41.6457 21.9027 42.2204 19.5248 41.035C13.2355 37.9005 1.64863 30.33 0.133799 26.9682C-0.591122 19.3486 1.76487 0.655324 3.94401 0.636886C8.1273 0.601546 22.2845 3.88508 28.1776 2.46227C32.7621 1.35444 38.5459 0 38.5459 0C38.5459 0 40.1413 3.27431 41.2893 6.34735C44.0734 13.7994 43.949 23.5348 43.949 23.5348C43.949 23.5348 27.4364 42.4662 24.3374 41.6457" transform="translate(23.523 130.5177)" id="Fill-7" fill="#4E5C93" stroke="none" />
      <path d="M7.62688 70.21C7.62688 70.21 -2.8176 31.592 0.738258 10.4265C7.04945 6.04973 12.4989 0.916232 25.3181 0.0626975C39.7553 -0.897625 53.5244 9.49152 53.5244 9.49152L51.5977 41.2966L44.6272 66.9987C44.6272 66.9987 51.1753 77.7743 38.1204 80.1328C29.0271 81.7761 15.0586 83.3226 9.25858 79.2824C6.73198 77.5223 6.42014 74.2234 7.62688 70.21" transform="translate(17.77504 47.62161)" id="Fill-9" fill="#ADC6FF" stroke="none" />
      <path d="M18.1807 2.18357C18.1807 2.18357 6.50449 22.9626 0.315791 49.181C-1.54151 57.0487 5.14901 62.5602 11.0915 59.1307C17.034 55.7019 30.6312 16.6575 31.4318 12.4606C32.9935 4.27553 24.5669 -4.06775 18.1807 2.18357" transform="translate(0.1589696 56.29845)" id="Fill-11" fill="#ADC6FF" stroke="none" />
      <path d="M0 17.169L0.454325 5.53991L14.8096 0L16.3295 16.4046C16.3295 16.4046 9.32898 36.47 0 17.169" transform="translate(36.02452 29.74226)" id="Fill-13" fill="#A08889" stroke="none" />
      <path d="M26.4526 20.2306C24.8034 33.5598 17.2598 39.5361 10.0512 39.9487C1.45716 40.4404 -0.438882 31.348 0.0785613 18.187C0.604129 4.8224 5.28487 0.284298 13.3646 0.00849346C21.7874 -0.278835 28.123 6.72921 26.4526 20.2306" transform="translate(29.49653 1.298008)" id="Fill-15" fill="#A08889" stroke="none" />
      <g id="分组" transform="translate(31.2466 0.1359816)">
        <path d="M0 0L25.8114 0L25.8114 34.5207L0 34.5207L0 0Z" transform="translate(0.1491088 0.295321)" id="Clip-18" fill="none" stroke="none" />
        <g clip-path="url(#mask_2)">
          <path d="M18.6105 23.0348C18.8642 21.9946 19.1098 20.2506 20.4696 19.5592C22.3413 18.6066 23.9874 21.2109 23.7187 24.0036C23.3925 27.3877 20.959 29.4336 19.5835 29.4444C19.7179 32.7602 19.9253 34.521 19.9253 34.521C19.9253 34.521 22.9606 30.8503 24.6498 25.1298C27.2852 16.2042 25.6553 3.70542 17.4962 0.83521C4.74698 -3.17279 0 8.54621 0 8.54621L15.802 8.28424L15.3958 14.7768C15.3958 14.7768 18.2124 14.9704 17.6375 22.6545L18.6105 23.0348Z" transform="translate(0.1491088 0.295054)" id="Fill-17" fill="#604346" stroke="none" />
        </g>
      </g>
      <path d="M0 0.0176699L4.91259 0.151347L6.48867 0.750587" transform="translate(38.44244 16.77115)" id="Stroke-19" fill="none" stroke="#604346" stroke-width="0.8240818" stroke-linecap="round" stroke-linejoin="round" />
      <path d="M15.3452 5.80215C13.5354 2.65229 13.6966 -0.161067 6.21932 0.00718109C2.58159 0.0886164 1.30111 1.5606 0 5.13991C0.997392 10.6483 4.65887 14.1208 9.51647 13.6591C19.7216 12.6896 20.1834 0.139321 20.1834 0.139321C20.1834 0.139321 18.7448 0.591825 18.2805 1.53294C16.9975 4.13503 16.1607 4.78651 15.3452 5.80215" transform="translate(30.43412 27.93636)" id="Fill-21" fill="#7F6567" stroke="none" />
      <path d="M0 0.269659C0 0.269659 2.64096 0.464796 6.6849 0C6.6849 0 6.09184 2.0597 3.17715 2.08275C0.889903 2.10119 0 0.269659 0 0.269659" transform="translate(34.11616 30.2785)" id="Fill-23" fill="#FFFFFF" stroke="none" />
      <path d="M0 0.269659C0 0.269659 2.64096 0.464796 6.6849 0C6.6849 0 6.09184 2.0597 3.17715 2.08275C0.889903 2.10119 0 0.269659 0 0.269659Z" transform="translate(34.11616 30.2785)" id="Stroke-25" fill="none" stroke="#604346" stroke-width="0.6180613" stroke-linecap="round" stroke-linejoin="round" />
      <path d="M4.68331 11.1897L0.731241 11.1328C0.270042 11.1267 -0.074296 10.6073 0.0138195 10.0503L1.26681 2.15957L0.786235 0" transform="translate(33.81775 16.73888)" id="Stroke-27" fill="none" stroke="#604346" stroke-width="0.6180613" stroke-linecap="round" stroke-linejoin="round" />
      <path d="M2.81344 0L0 4.46127L4.20079 13.9516L10.5807 6.00547L2.81344 0Z" transform="translate(33.06159 45.7851)" id="Fill-29" fill="#ADC6FF" stroke="none" />
      <path d="M0 6.39421L8.70843 0L11.6819 4.24923L5.90748 13.6212L0 6.39421Z" transform="translate(43.64212 45.39605)" id="Fill-31" fill="#ADC6FF" stroke="none" />
      <path d="M0 6.16834L4.86759 0L9.79956 6.1983L6.99236 13.0058L2.09352 12.9659L0 6.16834Z" transform="translate(38.7769 51.85295)" id="Fill-33" fill="#4E5C93" stroke="none" />
      <path d="M5.18354 0.0384129L10.0224 0L14.6725 42.0145C14.7119 42.3748 14.6369 42.7397 14.4625 43.0332L7.73327 54.3358C7.24957 55.1486 6.24718 55.0895 5.82847 54.2229L0.159715 42.4777C0.0247298 42.1981 -0.0271395 41.8701 0.013481 41.5482L5.18354 0.0384129Z" transform="translate(35.77393 64.67164)" id="Fill-35" fill="#4E5C93" stroke="none" />
      <path d="M0 1.42281L0.027497 6.61393C0.027497 6.61393 4.96508 8.73739 16.7563 9.07619C28.1007 9.40193 35.5649 5.46461 35.5649 5.46461L35.2562 0C35.2562 0 20.9658 6.44645 0 1.42281" transform="translate(26.67985 125.0512)" id="Fill-37" fill="#12183F" stroke="none" />
      <path d="M1.18885 0.0799711C1.18885 0.0799711 16.3066 -1.42966 22.2066 8.66909C23.3052 21.3423 22.449 42.9541 21.5729 71.6247C20.7467 98.6905 15.5754 166.278 15.5754 166.278C15.5754 166.278 8.55055 168.93 1.37383 164.946C2.68432 152.676 0.993876 93.0837 0.202712 73.6445C-0.587827 54.2045 1.18885 0.0799711 1.18885 0.0799711" transform="translate(22.4542 154.8693)" id="Fill-39" fill="#4E5C93" stroke="none" />
      <path d="M5.66657 49.1462C5.66657 49.1462 -0.501504 21.5473 0.0328127 0" transform="translate(19.30814 66.17358)" id="Stroke-41" fill="none" stroke="#597EF7" stroke-width="0.8240818" stroke-linecap="round" stroke-linejoin="round" />
      <path d="M0 0.365306L1.89104 0.402951" transform="translate(36.50665 34.42218)" id="Stroke-43" fill="none" stroke="#604346" stroke-width="0.6180613" stroke-linecap="round" stroke-linejoin="round" />
      <path d="M0 0.600778L4.1733 9.90284L10.5832 2.2072L16.4882 9.37198L22.2626 0" transform="translate(33.06159 49.64559)" id="Stroke-45" fill="none" stroke="#597EF7" stroke-width="0.8240818" stroke-linecap="round" stroke-linejoin="round" />
      <path d="M0 0.400646L4.13455 0.367611" transform="translate(40.95748 64.3094)" id="Stroke-47" fill="none" stroke="#597EF7" stroke-width="0.5" stroke-linecap="round" stroke-linejoin="round" />
      <path d="M0.112906 5.78339L0.00104303 2.01432C-0.0302036 0.95259 0.644723 0.0829219 1.47151 0.125944C3.45379 0.228891 6.95466 0.337983 9.48751 0.00916921C10.3155 -0.0976186 11.0317 0.742087 11.0373 1.8115L11.058 5.66431C11.0623 6.56548 10.5555 7.33066 9.86309 7.47586C8.21765 7.82081 5.04237 8.2472 1.3284 7.52273C0.652222 7.39059 0.139153 6.66151 0.112906 5.78339" transform="translate(37.35858 127.439)" id="Fill-49" fill="#F1F2F6" stroke="none" />
      <path d="M0.0857714 4.09601L0.000780635 1.43015C-0.0229668 0.678797 0.498227 0.062655 1.13628 0.0933853C2.66487 0.164833 5.36645 0.240122 7.31998 0.00657225C7.95929 -0.0694852 8.51111 0.524378 8.51548 1.28034L8.52985 4.00612C8.5336 4.64377 8.14177 5.18539 7.60745 5.28834C6.33822 5.53265 3.88786 5.83611 1.02317 5.32599C0.501351 5.23303 0.105769 4.71753 0.0857714 4.09601" transform="translate(38.65207 128.5999)" id="Fill-51" fill="#12183F" stroke="none" />
      <path d="M0 0.313833L4.17017 0.454424" transform="translate(30.19934 16.28622)" id="Stroke-53" fill="none" stroke="#604346" stroke-width="0.8240818" stroke-linecap="round" stroke-linejoin="round" />
      <path d="M0 1.6602C0 1.6602 4.40827 3.35575 9.20025 0" transform="translate(36.43403 39.5798)" id="Stroke-55" fill="none" stroke="#7C5B4D" stroke-width="0.6180613" stroke-linecap="round" stroke-linejoin="round" />
      <path d="M1.98041 0.0372416C1.98041 0.0372416 0.159358 -0.525123 0 2.72077C1.52671 2.99734 1.29986 4.4409 0.599934 5.16767" transform="translate(51.06681 21.67373)" id="Stroke-57" fill="none" stroke="#7C5B4D" stroke-width="0.6180613" stroke-linecap="round" stroke-linejoin="round" />
      <path d="M32.3228 38.943L4.18027 42.7682C2.97978 42.9318 1.91364 41.8263 1.84115 40.3451L0.00384978 2.85409C-0.0686423 1.36444 0.891878 0.106804 2.10487 0.102195L29.3613 1.6432e-05C30.7761 -0.00536137 31.9635 1.3099 32.1054 3.04001L34.7569 35.2423C34.9082 37.0877 33.822 38.7394 32.3228 38.943" transform="translate(53.92509 140.7838)" id="Fill-59" fill="#FAAD14" stroke="none" />
      <path d="M1.3455 0.00157704L1.55672 4.05219e-05C2.27977 -0.00610554 2.87908 0.687631 2.91845 1.57574L4.64451 41.1356C4.68513 42.0568 4.10894 42.8427 3.36028 42.888C2.61786 42.9341 1.98418 42.2366 1.93981 41.3254L0.00251696 1.76703C-0.0443529 0.813626 0.56933 0.0077231 1.3455 0.00157704" transform="translate(53.87862 140.8815)" id="Fill-61" fill="#FF7A46" stroke="none" />
      <path d="M0 0.439447L2.54222 0.419473L31.5747 0.328817" transform="translate(54.8994 153.4973)" id="Stroke-63" fill="none" stroke="#FF7A46" stroke-width="0.5" stroke-linecap="round" stroke-linejoin="round" />
      <path d="M11.1772 18.1863C10.3654 19.9234 9.54302 19.6414 8.48876 19.9387C7.4345 20.2353 6.15402 22.1198 6.15402 22.1198C3.40744 24.0888 4.08299 18.6757 3.55305 18.247C3.28808 18.0334 3.14247 19.6644 2.04134 20.7108C0.939583 21.7579 -0.246538 21.2063 0.0446805 20.2944C0.737105 18.1256 2.07821 12.8308 2.33693 10.0366C2.6694 6.4289 4.35234 3.0985 4.35234 3.0985C6.38899 -1.99044 12.9614 0.722282 12.9614 0.722282C12.9614 0.722282 14.9218 16.4255 13.4001 17.0147C13.4001 17.0147 11.5184 17.4572 11.1772 18.1863" transform="translate(71.74713 163.7278)" id="Fill-65" fill="#A08889" stroke="none" />
      <path d="M0.641203 22.254C0.641203 22.254 -2.95278 4.84988 6.87677 0.228806C14.6591 -3.42964 25.6641 37.5815 25.8147 66.1338C25.9128 84.7333 23.0569 110.284 23.0569 110.284C23.0569 110.284 16.2189 112.212 11.6188 109.43C12.1968 96.8073 11.3169 69.4919 9.89395 60.4848C8.47035 51.4777 0.641203 22.254 0.641203 22.254" transform="translate(62.898 56.89616)" id="Fill-67" fill="#ADC6FF" stroke="none" />
      <path d="M0 0L3.76334 12.949" transform="translate(63.92617 82.48062)" id="Stroke-69" fill="none" stroke="#597EF7" stroke-width="0.8240818" stroke-linecap="round" stroke-linejoin="round" />
      <path d="M0 17.1529C0 17.1529 0.803037 2.65356 8.00413 0" transform="translate(62.12518 57.55473)" id="Stroke-71" fill="none" stroke="#597EF7" stroke-width="0.8240818" stroke-linecap="round" stroke-linejoin="round" />
      <path d="M0 0C3.12154 2.49837 11.3175 1.13395 11.3175 1.13395" transform="translate(74.51701 166.3261)" id="Stroke-73" fill="none" stroke="#597EF7" stroke-width="0.8240818" stroke-linecap="round" stroke-linejoin="round" />
      <path d="M0 0.0409139C0 0.0409139 5.87124 1.14798 8.44846 0.550273" transform="translate(76.07203 160.8649)" id="Stroke-75" fill="none" stroke="#597EF7" stroke-width="0.8240818" stroke-linecap="round" stroke-linejoin="round" />
      <path d="M1.94544 1.18852C1.94919 1.84922 1.51611 2.38854 0.978669 2.39238C0.441852 2.39699 0.00314887 1.86459 2.41999e-05 1.20388C-0.0037254 0.54318 0.428728 0.00463024 0.966796 2.06857e-05C1.50361 -0.00382061 1.94232 0.527815 1.94544 1.18852" transform="translate(82.15553 163.1142)" id="Fill-77" fill="#FFFFFF" stroke="none" />
      <path d="M11.3294 1.12703L0 0" transform="translate(36.53102 171.0364)" id="Stroke-79" fill="none" stroke="#12183F" stroke-width="0.8240818" stroke-linecap="round" stroke-linejoin="round" />
      <path d="M2.52223 0C2.5266 0.894252 1.96604 1.6241 1.26986 1.62948C0.573063 1.63485 0.00499946 0.914227 0 0.0199747" transform="translate(39.72292 20.4733)" id="Stroke-81" fill="none" stroke="#604346" stroke-width="0.8240818" stroke-linecap="round" stroke-linejoin="round" />
      <path d="M2.5216 0C2.5266 0.894252 1.96541 1.6241 1.26924 1.62948C0.573062 1.63485 0.00499946 0.914227 0 0.0199747" transform="translate(31.01356 20.54291)" id="Stroke-83" fill="none" stroke="#604346" stroke-width="0.8240818" stroke-linecap="round" stroke-linejoin="round" />
      <path d="M0 13.0169C0 13.0169 8.40096 0.49273 10.4895 0.242278C13.0686 -0.0665621 15.8658 -0.0419778 16.96 0.104759C17.2994 0.150087 17.5743 0.458926 17.6443 0.869176L18.6742 6.88233C18.7917 7.56992 18.6673 8.28747 18.3305 8.85522L15.3602 13.2811C15.2121 13.5032 15.0302 13.6876 14.8246 13.8243L4.44264 20.7601C4.44264 20.7601 0.190604 16.0254 0 13.0169" transform="translate(29.25706 69.10045)" id="Fill-85" fill="#A08889" stroke="none" />
      <path d="M0 0.694504L5.51003 0.0737527" transform="translate(41.52073 71.37415)" id="Stroke-87" fill="none" stroke="#7C5B4D" stroke-width="0.6180613" stroke-linecap="round" stroke-linejoin="round" />
      <path d="M0 2.05202L4.09518 0" transform="translate(43.06419 73.46542)" id="Stroke-89" fill="none" stroke="#7C5B4D" stroke-width="0.6180613" stroke-linecap="round" stroke-linejoin="round" />
      <path d="M0 2.90479L2.56535 0" transform="translate(44.83706 75.19424)" id="Stroke-91" fill="none" stroke="#7C5B4D" stroke-width="0.6180613" stroke-linecap="round" stroke-linejoin="round" />
      <g id="分组" transform="translate(0 80.80305)">
        <path d="M0 0L34.5852 0L34.5852 36.64L0 36.64L0 0Z" transform="translate(0 0.2213378)" id="Clip-94" fill="none" stroke="none" />
        <g clip-path="url(#mask_3)">
          <path d="M2.67074 20.2336L29.6066 0L34.5854 9.91053C34.5854 9.91053 15.7249 33.9808 8.85944 36.291C1.99394 38.6003 -3.47235 29.0194 2.67074 20.2336" transform="translate(-0.000152046 0.2213378)" id="Fill-93" fill="#ADC6FF" stroke="none" />
        </g>
      </g>
      <path d="M0 17.7076C5.60751 13.3362 23.3087 0 23.3087 0L28.4638 9.90899C28.4638 9.90899 10.1083 32.5526 2.73783 36.2887" transform="translate(6.121771 81.02615)" id="Stroke-95" fill="none" stroke="#597EF7" stroke-width="0.8240818" stroke-linecap="round" stroke-linejoin="round" />
      <path d="M1.94605 1.18851C1.9498 1.84922 1.51673 2.38853 0.979284 2.39237C0.442468 2.39698 0.00376641 1.86458 1.68266e-05 1.20388C-0.00310783 0.543178 0.429345 0.00463023 0.966786 2.06857e-05C1.50423 -0.0038206 1.9423 0.527813 1.94605 1.18851" transform="translate(30.30018 89.01471)" id="Fill-97" fill="#FFFFFF" stroke="none" />
      <path d="M0 0L3.91457 8.18886" transform="translate(26.29289 86.67516)" id="Stroke-99" fill="none" stroke="#597EF7" stroke-width="0.8240818" stroke-linecap="round" stroke-linejoin="round" />
    </g>
  </g>
</svg>
