<?xml version="1.0" encoding="utf-8"?>
<svg width="84px" height="310px" viewBox="0 0 84 310" version="1.1" xmlns:xlink="http://www.w3.org/1999/xlink" xmlns="http://www.w3.org/2000/svg">
  <desc>Created with Lunacy</desc>
  <defs>
    <path d="M0 0L22.5077 0L22.5077 4.54347L0 4.54347L0 0Z" transform="translate(0.2470652 0.06876339)" id="path_1" />
    <path d="M0 0L23.1091 0L23.1091 5.03995L0 5.03995L0 0Z" transform="translate(0.1978229 0.2590557)" id="path_2" />
    <clipPath id="mask_1">
      <use xlink:href="#path_1" />
    </clipPath>
    <clipPath id="mask_2">
      <use xlink:href="#path_2" />
    </clipPath>
  </defs>
  <g id="1.人物组件/7.设计师/站立原型" transform="translate(0.4372559 0.4371338)">
    <path d="M13.0393 24.5708C13.0393 24.5708 6.80506 23.454 5.15739 31.5902C-0.883854 34.3018 0.763813 42.4374 0.763813 42.4374C0.763813 42.4374 -2.27068 48.8288 3.757 52.1036C4.23914 58.6509 10.2668 57.4612 10.2668 57.4612C10.2668 57.4612 11.7132 62.5209 16.2945 60.4373C21.2375 65.1829 30.5522 64.2307 33.8594 58.4287C40.4176 64.4726 51.8291 57.0955 50.3974 51.5783C58.0568 51.0057 61.77 40.9774 57.2826 32.4586C60.7296 25.7204 56.7998 21.7434 56.7998 21.7434C56.7998 21.7434 57.8845 6.26565 49.2047 4.18204C44.7451 -4.15239 35.1004 2.54502 35.1004 2.54502C35.1004 2.54502 28.7116 0.908006 26.4207 7.75404C19.2812 9.10912 19.6164 13.9546 19.067 18.0227C12.6781 18.4693 13.0393 24.5708 13.0393 24.5708" id="Fill-1" fill="#253368" stroke="none" />
    <path d="M4.47442 51.8209L4.04366 51.6303C0.867572 50.2285 -0.780446 45.934 0.362944 42.0389L11.2438 4.95975C12.3866 1.0639 15.887 -0.956876 19.0631 0.444908L19.4945 0.635533C22.67 2.03732 24.3174 6.33182 23.174 10.2269L12.2938 47.3061C11.151 51.2019 7.64991 53.2234 4.47442 51.8209" transform="translate(10.62963 46.66618)" id="Fill-3" fill="#FFC999" stroke="none" />
    <path d="M11.7201 26.1331L16.3631 10.1204C17.4823 6.26048 15.7513 1.91957 12.516 0.473804C9.28068 -0.971962 5.71791 1.00394 4.59868 4.8639L0 20.7246L11.7201 26.1331Z" transform="translate(17.46296 45.73285)" id="Fill-5" fill="#597EF7" stroke="none" />
    <path d="M0 10.5074L11.9635 15.8665L16.7037 0" transform="translate(17.46296 55.99941)" id="Stroke-7" fill="none" stroke="#1D39C4" stroke-width="0.506115556" stroke-linecap="round" stroke-linejoin="round" />
    <path d="M8.6686 84.9307L8.6686 84.9307C6.01136 85.0077 3.77811 82.4898 3.61055 79.2274L0.0146917 9.43174C-0.244114 4.40468 2.94862 0.120608 7.0436 0.00252256C11.1386 -0.116296 14.4917 3.97781 14.4249 9.01514L13.503 78.9406C13.4601 82.2104 11.3264 84.8537 8.6686 84.9307" transform="translate(20.5 195.0646)" id="Fill-9" fill="#FFC999" stroke="none" />
    <path d="M7.78452 0.00282893L7.78452 0.00282893C3.30876 0.135316 -0.202253 4.88744 0.00906117 10.5244L2.28594 71.1326C2.46074 75.801 5.55964 79.4396 9.26593 79.3301C12.9722 79.2199 15.9317 75.4015 15.9323 70.7282L15.9444 10.0517C15.9456 4.40839 12.2608 -0.129659 7.78452 0.00282893" transform="translate(18.98148 139.9985)" id="Fill-11" fill="#FFC999" stroke="none" />
    <path d="M0.659399 17.5898L9.91819 17.7332L10.6296 0.165372L0 0L0.659399 17.5898Z" transform="translate(24.2963 266.9305)" id="Fill-13" fill="#597EF7" stroke="none" />
    <path d="M0 0.366328L9.87037 0.566991" transform="translate(24.2963 270.6638)" id="Stroke-15" fill="none" stroke="#DFE5F1" stroke-width="0.8116132" stroke-linecap="round" stroke-linejoin="round" />
    <path d="M21.7565 0.157253L22.0185 22.3997L0.0187838 22.045L6.54124e-05 18.6306C-0.0027707 17.3754 0.717602 16.2979 1.71081 16.073L7.77128 14.3998L10.5958 11.9569C11.5067 11.3314 12.0666 10.1389 12.0524 8.84566C12.0224 6.06658 11.9764 1.35322 11.9934 0L21.7565 0.157253Z" transform="translate(12.90741 283.7303)" id="Fill-17" fill="#4E5C93" stroke="none" />
    <g id="分组" transform="translate(12.14815 302.3968)">
      <path d="M0 0L22.5077 0L22.5077 4.54347L0 4.54347L0 0Z" transform="translate(0.2470652 0.06876339)" id="Clip-20" fill="none" stroke="none" />
      <g clip-path="url(#mask_1)">
        <path d="M22.098 4.54354L0.368129 4.17364C0.161884 4.17069 -0.00277444 3.94815 3.54339e-05 3.67846L0.0315061 0.483414C0.0343159 0.212984 0.203471 -0.00291764 0.409154 2.98227e-05L22.1391 0.369936C22.3447 0.373621 22.51 0.595417 22.5077 0.86511L22.4757 4.06089C22.4729 4.33059 22.3037 4.54723 22.098 4.54354" transform="translate(0.2470652 0.06876339)" id="Fill-19" fill="#CCD7EE" stroke="none" />
      </g>
    </g>
    <path d="M0 4.60781L0 4.60781C0.0189734 2.73884 1.11075 1.16324 2.57604 0.889011L7.32697 0L7.59259 4.66663L0 4.60781Z" transform="translate(12.14815 298.6635)" id="Fill-21" fill="#CCD7EE" stroke="none" />
    <path d="M0 0.232863L22.0185 0.700456" transform="translate(12.90741 302.3968)" id="Stroke-23" fill="none" stroke="#96A7CA" stroke-width="0.5" stroke-linecap="round" stroke-linejoin="round" />
    <path d="M1.77337 6.53326C1.10534 5.23433 0 5.00139 0 5.00139C0 5.00139 2.3078 4.28701 3.83926 4.52662C3.0853 3.2262 2.24011 2.5682 2.24011 2.5682C2.24011 2.5682 4.37781 1.8516 5.31482 1.86643C4.39193 0.456223 2.77807 0 2.77807 0" transform="translate(22.01852 292.1302)" id="Stroke-25" fill="none" stroke="#CCD7EE" stroke-width="0.83056134" stroke-linecap="round" stroke-linejoin="round" />
    <path d="M0.350468 1.64666e-07C0.350468 1.64666e-07 5.56679 -0.00911434 6.04708 4.26138C6.52841 8.53188 0.413271 1.21854 0.413271 1.21854C0.413271 1.21854 -0.473189 0.391223 0.350468 1.64666e-07Z" transform="translate(24.2963 288.397)" id="Stroke-27" fill="none" stroke="#CCD7EE" stroke-width="0.83056134" stroke-linecap="round" stroke-linejoin="round" />
    <path d="M14.6775 83.0029L14.6775 83.0029C17.2914 82.6075 19.1839 80.4841 18.9641 77.2792L14.2704 8.00135C13.9318 3.06267 10.2981 -0.54123 6.27026 0.0669954C2.24241 0.676664 -0.562363 5.25387 0.0958465 10.1442L9.82423 78.7504C10.2514 81.9235 12.0636 83.3983 14.6775 83.0029" transform="translate(47.07407 202.5312)" id="Fill-29" fill="#FFC999" stroke="none" />
    <path d="M7.17743 0.076716L7.17743 0.076716C11.7365 -0.612082 15.8675 3.41607 16.3228 8.99714L21.2242 68.9967C21.6017 73.618 18.8893 77.7626 15.1131 78.3336C11.3374 78.9039 7.87852 75.6921 7.32162 71.0978L0.0893326 11.4502C-0.583372 5.9017 2.61779 0.765514 7.17743 0.076716" transform="translate(40.24074 141.8652)" id="Fill-31" fill="#FFC999" stroke="none" />
    <path d="M12.1481 18.6665L2.3737 18.6665L0 0.299192L10.2606 0L12.1481 18.6665Z" transform="translate(55.42593 267.8638)" id="Fill-33" fill="#597EF7" stroke="none" />
    <path d="M10.6296 0.292596L0 0.640724" transform="translate(55.42593 271.5971)" id="Stroke-35" fill="none" stroke="#DFE5F1" stroke-width="0.8116132" stroke-linecap="round" stroke-linejoin="round" />
    <path d="M0 0.260171L1.90429 21.4664L22.7778 20.8802L22.7693 17.6257C22.7632 16.4291 21.9833 15.4099 20.9202 15.2069L17.2787 13.3272L14.0311 11.383C13.0523 10.7974 12.1923 9.60346 11.8412 8.4337C11.1935 6.26897 10.4663 1.28942 10.4372 0L0 0.260171Z" transform="translate(56.94444 284.6637)" id="Fill-37" fill="#4E5C93" stroke="none" />
    <g id="分组" transform="translate(58.46296 302.3968)">
      <path d="M0 0L23.1091 0L23.1091 5.03995L0 5.03995L0 0Z" transform="translate(0.1978229 0.2590557)" id="Clip-40" fill="none" stroke="none" />
      <g clip-path="url(#mask_2)">
        <path d="M0.447445 5.03982L22.7343 4.36936C22.9459 4.36319 23.1131 4.12864 23.109 3.84549L23.0525 0.500883C23.0473 0.21773 22.8721 -0.00678699 22.6611 0.000156824L0.374231 0.670621C0.162662 0.676793 -0.0045187 0.911339 9.31669e-05 1.19449L0.0560121 4.53987C0.0612004 4.82225 0.236452 5.04599 0.447445 5.03982" transform="translate(0.1978229 0.2590557)" id="Fill-39" fill="#CCD7EE" stroke="none" />
      </g>
    </g>
    <path d="M7.59259 4.51695C7.55898 2.64975 6.45573 1.08806 4.98818 0.831764L0.230949 0L0 4.66663L7.59259 4.51695Z" transform="translate(73.64815 297.7302)" id="Fill-41" fill="#CCD7EE" stroke="none" />
    <path d="M22.7778 0.174252L0 0.759067" transform="translate(58.46296 302.3968)" id="Stroke-43" fill="none" stroke="#96A7CA" stroke-width="0.5" stroke-linecap="round" stroke-linejoin="round" />
    <path d="M3.56079 6.53326C4.21598 5.22379 5.31481 4.97705 5.31481 4.97705C5.31481 4.97705 3.01167 4.28961 1.48913 4.54824C2.22989 3.23579 3.06617 2.56693 3.06617 2.56693C3.06617 2.56693 0.932978 1.87429 0 1.90105C0.908365 0.476376 2.51177 0 2.51177 0" transform="translate(65.2963 291.1969)" id="Stroke-45" fill="none" stroke="#CCD7EE" stroke-width="0.83056134" stroke-linecap="round" stroke-linejoin="round" />
    <path d="M5.71885 0C5.71885 0 0.477309 0.0575062 0.0241313 4.28387C-0.429563 8.51023 5.66453 1.20555 5.66453 1.20555C5.66453 1.20555 6.54864 0.376215 5.71885 0Z" transform="translate(61.5 289.3303)" id="Stroke-47" fill="none" stroke="#CCD7EE" stroke-width="0.83056134" stroke-linecap="round" stroke-linejoin="round" />
    <path d="M0.413518 7.40716C5.37014 8.48611 6.87781 3.83481 6.87781 3.83481C6.87781 3.83481 8.92252 -2.71569 9.4467 1.30591C9.72486 3.4428 12.3896 0.60666 13.615 2.88557C14.439 4.41885 12.3785 6.39487 15.0572 10.4831C16.6087 12.8512 10.4863 14.741 14.2637 19.1068C14.2637 19.1068 11.5779 24.4356 16.1909 26.1732L16.68 32.4215C16.964 36.0584 14.6569 39.2054 11.7105 39.1996C8.9009 39.1945 6.65049 36.3127 6.73581 32.8309L6.92281 25.2124C-0.239807 25.2124 -0.589844 13.0062 0.413518 7.40716" transform="translate(32.64815 9.333235)" id="Fill-49" fill="#FFC999" stroke="none" />
    <path d="M3.03704 0C3.03704 0 1.8531 2.16067 0 1.83277" transform="translate(38.72222 23.33309)" id="Stroke-51" fill="none" stroke="#F5222D" stroke-width="0.874275148" stroke-linecap="round" stroke-linejoin="round" />
    <path d="M1.3438 0C1.3438 0 1.43694 1.56866 0 4.03359C1.54871 5.19681 2.27778 5.59994 2.27778 5.59994" transform="translate(37.2037 17.73315)" id="Stroke-53" fill="none" stroke="#DD936F" stroke-width="0.655706346" stroke-linecap="round" stroke-linejoin="round" />
    <path d="M0 0C0 1.03094 0.67958 1.86665 1.51826 1.86665C2.35693 1.86665 3.03704 1.03094 3.03704 0" transform="translate(41.75926 17.73315)" id="Stroke-55" fill="none" stroke="#373A65" stroke-width="0.8701198" stroke-linecap="round" stroke-linejoin="round" />
    <path d="M0 0C0 1.03094 0.679776 1.86665 1.51881 1.86665C2.35726 1.86665 3.03704 1.03094 3.03704 0" transform="translate(34.16667 17.73315)" id="Stroke-57" fill="none" stroke="#373A65" stroke-width="0.8252426" stroke-linecap="round" stroke-linejoin="round" />
    <path d="M0 0.801629C0 0.801629 2.39288 -1.08686 4.55556 0.933324" transform="translate(41 13.06653)" id="Stroke-59" fill="none" stroke="#373A65" stroke-width="0.8701198" stroke-linecap="round" stroke-linejoin="round" />
    <path d="M0 1.86665C1.48409 1.8353 3.0259 1.26287 4.55555 0" transform="translate(39.48148 32.66632)" id="Stroke-61" fill="none" stroke="#DD936F" stroke-width="0.655706346" stroke-linecap="round" stroke-linejoin="round" />
    <path d="M48.8795 0.668171C53.969 1.15709 66.0478 40.6339 70.6111 54.7497C70.0035 57.5927 66.2921 62.6081 66.2921 62.6081C66.2921 62.6081 66.6893 64.8717 66.9336 66.2312C62.5903 70.6154 54.1919 72.9972 54.1919 72.9972L54.1729 74.942C40.7439 82.5319 22.7612 75.2579 22.7612 75.2579C22.7612 75.2579 22.4259 74.8362 22.6667 73.311C16.569 73.2242 3.51403 63.729 3.51403 63.729L5.37003 59.031L0 52.2854C0 52.2854 14.5008 19.5411 18.9642 10.3823C22.8825 2.34144 26.5576 0.0267415 26.5576 0.0267415C26.5576 0.0267415 39.8498 -0.200204 48.8795 0.668171" transform="translate(1.518519 97.06564)" id="Fill-63" fill="#4E5C93" stroke="none" />
    <path d="M22.0185 0L0 55.3742C0 55.3742 7.34699 62.4489 18.6873 65.3326" transform="translate(5.314815 104.5322)" id="Stroke-65" fill="none" stroke="#253368" stroke-width="0.632436633" stroke-linecap="round" stroke-linejoin="round" />
    <path d="M0 0L14.4259 46.8378C14.4259 46.8378 8.71379 51.4406 1.62639 53.1994" transform="translate(53.90741 115.7321)" id="Stroke-67" fill="none" stroke="#253368" stroke-width="0.632436633" stroke-linecap="round" stroke-linejoin="round" />
    <path d="M10.2064 10.895L0 72.7774C0 72.7774 16.3097 79.1496 31.8889 72.7426C28.3408 45.9397 20.7501 0 20.7501 0" transform="translate(23.53704 98.93229)" id="Stroke-69" fill="none" stroke="#253368" stroke-width="0.632436633" stroke-linecap="round" stroke-linejoin="round" />
    <path d="M2.27778 0L0 51.3328" transform="translate(37.2037 99.86562)" id="Stroke-71" fill="none" stroke="#253368" stroke-width="0.632436633" stroke-linecap="round" stroke-linejoin="round" />
    <path d="M9.11111 0L0 35.4663" transform="translate(24.2963 97.99897)" id="Stroke-73" fill="none" stroke="#253368" stroke-width="0.632436633" stroke-linecap="round" stroke-linejoin="round" />
    <path d="M0 3.91722L0.380666 0.570449C0.380666 0.570449 11.7653 0.649792 22.9313 0C23.2135 1.48631 23.537 4.15935 23.537 4.15935C22.5989 3.26469 12.4565 5.87891 0 3.91722" transform="translate(27.33333 93.33235)" id="Fill-75" fill="#4E5C93" stroke="none" />
    <path d="M0.00500039 0.488077C-0.245649 0.624343 8.95491 1.10314 21.2593 0.196879" transform="translate(28.09259 97.06564)" id="Stroke-77" fill="none" stroke="#253368" stroke-width="0.632436633" stroke-linecap="round" stroke-linejoin="round" />
    <path d="M3.91473 15.1824C2.6597 18.5054 0.335065 24.225 0.045902 28.0038C-0.423318 34.1297 2.85943 38.6887 2.85943 38.6887C2.85943 38.6887 2.89222 36.8863 3.2112 52.7591C18.2477 55.9641 27.8342 52.5562 27.8342 52.5562L27.5415 48.3486L29.9835 38.4033C29.9835 38.4033 31.4669 34.6992 34.5148 26.4368C36.6343 20.6926 36.487 13.5705 36.1997 9.76346C36.0774 8.13199 37.0642 7.01706 35.7662 6.57369C31.232 5.02481 27.5927 4.71982 27.5927 4.71982L27.1652 1.08523C27.0925 0.462926 26.6537 0 26.1362 0L15.083 0C14.609 0 14.194 0.391205 14.076 0.949759L13.2663 4.78792L4.61707 5.40298C3.54329 5.65871 4.54194 7.75238 4.42986 9.07523L3.91473 15.1824Z" transform="translate(23.53704 40.13291)" id="Fill-79" fill="#597EF7" stroke="none" />
    <path d="M9.87037 0.466661L0 0.466661" transform="translate(37.96296 44.79953)" id="Stroke-81" fill="none" stroke="#1D39C4" stroke-width="0.528554142" stroke-linecap="round" stroke-linejoin="round" />
    <path d="M15.1852 0L4.26949 16.7998L0 1.00677" transform="translate(36.44444 43.8662)" id="Stroke-83" fill="none" stroke="#C9D4EA" stroke-width="0.678144932" stroke-linecap="round" stroke-linejoin="round" />
    <path d="M0.603104 2.4277C-0.530281 4.68834 -0.0196151 7.5232 1.74384 8.75996C3.50729 9.99673 5.85611 9.16618 6.98949 6.90554C8.12288 4.64562 7.61221 1.81004 5.84876 0.573275C4.08531 -0.663489 1.7371 0.167055 0.603104 2.4277" transform="translate(37.2037 59.7327)" id="Fill-85" fill="#C9D4EA" stroke="none" />
    <path d="M0.603091 2.42742C-0.53027 4.6881 -0.0196147 7.523 1.7438 8.75978C3.50721 9.99657 5.85598 9.16673 6.98996 6.90605C8.1227 4.64537 7.61205 1.80975 5.84863 0.572964C4.08522 -0.663097 1.73706 0.166736 0.603091 2.42742" transform="translate(36.44444 59.7327)" id="Fill-87" fill="#F0F0F5" stroke="none" />
    <path d="M0.482514 1.94191C-0.424098 3.75045 -0.0159015 6.0186 1.3948 7.00793C2.80614 7.99726 4.68498 7.33323 5.59159 5.52468C6.4982 3.71539 6.09 1.44799 4.67867 0.458658C3.26796 -0.530671 1.38913 0.133359 0.482514 1.94191" transform="translate(37.2037 60.66603)" id="Fill-89" fill="#FAAD14" stroke="none" />
    <path d="M31.1296 22.0774L27.2032 36.3557L27.5534 40.7017C27.5534 40.7017 16.5233 43.6668 3.11908 40.6336C3.11908 39.4953 2.7421 27.1265 2.7421 27.1265C2.7421 27.1265 0 21.0811 0 16.8017C0 11.6759 1.28468 9.46889 3.85284 3.77322L3.9692 0" transform="translate(23.53704 52.26612)" id="Stroke-91" fill="none" stroke="#1D39C4" stroke-width="0.528554142" stroke-linecap="round" stroke-linejoin="round" />
    <path d="M0.00312582 6.51958L0.00312582 6.51958C-0.0760132 8.86214 1.35676 10.8631 3.25609 11.0631L39.914 14.9227C43.2927 15.1405 46.1689 11.9213 46.3095 7.76415C46.4512 3.57005 43.7558 0.0626199 40.3433 0L3.39016 2.31622C1.54811 2.4315 0.0799024 4.25388 0.00312582 6.51958" transform="translate(15.18519 82.13247)" id="Fill-93" fill="#FFC999" stroke="none" />
    <path d="M5.21405 50.2735L5.47111 50.3194C8.72779 50.9001 11.694 48.2599 12.096 44.4219L15.8991 8.12729C16.3011 4.28926 13.987 0.707394 10.7303 0.125941L10.4732 0.0800938C7.21654 -0.500632 4.25037 2.13883 3.84893 5.97759L0.0452605 42.2722C-0.356176 46.1102 1.95737 49.6928 5.21405 50.2735" transform="translate(48.59259 46.66618)" id="Fill-95" fill="#FFC999" stroke="none" />
    <path d="M0 25.0576L1.6622 6.96841C1.96915 2.70574 5.08657 -0.409948 8.58988 0.0439266C12.0932 0.497801 14.7084 4.35646 14.4014 8.61913L13.1403 26.1331L0 25.0576Z" transform="translate(50.11111 46.66618)" id="Fill-97" fill="#597EF7" stroke="none" />
    <path d="M12.9074 19.5998L0 18.3166L1.47254 0" transform="translate(50.11111 53.19944)" id="Stroke-99" fill="none" stroke="#1D39C4" stroke-width="0.521905661" stroke-linecap="round" stroke-linejoin="round" />
    <path d="M42.5094 6.1372L42.5094 6.1372C42.6391 8.60442 41.3719 10.7408 39.633 10.986L6.55018 15.8494C3.45266 16.141 0.245757 12.6727 0.0156244 8.29321C-0.216899 3.87529 2.17409 0.128403 5.30627 0L39.2971 1.76789C40.9911 1.85567 42.3839 3.75051 42.5094 6.1372" transform="translate(10.62963 83.06579)" id="Fill-101" fill="#FFC999" stroke="none" />
    <path d="M14.1954 8.38012C15.3605 10.1233 13.1457 11.4032 13.1457 11.4032C13.1457 11.4032 13.9658 12.756 12.1039 13.1535C10.4505 13.5067 0.198216 14.9332 0.198216 14.9332L0 5.75532L3.90812 5.1304C3.90812 5.1304 6.12717 2.65933 7.27356 1.69264C8.41874 0.726662 11.3884 1.02983 12.9263 0.141785C14.4643 -0.746971 13.7047 2.8102 10.0456 3.38864C15.8101 3.44584 16.5589 1.63258 16.6967 3.4151C16.8169 4.97739 15.3545 5.0539 15.3545 5.0539C15.3545 5.0539 16.994 6.73345 14.1954 8.38012" transform="translate(47.07407 79.3325)" id="Fill-103" fill="#FFC999" stroke="none" />
    <path d="M4.70142 4.01664L34.4866 5.28675C34.4866 5.28675 36.6696 2.7399 37.7968 1.74458C38.9234 0.748536 41.8455 1.06091 43.3579 0.145897C44.871 -0.769113 44.1242 2.89535 40.5239 3.49209C46.1949 3.55029 46.9315 1.6827 47.0671 3.51861C47.186 5.12909 45.7473 5.20792 45.7473 5.20792C45.7473 5.20792 47.3596 6.93848 44.6064 8.63441C45.7532 10.4305 43.5743 11.7493 43.5743 11.7493C43.5743 11.7493 44.4025 13.348 42.5494 13.5528C40.6957 13.7583 0 19.5998 0 19.5998" transform="translate(16.7037 79.3325)" id="Stroke-105" fill="none" stroke="#DD936F" stroke-width="0.5875594" stroke-linecap="round" stroke-linejoin="round" />
    <path d="M14.4259 9.33324C14.4259 9.33324 9.24335 0.24356 7.31736 0.0347917C5.39137 -0.173976 1.98097 0.571732 1.41423 1.87015C0.0801278 4.93409 0 9.12372 0 9.12372L6.49328 8.98704L14.4259 9.33324Z" transform="translate(12.90741 73.73256)" id="Fill-107" fill="#FFC999" stroke="none" />
    <path d="M14.4259 9.33324C14.4259 9.33324 9.24335 0.24356 7.31736 0.0347917C5.39137 -0.173976 1.98097 0.571732 1.41423 1.87015C0.0801278 4.93409 0 9.12372 0 9.12372L6.49328 8.98704L14.4259 9.33324Z" transform="translate(12.90741 73.73256)" id="Stroke-109" fill="none" stroke="#DD936F" stroke-width="0.623295" stroke-linecap="round" stroke-linejoin="round" />
    <path d="M0 0.831004C0 0.831004 3.06206 -0.0939231 5.31481 0.140342" transform="translate(13.66667 76.53252)" id="Stroke-111" fill="none" stroke="#DD936F" stroke-width="0.5" stroke-linecap="round" stroke-linejoin="round" />
    <path d="M0 0.613953C0 0.613953 3.33536 0.0819563 4.55555 0.44782" transform="translate(13.66667 78.39917)" id="Stroke-113" fill="none" stroke="#DD936F" stroke-width="0.5" stroke-linecap="round" stroke-linejoin="round" />
    <path d="M0 0.449397L5.31481 0.48393" transform="translate(13.66667 80.26582)" id="Stroke-115" fill="none" stroke="#DD936F" stroke-width="0.5" stroke-linecap="round" stroke-linejoin="round" />
  </g>
</svg>
