<?xml version="1.0" encoding="utf-8"?>
<svg width="115px" height="350px" viewBox="0 0 115 350" version="1.1" xmlns:xlink="http://www.w3.org/1999/xlink" xmlns="http://www.w3.org/2000/svg">
  <desc>Created with Lunacy</desc>
  <defs>
    <path d="M0 0L29.2751 0L29.2751 31.1381L0 31.1381L0 0Z" transform="translate(0 0.03996213)" id="path_1" />
    <clipPath id="mask_1">
      <use xlink:href="#path_1" />
    </clipPath>
  </defs>
  <g id="编组" transform="translate(0.8144531 0.8143921)">
    <path d="M6.96511 31.2579L0 9.61133L13.5756 0C13.5756 0 27.0969 29.8561 24.2142 36.4504C19.9855 46.1223 11.8958 47.3967 6.96511 31.2579" transform="translate(67.20188 84.16687)" id="Fill-1" fill="#FFC999" stroke="none" />
    <g id="编组" transform="translate(0 315.7739)">
      <path d="M0 0L29.2751 0L29.2751 31.1381L0 31.1381L0 0Z" transform="translate(0 0.03996213)" id="Clip-4" fill="none" stroke="none" />
      <g clip-path="url(#mask_1)">
        <path d="M12.5529 29.655C4.24122 33.901 0.0125916 27.6808 0.0125916 27.6808C0.0125916 27.6808 -0.213237 25.5124 1.24786 23.0996C3.07713 20.0803 7.12652 19.0271 11.9466 13.2583C15.6485 8.82673 18.1093 1.90839 18.1093 1.90839C20.7908 -2.90444 29.2493 2.90343 29.2493 2.90343C29.2493 2.90343 29.3503 12.8857 29.1536 18.5949C29.1536 18.5949 28.8333 21.7376 22.4654 22.8202C17.7004 23.6298 17.5302 27.1125 12.5529 29.655" transform="translate(-0.0001677921 0.03996213)" id="Fill-3" fill="#4E5C93" stroke="none" />
      </g>
    </g>
    <path d="M0.0947953 4.52732C0.0947953 4.52732 -0.325156 19.0812 0.602748 22.9213C3.32046 26.7383 5.73858 24.9926 9.35054 28.7976C12.9632 32.6035 20.5702 38.9208 27.4712 32.41C28.3273 27.996 26.0561 25.994 23.2432 23.629C11.6477 13.8791 13.6872 12.1438 11.592 6.51502C8.37605 -2.12196 0.0423823 -1.52573 0.0947953 4.52732" transform="translate(61.94648 311.618)" id="Fill-5" fill="#4E5C93" stroke="none" />
    <path d="M7.96911 68.4674C7.96911 68.4674 4.2329 44.7996 2.57186 36.0536C0.911471 27.3084 -1.57782 6.3798 1.36183 4.83311C4.30214 3.2872 11.3404 0.00833652 11.3404 0.00833652C11.3404 0.00833652 16.933 -0.201817 23.2194 1.48817C28.196 2.8271 28.1733 -0.78531 34.208 0.482773C36.7639 1.0201 46.7606 4.94057 48.6947 6.83434C50.6288 8.7281 46.7741 69.9894 46.7741 69.9894C46.7741 69.9894 49.1508 73.0262 46.2364 76.9252C44.7922 78.7505 38.5789 78.0882 30.6212 78.0604C21.5628 78.0277 10.9016 79.3563 8.9339 77.2245C5.23781 73.2197 7.96911 68.4674 7.96911 68.4674" transform="translate(23.9396 54.6702)" id="Fill-7" fill="#597EF7" stroke="none" />
    <path d="M5.80684 0L0 6.00688L6.46751 14.3055L9.77276 4.46814L5.80684 0Z" transform="translate(49.47807 50.88448)" id="Fill-9" fill="#597EF7" stroke="none" />
    <path d="M29.2473 40.1441L28.2961 50.7839C28.2961 50.7839 5.43559 35.3933 0.952658 26.6083C-3.02749 18.8079 6.75109 0 6.75109 0C6.75109 0 16.2585 8.34961 18.0005 13.5453L16.3698 19.3445L29.2473 40.1441Z" transform="translate(1.585943 87.47662)" id="Fill-11" fill="#FFC999" stroke="none" />
    <path d="M10.057 48.6022C10.057 48.6022 0.662163 28.2627 0.0325602 16.4893C-0.585395 4.94282 7.74633 -3.58272 11.9665 1.50315C18.1157 8.91504 24.5366 33.5762 24.5366 33.5762C24.5366 33.5762 17.4427 44.5105 10.057 48.6022" transform="translate(62.2502 61.42606)" id="Fill-13" fill="#597EF7" stroke="none" />
    <path d="M0 12.1371C0 12.1371 6.69787 8.91082 11.7217 0" transform="translate(72.70913 90.75358)" id="Stroke-15" fill="none" stroke="#1D39C4" stroke-width="0.8148266" stroke-linecap="round" stroke-linejoin="round" />
    <path d="M0 12.4213C0 12.4213 6.69528 8.91002 11.7192 0" transform="translate(72.53662 97.31848)" id="Stroke-17" fill="none" stroke="#1D39C4" stroke-width="0.8148266" stroke-linecap="round" stroke-linejoin="round" />
    <path d="M0 37.827C0 37.827 11.3943 8.72556 17.4348 3.08565C23.4752 -2.55346 26.1166 0.495357 28.4958 4.61006C29.9938 7.19956 33.4266 14.5382 25.5523 29.7966C19.6225 41.2866 17.1423 45.5414 16.4299 47.4622C6.68169 46.5157 0 37.827 0 37.827" transform="translate(4.132604 59.11056)" id="Fill-19" fill="#597EF7" stroke="none" />
    <path d="M11.0708 30.805L16.7366 23.8922L15.9633 0L0.838608 0.841409L0 24.3889L11.0708 30.805Z" transform="translate(38.52065 27.17115)" id="Fill-21" fill="#FFC999" stroke="none" />
    <path d="M1.5388 1.59762C1.5388 1.59762 3.89156 -1.29597 4.83629 0.705261C5.78166 2.70649 3.97827 9.7514 1.47086 9.88116C-1.87775 10.0555 1.5388 1.59762 1.5388 1.59762" transform="translate(56.88481 23.45074)" id="Fill-23" fill="#FFC999" stroke="none" />
    <path d="M6.33568 35.9725C6.33568 35.9725 11.181 41.0273 17.7591 36.2559C22.4944 32.8218 23.2495 20.0454 22.475 10.6402C22.0376 5.31875 20.0866 2.41959 15.8981 0.760651C11.7103 -0.898287 0.297182 -1.18725 0.011175 14.4413C-0.30848 31.8482 6.33568 35.9725 6.33568 35.9725" transform="translate(37.25829 6.904292)" id="Fill-25" fill="#FFC999" stroke="none" />
    <path d="M2.45176 0L1.72704 3.29081L3.04383 12.2295L0 12.1992" transform="translate(49.8834 20.13842)" id="Stroke-27" fill="none" stroke="#DD936F" stroke-width="0.610906661" stroke-linecap="round" stroke-linejoin="round" />
    <path d="M0 0.538833C1.10585 0.831774 4.06039 0.385198 6.02814 0.160716" transform="translate(42.81864 18.84669)" id="Stroke-29" fill="none" stroke="#253368" stroke-width="1.6288" stroke-linecap="round" stroke-linejoin="round" />
    <path d="M0 0.176276C0 0.176276 2.08681 0.883951 5.30083 0.511407" transform="translate(47.65021 34.68688)" id="Stroke-31" fill="none" stroke="#FF7A45" stroke-width="0.8148266" stroke-linecap="round" stroke-linejoin="round" />
    <path d="M2.96384 28.0753L0.574845 22.0007C0.574845 22.0007 -0.868777 13.2849 0.819439 9.58655C3.43815 3.84793 9.23787 4.13132 12.7049 2.66184C16.1706 1.19156 16.159 -0.234931 17.5528 0.0325366C18.9459 0.300004 24.2875 5.0603 24.8239 9.92646C25.2963 14.2044 24.2545 25.0543 24.2545 25.0543C24.2545 25.0543 23.4198 15.4072 22.7028 12.8487C19.9942 11.3864 10.0784 11.0982 5.91579 12.5773C5.91579 12.5773 5.51008 15.8458 5.26937 18.1487C3.02467 20.0504 2.96384 28.0753 2.96384 28.0753" transform="translate(35.65639 0.0001804506)" id="Fill-33" fill="#253368" stroke="none" />
    <path d="M10.3674 0C10.3674 0 7.00199 4.3782 0 0.890764" transform="translate(44.91879 42.81531)" id="Stroke-35" fill="none" stroke="#DD936F" stroke-width="0.5" stroke-linecap="round" stroke-linejoin="round" />
    <path d="M0 0.429859L2.24017 0.366176" transform="translate(49.90611 23.0972)" id="Stroke-37" fill="none" stroke="#090D33" stroke-width="1.22181332" stroke-linecap="round" stroke-linejoin="round" />
    <path d="M0 0.668377C0 0.668377 1.51221 -0.527269 2.43494 0.637331" transform="translate(49.83532 24.83356)" id="Stroke-39" fill="none" stroke="#090D33" stroke-width="1.22181332" stroke-linecap="round" stroke-linejoin="round" />
    <path d="M0 1.17942C0 1.17942 3.48773 -1.1848 5.82367 0.781405" transform="translate(52.85204 18.41753)" id="Stroke-41" fill="none" stroke="#253368" stroke-width="1.6288" stroke-linecap="round" stroke-linejoin="round" />
    <path d="M0 0.40956L1.8254 0.386475" transform="translate(49.75637 37.50321)" id="Stroke-43" fill="none" stroke="#DD936F" stroke-width="0.5" stroke-linecap="round" stroke-linejoin="round" />
    <path d="M3.67409 0.387669L0 0.408366" transform="translate(37.92941 23.22257)" id="Stroke-45" fill="none" stroke="#090D33" stroke-width="1.22181332" stroke-linecap="round" stroke-linejoin="round" />
    <path d="M0.911575 0.0884223L7.92715 6.24346e-05C8.41699 -0.00630585 8.81752 0.475295 8.81947 1.07789C8.8227 2.2019 8.78582 4.00492 8.56064 5.55082C8.29598 7.37453 6.97466 8.5057 5.4715 8.61077C3.5937 8.74132 1.90677 8.76441 1.04487 7.57593C-0.269335 5.76415 0.0231423 2.75116 0.037378 1.1575C0.0432016 0.572412 0.436623 0.0939946 0.911575 0.0884223" transform="translate(40.95981 22.62549)" id="Fill-47" fill="#FFEDE1" stroke="none" />
    <path d="M0.911575 0.0884223L7.92715 6.24346e-05C8.41699 -0.00630585 8.81752 0.475295 8.81947 1.07789C8.8227 2.2019 8.78582 4.00492 8.56064 5.55082C8.29598 7.37453 6.97466 8.5057 5.4715 8.61077C3.5937 8.74132 1.90677 8.76441 1.04487 7.57593C-0.269335 5.76415 0.0231423 2.75116 0.037378 1.1575C0.0432016 0.572412 0.436623 0.0939946 0.911575 0.0884223Z" transform="translate(40.95981 22.62549)" id="Stroke-49" fill="none" stroke="#253368" stroke-width="0.5" stroke-linecap="round" stroke-linejoin="round" />
    <path d="M2.55271 0C2.56112 0.993452 1.99687 1.8062 1.29156 1.81496C0.586249 1.82451 0.00776489 1.02609 0 0.0326374" transform="translate(44.14016 25.15989)" id="Stroke-51" fill="none" stroke="#090D33" stroke-width="0.8148266" stroke-linecap="round" stroke-linejoin="round" />
    <path d="M0.667148 0.0995044L8.60869 0C8.91475 1.42411 8.67793 6.94859 7.32489 8.14901C5.50791 9.34863 1.8157 8.88534 1.23334 7.69447C0.348787 5.88668 -0.00257411 2.42154 1.41867e-05 0.928973C0.00130834 0.472845 0.297021 0.104281 0.667148 0.0995044" transform="translate(52.1451 22.38037)" id="Fill-53" fill="#FFEDE1" stroke="none" />
    <path d="M0.667148 0.0995044L8.60869 0C8.91475 1.42411 8.67793 6.94859 7.32489 8.14901C5.50791 9.34863 1.8157 8.88534 1.23334 7.69447C0.348787 5.88668 -0.00257411 2.42154 1.41867e-05 0.928973C0.00130834 0.472845 0.297021 0.104281 0.667148 0.0995044Z" transform="translate(52.1451 22.38037)" id="Stroke-55" fill="none" stroke="#96A7CA" stroke-width="0.5" stroke-linecap="round" stroke-linejoin="round" />
    <path d="M2.55335 0C2.56177 0.994248 1.99687 1.8062 1.29156 1.81496C0.586249 1.82451 0.00776489 1.02609 0 0.0326374" transform="translate(54.05288 25.03475)" id="Stroke-57" fill="none" stroke="#090D33" stroke-width="0.8148266" stroke-linecap="round" stroke-linejoin="round" />
    <path d="M0 0.312842L8.69797 0.483194" transform="translate(41.11056 22.46984)" id="Stroke-59" fill="none" stroke="#253368" stroke-width="1.22181332" stroke-linecap="round" stroke-linejoin="round" />
    <path d="M0 0.525384L8.52002 0.270652" transform="translate(52.30106 22.32377)" id="Stroke-61" fill="none" stroke="#253368" stroke-width="1.22181332" stroke-linecap="round" stroke-linejoin="round" />
    <path d="M3.95329 1.07554C3.13021 -0.141601 1.70147 -0.456831 0.686209 0.817621C-0.948947 2.8706 0.331613 10.772 4.59842 11.256C6.01875 10.9941 5.16655 2.86821 3.95329 1.07554" transform="translate(33.62431 22.11026)" id="Fill-63" fill="#FFC999" stroke="none" />
    <path d="M0 37.9502C0 37.9502 2.65753 50.1829 11.4513 48.0702C17.4574 46.627 23.6648 8.28195 24.1695 3.82495C24.5299 0.639216 16.7152 0 16.7152 0L0 37.9502Z" transform="translate(76.75276 76.58408)" id="Fill-65" fill="#FFC999" stroke="none" />
    <path d="M0 21.9192C0 21.9192 0.329361 21.0062 0.987435 16.7179C1.64616 12.4297 8.42814 1.94193 8.86686 1.47546C10.3603 -0.11343 11.5393 2.15288 8.34337 7.90105C12.2155 6.5661 14.6316 4.39531 15.997 1.38152C17.3623 -1.63227 20.0477 0.543299 19.1625 5.40548C18.2773 10.2669 18.0941 14.2112 15.502 17.7926C11.791 22.9198 8.71997 24.586 6.9884 25.4648C5.58166 26.1788 1.0735 25.3287 0 21.9192" transform="translate(93.35674 55.23719)" id="Fill-67" fill="#FFC999" stroke="none" />
    <path d="M15.3447 186.629L34.6159 38.0941L35.7728 37.7932L43.8199 186.265C43.8199 186.265 53.7945 189.974 59.0908 186.111C59.4221 157.163 58.9976 63.2169 56.8403 20.2557C56.4928 13.339 54.8059 3.92982 54.472 1.31484C38.4466 -2.12562 16.5476 2.27327 16.5476 2.27327L0 184.263C0 184.263 7.90854 189.508 15.3447 186.629" transform="translate(15.97192 134.4142)" id="Fill-69" fill="#ADC6FF" stroke="none" />
    <path d="M0 4.83511L9.6977 0" transform="translate(50.35602 167.6761)" id="Stroke-71" fill="none" stroke="#597EF7" stroke-width="0.610906661" stroke-linecap="round" stroke-linejoin="round" />
    <path d="M0.119709 1.5353C0.119709 1.5353 20.5608 -2.04367 37.5225 1.72714C37.6545 3.57952 37.7904 5.86015 37.7904 5.86015C37.7904 5.86015 24.0712 1.61888 0 7.07092C0.0880021 2.04635 0.119709 1.5353 0.119709 1.5353" transform="translate(32.65725 130.2968)" id="Fill-73" fill="#ADC6FF" stroke="none" />
    <path d="M0 1.45079C0 1.45079 20.6119 -1.67364 37.1032 1.2478" transform="translate(32.89705 136.7698)" id="Stroke-75" fill="none" stroke="#597EF7" stroke-width="0.610906661" stroke-linecap="round" stroke-linejoin="round" />
    <path d="M0 1.45079C0 1.45079 20.6125 -1.67364 37.1032 1.2478" transform="translate(32.84205 130.494)" id="Stroke-77" fill="none" stroke="#1D39C4" stroke-width="0.8148266" stroke-linecap="round" stroke-linejoin="round" />
    <path d="M1.51998 0C1.51998 0 1.27927 25.6793 0 38.5345" transform="translate(51.72768 131.6762)" id="Stroke-79" fill="none" stroke="#597EF7" stroke-width="0.610906661" stroke-linecap="round" stroke-linejoin="round" />
    <path d="M1.62359 1.2729C1.62942 1.98217 1.27094 2.56168 0.823164 2.56725C0.374742 2.57282 0.00655698 2.00286 8.62392e-05 1.29439C-0.0063845 0.585126 0.352095 0.00561281 0.801164 4.0568e-05C1.24894 -0.00553167 1.61712 0.563633 1.62359 1.2729" transform="translate(55.58235 132.2057)" id="Fill-81" fill="#FFFFFF" stroke="none" />
    <path d="M3.31432 0L2.3547 3.00822C2.3547 3.00822 2.42524 11.1381 0 12.2398" transform="translate(98.38554 63.13832)" id="Stroke-83" fill="none" stroke="#DD936F" stroke-width="0.5" stroke-linecap="round" stroke-linejoin="round" />
    <path d="M0 5.83604C3.12084 4.72478 4.48293 1.28352 4.48293 1.28352C4.48293 1.28352 5.68131 -0.87135 6.38857 0.403102" transform="translate(105.1305 65.17403)" id="Stroke-85" fill="none" stroke="#DD936F" stroke-width="0.5" stroke-linecap="round" stroke-linejoin="round" />
    <path d="M0 5.99443C0 5.99443 1.91146 5.75562 4.6544 1.22618C4.6544 1.22618 6.37174 -1.36412 6.73992 0.984982" transform="translate(105.2727 61.37634)" id="Stroke-87" fill="none" stroke="#DD936F" stroke-width="0.5" stroke-linecap="round" stroke-linejoin="round" />
    <path d="M0 7.15036C0 7.15036 1.55945 6.48726 3.45214 4.10951C5.37589 1.69195 6.36333 -1.06472 7.59406 0.417494" transform="translate(104.7292 57.66012)" id="Stroke-89" fill="none" stroke="#DD936F" stroke-width="0.5" stroke-linecap="round" stroke-linejoin="round" />
    <path d="M7.00199 0L0 14.8564" transform="translate(79.53272 92.65189)" id="Stroke-91" fill="none" stroke="#E2A688" stroke-width="0.610906661" stroke-linecap="round" stroke-linejoin="round" />
    <path d="M14.0066 7.84413L8.34531 16.9054L0 4.70934L3.0969 0L14.0066 7.84413Z" transform="translate(35.52612 49.99013)" id="Fill-93" fill="#597EF7" stroke="none" />
    <path d="M0 0C0 0 4.34963 6.79018 13.3058 10.0953" transform="translate(10.39919 84.59633)" id="Stroke-95" fill="none" stroke="#ADC6FF" stroke-width="1.6288" stroke-linecap="round" stroke-linejoin="round" />
    <path d="M0 0C0 0 2.85942 8.80654 11.4733 12.6872" transform="translate(15.17453 73.6924)" id="Stroke-97" fill="none" stroke="#ADC6FF" stroke-width="1.6288" stroke-linecap="round" stroke-linejoin="round" />
    <path d="M26.9015 40.0151C23.965 22.3654 19.0033 11.8753 19.0033 11.8753C14.9306 8.82803 9.25122 6.25843 4.74176 5.28727L0 0" transform="translate(53.84686 53.92565)" id="Stroke-99" fill="none" stroke="#ADC6FF" stroke-width="1.6288" stroke-linecap="round" stroke-linejoin="round" />
    <path d="M0 34.5965C0 34.5965 10.4677 11.564 12.6406 8.1116C14.8141 4.65999 27.4405 0 27.4405 0" transform="translate(10.36004 58.84443)" id="Stroke-101" fill="none" stroke="#ADC6FF" stroke-width="1.6288" stroke-linecap="round" stroke-linejoin="round" />
    <path d="M0 29.698C0 29.698 9.40522 8.77902 11.8007 6.64803C23.1918 -3.48709 49.7716 -0.485242 56.7801 5.41338L60.704 29.897" transform="translate(15.44436 68.38346)" id="Stroke-103" fill="none" stroke="#ADC6FF" stroke-width="1.6288" stroke-linecap="round" stroke-linejoin="round" />
    <path d="M41.5092 4.36846C19.3909 -5.61063 0 4.62955 0 4.62955" transform="translate(29.19877 81.71613)" id="Stroke-105" fill="none" stroke="#ADC6FF" stroke-width="1.6288" stroke-linecap="round" stroke-linejoin="round" />
    <path d="M0 3.96165C0 3.96165 20.8546 -4.72867 41.2186 3.63288" transform="translate(29.71604 95.21558)" id="Stroke-107" fill="none" stroke="#ADC6FF" stroke-width="1.6288" stroke-linecap="round" stroke-linejoin="round" />
    <path d="M0 2.46631C0 2.46631 19.4899 -3.06853 39.5395 2.44482" transform="translate(30.80163 108.18)" id="Stroke-109" fill="none" stroke="#ADC6FF" stroke-width="1.6288" stroke-linecap="round" stroke-linejoin="round" />
    <path d="M0 0C0 0 4.92165 5.92648 7.98748 38.4087C9.66599 56.2033 10.1332 65.1985 9.88276 69.7669" transform="translate(29.19721 59.52855)" id="Stroke-111" fill="none" stroke="#ADC6FF" stroke-width="1.6288" stroke-linecap="round" stroke-linejoin="round" />
    <path d="M7.552 74.84C7.552 74.84 6.7904 50.4137 5.11965 35.2166C2.94807 15.4526 0 6.46938 0 6.46938L3.76985 0" transform="translate(39.64196 54.06289)" id="Stroke-113" fill="none" stroke="#ADC6FF" stroke-width="1.6288" stroke-linecap="round" stroke-linejoin="round" />
    <path d="M0 0C1.99105 8.96017 2.75006 56.2375 0.79396 71.242" transform="translate(61.87445 57.02971)" id="Stroke-115" fill="none" stroke="#ADC6FF" stroke-width="1.6288" stroke-linecap="round" stroke-linejoin="round" />
    <path d="M6.88228 0C6.88228 0 3.42626 2.61338 0 8.64972" transform="translate(72.89095 75.19547)" id="Stroke-117" fill="none" stroke="#ADC6FF" stroke-width="1.6288" stroke-linecap="round" stroke-linejoin="round" />
    <path d="M9.11727 0C9.11727 0 4.80258 3.90853 0 11.6747" transform="translate(72.81208 83.08394)" id="Stroke-119" fill="none" stroke="#ADC6FF" stroke-width="1.6288" stroke-linecap="round" stroke-linejoin="round" />
    <path d="M0 1.49865C0 1.49865 24.7228 -2.32152 36.0673 2.23657" transform="translate(32.98298 119.9598)" id="Stroke-121" fill="none" stroke="#ADC6FF" stroke-width="1.6288" stroke-linecap="round" stroke-linejoin="round" />
    <path d="M0 0C0 0 2.50935 8.52554 3.76468 39.6059C4.38263 54.8978 3.87921 66.0653 3.5725 70.7771" transform="translate(49.88779 58.68554)" id="Stroke-123" fill="none" stroke="#1D39C4" stroke-width="0.8148266" stroke-linecap="round" stroke-linejoin="round" />
    <path d="M0 0L8.09166 10.3779" transform="translate(37.65784 52.42719)" id="Stroke-125" fill="none" stroke="#ADC6FF" stroke-width="1.6288" stroke-linecap="round" stroke-linejoin="round" />
    <path d="M3.99245 0L0 7.61248" transform="translate(53.2179 54.02436)" id="Stroke-127" fill="none" stroke="#ADC6FF" stroke-width="1.6288" stroke-linecap="round" stroke-linejoin="round" />
    <path d="M2.84065 0C2.84065 0 3.01925 7.27258 1.89722 11.5664C1.89722 11.5664 3.0173 32.1781 0.485952 61.0973C0.485952 61.0973 2.67241 64.3849 0 67.6725" transform="translate(70.04985 63.73185)" id="Stroke-129" fill="none" stroke="#1D39C4" stroke-width="0.8148266" stroke-linecap="round" stroke-linejoin="round" />
    <path d="M0 0C0 0 8.43979 0.121793 12.02 2.1684C12.0925 10.5451 11.7522 14.5054 11.7522 14.5054L6.91204 18.5245L0.686545 14.1853L0 0Z" transform="translate(56.94809 70.57473)" id="Stroke-131" fill="none" stroke="#1D39C4" stroke-width="0.8148266" stroke-linecap="round" stroke-linejoin="round" />
    <path d="M0 0C0 0 4.92876 6.78222 14.2285 9.51262" transform="translate(7.217529 92.05605)" id="Stroke-133" fill="none" stroke="#1D39C4" stroke-width="0.8148266" stroke-linecap="round" stroke-linejoin="round" />
    <path d="M8.87525 5.80324C8.87525 5.80324 3.77695 -0.225137 2.07385 0.00650892C-0.56492 0.363929 1.25983 6.64942 1.25983 6.64942C1.25983 6.64942 -0.985518 8.49623 0.518929 11.6875C-0.411563 14.8016 0.99194 16.2815 0.99194 16.2815C0.99194 16.2815 -0.466565 18.6536 1.63643 20.553C3.73942 22.4523 8.49282 21.8561 7.76163 17.8003C9.65626 15.53 8.07093 13.3027 8.07093 13.3027C8.07093 13.3027 9.44273 11.1454 7.85934 9.02638C9.24214 8.04567 9.40196 6.43847 8.87525 5.80324" transform="translate(27.83411 117.4607)" id="Fill-135" fill="#FFC999" stroke="none" />
    <path d="M5.075 3.57101L0 0" transform="translate(30.61825 122.9159)" id="Stroke-137" fill="none" stroke="#E2A688" stroke-width="0.610906661" stroke-linecap="round" stroke-linejoin="round" />
    <path d="M1.24645 0C1.24645 0 -0.966545 2.48602 0.504901 5.03811C-0.626184 8.26523 0.97856 9.63202 0.97856 9.63202L0.976619 12.524" transform="translate(27.84775 124.11)" id="Stroke-139" fill="none" stroke="#E2A688" stroke-width="0.610906661" stroke-linecap="round" stroke-linejoin="round" />
    <path d="M0 0L4.88476 1.647" transform="translate(31.02028 129.116)" id="Stroke-141" fill="none" stroke="#E2A688" stroke-width="0.610906661" stroke-linecap="round" stroke-linejoin="round" />
    <path d="M0 0L4.70488 1.00778" transform="translate(30.89074 134.2528)" id="Stroke-143" fill="none" stroke="#E2A688" stroke-width="0.610906661" stroke-linecap="round" stroke-linejoin="round" />
    <path d="M1.7394 1.27212C1.74587 1.98139 1.36151 2.5609 0.881379 2.56727C0.401251 2.57364 0.00653605 2.00368 6.53128e-05 1.2952C-0.00575835 0.585935 0.378603 0.00642121 0.859379 5.29228e-05C1.33951 -0.00631536 1.73357 0.56285 1.7394 1.27212" transform="translate(48.20023 63.40383)" id="Fill-145" fill="#FFFFFF" stroke="none" />
    <path d="M1.73939 1.27212C1.74586 1.98139 1.3615 2.5609 0.881367 2.56727C0.401238 2.57364 0.00652251 2.00368 5.17662e-05 1.2952C-0.00512483 0.585935 0.37859 0.00642121 0.859366 5.29228e-05C1.3395 -0.00631536 1.73356 0.56285 1.73939 1.27212" transform="translate(49.53101 76.43858)" id="Fill-147" fill="#FFFFFF" stroke="none" />
    <path d="M1.7394 1.27212C1.74523 1.98139 1.36086 2.5609 0.880734 2.56727C0.400605 2.57364 0.00588909 2.00368 6.54213e-05 1.2952C-0.00575825 0.585935 0.377957 0.00642121 0.858734 5.29228e-05C1.33886 -0.00631536 1.73293 0.56285 1.7394 1.27212" transform="translate(50.34993 90.54951)" id="Fill-149" fill="#FFFFFF" stroke="none" />
    <path d="M1.7394 1.27212C1.74523 1.98139 1.36086 2.5609 0.880734 2.56727C0.400605 2.57364 0.00588909 2.00368 6.54213e-05 1.2952C-0.00575825 0.585935 0.377957 0.00642121 0.858734 5.29228e-05C1.33886 -0.00631536 1.73293 0.56285 1.7394 1.27212" transform="translate(50.63937 103.812)" id="Fill-151" fill="#FFFFFF" stroke="none" />
    <path d="M1.7394 1.27212C1.74587 1.98139 1.36086 2.5609 0.880732 2.56727C0.401251 2.57364 0.00653616 2.00368 6.54212e-05 1.2952C-0.00575824 0.585935 0.377956 0.00642121 0.858732 5.29228e-05C1.33886 -0.00631536 1.73293 0.56285 1.7394 1.27212" transform="translate(50.61789 121.3578)" id="Fill-153" fill="#FFFFFF" stroke="none" />
    <path d="M0 0L8.06448 11.8259L13.9632 3.47549" transform="translate(35.63321 55.07146)" id="Stroke-155" fill="none" stroke="#1D39C4" stroke-width="0.8148266" stroke-linecap="round" stroke-linejoin="round" />
    <path d="M0 2.83468L6.33291 11.0251L9.42528 0" transform="translate(49.8271 55.56628)" id="Stroke-157" fill="none" stroke="#1D39C4" stroke-width="0.8148266" stroke-linecap="round" stroke-linejoin="round" />
    <path d="M5.3843 0C5.3843 0 6.95604 20.7343 0 20.8259" transform="translate(52.84784 138.1724)" id="Stroke-159" fill="none" stroke="#597EF7" stroke-width="0.610906661" stroke-linecap="round" stroke-linejoin="round" />
    <path d="M0 0C0 0 7.65877 5.99176 6.20091 25.4166" transform="translate(21.82413 65.04602)" id="Stroke-161" fill="none" stroke="#1D39C4" stroke-width="0.8148266" stroke-linecap="round" stroke-linejoin="round" />
    <path d="M0 0C0 0 7.38506 9.61212 16.4299 9.63521" transform="translate(4.132604 96.93758)" id="Stroke-163" fill="none" stroke="#1D39C4" stroke-width="0.8148266" stroke-linecap="round" stroke-linejoin="round" />
    <path d="M0 0C0 0 1.79693 0.908276 1.41645 2.86971C1.25015 3.72863 0.551954 3.41658 0.471717 4.27312C0.350714 5.58021 1.61704 5.97026 1.61704 5.97026" transform="translate(35.67236 24.10227)" id="Stroke-165" fill="none" stroke="#DD936F" stroke-width="0.5" stroke-linecap="round" stroke-linejoin="round" />
  </g>
</svg>
