<?xml version="1.0" encoding="utf-8"?>
<svg width="105px" height="310px" viewBox="0 0 105 310" version="1.1" xmlns:xlink="http://www.w3.org/1999/xlink" xmlns="http://www.w3.org/2000/svg">
  <desc>Created with Lunacy</desc>
  <defs>
    <path d="M0 0L41.3267 0L41.3267 12.2276L0 12.2276L0 0Z" transform="translate(0.004687051 0.4731842)" id="path_1" />
    <path d="M0 0L58.4973 0L58.4973 34.2875L0 34.2875L0 0Z" transform="translate(0 0.02602053)" id="path_2" />
    <clipPath id="mask_1">
      <use xlink:href="#path_1" />
    </clipPath>
    <clipPath id="mask_2">
      <use xlink:href="#path_2" />
    </clipPath>
  </defs>
  <g id="1.人物组件/1.商人/站立/思考" transform="translate(0.8505859 0.8505249)">
    <g id="分组">
      <path d="M18.2142 17.7888C18.2142 17.7888 9.32636 29.2171 1.40248 31.8414C-3.03626 33.3123 3.6635 39.8707 13.0497 38.4093C23.7053 36.7503 21.2383 34.0648 30.2643 34.8459C35.5398 35.3024 41.0425 33.2996 41.0425 33.2996L39.2916 21.5196C39.2916 21.5196 30.0241 -24.3072 18.2142 17.7888" transform="translate(1.930671 264.4765)" id="Fill-1" fill="#CCD7EE" stroke="none" />
      <path d="M2.91004 2.6116C2.91004 2.6116 2.94426 4.29128 8.42441 6.71872C14.8078 9.54703 24.2334 4.85329 29.762 2.7529C38.2773 -0.481042 39.0985 1.55188 40.6558 0C42.1924 2.75528 40.7578 5.58914 40.7578 5.58914C40.7578 5.58914 38.9546 6.87192 32.4272 7.07434C25.9011 7.27596 26.0399 9.43351 17.9133 10.9592C6.46491 13.108 0.627074 9.37715 0.118959 6.49487C-0.52022 2.86879 1.56131 1.29945 2.91004 2.6116" transform="translate(1.667384 293.9351)" id="Fill-3" fill="#B0BEDC" stroke="none" />
      <path d="M23.0447 17.2441C23.0447 17.2441 31.7691 28.8613 39.6543 31.6555C44.0711 33.2209 37.2796 39.6348 27.9153 37.9726C17.2849 36.0849 19.79 33.4527 10.7543 34.0401C5.4724 34.3838 0 32.262 0 32.262L1.91754 20.5217C1.91754 20.5217 11.0397 -23.3826 23.0447 17.2441" transform="translate(62.00137 266.7386)" id="Fill-5" fill="#CCD7EE" stroke="none" />
      <g id="分组" transform="translate(61.95022 294.7014)">
        <path d="M0 0L41.3267 0L41.3267 12.2276L0 12.2276L0 0Z" transform="translate(0.004687051 0.4731842)" id="Clip-8" fill="none" stroke="none" />
        <g clip-path="url(#mask_1)">
          <path d="M38.4533 3.42128C38.4533 3.42128 38.3952 5.09937 32.8815 7.40933C26.4593 10.1011 17.1015 5.20574 11.6033 2.98707C3.13511 -0.43024 2.28546 1.58522 0.750783 0C-0.825212 2.72194 0.569359 5.58597 0.569359 5.58597C0.569359 5.58597 2.35389 6.90765 8.87675 7.24977C15.3996 7.59111 15.2298 9.74628 23.3338 11.4458C34.7499 13.8399 40.6394 10.2345 41.1888 7.36408C41.8797 3.75229 39.8207 2.1385 38.4533 3.42128" transform="translate(0.004687051 0.4731842)" id="Fill-7" fill="#B0BEDC" stroke="none" />
        </g>
      </g>
      <path d="M2.19704 120.643C2.19704 120.643 -3.77767 5.74566 3.97835 1.12575C11.735 -3.49575 34.0352 6.55534 35.4311 23.1561C36.827 39.7576 29.5197 123.782 29.5197 123.782C29.5197 123.782 31.6877 133.853 28.2168 136.85C23.4242 139.349 18.5949 129.026 4.70985 131.473C-1.74004 127.646 2.19704 120.643 2.19704 120.643" transform="translate(14.28777 150.3919)" id="Fill-9" fill="#4E5C93" stroke="none" />
      <path d="M0 24.274L11.5678 119.732C11.5678 119.732 7.94454 133.456 15.7115 135.544C18.1275 136.193 22.501 132.486 27.6358 131.531C32.7711 130.577 38.6671 132.377 39.8667 129.766C42.2652 124.544 39.2882 116.774 39.2882 116.774C39.2882 116.774 40.4058 35.819 36.8825 4.86715C35.4505 -7.71617 1.39651 6.01022 0 24.274" transform="translate(47.99702 153.3337)" id="Fill-11" fill="#4E5C93" stroke="none" />
      <path d="M2.52396 0C2.52396 0 -0.700346 24.9833 0.139626 34.8542C0.979597 44.7259 22.8427 55.3437 35.1976 55.8192C41.8289 56.0748 65.9085 46.9692 68.2264 35.0304C71.1569 19.9379 69.189 15.2735 67.4781 8.76276C66.2449 4.06743 65.1054 1.96227 65.1054 1.96227C65.1054 1.96227 7.97505 0.210357 2.52396 0" transform="translate(15.19285 137.3882)" id="Fill-13" fill="#4E5C93" stroke="none" />
      <path d="M0 0C0 0 5.90433 10.9608 20.967 12.0824L30.8562 92.415" transform="translate(28.70868 180.6503)" id="Stroke-15" fill="none" stroke="#3B4A7A" stroke-width="0.8505" stroke-linecap="round" stroke-linejoin="round" />
      <path d="M0.170307 0C0.170307 0 -1.20812 17.1493 3.87819 31.6567" transform="translate(41.94757 155.1142)" id="Stroke-17" fill="none" stroke="#3B4A7A" stroke-width="0.8505" stroke-linecap="round" stroke-linejoin="round" />
      <path d="M0 7.60857L11.4697 0" transform="translate(54.75727 182.8759)" id="Stroke-19" fill="none" stroke="#3B4A7A" stroke-width="0.8505" stroke-linecap="round" stroke-linejoin="round" />
      <path d="M0 0C0 0 23.8749 19.6775 63.2464 1.78764" transform="translate(18.20671 142.9281)" id="Stroke-21" fill="none" stroke="#3B4A7A" stroke-width="0.8505" stroke-linecap="round" stroke-linejoin="round" />
      <path d="M0.339603 12.9707L0.30603 0" transform="translate(41.64998 138.7691)" id="Stroke-23" fill="none" stroke="#3B4A7A" stroke-width="0.8505" stroke-linecap="round" stroke-linejoin="round" />
      <path d="M0 0L61.9713 2.06786" transform="translate(17.98384 137.3987)" id="Stroke-25" fill="none" stroke="#3B4A7A" stroke-width="0.8505" stroke-linecap="round" stroke-linejoin="round" />
      <path d="M9.65421 69.3301L9.65421 69.3301C16.9944 72.2307 24.8531 67.2361 27.1722 58.1963L36.3958 22.2459C38.6975 13.2752 34.6732 3.70353 27.3898 0.825207L27.3898 0.825207C20.0496 -2.07613 12.1909 2.91846 9.87179 11.959L0.647605 47.9095C-1.65344 56.8794 2.37081 66.4518 9.65421 69.3301" transform="translate(0.3105817 52.74915)" id="Fill-27" fill="#CCD7EE" stroke="none" />
      <path d="M7.98072 13.1262C7.98072 13.1262 9.79173 20.5753 6.2827 22.6764C3.1985 24.5228 0.252465 23.7862 0.0200367 18.6336C-0.212392 13.4819 1.59926 -0.53586 4.31351 0.0158307C7.02712 0.567522 7.98072 13.1262 7.98072 13.1262" transform="translate(59.99723 17.12811)" id="Fill-29" fill="#51342D" stroke="none" />
      <path d="M14.7954 42.8187C14.7954 42.8187 7.87679 43.522 3.62916 39.9642C-1.46942 35.6935 0.223437 22.1949 0.448118 17.7814C0.842601 10.0395 3.70535 6.02841 3.70535 6.02841C3.70535 6.02841 6.62943 -0.404545 17.6601 0.0201385C28.6908 0.444821 28.7644 13.0535 28.6165 18.8657C28.468 24.6779 26.9889 35.6689 23.9738 38.5663C20.3356 42.0622 14.7954 42.8187 14.7954 42.8187" transform="translate(37.61639 1.787582)" id="Fill-31" fill="#B69882" stroke="none" />
      <path d="M3.14691 14.748C3.14691 14.748 -1.43258 8.75321 0.457197 4.22061C2.34762 -0.312781 5.90506 -0.66126 9.81438 0.701695C13.7231 2.06465 29.2519 -2.73467 30.7368 7.56806C37.2061 16.7865 32.1366 24.4331 32.1366 24.4331C32.1366 24.4331 29.4617 20.5824 28.3964 23.6933C27.3318 26.8034 26.506 28.9133 25.7428 27.914C24.9797 26.9154 25.788 23.2027 24.4529 21.454C23.117 19.7061 21.5404 14.4098 22.7652 10.8973C23.2145 8.73257 8.44693 7.9221 5.25233 9.49541C3.45101 10.3829 3.14691 14.748 3.14691 14.748" transform="translate(35.63187 0.0001036655)" id="Fill-33" fill="#51342D" stroke="none" />
      <path d="M0 1.03087C0 1.03087 0.766369 -0.604355 3.89964 0.244218" transform="translate(39.67724 17.14588)" id="Stroke-35" fill="none" stroke="#51342D" stroke-width="1.701" stroke-linecap="round" stroke-linejoin="round" />
      <path d="M0 0.156794C0 0.156794 2.38239 -0.478246 4.32124 0.807711" transform="translate(50.13569 17.69513)" id="Stroke-37" fill="none" stroke="#51342D" stroke-width="1.701" stroke-linecap="round" stroke-linejoin="round" />
      <path d="M2.07432 0C2.07432 0 -3.21149 7.39901 3.09249 7.64191" transform="translate(43.58796 21.19692)" id="Stroke-39" fill="none" stroke="#7C5B4D" stroke-width="0.637875" stroke-linecap="round" stroke-linejoin="round" />
      <path d="M2.1675 1.61674C2.14554 2.48595 1.64259 3.17179 1.04409 3.14877C0.445586 3.12575 -0.0212081 2.4026 0.000743547 1.53339C0.0226952 0.663386 0.526291 -0.0224573 1.12415 0.000562949C1.72265 0.0235832 2.18945 0.746735 2.1675 1.61674" transform="translate(50.65791 22.88445)" id="Fill-41" fill="#51342D" stroke="none" />
      <path d="M2.16754 1.6167C2.14494 2.48591 1.64264 3.17176 1.04413 3.14953C0.445629 3.12572 -0.0218113 2.40256 0.000785982 1.53335C0.0227376 0.664142 0.525687 -0.0217011 1.12419 0.000525314C1.7227 0.0235455 2.18949 0.747491 2.16754 1.6167" transform="translate(40.41506 22.48989)" id="Fill-43" fill="#51342D" stroke="none" />
      <path d="M0.118158 0.388168L0.000652852 14.4392C-0.0658476 22.4503 4.9559 29.1388 11.4562 29.6961C18.6104 30.3089 24.6749 23.306 24.6252 14.4892L24.5432 0L0.118158 0.388168Z" transform="translate(40.65486 30.3103)" id="Fill-45" fill="#B69882" stroke="none" />
      <path d="M0.130772 3.57494C0.130772 3.57494 0.460046 0.159217 4.34354 0.0107762C7.69826 -0.117819 9.8069 0.889513 10.9155 3.84086C12.0227 6.793 4.85876 3.60828 4.85876 3.60828C4.85876 3.60828 -0.934526 6.68505 0.130772 3.57494" transform="translate(40.64792 28.46545)" id="Fill-47" fill="#51342D" stroke="none" />
      <path d="M6.8986 6.7368C6.40727 10.0033 4.49102 12.3069 2.61803 11.8814C0.745045 11.4559 -0.375778 8.46252 0.11555 5.19603C0.606233 1.92875 2.52312 -0.374857 4.39611 0.0506199C6.2691 0.476097 7.38928 3.46952 6.8986 6.7368" transform="translate(62.46114 21.20004)" id="Fill-49" fill="#B69882" stroke="none" />
      <path d="M0 4.21667C0 4.21667 8.46879 12.6619 20.3104 0" transform="translate(41.61066 37.76829)" id="Stroke-51" fill="none" stroke="#7C5B4D" stroke-width="0.637875" stroke-linecap="round" stroke-linejoin="round" />
      <path d="M0.0228485 0C0.0228485 0 -0.302551 3.26728 1.50264 3.78405" transform="translate(46.5694 40.16517)" id="Stroke-53" fill="none" stroke="#7C5B4D" stroke-width="0.637875" stroke-linecap="round" stroke-linejoin="round" />
      <path d="M2.14222 0.000169589C2.14222 0.000169589 0.083287 -0.0792104 0 3.1968C2.04344 3.87233 1.53661 5.07176 0.658549 6.06798" transform="translate(64.53974 24.24248)" id="Stroke-55" fill="none" stroke="#7C5B4D" stroke-width="0.637875" stroke-linecap="round" stroke-linejoin="round" />
      <path d="M4.43391 57.0262C4.43391 57.0262 -9.74811 91.9605 12.6154 99.6961C23.3678 103.415 32.1762 104.573 40.1317 104.01C57.5232 102.776 66.289 99.0182 68.4622 96.1042C74.3 88.2797 71.168 75.921 72.4929 57.1865C73.6996 40.1048 80.2599 20.0208 72.631 10.5921C66.8855 6.32935 61.4816 2.88505 53.7559 0.215505C47.8567 -1.82297 43.8112 11.2747 38.0186 11.1366C33.2099 11.0223 29.1204 -0.820404 24.7785 0.606849C16.3226 3.38515 12.8698 5.1839 5.85172 9.38548C5.85172 9.38548 3.07678 22.5038 6.24233 41.5169C6.24233 41.5169 3.96711 49.4644 4.43391 57.0262" transform="translate(13.09341 44.76509)" id="Fill-57" fill="#CCD7EE" stroke="none" />
      <path d="M0 3.33634C0 3.33634 1.07175 31.7012 5.27807 45.0561C18.604 16.9468 27.2219 0.047628 27.5841 0L11.1792 8.53652L0 3.33634Z" transform="translate(39.53443 46.02421)" id="Fill-59" fill="#FFFFFF" stroke="none" />
      <path d="M0 4.92076L5.76359 0L11.7874 6.26943L8.28544 11.988L0.97039 11.7562L0 4.92076Z" transform="translate(43.78116 53.1588)" id="Fill-61" fill="#253368" stroke="none" />
      <path d="M0 8.50239L4.14369 0L11.4116 0.280211L13.0463 7.21564L3.64784 27.1281L0 8.50239Z" transform="translate(40.73867 64.83028)" id="Fill-63" fill="#253368" stroke="none" />
      <path d="M1.09693 15.9308L10.9771 8.85722L1.62377 0L0 1.87575L1.09693 15.9308Z" transform="translate(39.1597 44.56274)" id="Fill-65" fill="#FFFFFF" stroke="none" />
      <path d="M0 10.1392L8.28221 18.2098L17.1629 2.74972L15.4145 0L0 10.1392Z" transform="translate(50.13666 43.28099)" id="Fill-67" fill="#FFFFFF" stroke="none" />
      <path d="M1.08402 17.5446L10.9771 9.66769L1.88719 0L0 2.68543L1.08402 17.5446Z" transform="translate(38.80189 43.51564)" id="Fill-69" fill="#FFFFFF" stroke="none" />
      <path d="M1.08402 17.5446L10.9771 9.66769L1.88719 0L0 2.68543L1.08402 17.5446Z" transform="translate(38.80189 43.51564)" id="Stroke-71" fill="none" stroke="#CCD7EE" stroke-width="0.8505" stroke-linecap="round" stroke-linejoin="round" />
      <path d="M0 11.1172L8.79871 20.6086L18.4303 3.41413L15.197 0L0 11.1172Z" transform="translate(49.77911 42.06584)" id="Fill-73" fill="#FFFFFF" stroke="none" />
      <path d="M0 11.1172L8.79871 20.6086L18.4303 3.41413L15.197 0L0 11.1172Z" transform="translate(49.77911 42.06584)" id="Stroke-75" fill="none" stroke="#CCD7EE" stroke-width="0.8505" />
      <path d="M4.90261 0L4.71214 16.9873C4.71214 16.9873 -4.8 42.1127 3.20523 56.2844" transform="translate(39.25715 91.35328)" id="Stroke-77" fill="none" stroke="#96A7CA" stroke-width="0.8505" stroke-linecap="round" stroke-linejoin="round" />
      <path d="M6.80254 0C6.38224 2.22026 7.57214 9.42161 7.57214 9.42161L5.22913 37.4999C5.22913 37.4999 -9.24665 65.4837 9.97197 77.047C9.97197 77.047 39.9456 91.1679 67.9958 75.2538C67.9958 75.2538 74.9635 65.9068 70.5409 53.8847" transform="translate(12.81617 66.25825)" id="Stroke-79" fill="none" stroke="#96A7CA" stroke-width="0.8505" stroke-linecap="round" stroke-linejoin="round" />
      <path d="M0 0.0960498C0 0.0960498 1.0427 31.0852 5.73582 46.7691C5.73582 46.7691 22.1789 11.5601 29.7483 0" transform="translate(38.64319 45.48696)" id="Stroke-81" fill="none" stroke="#96A7CA" stroke-width="0.8505" stroke-linecap="round" stroke-linejoin="round" />
      <path d="M0 1.08429C0 1.08429 8.38874 -1.88769 22.4758 2.00906" transform="translate(33.90972 108.6578)" id="Stroke-83" fill="none" stroke="#96A7CA" stroke-width="0.8505" stroke-linecap="round" stroke-linejoin="round" />
      <path d="M0 0C0 0 10.8867 1.01527 13.3169 0.810467" transform="translate(38.41464 104.2505)" id="Stroke-85" fill="none" stroke="#96A7CA" stroke-width="0.8505" stroke-linecap="round" stroke-linejoin="round" />
      <path d="M18.7336 71.6462L18.7336 71.6462C26.4134 70.6675 31.9743 62.1857 31.1214 52.7514L27.7286 15.2102C26.8847 5.87513 20.0733 -0.875349 12.4742 0.0922929L12.4735 0.0922929C4.79434 1.07105 -0.766516 9.5528 0.0863676 18.9871L3.47918 56.5283C4.32302 65.8634 11.1345 72.6147 18.7336 71.6462" transform="translate(65.28024 53.54628)" id="Fill-87" fill="#CCD7EE" stroke="none" />
      <path d="M7.07564 23.64C7.07564 23.64 14.7961 34.1515 20.0135 32.2813C24.7383 30.5874 23.3495 22.9026 23.3495 22.9026C23.3495 22.9026 24.5071 16.5442 20.3518 12.0537C15.6316 6.95276 15.9751 -0.587551 14.1105 0.0363761C11.6797 0.850021 13.8755 9.26986 13.5991 10.6011C12.6849 15.0043 2.77248 1.71526 2.37089 1.55968C1.41084 1.18739 1.13063 2.66703 0.882061 2.88136C0.350058 3.34097 -0.0076242 4.05062 0.000123424 5.38183C0.00464287 6.12244 0.598627 6.87099 0.575384 7.78863C0.573447 7.86324 0.0704976 11.1924 1.64068 13.5691C3.45492 16.3148 0.811687 16.3696 7.07564 23.64" transform="translate(38.83915 37.68413)" id="Fill-89" fill="#B69882" stroke="none" />
      <path d="M7.40091 9.81851C7.40091 9.81851 2.54445 5.88761 0 0" transform="translate(39.99586 41.10757)" id="Stroke-91" fill="none" stroke="#7C5B4D" stroke-width="0.637875" stroke-linecap="round" stroke-linejoin="round" />
      <path d="M6.73895 12.7492C6.73895 12.7492 4.37141 10.6925 1.18778 5.38593C1.18778 5.38593 -0.891166 0.849366 0.451755 0" transform="translate(39.20296 45.55666)" id="Stroke-93" fill="none" stroke="#7C5B4D" stroke-width="0.637875" stroke-linecap="round" stroke-linejoin="round" />
      <path d="M7.32721 17.1474C2.08917 11.9226 0.791446 8.26161 0.791446 8.26161C0.791446 8.26161 -1.1461 3.41704 1.04195 3.20272C1.60236 0.243431 3.16932 2.64626 3.16932 2.64626C3.16932 2.64626 9.25637 10.6089 12.0907 11.155C15.0361 11.7218 13.0353 9.17844 12.9494 4.3958C12.8487 -1.25447 15.2298 -1.61724 16.2931 4.23704C17.2855 9.70394 20.1043 11.6892 21.7397 14.1373C23.3745 16.5854 23.6088 21.6625 23.6088 21.6625" transform="translate(38.85933 37.44373)" id="Stroke-95" fill="none" stroke="#7C5B4D" stroke-width="0.637875" stroke-linecap="round" stroke-linejoin="round" />
      <path d="M12.5093 1.41756L2.48715 10.3716C-0.125738 12.7062 -0.779767 17.1554 1.00283 20.4672L22.2784 59.9857C26.7934 67.6244 35.4901 69.3176 41.703 63.7658C47.9166 58.2147 49.2931 47.5223 44.7775 39.8835L20.7767 2.79957C18.7662 -0.307367 15.1216 -0.917005 12.5093 1.41756" transform="translate(48.00287 59.18986)" id="Fill-97" fill="#CCD7EE" stroke="none" />
      <path d="M44.6108 40.1887L20.8727 2.84989C18.8835 -0.278478 15.2441 -0.926219 12.615 1.37977L2.52958 10.2267C-0.0994493 12.5327 -0.785114 16.9756 0.974242 20.3055L21.9696 60.0503C21.9696 60.0503 28.2155 69.1497 35.8269 65.934" transform="translate(48.20016 59.22432)" id="Stroke-99" fill="none" stroke="#96A7CA" stroke-width="0.8505" stroke-linecap="round" stroke-linejoin="round" />
      <path d="M13.992 22.8034C13.992 22.8034 1.88122 20.4839 0.236139 13.6977C-1.25399 7.5521 4.79561 1.0096 4.79561 1.0096C4.79561 1.0096 9.8419 0.417426 15.7314 0.0887927C19.591 -0.126327 26.9344 -0.134265 27.5549 2.26539C28.3639 5.39376 20.675 5.69223 19.9945 7.92916C18.6148 12.4618 30.7521 13.5572 32.6425 15.0337C36.3375 17.9191 28.502 25.7214 13.992 22.8034" transform="translate(52.68902 103.8201)" id="Fill-101" fill="#B69882" stroke="none" />
      <path d="M0 0C0 0 5.66415 3.01882 11.4213 2.37346" transform="translate(73.40315 118.9572)" id="Stroke-103" fill="none" stroke="#7C5B4D" stroke-width="0.637875" stroke-linecap="round" stroke-linejoin="round" />
      <path d="M11.5459 1.89401C11.5459 1.89401 6.8263 2.68305 0 0" transform="translate(71.4308 122.4105)" id="Stroke-105" fill="none" stroke="#7C5B4D" stroke-width="0.637875" stroke-linecap="round" stroke-linejoin="round" />
      <path d="M0 0C0 0 2.86339 1.38915 8.56628 1.7797" transform="translate(68.86479 124.8386)" id="Stroke-107" fill="none" stroke="#7C5B4D" stroke-width="0.637875" stroke-linecap="round" stroke-linejoin="round" />
      <g id="分组" transform="translate(0 90.69482)">
        <path d="M0 0L58.4973 0L58.4973 34.2875L0 34.2875L0 0Z" transform="translate(0 0.02602053)" id="Clip-110" fill="none" stroke="none" />
        <g clip-path="url(#mask_2)">
          <path d="M57.7851 29.0619L58.4927 10.1345C58.6024 7.20542 56.8166 4.68987 54.4413 4.42791L14.5456 0.0183529C6.87351 -0.415062 0.367444 6.88075 0.0149273 16.3135C-0.337589 25.7462 5.59644 33.7445 13.2685 34.1779L53.325 34.2875C55.71 34.2938 57.6759 31.9902 57.7851 29.0619" transform="translate(-0.0001422336 0.02602053)" id="Fill-109" fill="#CCD7EE" stroke="none" />
        </g>
      </g>
      <path d="M0.53846 33.6373L40.5904 34.4342C42.9748 34.4819 44.9665 32.2124 45.1092 29.2857L46.0318 10.3726C46.1745 7.44584 44.4171 4.90013 42.0457 4.5969L0 0" transform="translate(12.64973 91.02766)" id="Stroke-111" fill="none" stroke="#96A7CA" stroke-width="0.8505" stroke-linecap="round" stroke-linejoin="round" />
    </g>
  </g>
</svg>
