<?xml version="1.0" standalone="no"?><!DOCTYPE svg PUBLIC "-//W3C//DTD SVG 1.1//EN" "http://www.w3.org/Graphics/SVG/1.1/DTD/svg11.dtd"><svg t="1560169694112" class="icon" style="" viewBox="0 0 1024 1024" version="1.1" xmlns="http://www.w3.org/2000/svg" p-id="2533" xmlns:xlink="http://www.w3.org/1999/xlink" width="200" height="200"><defs><style type="text/css"></style></defs><path d="M512 64C198.4 64 64 198.4 64 512c0 313.6 134.4 448 448 448s448-134.4 448-448C960 198.4 825.6 64 512 64zM403.2 576 281.6 313.6C275.2 294.4 294.4 275.2 313.6 281.6L576 403.2C595.2 409.6 614.4 428.8 620.8 448l121.6 262.4c6.4 19.2-12.8 38.4-32 32L448 620.8C428.8 608 409.6 595.2 403.2 576z" fill="#003f88" p-id="2534"></path><path d="M512 512m-44.8 0a0.7 0.7 0 1 0 89.6 0 0.7 0.7 0 1 0-89.6 0Z" fill="#003f88" p-id="2535"></path></svg>