<?xml version="1.0" standalone="no"?><!DOCTYPE svg PUBLIC "-//W3C//DTD SVG 1.1//EN" "http://www.w3.org/Graphics/SVG/1.1/DTD/svg11.dtd"><svg t="1560168313626" class="icon" style="" viewBox="0 0 1024 1024" version="1.1" xmlns="http://www.w3.org/2000/svg" p-id="2008" xmlns:xlink="http://www.w3.org/1999/xlink" width="200" height="200"><defs><style type="text/css"></style></defs><path d="M894.28366 371.688347c-3.622504-27.212782-4.131087-74.082252 21.145599-89.819678 0.451278-0.288572 0.787946-0.707105 1.180895-1.064238 20.668739-6.608511 34.964326-15.883759 23.739681-28.365025L635.522268 160.590512l-493.591745 68.623937s-56.521295 8.077979-51.472302 95.894023c2.740414 47.791469 17.730826 71.26509 30.841426 82.816171L80.794118 420.133709c-11.242042 12.478196 3.057639 21.759583 23.725354 28.355815 0.391926 0.370437 0.723477 0.782829 1.181918 1.072425 25.260314 15.752776 24.77322 62.616106 21.140483 89.832981-90.743724 25.767873-58.171887 34.164101-58.171887 34.164101l19.907399 4.817726c-14.003945 12.651135-27.909653 36.644595-25.303293 82.149998 5.052063 87.797625 51.478442 93.856621 51.478442 93.856621l323.002508 104.986099 487.538889-118.088511s32.585139-8.408507-58.187237-34.179451c-3.650133-27.176966-4.158716-74.034157 21.159925-89.827865 0.464581-0.279363 0.805342-0.703011 1.181919-1.054005 20.665669-6.609535 34.958186-15.877619 23.726377-28.361955l-21.191648-6.398733c14.132882-8.518001 35.366486-30.792307 38.685068-88.644923 2.294252-39.797401-8.086166-63.105247-20.101827-76.825736l41.888016-10.134825c-0.001023 0.01535 32.584116-8.395204-58.170864-34.165124z m-407.79366-1.124613l81.985246-16.847713 277.063223-56.937781 41.280172-8.488325c-13.19144 24.140817-12.639878 57.173141-10.458189 78.407768 0.479931 4.803399 1.029446 9.191336 1.565658 12.526291l-45.183062 11.232832-349.697497 86.99433 3.444449-106.887402zM134.317125 456.008778l41.273009 8.490372 266.080078 54.697762 23.245423 4.759398 69.707618 14.32731 3.439333 106.890472-359.415836-89.418542-35.433001-8.80555c0.520863-3.340071 1.070378-7.722892 1.570775-12.539594 2.169409-21.217231 2.731204-54.261834-10.467399-78.401628z m-16.035208-135.12963c-0.500397-23.355941 3.662413-40.247656 12.075013-48.834218 5.353938-5.481851 11.670807-6.624884 16.006556-6.624885 2.289136 0 3.936659 0.320295 4.048199 0.320295l212.675774 69.334112 106.106619 34.593889-3.481287 107.635439-297.66954-83.45676-15.709797-4.399194a9.510608 9.510608 0 0 0-1.964748-0.301875c-1.224898-0.088004-30.655184-2.794649-32.086789-68.266803z m320.242651 491.858264l-313.372173-87.853907c-0.577145-0.168846-1.353834-0.280386-1.957585-0.310062-1.246387-0.084934-30.691-2.788509-32.115442-68.24429-0.505513-23.387663 3.677762-40.260959 12.07399-48.857755 5.368264-5.480828 11.688203-6.619768 16.012695-6.619767 2.295276 0 3.937682 0.304945 4.056386 0.304945 0 0 0.014326 0 0 0L441.984367 705.101973l-3.459799 107.635439z m410.637428-110.618377c0.491187 4.817726 1.040702 9.197476 1.575892 12.537548l-394.888746 98.237395 3.448542-106.890472 84.421738-17.35732 12.472056 3.016707 46.730301-15.188934 215.412095-44.26618 41.292451-8.494465c-13.202697 24.137747-12.650111 57.186444-10.464329 78.405721z m21.74628-145.265478c-0.716314 0.014326-1.437745 0.109494-2.110057 0.323365l-29.782304 8.343015-283.582707 79.511915-3.469008-107.633392 93.041046-30.349215 225.285977-73.468269c0.027629-0.013303 11.849886-2.638083 20.528545 6.183839 8.399297 8.586562 12.568247 25.479301 12.078083 48.835242-1.474584 65.448618-30.916127 68.167542-31.989575 68.2535z" p-id="2009" fill="#003f88"></path></svg>