<?xml version="1.0" standalone="no"?><!DOCTYPE svg PUBLIC "-//W3C//DTD SVG 1.1//EN" "http://www.w3.org/Graphics/SVG/1.1/DTD/svg11.dtd"><svg t="1560168090191" class="icon" style="" viewBox="0 0 1024 1024" version="1.1" xmlns="http://www.w3.org/2000/svg" p-id="2036" xmlns:xlink="http://www.w3.org/1999/xlink" width="200" height="200"><defs><style type="text/css"></style></defs><path d="M266.752 213.504H757.76l-22.016-34.816H297.472l-30.72 34.816z m609.792 75.264h-115.712V235.008H258.048v53.76H147.456c-37.888 0-68.096 30.72-68.096 68.096v412.672H47.616c-17.408 0-31.744 14.848-31.744 32.768v32.768h991.744v-32.768c0-18.432-14.336-32.768-31.744-32.768h-31.744V356.864c0.512-37.888-29.696-68.096-67.584-68.096z m-71.68 52.224h68.608V409.6h-68.608V340.992z m0 116.224h68.608v68.608h-68.608V457.216z m0 115.712h68.608v68.608h-68.608v-68.608z m-77.312-231.936h68.608V409.6h-68.608V340.992z m0 116.224h68.608v68.608h-68.608V457.216z m0 115.712h68.608v68.608h-68.608v-68.608z m-172.032-231.936h68.608V409.6h-68.608V340.992z m0 116.224h68.608v68.608h-68.608V457.216z m0 115.712h68.608v68.608h-68.608v-68.608zM475.136 340.992h68.608V409.6H475.136V340.992z m0 116.224h68.608v68.608H475.136V457.216z m0 115.712h68.608v68.608H475.136v-68.608zM395.264 340.992h68.608V409.6H395.264V340.992z m0 116.224h68.608v68.608H395.264V457.216z m0 115.712h68.608v68.608H395.264v-68.608zM228.864 340.992h68.608V409.6H228.864V340.992z m0 116.224h68.608v68.608H228.864V457.216z m0 115.712h68.608v68.608H228.864v-68.608z m-76.8-231.936h68.608V409.6H152.064V340.992z m0 116.224h68.608v68.608H152.064V457.216z m0 115.712h68.608v68.608H152.064v-68.608z" fill="#003f88" p-id="2037"></path></svg>