<?xml version="1.0" encoding="utf-8"?>
<svg width="26px" height="135px" viewBox="0 0 26 135" version="1.1" xmlns:xlink="http://www.w3.org/1999/xlink" xmlns="http://www.w3.org/2000/svg">
  <desc>Created with Lunacy</desc>
  <defs>
    <path d="M0 0L9.21565 0L9.21565 18.0867L0 18.0867L0 0Z" transform="translate(0.0337943 0.003659182)" id="path_1" />
    <path d="M0 0L7.85889 0L7.85889 12.3295L0 12.3295L0 0Z" transform="translate(0.03944447 0.1945643)" id="path_2" />
    <path d="M0 0L9.42828 0L9.42828 14.5182L0 14.5182L0 0Z" transform="translate(0 0.2080873)" id="path_3" />
    <clipPath id="mask_1">
      <use xlink:href="#path_1" />
    </clipPath>
    <clipPath id="mask_2">
      <use xlink:href="#path_2" />
    </clipPath>
    <clipPath id="mask_3">
      <use xlink:href="#path_3" />
    </clipPath>
  </defs>
  <g id="1.人物组件/6.产品经理/站立/摸头" transform="matrix(-1 0 0 1 25.3833 0.3831177)">
    <g id="分组">
      <path d="M3.34748 1.89284C3.34748 1.89284 5.06275 4.23144 4.92739 6.20284C4.8047 7.98803 3.67752 7.97411 3.67752 7.97411C3.67752 7.97411 2.7969 7.75692 1.87978 6.99154C1.27885 6.48999 0.0673439 5.88785 0.109423 5.18512C0.164007 4.26938 1.35388 5.30137 1.58506 4.82802C2.05368 3.86877 0.264558 1.8389 0.0602463 1.18942C-0.338913 -0.0809916 1.30048 -0.944871 3.34748 1.89284" transform="translate(10.65696 2.8555)" id="Fill-1" fill="#BC877A" stroke="none" />
      <path d="M1.60711 2.25333C1.60711 2.25333 0.914923 0.665486 0 0" transform="translate(10.93548 3.48479)" id="Stroke-3" fill="none" stroke="#965C56" stroke-width="0.623295" stroke-linecap="round" stroke-linejoin="round" />
      <path d="M0 0C0 0 0.764689 0.478928 1.65325 2.14856" transform="translate(11.38687 2.991383)" id="Stroke-5" fill="none" stroke="#965C56" stroke-width="0.623295" stroke-linecap="round" stroke-linejoin="round" />
      <path d="M1.20525 1.68982C1.20525 1.68982 0.847664 0.922005 0 0" transform="translate(12.36449 3.19973)" id="Stroke-7" fill="none" stroke="#965C56" stroke-width="0.623295" stroke-linecap="round" stroke-linejoin="round" />
      <g id="分组" transform="translate(14.53332 8.506881)">
        <path d="M0 0L9.21565 0L9.21565 18.0867L0 18.0867L0 0Z" transform="translate(0.0337943 0.003659182)" id="Clip-10" fill="none" stroke="none" />
        <g clip-path="url(#mask_1)">
          <path d="M5.44133 16.5948C5.44133 16.5948 7.28757 19.8428 8.65573 16.7538C10.0668 13.5684 8.36591 10.2838 8.36591 10.2838C8.36591 10.2838 7.14122 8.03324 5.63787 5.24599C4.7199 3.54434 3.68821 1.70729 2.84629 0.594548C1.93457 -0.610428 1.45531 0.147642 0.771233 1.69232C-0.0411117 3.52624 -0.286488 4.45486 0.399282 6.16695C1.05294 7.79934 2.06487 9.74534 2.8157 11.3262C4.2474 14.3407 5.44133 16.5948 5.44133 16.5948" transform="translate(0.0337943 0.003659182)" id="Fill-9" fill="#ADC6FF" stroke="none" />
        </g>
      </g>
      <path d="M1.58193 0L0 3.57142L1.05772 6.03045L2.86746 1.94425L1.58193 0Z" transform="translate(13.94327 7.357385)" id="Fill-11" fill="#ADC6FF" stroke="none" />
      <path d="M3.67845 5.15648L3.33506 0L0 0.615018L0.143643 5.84076C0.194341 7.86402 1.04505 9.40313 2.02571 9.24581C2.04447 9.24268 2.06306 9.23954 2.08198 9.23676C3.08478 9.07665 3.81534 7.20932 3.67845 5.15648" transform="translate(8.358653 14.62563)" id="Fill-13" fill="#CE998A" stroke="none" />
      <path d="M0.0694731 1.0712C0.0694731 1.0712 0.834838 -1.08154 1.41076 0.716526C1.95813 2.42445 1.09644 5.05054 0.255195 4.70875C-0.175734 3.09376 0.0694731 1.0712 0.0694731 1.0712" transform="translate(12.77398 8.120975)" id="Fill-15" fill="#CE998A" stroke="none" />
      <path d="M1.43427 0.778713C1.43427 0.778713 0.496365 -1.06216 0.0835171 0.916892C-0.308714 2.7971 0.764217 5.06887 1.56304 4.42636C1.84881 2.6805 1.43427 0.778713 1.43427 0.778713" transform="translate(5.472842 9.500652)" id="Fill-17" fill="#CE998A" stroke="none" />
      <path d="M6.73694 7.12677C7.00463 13.3295 5.57952 15.2431 3.73412 15.5811C1.8889 15.9191 0.451283 14.5954 0.0543202 8.35054C-0.310872 2.60585 1.21783 0.374451 3.06306 0.0364867C4.90845 -0.301477 6.50171 1.68106 6.73694 7.12677" transform="translate(6.474199 2.424839)" id="Fill-19" fill="#CE998A" stroke="none" />
      <path d="M0.000984107 2.37262C0.0265019 3.62911 0.541759 4.60541 1.15199 4.55286C1.76205 4.5003 2.23607 3.43872 2.21039 2.18224C2.18487 0.925746 1.66961 -0.050208 1.05955 0.00200072C0.44932 0.0549055 -0.0245337 1.11613 0.000984107 2.37262" transform="translate(10.20362 8.450061)" id="Fill-21" fill="#FFFFFF" stroke="none" />
      <path d="M0.000984107 2.37262C0.0265019 3.62911 0.541759 4.60541 1.15199 4.55286C1.76205 4.5003 2.23607 3.43872 2.21039 2.18224C2.18487 0.925746 1.66961 -0.050208 1.05955 0.00200072C0.44932 0.0549055 -0.0245337 1.11613 0.000984107 2.37262Z" transform="translate(10.20362 8.450061)" id="Stroke-23" fill="none" stroke="#7D4556" stroke-width="0.7662373" />
      <path d="M0.000138235 0.873093C0.000138235 0.873093 -0.017099 0.0311412 0.333391 0.000860147C0.68388 -0.0294209 0.728832 0.74988 0.728832 0.74988" transform="translate(10.9636 9.993272)" id="Stroke-25" fill="none" stroke="#7D4556" stroke-width="0.7662373" stroke-linecap="round" stroke-linejoin="round" />
      <path d="M0 0.681412C0 0.681412 0.357418 -0.630419 1.61134 0.386259" transform="translate(7.488682 7.992781)" id="Stroke-27" fill="none" stroke="#7D4556" stroke-width="0.7662373" stroke-linecap="round" stroke-linejoin="round" />
      <path d="M0 0.671768C0 0.671768 0.904446 -0.429835 1.4846 0.188316" transform="translate(10.44604 7.531293)" id="Stroke-29" fill="none" stroke="#7D4556" stroke-width="0.7662373" stroke-linecap="round" stroke-linejoin="round" />
      <path d="M0.663801 4.12553C-0.141784 4.09246 0.306045 3.17081 0.286949 1.84958C0.273091 0.898685 0 0 0 0" transform="translate(9.383692 9.048598)" id="Stroke-31" fill="none" stroke="#965C56" stroke-width="0.623295" stroke-linecap="round" stroke-linejoin="round" />
      <path d="M0 0.304551C0 0.304551 0.830765 0.611538 1.66423 0" transform="translate(9.11687 13.62518)" id="Stroke-33" fill="none" stroke="#7D4556" stroke-width="0.6548753" stroke-linecap="round" stroke-linejoin="round" />
      <path d="M0.00567759 2.50628C0.0670217 3.75755 0.609317 4.66946 1.21684 4.54312C1.82437 4.41677 2.26713 3.29986 2.20579 2.04859C2.14444 0.796973 1.60215 -0.114938 0.994619 0.0117546C0.387093 0.1381 -0.0556665 1.25502 0.00567759 2.50628" transform="translate(7.380021 8.800756)" id="Fill-35" fill="#FFFFFF" stroke="none" />
      <path d="M0.00567759 2.50628C0.0670217 3.75755 0.609317 4.66946 1.21684 4.54312C1.82437 4.41677 2.26713 3.29986 2.20579 2.04859C2.14444 0.796973 1.60215 -0.114938 0.994619 0.0117546C0.387093 0.1381 -0.0556665 1.25502 0.00567759 2.50628Z" transform="translate(7.380021 8.800756)" id="Stroke-37" fill="none" stroke="#7D4556" stroke-width="0.7662373" />
      <path d="M0.00149164 0.916047C0.00149164 0.916047 -0.0395735 0.0772279 0.309226 0.0048319C0.658364 -0.0679122 0.725623 0.704776 0.725623 0.704776" transform="translate(8.143184 10.34254)" id="Stroke-39" fill="none" stroke="#7D4556" stroke-width="0.7662373" stroke-linecap="round" stroke-linejoin="round" />
      <g id="分组" transform="translate(9.463557 9.87333)">
        <path d="M0 0.662262C0 0.662262 0.397108 -0.24582 0.803141 0.408766" transform="translate(0.1282676 0.01448335)" id="Fill-41" fill="#FFFFFF" stroke="none" />
        <path d="M0 0.662262C0 0.662262 0.397108 -0.24582 0.803141 0.408766" transform="translate(0.1282676 0.01448335)" id="Stroke-43" fill="none" stroke="#7D4556" stroke-width="0.7662373" />
      </g>
      <path d="M0 0.665138C0.597387 0.969689 1.89947 1.36682 3.18516 0" transform="translate(8.66436 17.11345)" id="Stroke-44" fill="none" stroke="#965C56" stroke-width="0.623295" stroke-linecap="round" stroke-linejoin="round" />
      <path d="M0 0.219624L0.497682 0.128433" transform="translate(9.795813 14.86983)" id="Stroke-46" fill="none" stroke="#965C56" stroke-width="0.623295" stroke-linecap="round" stroke-linejoin="round" />
      <path d="M0.074272 0L0.09472 1.42042" transform="translate(9.872704 16.46926)" id="Stroke-48" fill="none" stroke="#965C56" stroke-width="0.623295" stroke-linecap="round" stroke-linejoin="round" />
      <path d="M0.0409806 0L0.128011 1.07306" transform="translate(10.19695 16.84349)" id="Stroke-50" fill="none" stroke="#965C56" stroke-width="0.623295" stroke-linecap="round" stroke-linejoin="round" />
      <path d="M0.0944666 0L0.0745255 0.643211" transform="translate(9.62824 17.26736)" id="Stroke-52" fill="none" stroke="#965C56" stroke-width="0.623295" stroke-linecap="round" stroke-linejoin="round" />
      <path d="M0.0316015 0L0.137391 0.728832" transform="translate(10.47154 17.07244)" id="Stroke-54" fill="none" stroke="#965C56" stroke-width="0.623295" stroke-linecap="round" stroke-linejoin="round" />
      <path d="M0 0.40976C0 0.40976 0.153783 -0.454467 0.450364 0.327271C0.649944 1.07768 0.290835 1.3074 0.517623 1.88901C0.625102 2.16467 0.767393 2.13856 0.767393 2.13856" transform="translate(5.735051 10.79923)" id="Stroke-56" fill="none" stroke="#965C56" stroke-width="0.623295" stroke-linecap="round" stroke-linejoin="round" />
      <path d="M0.607188 0.330088C0.607188 0.330088 0.381753 -0.464876 0.156825 0.412578C0.0248418 1.22355 0.397807 1.31892 0.224252 1.97431C0.142122 2.28443 0 2.31054 0 2.31054" transform="translate(13.35335 9.372615)" id="Stroke-58" fill="none" stroke="#965C56" stroke-width="0.623295" stroke-linecap="round" stroke-linejoin="round" />
      <g id="分组" transform="translate(5.745731 0.1534935)">
        <path d="M0 0L7.85889 0L7.85889 12.3295L0 12.3295L0 0Z" transform="translate(0.03944447 0.1945643)" id="Clip-61" fill="none" stroke="none" />
        <g clip-path="url(#mask_2)">
          <path d="M0.660825 11.4687C0.660825 11.4687 0.107714 10.4548 0.301379 9.04207C-0.211174 7.496 0.00564263 5.8824 0.391114 5.22144C0.203025 3.81285 0.567372 1.18815 1.5357 0.748551C2.13258 1.11471 2.8219 1.03744 2.8219 1.03744C2.8219 1.03744 4.38068 -1.21554 5.61922 0.918751C6.77699 0.444348 7.49537 3.06766 7.44282 4.06102C8.14481 5.57228 7.74616 8.13782 7.74616 8.13782C7.74616 8.13782 7.71692 9.10716 7.5601 10.4677C7.39786 11.8749 7.22718 10.135 7.21045 9.74445C7.19355 9.35393 6.70567 9.11551 6.78763 7.32928C6.21678 6.64674 6.28336 5.42123 6.28336 5.42123C6.28336 5.42123 5.93135 6.30564 4.77781 5.40174C4.04692 6.91335 2.78725 5.7665 2.78725 5.7665C2.78725 5.7665 1.85712 6.9043 1.25737 6.29242C1.25737 6.29242 1.45762 7.23983 1.07418 8.6874C1.28846 9.9599 0.848237 10.6473 1.00844 11.405C1.16848 12.1628 0.854659 13.0071 0.660825 11.4687" transform="translate(0.03944447 0.1945118)" id="Fill-60" fill="#7D4556" stroke="none" />
        </g>
      </g>
      <path d="M4.82912 30.799C5.05438 21.7018 5.2423 12.2928 5.30889 4.80117C5.30889 4.80117 4.91142 -0.663343 2.48824 0.0672309C0.113394 0.783186 0 6.91631 0 6.91631L0.576094 31.1164C0.576094 31.1164 0.691178 35.0557 2.81608 34.8201C4.75425 34.6057 4.82912 30.799 4.82912 30.799" transform="translate(10.2807 57.25243)" id="Fill-62" fill="#597EF7" stroke="none" />
      <path d="M1.56969 0.0542989L1.56969 0.0542989C0.74045 -0.28993 -0.0277876 1.04766 0.000772038 2.78864C0.0333875 4.79206 0.0710727 7.49891 0.0923657 10.4146C0.114335 13.4155 0.135459 15.9021 0.239558 16.2181C0.698202 17.6107 1.616 18.1303 2.55864 19.5107C3.30457 20.6033 3.433 21.1219 4.38426 21.4908C5.73265 22.0136 5.1045 20.8344 3.60892 17.105C2.27676 13.7824 2.36717 12.2255 2.36717 12.2255L2.61964 2.85025C2.65564 1.51057 2.20832 0.319171 1.56969 0.0542989" transform="translate(11.56701 110.4687)" id="Fill-64" fill="#CE998A" stroke="none" />
      <path d="M3.39997 2.97242C4.37319 5.20451 5.48888 6.96951 5.46116 8.02866C5.43362 9.08745 5.0277 10.0432 3.35096 8.81387C2.2035 7.97262 2.53219 7.46619 1.43729 5.99565C0.890435 5.26125 0.691025 5.33991 0.186921 4.48577C-0.101886 3.71935 0.0300967 0 0.0300967 0L1.94799 4.33715C1.94799 4.33715 1.4498 2.31772 1.86028 1.88125C2.27059 1.44444 2.64846 1.14755 2.89012 1.50674C3.13195 1.86559 3.39997 2.97242 3.39997 2.97242" transform="translate(11.64104 123.7195)" id="Fill-66" fill="#7D4556" stroke="none" />
      <path d="M4.30693 4.53147C3.87262 20.2762 3.54089 36.0377 3.54089 36.0377L0.625271 36.1282L0 4.65468C0 4.65468 0.199749 -0.0705518 2.32736 0.000800011C4.24711 0.0651907 4.30693 4.53147 4.30693 4.53147" transform="translate(10.78952 84.32278)" id="Fill-68" fill="#597EF7" stroke="none" />
      <path d="M0.509004 30.7837C0.294215 21.6851 0.0577953 12.8316 0 5.3393C0 5.3393 0.463376 -0.678964 2.88571 0.0634436C5.25988 0.791233 5.36601 6.92506 5.36601 6.92506L4.76169 31.122C4.76169 31.122 4.64204 35.061 2.51748 34.8149C0.579643 34.5904 0.509004 30.7837 0.509004 30.7837" transform="translate(5.237758 57.20393)" id="Fill-70" fill="#597EF7" stroke="none" />
      <path d="M3.58126 0.0529969L3.58126 0.0529969C4.41084 -0.287056 5.17756 1.05401 5.14714 2.79534C5.11199 4.79842 5.07109 7.50492 5.04642 10.4202C5.02107 13.4212 4.99691 15.9081 4.89247 16.2234C4.43214 17.6136 3.51383 18.1287 2.56967 19.5046C1.82239 20.5933 1.69311 21.1112 0.741518 21.4753C-0.607377 21.9914 0.0221184 20.8153 1.52192 17.0932C2.85831 13.7776 2.76942 12.2204 2.76942 12.2204L2.52827 2.84372C2.49346 1.5037 2.9423 0.314736 3.58126 0.0529969" transform="translate(4.112391 110.416)" id="Fill-72" fill="#CE998A" stroke="none" />
      <path d="M2.06757 2.9557C1.09198 5.18292 -0.0260685 6.94236 0.000463284 8.0015C0.026826 9.06098 0.431562 10.0185 2.10982 8.7975C3.25829 7.96182 2.93011 7.45365 4.0267 5.98868C4.5744 5.25706 4.77381 5.33642 5.27893 4.48472C5.56858 3.71969 5.44116 0 5.44116 0L3.51786 4.3274C3.51786 4.3274 4.01859 2.31075 3.60861 1.8722C3.19864 1.4333 2.82128 1.13467 2.57894 1.49247C2.33695 1.85027 2.06757 2.9557 2.06757 2.9557" transform="translate(3.702796 123.6727)" id="Fill-74" fill="#7D4556" stroke="none" />
      <path d="M0 4.52151C0.416059 20.2683 0.728694 36.0322 0.728694 36.0322L3.64465 36.1363L4.30693 4.66595C4.30693 4.66595 4.11259 -0.0603264 1.98498 0.000583719C0.065062 0.0552288 0 4.52151 0 4.52151" transform="translate(5.759149 84.26901)" id="Fill-76" fill="#597EF7" stroke="none" />
      <path d="M8.4783 1.61708L8.26469 0L4.11036 0.233547L3.94339 1.78345C3.94339 1.78345 0.59059 2.65916 0.0924014 5.22574C-0.421673 7.87376 1.35105 22.8848 1.92208 25.4984C1.41443 27.5891 1.78232 29.5898 1.78232 29.5898L10.2319 29.5898C10.2319 29.5898 11.2481 29.0263 10.6137 26.805C10.9518 22.0655 12.2527 5.94483 11.946 3.41584C11.608 0.631377 8.4783 1.61708 8.4783 1.61708" transform="translate(4.149621 20.49507)" id="Fill-78" fill="#ADC6FF" stroke="none" />
      <path d="M0.599826 12.3125C0.599826 12.3125 -0.131402 3.77086 0.0208596 0" transform="translate(4.671324 27.85865)" id="Stroke-80" fill="none" stroke="#965C56" stroke-width="0.623295" stroke-linecap="round" stroke-linejoin="round" />
      <path d="M0 0.263132C0 0.263132 2.40695 0.938712 4.0433 0" transform="translate(8.268784 22.40848)" id="Stroke-82" fill="none" stroke="#597EF7" stroke-width="0.623295" stroke-linecap="round" stroke-linejoin="round" />
      <path d="M10.4464 10.0745C10.1767 4.19445 9.7576 1.10474 9.43736 0C2.55668 0.405139 0.842595 0.218928 0.842595 0.218928C0.842595 0.218928 0.084665 3.30237 0 10.2051C0 10.2051 2.57392 16.6518 5.3077 16.6518C7.77228 16.6518 10.4464 10.0745 10.4464 10.0745" transform="translate(5.179456 52.57834)" id="Fill-84" fill="#597EF7" stroke="none" />
      <path d="M8.59477 2.80674L8.46464 0.139919L0.0392062 0L0 2.67099C0 2.67099 4.45902 3.37268 8.59477 2.80674" transform="translate(6.022101 50.11956)" id="Fill-86" fill="#597EF7" stroke="none" />
      <path d="M0.0194341 0C0.0194341 0 0.0922697 11.4079 0.149558 16.3319" transform="translate(10.18863 52.72404)" id="Stroke-88" fill="none" stroke="#1D39C4" stroke-width="0.637423038" stroke-linecap="round" stroke-linejoin="round" />
      <path d="M1.26288 0C1.26288 0 1.33233 6.89259 1.29482 10.1236C1.18176 12.276 0 11.8907 0 11.8907" transform="translate(10.14777 52.85338)" id="Stroke-90" fill="none" stroke="#1D39C4" stroke-width="0.637423038" stroke-linecap="round" stroke-linejoin="round" />
      <path d="M0 0C0 0 0.0316015 4.11613 1.07851 4.76944" transform="translate(13.86499 53.22267)" id="Stroke-92" fill="none" stroke="#1D39C4" stroke-width="0.637423038" stroke-linecap="round" stroke-linejoin="round" />
      <path d="M0.841412 0C0.841412 0 0.856621 4.2644 0 4.72175" transform="translate(5.934664 53.53133)" id="Stroke-94" fill="none" stroke="#1D39C4" stroke-width="0.637423038" stroke-linecap="round" stroke-linejoin="round" />
      <path d="M0 0.174028L8.4496 0.174028" transform="translate(6.016439 50.08489)" id="Stroke-96" fill="none" stroke="#1D39C4" stroke-width="0.637423038" stroke-linecap="round" stroke-linejoin="round" />
      <path d="M0 0.174028L8.6186 0.174028" transform="translate(6.016439 52.5213)" id="Stroke-98" fill="none" stroke="#1D39C4" stroke-width="0.637423038" stroke-linecap="round" stroke-linejoin="round" />
      <path d="M2.26288 3.55957C2.26288 3.55957 2.9424 -1.10754 5.00765 0.246407C7.11363 1.62715 6.33644 6.29426 6.33644 6.29426C6.33644 6.29426 5.88675 9.56461 5.28057 13.4865C4.80706 16.5512 4.4493 18.9065 4.05538 20.8083C3.6307 22.8601 2.57214 24.0522 1.60483 23.418C0.134765 22.4542 -0.188348 20.2201 0.0915033 18.0767C0.36375 15.9925 0.773048 13.2036 1.09768 10.9203C1.72228 6.52989 2.26288 3.55957 2.26288 3.55957" transform="translate(1.14606 23.74351)" id="Fill-100" fill="#ADC6FF" stroke="none" />
      <path d="M8.74221 14.5173L0.38335 13.7359C0.161801 13.7154 -0.00955659 13.3287 0.000413947 12.8724L0.266745 0.789899C0.276716 0.333595 0.464466 -0.0196836 0.686015 0.000851779L9.0447 0.782242C9.26642 0.803125 9.43778 1.18947 9.42781 1.64612L9.16148 13.7286C9.1515 14.1849 8.96375 14.5382 8.74221 14.5173" transform="translate(0.2845574 67.56326)" id="Fill-102" fill="#4E5C93" stroke="none" />
      <g id="分组" transform="translate(0 67.32865)">
        <path d="M0 0L9.42828 0L9.42828 14.5182L0 14.5182L0 0Z" transform="translate(0 0.2080873)" id="Clip-105" fill="none" stroke="none" />
        <g clip-path="url(#mask_3)">
          <path d="M8.74221 14.5173L0.383519 13.7359C0.16197 13.715 -0.00955697 13.3283 0.000413563 12.872L0.266745 0.789551C0.276716 0.333595 0.464635 -0.0196836 0.686014 0.000851786L9.04487 0.782242C9.26659 0.803125 9.43795 1.18947 9.42798 1.64612L9.16148 13.7286C9.1515 14.1849 8.96392 14.5378 8.74221 14.5173" transform="translate(-0.0001093774 0.2080873)" id="Fill-104" fill="#253368" stroke="none" />
        </g>
      </g>
      <path d="M3.42964 6.23861C2.91168 6.16064 2.50188 6.23861 2.28117 6.21807C1.71167 6.16552 1.869 10.101 1.75476 10.7212C1.58087 11.6652 0.503715 11.126 0.0891772 7.58002C-0.0287792 6.57205 0.0045122 5.06983 0.00383623 3.64175C0.00383623 3.64175 0.146466 0.211641 0.812632 0.0156847C1.39042 -0.154516 1.87779 1.11659 1.87779 1.11659C1.87779 1.11659 2.49106 2.88298 2.80505 4.48927L3.42964 6.23861Z" transform="translate(1.933928 61.73931)" id="Fill-106" fill="#CE998A" stroke="none" />
      <path d="M0.114968 0C0.114968 0 -0.0205639 1.64666 0.112602 3.43672" transform="translate(3.172841 68.98861)" id="Stroke-108" fill="none" stroke="#965C56" stroke-width="0.623295" stroke-linecap="round" stroke-linejoin="round" />
      <path d="M0.186583 3.54009C0.186583 3.54009 -0.142613 2.08417 0.0735275 0" transform="translate(2.669333 68.61009)" id="Stroke-110" fill="none" stroke="#965C56" stroke-width="0.623295" stroke-linecap="round" stroke-linejoin="round" />
      <path d="M0.0588919 0C0.0588919 0 0.00346251 1.04626 0.12294 2.7681" transform="translate(2.196798 67.92728)" id="Stroke-112" fill="none" stroke="#965C56" stroke-width="0.623295" stroke-linecap="round" stroke-linejoin="round" />
      <path d="M4.23477 4.99602C4.23477 4.99602 4.15433 -0.00173983 2.1244 4.54389e-07C0.0307566 0.0020888 0 4.80389 0 4.80389C0 4.80389 0.0189271 8.18388 0.0334604 12.3498C0.042079 14.8934 0.0792573 17.7015 0.24808 19.7321C0.430761 21.9311 1.02578 22.149 2.04092 22.148C3.24617 22.1469 3.74453 21.8935 3.89594 19.6962C4.0406 17.6009 4.05598 14.7503 4.11648 12.5423C4.23173 8.33216 4.23477 4.99602 4.23477 4.99602" transform="translate(1.011789 40.08213)" id="Fill-114" fill="#ADC6FF" stroke="none" />
      <path d="M0.169668 3.26896L2.51714 3.26687L2.68545 0L0 0.0024364L0.169668 3.26896Z" transform="translate(1.86356 61.11808)" id="Fill-116" fill="#ADC6FF" stroke="none" />
      <path d="M1.46219 5.85955C1.46219 5.85955 -0.714598 7.61237 0.243756 12.166C1.22104 16.8091 3.38363 14.838 3.38363 14.838C3.38363 14.838 4.91267 13.6689 6.73677 12.1169C8.16205 10.9046 9.25864 9.98682 10.1284 9.01121C11.0674 7.95799 11.4954 5.53028 11.0466 3.39773C10.3645 0.156272 9.22873 -0.455266 8.22458 0.277744C7.24797 0.990566 5.94775 2.04518 4.88157 2.88574C2.8317 4.50177 1.46219 5.85955 1.46219 5.85955" transform="translate(12.09882 17.62322)" id="Fill-118" fill="#ADC6FF" stroke="none" />
      <path d="M1.24885 0C1.24885 0 0.550914 14.6344 0.297257 16.0719C0.868113 18.4237 0 19.0308 0 19.0308" transform="translate(14.46598 31.22827)" id="Stroke-120" fill="none" stroke="#597EF7" stroke-width="0.623295" stroke-linecap="round" stroke-linejoin="round" />
      <path d="M0 0C0 0 0.190285 7.31722 1.20542 15.4183C0.824682 16.8557 1.27707 19.6841 1.27707 19.6841" transform="translate(4.739417 30.57496)" id="Stroke-122" fill="none" stroke="#597EF7" stroke-width="0.623295" stroke-linecap="round" stroke-linejoin="round" />
    </g>
  </g>
</svg>
