<?xml version="1.0" encoding="utf-8"?>
<svg width="36px" height="164px" viewBox="0 0 36 164" version="1.1" xmlns:xlink="http://www.w3.org/1999/xlink" xmlns="http://www.w3.org/2000/svg">
  <desc>Created with Lunacy</desc>
  <defs>
    <path d="M0 0L8.3656 0L8.3656 14.7115L0 14.7115L0 0Z" transform="translate(5.881825E-05 0.1125317)" id="path_1" />
    <path d="M0 0L6.39702 0L6.39702 14.7803L0 14.7803L0 0Z" transform="translate(0.05541424 0.04377771)" id="path_2" />
    <path d="M0 0L7.64313 0L7.64313 15.3215L0 15.3215L0 0Z" transform="translate(0.06652291 0.01294673)" id="path_3" />
    <clipPath id="mask_1">
      <use xlink:href="#path_1" />
    </clipPath>
    <clipPath id="mask_2">
      <use xlink:href="#path_2" />
    </clipPath>
    <clipPath id="mask_3">
      <use xlink:href="#path_3" />
    </clipPath>
  </defs>
  <g id="1.人物组件/2.保安/站立/自信" transform="translate(0.6826172 0.6826172)">
    <g id="分组">
      <path d="M3.94881 19.6401C8.15007 16.7601 10.9911 12.4179 11.4686 8.91237C11.9982 5.02426 11.6452 -0.951334 7.72641 0.128355C5.92816 0.624079 3.82636 5.4113 2.48987 9.12838C1.32478 12.3681 0.318571 15.2842 0.318571 15.2842C0.318571 15.2842 -0.217028 17.3363 0.100723 18.4882C0.418474 19.6401 -0.00519371 20.6121 0.877391 22.8441C1.22354 23.7197 0.665558 24.1759 1.75998 24.8239C2.32832 25.1605 3.64877 23.1681 3.94881 19.6401" transform="translate(22.11197 54.47393)" id="Fill-1" fill="#FFC2BD" stroke="none" />
      <path d="M5.83448 36.1222C5.83448 36.1222 -0.571317 9.76704 0.041297 7.26798C0.654078 4.76858 5.1766 -0.850647 12.0126 0.109115C18.8783 1.07296 21.279 6.76101 21.279 6.76101C21.279 6.76101 19.5138 23.465 18.0333 34.3045C18.8131 37.1443 17.3956 39.1606 17.3956 39.1606C17.3956 39.1606 8.49727 38.3214 6.38061 38.5486C5.3921 37.6846 5.83448 36.1222 5.83448 36.1222" transform="translate(5.064248 26.88957)" id="Fill-3" fill="#597EF7" stroke="none" />
      <path d="M15.4102 20.3934L7.80327 27.5652L0 21.2935C0 21.2935 0.953085 9.19752 2.72728 3.5817C3.00961 1.99743 3.12438 0.809737 3.12438 0.809737C3.12438 0.809737 10.1146 -1.35032 13.9276 1.38553L14.0687 3.9776C14.0687 3.9776 14.6732 6.90901 14.9866 9.59342C15.5162 14.1295 15.4102 20.3934 15.4102 20.3934" transform="translate(8.53234 64.6646)" id="Fill-5" fill="#4E5C93" stroke="none" />
      <path d="M5.66687 6.16761C5.66687 6.16761 11.1318 -10.4724 13.7797 10.9116C7.34818 56.8108 6.28951 64.0548 6.28951 64.0548C6.28951 64.0548 6.33696 67.9426 5.06612 69.4547L0.617779 69.4547C0.617779 69.4547 -1.07689 67.2949 1.14736 62.3268C4.9602 13.9435 5.66687 6.16761 5.66687 6.16761" transform="translate(3.090498 77.85446)" id="Fill-7" fill="#4E5C93" stroke="none" />
      <path d="M8.61342 0.214466C8.61342 0.214466 4.92521 -2.04542 1.00645 8.10652C0.669986 55.5096 0.336198 56.5604 0.336198 56.5604C0.336198 56.5604 -0.640777 60.7612 0.736143 62.9213L5.32498 62.9213C5.32498 62.9213 6.51379 60.1616 5.98421 57.1378C8.42029 15.4504 8.61342 0.214466 8.61342 0.214466" transform="translate(15.32916 84.1235)" id="Fill-9" fill="#4E5C93" stroke="none" />
      <g id="分组" transform="translate(0 146.7701)">
        <path d="M0 0L8.3656 0L8.3656 14.7115L0 14.7115L0 0Z" transform="translate(5.881825E-05 0.1125317)" id="Clip-12" fill="none" stroke="none" />
        <g clip-path="url(#mask_1)">
          <path d="M0.276662 14.7116L6.20049 14.7116L8.3656 0L3.737 0L2.94263 9.8143L0.122631 13.6809C-0.103737 13.991 0.00401748 14.7116 0.276662 14.7116" transform="translate(5.881825E-05 0.1125317)" id="Fill-11" fill="#253368" stroke="none" />
        </g>
      </g>
      <g id="分组" transform="translate(15.70376 146.7701)">
        <path d="M0 0L6.39702 0L6.39702 14.7803L0 14.7803L0 0Z" transform="translate(0.05541424 0.04377771)" id="Clip-14" fill="none" stroke="none" />
        <g clip-path="url(#mask_2)">
          <path d="M0.327106 0L4.70695 0.0425879L4.00095 9.30836L6.27532 13.4816C6.52425 13.9385 6.36571 14.7804 6.03108 14.7804L0 14.7804L0.327106 0Z" transform="translate(0.05541424 0.04377771)" id="Fill-13" fill="#253368" stroke="none" />
        </g>
      </g>
      <path d="M0 12.5403L0.352499 0L6.17759 0L6.17208 13.5481L4.5013 20.0283L0 12.5403Z" transform="translate(12.29217 12.47054)" id="Fill-15" fill="#FFC2BD" stroke="none" />
      <path d="M1.91862 0.480807C1.91862 0.480807 5.16663 -1.24724 6.04921 1.84873C6.90757 4.85987 6.96705 15.7447 5.27254 17.4005C3.89128 18.7504 1.07129 18.1204 0.400535 12.8647C0.400535 12.8647 -0.164299 8.83247 0.0475343 5.2326C0.259201 1.63273 1.91862 0.480807 1.91862 0.480807" transform="translate(12.62088 5.005928)" id="Fill-17" fill="#FFC2BD" stroke="none" />
      <path d="M1.75569 2.13992C1.75569 2.13992 0.87311 -1.31618 0.202359 0.555989C-0.468392 2.42781 0.661276 5.88391 1.64978 5.73979C2.63828 5.59602 1.75569 2.13992 1.75569 2.13992" transform="translate(11.26573 12.56261)" id="Fill-19" fill="#FFC2BD" stroke="none" />
      <g id="分组" transform="translate(11.69429 0.1006211)">
        <path d="M0 0L7.64313 0L7.64313 15.3215L0 15.3215L0 0Z" transform="translate(0.06652291 0.01294673)" id="Clip-22" fill="none" stroke="none" />
        <g clip-path="url(#mask_3)">
          <path d="M7.47411 13.0052C7.47411 13.0052 7.89777 8.8292 7.40361 6.23713C6.90927 3.64506 6.27377 1.05333 5.81485 2.42125C5.74419 1.77323 5.32052 0.477197 5.00294 0.0451849C4.68502 -0.386827 3.69652 2.42125 3.69652 2.42125C3.69652 2.42125 3.76718 1.12522 3.37877 1.91735C2.99052 2.70915 0.625094 5.1571 0.236844 6.45314C-0.151574 7.74917 0.0547469 12.5136 0.0547469 12.5136C0.0547469 12.5136 0.813874 12.3695 1.21983 15.3216C1.11392 12.9456 1.59889 11.7037 1.84782 11.2312C1.94221 11.052 1.99633 10.8029 2.00619 10.5409C2.0249 10.0377 2.05263 9.19273 2.06299 8.36721C2.06767 8.00334 2.19798 7.7025 2.37389 7.64049C4.16379 7.00814 6.13144 7.57678 6.83226 7.82311C6.99063 7.87864 7.11209 8.13826 7.13314 8.46329L7.30972 11.1637C7.30972 11.1637 7.40361 11.6369 7.47411 13.0052" transform="translate(0.06652291 0.0128028)" id="Fill-21" fill="#253368" stroke="none" />
        </g>
      </g>
      <path d="M0 0.323669L0.597077 0L1.74212 0.408163" transform="translate(14.31004 12.43497)" id="Stroke-23" fill="none" stroke="#253368" stroke-width="1.36521959" stroke-linecap="round" stroke-linejoin="round" />
      <path d="M0 0.611903L1.12967 0L1.57104 0.25178" transform="translate(17.25792 12.18265)" id="Stroke-25" fill="none" stroke="#253368" stroke-width="1.36521959" stroke-linecap="round" stroke-linejoin="round" />
      <path d="M0.104605 0.0938768C0.104605 0.0938768 1.01693 1.5463 1.49355 3.05834C2.15562 1.38446 2.85293 0.664214 2.85293 0.664214C2.85293 0.664214 3.65265 1.87576 4.07632 1.49792C4.20863 1.17391 4.19443 0.844447 4.19443 0.844447C4.19443 0.844447 4.90929 1.38446 5.41231 2.8965C5.62431 1.81647 6.22105 0.417886 6.22105 0.417886C6.22105 0.417886 6.34802 7.4684 3.80602 7.57607C1.23761 7.57607 0.381593 4.67838 0.0904048 2.24814C0.0230791 1.48667 -0.0806659 -0.446138 0.104605 0.0938768" transform="translate(12.96976 15.9946)" id="Fill-27" fill="#EFADAB" stroke="none" />
      <path d="M0 0C0 0 1.08239 0.869474 1.92956 0.32946" transform="translate(15.32831 18.02687)" id="Stroke-29" fill="none" stroke="#D18682" stroke-width="1.092014" stroke-linecap="round" stroke-linejoin="round" />
      <path d="M0 3.76205C0 3.76205 0.926689 4.89625 1.16509 4.51807C1.40331 4.13989 1.04146 0.792136 1.04146 0.792136L1.07671 0" transform="translate(15.88105 12.97441)" id="Stroke-31" fill="none" stroke="#D18682" stroke-width="0.8083005" stroke-linecap="round" stroke-linejoin="round" />
      <path d="M0.594738 0.167456L0 0.173248" transform="translate(16.27816 19.69537)" id="Stroke-33" fill="none" stroke="#D18682" stroke-width="0.8083005" stroke-linecap="round" stroke-linejoin="round" />
      <path d="M0.529585 0.756021C0.529585 1.17372 0.410971 1.51204 0.264792 1.51204C0.118614 1.51204 0 1.17372 0 0.756021C0 0.338659 0.118614 0 0.264792 0C0.410971 0 0.529585 0.338659 0.529585 0.756021" transform="translate(14.71601 13.98245)" id="Fill-35" fill="#253368" stroke="none" />
      <path d="M0.529585 0.756021C0.529585 1.17372 0.411138 1.51204 0.264792 1.51204C0.118614 1.51204 0 1.17372 0 0.756021C0 0.338659 0.118614 0 0.264792 0C0.411138 0 0.529585 0.338659 0.529585 0.756021" transform="translate(17.49618 13.98245)" id="Fill-37" fill="#253368" stroke="none" />
      <path d="M0.459085 0L0 0.935913" transform="translate(15.01051 17.45095)" id="Stroke-39" fill="none" stroke="#D18682" stroke-width="0.8083005" stroke-linecap="round" stroke-linejoin="round" />
      <path d="M0 0C0 0 0.767814 6.37184 4.26307 4.91397" transform="translate(13.08652 18.45892)" id="Stroke-41" fill="none" stroke="#D18682" stroke-width="0.6822056" stroke-linecap="round" stroke-linejoin="round" />
      <path d="M0.158876 0C0.158876 0 0.50319 1.18803 0 1.83605" transform="translate(16.50217 21.69877)" id="Stroke-43" fill="none" stroke="#D18682" stroke-width="0.8083005" stroke-linecap="round" stroke-linejoin="round" />
      <path d="M0.00431743 0.561025C0.00431743 0.561025 -0.0574953 -0.212713 0.286651 0.0571242C0.630965 0.326961 0.569152 0.993037 0.498485 1.56883C0.425312 2.16642 0.542756 2.52314 0.807549 2.63114" transform="translate(11.72304 13.9379)" id="Stroke-45" fill="none" stroke="#D18682" stroke-width="0.6822056" stroke-linecap="round" stroke-linejoin="round" />
      <path d="M0.148852 0.192451C0.142838 0.266043 0.108757 0.315786 0.0726719 0.303521C0.0365865 0.291596 0.0121955 0.221752 0.0182097 0.1485C0.024224 0.0749083 0.0583046 0.0251655 0.0943899 0.0370902C0.130475 0.0493555 0.154866 0.118859 0.148852 0.192451" transform="translate(15.59875 19.40036)" id="Fill-47" fill="#D18682" stroke="none" />
      <path d="M0.148852 0.192451C0.142838 0.266043 0.108757 0.315786 0.0726719 0.303521C0.0365865 0.291596 0.0121955 0.221752 0.0182097 0.1485C0.024224 0.0749083 0.0583046 0.0251655 0.0943899 0.0370902C0.130475 0.0493555 0.154866 0.118859 0.148852 0.192451" transform="translate(14.60494 19.90845)" id="Fill-49" fill="#D18682" stroke="none" />
      <path d="M0.145594 0.123255C0.15829 0.193099 0.140916 0.270779 0.106668 0.297014C0.0724209 0.322907 0.0341639 0.287133 0.0214673 0.217289C0.00877069 0.147445 0.026145 0.069764 0.0603925 0.0438705C0.09464 0.0176363 0.132897 0.0534102 0.145594 0.123255" transform="translate(17.80977 20.419)" id="Fill-51" fill="#D18682" stroke="none" />
      <path d="M0.145594 0.123255C0.15829 0.193099 0.140916 0.270779 0.106668 0.297014C0.0724209 0.322907 0.0341639 0.287133 0.0214673 0.217289C0.00877069 0.147445 0.026145 0.069764 0.0603925 0.0438705C0.09464 0.0176363 0.13273 0.0534102 0.145594 0.123255" transform="translate(18.43102 19.7735)" id="Fill-53" fill="#D18682" stroke="none" />
      <path d="M0.145583 0.123404C0.15828 0.193248 0.140905 0.270928 0.106658 0.296822C0.0724104 0.322715 0.0341535 0.287282 0.0214568 0.217438C0.00876023 0.147594 0.0263016 0.069913 0.0605491 0.0440195C0.0947966 0.0177853 0.132886 0.0535592 0.145583 0.123404" transform="translate(17.27059 20.81212)" id="Fill-55" fill="#D18682" stroke="none" />
      <path d="M0.145583 0.123255C0.15828 0.193099 0.140905 0.270779 0.106658 0.297014C0.0724104 0.322907 0.0341535 0.287133 0.0214568 0.217289C0.00876023 0.147445 0.0263016 0.069764 0.0605491 0.0438705C0.0947966 0.0176363 0.132886 0.0534102 0.145583 0.123255" transform="translate(16.49809 20.5025)" id="Fill-57" fill="#D18682" stroke="none" />
      <path d="M0.145549 0.123255C0.158413 0.193099 0.140872 0.27112 0.106624 0.297014C0.0723767 0.322907 0.0342868 0.287133 0.0214232 0.217289C0.00872653 0.147445 0.0262679 0.069764 0.0605154 0.0438705C0.0947629 0.0176363 0.132853 0.0534102 0.145549 0.123255" transform="translate(13.83705 19.42251)" id="Fill-59" fill="#D18682" stroke="none" />
      <path d="M0.148851 0.192498C0.142837 0.26609 0.108757 0.315833 0.0726715 0.303567C0.0365863 0.291302 0.0121954 0.221798 0.0182096 0.148206C0.0242238 0.0746142 0.0583042 0.0248714 0.0943894 0.0371367C0.130475 0.0494021 0.154865 0.118906 0.148851 0.192498" transform="translate(15.09935 21.29517)" id="Fill-61" fill="#D18682" stroke="none" />
      <path d="M0.148851 0.192498C0.142837 0.26609 0.108757 0.315833 0.0726715 0.303567C0.0365863 0.291302 0.0121954 0.221798 0.0182096 0.148206C0.0242238 0.0746142 0.0583042 0.0248714 0.0943894 0.0371367C0.130475 0.0494021 0.154865 0.118906 0.148851 0.192498" transform="translate(15.61293 21.08571)" id="Fill-63" fill="#D18682" stroke="none" />
      <path d="M0.148828 0.192451C0.142814 0.266043 0.108734 0.315786 0.0726487 0.303521C0.0367306 0.291596 0.0123398 0.221752 0.0181869 0.1485C0.0242011 0.0749083 0.0582815 0.0251655 0.0943666 0.0370902C0.130452 0.0493555 0.154843 0.118859 0.148828 0.192451" transform="translate(17.68719 21.44925)" id="Fill-65" fill="#D18682" stroke="none" />
      <path d="M0.148828 0.192498C0.142814 0.26609 0.108734 0.315833 0.0726487 0.303567C0.0367306 0.291302 0.0123398 0.221798 0.0181869 0.148206C0.0242011 0.0746142 0.0582815 0.0248714 0.0943666 0.0371367C0.130452 0.0494021 0.154843 0.118906 0.148828 0.192498" transform="translate(17.35861 19.85448)" id="Fill-67" fill="#D18682" stroke="none" />
      <path d="M0.148851 0.192498C0.142837 0.26609 0.108757 0.315833 0.0726715 0.303567C0.0365863 0.291302 0.0121954 0.221798 0.0182096 0.148206C0.0242238 0.0746142 0.0583042 0.0248714 0.0943894 0.0371367C0.130475 0.0494021 0.154865 0.118906 0.148851 0.192498" transform="translate(17.59695 18.50447)" id="Fill-69" fill="#D18682" stroke="none" />
      <path d="M0.148829 0.192498C0.142815 0.26609 0.108734 0.315833 0.0726491 0.303567C0.0367309 0.291302 0.0123398 0.221798 0.018187 0.148206C0.0242012 0.0746142 0.0582818 0.0248714 0.0943672 0.0371367C0.130453 0.0494021 0.154844 0.118906 0.148829 0.192498" transform="translate(14.53979 20.75001)" id="Fill-71" fill="#D18682" stroke="none" />
      <path d="M7.75532 3.27587L7.49053 1.07969L6.30172 1.2957L5.5897 6.87472L4.01315 0.732172L0.495003 0L0 3.45576C0 3.45576 2.29158 9.80579 6.00786 8.6399C7.84353 8.06377 7.75532 3.27587 7.75532 3.27587" transform="translate(11.31523 24.61495)" id="Fill-73" fill="#597EF7" stroke="none" />
      <path d="M0 0C0 0 2.2595 11.5199 0.141167 21.9597C1.83584 28.1516 3.60101 32.6874 4.66018 34.7034C5.71934 36.7193 9.78211 36.2631 10.097 29.5196C10.3794 23.4717 5.20513 9.08452 4.44834 6.47984C3.31867 2.59207 0.776668 0 0 0" transform="translate(23.51888 30.48269)" id="Fill-75" fill="#FFC2BD" stroke="none" />
      <path d="M7.39614 15.9477C6.00084 11.0436 4.84227 7.83584 4.44817 6.47984C3.31851 2.59173 0.776668 0 0 0C0 0 2.25934 11.5195 0.141167 21.9597C0.859865 24.5855 0.780176 24.3511 1.46513 26.3156C1.46513 26.3156 1.99455 23.9395 4.00697 20.4834C6.09958 16.8897 7.39614 15.9477 7.39614 15.9477" transform="translate(23.4307 30.15885)" id="Fill-77" fill="#597EF7" stroke="none" />
      <path d="M1.20034 0C1.20034 0 1.94159 6.48018 0 15.84" transform="translate(23.80138 39.41051)" id="Stroke-79" fill="none" stroke="#1D39C4" stroke-width="0.6199665" stroke-linecap="round" stroke-linejoin="round" />
      <path d="M11.3856 4.33475C6.01053 2.93072 0 3.73512 0 3.73512L0.211834 0.657541C0.211834 0.657541 7.04314 -1.12468 11.2619 1.17916C11.359 2.65543 11.3856 4.33475 11.3856 4.33475" transform="translate(11.23309 64.34335)" id="Fill-81" fill="#253368" stroke="none" />
      <path d="M0 4.60802L1.76517 0" transform="translate(25.99022 55.53833)" id="Stroke-83" fill="none" stroke="#D18682" stroke-width="0.8083005" stroke-linecap="round" stroke-linejoin="round" />
      <path d="M1.12967 0C1.12967 0 0.847335 16.3933 0 23.3051" transform="translate(16.31693 68.3542)" id="Stroke-85" fill="none" stroke="#253368" stroke-width="0.910146356" stroke-linecap="round" stroke-linejoin="round" />
      <path d="M2.6125 0C2.6125 0 2.54184 14.6417 1.90634 15.6499C1.271 16.6577 0 17.9537 0 17.9537" transform="translate(16.88173 68.49825)" id="Stroke-87" fill="none" stroke="#253368" stroke-width="0.910146356" stroke-linecap="round" stroke-linejoin="round" />
      <path d="M0 3.8405L0 0.765994C0 0.364304 0.150188 0.0355254 0.340304 0.0239415C0.970794 -0.014558 2.37194 -0.048969 3.64294 0.27981C3.82019 0.325805 3.95401 0.640956 3.95401 1.01777L3.95401 3.9083C3.95401 4.32192 3.79513 4.65581 3.59917 4.65069C2.87863 4.63264 1.23742 4.59278 0.348657 4.58255C0.1552 4.58051 0 4.24866 0 3.8405" transform="translate(16.06973 63.84742)" id="Fill-89" fill="#E1E7F3" stroke="none" />
      <path d="M0 2.54132L0.000501184 0.506298C0.000501184 0.240549 0.123124 0.022839 0.278324 0.0153435C0.792539 -0.00986853 1.93574 -0.0313329 2.97252 0.186717C3.1172 0.217381 3.22629 0.426232 3.22629 0.675627L3.22595 2.58902C3.22595 2.8626 3.09615 3.08338 2.93644 3.08031C2.34855 3.06771 1.00938 3.04011 0.284505 3.03296C0.126632 3.03125 0 2.8115 0 2.54132" transform="translate(16.47751 64.61592)" id="Fill-91" fill="#253368" stroke="none" />
      <path d="M3.33788 0L0 3.03805L0.137826 3.65677L3.50344 0.562501L3.33788 0Z" transform="translate(16.3549 64.40998)" id="Fill-93" fill="#E1E7F3" stroke="none" />
      <path d="M3.47788 3.00262L0.132145 0L0 0.624169L3.38466 3.63054L3.47788 3.00262Z" transform="translate(16.35831 64.34794)" id="Fill-95" fill="#E1E7F3" stroke="none" />
      <path d="M2.75367 0C2.75367 0 2.01225 7.23586 0 5.72382" transform="translate(10.27992 68.3542)" id="Stroke-97" fill="none" stroke="#253368" stroke-width="0.910146356" stroke-linecap="round" stroke-linejoin="round" />
      <path d="M0 0L2.11817 2.80807" transform="translate(17.79965 87.36188)" id="Stroke-99" fill="none" stroke="#253368" stroke-width="0.910146356" stroke-linecap="round" stroke-linejoin="round" />
      <path d="M0 0L0.953253 3.02374" transform="translate(16.84646 86.71393)" id="Stroke-101" fill="none" stroke="#253368" stroke-width="0.910146356" stroke-linecap="round" stroke-linejoin="round" />
      <path d="M0.265723 19.7322L0.000262182 2.97812C-0.00825795 2.44117 0.191882 1.98565 0.454502 1.94374L11.3218 0.0030976C11.6003 -0.0411938 11.8412 0.394907 11.8526 0.964222L12.2124 18.9673C12.2236 19.5271 12.0083 19.9973 11.7338 20.013L0.771919 20.7046C0.500778 20.7196 0.27441 20.2852 0.265723 19.7322" transform="translate(3.15262 76.7924)" id="Fill-103" fill="#FFC540" stroke="none" />
      <path d="M0.270863 19.9116L0.000223419 2.83143C-0.00696022 2.38374 0.159934 2.00386 0.378784 1.96911L11.4092 0.00256754C11.6414 -0.0342284 11.8422 0.328961 11.8517 0.803561L12.2184 19.1498C12.2278 19.6162 12.0482 20.0083 11.8193 20.0213L0.692693 20.7218C0.466659 20.7347 0.278213 20.3725 0.270863 19.9116" transform="translate(2.667178 76.80203)" id="Fill-105" fill="#FF7A46" stroke="none" />
      <path d="M3.30974 0C3.30974 0 1.4034 0.864024 0.556064 7.48798C-0.291271 14.1116 0.0264792 20.1598 0.238313 28.5118C0.450147 36.8634 1.93298 51.4793 2.56848 56.8072C3.20382 62.1351 3.43654 63.9136 4.0864 65.8069C4.45711 66.8869 5.07491 67.139 5.49874 66.815C6.06341 67.9669 6.9637 67.1751 6.9637 67.1751C6.9637 67.1751 8.32291 67.8951 8.60541 66.3111C9.71737 66.6351 9.24091 63.503 9.38208 62.3511C9.52325 61.1989 8.94087 58.895 7.38737 55.7272C6.39887 52.1273 7.28145 20.0156 7.70512 15.9838C8.12879 11.9519 8.11108 0.864024 3.30974 0" transform="translate(2.839508 31.63474)" id="Fill-107" fill="#FFC2BD" stroke="none" />
      <path d="M7.46369 22.0236C7.46369 22.0236 8.48744 9.06358 7.49894 5.03169C6.51044 0.999806 4.92636 -2.06005 2.41526 1.71971C-0.550411 6.18361 0.0498407 19.2155 0.0498407 19.2155C0.0498407 19.2155 3.3331 20.7276 7.46369 22.0236" transform="translate(2.816163 30.77885)" id="Fill-109" fill="#597EF7" stroke="none" />
      <path d="M0 0.0132166C0.0441042 0.0237784 2.85959 -0.850807 3.03617 9.94915L2.64775 19.0211" transform="translate(7.632063 34.21339)" id="Stroke-111" fill="none" stroke="#1D39C4" stroke-width="0.6199665" stroke-linecap="round" stroke-linejoin="round" />
      <path d="M0.018582 0C0.018582 0 -0.0519181 3.16786 0.159749 4.10411" transform="translate(11.28509 93.84175)" id="Stroke-113" fill="none" stroke="#D18682" stroke-width="0.8083005" stroke-linecap="round" stroke-linejoin="round" />
      <path d="M0 0L2.33 1.72805" transform="translate(11.65672 28.17878)" id="Stroke-115" fill="none" stroke="#1D39C4" stroke-width="0.6199665" stroke-linecap="round" stroke-linejoin="round" />
      <path d="M0 0C0 0 0.659223 4.63288 0.44739 8.08864" transform="translate(16.90487 31.4895)" id="Stroke-117" fill="none" stroke="#1D39C4" stroke-width="0.6199665" stroke-linecap="round" stroke-linejoin="round" />
    </g>
  </g>
</svg>
