<?xml version="1.0" encoding="utf-8"?>
<svg width="34px" height="144px" viewBox="0 0 34 144" version="1.1" xmlns:xlink="http://www.w3.org/1999/xlink" xmlns="http://www.w3.org/2000/svg">
  <desc>Created with Lunacy</desc>
  <defs>
    <path d="M0 0L6.71377 0L6.71377 7.77948L0 7.77948L0 0Z" transform="translate(0.09952358 0.09901837)" id="path_1" />
    <path d="M0 0L15.4627 0L15.4627 19.7311L0 19.7311L0 0Z" transform="translate(0.08854695 0.2859622)" id="path_2" />
    <clipPath id="mask_1">
      <use xlink:href="#path_1" />
    </clipPath>
    <clipPath id="mask_2">
      <use xlink:href="#path_2" />
    </clipPath>
  </defs>
  <g id="1.人物组件/5.用研/走路/看电脑" transform="translate(0.4233398 0.4232178)">
    <g id="分组">
      <path d="M2.36626 25.7606L2.36626 25.7606C1.01736 25.6732 -0.0415312 23.3687 0.00125212 20.6138L0.246204 4.83315C0.288987 2.07782 1.41731 -0.0848224 2.76621 0.0025573C4.11529 0.089937 5.17417 2.3944 5.13139 5.14936L4.88626 20.93C4.84348 23.6853 3.71516 25.848 2.36626 25.7606" transform="translate(15.23368 26.20222)" id="Fill-1" fill="#CCD7EE" stroke="none" />
      <path d="M1.35675 0.0139028C0.476884 0.184365 -0.139967 1.8632 0.027484 3.63515C0.313992 6.66479 0.725343 11.3342 0.988705 15.7118C1.22471 19.6353 1.00466 22.3674 1.40952 23.3518C1.84595 24.4133 2.68899 23.3962 3.42437 24.7424C4.15975 26.0889 4.69139 27.1256 6.57596 26.1075C8.77982 24.9168 6.78391 23.8732 5.70767 22.0386C3.80749 18.7995 3.55167 17.2084 3.3986 14.7055C3.08474 9.57983 3.00794 5.61265 2.99531 3.02062C2.98654 1.23256 2.22837 -0.154769 1.35675 0.0139028" transform="translate(11.81497 115.2666)" id="Fill-3" fill="#FFC6A0" stroke="none" />
      <g id="分组" transform="translate(12.79992 134.7062)">
        <path d="M0 0L6.71377 0L6.71377 7.77948L0 7.77948L0 0Z" transform="translate(0.09952358 0.09901837)" id="Clip-6" fill="none" stroke="none" />
        <g clip-path="url(#mask_1)">
          <path d="M0.0405917 0C0.0405917 0 0.372688 0.817931 1.49715 2.50214C2.3842 3.83038 2.95932 4.63148 3.41661 4.17489C4.25141 3.3412 4.89877 2.89857 4.89877 2.89857C4.89877 2.89857 5.7099 3.64953 6.32675 4.52333C6.94325 5.39677 6.90661 6.93272 5.60295 7.48242C4.29911 8.03177 3.54023 7.94725 2.24919 6.12302C0.957978 4.29808 0.43546 5.15612 0.216284 4.06101C-0.126158 2.34887 0.0405917 0 0.0405917 0" transform="translate(0.09952358 0.09901837)" id="Fill-5" fill="#253368" stroke="none" />
        </g>
      </g>
      <path d="M2.85145 27.6019L0.123138 8.57962C-0.416387 4.63071 0.875002 0.618045 2.86355 0.0629696C4.58487 -0.417619 6.19503 1.90081 6.55185 5.37343L8.55706 24.8867C8.55706 24.8867 9.27753 30.3816 6.42491 31.6837C3.65083 32.9503 2.85145 27.6019 2.85145 27.6019" transform="translate(5.96345 69.68586)" id="Fill-7" fill="#253368" stroke="none" />
      <path d="M0.00916807 5.80518L3.0445 40.52C3.11692 41.3497 3.47444 41.9485 3.88702 41.9317L6.79996 41.8124C7.29039 41.7924 7.66808 40.9204 7.61758 39.923L5.86399 5.29666C5.86399 5.29666 5.67427 -0.61221 2.58633 0.0520908C-0.293997 0.671627 0.00916807 5.80518 0.00916807 5.80518" transform="translate(8.748185 88.55051)" id="Fill-9" fill="#253368" stroke="none" />
      <path d="M0.645913 5.08887L5.42116 4.8937C5.52233 4.8894 5.60071 4.71214 5.59247 4.50622L5.42502 0.328827C5.41748 0.140101 5.33945 -0.00386031 5.2467 7.89349e-05L0.171965 0.207785C0.060799 0.212082 -0.020384 0.424085 0.00451444 0.645399L0.471448 4.81097C0.489859 4.97642 0.562626 5.09245 0.645913 5.08887" transform="translate(11.12426 125.6507)" id="Fill-11" fill="#4E5C93" stroke="none" />
      <path d="M6.35416 0.375041C5.57845 -0.489445 4.60705 0.1967 4.2604 1.85691C3.66775 4.69532 2.72932 9.0353 1.74794 12.9642C0.868601 16.4855 -0.0624614 18.4981 0.00329158 19.7765C0.0743048 21.1549 1.05166 21.2756 1.29223 23.232C1.53279 25.1884 1.6892 26.6552 3.52993 27.9652C5.68277 29.4972 4.31458 26.3512 3.92533 23.6012C3.23816 18.7445 3.4619 17.1333 4.02071 14.8844C5.16534 10.2779 6.18863 6.90237 6.88842 4.73973C7.37114 3.24783 7.12285 1.23129 6.35416 0.375041" transform="translate(5.03537 110.2558)" id="Fill-13" fill="#FFC6A0" stroke="none" />
      <path d="M0.980805 0C0.980805 0 1.03183 1.05751 1.50245 3.73835C1.87364 5.85336 2.13087 7.17444 2.63498 7.31876C3.55517 7.58162 4.21287 7.95477 4.21287 7.95477C4.21287 7.95477 4.67928 9.50433 4.95106 10.9332C5.22266 12.3621 4.77151 13.5929 3.54044 12.5583C2.30937 11.5234 1.70356 10.5865 1.13353 7.59845C0.563493 4.61071 -0.104733 4.72459 0.0137977 3.56609C0.199134 1.75583 0.980805 0 0.980805 0" transform="translate(4.866986 126.5471)" id="Fill-15" fill="#253368" stroke="none" />
      <path d="M7.90234 25.3991L6.585 5.76083C6.28727 1.70663 4.30556 -0.87752 2.37962 0.275963C0.71247 1.27438 -0.292937 4.73483 0.0761563 8.20173L2.15167 27.6842C2.15167 27.6842 2.59388 33.3005 5.45791 32.1076C8.24321 30.9473 7.90234 25.3991 7.90234 25.3991" transform="translate(9.974813 67.38936)" id="Fill-17" fill="#253368" stroke="none" />
      <path d="M11.7823 7.27191L4.35482 36.1502C4.1772 36.8406 3.75725 37.1572 3.36466 36.8965L0.593919 35.0576C0.127161 34.7478 -0.120246 33.7522 0.0580762 32.901L6.24815 3.33803C6.24815 3.33803 7.19955 -1.77189 10.0667 0.652897C12.7414 2.91474 11.7823 7.27191 11.7823 7.27191" transform="translate(5.935477 88.42216)" id="Fill-19" fill="#253368" stroke="none" />
      <path d="M4.53047 8.15467L0.10906 4.46466C0.0154276 4.3866 -0.026479 4.16313 0.0175317 3.97727L0.909493 0.202398C0.949646 0.0319363 1.04784 -0.0446999 1.13358 0.0265646L5.8322 3.94827C5.9353 4.03421 5.97335 4.29134 5.91128 4.47971L4.74228 8.02324C4.69581 8.16398 4.60727 8.21913 4.53047 8.15467" transform="translate(5.422942 118.1679)" id="Fill-21" fill="#4E5C93" stroke="none" />
      <path d="M7.01041 20.6205L11.2056 12.4792C11.5628 11.9316 11.7504 11.0371 11.6985 10.131L12.0481 0L0.0611064 0.387837L8.76445e-05 11.1119C-0.00376987 11.7791 0.119846 12.4201 0.343757 12.9053C1.03092 14.3929 2.75347 17.3502 5.74971 20.5342C6.15632 20.9661 6.65499 21.2111 7.01041 20.6205" transform="translate(6.682189 64.54172)" id="Fill-23" fill="#253368" stroke="none" />
      <path d="M10.8591 0L0 0.455162" transform="translate(7.578533 67.65437)" id="Stroke-25" fill="none" stroke="#253368" stroke-width="0.649227142" stroke-linecap="round" stroke-linejoin="round" />
      <path d="M0.0725038 0L0.102838 3.02427" transform="translate(12.11549 64.89073)" id="Stroke-27" fill="none" stroke="#253368" stroke-width="0.649227142" stroke-linecap="round" stroke-linejoin="round" />
      <path d="M1.00469 7.40149C1.00469 7.40149 0.35452 0.0637442 4.91182 0C7.46093 0.313707 7.59349 8.93063 7.59349 8.93063C7.59349 8.93063 7.81074 10.7219 7.51967 12.6135C7.19353 14.7321 6.24073 15.5196 4.97073 15.8727C2.59749 15.9217 1.58349 13.349 1.58349 13.349C1.58349 13.349 -0.0426278 13.7501 0.000856839 9.54444C0.0541606 5.64244 1.00469 7.40149 1.00469 7.40149" transform="translate(7.691876 2.583001)" id="Fill-29" fill="#FFC6A0" stroke="none" />
      <path d="M3.37184 3.22123C3.43303 5.12067 2.72851 6.7619 1.79832 6.88652C0.868311 7.01115 0.0648972 5.57261 0.00370307 3.67317C-0.0574911 1.77374 0.647031 0.132505 1.57722 0.00752303C2.50705 -0.1171 3.31064 1.32144 3.37184 3.22123" transform="translate(5.589458 1.634606)" id="Fill-31" fill="#253368" stroke="none" />
      <path d="M8.64685 11.7834C8.64685 11.7834 9.1371 9.7507 9.39398 7.37104C9.65085 4.99137 7.3246 0.613077 7.0174 0.276092C6.7102 -0.0608928 6.55064 -0.417932 4.57051 1.36082C-1.43563 2.66113 0.355483 13.7379 0.355483 13.7379C0.355483 13.7379 -0.312567 14.8685 0.182947 17.6009C0.752105 20.3236 2.64018 20.1679 2.64018 20.1679L2.56566 15.7992C2.56566 15.7992 1.93163 15.9826 1.40367 14.5405C0.875896 13.0983 1.23131 11.2118 1.5215 11.0216C1.77119 10.584 2.43451 10.6972 2.48641 12.3069C2.51253 13.1173 3.20934 11.1996 3.40555 8.07437C5.48124 6.96386 5.9117 3.9045 5.9117 3.9045C5.9117 3.9045 6.07757 6.75687 5.7844 8.00669C6.86906 7.18016 7.42051 5.89597 7.19485 4.64006C8.48518 5.6016 8.64685 11.7834 8.64685 11.7834" transform="translate(6.625013 8.515638E-05)" id="Fill-33" fill="#253368" stroke="none" />
      <path d="M0.620379 6.86897L0.464501 0.360978L4.62079 0C4.62079 0 4.74774 4.44061 4.88784 6.2301C7.68699 8.90199 1.65174 12.0022 0.129423 8.77092C-0.340491 7.77285 0.620379 6.86897 0.620379 6.86897" transform="translate(8.662139 13.83564)" id="Fill-35" fill="#FFC6A0" stroke="none" />
      <path d="M2.54675 3.08229C2.52185 4.74035 1.932 6.0489 1.22888 6.00521C0.526114 5.96152 -0.0237568 4.58171 0.00079095 2.924C0.0256894 1.26594 0.615538 -0.042968 1.31866 0.00107992C2.0216 0.0447698 2.57147 1.42422 2.54675 3.08229" transform="translate(10.30339 7.623156)" id="Fill-37" fill="#FFFFFF" stroke="none" />
      <path d="M2.54675 3.08229C2.52185 4.74035 1.932 6.0489 1.22888 6.00521C0.526114 5.96152 -0.0237568 4.58171 0.00079095 2.924C0.0256894 1.26594 0.615538 -0.042968 1.31866 0.00107992C2.0216 0.0447698 2.57147 1.42422 2.54675 3.08229Z" transform="translate(10.30339 7.623156)" id="Stroke-39" fill="none" stroke="#4E5C93" stroke-width="0.84645" stroke-linecap="round" stroke-linejoin="round" />
      <path d="M2.38444 3.07714C2.35971 4.7352 1.80616 6.04626 1.14793 6.00507C0.489697 5.96425 -0.0237029 4.58694 0.000844858 2.92888C0.0257433 1.27081 0.579296 -0.0402388 1.23753 0.000944268C1.89576 0.0417692 2.40933 1.41907 2.38444 3.07714" transform="translate(13.28333 7.02782)" id="Fill-41" fill="#FFFFFF" stroke="none" />
      <path d="M2.38444 3.07714C2.35971 4.7352 1.80616 6.04626 1.14793 6.00507C0.489697 5.96425 -0.0237029 4.58694 0.000844858 2.92888C0.0257433 1.27081 0.579296 -0.0402388 1.23753 0.000944268C1.89576 0.0417692 2.40933 1.41907 2.38444 3.07714Z" transform="translate(13.28333 7.02782)" id="Stroke-43" fill="none" stroke="#4E5C93" stroke-width="0.84645" stroke-linecap="round" stroke-linejoin="round" />
      <path d="M0 0L0.492183 0.944345L0.0208656 1.90695" transform="translate(13.13147 11.16129)" id="Stroke-45" fill="none" stroke="#DD9987" stroke-width="0.6348375" stroke-linecap="round" stroke-linejoin="round" />
      <path d="M0 0.0949006C0 0.0949006 0.709607 0.39679 1.05293 0.191949" transform="translate(12.24363 13.73057)" id="Stroke-47" fill="none" stroke="#F5222D" stroke-width="0.84645" stroke-linecap="round" stroke-linejoin="round" />
      <g id="分组" transform="translate(12.79992 9.366458)">
        <path d="M0 0.278321C0 0.278321 0.290502 -0.074163 0.574035 0.218558" transform="translate(0.06059927 0.310015)" id="Fill-49" fill="#FFFFFF" stroke="none" />
        <path d="M0 0.278321C0 0.278321 0.290502 -0.074163 0.574035 0.218558" transform="translate(0.06059927 0.310015)" id="Stroke-51" fill="none" stroke="#4E5C93" stroke-width="0.84645" stroke-linecap="round" stroke-linejoin="round" />
      </g>
      <path d="M2.01415 0.170807C2.01415 0.170807 0.834099 0.396419 0 0.104198" transform="translate(11.24541 18.0466)" id="Stroke-52" fill="none" stroke="#DD9987" stroke-width="0.6348375" stroke-linecap="round" stroke-linejoin="round" />
      <path d="M0.395447 0.711701C0.408597 1.11923 0.330921 1.46159 0.222209 1.47592C0.113322 1.4906 0.0144295 1.17224 0.00145426 0.764702C-0.0116964 0.357169 0.0658046 0.0151708 0.174692 0.000488119C0.283403 -0.0141945 0.382471 0.304168 0.395447 0.711701" transform="translate(11.72131 9.664636)" id="Fill-54" fill="#253368" stroke="none" />
      <path d="M0.395586 0.711701C0.408561 1.11923 0.33106 1.46159 0.222348 1.47592C0.113461 1.4906 0.0145688 1.17224 0.00141818 0.764702C-0.0115571 0.357169 0.0659439 0.0151708 0.174831 0.000488119C0.283543 -0.0141945 0.382435 0.304168 0.395586 0.711701" transform="translate(14.28503 9.387994)" id="Fill-56" fill="#253368" stroke="none" />
      <g id="分组" transform="translate(9.11775 10.4408)">
        <path d="M1.14393 0.182566L0 0.666579" transform="translate(0.04259041 0.06929029)" id="Fill-58" fill="#FFFFFF" stroke="none" />
        <path d="M1.14393 0.182566L0 0.666579" transform="translate(0.04259041 0.06929029)" id="Stroke-60" fill="none" stroke="#4E5C93" stroke-width="0.84645" stroke-linecap="round" stroke-linejoin="round" />
      </g>
      <path d="M6.38733 0.466264L6.1892 0.450507C6.31632 2.88568 1.8253 3.09231 1.15427 0.248889C1.13726 0.17655 1.12376 0.108508 1.11272 0.0436898L0.566177 0L0 42.3358C0 42.3358 3.88451 45.8761 7.65926 43.128C9.55943 9.37541 6.38733 0.466264 6.38733 0.466264" transform="translate(7.915715 21.33368)" id="Fill-61" fill="#597EF7" stroke="none" />
      <path d="M0 0C0 0 2.08639 1.98359 4.09843 0.126772" transform="translate(9.57618 24.90475)" id="Stroke-63" fill="none" stroke="#3C65D6" stroke-width="0.649227142" stroke-linecap="round" stroke-linejoin="round" />
      <path d="M0.000542385 0.125414C0.000542385 0.125414 1.10274 5.52935 1.19497 26.5682C1.26826 43.3246 0.871288 72.5711 0.871288 72.5711C0.871288 72.5711 4.44194 72.0246 5.16627 69.2438C5.91323 66.3771 5.93357 45.127 5.88605 34.4112C5.79996 14.8954 6.11522 10.481 5.34284 6.11379C4.45263 5.06308 3.04359 3.51782 1.66716 1.98438C1.33279 1.61194 0.751705 0.610299 0.539366 0.370363C-0.0382081 -0.281403 0.000542385 0.125414 0.000542385 0.125414" transform="translate(13.51056 20.55367)" id="Fill-65" fill="#CCD7EE" stroke="none" />
      <path d="M0 0C0 0 0.661387 10.1439 0.584061 21.0356" transform="translate(18.6734 30.89094)" id="Stroke-67" fill="none" stroke="#96A7CA" stroke-width="0.84645" stroke-linecap="round" stroke-linejoin="round" />
      <path d="M0.450452 4.5287C1.85862 3.22875 3.39215 2.74387 4.28534 1.76514C4.85731 1.13808 5.32073 0.280403 5.76838 0C8.43024 26.3586 7.34996 59.1224 6.66472 74.204C3.29098 74.9424 0 69.6667 0 69.6667C0 69.6667 0.242672 45.5062 0.717146 31.7951C1.11166 20.3903 0.0903008 4.86103 0.450452 4.5287" transform="translate(3.421839 20.13092)" id="Fill-69" fill="#CCD7EE" stroke="none" />
      <path d="M2.62793 31.9824C2.3018 24.9601 1.76789 21.89 0.794215 14.2776C-0.179456 6.66521 0.01605 1.8826 0.01605 1.8826L1.41896 0" transform="translate(7.734371 20.03863)" id="Stroke-71" fill="none" stroke="#96A7CA" stroke-width="0.84645" stroke-linecap="round" stroke-linejoin="round" />
      <path d="M1.42482 32.1357C2.4639 10.6249 1.70958 2.19882 1.70958 2.19882L0 0" transform="translate(13.56691 20.34715)" id="Stroke-73" fill="none" stroke="#96A7CA" stroke-width="0.84645" stroke-linecap="round" stroke-linejoin="round" />
      <path d="M0.38505 0L3.39496 1.09368L3.1486 13.9192C3.12739 15.0236 2.63468 15.8372 2.10147 15.6481L0 14.9036" transform="translate(3.583468 61.03958)" id="Stroke-75" fill="none" stroke="#96A7CA" stroke-width="0.84645" stroke-linecap="round" stroke-linejoin="round" />
      <path d="M1.71037 0L0.154217 0.951865L9.24271e-05 14.6397C-0.00534316 15.1117 0.229965 15.4372 0.442654 15.2521L1.89799 13.984" transform="translate(17.10377 61.53446)" id="Stroke-77" fill="none" stroke="#96A7CA" stroke-width="0.84645" stroke-linecap="round" stroke-linejoin="round" />
      <path d="M12.3464 19.5069L0.666175 19.731C0.222035 19.7393 -0.0991902 18.8673 0.0281076 17.9981L2.4906 1.18506C2.57354 0.619241 2.82726 0.229614 3.11622 0.224242L14.7968 6.29912e-05C15.2407 -0.00853173 15.5619 0.863833 15.4345 1.73297L12.972 18.546C12.8892 19.1119 12.6355 19.5011 12.3464 19.5069" transform="translate(15.72628 30.78111)" id="Fill-79" fill="#96A7CA" stroke="none" />
      <g id="分组" transform="translate(16.1314 30.49515)">
        <path d="M0 0L15.4627 0L15.4627 19.7311L0 19.7311L0 0Z" transform="translate(0.08854695 0.2859622)" id="Clip-82" fill="none" stroke="none" />
        <g clip-path="url(#mask_2)">
          <path d="M12.3464 19.5069L0.666175 19.731C0.222035 19.7393 -0.0991902 18.8673 0.0281076 17.9981L2.49078 1.18506C2.57371 0.619241 2.82726 0.229614 3.11622 0.224242L14.7968 6.29912e-05C15.2407 -0.00853173 15.5619 0.863833 15.4346 1.73297L12.972 18.546C12.8892 19.1119 12.6355 19.5011 12.3464 19.5069" transform="translate(0.08854695 0.2859622)" id="Fill-81" fill="#253368" stroke="none" />
        </g>
      </g>
      <path d="M0.666049 1.00385C0.666049 1.00385 2.171 -0.303263 2.52361 0.0655937C3.06998 0.637143 2.25552 2.586 2.25552 2.586C2.25552 2.586 2.6176 3.62632 2.07912 4.51838C2.07211 5.79219 1.6697 6.08763 1.6697 6.08763C1.6697 6.08763 1.82646 7.18382 1.24503 7.51221C0.663419 7.8406 -0.324103 6.82893 0.104957 5.49603C-0.152795 4.36296 0.338687 3.83044 0.338687 3.83044C0.338687 3.83044 0.186315 2.82593 0.670082 2.33102C0.436527 1.74694 0.509645 1.14352 0.666049 1.00385" transform="translate(28.90916 41.93248)" id="Fill-83" fill="#FFC999" stroke="none" />
      <path d="M0 0.429379L1.33558 0" transform="translate(29.57931 43.83416)" id="Stroke-85" fill="none" stroke="#DD936F" stroke-width="0.6280659" stroke-linecap="round" stroke-linejoin="round" />
      <path d="M1.16584 0.293473L0 0.0646393" transform="translate(29.24788 45.69818)" id="Stroke-87" fill="none" stroke="#DD936F" stroke-width="0.6280659" stroke-linecap="round" stroke-linejoin="round" />
      <path d="M1.08431 0.428303L0 0" transform="translate(29.01401 47.42858)" id="Stroke-89" fill="none" stroke="#DD936F" stroke-width="0.6280659" stroke-linecap="round" stroke-linejoin="round" />
      <path d="M1.81181 27.3868L1.81181 27.3868C0.508147 26.6731 -0.265634 23.9364 0.0839965 21.2738L2.38956 3.70049C2.73884 1.03792 4.07897 -0.54208 5.38246 0.171282C6.6863 0.885002 7.45991 3.62171 7.11063 6.28428L4.80489 23.8576C4.45543 26.5202 3.11565 28.1002 1.81181 27.3868" transform="translate(4.458677E-05 24.1799)" id="Fill-91" fill="#CCD7EE" stroke="none" />
      <path d="M2.40367 7.5382C2.40367 7.5382 0.368838 7.11169 0.051295 4.73525C-0.23644 2.58299 0.780189 1.7382 0.780189 1.7382C0.780189 1.7382 1.72563 0.571465 2.93969 0.196162C3.7396 -0.0512943 5.28401 -0.206357 5.40429 0.634135C5.5614 1.72996 3.80851 1.69809 3.79904 2.52855C3.78957 3.38122 4.15165 3.44246 4.95209 4.13541C5.45251 4.56837 6.02903 4.59308 6.41882 5.12524C7.18103 6.16556 5.42972 8.69742 2.40367 7.5382" transform="translate(12.85946 44.71714)" id="Fill-93" fill="#FFC6A0" stroke="none" />
      <path d="M0 0C0 0 0.83971 1.31786 2.27505 1.14632" transform="translate(16.78864 49.51721)" id="Stroke-95" fill="none" stroke="#DD9987" stroke-width="0.6348375" stroke-linecap="round" stroke-linejoin="round" />
      <path d="M1.95996 0.765289C1.95996 0.765289 0.954909 0.948285 0 0" transform="translate(16.40213 50.81419)" id="Stroke-97" fill="none" stroke="#DD9987" stroke-width="0.6348375" stroke-linecap="round" stroke-linejoin="round" />
      <path d="M0 0C0 0 0.519361 0.660002 1.68065 0.824734" transform="translate(15.74739 51.56934)" id="Stroke-99" fill="none" stroke="#DD9987" stroke-width="0.6348375" stroke-linecap="round" stroke-linejoin="round" />
      <path d="M13.9018 1.3981L13.7796 9.94412L2.37238 9.97993C1.0233 9.89971 -0.038387 7.60063 0.00106484 4.8453C0.0403413 2.08998 1.16603 -0.0784007 2.51528 0.0021748L13.9018 1.3981Z" transform="translate(0.2966472 42.41375)" id="Fill-101" fill="#CCD7EE" stroke="none" />
      <path d="M0.893189 0L11.5911 1.73255L11.4687 10.2789L0 10.3108" transform="translate(2.668993 42.08284)" id="Stroke-103" fill="none" stroke="#96A7CA" stroke-width="0.84645" stroke-linecap="round" stroke-linejoin="round" />
      <path d="M0.0357697 7.25681L0.139572 0" transform="translate(12.28834 44.36432)" id="Stroke-105" fill="none" stroke="#96A7CA" stroke-width="0.84645" stroke-linecap="round" stroke-linejoin="round" />
    </g>
  </g>
</svg>
