<?xml version="1.0" encoding="utf-8"?>
<svg width="23px" height="150px" viewBox="0 0 23 150" version="1.1" xmlns:xlink="http://www.w3.org/1999/xlink" xmlns="http://www.w3.org/2000/svg">
  <desc>Created with Lunacy</desc>
  <defs>
    <path d="M0 0L6.66581 0L6.66581 11.5596L0 11.5596L0 0Z" transform="translate(0 0.0708024)" id="path_1" />
    <clipPath id="mask_1">
      <use xlink:href="#path_1" />
    </clipPath>
  </defs>
  <g id="1.人物组件/4.商务拓展/站立/叉腰" transform="translate(0.4375 0.4373779)">
    <g id="分组">
      <path d="M11.0186 32.561C8.07364 40.9908 4.11136 36.0769 3.10655 33.8837C1.96855 31.3994 0.541686 31.71 0.108083 28.6739C-0.387877 25.2003 0.999346 22.981 0.728368 21.4282C-0.0843735 15.4251 2.15139 17.5819 1.80593 13.8727C1.22856 7.67395 1.72645 7.79453 3.10655 3.3839C4.75243 -1.87702 6.50224 0.566874 6.50224 0.566874C6.50224 0.566874 8.92257 -0.549201 10.0063 5.66126C10.2024 6.78396 10.9997 7.45522 11.0178 10.2844C11.0638 17.4933 13.106 18.0634 13.5105 22.981C13.933 28.1147 11.994 29.6628 11.0186 32.561" transform="translate(4.820313 0)" id="Fill-1" fill="#253368" stroke="none" />
      <path d="M0.902041 1.59198C1.05004 -0.190582 0.35893 0.00645886 0.35893 0.00645886C0.35893 0.00645886 0.0248268 1.85997 0 3.35983C0.975944 3.37821 0.902041 1.59198 0.902041 1.59198" transform="translate(13.39258 9.690186)" id="Fill-3" fill="#F4B784" stroke="none" />
      <path d="M0.0166758 1.59198C-0.13113 -0.190582 0.752242 0.00645886 0.752242 0.00645886C0.752242 0.00645886 1.08635 1.85997 1.11117 3.35983C0.135229 3.37821 0.0166758 1.59198 0.0166758 1.59198" transform="translate(7.589355 9.690186)" id="Fill-5" fill="#F4B784" stroke="none" />
      <path d="M1.70189 9.31533L1.70189 9.31533C0.844112 9.31533 0.158584 7.95295 0 6.31597L0.130293 0L3.08084 0L3.21132 6.31597C3.24519 7.95295 2.55947 9.31533 1.70189 9.31533" transform="translate(9.233398 14.39008)" id="Fill-7" fill="#F4B784" stroke="none" />
      <path d="M0 0.200166L0.256544 0.167448" transform="translate(10.90332 14.74017)" id="Stroke-9" fill="none" stroke="#DD936F" stroke-width="0.6709716" stroke-linecap="round" stroke-linejoin="round" />
      <path d="M2.68766 14.077C1.22114 14.077 0.193428 11.1674 0.0323422 7.60776C-0.236904 1.65647 1.22114 0 2.68766 0C4.15398 0 5.70325 1.51971 5.34278 7.60776C5.10683 11.5927 4.15398 14.077 2.68766 14.077Z" transform="translate(8.328613 3.314819)" id="Fill-11" fill="#FFC999" stroke="none" />
      <path d="M6.99921 4.55772C6.67396 2.15022 6.06003 -0.272726 4.21745 0.348541C1.99574 -1.92883 -1.43209 7.68354 0.641042 8.09931C2.59197 8.49082 2.36602 5.5749 2.77884 3.66074C3.15817 1.90097 3.85621 3.86771 3.85621 3.86771C3.85621 3.86771 4.24189 3.03947 4.6753 3.35011C5.40183 3.87028 4.61487 6.62775 6.45725 8.35296C6.68166 8.56287 6.48805 10.9604 6.5658 10.7682C6.92704 9.87084 7.32427 6.96412 6.99921 4.55772" transform="translate(6.996582 1.724487)" id="Fill-13" fill="#253368" stroke="none" />
      <path d="M0 0L1.30062 0.437828" transform="translate(8.937988 7.73114)" id="Stroke-15" fill="none" stroke="#253368" stroke-width="0.8748" stroke-linecap="round" stroke-linejoin="round" />
      <path d="M0 0.333793L1.56524 0.0338205" transform="translate(11.45508 7.835266)" id="Stroke-17" fill="none" stroke="#253368" stroke-width="0.8748" stroke-linecap="round" stroke-linejoin="round" />
      <path d="M0 0L0.198615 0.874553L0.126444 3.89854L0.548115 4.24373" transform="translate(10.41943 8.490173)" id="Stroke-19" fill="none" stroke="#DD936F" stroke-width="0.6709716" stroke-linecap="round" stroke-linejoin="round" />
      <path d="M0 0.880067C0 0.394082 0.169746 0 0.379331 0C0.588723 0 0.758661 0.394082 0.758661 0.880067" transform="translate(9.208984 9.467957)" id="Stroke-21" fill="none" stroke="#253368" stroke-width="0.8748" stroke-linecap="round" stroke-linejoin="round" />
      <path d="M0 0.880067C0 0.394082 0.169746 0 0.379331 0C0.588915 0 0.758661 0.394082 0.758661 0.880067" transform="translate(11.81006 9.467957)" id="Stroke-23" fill="none" stroke="#253368" stroke-width="0.8748" stroke-linecap="round" stroke-linejoin="round" />
      <path d="M1.33695 0.0429723C0.694972 0.0633281 -6.69423e-13 0.0166968 -6.63189e-13 0.0166968C-6.69423e-13 0.0166968 0.0829959 1.00112 0.652527 0.983058C1.27639 0.963276 1.33695 0.0429723 1.33695 0.0429723Z" transform="matrix(0.9993908 -0.0348995 0.0348995 0.9993908 10.26563 13.48694)" id="Stroke-25" fill="#FFFFFF" stroke="#B53026" stroke-width="0.8748" stroke-linecap="round" stroke-linejoin="round" />
      <path d="M0 0.183807L0.379331 0.183807" transform="translate(10.78076 15.20026)" id="Stroke-27" fill="none" stroke="#DD936F" stroke-width="0.6709716" stroke-linecap="round" stroke-linejoin="round" />
      <path d="M0.314178 0.0745101C0.297435 -0.0269512 0.221992 -0.0240103 0.207558 0.0785539C0.078997 0.985824 -0.220465 3.42862 0.27588 3.48597C0.835542 3.55103 0.466411 1.00053 0.314178 0.0745101" transform="translate(13.5498 12.47003)" id="Fill-29" fill="#FFFFFF" stroke="none" />
      <path d="M0.314178 0.0745101C0.297435 -0.0269512 0.221992 -0.0240103 0.207558 0.0785539C0.078997 0.985824 -0.220465 3.42862 0.27588 3.48597C0.835542 3.55103 0.466411 1.00053 0.314178 0.0745101" transform="translate(7.92627 12.47003)" id="Fill-31" fill="#FFFFFF" stroke="none" />
      <path d="M0.759138 20.8895L0.759138 20.8895C-0.0201159 19.8965 -0.23201 17.8408 0.275881 16.2042L4.35633 2.53341C5.0332 0.353459 6.04898 -0.75122 7.0869 0.571821C8.11288 1.87906 7.94698 4.78541 7.17947 6.81611L3.22835 19.8932C2.63809 21.4549 1.54802 21.8945 0.759138 20.8895" transform="translate(0.06396484 22.72131)" id="Fill-33" fill="#FFC999" stroke="none" />
      <path d="M2.9261 13.3307L0 8.88001L1.78811 2.66954C2.66321 -0.354813 3.74173 -0.204091 5.10951 0.248074L5.04697 0.375268C6.15647 1.63618 6.2144 5.26931 5.53484 7.36618L2.9261 13.3307Z" transform="translate(2.564453 22.0213)" id="Fill-35" fill="#597EF7" stroke="none" />
      <g id="分组" transform="translate(0 37.97461)">
        <path d="M0 0L6.66581 0L6.66581 11.5596L0 11.5596L0 0Z" transform="translate(0 0.0708024)" id="Clip-38" fill="none" stroke="none" />
        <g clip-path="url(#mask_1)">
          <path d="M6.40315 7.90406L6.66585 11.5596C6.66585 11.5596 1.68701 8.25991 0.522848 5.54619C-1.3663 1.14291 2.47146 0 2.47146 0L6.40315 7.90406Z" transform="translate(-4.104265E-05 0.0708024)" id="Fill-37" fill="#FFC999" stroke="none" />
        </g>
      </g>
      <path d="M1.46305 2.277C1.46305 2.277 0.867014 0 0 0" transform="translate(2.293945 38.45728)" id="Stroke-39" fill="none" stroke="#DD936F" stroke-width="0.5" stroke-linecap="round" stroke-linejoin="round" />
      <path d="M0 0L2.9261 4.4507L3.22422 3.72613" transform="translate(2.564453 30.90118)" id="Stroke-41" fill="none" stroke="#1D39C4" stroke-width="0.6561" stroke-linecap="round" stroke-linejoin="round" />
      <path d="M7.49092 20.3899L7.49092 20.3899C8.24381 19.3252 8.40278 17.2519 7.85351 15.6653L3.75189 2.27643C3.02017 0.162649 1.65257 -0.729917 0.649687 0.688337C-0.341462 2.09005 -0.101277 4.97765 0.717431 6.93409L4.999 19.6256C5.62872 21.1302 6.7288 21.4677 7.49092 20.3899" transform="translate(13.63281 23.22827)" id="Fill-43" fill="#FFC999" stroke="none" />
      <path d="M3.05132 13.133L5.97762 8.68234L4.18932 2.47224C3.54921 0.330157 1.87426 -0.861279 0.979921 0.738944L0.930652 0.177598C-0.179049 1.43851 -0.236786 5.07164 0.442776 7.16851L3.05132 13.133Z" transform="translate(13.14111 22.5152)" id="Fill-45" fill="#597EF7" stroke="none" />
      <path d="M6.21349 11.9262C6.21695 11.8317 5.80529 35.2957 5.85013 36.9783C5.97215 41.5702 6.26526 42.1734 5.01507 43.5181C4.69482 43.8626 4.18924 43.5593 3.69886 44.7287C2.35648 47.9306 0.320487 49.8683 0.0102478 48.1357C-0.204148 46.505 3.01391 40.9239 3.25737 37.486C3.51025 33.915 1.46637 6.26785 2.68269 4.13826C3.89901 2.00904 5.25102 -7.33606 6.21349 11.9262" transform="translate(3.513672 98.84448)" id="Fill-47" fill="#FFC999" stroke="none" />
      <path d="M7.15318 5.56237C7.15318 5.56237 7.50306 3.02693 7.15221 0C7.15221 0 6.12104 1.99578 5.23343 4.15771C4.20821 6.65381 3.94686 6.80159 3.94686 6.80159C2.59659 7.75445 2.24574 6.28473 2.24574 6.28473C2.24574 6.28473 1.54828 8.19889 0.192043 10.3215C-1.02235 12.2221 3.89605 12.0897 4.50248 9.65391C5.10891 7.21847 5.9561 5.7458 5.9561 5.7458L6.43974 9.29548L6.90664 9.22306L7.15318 5.56237Z" transform="translate(2.21875 137.3091)" id="Fill-49" fill="#253368" stroke="none" />
      <path d="M7.77524 10.9446L7.8426 45.1352L0.00194066 44.5607C0.00194066 44.5607 -0.0327014 29.1613 0.19074 10.7681C0.19074 10.7681 -0.0454035 0 3.92843 0C7.90207 0 7.77524 10.9446 7.77524 10.9446" transform="translate(3.094727 82.51392)" id="Fill-51" fill="#CCD7EE" stroke="none" />
      <path d="M0.0210887 36.9668C0.221435 22.1409 0.598264 3.84662 1.30477 0.607946C1.30477 0.607946 2.17178 -1.34813 4.77283 1.75711C7.80555 5.37773 7.53072 10.6585 7.53072 10.6585L7.56883 37.4748C7.50686 39.4357 7.39947 45.5241 3.43603 45.5241C-0.46544 45.5241 0.0166622 37.2895 0.0210887 36.9668" transform="translate(3.29834 54.79114)" id="Fill-53" fill="#CCD7EE" stroke="none" />
      <path d="M2.17451e-05 11.9262C-0.00344246 11.8317 0.408221 35.2957 0.363379 36.9783C0.241362 41.5705 -0.0517489 42.1734 1.19845 43.5182C1.51869 43.8626 2.02427 43.5593 2.51465 44.7287C3.85703 47.9306 5.89302 49.8687 6.20326 48.1357C6.41766 46.505 3.1996 40.9239 2.95615 37.486C2.70326 33.915 4.74714 6.26785 3.53082 4.13826C2.3145 2.00904 0.962494 -7.33606 2.17451e-05 11.9262" transform="translate(12.20801 98.90155)" id="Fill-55" fill="#FFC999" stroke="none" />
      <path d="M0.15522 5.56237C0.15522 5.56237 -0.194665 3.02693 0.156182 0C0.156182 0 1.18736 1.99578 2.07497 4.15771C3.10018 6.65381 3.36154 6.80159 3.36154 6.80159C4.71181 7.75445 5.06266 6.28473 5.06266 6.28473C5.06266 6.28473 5.76012 8.19889 7.11635 10.3215C8.33075 12.2221 3.41235 12.0897 2.80592 9.65391C2.19949 7.21847 1.3523 5.7458 1.3523 5.7458L0.868654 9.29548L0.401563 9.22306L0.15522 5.56237Z" transform="translate(12.40771 137.3662)" id="Fill-57" fill="#253368" stroke="none" />
      <path d="M0.0673596 10.9446L0 45.1352L7.84066 44.5607C7.84066 44.5607 7.8753 29.1613 7.65186 10.7681C7.65186 10.7681 7.888 0 3.91417 0C-0.0594689 0 0.0673596 10.9446 0.0673596 10.9446" transform="translate(11.18994 82.57098)" id="Fill-59" fill="#CCD7EE" stroke="none" />
      <path d="M7.54774 36.9671C7.34739 22.1409 6.97056 3.84693 6.26406 0.607882C6.26406 0.607882 5.39704 -1.34819 2.796 1.75741C-0.236721 5.37767 0.0379138 10.6588 0.0379138 10.6588L0 37.4751C0.0619708 39.4356 0.169361 45.5244 4.1328 45.5244C8.03427 45.5244 7.55197 37.2898 7.54774 36.9671" transform="translate(11.28467 56.44708)" id="Fill-61" fill="#CCD7EE" stroke="none" />
      <path d="M13.8907 12.9727C13.8907 12.9727 13.6613 4.48525 10.6869 0.0562449L2.73711 0C2.73711 0 0 4.66024 0 13.3867C0 13.3867 1.39011 13.8991 3.00462 15.9055C4.05774 17.2142 5.235 19.0104 7.07488 19.0104C8.95074 19.0104 9.93496 17.3797 11.0006 16.0434C12.5828 14.0598 13.8907 12.9727 13.8907 12.9727" transform="translate(4.091309 48.11908)" id="Fill-63" fill="#CCD7EE" stroke="none" />
      <path d="M0 2.34574L8.0156 2.26045L7.66225 0L0.40666 0.0158074L0 2.34574Z" transform="translate(6.788574 45.91479)" id="Fill-65" fill="#CCD7EE" stroke="none" />
      <path d="M0 0.183807L7.46768 0.183807" transform="translate(7.084473 45.74683)" id="Stroke-67" fill="none" stroke="#DD936F" stroke-width="0.6709716" stroke-linecap="round" stroke-linejoin="round" />
      <path d="M7.51618 0.183807L0 0.183807" transform="translate(7.033203 47.95502)" id="Stroke-69" fill="none" stroke="#A3B5D6" stroke-width="0.6561" stroke-linecap="round" stroke-linejoin="round" />
      <path d="M0.0962281 0L0.0962281 20.518" transform="translate(10.81689 45.8764)" id="Stroke-71" fill="none" stroke="#A3B5D6" stroke-width="0.6561" stroke-linecap="round" stroke-linejoin="round" />
      <path d="M10.8973 3.5313C9.41499 2.42331 8.31202 3.32948 7.82665 2.49646C7.53969 2.00349 7.56414 0 7.56414 0L3.98465 0C3.98465 0 4.06163 1.81086 3.77487 2.30383C3.2895 3.13685 2.14977 2.29979 0.812588 3.68386C-0.450116 4.99036 -0.00592772 9.4315 0.57221 12.3985C0.705775 13.0845 0.475212 14.3774 0.698461 15.3313C0.92325 16.2908 1.26467 17.4532 1.40016 18.0741C1.84531 20.1143 1.75389 22.3123 2.04103 24.1636C2.04103 24.1636 1.58357 25.8543 2.30566 26.5406L9.24293 26.5406C10.1092 25.7852 9.50756 24.1636 9.50756 24.1636C9.78181 22.3969 9.61514 20.972 10.0216 18.3844C10.103 17.8671 10.4084 17.047 10.669 15.9522C11.0755 14.2443 10.8857 12.6055 10.94 12.1915C11.415 8.56319 12.1825 4.49224 10.8973 3.5313" transform="translate(5.078613 19.42023)" id="Fill-73" fill="#597EF7" stroke="none" />
      <path d="M0 0L2.1736 0.50988" transform="translate(9.660645 22.57227)" id="Stroke-75" fill="none" stroke="#1D39C4" stroke-width="0.6561" stroke-linecap="round" stroke-linejoin="round" />
      <path d="M0.563085 0C0.563085 0 -0.128217 2.77916 0.0211293 5.848C0.0848323 7.1556 0.343493 8.18492 0.80404 9.6142C0.80404 9.6142 1.27883 14.7667 1.41797 15.7673C1.07791 16.9231 1.42875 18.0715 1.6826 18.1443L8.64258 18.1443C8.64258 18.1443 9.28731 17.5444 8.8845 15.7673C9.26306 12.0066 9.42819 9.75206 9.42819 9.75206C10.0298 8.08677 10.2767 6.79387 10.3169 5.38223C10.3985 2.50529 9.66914 0.137855 9.66914 0.137855" transform="translate(5.70166 27.81647)" id="Stroke-77" fill="none" stroke="#1D39C4" stroke-width="0.6561" stroke-linecap="round" stroke-linejoin="round" />
      <path d="M0 0.183807L8.5616 0.183807" transform="translate(6.427246 32.91156)" id="Stroke-79" fill="none" stroke="#1D39C4" stroke-width="0.6561" stroke-linecap="round" stroke-linejoin="round" />
      <path d="M0.415128 7.74709L0 11.5464C0 11.5464 5.35066 8.77714 6.67572 6.09209C8.82642 1.7344 4.84258 0 4.84258 0L0.415128 7.74709Z" transform="translate(14.60986 37.80298)" id="Fill-81" fill="#FFC999" stroke="none" />
      <path d="M0.029413 2.36406C0.029413 2.36406 0.834842 0.07346 1.1828 0.00398101C1.72206 -0.103362 1.57945 1.99571 1.57945 1.99571C1.57945 1.99571 2.09273 2.38244 1.90471 3.49594C2.20032 4.3841 1.97226 4.95905 1.97226 4.95905C1.97226 4.95905 2.34697 5.57333 1.994 6.3365C1.64123 7.09929 0.671254 7.3081 0.674333 5.9902C0.216095 5.44319 0.454164 4.62194 0.454164 4.62194C0.454164 4.62194 0.104278 4.06685 0.345618 3.27868C0.0349942 3.08973 -0.0535356 2.60448 0.029413 2.36406" transform="translate(13.99023 42.78088)" id="Fill-83" fill="#FFC999" stroke="none" />
      <path d="M0 1.5267L0.887415 0" transform="translate(14.33594 44.53302)" id="Stroke-85" fill="none" stroke="#DD936F" stroke-width="0.5" stroke-linecap="round" stroke-linejoin="round" />
      <path d="M0.891649 5.85131L0.789455 4.95506C0.789455 4.95506 1.0614 4.39887 0.721903 3.49196C0.925906 2.57918 0.396652 1.99173 0.396652 1.99173C0.396652 1.99173 0.59238 0.104035 0 0" transform="translate(15.17334 42.78491)" id="Stroke-87" fill="none" stroke="#DD936F" stroke-width="0.5" stroke-linecap="round" stroke-linejoin="round" />
      <path d="M0.917053 0L0 0.914989" transform="translate(14.44434 46.48779)" id="Stroke-89" fill="none" stroke="#DD936F" stroke-width="0.5" stroke-linecap="round" stroke-linejoin="round" />
      <path d="M0.903581 0L0 0.701775" transform="translate(14.66455 48.06934)" id="Stroke-91" fill="none" stroke="#DD936F" stroke-width="0.5" stroke-linecap="round" stroke-linejoin="round" />
      <path d="M0 2.277C0 2.277 0.788492 0 1.65551 0" transform="translate(17.73389 38.75348)" id="Stroke-93" fill="none" stroke="#DD936F" stroke-width="0.5" stroke-linecap="round" stroke-linejoin="round" />
      <path d="M3.22422 0L0.297922 4.4507L0 3.72613" transform="translate(15.89453 31.19757)" id="Stroke-95" fill="none" stroke="#1D39C4" stroke-width="0.6561" stroke-linecap="round" stroke-linejoin="round" />
      <path d="M2.11602 2.36406C2.11602 2.36406 1.31059 0.07346 0.962629 0.00398101C0.423367 -0.103362 0.565977 1.99571 0.565977 1.99571C0.565977 1.99571 0.0526968 2.38244 0.240534 3.49594C-0.0548861 4.3841 0.173174 4.95905 0.173174 4.95905C0.173174 4.95905 -0.201538 5.57333 0.151427 6.3365C0.504199 7.09929 1.47418 7.3081 1.4711 5.9902C1.92914 5.44319 1.69107 4.62194 1.69107 4.62194C1.69107 4.62194 2.04096 4.06685 1.79962 3.27868C2.11044 3.08973 2.19877 2.60448 2.11602 2.36406" transform="translate(5.787109 42.78088)" id="Fill-97" fill="#FFC999" stroke="none" />
      <path d="M0.887222 1.5267L0 0" transform="translate(6.699707 44.53302)" id="Stroke-99" fill="none" stroke="#DD936F" stroke-width="0.5" stroke-linecap="round" stroke-linejoin="round" />
      <path d="M0.00101922 5.85131L0.103213 4.95506C0.103213 4.95506 -0.168919 4.39887 0.170573 3.49196C-0.0332379 2.57918 0.496016 1.99173 0.496016 1.99173C0.496016 1.99173 0.300288 0.104035 0.892668 0" transform="translate(5.857422 42.78491)" id="Stroke-101" fill="none" stroke="#DD936F" stroke-width="0.5" stroke-linecap="round" stroke-linejoin="round" />
      <path d="M0 0L0.917053 0.914989" transform="translate(6.561523 46.48779)" id="Stroke-103" fill="none" stroke="#DD936F" stroke-width="0.5" stroke-linecap="round" stroke-linejoin="round" />
      <path d="M0 0L0.903773 0.701775" transform="translate(6.354492 48.06934)" id="Stroke-105" fill="none" stroke="#DD936F" stroke-width="0.5" stroke-linecap="round" stroke-linejoin="round" />
    </g>
  </g>
</svg>
