<?xml version="1.0" encoding="utf-8"?>
<svg width="28px" height="164px" viewBox="0 0 28 164" version="1.1" xmlns:xlink="http://www.w3.org/1999/xlink" xmlns="http://www.w3.org/2000/svg">
  <desc>Created with Lunacy</desc>
  <defs>
    <path d="M0 0L5.6945 0L5.6945 3.48542L0 3.48542L0 0Z" transform="translate(0.07535648 0.04140847)" id="path_1" />
    <clipPath id="mask_1">
      <use xlink:href="#path_1" />
    </clipPath>
  </defs>
  <g id="1.人物组件/9.互联网人群/站立/自信" transform="translate(0.6157227 0.6156006)">
    <g id="分组" transform="matrix(0.9993908 0.0348995 -0.0348995 0.9993908 5.644043 0)">
      <path d="M0.0846918 0L4.88997 0.0173451L5.33607 27.5461L2.67845 31.6617L0.107384 31.0907C0.107384 31.0907 -0.118306 4.77787 0.0846918 0" transform="translate(0.8208008 89.91766)" id="Fill-1" fill="#FF7A46" stroke="none" />
      <path d="M0.212497 0.860373C0.212497 0.860373 0.312588 9.46214 0.364833 13.5681C0.413208 17.3524 0 36.9017 0 36.9017L2.59605 37.1143C2.59605 37.1143 3.80436 24.7601 4.02301 18.6148C4.16743 14.5543 4.27509 0.844762 4.27509 0.844762C4.27509 0.844762 0.828878 -1.06632 0.212497 0.860373" transform="translate(0.559082 39.90909)" id="Fill-3" fill="#FFC999" stroke="none" />
      <path d="M14.0897 12.937L7.81242 18.9117C7.81242 18.9117 6.26584 19.8882 5.17468 18.6213C3.46415 16.6339 1.08254 12.9658 0 11.7915C0.153568 4.11286 1.40603 0 1.40603 0L12.1876 0.151943C12.1876 0.151943 13.5968 2.55909 14.0897 12.937" transform="translate(4.041016 60.90698)" id="Fill-5" fill="#597EF7" stroke="none" />
      <path d="M0.0146551 19.2633C0.0146551 19.2633 -0.190278 6.8141 0.932542 3.93308C2.23127 -0.166255 5.05371 0.000951212 5.05371 0.000951212L4.75871 20.3204C4.75871 20.3204 2.16953 20.507 0.0146551 19.2633" transform="translate(0.6210938 24.75665)" id="Fill-7" fill="#CCD7EE" stroke="none" />
      <path d="M1.35713 36.687C4.25908 37.0762 12.0379 36.9975 12.0379 36.9975C12.9037 36.3845 12.6905 32.8423 12.6905 32.8423L14.1567 4.88341C14.1567 4.88341 12.2384 2.51477 9.22531 0.72441C6.02678 -1.17592 2.28416 0.97071 0 3.60508L0.103434 11.9141C0.103434 11.9141 0.338447 25.4939 1.13672 31.4103C0.358324 34.5019 1.35713 36.687 1.35713 36.687" transform="translate(4.115723 21.974)" id="Fill-9" fill="#CCD7EE" stroke="none" />
      <path d="M7.503 2.67357C7.503 2.67357 7.64144 11.8592 6.50666 16.6981C6.10858 18.3948 5.47865 19.3776 4.32575 19.2065C1.82557 18.8354 0 0.777753 0 0.777753L2.28786 0L3.93066 5.35859L7.503 2.67357Z" transform="translate(13.11035 39.75656)" id="Fill-11" fill="#FFC999" stroke="none" />
      <path d="M4.96331 0C4.96331 0 0.993772 1.68802 0.122325 6.64386C-0.325361 9.19185 0.522339 22.1771 1.58465 37.2364C1.76407 39.7806 1.84992 41.2289 2.03673 43.8903C2.89481 56.1141 3.69167 63.6637 4.29504 77.5495C2.45697 86.7635 7.38767 84.67 7.62779 83.0687C7.77977 82.0554 7.37378 75.1017 7.37378 75.1017C7.37378 75.1017 7.25345 72.1569 7.33384 67.2718C7.49726 57.3126 7.68584 44.4232 6.74649 35.608C4.97228 18.9575 7.57783 14.3347 4.96331 0" transform="translate(11.95654 71.58746)" id="Fill-13" fill="#FFC999" stroke="none" />
      <path d="M2.9946 3.24768C1.66685 7.21241 2.24312 17.6809 3.16927 36.2786C3.81732 49.2922 4.75421 73.3946 4.75421 73.3946C4.75421 73.3946 5.15035 80.1665 2.2447 82.1851C0.944744 83.0881 -0.302971 86.7989 0.0655559 87.6547C0.678947 89.0808 4.59606 87.2828 6.55533 83.4617C7.50963 83.4062 8.51318 83.1106 8.45232 81.7293C7.9501 70.345 8.49612 62.5418 8.56208 51.0812C8.58847 46.5233 8.15398 41.5171 8.16594 37.4508C8.20745 23.292 8.05652 7.95305 8.05652 7.95305C8.05652 7.95305 6.15601 -6.19325 2.9946 3.24768" transform="translate(2.089355 69.29279)" id="Fill-15" fill="#FFC999" stroke="none" />
      <path d="M7.1744 2.15143C7.1744 2.15143 3.16018 -5.7045 0 8.60726C0.410745 16.0504 1.44139 27.0385 1.44139 27.0385C1.44139 27.0385 4.65945 28.679 8.45378 26.1116C7.55542 6.40201 7.1744 2.15143 7.1744 2.15143" transform="translate(10.81055 69.99261)" id="Fill-17" fill="#597EF7" stroke="none" />
      <path d="M7.07376 28.0167C4.08842 29.9694 0.464195 28.375 0.464195 28.375C0.389962 23.2915 -0.374358 18.2445 0.232524 2.31196C4.49319 -4.88902 6.78439 7.03121 6.78439 7.03121L7.07376 28.0167Z" transform="translate(3.86377 68.43521)" id="Fill-19" fill="#597EF7" stroke="none" />
      <path d="M4.8139 11.03C6.14834 10.6863 5.37751 6.89081 4.83642 2.88445C4.67141 1.66266 4.68127 2.0002 4.48548 0.890808C4.21106 -0.665045 0.85052 0.0575507 0.874619 1.22869C0.921411 3.48528 0.550421 5.47407 0.550421 5.47407C-0.0247977 7.22453 -0.271069 9.71181 0.419546 10.619C2.2182 12.9824 4.8139 11.03 4.8139 11.03" transform="translate(15.10156 148.7741)" id="Fill-21" fill="#4E5C93" stroke="none" />
      <path d="M10.3527 5.79214C10.3527 5.79214 7.33802 7.49127 6.32515 8.52365C5.31192 9.55603 2.28841 12.3135 0.224308 9.70866C-0.094613 9.05128 -0.0216112 8.25619 0.125448 7.63662C0.265295 7.04723 0.519306 6.59453 0.828024 6.36418C1.76333 5.66761 3.99929 4.01254 5.10751 0.540052C5.23715 0.133483 5.47832 -0.0718827 5.71703 0.0228215C6.00605 0.137646 6.38232 0.393312 6.65708 0.959803C6.88594 1.43194 6.29225 3.30833 6.53747 3.37979C7.21137 3.57614 8.33278 3.13904 9.04151 2.15696C9.63503 1.33411 9.92123 0.498077 9.92123 0.498077C9.92123 0.498077 10.6206 3.86372 10.3527 5.79214" transform="translate(0.4731445 148.0272)" id="Fill-23" fill="#4E5C93" stroke="none" />
      <path d="M0 9.34614C0 9.34614 0.287258 11.3131 2.61452 11.4161C4.99139 11.5216 5.65948 9.40164 5.65948 9.40164L5.08708 8.92014C5.08708 8.92014 4.94459 5.61209 4.86596 0.785305C2.2759 -0.892658 0.491487 0.6403 0.491487 0.6403C0.491487 0.6403 0.546018 5.64158 0.545842 8.91459C0.545842 8.91459 0.245391 9.19454 0 9.34614" transform="translate(7.752441 13.36514)" id="Fill-25" fill="#FFC999" stroke="none" />
      <path d="M6.38291 7.3225C6.38291 7.3225 6.51344 0.168697 3.77719 0.00738769C0.472232 -0.186877 0.326933 3.49964 0.127981 5.22478C-0.0834605 7.05747 -0.282412 14.7479 1.71643 16.3246C2.56448 16.8751 3.08939 17.1818 4.52445 15.4931C6.6123 13.036 6.38291 7.3225 6.38291 7.3225" transform="translate(6.904785 3.168671)" id="Fill-27" fill="#FFC999" stroke="none" />
      <path d="M0 4.85619L0.00615678 0.850171C0.00615678 0.850171 1.56611 -1.11017 1.76559 0.922673C1.96894 2.99541 1.25686 4.46072 0.5958 4.9776C0.170807 5.30993 0 4.85619 0 4.85619" transform="translate(12.52783 10.95911)" id="Fill-29" fill="#FFC999" stroke="none" />
      <path d="M6.6666 1.9135C6.6666 1.9135 4.94183 -0.29349 4.1527 0.0329444C3.36376 0.359379 4.00388 1.53711 4.00388 1.53711C4.00388 1.53711 1.80081 0.91338 1.6133 1.89823C1.42595 2.88343 2.22299 3.30561 2.22299 3.30561C2.22299 3.30561 0.0902855 4.60025 0.00514613 5.87407C-0.0801692 7.14755 0.923561 6.81209 0.923561 6.81209C0.923561 6.81209 0.183869 8.66697 0.443157 9.73057C0.702445 10.7945 1.19622 10.6433 1.19622 10.6433L1.56 12.0607L1.64109 9.02914C1.64109 9.02914 2.40295 8.32909 3.80757 6.90229C2.96849 8.69611 3.50184 8.67252 4.21972 8.35025C5.06109 7.97248 6.04231 7.34459 5.99164 7.29845C5.99164 7.29845 6.03949 9.26642 6.71586 10.1337C7.54561 11.1973 6.99027 13.4931 7.20576 13.5819C7.62055 13.7595 7.53893 11.5483 8.32682 11.1248C8.94479 11.0009 9.02764 9.49919 8.84874 9.00243C9.66337 8.73982 9.61236 7.08094 8.54055 5.69334C9.45404 5.41061 8.86651 3.77462 7.49742 3.14881C7.88617 0.152625 6.6666 1.9135 6.6666 1.9135" transform="translate(5.38916 -3.051758E-05)" id="Fill-31" fill="#253368" stroke="none" />
      <path d="M1.71997 0.774391C1.55372 0.355998 0.912881 -0.103865 -8.72282e-13 0.5603" transform="matrix(0.9902681 -0.1391731 0.1391731 0.9902681 9.714844 9.717773)" id="Stroke-33" fill="none" stroke="#253368" stroke-width="1.2312" stroke-linecap="round" stroke-linejoin="round" />
      <path d="M0.673552 4.12466L0.0735295 3.88634L0.141254 0.840889L0 0" transform="translate(8.772461 10.4043)" id="Stroke-35" fill="none" stroke="#DD936F" stroke-width="0.6090336" stroke-linecap="round" stroke-linejoin="round" />
      <path d="M0.93196 0.326118C0.93196 0.326118 0.520512 -0.399254 0 0.339301" transform="translate(10.25049 11.79044)" id="Stroke-37" fill="none" stroke="#253368" stroke-width="0.8208" stroke-linecap="round" stroke-linejoin="round" />
      <path d="M0.792289 0.292373C0.792289 0.292373 0.322967 -0.339336 0 0.325675" transform="translate(7.634766 11.82016)" id="Stroke-39" fill="none" stroke="#253368" stroke-width="0.8208" stroke-linecap="round" stroke-linejoin="round" />
      <path d="M1.82329 0C1.82329 0 0.89414 0.462073 0 0.239362C0 0.239362 0.252076 1.2929 0.880067 1.25544C1.67288 1.20791 1.82329 0 1.82329 0" transform="translate(8.558105 15.14792)" id="Fill-41" fill="#FFFFFF" stroke="none" />
      <path d="M1.82329 0C1.82329 0 0.89414 0.462073 0 0.239362C0 0.239362 0.252076 1.2929 0.880067 1.25544C1.67288 1.20791 1.82329 0 1.82329 0Z" transform="translate(8.558105 15.14792)" id="Stroke-43" fill="none" stroke="#FF7A46" stroke-width="0.6943968" stroke-linecap="round" stroke-linejoin="round" />
      <path d="M0 0C0 0 1.06196 1.53157 2.60871 0.260176" transform="translate(8.324219 19.26834)" id="Stroke-45" fill="none" stroke="#DD936F" stroke-width="0.6090336" stroke-linecap="round" stroke-linejoin="round" />
      <path d="M0.446454 0.150728L0 0.196172" transform="translate(9.3125 17.11346)" id="Stroke-47" fill="none" stroke="#DD936F" stroke-width="0.6090336" stroke-linecap="round" stroke-linejoin="round" />
      <path d="M0.892204 0.0915418C0.892204 0.0915418 0.623593 -0.32023 0.353047 0.602875C0.0823248 1.52598 0.339326 0.880049 0.460878 1.4285C0.582431 1.9773 0.264213 2.31622 0 2.32697" transform="translate(13.00781 12.05112)" id="Stroke-49" fill="none" stroke="#DD936F" stroke-width="0.6090336" stroke-linecap="round" stroke-linejoin="round" />
      <path d="M1.14532 18.4711L4.78116 17.7592C4.78116 17.7592 4.82057 4.59709 3.12798 1.39172C1.15588 -2.34302 0.00931152 2.62149 0.00931152 2.62149C0.00931152 2.62149 -0.0656252 5.35369 0.209671 10.1853C0.408798 13.6849 0.607222 16.501 0.701685 17.788C0.732821 18.214 0.92843 18.5134 1.14532 18.4711" transform="translate(15.9668 26.44666)" id="Fill-51" fill="#CCD7EE" stroke="none" />
      <path d="M4.69651 11.7895C4.69651 11.7895 4.78165 1.12954 3.46885 1.07126C2.8938 -0.542182 2.7573 0.287607 2.7573 0.287607C2.7573 0.287607 2.21533 -0.488759 2.11911 0.509624C1.57045 0.318481 1.77063 1.89029 2.11365 3.664C2.39581 5.12203 2.00705 7.17638 1.71065 7.16319C1.41424 7.15001 0.735766 4.80322 0.0657328 5.93412C-0.263215 6.48986 0.731016 7.0501 1.09128 8.90464C1.45153 10.7588 1.75058 12.7629 2.59089 13.3849C3.43155 14.0072 4.68507 12.792 4.69651 11.7895" transform="translate(10.76367 27.80682)" id="Fill-53" fill="#FFC999" stroke="none" />
      <path d="M0.195059 0C0.195059 0 0.0200303 0.495722 0.273514 1.41883C0.527349 2.34193 0.535792 4.49168 0.529987 5.01238C0.524006 5.53308 -0.401445 8.48833 0.207196 10.1434" transform="translate(14.0376 28.87796)" id="Stroke-55" fill="none" stroke="#DD936F" stroke-width="0.6090336" stroke-linecap="round" stroke-linejoin="round" />
      <path d="M0.0705473 0C0.0705473 0 -0.129812 0.293479 0.14478 1.25891C0.557636 2.70999 0.532481 4.92323 0.590355 5.6427" transform="translate(13.45068 28.09439)" id="Stroke-57" fill="none" stroke="#DD936F" stroke-width="0.6090336" stroke-linecap="round" stroke-linejoin="round" />
      <path d="M0 0C0 0 0.0529483 0.942531 0.308191 1.7352C0.563257 2.52822 0.567479 5.06823 0.567479 5.06823" transform="translate(12.88281 28.31662)" id="Stroke-59" fill="none" stroke="#DD936F" stroke-width="0.6090336" stroke-linecap="round" stroke-linejoin="round" />
      <path d="M0 2.53446L0.128061 0L10.8115 0.0829095L10.949 2.49838C10.949 2.49838 1.0894 2.58303 0 2.53446" transform="translate(5.345215 58.56335)" id="Fill-61" fill="#597EF7" stroke="none" />
      <path d="M0.509768 20.9931C-0.0237615 14.6715 0.000162039 0 0.000162039 0" transform="translate(9.715332 58.75128)" id="Stroke-63" fill="none" stroke="#1D39C4" stroke-width="0.6156" stroke-linecap="round" stroke-linejoin="round" />
      <path d="M1.3946 0C1.3946 0 1.59847 9.19046 1.56734 11.9247C1.545 13.8778 0 14.2001 0 14.2001" transform="translate(9.942383 61.36337)" id="Stroke-65" fill="none" stroke="#1D39C4" stroke-width="0.6156" stroke-linecap="round" stroke-linejoin="round" />
      <path d="M0 0L3.08736 1.50451L4.48196 18.2401C4.48196 18.2401 7.59658 20.267 11.4945 17.3132" transform="translate(7.77002 78.79111)" id="Stroke-67" fill="none" stroke="#1D39C4" stroke-width="0.6156" stroke-linecap="round" stroke-linejoin="round" />
      <path d="M0.0418214 3.47942C0.0418214 3.47942 0.517828 5.22468 2.79707 4.84066C5.07648 4.45664 6.09974 2.38599 7.29345 1.98393C9.5127 1.2367 10.4626 0 10.4626 0C10.4626 0 10.5891 0.659806 10.4141 1.57424C10.1439 2.98439 8.03771 2.66038 6.81674 3.87801C5.93333 4.75914 5.24008 5.27047 3.75541 6.05342C2.27093 6.83673 0.370769 6.10095 0.135932 5.12026C-0.0989049 4.13992 0.0418214 3.47942 0.0418214 3.47942" transform="translate(0.4287109 153.4583)" id="Fill-69" fill="#96A7CA" stroke="none" />
      <path d="M2.57916 12.7849C2.57916 12.7849 0.537575 12.967 0.432206 11.8815C0.0242753 7.66843 0 2.58806 0 2.58806C0 2.58806 0.156382 0.274224 1.03821 0.0168228C1.8706 -0.226008 2.60115 2.20646 3.09334 4.3125C3.75739 7.15362 3.33293 8.88154 3.33785 12.0182C3.33926 13.0145 3.2448 13.5678 2.57916 12.7849" transform="translate(0.5830078 74.12485)" id="Fill-71" fill="#FFC999" stroke="none" />
      <g id="分组" transform="translate(14.95215 157.7251)">
        <path d="M0 0L5.6945 0L5.6945 3.48542L0 3.48542L0 0Z" transform="translate(0.07535648 0.04140847)" id="Clip-74" fill="none" stroke="none" />
        <g clip-path="url(#mask_1)">
          <path d="M0.133429 0.272665C0.133429 0.272665 2.81303 2.87269 5.63407 0C5.84445 1.71647 5.63548 3.41247 2.86211 3.48393C1.44394 3.52036 0.65781 2.9001 0.253574 2.41756C-0.163328 1.91975 0.0373829 0.730921 0.133429 0.272665" transform="translate(0.07535648 0.04140847)" id="Fill-73" fill="#96A7CA" stroke="none" />
        </g>
      </g>
      <path d="M0 16.5205C0 16.5205 3.80999 18.3827 6.51422 15.8322L6.39742 0" transform="translate(4.327637 80.28986)" id="Stroke-75" fill="none" stroke="#1D39C4" stroke-width="0.6156" stroke-linecap="round" stroke-linejoin="round" />
      <path d="M0 1.45248L2.49367 0" transform="translate(7.630859 80.84927)" id="Stroke-77" fill="none" stroke="#1D39C4" stroke-width="0.6156" stroke-linecap="round" stroke-linejoin="round" />
      <path d="M0 0.11677C0 0.11677 7.78005 -0.0594554 10.9467 0.276345" transform="translate(5.345703 60.98102)" id="Stroke-79" fill="none" stroke="#1D39C4" stroke-width="0.6156" stroke-linecap="round" stroke-linejoin="round" />
      <path d="M0 0C0 0 0.630982 5.49908 2.00852 6.34136" transform="translate(14.80078 61.71228)" id="Stroke-81" fill="none" stroke="#1D39C4" stroke-width="0.6156" stroke-linecap="round" stroke-linejoin="round" />
      <path d="M0 0C0 0 1.27973 4.15172 1.78054 12.3806C2.11916 17.9442 2.71074 35.0877 2.71074 35.0877" transform="translate(15.65576 61.5629)" id="Stroke-83" fill="none" stroke="#1D39C4" stroke-width="0.6156" stroke-linecap="round" stroke-linejoin="round" />
      <path d="M0 0.886681C0 0.886681 4.5444 2.06476 6.45054 0" transform="translate(12.64941 93.16602)" id="Stroke-85" fill="none" stroke="#1D39C4" stroke-width="0.6156" stroke-linecap="round" stroke-linejoin="round" />
      <path d="M0 0.313946C0 0.313946 2.85182 2.19901 6.14657 0" transform="translate(4.627441 93.38342)" id="Stroke-87" fill="none" stroke="#1D39C4" stroke-width="0.6156" stroke-linecap="round" stroke-linejoin="round" />
      <path d="M0 0C0 0 0.00527724 11.1376 1.16029 19.703C1.16029 19.703 0.0919998 22.8056 1.28325 25.0678C1.28325 25.0678 8.62388 24.8409 11.9974 25.3467" transform="translate(4.19043 33.49573)" id="Stroke-89" fill="none" stroke="#96A7CA" stroke-width="0.8208" stroke-linecap="round" stroke-linejoin="round" />
      <path d="M0 0C0 0 2.15645 1.04799 3.94825 1.31476" transform="translate(0.6357422 44.02002)" id="Stroke-91" fill="none" stroke="#96A7CA" stroke-width="0.8208" stroke-linecap="round" stroke-linejoin="round" />
      <path d="M0 0.783303C0 0.783303 2.73027 3.67681 5.74462 0" transform="translate(7.927734 24.53687)" id="Stroke-93" fill="none" stroke="#96A7CA" stroke-width="0.8208" stroke-linecap="round" stroke-linejoin="round" />
      <path d="M0 0C0 0 2.17932 4.29776 5.8222 0.0339963" transform="translate(7.663086 22.84576)" id="Stroke-95" fill="none" stroke="#96A7CA" stroke-width="0.8208" stroke-linecap="round" stroke-linejoin="round" />
      <path d="M0 0.700741L3.7741 0" transform="translate(16.97412 44.20578)" id="Stroke-97" fill="none" stroke="#96A7CA" stroke-width="0.8208" stroke-linecap="round" stroke-linejoin="round" />
      <path d="M0 0C0 0 2.78849 8.35408 3.33856 10.064" transform="translate(15.45605 40.29684)" id="Stroke-99" fill="none" stroke="#DD936F" stroke-width="0.6090336" stroke-linecap="round" stroke-linejoin="round" />
      <path d="M1.30788 0C1.30788 0 0.854033 5.06025 0 4.63183" transform="translate(4.74707 61.19431)" id="Stroke-101" fill="none" stroke="#1D39C4" stroke-width="0.6156" stroke-linecap="round" stroke-linejoin="round" />
      <path d="M0.594267 0.469205C0.591277 0.721055 0.456003 0.919135 0.291881 0.911503C0.127935 0.904565 -0.00294019 0.694343 5.02439e-05 0.44284C0.00304068 0.19099 0.138138 -0.00709025 0.302436 0.000194668C0.466382 0.00747959 0.597082 0.217355 0.594267 0.469205" transform="translate(10.21631 59.30771)" id="Fill-103" fill="#1D39C4" stroke="none" />
      <path d="M0.91686 0C0.91686 0 0.192295 2.8831 0.000204018 10.1705C-0.00612867 10.4116 0.136181 11.0544 0.257381 11.0256C0.605151 10.9434 0.629075 9.99527 0.629075 9.99527C0.629075 9.99527 0.620279 4.28562 1.29506 1.58014C1.40201 0.900903 0.91686 0 0.91686 0" transform="translate(1.503906 83.0481)" id="Fill-105" fill="#4E5C93" stroke="none" />
      <path d="M0 0C0 0 0.742859 0.0329556 0.917535 2.09216C1.09221 4.15171 1.45634 4.55134 1.75345 4.56418" transform="translate(1.881348 82.53589)" id="Stroke-107" fill="none" stroke="#DD936F" stroke-width="0.6090336" stroke-linecap="round" stroke-linejoin="round" />
      <path d="M0 0.00520359C0 0.00520359 0.913666 1.03482 2.67433 0" transform="translate(1.26709 155.4121)" id="Stroke-109" fill="none" stroke="#96A7CA" stroke-width="0.7641648" stroke-linecap="round" stroke-linejoin="round" />
      <path d="M0 0C0 0 0.741276 0.219241 1.0806 1.10904" transform="translate(4.904785 150.3036)" id="Stroke-111" fill="none" stroke="#96A7CA" stroke-width="0.8208" stroke-linecap="round" stroke-linejoin="round" />
      <path d="M0 0.631012C0 0.631012 0.90487 1.9645 2.33694 1.51942C3.76935 1.07366 3.7588 0 3.7588 0" transform="translate(15.98193 155.2278)" id="Stroke-113" fill="none" stroke="#96A7CA" stroke-width="0.8208" stroke-linecap="round" stroke-linejoin="round" />
      <path d="M0 0.287121C0 0.287121 1.94238 -0.3838 2.67486 0.34228" transform="translate(16.53711 151.6311)" id="Stroke-115" fill="none" stroke="#96A7CA" stroke-width="0.8208" stroke-linecap="round" stroke-linejoin="round" />
      <path d="M0.56097 0C0.56097 0 0.267204 1.48682 0 1.86911" transform="translate(11.9668 15.81525)" id="Stroke-117" fill="none" stroke="#DD936F" stroke-width="0.6090336" stroke-linecap="round" stroke-linejoin="round" />
      <path d="M1.32142 0.411884C1.14601 0.216645 0.98839 0.101125 0.846754 0.0442236C0.454894 -0.113203 0.185386 0.178066 0 0.471204" transform="translate(7.382324 9.962585)" id="Stroke-119" fill="none" stroke="#253368" stroke-width="1.2312" stroke-linecap="round" stroke-linejoin="round" />
      <path d="M3.54894 31.7189L3.08472 0.108233L0.64136 0L0 31.047L3.54894 31.7189Z" transform="translate(0 89.862)" id="Fill-121" fill="#FAAD14" stroke="none" />
    </g>
  </g>
</svg>
