<?xml version="1.0" encoding="utf-8"?>
<svg width="38px" height="162px" viewBox="0 0 38 162" version="1.1" xmlns:xlink="http://www.w3.org/1999/xlink" xmlns="http://www.w3.org/2000/svg">
  <desc>Created with Lunacy</desc>
  <defs>
    <path d="M0 0L7.91564 0L7.91564 12.1438L0 12.1438L0 0Z" transform="translate(0.02343248 0.1405044)" id="path_1" />
    <path d="M0 0L7.13209 0L7.13209 15.7709L0 15.7709L0 0Z" transform="translate(0.04120111 0.1349185)" id="path_2" />
    <path d="M0 0L9.55645 0L9.55645 16.7391L0 16.7391L0 0Z" transform="translate(0 0.101119)" id="path_3" />
    <clipPath id="mask_1">
      <use xlink:href="#path_1" />
    </clipPath>
    <clipPath id="mask_2">
      <use xlink:href="#path_2" />
    </clipPath>
    <clipPath id="mask_3">
      <use xlink:href="#path_3" />
    </clipPath>
  </defs>
  <g id="1.人物组件/3.商务经理/站立/自信" transform="translate(0.4121094 0.4120483)">
    <g id="分组" transform="matrix(0.9993908 0.0348995 -0.0348995 0.9993908 6.019289 0.5409743)">
      <path d="M4.57699 1.45737C4.57699 1.45737 3.50967 7.53637 0.695352 9.25372C-1.14747 10.3779 0.903603 13.5662 4.13856 11.613C5.98294 10.4994 5.48235 8.62582 6.52705 8.41909C7.13246 8.29906 8.32049 7.42722 8.33603 6.48448C8.36314 4.83697 8.36159 4.37578 8.34018 2.46188C8.31566 0.260176 5.61358 -1.26028 4.57699 1.45737" transform="translate(2.153585 144.5814)" id="Fill-1" fill="#253368" stroke="none" />
      <g id="分组" transform="translate(22.44821 145.5655)">
        <path d="M0 0L7.91564 0L7.91564 12.1438L0 12.1438L0 0Z" transform="translate(0.02343248 0.1405044)" id="Clip-4" fill="none" stroke="none" />
        <g clip-path="url(#mask_1)">
          <path d="M0 1.94025C0 1.94025 0.182349 4.8527 0.304432 5.88915C0.426516 6.92559 0.552744 7.56579 1.52613 7.84938C3.22166 8.34356 2.91689 11.1581 4.84519 11.8576C7.4737 12.8109 8.14249 11.1893 7.85325 9.8412C7.56384 8.49308 5.07312 7.11091 3.90944 1.44081C3.18903 -2.07041 0 1.94025 0 1.94025" transform="translate(0.02343248 0.1405044)" id="Fill-3" fill="#253368" stroke="none" />
        </g>
      </g>
      <path d="M0 9.31785C0 9.31785 2.5553 -5.40722 5.62259 2.1645C8.82647 21.1333 11.576 59.9346 13.4739 79.086C11.9338 80.5843 9.50095 80.0234 9.50095 80.0234C9.50095 80.0234 1.01708 21.2421 0 9.31785" transform="translate(12.97146 67.91914)" id="Fill-5" fill="#4E5C93" stroke="none" />
      <path d="M6.72481 19.026C6.72481 19.026 6.05206 19.2885 5.39501 18.747C3.65718 17.315 0.455544 13.8564 0.0369708 12.3205C-0.163336 8.83947 0.487662 0.299387 1.08979 0.290964C2.2457 0.274818 6.15756 1.77491 7.78592 1.1249C9.05269 0.61878 10.6508 0 10.6508 0C10.6508 0 11.0917 1.49588 11.4089 2.89981C12.1782 6.30433 12.1438 10.752 12.1438 10.752C12.1438 10.752 7.58112 19.4009 6.72481 19.026" transform="translate(6.499776 59.62751)" id="Fill-7" fill="#4E5C93" stroke="none" />
      <path d="M2.10743 32.0757C2.10743 32.0757 -0.778549 14.4329 0.203992 4.76338C1.94787 2.76384 3.45363 0.418584 6.99579 0.0286436C10.985 -0.410083 14.7896 4.33624 14.7896 4.33624L14.2573 18.8665L12.3312 30.6086C12.3312 30.6086 14.1405 35.5315 10.5333 36.609C8.02063 37.3597 4.16092 38.0663 2.55829 36.2204C1.86015 35.4164 1.77399 33.9092 2.10743 32.0757" transform="translate(4.911524 21.75611)" id="Fill-9" fill="#ADC6FF" stroke="none" />
      <path d="M5.02362 0.99757C5.02362 0.99757 1.79729 10.4906 0.0872581 22.4685C-0.425943 26.0629 1.42275 28.5809 3.06475 27.0141C4.70676 25.4476 8.4639 7.61006 8.6851 5.69265C9.11662 1.95329 6.78822 -1.85837 5.02362 0.99757" transform="translate(0.04392582 25.72016)" id="Fill-11" fill="#ADC6FF" stroke="none" />
      <path d="M0 7.84373L0.125537 2.53093L4.09214 0L4.51209 7.49451C4.51209 7.49451 2.57775 16.6614 0 7.84373" transform="translate(9.954143 13.58786)" id="Fill-13" fill="#A08889" stroke="none" />
      <path d="M7.30926 9.24241C6.85356 15.3319 4.76916 18.0622 2.77731 18.2507C0.402637 18.4753 -0.12127 14.3215 0.0217077 8.3088C0.16693 2.20313 1.46029 0.129883 3.69285 0.00388027C6.02022 -0.127387 7.77083 3.07427 7.30926 9.24241" transform="translate(8.150357 0.5930001)" id="Fill-15" fill="#A08889" stroke="none" />
      <g id="分组" transform="translate(8.633928 0.06212372)">
        <path d="M0 0L7.13209 0L7.13209 15.7709L0 15.7709L0 0Z" transform="translate(0.04120111 0.1349185)" id="Clip-18" fill="none" stroke="none" />
        <g clip-path="url(#mask_2)">
          <path d="M5.14237 10.5235C5.21247 10.0483 5.28034 9.25157 5.65609 8.93569C6.17326 8.50047 6.62809 9.6903 6.55384 10.9661C6.4637 12.5122 5.79129 13.4469 5.41123 13.4518C5.44835 14.9666 5.50568 15.7711 5.50568 15.7711C5.50568 15.7711 6.34438 14.0941 6.81113 11.4807C7.53932 7.40295 7.08897 1.69284 4.83448 0.381569C1.31167 -1.4495 0 3.90437 0 3.90437L4.36635 3.78469L4.25411 6.75083C4.25411 6.75083 5.03237 6.83928 4.87351 10.3498L5.14237 10.5235Z" transform="translate(0.04120111 0.1347965)" id="Fill-17" fill="#604346" stroke="none" />
        </g>
      </g>
      <path d="M0 0.00807257L1.35743 0.0691433L1.79292 0.342909" transform="translate(10.62225 7.661962)" id="Stroke-19" fill="none" stroke="#604346" stroke-width="0.8240818" stroke-linecap="round" stroke-linejoin="round" />
      <path d="M4.24012 2.65073C3.74005 1.21171 3.7846 -0.0735842 1.7185 0.00328071C0.713335 0.0404847 0.359517 0.712965 0 2.34819C0.275595 4.86473 1.28732 6.45116 2.62955 6.24022C5.44939 5.79728 5.577 0.0636495 5.577 0.0636495C5.577 0.0636495 5.17949 0.270378 5.05119 0.70033C4.69668 1.8891 4.46547 2.18674 4.24012 2.65073" transform="translate(8.409429 12.76283)" id="Fill-21" fill="#7F6567" stroke="none" />
      <path d="M0 0.123195C0 0.123195 0.72974 0.212344 1.84714 0C1.84714 0 1.68327 0.940982 0.877898 0.951511C0.245894 0.959935 0 0.123195 0 0.123195" transform="translate(9.426834 13.83285)" id="Fill-23" fill="#FFFFFF" stroke="none" />
      <path d="M0 0.123195C0 0.123195 0.72974 0.212344 1.84714 0C1.84714 0 1.68327 0.940982 0.877898 0.951511C0.245894 0.959935 0 0.123195 0 0.123195Z" transform="translate(9.426834 13.83285)" id="Stroke-25" fill="none" stroke="#604346" stroke-width="0.6180613" stroke-linecap="round" stroke-linejoin="round" />
      <path d="M1.29407 5.11204L0.202054 5.08607C0.0746168 5.08326 -0.0205292 4.846 0.00381853 4.59154L0.350039 0.986609L0.217249 0" transform="translate(9.344378 7.647221)" id="Stroke-27" fill="none" stroke="#604346" stroke-width="0.6180613" stroke-linecap="round" stroke-linejoin="round" />
      <path d="M0.777399 0L0 2.03815L1.16075 6.37382L2.92362 2.74362L0.777399 0Z" transform="translate(9.135439 20.91709)" id="Fill-29" fill="#ADC6FF" stroke="none" />
      <path d="M0 2.92122L2.40628 0L3.22788 1.94128L1.63233 6.2229L0 2.92122Z" transform="translate(12.05901 20.73936)" id="Fill-31" fill="#ADC6FF" stroke="none" />
      <path d="M0 2.81803L1.34499 0L2.70777 2.83172L1.9321 5.94176L0.578473 5.92351L0 2.81803Z" transform="translate(10.71467 23.68922)" id="Fill-33" fill="#4E5C93" stroke="none" />
      <path d="M1.43229 0.0175491L2.76935 0L4.05425 19.1945C4.06512 19.3591 4.0444 19.5258 3.99623 19.6599L2.13682 24.8235C2.00317 25.1949 1.72619 25.1678 1.6105 24.7719L0.0441318 19.4061C0.00683324 19.2784 -0.00749908 19.1285 0.00372503 18.9814L1.43229 0.0175491Z" transform="translate(9.884903 29.54548)" id="Fill-35" fill="#4E5C93" stroke="none" />
      <path d="M0 0.650017L0.00759786 3.0216C0.00759786 3.0216 1.37193 3.99171 4.63003 4.14649C7.76466 4.29531 9.82714 2.49653 9.82714 2.49653L9.74183 0C9.74183 0 5.79319 2.94508 0 0.650017" transform="translate(7.372063 57.13013)" id="Fill-37" fill="#12183F" stroke="none" />
      <path d="M0.328499 0.0365351C0.328499 0.0365351 4.50577 -0.653144 6.13602 3.96051C6.43959 9.7503 6.20302 19.6238 5.96093 32.722C5.73265 45.0871 4.30373 75.9647 4.30373 75.9647C4.30373 75.9647 2.36265 77.1763 0.379612 75.3561C0.741719 69.7506 0.274624 42.5257 0.0560125 33.6448C-0.162426 24.7635 0.328499 0.0365351 0.328499 0.0365351" transform="translate(6.204449 70.75261)" id="Fill-39" fill="#4E5C93" stroke="none" />
      <path d="M1.56576 22.4526C1.56576 22.4526 -0.138573 9.84398 0.00906668 0" transform="translate(5.335145 30.23165)" id="Stroke-41" fill="none" stroke="#597EF7" stroke-width="0.8240818" stroke-linecap="round" stroke-linejoin="round" />
      <path d="M0 0.166891L0.522526 0.184089" transform="translate(10.08736 15.7259)" id="Stroke-43" fill="none" stroke="#604346" stroke-width="0.6180613" stroke-linecap="round" stroke-linejoin="round" />
      <path d="M0 0.274467L1.15315 4.52415L2.92431 1.00837L4.55595 4.28162L6.1515 0" transform="translate(9.135439 22.68078)" id="Stroke-45" fill="none" stroke="#597EF7" stroke-width="0.8240818" stroke-linecap="round" stroke-linejoin="round" />
      <path d="M0 0.183036L1.14244 0.167944" transform="translate(11.3172 29.37999)" id="Stroke-47" fill="none" stroke="#597EF7" stroke-width="0.5" stroke-linecap="round" stroke-linejoin="round" />
      <path d="M0.0311977 2.64217L0.000288205 0.92025C-0.00834572 0.435194 0.178147 0.0378832 0.406601 0.0575382C0.954337 0.10457 1.92168 0.154409 2.62155 0.00418899C2.85035 -0.0445974 3.04824 0.339025 3.04979 0.827591L3.05549 2.58776C3.0567 2.99946 2.91666 3.34904 2.72533 3.41538C2.27067 3.57297 1.39329 3.76776 0.367058 3.43679C0.180219 3.37642 0.0384502 3.04334 0.0311977 2.64217" transform="translate(10.32276 58.22097)" id="Fill-49" fill="#F1F2F6" stroke="none" />
      <path d="M0.0237 1.87128L0.000215702 0.653371C-0.00634608 0.310111 0.137668 0.0286242 0.313973 0.0426634C0.736345 0.0753047 1.48283 0.109701 2.02263 0.00300256C2.19928 -0.0317446 2.35175 0.239564 2.35296 0.58493L2.35693 1.83021C2.35797 2.12153 2.2497 2.36897 2.10206 2.416C1.75135 2.52761 1.07428 2.66625 0.282718 2.4332C0.138531 2.39073 0.0292257 2.15522 0.0237 1.87128" transform="translate(10.68018 58.75137)" id="Fill-51" fill="#12183F" stroke="none" />
      <path d="M0 0.143376L1.15228 0.207605" transform="translate(8.344554 7.440423)" id="Stroke-53" fill="none" stroke="#604346" stroke-width="0.8240818" stroke-linecap="round" stroke-linejoin="round" />
      <path d="M0 0.758471C0 0.758471 1.21807 1.53309 2.54217 0" transform="translate(10.0673 18.08218)" id="Stroke-55" fill="none" stroke="#7C5B4D" stroke-width="0.6180613" stroke-linecap="round" stroke-linejoin="round" />
      <path d="M0.547218 0.017014C0.547218 0.017014 0.044033 -0.239904 0 1.24299C0.421854 1.36935 0.359171 2.02884 0.165771 2.36087" transform="translate(14.11057 9.901724)" id="Stroke-57" fill="none" stroke="#7C5B4D" stroke-width="0.6180613" stroke-linecap="round" stroke-linejoin="round" />
      <path d="M8.93131 17.7913L1.15507 19.5388C0.823359 19.6136 0.528769 19.1085 0.508739 18.4318L0.00106376 1.3039C-0.018967 0.623351 0.24644 0.0487939 0.581609 0.046688L8.11298 7.50703e-06C8.50393 -0.00244936 8.83202 0.598431 8.87122 1.38884L9.60389 16.1006C9.64568 16.9436 9.34556 17.6982 8.93131 17.7913" transform="translate(14.90035 64.31763)" id="Fill-59" fill="#FAAD14" stroke="none" />
      <path d="M0.371782 0.000720475L0.430147 1.85126e-05C0.629936 -0.00278934 0.795535 0.314147 0.806414 0.719881L1.28335 18.793C1.29458 19.2138 1.13537 19.5728 0.928497 19.5936C0.723355 19.6146 0.548259 19.2959 0.535999 18.8797L0.000695475 0.807276C-0.0122554 0.371708 0.157315 0.00352833 0.371782 0.000720475" transform="translate(14.88751 64.36227)" id="Fill-61" fill="#FF7A46" stroke="none" />
      <path d="M0 0.200762L0.702456 0.191637L8.72458 0.150221" transform="translate(15.16957 70.12582)" id="Stroke-63" fill="none" stroke="#FF7A46" stroke-width="0.5" stroke-linecap="round" stroke-linejoin="round" />
      <path d="M3.08844 8.30849C2.86413 9.10206 2.63689 8.97325 2.34558 9.10908C2.05427 9.24456 1.70045 10.1055 1.70045 10.1055C0.941529 11.0051 1.12819 8.53206 0.981763 8.33622C0.908548 8.23864 0.868314 8.98378 0.564054 9.46181C0.259622 9.9402 -0.0681223 9.6882 0.0123459 9.27158C0.203674 8.28076 0.574242 5.8618 0.645731 4.58528C0.737596 2.93707 1.20262 1.41556 1.20262 1.41556C1.76538 -0.909338 3.58144 0.329977 3.58144 0.329977C3.58144 0.329977 4.12313 7.50404 3.70266 7.77324C3.70266 7.77324 3.18272 7.97541 3.08844 8.30849" transform="translate(19.82486 74.79964)" id="Fill-65" fill="#A08889" stroke="none" />
      <path d="M0.177175 10.1668C0.177175 10.1668 -0.8159 2.21568 1.90016 0.104531C4.05053 -1.56684 7.0914 17.1693 7.13301 30.2135C7.16012 38.7107 6.37098 50.3837 6.37098 50.3837C6.37098 50.3837 4.48153 51.2643 3.21045 49.9934C3.37017 44.2268 3.12704 31.7476 2.73385 27.6327C2.34049 23.5178 0.177175 10.1668 0.177175 10.1668" transform="translate(17.37971 25.99323)" id="Fill-67" fill="#ADC6FF" stroke="none" />
      <path d="M0 0L1.03987 5.91579" transform="translate(17.66381 37.68158)" id="Stroke-69" fill="none" stroke="#597EF7" stroke-width="0.8240818" stroke-linecap="round" stroke-linejoin="round" />
      <path d="M0 7.83636C0 7.83636 0.221892 1.21229 2.21167 0" transform="translate(17.16617 26.29409)" id="Stroke-71" fill="none" stroke="#597EF7" stroke-width="0.8240818" stroke-linecap="round" stroke-linejoin="round" />
      <path d="M0 0C0.862529 1.14139 3.12721 0.518047 3.12721 0.518047" transform="translate(20.59023 75.98672)" id="Stroke-73" fill="none" stroke="#597EF7" stroke-width="0.8240818" stroke-linecap="round" stroke-linejoin="round" />
      <path d="M0 0.0186916C0 0.0186916 1.62232 0.524458 2.33444 0.251393" transform="translate(21.0199 73.49175)" id="Stroke-75" fill="none" stroke="#597EF7" stroke-width="0.8240818" stroke-linecap="round" stroke-linejoin="round" />
      <path d="M0.537555 0.542978C0.538591 0.844822 0.418925 1.09121 0.270421 1.09297C0.12209 1.09507 0.000870079 0.851842 6.68681e-06 0.549997C-0.00102938 0.248153 0.118464 0.00211534 0.26714 9.45034e-06C0.415471 -0.00174546 0.536691 0.241134 0.537555 0.542978" transform="translate(22.70087 74.51933)" id="Fill-77" fill="#FFFFFF" stroke="none" />
      <path d="M3.13049 0.514893L0 0" transform="translate(10.0941 78.13863)" id="Stroke-79" fill="none" stroke="#12183F" stroke-width="0.8240818" stroke-linecap="round" stroke-linejoin="round" />
      <path d="M0.696931 0C0.698139 0.408543 0.543247 0.741975 0.350883 0.744432C0.158346 0.746889 0.00138143 0.417668 0 0.00912552" transform="translate(10.97607 9.353307)" id="Stroke-81" fill="none" stroke="#604346" stroke-width="0.8240818" stroke-linecap="round" stroke-linejoin="round" />
      <path d="M0.696758 0C0.698139 0.408543 0.543074 0.741975 0.35071 0.744432C0.158346 0.746889 0.00138143 0.417668 0 0.00912552" transform="translate(8.569536 9.385106)" id="Stroke-83" fill="none" stroke="#604346" stroke-width="0.8240818" stroke-linecap="round" stroke-linejoin="round" />
      <path d="M0 5.94681C0 5.94681 2.32132 0.225105 2.89841 0.110685C3.61105 -0.0304091 4.38396 -0.0191777 4.68632 0.0478597C4.78009 0.0685676 4.85607 0.209662 4.87541 0.397086L5.15998 3.14422C5.19245 3.45835 5.15808 3.78616 5.06501 4.04554L4.24427 6.06754C4.20334 6.16898 4.15309 6.25321 4.09628 6.31569L1.22757 9.48435C1.22757 9.48435 0.052667 7.32125 0 5.94681" transform="translate(8.084188 31.5688)" id="Fill-85" fill="#A08889" stroke="none" />
      <path d="M0 0.317288L1.52251 0.0336943" transform="translate(11.47283 32.60755)" id="Stroke-87" fill="none" stroke="#7C5B4D" stroke-width="0.6180613" stroke-linecap="round" stroke-linejoin="round" />
      <path d="M0 0.937473L1.13156 0" transform="translate(11.89931 33.56296)" id="Stroke-89" fill="none" stroke="#7C5B4D" stroke-width="0.6180613" stroke-linecap="round" stroke-linejoin="round" />
      <path d="M0 1.32706L0.708845 0" transform="translate(12.38919 34.35277)" id="Stroke-91" fill="none" stroke="#7C5B4D" stroke-width="0.6180613" stroke-linecap="round" stroke-linejoin="round" />
      <g id="分组" transform="translate(0 36.91518)">
        <path d="M0 0L9.55645 0L9.55645 16.7391L0 16.7391L0 0Z" transform="translate(0 0.101119)" id="Clip-94" fill="none" stroke="none" />
        <g clip-path="url(#mask_3)">
          <path d="M0.737967 9.2438L8.18076 0L9.55649 4.52766C9.55649 4.52766 4.34505 15.5243 2.448 16.5797C0.550956 17.6347 -0.959464 13.2576 0.737967 9.2438" transform="translate(-4.201271E-05 0.101119)" id="Fill-93" fill="#ADC6FF" stroke="none" />
        </g>
      </g>
      <path d="M0 8.08977C1.54944 6.09269 6.44057 0 6.44057 0L7.86499 4.52696C7.86499 4.52696 2.79308 14.8718 0.756505 16.5786" transform="translate(1.691542 37.01711)" id="Stroke-95" fill="none" stroke="#597EF7" stroke-width="0.8240818" stroke-linecap="round" stroke-linejoin="round" />
      <path d="M0.537725 0.542978C0.538762 0.844822 0.419095 1.09121 0.270592 1.09297C0.122261 1.09507 0.00104072 0.851842 4.64945e-06 0.549997C-0.000858743 0.248153 0.118635 0.00211534 0.267138 9.45034e-06C0.415642 -0.00174546 0.536689 0.241134 0.537725 0.542978" transform="translate(8.372419 40.66671)" id="Fill-97" fill="#FFFFFF" stroke="none" />
      <path d="M0 0L1.08166 3.74111" transform="translate(7.26514 39.59787)" id="Stroke-99" fill="none" stroke="#597EF7" stroke-width="0.8240818" stroke-linecap="round" stroke-linejoin="round" />
    </g>
  </g>
</svg>
