<?xml version="1.0" encoding="utf-8"?>
<svg width="24px" height="142px" viewBox="0 0 24 142" version="1.1" xmlns:xlink="http://www.w3.org/1999/xlink" xmlns="http://www.w3.org/2000/svg">
  <desc>Created with Lunacy</desc>
  <defs>
    <path d="M0 0L6.1242 0L6.1242 1.52408L0 1.52408L0 0Z" transform="translate(0.06722468 0.02306626)" id="path_1" />
    <path d="M0 0L6.78685 0L6.78685 2.11327L0 2.11327L0 0Z" transform="translate(0.05809812 0.1086233)" id="path_2" />
    <clipPath id="mask_1">
      <use xlink:href="#path_1" />
    </clipPath>
    <clipPath id="mask_2">
      <use xlink:href="#path_2" />
    </clipPath>
  </defs>
  <g id="1.人物组件/7.设计师/站立原型" transform="translate(0.4370117 0.4371338)">
    <path d="M3.50587 11.1095C3.50587 11.1095 1.82968 10.6045 1.38667 14.2833C-0.237642 15.5093 0.205366 19.1877 0.205366 19.1877C0.205366 19.1877 -0.610517 22.0776 1.01014 23.5582C1.13978 26.5185 2.76044 25.9806 2.76044 25.9806C2.76044 25.9806 3.14934 28.2683 4.3811 27.3262C5.71012 29.472 8.21458 29.0414 9.10377 26.4181C10.8671 29.1508 13.9353 25.8153 13.5504 23.3207C15.6097 23.0618 16.6081 18.5276 15.4016 14.6759C16.3284 11.6293 15.2718 9.83109 15.2718 9.83109C15.2718 9.83109 15.5634 2.83296 13.2297 1.89088C12.0306 -1.87747 9.43745 1.15071 9.43745 1.15071C9.43745 1.15071 7.71969 0.410548 7.10373 3.50593C5.18413 4.11862 5.27426 6.30946 5.12653 8.14884C3.40877 8.35076 3.50587 11.1095 3.50587 11.1095" id="Fill-1" fill="#253368" stroke="none" />
    <path d="M1.17717 23.2783L1.06384 23.1926C0.228248 22.563 -0.205326 20.6338 0.0954862 18.8841L2.9581 2.22795C3.25875 0.477908 4.17969 -0.429834 5.01528 0.199855L5.12876 0.285485C5.9642 0.915175 6.39761 2.84429 6.0968 4.59401L3.23435 21.2502C2.93369 23.0002 2.0126 23.9083 1.17717 23.2783" transform="translate(3.538461 20.86957)" id="Fill-3" fill="#FFC999" stroke="none" />
    <path d="M3.10345 12.1739L4.33289 4.71454C4.62926 2.9164 4.1709 0.894218 3.31419 0.220718C2.45749 -0.452782 1.51408 0.467679 1.21771 2.26581L0 9.65444L3.10345 12.1739Z" transform="translate(4.423077 20)" id="Fill-5" fill="#597EF7" stroke="none" />
    <path d="M0 5.18275L3.16789 7.82609L4.42308 0" transform="translate(4.423077 25.21739)" id="Stroke-7" fill="none" stroke="#1D39C4" stroke-width="0.506115556" stroke-linecap="round" stroke-linejoin="round" />
    <path d="M2.65785 38.2601L2.65785 38.2601C1.84312 38.2948 1.15839 37.1605 1.10702 35.6908L0.00450457 4.24886C-0.074847 1.98425 0.904066 0.0543321 2.15961 0.00113638C3.41516 -0.0523898 4.44325 1.79195 4.42278 4.06119L4.14011 35.5617C4.12695 37.0346 3.47275 38.2254 2.65785 38.2601" transform="translate(5.307693 88.69566)" id="Fill-9" fill="#FFC999" stroke="none" />
    <path d="M2.15947 0.00127133L2.15947 0.00127133C0.91787 0.0608115 -0.056106 2.19642 0.00251362 4.7297L0.634132 31.9671C0.682624 34.0651 1.54228 35.7003 2.57042 35.6511C3.59857 35.6016 4.41955 33.8856 4.4197 31.7854L4.42308 4.51723C4.42338 1.98114 3.40122 -0.0582688 2.15947 0.00127133" transform="translate(5.307693 63.47826)" id="Fill-11" fill="#FFC999" stroke="none" />
    <path d="M0.219505 7.76281L3.30163 7.82608L3.53846 0.0729829L0 0L0.219505 7.76281Z" transform="translate(6.192307 120.8696)" id="Fill-13" fill="#597EF7" stroke="none" />
    <path d="M0 0.341305L2.65385 0.528262" transform="translate(7.076923 122.6087)" id="Stroke-15" fill="none" stroke="#DFE5F1" stroke-width="0.8116132" stroke-linecap="round" stroke-linejoin="round" />
    <path d="M6.11861 0.0732554L6.19231 10.4348L0.00528259 10.2695L1.8396e-05 8.67896C-0.000779209 8.09423 0.201813 7.59228 0.481134 7.48749L2.18553 6.70808L2.97987 5.57004C3.23606 5.27866 3.39351 4.72316 3.38952 4.1207C3.38107 2.82608 3.36815 0.63039 3.37293 0L6.11861 0.0732554Z" transform="translate(3.538461 128.6956)" id="Fill-17" fill="#4E5C93" stroke="none" />
    <g id="分组" transform="translate(3.538461 137.3913)">
      <path d="M0 0L6.1242 0L6.1242 1.52408L0 1.52408L0 0Z" transform="translate(0.06722468 0.02306626)" id="Clip-20" fill="none" stroke="none" />
      <g clip-path="url(#mask_1)">
        <path d="M6.01272 1.5241L0.100165 1.40002C0.0440476 1.39903 -0.000754906 1.32438 9.64131e-06 1.23392L0.00857258 0.162158C0.00933712 0.0714442 0.0553629 -0.000978704 0.111328 1.00038e-05L6.02388 0.124093C6.07985 0.125329 6.1248 0.199729 6.12419 0.290196L6.11547 1.3622C6.11471 1.45267 6.06868 1.52534 6.01272 1.5241" transform="translate(0.06722468 0.02306626)" id="Fill-19" fill="#CCD7EE" stroke="none" />
      </g>
    </g>
    <path d="M0 1.71722L0 1.71722C0.00442118 1.0207 0.258829 0.43351 0.60027 0.331313L1.70733 0L1.76923 1.73914L0 1.71722Z" transform="translate(3.538461 135.6522)" id="Fill-21" fill="#CCD7EE" stroke="none" />
    <path d="M0 0.216957L6.19231 0.652611" transform="translate(3.538461 136.5217)" id="Stroke-23" fill="none" stroke="#96A7CA" stroke-width="0.5" stroke-linecap="round" stroke-linejoin="round" />
    <path d="M0.590331 2.60869C0.367953 2.09003 0 1.99702 0 1.99702C0 1.99702 0.768234 1.71178 1.27804 1.80745C1.02706 1.2882 0.745702 1.02547 0.745702 1.02547C0.745702 1.02547 1.45731 0.739331 1.76923 0.745255C1.46202 0.182167 0.924781 0 0.924781 0" transform="translate(6.192307 133.0435)" id="Stroke-25" fill="none" stroke="#CCD7EE" stroke-width="0.83056134" stroke-linecap="round" stroke-linejoin="round" />
    <path d="M0.102083 7.67081e-08C0.102083 7.67081e-08 1.62147 -0.00424584 1.76137 1.98513C1.90157 3.97451 0.120376 0.567647 0.120376 0.567647C0.120376 0.567647 -0.137828 0.182248 0.102083 7.67081e-08Z" transform="translate(7.076923 130.4348)" id="Stroke-27" fill="none" stroke="#CCD7EE" stroke-width="0.83056134" stroke-linecap="round" stroke-linejoin="round" />
    <path d="M4.10419 38.2319L4.10419 38.2319C4.83511 38.0498 5.3643 37.0717 5.30284 35.5955L3.99036 3.6855C3.89569 1.41069 2.8796 -0.249296 1.75332 0.0308587C0.627034 0.311678 -0.157251 2.41998 0.0268011 4.67252L2.7471 36.2731C2.86655 37.7347 3.37327 38.414 4.10419 38.2319" transform="translate(13.26923 91.30434)" id="Fill-29" fill="#FFC999" stroke="none" />
    <path d="M2.09061 0.0348868L2.09061 0.0348868C3.41856 -0.278346 4.62183 1.55346 4.75444 4.09147L6.18209 31.3764C6.29205 33.4779 5.502 35.3627 4.40207 35.6224C3.30231 35.8817 2.29482 34.4211 2.13261 32.3318L0.0260204 5.207C-0.169922 2.68381 0.7625 0.348119 2.09061 0.0348868" transform="translate(10.61539 64.34782)" id="Fill-31" fill="#FFC999" stroke="none" />
    <path d="M3.53846 8.69565L0.691402 8.69565L0 0.139377L2.98867 0L3.53846 8.69565Z" transform="translate(15.92308 120.8696)" id="Fill-33" fill="#597EF7" stroke="none" />
    <path d="M3.53846 0.27261L0 0.596958" transform="translate(15.03846 122.6087)" id="Stroke-35" fill="none" stroke="#DFE5F1" stroke-width="0.8116132" stroke-linecap="round" stroke-linejoin="round" />
    <path d="M0 0.115929L0.517696 9.56522L6.19231 9.304L6.19 7.85384C6.18835 7.32062 5.97633 6.86649 5.68731 6.77602L4.69735 5.93846L3.81446 5.07213C3.54836 4.81122 3.31457 4.2792 3.21911 3.75797C3.04303 2.79339 2.84535 0.574554 2.83743 0L0 0.115929Z" transform="translate(15.92308 129.5652)" id="Fill-37" fill="#4E5C93" stroke="none" />
    <g id="分组" transform="translate(15.92308 137.3913)">
      <path d="M0 0L6.78685 0L6.78685 2.11327L0 2.11327L0 0Z" transform="translate(0.05809812 0.1086233)" id="Clip-40" fill="none" stroke="none" />
      <g clip-path="url(#mask_2)">
        <path d="M0.131409 2.11322L6.67678 1.83209C6.73892 1.82951 6.78802 1.73116 6.78683 1.61243L6.77024 0.210023C6.76872 0.0912951 6.71725 -0.00284582 6.65528 6.57571e-05L0.109907 0.281195C0.0477717 0.283783 -0.00132709 0.382129 2.7362e-05 0.500857L0.0164501 1.90359C0.0179738 2.02199 0.0694429 2.11581 0.131409 2.11322" transform="translate(0.05809812 0.1086233)" id="Fill-39" fill="#CCD7EE" stroke="none" />
      </g>
    </g>
    <path d="M1.76923 1.68336C1.7614 0.987497 1.50432 0.405493 1.16235 0.309978L0.0538159 0L0 1.73914L1.76923 1.68336Z" transform="translate(20.34615 135.6522)" id="Fill-41" fill="#CCD7EE" stroke="none" />
    <path d="M6.19231 0.16235L0 0.707218" transform="translate(15.92308 136.5217)" id="Stroke-43" fill="none" stroke="#96A7CA" stroke-width="0.5" stroke-linecap="round" stroke-linejoin="round" />
    <path d="M1.18534 2.60869C1.40344 2.08582 1.76923 1.9873 1.76923 1.9873C1.76923 1.9873 1.00254 1.71281 0.495712 1.81608C0.7423 1.29203 1.02069 1.02496 1.02069 1.02496C1.02069 1.02496 0.310576 0.748392 0 0.759075C0.302382 0.190214 0.836136 0 0.836136 0" transform="translate(18.57692 132.1739)" id="Stroke-45" fill="none" stroke="#CCD7EE" stroke-width="0.83056134" stroke-linecap="round" stroke-linejoin="round" />
    <path d="M1.66576 0C1.66576 0 0.139028 0.0267888 0.00702885 1.9956C-0.125121 3.96442 1.64994 0.561597 1.64994 0.561597C1.64994 0.561597 1.90746 0.175257 1.66576 0Z" transform="translate(16.80769 131.3044)" id="Stroke-47" fill="none" stroke="#CCD7EE" stroke-width="0.83056134" stroke-linecap="round" stroke-linejoin="round" />
    <path d="M0.109498 3.28626C1.42199 3.76495 1.82122 1.70136 1.82122 1.70136C1.82122 1.70136 2.36265 -1.20485 2.50145 0.579382C2.57511 1.52743 3.28072 0.269151 3.6052 1.28021C3.82338 1.96047 3.27778 2.83715 3.9871 4.65096C4.39793 5.70156 2.77673 6.53999 3.77696 8.47692C3.77696 8.47692 3.06578 10.8411 4.28729 11.612L4.41681 14.3842C4.49201 15.9977 3.8811 17.3939 3.10091 17.3913C2.35692 17.389 1.76103 16.1105 1.78362 14.5658L1.83313 11.1857C-0.0635 11.1857 -0.156189 5.77036 0.109498 3.28626" transform="translate(8.846154 4.347826)" id="Fill-49" fill="#FFC999" stroke="none" />
    <path d="M0.884615 0C0.884615 0 0.539762 1.00654 0 0.853785" transform="translate(10.61539 10.43478)" id="Stroke-51" fill="none" stroke="#F5222D" stroke-width="0.874275148" stroke-linecap="round" stroke-linejoin="round" />
    <path d="M0.521888 0C0.521888 0 0.558061 0.73075 0 1.87902C0.601468 2.4209 0.884615 2.6087 0.884615 2.6087" transform="translate(10.61539 7.826087)" id="Stroke-53" fill="none" stroke="#DD936F" stroke-width="0.655706346" stroke-linecap="round" stroke-linejoin="round" />
    <path d="M0 0C0 0.480257 0.197945 0.869565 0.442231 0.869565C0.686516 0.869565 0.884615 0.480257 0.884615 0" transform="translate(11.5 7.826087)" id="Stroke-55" fill="none" stroke="#373A65" stroke-width="0.8701198" stroke-linecap="round" stroke-linejoin="round" />
    <path d="M0 0C0 0.480257 0.198002 0.869565 0.442393 0.869565C0.686613 0.869565 0.884615 0.480257 0.884615 0" transform="translate(9.730769 7.826087)" id="Stroke-57" fill="none" stroke="#373A65" stroke-width="0.8252426" stroke-linecap="round" stroke-linejoin="round" />
    <path d="M0 0.746866C0 0.746866 0.464658 -1.01262 0.884615 0.869565" transform="translate(11.5 6.086957)" id="Stroke-59" fill="none" stroke="#373A65" stroke-width="0.8701198" stroke-linecap="round" stroke-linejoin="round" />
    <path d="M0 0.869565C0.288187 0.854965 0.587581 0.588298 0.884615 0" transform="translate(11.5 14.78261)" id="Stroke-61" fill="none" stroke="#DD936F" stroke-width="0.655706346" stroke-linecap="round" stroke-linejoin="round" />
    <path d="M13.472 0.303852C14.8747 0.526188 18.2038 18.4783 19.4615 24.8975C19.2941 26.1904 18.2712 28.4712 18.2712 28.4712C18.2712 28.4712 18.3806 29.5005 18.448 30.1188C17.2509 32.1125 14.9361 33.1956 14.9361 33.1956L14.9309 34.08C11.2297 37.5315 6.27335 34.2237 6.27335 34.2237C6.27335 34.2237 6.18094 34.0319 6.2473 33.3383C4.56668 33.2988 0.968522 28.9809 0.968522 28.9809L1.48006 26.8445L0 23.7769C0 23.7769 3.99665 8.88635 5.22684 4.72137C6.30678 1.06477 7.31971 0.0121607 7.31971 0.0121607C7.31971 0.0121607 10.9832 -0.091043 13.472 0.303852" transform="translate(0.8846154 44.34783)" id="Fill-63" fill="#4E5C93" stroke="none" />
    <path d="M6.19231 0L0 25.0587C0 25.0587 2.06621 28.2602 5.25546 29.5652" transform="translate(1.769231 47.82609)" id="Stroke-65" fill="none" stroke="#253368" stroke-width="0.632436633" stroke-linecap="round" stroke-linejoin="round" />
    <path d="M0 0L4.42308 21.4363C4.42308 21.4363 2.6717 23.5429 0.498663 24.3478" transform="translate(14.15385 52.17391)" id="Stroke-67" fill="none" stroke="#253368" stroke-width="0.632436633" stroke-linecap="round" stroke-linejoin="round" />
    <path d="M2.8313 5.01271L0 33.4843C0 33.4843 4.5244 36.4161 8.84615 33.4683C7.86188 21.1365 5.75619 0 5.75619 0" transform="translate(6.192307 44.34783)" id="Stroke-69" fill="none" stroke="#253368" stroke-width="0.632436633" stroke-linecap="round" stroke-linejoin="round" />
    <path d="M0.884615 0L0 22.6087" transform="translate(10.61539 45.21739)" id="Stroke-71" fill="none" stroke="#253368" stroke-width="0.632436633" stroke-linecap="round" stroke-linejoin="round" />
    <path d="M2.65385 0L0 16.5217" transform="translate(7.076923 44.34783)" id="Stroke-73" fill="none" stroke="#253368" stroke-width="0.632436633" stroke-linecap="round" stroke-linejoin="round" />
    <path d="M0 1.45985L0.100148 0.212592C0.100148 0.212592 3.0953 0.242161 6.03294 0C6.1072 0.553912 6.19231 1.55009 6.19231 1.55009C5.9455 1.21667 3.27715 2.19092 0 1.45985" transform="translate(7.961538 42.6087)" id="Fill-75" fill="#4E5C93" stroke="none" />
    <path d="M0.00145649 0.454733C-0.0715517 0.581689 2.60835 1.02778 6.19231 0.183429" transform="translate(7.961538 43.47826)" id="Stroke-77" fill="none" stroke="#253368" stroke-width="0.632436633" stroke-linecap="round" stroke-linejoin="round" />
    <path d="M1.04524 6.82873C0.710147 8.32338 0.0894634 10.8959 0.012256 12.5955C-0.113027 15.3509 0.763476 17.4014 0.763476 17.4014C0.763476 17.4014 0.772232 16.5907 0.857398 23.73C4.87218 25.1715 7.43181 23.6387 7.43181 23.6387L7.35365 21.7462L8.00569 17.273C8.00569 17.273 8.40176 15.607 9.21554 11.8907C9.78146 9.3071 9.74214 6.10372 9.66541 4.39141C9.63278 3.65761 9.89624 3.15613 9.54968 2.95672C8.33903 2.26006 7.36734 2.12288 7.36734 2.12288L7.2532 0.488115C7.23377 0.208215 7.11661 0 6.97843 0L4.0272 0C3.90064 0 3.78985 0.175956 3.75833 0.427182L3.54215 2.15351L1.23277 2.43015C0.946068 2.54517 1.21271 3.48686 1.18278 4.08186L1.04524 6.82873Z" transform="translate(7.076923 18.26087)" id="Fill-79" fill="#597EF7" stroke="none" />
    <path d="M2.65385 0.434783L0 0.434783" transform="translate(10.61539 20)" id="Stroke-81" fill="none" stroke="#1D39C4" stroke-width="0.528554142" stroke-linecap="round" stroke-linejoin="round" />
    <path d="M4.42308 0L1.2436 7.82609L0 0.468996" transform="translate(9.730769 20)" id="Stroke-83" fill="none" stroke="#C9D4EA" stroke-width="0.678144932" stroke-linecap="round" stroke-linejoin="round" />
    <path d="M0.140536 1.13093C-0.123566 2.18403 -0.00457073 3.50463 0.40635 4.08077C0.81727 4.65691 1.36459 4.27 1.6287 3.2169C1.8928 2.16413 1.7738 0.843195 1.36288 0.267056C0.951961 -0.309082 0.40478 0.0778213 0.140536 1.13093" transform="translate(10.61539 26.95652)" id="Fill-85" fill="#C9D4EA" stroke="none" />
    <path d="M0.140533 1.1308C-0.123564 2.18392 -0.00457064 3.50454 0.406341 4.08069C0.817253 4.65683 1.36456 4.27026 1.6288 3.21714C1.89276 2.16402 1.77376 0.843059 1.36285 0.266911C0.951941 -0.308899 0.404772 0.077673 0.140533 1.1308" transform="translate(9.730769 26.95652)" id="Fill-87" fill="#F0F0F5" stroke="none" />
    <path d="M0.140545 0.904624C-0.123529 1.74712 -0.00463173 2.80372 0.406273 3.2646C0.817361 3.72547 1.36462 3.41614 1.62869 2.57364C1.89277 1.73079 1.77387 0.674536 1.36278 0.213663C0.951879 -0.247209 0.404619 0.0621242 0.140545 0.904624" transform="translate(10.61539 27.82609)" id="Fill-89" fill="#FAAD14" stroke="none" />
    <path d="M8.84615 10.0561L7.73037 16.5597L7.8299 18.5393C7.8299 18.5393 4.69544 19.8898 0.886353 18.5083C0.886353 17.9898 0.779228 12.3559 0.779228 12.3559C0.779228 12.3559 0 9.60225 0 7.65304C0 5.31827 0.365068 4.313 1.09487 1.71867L1.12793 0" transform="translate(6.192307 23.47826)" id="Stroke-91" fill="none" stroke="#1D39C4" stroke-width="0.528554142" stroke-linecap="round" stroke-linejoin="round" />
    <path d="M0.000895551 3.03711L0.000895551 3.03711C-0.0217778 4.12837 0.388712 5.06052 0.932873 5.15366L11.4354 6.95166C12.4034 7.0531 13.2274 5.55344 13.2677 3.61688C13.3083 1.66308 12.5361 0.0291711 11.5584 0L0.971282 1.079C0.443534 1.1327 0.0228921 1.98164 0.000895551 3.03711" transform="translate(4.423077 37.3913)" id="Fill-93" fill="#FFC999" stroke="none" />
    <path d="M1.44641 22.5522L1.51772 22.5728C2.42114 22.8333 3.24397 21.6489 3.35549 19.9272L4.41049 3.64582C4.52201 1.92412 3.88006 0.31733 2.97664 0.0564957L2.90533 0.0359293C2.00191 -0.224578 1.17908 0.959458 1.06771 2.68149L0.0125555 18.9629C-0.0988052 20.6846 0.542984 22.2917 1.44641 22.5522" transform="translate(13.26923 20.86957)" id="Fill-95" fill="#FFC999" stroke="none" />
    <path d="M0 11.6729L0.509641 3.24619C0.603753 1.26045 1.55958 -0.190972 2.63371 0.0204629C3.70785 0.231898 4.50968 2.02943 4.41557 4.01516L4.0289 12.1739L0 11.6729Z" transform="translate(13.26923 20.86957)" id="Fill-97" fill="#597EF7" stroke="none" />
    <path d="M3.53846 8.69565L0 8.12637L0.403684 0" transform="translate(13.26923 24.34783)" id="Stroke-99" fill="none" stroke="#1D39C4" stroke-width="0.521905661" stroke-linecap="round" stroke-linejoin="round" />
    <path d="M12.382 3.02715L12.382 3.02715C12.4197 4.24409 12.0506 5.29787 11.5441 5.41882L1.90791 7.81764C1.00568 7.96148 0.0715829 6.25075 0.004551 4.09059C-0.0631774 1.91147 0.633258 0.063334 1.54559 0L11.4463 0.872006C11.9397 0.915302 12.3454 1.84993 12.382 3.02715" transform="translate(2.653846 37.3913)" id="Fill-101" fill="#FFC999" stroke="none" />
    <path d="M3.75889 3.90382C4.06741 4.71588 3.48093 5.31209 3.48093 5.31209C3.48093 5.31209 3.69808 5.94228 3.20506 6.12748C2.76724 6.29202 0.0524868 6.95652 0.0524868 6.95652L0 2.68108L1.03485 2.38996C1.03485 2.38996 1.62245 1.23883 1.92601 0.788505C2.22925 0.338511 3.01559 0.479738 3.42285 0.0660494C3.8301 -0.347972 3.62895 1.30911 2.66003 1.57858C4.18647 1.60522 4.38473 0.760526 4.42122 1.5909C4.45306 2.31868 4.06581 2.35432 4.06581 2.35432C4.06581 2.35432 4.49995 3.13673 3.75889 3.90382" transform="translate(13.26923 35.65217)" id="Fill-103" fill="#FFC999" stroke="none" />
    <path d="M1.32523 1.78202L9.72107 2.34552C9.72107 2.34552 10.3364 1.21558 10.6542 0.774003C10.9717 0.332096 11.7954 0.470682 12.2217 0.0647286C12.6482 -0.341225 12.4377 1.28455 11.4229 1.5493C13.0214 1.57512 13.2291 0.746547 13.2673 1.56107C13.3008 2.27557 12.8952 2.31055 12.8952 2.31055C12.8952 2.31055 13.3497 3.07833 12.5736 3.83075C12.8969 4.62762 12.2827 5.21269 12.2827 5.21269C12.2827 5.21269 12.5162 5.92196 11.9938 6.01283C11.4713 6.10402 0 8.69565 0 8.69565" transform="translate(4.423077 35.65217)" id="Stroke-105" fill="none" stroke="#DD936F" stroke-width="0.5875594" stroke-linecap="round" stroke-linejoin="round" />
    <path d="M4.42308 4.34783C4.42308 4.34783 2.83407 0.113461 2.24355 0.0162075C1.65303 -0.0810458 0.607377 0.266337 0.43361 0.871197C0.0245677 2.29851 0 4.25022 0 4.25022L1.99088 4.18656L4.42308 4.34783Z" transform="translate(3.538461 33.91304)" id="Fill-107" fill="#FFC999" stroke="none" />
    <path d="M4.42308 4.34783C4.42308 4.34783 2.83407 0.113461 2.24355 0.0162075C1.65303 -0.0810458 0.607377 0.266337 0.43361 0.871197C0.0245677 2.29851 0 4.25022 0 4.25022L1.99088 4.18656L4.42308 4.34783Z" transform="translate(3.538461 33.91304)" id="Stroke-109" fill="none" stroke="#DD936F" stroke-width="0.623295" stroke-linecap="round" stroke-linejoin="round" />
    <path d="M0 0.774231C0 0.774231 1.01932 -0.0875065 1.76923 0.130754" transform="translate(3.538461 34.78261)" id="Stroke-111" fill="none" stroke="#DD936F" stroke-width="0.5" stroke-linecap="round" stroke-linejoin="round" />
    <path d="M0 0.572009C0 0.572009 0.647673 0.0763572 0.884615 0.417226" transform="translate(3.538461 34.78261)" id="Stroke-113" fill="none" stroke="#DD936F" stroke-width="0.5" stroke-linecap="round" stroke-linejoin="round" />
    <path d="M0 0.418695L1.76923 0.450869" transform="translate(3.538461 36.52174)" id="Stroke-115" fill="none" stroke="#DD936F" stroke-width="0.5" stroke-linecap="round" stroke-linejoin="round" />
  </g>
</svg>
