<?xml version="1.0" encoding="utf-8"?>
<svg width="41px" height="150px" viewBox="0 0 41 150" version="1.1" xmlns:xlink="http://www.w3.org/1999/xlink" xmlns="http://www.w3.org/2000/svg">
  <desc>Created with Lunacy</desc>
  <defs>
    <path d="M0 0L10.4205 0L10.4205 13.4971L0 13.4971L0 0Z" transform="translate(0 0.01732198)" id="path_1" />
    <clipPath id="mask_1">
      <use xlink:href="#path_1" />
    </clipPath>
  </defs>
  <g id="编组" transform="translate(0.8144531 0.8143921)">
    <path d="M2.56616 13.0987L0 4.02765L5.00167 0C5.00167 0 9.98331 12.5113 8.92123 15.2747C7.36327 19.3277 4.38278 19.8617 2.56616 13.0987" transform="translate(22.67442 35.66272)" id="Fill-1" fill="#FFC999" stroke="none" />
    <g id="编组" transform="translate(0 133.0828)">
      <path d="M0 0L10.4205 0L10.4205 13.4971L0 13.4971L0 0Z" transform="translate(0 0.01732198)" id="Clip-4" fill="none" stroke="none" />
      <g clip-path="url(#mask_1)">
        <path d="M4.46821 12.8542C1.50967 14.6947 0.004482 11.9985 0.004482 11.9985C0.004482 11.9985 -0.075902 11.0586 0.444175 10.0128C1.09531 8.704 2.53669 8.2475 4.2524 5.74692C5.57009 3.82603 6.44603 0.827209 6.44603 0.827209C7.4005 -1.25896 10.4113 1.25852 10.4113 1.25852C10.4113 1.25852 10.4473 5.58544 10.3772 8.06013C10.3772 8.06013 10.2632 9.42239 7.99658 9.89165C6.30046 10.2426 6.23988 11.7522 4.46821 12.8542" transform="translate(-5.972574E-05 0.01732198)" id="Fill-3" fill="#4E5C93" stroke="none" />
      </g>
    </g>
    <path d="M0.034199 1.90057C0.034199 1.90057 -0.117306 8.01032 0.217452 9.62239C1.19791 11.2248 2.07029 10.4919 3.37337 12.0893C4.67668 13.687 7.42104 16.339 9.91072 13.6058C10.2196 11.7528 9.40018 10.9123 8.3854 9.91947C4.20209 5.82648 4.93791 5.09797 4.18202 2.73501C3.02181 -0.890802 0.0152901 -0.640504 0.034199 1.90057" transform="translate(20.86047 132.213)" id="Fill-5" fill="#4E5C93" stroke="none" />
    <path d="M2.78909 28.8511C2.78909 28.8511 1.48146 18.8779 0.90012 15.1924C0.319004 11.5073 -0.552218 2.68835 0.476625 2.0366C1.5057 1.38518 3.96899 0.00351288 3.96899 0.00351288C3.96899 0.00351288 5.92635 -0.0850424 8.12648 0.62709C9.86825 1.19129 9.86032 -0.330918 11.9724 0.203433C12.8669 0.429853 16.3656 2.08188 17.0425 2.87988C17.7194 3.67789 16.3704 29.4924 16.3704 29.4924C16.3704 29.4924 17.2022 30.7721 16.1822 32.4151C15.6767 33.1842 13.5022 32.9052 10.7171 32.8934C7.54673 32.8797 3.81544 33.4395 3.12675 32.5412C1.83317 30.8536 2.78909 28.8511 2.78909 28.8511" transform="translate(8.16279 22.61539)" id="Fill-7" fill="#597EF7" stroke="none" />
    <path d="M2.15565 0L0 2.55666L2.40091 6.08876L3.62791 1.90174L2.15565 0Z" transform="translate(17.23256 21.74556)" id="Fill-9" fill="#597EF7" stroke="none" />
    <path d="M9.97674 16.502L9.65227 20.8757C9.65227 20.8757 1.85417 14.5491 0.324968 10.9379C-1.03273 7.73138 2.30291 0 2.30291 0C2.30291 0 5.54607 3.43228 6.14027 5.56809L5.58404 7.95193L9.97674 16.502Z" transform="translate(0.9069768 37.40237)" id="Fill-11" fill="#FFC999" stroke="none" />
    <path d="M3.7175 20.0059C3.7175 20.0059 0.244764 11.6337 0.0120356 6.78743C-0.216387 2.03459 2.86337 -1.47474 4.42334 0.618736C6.69633 3.66966 9.06977 13.8208 9.06977 13.8208C9.06977 13.8208 6.44757 18.3217 3.7175 20.0059" transform="translate(20.86047 26.09468)" id="Fill-13" fill="#597EF7" stroke="none" />
    <path d="M0 5.21894C0 5.21894 2.59125 3.83162 4.53488 0" transform="translate(24.48837 38.27219)" id="Stroke-15" fill="none" stroke="#1D39C4" stroke-width="0.8148266" stroke-linecap="round" stroke-linejoin="round" />
    <path d="M0 5.21893C0 5.21893 2.59083 3.74362 4.53488 0" transform="translate(24.48837 41.75148)" id="Stroke-17" fill="none" stroke="#1D39C4" stroke-width="0.8148266" stroke-linecap="round" stroke-linejoin="round" />
    <path d="M0 15.9446C0 15.9446 4.06053 3.67793 6.21312 1.30064C8.36572 -1.07631 9.307 0.208799 10.1549 1.9432C10.6887 3.03471 11.912 6.12804 9.10592 12.5596C6.99276 17.4028 6.10889 19.1963 5.85501 20.0059C2.38111 19.607 0 15.9446 0 15.9446" transform="translate(1.813954 24.35503)" id="Fill-19" fill="#597EF7" stroke="none" />
    <path d="M4.19958 13.0473L6.34884 10.1195L6.05551 0L0.318117 0.356376L0 10.3298L4.19958 13.0473Z" transform="translate(13.60465 11.30769)" id="Fill-21" fill="#FFC999" stroke="none" />
    <path d="M0.548209 0.702989C0.548209 0.702989 1.3864 -0.570258 1.72297 0.310332C2.05976 1.19092 1.41729 4.29085 0.524004 4.34794C-0.668963 4.42465 0.548209 0.702989 0.548209 0.702989" transform="translate(19.04651 10.43787)" id="Fill-23" fill="#FFC999" stroke="none" />
    <path d="M2.27446 14.7032C2.27446 14.7032 4.01388 16.7693 6.37538 14.8191C8.07531 13.4154 8.34639 8.19327 8.06834 4.34905C7.91131 2.17396 7.21094 0.988972 5.7073 0.310905C4.20389 -0.367162 0.106686 -0.485271 0.00401172 5.90268C-0.110742 13.0175 2.27446 14.7032 2.27446 14.7032" transform="translate(12.69767 3.47929)" id="Fill-25" fill="#FFC999" stroke="none" />
    <path d="M0.730556 0L0.514609 1.40435L0.906977 5.21894L0 5.20603" transform="translate(18.13953 8.698225)" id="Stroke-27" fill="none" stroke="#DD936F" stroke-width="0.610906661" stroke-linecap="round" stroke-linejoin="round" />
    <path d="M0 0.22761C0.332766 0.351352 1.22183 0.162713 1.81395 0.0678885" transform="translate(15.4186 8.530097)" id="Stroke-29" fill="none" stroke="#253368" stroke-width="1.6288" stroke-linecap="round" stroke-linejoin="round" />
    <path d="M0 0.0744612C0 0.0744612 0.714111 0.373393 1.81395 0.216025" transform="translate(17.23256 14.61885)" id="Stroke-31" fill="none" stroke="#FF7A45" stroke-width="0.8148266" stroke-linecap="round" stroke-linejoin="round" />
    <path d="M1.07755 12.1775L0.208993 9.54271C0.208993 9.54271 -0.315856 5.76228 0.297919 4.15812C1.24999 1.66902 3.35856 1.79194 4.61904 1.15456C5.87906 0.516835 5.87482 -0.1019 6.38156 0.0141126C6.88805 0.130126 8.83007 2.19488 9.02509 4.30555C9.19683 6.16107 8.81807 10.8672 8.81807 10.8672C8.81807 10.8672 8.51459 6.68278 8.25393 5.57307C7.26916 4.93879 3.66415 4.8138 2.15077 5.45533C2.15077 5.45533 2.00327 6.87303 1.91575 7.87192C1.09966 8.69678 1.07755 12.1775 1.07755 12.1775" transform="translate(12.69767 0)" id="Fill-33" fill="#253368" stroke="none" />
    <path d="M3.62791 0C3.62791 0 2.45023 1.70065 0 0.346005" transform="translate(16.32558 17.39645)" id="Stroke-35" fill="none" stroke="#DD936F" stroke-width="0.5" stroke-linecap="round" stroke-linejoin="round" />
    <path d="M0 0.181578L0.906977 0.154678" transform="translate(17.23256 10.26974)" id="Stroke-37" fill="none" stroke="#090D33" stroke-width="1.22181332" stroke-linecap="round" stroke-linejoin="round" />
    <path d="M0 0.282331C0 0.282331 0.563275 -0.222725 0.906977 0.269217" transform="translate(17.23256 11.13956)" id="Stroke-39" fill="none" stroke="#090D33" stroke-width="1.22181332" stroke-linecap="round" stroke-linejoin="round" />
    <path d="M0 0.869823C0 0.869823 1.08636 -0.873789 1.81395 0.576285" transform="translate(19.04651 7.828403)" id="Stroke-41" fill="none" stroke="#253368" stroke-width="1.6288" stroke-linecap="round" stroke-linejoin="round" />
    <path d="M0 0.173004L0.906977 0.163252" transform="translate(17.23256 15.48868)" id="Stroke-43" fill="none" stroke="#DD936F" stroke-width="0.5" stroke-linecap="round" stroke-linejoin="round" />
    <path d="M0.906977 0.163757L0 0.172499" transform="translate(13.60465 10.26974)" id="Stroke-45" fill="none" stroke="#090D33" stroke-width="1.22181332" stroke-linecap="round" stroke-linejoin="round" />
    <path d="M0.281228 0.0354783L2.44559 2.50511e-05C2.59671 -0.00253014 2.72027 0.190706 2.72087 0.432491C2.72187 0.883483 2.71049 1.60692 2.64102 2.22719C2.55937 2.95894 2.15174 3.4128 1.688 3.45496C1.10868 3.50734 0.588255 3.51661 0.322351 3.03974C-0.083092 2.31279 0.00713959 1.10387 0.0115314 0.464431C0.013328 0.229673 0.134701 0.0377141 0.281228 0.0354783" transform="translate(14.51163 9.568048)" id="Fill-47" fill="#FFEDE1" stroke="none" />
    <path d="M0.281228 0.0354783L2.44559 2.50511e-05C2.59671 -0.00253014 2.72027 0.190706 2.72087 0.432491C2.72187 0.883483 2.71049 1.60692 2.64102 2.22719C2.55937 2.95894 2.15174 3.4128 1.688 3.45496C1.10868 3.50734 0.588255 3.51661 0.322351 3.03974C-0.083092 2.31279 0.00713959 1.10387 0.0115314 0.464431C0.013328 0.229673 0.134701 0.0377141 0.281228 0.0354783Z" transform="translate(14.51163 9.568048)" id="Stroke-49" fill="none" stroke="#253368" stroke-width="0.5" stroke-linecap="round" stroke-linejoin="round" />
    <path d="M0.906945 0C0.909933 0.476091 0.709463 0.865586 0.458875 0.869782C0.208287 0.87436 0.00275877 0.491732 0 0.0156408" transform="translate(15.4186 11.30769)" id="Stroke-51" fill="none" stroke="#090D33" stroke-width="0.8148266" stroke-linecap="round" stroke-linejoin="round" />
    <path d="M0.207994 0.0391173L2.68389 0C2.77931 0.559846 2.70548 2.73164 2.28365 3.20355C1.71718 3.67514 0.566074 3.49301 0.384512 3.02486C0.10874 2.31418 -0.000802519 0.951958 4.42291e-06 0.365199C0.000407894 0.185885 0.092601 0.0409949 0.207994 0.0391173" transform="translate(18.13953 9.568048)" id="Fill-53" fill="#FFEDE1" stroke="none" />
    <path d="M0.207994 0.0391173L2.68389 0C2.77931 0.559846 2.70548 2.73164 2.28365 3.20355C1.71718 3.67514 0.566074 3.49301 0.384512 3.02486C0.10874 2.31418 -0.000802519 0.951958 4.42291e-06 0.365199C0.000407894 0.185885 0.092601 0.0409949 0.207994 0.0391173Z" transform="translate(18.13953 9.568048)" id="Stroke-55" fill="none" stroke="#96A7CA" stroke-width="0.5" stroke-linecap="round" stroke-linejoin="round" />
    <path d="M0.906944 0C0.909932 0.476473 0.709282 0.865586 0.458758 0.869782C0.208234 0.87436 0.00275807 0.491732 0 0.0156408" transform="translate(19.04651 10.43787)" id="Stroke-57" fill="none" stroke="#090D33" stroke-width="0.8148266" stroke-linecap="round" stroke-linejoin="round" />
    <path d="M0 0.132149L2.72093 0.204107" transform="translate(14.51163 9.39992)" id="Stroke-59" fill="none" stroke="#253368" stroke-width="1.22181332" stroke-linecap="round" stroke-linejoin="round" />
    <path d="M0 0.221929L2.72093 0.114327" transform="translate(18.13953 9.39992)" id="Stroke-61" fill="none" stroke="#253368" stroke-width="1.22181332" stroke-linecap="round" stroke-linejoin="round" />
    <path d="M1.34328 0.49868C1.06361 -0.0656545 0.578139 -0.211813 0.233166 0.379096C-0.322441 1.33097 0.112678 4.99453 1.56249 5.21894C2.0451 5.09751 1.75553 1.32986 1.34328 0.49868" transform="translate(11.7907 9.568048)" id="Fill-63" fill="#FFC999" stroke="none" />
    <path d="M0 15.714C0 15.714 0.897082 20.7792 3.86551 19.9044C5.89296 19.3068 7.98834 3.4293 8.15871 1.58379C8.28037 0.26468 5.64242 0 5.64242 0L0 15.714Z" transform="translate(26.30233 32.18343)" id="Fill-65" fill="#FFC999" stroke="none" />
    <path d="M0 9.64475C0 9.64475 0.123581 9.243 0.3705 7.35611C0.617661 5.46923 3.16236 0.854476 3.32697 0.64922C3.88733 -0.0499108 4.3297 0.947296 3.13055 3.47657C4.58341 2.88917 5.49 1.934 6.00229 0.607889C6.51458 -0.718218 7.52216 0.239059 7.19002 2.37848C6.85788 4.51756 6.78917 6.25313 5.81655 7.82897C4.42414 10.085 3.27186 10.8181 2.62215 11.2048C2.09432 11.519 0.402791 11.1449 0 9.64475" transform="translate(31.74419 23.48521)" id="Fill-67" fill="#FFC999" stroke="none" />
    <path d="M5.17274 78.6314L11.6691 16.05L12.0591 15.9232L14.7718 78.4782C14.7718 78.4782 18.1343 80.0407 19.9197 78.4134C20.0313 66.2166 19.8883 26.6349 19.161 8.53425C19.0439 5.62004 18.4752 1.65573 18.3626 0.553978C12.9604 -0.895578 5.57825 0.957787 5.57825 0.957787L0 77.6347C0 77.6347 2.66599 79.8445 5.17274 78.6314" transform="translate(5.441861 56.53846)" id="Fill-69" fill="#ADC6FF" stroke="none" />
    <path d="M0 1.73965L3.62791 0" transform="translate(17.23256 71.32545)" id="Stroke-71" fill="none" stroke="#597EF7" stroke-width="0.610906661" stroke-linecap="round" stroke-linejoin="round" />
    <path d="M0.0430955 0.755453C0.0430955 0.755453 7.40193 -1.0056 13.5082 0.849851C13.5557 1.76132 13.6047 2.88352 13.6047 2.88352C13.6047 2.88352 8.66568 0.796581 0 3.47929C0.031681 1.00692 0.0430955 0.755453 0.0430955 0.755453" transform="translate(11.7907 54.79882)" id="Fill-73" fill="#ADC6FF" stroke="none" />
    <path d="M0 0.869823C0 0.869823 7.05392 -1.00343 12.6977 0.748122" transform="translate(11.7907 57.40828)" id="Stroke-75" fill="none" stroke="#597EF7" stroke-width="0.610906661" stroke-linecap="round" stroke-linejoin="round" />
    <path d="M0 0.869823C0 0.869823 7.05414 -1.00343 12.6977 0.748122" transform="translate(11.7907 54.79882)" id="Stroke-77" fill="none" stroke="#1D39C4" stroke-width="0.8148266" stroke-linecap="round" stroke-linejoin="round" />
    <path d="M0.906977 0C0.906977 0 0.763343 10.4337 0 15.6568" transform="translate(18.13953 55.66864)" id="Stroke-79" fill="none" stroke="#597EF7" stroke-width="0.610906661" stroke-linecap="round" stroke-linejoin="round" />
    <path d="M0.906938 0.431271C0.910191 0.671577 0.709945 0.867922 0.459818 0.86981C0.20933 0.871698 0.00366272 0.678589 4.81731e-05 0.438553C-0.00356637 0.198246 0.196679 0.00190167 0.447529 1.37448e-05C0.697655 -0.00187418 0.903323 0.190964 0.906938 0.431271" transform="translate(19.04651 55.66864)" id="Fill-81" fill="#FFFFFF" stroke="none" />
    <path d="M0.906979 0L0.644376 1.28267C0.644376 1.28267 0.663677 4.74918 0 5.21894" transform="translate(33.55814 26.9645)" id="Stroke-83" fill="none" stroke="#DD936F" stroke-width="0.5" stroke-linecap="round" stroke-linejoin="round" />
    <path d="M0 2.60947C0.886123 2.11259 1.27287 0.573898 1.27287 0.573898C1.27287 0.573898 1.61314 -0.389606 1.81395 0.180239" transform="translate(36.27907 27.83432)" id="Stroke-85" fill="none" stroke="#DD936F" stroke-width="0.5" stroke-linecap="round" stroke-linejoin="round" />
    <path d="M0 2.60947C0 2.60947 0.771662 2.50551 1.879 0.533775C1.879 0.533775 2.57229 -0.593822 2.72093 0.428778" transform="translate(36.27907 26.09468)" id="Stroke-87" fill="none" stroke="#DD936F" stroke-width="0.5" stroke-linecap="round" stroke-linejoin="round" />
    <path d="M0 3.47929C0 3.47929 0.558746 3.15663 1.23689 1.99964C1.92617 0.823283 2.27996 -0.518084 2.72093 0.203148" transform="translate(36.27907 24.35503)" id="Stroke-89" fill="none" stroke="#DD936F" stroke-width="0.5" stroke-linecap="round" stroke-linejoin="round" />
    <path d="M2.72093 0L0 6.08876" transform="translate(27.2093 40.01183)" id="Stroke-91" fill="none" stroke="#E2A688" stroke-width="0.610906661" stroke-linecap="round" stroke-linejoin="round" />
    <path d="M4.53488 3.22879L2.70195 6.95858L0 1.93845L1.00268 0L4.53488 3.22879Z" transform="translate(12.69767 20.87574)" id="Fill-93" fill="#597EF7" stroke="none" />
    <path d="M0 0C0 0 1.48244 2.92524 4.53488 4.34911" transform="translate(3.627907 35.66272)" id="Stroke-95" fill="none" stroke="#ADC6FF" stroke-width="1.6288" stroke-linecap="round" stroke-linejoin="round" />
    <path d="M0 0C0 0 0.904163 3.62261 3.62791 5.21894" transform="translate(5.441861 31.31361)" id="Stroke-97" fill="none" stroke="#ADC6FF" stroke-width="1.6288" stroke-linecap="round" stroke-linejoin="round" />
    <path d="M9.06977 16.5266C8.07976 9.23713 6.40691 4.9046 6.40691 4.9046C5.03381 3.64606 3.11903 2.58479 1.59867 2.18369L0 0" transform="translate(18.13953 22.61539)" id="Stroke-99" fill="none" stroke="#ADC6FF" stroke-width="1.6288" stroke-linecap="round" stroke-linejoin="round" />
    <path d="M0 14.787C0 14.787 3.80583 4.9426 4.59584 3.467C5.38608 1.99174 9.97674 0 9.97674 0" transform="translate(3.627907 25.22485)" id="Stroke-101" fill="none" stroke="#ADC6FF" stroke-width="1.6288" stroke-linecap="round" stroke-linejoin="round" />
    <path d="M0 12.9605C0 12.9605 3.23203 3.83124 4.05522 2.90126C7.96968 -1.5218 17.1037 -0.211764 19.5121 2.36245L20.8605 13.0473" transform="translate(5.441861 28.70414)" id="Stroke-103" fill="none" stroke="#ADC6FF" stroke-width="1.6288" stroke-linecap="round" stroke-linejoin="round" />
    <path d="M14.5116 1.64153C6.77906 -2.10831 0 1.73965 0 1.73965" transform="translate(9.976745 34.7929)" id="Stroke-105" fill="none" stroke="#ADC6FF" stroke-width="1.6288" stroke-linecap="round" stroke-linejoin="round" />
    <path d="M0 1.73964C0 1.73964 7.34215 -2.07646 14.5116 1.59528" transform="translate(10.88372 40.88166)" id="Stroke-107" fill="none" stroke="#ADC6FF" stroke-width="1.6288" stroke-linecap="round" stroke-linejoin="round" />
    <path d="M0 0.869823C0 0.869823 6.70603 -1.08222 13.6047 0.862243" transform="translate(10.88372 45.23077)" id="Stroke-109" fill="none" stroke="#ADC6FF" stroke-width="1.6288" stroke-linecap="round" stroke-linejoin="round" />
    <path d="M0 0C0 0 1.79524 2.51222 2.91355 16.2813C3.52581 23.8244 3.69622 27.6374 3.60488 29.574" transform="translate(9.976745 25.22485)" id="Stroke-111" fill="none" stroke="#ADC6FF" stroke-width="1.6288" stroke-linecap="round" stroke-linejoin="round" />
    <path d="M2.72093 31.3136C2.72093 31.3136 2.44653 21.0935 1.84457 14.7349C1.06217 6.46549 0 2.70683 0 2.70683L1.35825 0" transform="translate(13.60465 22.61539)" id="Stroke-113" fill="none" stroke="#ADC6FF" stroke-width="1.6288" stroke-linecap="round" stroke-linejoin="round" />
    <path d="M0 0C0.934162 3.82895 1.29028 24.0319 0.372511 30.4438" transform="translate(20.86047 23.48521)" id="Stroke-115" fill="none" stroke="#ADC6FF" stroke-width="1.6288" stroke-linecap="round" stroke-linejoin="round" />
    <path d="M2.72093 0C2.72093 0 1.35458 1.05122 0 3.47929" transform="translate(24.48837 32.18343)" id="Stroke-117" fill="none" stroke="#ADC6FF" stroke-width="1.6288" stroke-linecap="round" stroke-linejoin="round" />
    <path d="M3.62791 0C3.62791 0 1.91102 1.74724 0 5.21893" transform="translate(24.48837 34.7929)" id="Stroke-119" fill="none" stroke="#ADC6FF" stroke-width="1.6288" stroke-linecap="round" stroke-linejoin="round" />
    <path d="M0 0.582838C0 0.582838 8.70378 -0.902861 12.6977 0.869823" transform="translate(11.7907 50.4497)" id="Stroke-121" fill="none" stroke="#ADC6FF" stroke-width="1.6288" stroke-linecap="round" stroke-linejoin="round" />
    <path d="M0 0C0 0 1.12171 3.56237 1.68285 16.5492C1.95908 22.9388 1.73404 27.6052 1.59694 29.574" transform="translate(17.23256 25.22485)" id="Stroke-123" fill="none" stroke="#1D39C4" stroke-width="0.8148266" stroke-linecap="round" stroke-linejoin="round" />
    <path d="M0 0L2.72093 4.34911" transform="translate(13.60465 21.74556)" id="Stroke-125" fill="none" stroke="#ADC6FF" stroke-width="1.6288" stroke-linecap="round" stroke-linejoin="round" />
    <path d="M1.81395 0L0 3.47929" transform="translate(18.13953 22.61539)" id="Stroke-127" fill="none" stroke="#ADC6FF" stroke-width="1.6288" stroke-linecap="round" stroke-linejoin="round" />
    <path d="M0.903664 0C0.903664 0 0.960478 3.08475 0.603541 4.90603C0.603541 4.90603 0.95986 13.6488 0.15459 25.9152C0.15459 25.9152 0.850144 27.3097 0 28.7041" transform="translate(23.5814 26.9645)" id="Stroke-129" fill="none" stroke="#1D39C4" stroke-width="0.8148266" stroke-linecap="round" stroke-linejoin="round" />
    <path d="M0 0C0 0 3.18145 0.0514694 4.53107 0.916358C4.55839 4.45631 4.43008 6.12991 4.43008 6.12991L2.60556 7.8284L0.2588 5.99468L0 0Z" transform="translate(19.04651 29.57397)" id="Stroke-131" fill="none" stroke="#1D39C4" stroke-width="0.8148266" stroke-linecap="round" stroke-linejoin="round" />
    <path d="M0 0C0 0 1.88506 3.10079 5.44186 4.34911" transform="translate(2.72093 39.14201)" id="Stroke-133" fill="none" stroke="#1D39C4" stroke-width="0.8148266" stroke-linecap="round" stroke-linejoin="round" />
    <path d="M3.51769 2.57192C3.51769 2.57192 1.49699 -0.0997782 0.821967 0.00288468C-0.223905 0.161289 0.499331 2.94694 0.499331 2.94694C0.499331 2.94694 -0.390609 3.76542 0.205677 5.17977C-0.163123 6.5599 0.393154 7.21574 0.393154 7.21574C0.393154 7.21574 -0.184922 8.26707 0.648595 9.10883C1.48211 9.95059 3.36612 9.68635 3.07631 7.88887C3.82725 6.88271 3.1989 5.89559 3.1989 5.89559C3.1989 5.89559 3.74261 4.93952 3.11504 4.00038C3.66311 3.56574 3.72645 2.85345 3.51769 2.57192" transform="translate(9.976745 49.57988)" id="Fill-135" fill="#FFC999" stroke="none" />
    <path d="M1.81395 1.73965L0 0" transform="translate(10.88372 51.31953)" id="Stroke-137" fill="none" stroke="#E2A688" stroke-width="0.610906661" stroke-linecap="round" stroke-linejoin="round" />
    <path d="M0.43019 0C0.43019 0 -0.333586 1.03596 0.174258 2.09945C-0.216117 3.44424 0.337733 4.0138 0.337733 4.0138L0.337063 5.21894" transform="translate(9.761649 52.18935)" id="Stroke-139" fill="none" stroke="#E2A688" stroke-width="0.610906661" stroke-linecap="round" stroke-linejoin="round" />
    <path d="M0 0L1.81395 0.869823" transform="translate(10.88372 53.92899)" id="Stroke-141" fill="none" stroke="#E2A688" stroke-width="0.610906661" stroke-linecap="round" stroke-linejoin="round" />
    <path d="M0 0L1.81395 0.869823" transform="translate(10.88372 56.53846)" id="Stroke-143" fill="none" stroke="#E2A688" stroke-width="0.610906661" stroke-linecap="round" stroke-linejoin="round" />
    <path d="M0.906935 0.431001C0.910309 0.671305 0.7099 0.867648 0.459557 0.869806C0.209215 0.871963 0.00340794 0.678857 3.40546e-05 0.438822C-0.00300244 0.198518 0.197406 0.00217554 0.448086 1.79306e-05C0.698429 -0.00213968 0.903898 0.190697 0.906935 0.431001" transform="translate(17.23256 26.9645)" id="Fill-145" fill="#FFFFFF" stroke="none" />
    <path d="M0.906935 0.431001C0.910309 0.671305 0.709898 0.867648 0.459554 0.869806C0.20921 0.871963 0.0034009 0.678857 2.69914e-05 0.438822C-0.00267214 0.198518 0.197401 0.00217554 0.448083 1.79306e-05C0.698427 -0.00213968 0.903898 0.190697 0.906935 0.431001" transform="translate(17.23256 32.18343)" id="Fill-147" fill="#FFFFFF" stroke="none" />
    <path d="M0.906943 0.431001C0.909979 0.671305 0.709569 0.867648 0.459224 0.869806C0.208879 0.871963 0.00307064 0.678857 3.41114e-05 0.438822C-0.00300241 0.198518 0.197071 0.00217554 0.447753 1.79306e-05C0.698097 -0.00213968 0.903569 0.190697 0.906943 0.431001" transform="translate(17.23256 38.27219)" id="Fill-149" fill="#FFFFFF" stroke="none" />
    <path d="M0.906943 0.431001C0.909979 0.671305 0.709569 0.867648 0.459224 0.869806C0.208879 0.871963 0.00307064 0.678857 3.41114e-05 0.438822C-0.00300241 0.198518 0.197071 0.00217554 0.447753 1.79306e-05C0.698097 -0.00213968 0.903569 0.190697 0.906943 0.431001" transform="translate(18.13953 43.49112)" id="Fill-151" fill="#FFFFFF" stroke="none" />
    <path d="M0.906935 0.431001C0.910309 0.671305 0.709562 0.867648 0.45922 0.869806C0.209215 0.871963 0.003408 0.678857 3.41111e-05 0.438822C-0.00300239 0.198518 0.197069 0.00217554 0.447749 1.79306e-05C0.698091 -0.00213968 0.903561 0.190697 0.906935 0.431001" transform="translate(18.13953 51.31953)" id="Fill-153" fill="#FFFFFF" stroke="none" />
    <path d="M0 0L2.61913 5.21894L4.53488 1.53378" transform="translate(12.69767 22.61539)" id="Stroke-155" fill="none" stroke="#1D39C4" stroke-width="0.8148266" stroke-linecap="round" stroke-linejoin="round" />
    <path d="M0 1.34185L2.43762 5.21894L3.62791 0" transform="translate(17.23256 23.48521)" id="Stroke-157" fill="none" stroke="#1D39C4" stroke-width="0.8148266" stroke-linecap="round" stroke-linejoin="round" />
    <path d="M1.76407 0C1.76407 0 2.27902 8.65999 0 8.69823" transform="translate(19.04651 58.27811)" id="Stroke-159" fill="none" stroke="#597EF7" stroke-width="0.610906661" stroke-linecap="round" stroke-linejoin="round" />
    <path d="M0 0C0 0 2.17567 2.6657 1.76153 11.3077" transform="translate(8.16279 26.9645)" id="Stroke-161" fill="none" stroke="#1D39C4" stroke-width="0.8148266" stroke-linecap="round" stroke-linejoin="round" />
    <path d="M0 0C0 0 2.44606 4.33869 5.44186 4.34911" transform="translate(1.813954 40.88166)" id="Stroke-163" fill="none" stroke="#1D39C4" stroke-width="0.8148266" stroke-linecap="round" stroke-linejoin="round" />
    <path d="M0 0C0 0 1.00787 0.396987 0.794467 1.25428C0.701192 1.6297 0.309584 1.49331 0.26458 1.86768C0.196711 2.43898 0.906977 2.60947 0.906977 2.60947" transform="translate(12.69767 10.43787)" id="Stroke-165" fill="none" stroke="#DD936F" stroke-width="0.5" stroke-linecap="round" stroke-linejoin="round" />
  </g>
</svg>
