<?xml version="1.0" encoding="utf-8"?>
<svg width="32px" height="143px" viewBox="0 0 32 143" version="1.1" xmlns:xlink="http://www.w3.org/1999/xlink" xmlns="http://www.w3.org/2000/svg">
  <desc>Created with Lunacy</desc>
  <defs>
    <path d="M0 0L11.5238 0L11.5238 5.5789L0 5.5789L0 0Z" transform="translate(0.001306966 0.2158931)" id="path_1" />
    <path d="M0 0L16.3118 0L16.3118 15.6439L0 15.6439L0 0Z" transform="translate(0 0.01187202)" id="path_2" />
    <clipPath id="mask_1">
      <use xlink:href="#path_1" />
    </clipPath>
    <clipPath id="mask_2">
      <use xlink:href="#path_2" />
    </clipPath>
  </defs>
  <g id="1.人物组件/1.商人/站立/思考" transform="translate(0.8505859 0.8505249)">
    <g id="分组">
      <path d="M5.07895 8.11623C5.07895 8.11623 2.60062 13.3305 0.391077 14.5278C-0.846648 15.1989 1.02155 18.1912 3.63887 17.5245C6.61013 16.7675 5.92223 15.5423 8.43909 15.8987C9.91013 16.1069 11.4446 15.1931 11.4446 15.1931L10.9563 9.81846C10.9563 9.81846 8.37211 -11.0903 5.07895 8.11623" transform="translate(0.5383602 120.669)" id="Fill-1" fill="#CCD7EE" stroke="none" />
      <path d="M0.811453 1.19156C0.811453 1.19156 0.820995 1.95793 2.34911 3.06546C4.1291 4.3559 6.7574 2.21435 8.29902 1.25603C10.6735 -0.219479 10.9025 0.708055 11.3367 0C11.7652 1.25711 11.3652 2.55008 11.3652 2.55008C11.3652 2.55008 10.8623 3.13536 9.0422 3.22772C7.22242 3.31971 7.26113 4.30411 4.99506 5.00021C1.80271 5.98062 0.174857 4.27839 0.0331713 2.96333C-0.145061 1.30891 0.435365 0.592883 0.811453 1.19156" transform="translate(0.4649436 134.1096)" id="Fill-3" fill="#B0BEDC" stroke="none" />
      <path d="M6.42591 7.8677C6.42591 7.8677 8.8587 13.1682 11.0574 14.443C12.289 15.1572 10.3953 18.0836 7.78408 17.3252C4.81984 16.464 5.51837 15.263 2.99881 15.531C1.52596 15.6878 0 14.7197 0 14.7197L0.534698 9.36313C0.534698 9.36313 3.07838 -10.6685 6.42591 7.8677" transform="translate(17.28884 121.7011)" id="Fill-5" fill="#CCD7EE" stroke="none" />
      <g id="分组" transform="translate(17.27458 134.4593)">
        <path d="M0 0L11.5238 0L11.5238 5.5789L0 5.5789L0 0Z" transform="translate(0.001306966 0.2158931)" id="Clip-8" fill="none" stroke="none" />
        <g clip-path="url(#mask_1)">
          <path d="M10.7226 1.56098C10.7226 1.56098 10.7063 2.32662 9.16887 3.38055C7.37808 4.60869 4.76868 2.37515 3.23552 1.36287C0.874214 -0.196299 0.637291 0.723265 0.209353 0C-0.230107 1.2419 0.158764 2.54863 0.158764 2.54863C0.158764 2.54863 0.656374 3.15166 2.47525 3.30775C4.29412 3.46349 4.24677 4.4468 6.50654 5.22222C9.68988 6.31454 11.3321 4.66954 11.4853 3.35991C11.678 1.71201 11.1039 0.975702 10.7226 1.56098" transform="translate(0.001306966 0.2158931)" id="Fill-7" fill="#B0BEDC" stroke="none" />
        </g>
      </g>
      <path d="M0.612636 55.0439C0.612636 55.0439 -1.05339 2.62149 1.10935 0.51363C3.27226 -1.59496 9.49059 2.99091 9.87983 10.5651C10.2691 18.1397 8.23145 56.4763 8.23145 56.4763C8.23145 56.4763 8.836 61.0713 7.86814 62.4385C6.53176 63.5786 5.18511 58.8689 1.31332 59.9855C-0.485204 58.2394 0.612636 55.0439 0.612636 55.0439" transform="translate(3.984088 68.61723)" id="Fill-9" fill="#4E5C93" stroke="none" />
      <path d="M0 11.0751L3.22565 54.6283C3.22565 54.6283 2.2153 60.8903 4.3811 61.8428C5.05478 62.1391 6.27432 60.4473 7.70613 60.012C9.13811 59.5767 10.7822 60.3977 11.1167 59.2065C11.7855 56.8238 10.9554 53.2788 10.9554 53.2788C10.9554 53.2788 11.267 16.3426 10.2846 2.22067C9.88524 -3.52055 0.389411 2.7422 0 11.0751" transform="translate(13.38379 69.95942)" id="Fill-11" fill="#4E5C93" stroke="none" />
      <path d="M0.703795 0C0.703795 0 -0.195289 11.3988 0.0389341 15.9024C0.273157 20.4064 6.36961 25.2509 9.81472 25.4679C11.6638 25.5845 18.3783 21.43 19.0247 15.9828C19.8418 9.09677 19.2931 6.96863 18.816 3.99806C18.4721 1.85579 18.1544 0.895299 18.1544 0.895299C18.1544 0.895299 2.22381 0.0959766 0.703795 0" transform="translate(4.236468 62.68419)" id="Fill-13" fill="#4E5C93" stroke="none" />
      <path d="M0 0C0 0 1.6464 5.00093 5.84657 5.51268L8.60413 42.1649" transform="translate(8.005304 82.42278)" id="Stroke-15" fill="none" stroke="#3B4A7A" stroke-width="0.8505" stroke-linecap="round" stroke-linejoin="round" />
      <path d="M0.0474893 0C0.0474893 0 -0.336881 7.82445 1.08142 14.4436" transform="translate(11.69692 70.7718)" id="Stroke-17" fill="none" stroke="#3B4A7A" stroke-width="0.8505" stroke-linecap="round" stroke-linejoin="round" />
      <path d="M0 3.47146L3.19828 0" transform="translate(15.26886 83.43822)" id="Stroke-19" fill="none" stroke="#3B4A7A" stroke-width="0.8505" stroke-linecap="round" stroke-linejoin="round" />
      <path d="M0 0C0 0 6.65743 8.97798 17.636 0.81562" transform="translate(5.076872 65.21181)" id="Stroke-21" fill="none" stroke="#3B4A7A" stroke-width="0.8505" stroke-linecap="round" stroke-linejoin="round" />
      <path d="M0.0946972 5.91795L0.0853355 0" transform="translate(11.61394 63.31423)" id="Stroke-23" fill="none" stroke="#3B4A7A" stroke-width="0.8505" stroke-linecap="round" stroke-linejoin="round" />
      <path d="M0 0L17.2805 0.94347" transform="translate(5.014725 62.68897)" id="Stroke-25" fill="none" stroke="#3B4A7A" stroke-width="0.8505" stroke-linecap="round" stroke-linejoin="round" />
      <path d="M2.69204 31.6323L2.69204 31.6323C4.73883 32.9557 6.93019 30.6769 7.57687 26.5524L10.1488 10.1498C10.7906 6.05687 9.66849 1.68976 7.63754 0.376506L7.63754 0.376506C5.59075 -0.947248 3.39939 1.33156 2.75271 5.45639L0.180582 21.859C-0.461055 25.9516 0.66109 30.319 2.69204 31.6323" transform="translate(0.08660451 24.06712)" id="Fill-27" fill="#CCD7EE" stroke="none" />
      <path d="M2.22539 5.98892C2.22539 5.98892 2.73038 9.38758 1.75191 10.3463C0.891889 11.1887 0.070399 10.8526 0.00558716 8.5017C-0.0592247 6.15118 0.445948 -0.244489 1.20281 0.00722286C1.95948 0.258935 2.22539 5.98892 2.22539 5.98892" transform="translate(16.73 7.814801)" id="Fill-29" fill="#51342D" stroke="none" />
      <path d="M4.12565 19.5363C4.12565 19.5363 2.19641 19.8572 1.01198 18.2339C-0.409742 16.2854 0.0623046 10.1266 0.124956 8.11288C0.234956 4.58057 1.03322 2.7505 1.03322 2.7505C1.03322 2.7505 1.84859 -0.184576 4.92445 0.00918829C8.00031 0.202952 8.02084 5.95576 7.97961 8.60761C7.9382 11.2595 7.52575 16.2742 6.68499 17.5961C5.67051 19.1911 4.12565 19.5363 4.12565 19.5363" transform="translate(10.48919 0.8155951)" id="Fill-31" fill="#B69882" stroke="none" />
      <path d="M0.877504 6.72886C0.877504 6.72886 -0.399469 3.9937 0.127488 1.92568C0.654624 -0.142708 1.6466 -0.301704 2.7367 0.320153C3.82662 0.942009 8.15677 -1.24771 8.57085 3.45297C10.3748 7.65893 8.96116 11.1478 8.96116 11.1478C8.96116 11.1478 8.21528 9.39085 7.91823 10.8102C7.62135 12.2292 7.39109 13.1919 7.17829 12.7359C6.9655 12.2803 7.1909 10.5864 6.81859 9.78852C6.4461 8.99101 6.00646 6.57457 6.34798 4.97194C6.47329 3.98429 2.35539 3.61451 1.46459 4.33234C0.9623 4.73725 0.877504 6.72886 0.877504 6.72886" transform="translate(9.935808 4.729801E-05)" id="Fill-33" fill="#51342D" stroke="none" />
      <path d="M0 0.470342C0 0.470342 0.213699 -0.27574 1.0874 0.111426" transform="translate(11.06385 7.822909)" id="Stroke-35" fill="none" stroke="#51342D" stroke-width="1.701" stroke-linecap="round" stroke-linejoin="round" />
      <path d="M0 0.0715382C0 0.0715382 0.664321 -0.218203 1.20496 0.368523" transform="translate(13.98014 8.07351)" id="Stroke-37" fill="none" stroke="#51342D" stroke-width="1.701" stroke-linecap="round" stroke-linejoin="round" />
      <path d="M0.578418 0C0.578418 0 -0.895512 3.37584 0.862329 3.48667" transform="translate(12.15433 9.671222)" id="Stroke-39" fill="none" stroke="#7C5B4D" stroke-width="0.637875" stroke-linecap="round" stroke-linejoin="round" />
      <path d="M0.604397 0.737647C0.598276 1.13423 0.458031 1.44715 0.29114 1.43665C0.12425 1.42614 -0.00591378 1.0962 0.000207335 0.699619C0.00632845 0.302674 0.146754 -0.0102463 0.313464 0.000256849C0.480355 0.01076 0.610519 0.340702 0.604397 0.737647" transform="translate(14.12576 10.44117)" id="Fill-41" fill="#51342D" stroke="none" />
      <path d="M0.60441 0.73763C0.598109 1.13421 0.458043 1.44713 0.291152 1.43699C0.124262 1.42613 -0.00608199 1.09618 0.000219168 0.699601C0.00634029 0.303019 0.146586 -0.00990125 0.313477 0.000239677C0.480367 0.0107428 0.610531 0.341047 0.60441 0.73763" transform="translate(11.26958 10.26115)" id="Fill-43" fill="#51342D" stroke="none" />
      <path d="M0.032948 0.177104L0.000182045 6.58798C-0.0183613 10.2431 1.38193 13.2948 3.19451 13.549C5.18945 13.8286 6.8805 10.6335 6.86664 6.6108L6.84377 0L0.032948 0.177104Z" transform="translate(11.33645 13.82926)" id="Fill-45" fill="#B69882" stroke="none" />
      <path d="M0.0364653 1.63109C0.0364653 1.63109 0.128282 0.0726436 1.21118 0.0049167C2.14663 -0.0537558 2.73462 0.405845 3.04373 1.75242C3.35249 3.09935 1.35485 1.6463 1.35485 1.6463C1.35485 1.6463 -0.260589 3.05009 0.0364653 1.63109" transform="translate(11.33452 12.98753)" id="Fill-47" fill="#51342D" stroke="none" />
      <path d="M1.92365 3.0737C1.78664 4.56406 1.2523 5.61509 0.730028 5.42097C0.207753 5.22684 -0.104784 3.86108 0.0322207 2.37072C0.169046 0.880004 0.703564 -0.171031 1.22584 0.0230956C1.74811 0.217222 2.06047 1.58299 1.92365 3.0737" transform="translate(17.41705 9.672646)" id="Fill-49" fill="#B69882" stroke="none" />
      <path d="M0 1.92388C0 1.92388 2.36149 5.77707 5.66347 0" transform="translate(11.60297 17.23201)" id="Stroke-51" fill="none" stroke="#7C5B4D" stroke-width="0.637875" stroke-linecap="round" stroke-linejoin="round" />
      <path d="M0.00637121 0C0.00637121 0 -0.0843653 1.49072 0.419006 1.72649" transform="translate(12.9857 18.3256)" id="Stroke-53" fill="none" stroke="#7C5B4D" stroke-width="0.637875" stroke-linecap="round" stroke-linejoin="round" />
      <path d="M0.597349 7.73759e-05C0.597349 7.73759e-05 0.0232242 -0.0361402 0 1.45856C0.569804 1.76677 0.428478 2.31402 0.183634 2.76855" transform="translate(17.99666 11.06078)" id="Stroke-55" fill="none" stroke="#7C5B4D" stroke-width="0.637875" stroke-linecap="round" stroke-linejoin="round" />
      <path d="M1.23638 26.0185C1.23638 26.0185 -2.71822 41.9575 3.51775 45.4869C6.51602 47.1837 8.97221 47.7122 11.1906 47.455C16.0401 46.8922 18.4844 45.1776 19.0904 43.8481C20.7183 40.2781 19.8449 34.6394 20.2144 26.0917C20.5508 18.298 22.3802 9.13462 20.2529 4.83269C18.6508 2.8878 17.1439 1.31632 14.9896 0.0983256C13.3447 -0.831742 12.2166 5.14416 10.6013 5.08114C9.26044 5.02899 8.12011 -0.374314 6.90939 0.276878C4.5515 1.54449 3.58869 2.36519 1.63173 4.28218C1.63173 4.28218 0.857949 10.2675 1.74065 18.9423C1.74065 18.9423 1.10621 22.5684 1.23638 26.0185" transform="translate(3.651046 20.42434)" id="Fill-57" fill="#CCD7EE" stroke="none" />
      <path d="M0 1.52223C0 1.52223 0.298855 14.4639 1.47177 20.5571C5.18765 7.7321 7.59072 0.0217306 7.69172 0L3.11727 3.89484L0 1.52223Z" transform="translate(11.02402 20.99882)" id="Fill-59" fill="#FFFFFF" stroke="none" />
      <path d="M0 2.24513L1.60715 0L3.28686 2.86047L2.31036 5.46958L0.270589 5.36383L0 2.24513Z" transform="translate(12.20821 24.25402)" id="Fill-61" fill="#253368" stroke="none" />
      <path d="M0 3.87927L1.15545 0L3.18208 0.127848L3.63792 3.29218L1.01719 12.3774L0 3.87927Z" transform="translate(11.35982 29.5792)" id="Fill-63" fill="#253368" stroke="none" />
      <path d="M0.305876 7.26851L3.06092 4.04116L0.452783 0L0 0.855822L0.305876 7.26851Z" transform="translate(10.91953 20.33202)" id="Fill-65" fill="#FFFFFF" stroke="none" />
      <path d="M0 4.62607L2.30946 8.30832L4.78581 1.25458L4.29828 0L0 4.62607Z" transform="translate(13.98041 19.74721)" id="Fill-67" fill="#FFFFFF" stroke="none" />
      <path d="M0.302275 8.00481L3.06092 4.41094L0.526236 0L0 1.22524L0.302275 8.00481Z" transform="translate(10.81976 19.85427)" id="Fill-69" fill="#FFFFFF" stroke="none" />
      <path d="M0.302275 8.00481L3.06092 4.41094L0.526236 0L0 1.22524L0.302275 8.00481Z" transform="translate(10.81976 19.85427)" id="Stroke-71" fill="none" stroke="#CCD7EE" stroke-width="0.8505" stroke-linecap="round" stroke-linejoin="round" />
      <path d="M0 5.07228L2.45349 9.40281L5.13922 1.55772L4.23761 0L0 5.07228Z" transform="translate(13.88071 19.19279)" id="Fill-73" fill="#FFFFFF" stroke="none" />
      <path d="M0 5.07228L2.45349 9.40281L5.13922 1.55772L4.23761 0L0 5.07228Z" transform="translate(13.88071 19.19279)" id="Stroke-75" fill="none" stroke="#CCD7EE" stroke-width="0.8505" />
      <path d="M1.36707 0L1.31396 7.75057C1.31396 7.75057 -1.33846 19.2142 0.893766 25.6801" transform="translate(10.94671 41.68048)" id="Stroke-77" fill="none" stroke="#96A7CA" stroke-width="0.8505" stroke-linecap="round" stroke-linejoin="round" />
      <path d="M1.89686 0C1.77966 1.01301 2.11146 4.29867 2.11146 4.29867L1.45812 17.1096C1.45812 17.1096 -2.57839 29.8774 2.78064 35.1532C2.78064 35.1532 11.1387 41.5959 18.9604 34.335C18.9604 34.335 20.9033 30.0704 19.6701 24.5852" transform="translate(3.573741 30.23072)" id="Stroke-79" fill="none" stroke="#96A7CA" stroke-width="0.8505" stroke-linecap="round" stroke-linejoin="round" />
      <path d="M0 0.0438233C0 0.0438233 0.290753 14.1828 1.59941 21.3387C1.59941 21.3387 6.18449 5.27437 8.29519 0" transform="translate(10.77551 20.7537)" id="Stroke-81" fill="none" stroke="#96A7CA" stroke-width="0.8505" stroke-linecap="round" stroke-linejoin="round" />
      <path d="M0 0.494714C0 0.494714 2.33917 -0.861273 6.2673 0.916649" transform="translate(9.455595 49.57576)" id="Stroke-83" fill="none" stroke="#96A7CA" stroke-width="0.8505" stroke-linecap="round" stroke-linejoin="round" />
      <path d="M0 0C0 0 3.03571 0.463225 3.71336 0.369783" transform="translate(10.71177 47.56494)" id="Stroke-85" fill="none" stroke="#96A7CA" stroke-width="0.8505" stroke-linecap="round" stroke-linejoin="round" />
      <path d="M5.22379 32.689L5.22379 32.689C7.36528 32.2425 8.91591 28.3726 8.67808 24.0681L7.73201 6.93975C7.49671 2.68056 5.59736 -0.399383 3.47837 0.0421092L3.47819 0.0421092C1.33688 0.488672 -0.21374 4.35852 0.0240833 8.66298L0.970156 25.7914C1.20546 30.0506 3.10481 33.1309 5.22379 32.689" transform="translate(18.20314 24.43081)" id="Fill-87" fill="#CCD7EE" stroke="none" />
      <path d="M1.97301 10.7859C1.97301 10.7859 4.12585 15.5818 5.58069 14.7285C6.89817 13.9557 6.51092 10.4494 6.51092 10.4494C6.51092 10.4494 6.83372 7.54841 5.67503 5.49958C4.35881 3.17224 4.45459 -0.268074 3.93465 0.0165968C3.25683 0.387827 3.86912 4.22943 3.79207 4.8368C3.53714 6.84579 0.773096 0.782599 0.661115 0.711613C0.393406 0.541752 0.315272 1.21685 0.245959 1.31464C0.0976122 1.52434 -0.00212598 1.84812 3.44163e-05 2.45549C0.00129465 2.7934 0.166925 3.13493 0.160444 3.55361C0.159904 3.58765 0.019658 5.10662 0.457498 6.19097C0.96339 7.44374 0.226336 7.46873 1.97301 10.7859" transform="translate(10.83015 17.19361)" id="Fill-89" fill="#B69882" stroke="none" />
      <path d="M2.06372 4.47976C2.06372 4.47976 0.70951 2.68626 0 0" transform="translate(11.15269 18.75558)" id="Stroke-91" fill="none" stroke="#7C5B4D" stroke-width="0.637875" stroke-linecap="round" stroke-linejoin="round" />
      <path d="M1.87913 5.81691C1.87913 5.81691 1.21895 4.87851 0.331207 2.45736C0.331207 2.45736 -0.248498 0.387528 0.12597 0" transform="translate(10.93159 20.7855)" id="Stroke-93" fill="none" stroke="#7C5B4D" stroke-width="0.637875" stroke-linecap="round" stroke-linejoin="round" />
      <path d="M2.04316 7.82361C0.582558 5.43976 0.220692 3.76941 0.220692 3.76941C0.220692 3.76941 -0.319587 1.55905 0.290544 1.46126C0.446813 0.111067 0.883753 1.20737 0.883753 1.20737C0.883753 1.20737 2.5811 4.84036 3.37145 5.08954C4.19276 5.34813 3.63483 4.18772 3.61089 2.00561C3.58281 -0.572359 4.24677 -0.737874 4.54328 1.93317C4.81999 4.42748 5.60601 5.33328 6.06204 6.45023C6.51788 7.56718 6.58323 9.88366 6.58323 9.88366" transform="translate(10.83577 17.08393)" id="Stroke-95" fill="none" stroke="#7C5B4D" stroke-width="0.637875" stroke-linecap="round" stroke-linejoin="round" />
      <path d="M3.48818 0.646771L0.693531 4.73212C-0.0350617 5.79728 -0.217435 7.82727 0.279636 9.33827L6.21226 27.3688C7.47123 30.8541 9.89627 31.6266 11.6287 29.0935C13.3614 26.5608 13.7452 21.6823 12.486 18.1971L5.7935 1.27732C5.23288 -0.140238 4.21659 -0.418389 3.48818 0.646771" transform="translate(13.38542 27.00573)" id="Fill-97" fill="#CCD7EE" stroke="none" />
      <path d="M12.4395 18.3363L5.82028 1.30028C5.26559 -0.127057 4.25075 -0.422593 3.51766 0.629528L0.705363 4.66598C-0.0277311 5.7181 -0.218926 7.7452 0.271664 9.26453L6.12615 27.3983C6.12615 27.3983 7.86779 31.5499 9.9902 30.0828" transform="translate(13.44043 27.02145)" id="Stroke-99" fill="none" stroke="#96A7CA" stroke-width="0.8505" stroke-linecap="round" stroke-linejoin="round" />
      <path d="M3.90163 10.4042C3.90163 10.4042 0.52457 9.3459 0.0658464 6.24966C-0.349669 3.44569 1.33724 0.460636 1.33724 0.460636C1.33724 0.460636 2.74437 0.190453 4.38663 0.0405122C5.46287 -0.0576375 7.51056 -0.0612593 7.68358 1.0336C7.90916 2.46093 5.76515 2.59711 5.57539 3.61773C5.19066 5.68575 8.5751 6.18555 9.10223 6.8592C10.1326 8.17571 7.94768 11.7355 3.90163 10.4042" transform="translate(14.69213 47.36855)" id="Fill-101" fill="#B69882" stroke="none" />
      <path d="M0 0C0 0 1.57943 1.37735 3.18478 1.08291" transform="translate(20.46819 54.27494)" id="Stroke-103" fill="none" stroke="#7C5B4D" stroke-width="0.637875" stroke-linecap="round" stroke-linejoin="round" />
      <path d="M3.21953 0.864153C3.21953 0.864153 1.90349 1.22416 0 0" transform="translate(19.9182 55.85051)" id="Stroke-105" fill="none" stroke="#7C5B4D" stroke-width="0.637875" stroke-linecap="round" stroke-linejoin="round" />
      <path d="M0 0C0 0 0.798446 0.633809 2.38868 0.812" transform="translate(19.20268 56.95837)" id="Stroke-107" fill="none" stroke="#7C5B4D" stroke-width="0.637875" stroke-linecap="round" stroke-linejoin="round" />
      <g id="分组" transform="translate(0 41.38006)">
        <path d="M0 0L16.3118 0L16.3118 15.6439L0 15.6439L0 0Z" transform="translate(0 0.01187202)" id="Clip-110" fill="none" stroke="none" />
        <g clip-path="url(#mask_2)">
          <path d="M16.1131 13.2597L16.3105 4.62394C16.3411 3.28752 15.8431 2.13978 15.1808 2.02026L4.05598 0.00837362C1.91665 -0.189374 0.10246 3.13939 0.00416241 7.44312C-0.0941355 11.7469 1.56055 15.3961 3.69988 15.5939L14.8695 15.6439C15.5345 15.6468 16.0827 14.5957 16.1131 13.2597" transform="translate(-3.96613E-05 0.01187202)" id="Fill-109" fill="#CCD7EE" stroke="none" />
        </g>
      </g>
      <path d="M0.150147 15.3472L11.3185 15.7108C11.9833 15.7326 12.5387 14.6971 12.5785 13.3618L12.8358 4.73255C12.8756 3.39721 12.3855 2.23571 11.7243 2.09736L0 0" transform="translate(3.527329 41.53192)" id="Stroke-111" fill="none" stroke="#96A7CA" stroke-width="0.8505" stroke-linecap="round" stroke-linejoin="round" />
    </g>
  </g>
</svg>
