<?xml version="1.0" encoding="utf-8"?>
<svg width="85px" height="131px" viewBox="0 0 85 131" version="1.1" xmlns:xlink="http://www.w3.org/1999/xlink" xmlns="http://www.w3.org/2000/svg">
  <desc>Created with Lunacy</desc>
  <g id="2.通用组件/彩色版/关联" transform="translate(-2 0)" opacity="0.199102491">
    <g id="编组" transform="matrix(0.9848077 -0.1736482 0.1736482 0.9848077 0.672101 11.74943)">
      <path d="M17.0462 16.2288C17.0462 7.26588 13.2303 0 8.52312 0C3.81592 0 0 7.26588 0 16.2288C0 24.6951 3.40476 31.6472 7.74935 32.3917L7.7114 32.4576C7.7114 32.4576 7.84985 32.4385 8.10533 32.4385C8.24375 32.4512 8.38304 32.4576 8.52312 32.4576C8.53873 32.4576 8.55434 32.4576 8.56993 32.4574C12.0507 32.7285 25.1299 36.4502 29.4251 76.5073L29.4584 76.4388C30.5427 83.0284 33.7746 87.8095 37.5931 87.8095C42.3002 87.8095 46.1162 80.5436 46.1162 71.5807C46.1162 62.7357 42.4 55.5434 37.7784 55.3556C32.6571 53.5807 17.635 45.8579 17.0462 16.2288Z" transform="translate(0 32.43822)" id="形状结合" fill="#597EF7" fill-rule="evenodd" stroke="none" />
      <path d="M24.0851 3.10718C22.5851 -0.46569 19.8508 -1.04216 17.978 1.81989C17.0793 3.19332 16.5423 5.10897 16.3926 7.12499C15.6314 11.9845 12.7342 26.0542 4.82212 24.9619C2.43716 24.4592 0.290192 27.7405 0.026647 32.2906C-0.236797 36.8409 1.48288 40.9373 3.86796 41.4399C6.12077 41.9148 8.16122 39.0136 8.60256 34.8556L8.61794 34.8959C8.61794 34.8959 8.62057 34.7619 8.63475 34.5166C8.64598 34.3826 8.65556 34.2475 8.66345 34.1113C8.66438 34.0952 8.66528 34.0792 8.66616 34.0632C8.92581 30.8104 10.5561 19.02 20.5973 16.5766L20.5973 16.5766C21.5826 16.6195 22.5809 16.0264 23.4104 14.7589C25.2831 11.8969 25.5853 6.68025 24.0851 3.10718Z" transform="translate(40.09413 0.1508755)" id="形状结合" fill="#597EF7" fill-rule="evenodd" stroke="none" />
      <path d="M4.83663 0.050925C7.22876 0.554246 8.95371 4.65454 8.68937 9.20939C8.42513 13.7641 6.27162 17.0487 3.87959 16.5454C1.48735 16.0423 -0.237591 11.9418 0.026745 7.38691C0.290979 2.83206 2.44449 -0.452396 4.83663 0.050925" transform="translate(56.49627 0)" id="Fill-9" fill="#597EF7" stroke="none" />
    </g>
  </g>
</svg>
