<?xml version="1.0" encoding="utf-8"?>
<svg width="57px" height="68px" viewBox="0 0 57 68" version="1.1" xmlns:xlink="http://www.w3.org/1999/xlink" xmlns="http://www.w3.org/2000/svg">
  <desc>Created with Lunacy</desc>
  <g id="编组" transform="matrix(0.8829476 0.4694716 -0.4694716 0.8829476 28.16846 0)">
    <path d="M0.126915 8.81951L0 8.1141L12.5872 0L12.6482 0.0355828L25.6434 7.60886L25.5276 8.32107L12.5933 0.783288L0.126915 8.81951Z" transform="translate(2.908803 5.602559)" id="Fill-1" fill="#597EF7" stroke="none" />
    <path d="M0 31.9671L13.4341 39.7601L13.4341 7.68753L0 0L0 31.9671ZM13.0404 38.7539L0.393673 31.4176L0.393673 1.00217L13.0404 8.23922L13.0404 38.7539Z" transform="translate(2.87053 13.77145)" id="Fill-2" fill="#597EF7" fill-rule="evenodd" stroke="none" />
    <path d="M0.0504761 8.02419L0 40.4107L12.6528 32.0596L12.7069 0L0.0504761 8.02419ZM0.395585 39.3619L0.443599 8.55945L12.3112 1.03539L12.2597 31.5312L0.395585 39.3619Z" transform="translate(15.8836 13.19312)" id="Fill-3" fill="#597EF7" fill-rule="evenodd" stroke="none" />
    <g id="编组" transform="translate(0 0.03614554)">
      <path d="M4.82128 4.55372C4.82128 7.06868 3.74201 9.10745 2.41064 9.10745C1.07928 9.10745 0 7.06868 0 4.55372C0 2.03877 1.07928 0 2.41064 0C3.74201 0 4.82128 2.03877 4.82128 4.55372" transform="translate(0.442771 8.921579)" id="Fill-4" fill="#597EF7" stroke="none" />
      <path d="M5.70683 5.39012C5.70683 8.36705 4.42933 10.7802 2.85341 10.7802C1.27749 10.7802 0 8.36705 0 5.39012C0 2.41319 1.27749 0 2.85341 0C4.42933 0 5.70683 2.41319 5.70683 5.39012" transform="translate(0 40.42591)" id="Fill-6" fill="#597EF7" stroke="none" />
      <path d="M5.70683 5.39012C5.70683 8.36705 4.42933 10.7802 2.85341 10.7802C1.27749 10.7802 0 8.36705 0 5.39012C0 2.41319 1.27749 0 2.85341 0C4.42933 0 5.70683 2.41319 5.70683 5.39012" transform="translate(13.18474 47.58176)" id="Fill-8" fill="#597EF7" stroke="none" />
      <path d="M5.70683 5.39012C5.70683 8.36705 4.42933 10.7802 2.85341 10.7802C1.27749 10.7802 0 8.36705 0 5.39012C0 2.41319 1.27749 0 2.85341 0C4.42933 0 5.70683 2.41319 5.70683 5.39012" transform="translate(12.49598 0)" id="Fill-10" fill="#597EF7" stroke="none" />
      <path d="M5.70683 5.39012C5.70683 8.36705 4.42933 10.7802 2.85341 10.7802C1.27749 10.7802 0 8.36705 0 5.39012C0 2.41319 1.27749 0 2.85341 0C4.42933 0 5.70683 2.41319 5.70683 5.39012" transform="translate(25.43473 38.93898)" id="Fill-12" fill="#597EF7" stroke="none" />
      <path d="M4.5261 4.27492C4.5261 6.63589 3.5129 8.54985 2.26305 8.54985C1.01321 8.54985 0 6.63589 0 4.27492C0 1.91396 1.01321 0 2.26305 0C3.5129 0 4.5261 1.91396 4.5261 4.27492" transform="translate(26.02509 8.828647)" id="Fill-14" fill="#597EF7" stroke="none" />
      <path d="M4.03414 3.81026C4.03414 5.91464 3.13108 7.62052 2.01707 7.62052C0.903056 7.62052 0 5.91464 0 3.81026C0 1.70588 0.903056 0 2.01707 0C3.13108 0 4.03414 1.70588 4.03414 3.81026" transform="translate(14.07028 17.84316)" id="Fill-16" fill="#597EF7" stroke="none" />
    </g>
  </g>
</svg>
