<?xml version="1.0" encoding="utf-8"?>
<svg width="69px" height="288px" viewBox="0 0 69 288" version="1.1" xmlns:xlink="http://www.w3.org/1999/xlink" xmlns="http://www.w3.org/2000/svg">
  <desc>Created with Lunacy</desc>
  <defs>
    <path d="M0 0L25.6127 0L25.6127 38.8535L0 38.8535L0 0Z" transform="translate(0.09392313 0.00786061)" id="path_1" />
    <path d="M0 0L21.8419 0L21.8419 26.486L0 26.486L0 0Z" transform="translate(0.1096264 0.4179606)" id="path_2" />
    <path d="M0 0L26.2036 0L26.2036 31.1877L0 31.1877L0 0Z" transform="translate(0 0.4470106)" id="path_3" />
    <clipPath id="mask_1">
      <use xlink:href="#path_1" />
    </clipPath>
    <clipPath id="mask_2">
      <use xlink:href="#path_2" />
    </clipPath>
    <clipPath id="mask_3">
      <use xlink:href="#path_3" />
    </clipPath>
  </defs>
  <g id="1.人物组件/6.产品经理/站立/摸头" transform="matrix(-1 0 0 1 68 0.3831177)">
    <g id="分组" transform="translate(0.03479058 0.2492312)">
      <path d="M9.30352 4.06618C9.30352 4.06618 14.0707 9.08994 13.6945 13.3249C13.3535 17.1598 10.2208 17.1299 10.2208 17.1299C10.2208 17.1299 7.77332 16.6633 5.22441 15.0191C3.55425 13.9417 0.187166 12.6482 0.304115 11.1386C0.455819 9.17144 3.76279 11.3883 4.4053 10.3715C5.7077 8.31084 0.735275 3.95029 0.16744 2.5551C-0.941927 -0.173985 3.61437 -2.02976 9.30352 4.06618" transform="translate(29.61846 6.134149)" id="Fill-1" fill="#BC877A" stroke="none" />
      <path d="M4.46659 4.84057C4.46659 4.84057 2.54281 1.42959 0 0" transform="translate(30.39253 7.485982)" id="Stroke-3" fill="none" stroke="#965C56" stroke-width="0.623295" stroke-linecap="round" stroke-linejoin="round" />
      <path d="M0 0C0 0 2.12527 1.02883 4.59481 4.61551" transform="translate(31.64707 6.426052)" id="Stroke-5" fill="none" stroke="#965C56" stroke-width="0.623295" stroke-linecap="round" stroke-linejoin="round" />
      <path d="M3.3497 3.63005C3.3497 3.63005 2.35588 1.98064 0 0" transform="translate(34.36413 6.873621)" id="Stroke-7" fill="none" stroke="#965C56" stroke-width="0.623295" stroke-linecap="round" stroke-linejoin="round" />
      <g id="分组" transform="translate(40.39186 18.27438)">
        <path d="M0 0L25.6127 0L25.6127 38.8535L0 38.8535L0 0Z" transform="translate(0.09392313 0.00786061)" id="Clip-10" fill="none" stroke="none" />
        <g clip-path="url(#mask_1)">
          <path d="M15.1229 35.6487C15.1229 35.6487 20.254 42.6261 24.0565 35.9904C27.9783 29.1475 23.251 22.0915 23.251 22.0915C23.251 22.0915 19.8473 17.2569 15.6691 11.2694C13.1178 7.6139 10.2505 3.66758 7.91057 1.2772C5.37669 -1.31131 4.04469 0.317162 2.14346 3.63543C-0.11426 7.57502 -0.796225 9.56987 1.10971 13.2478C2.9264 16.7545 5.7388 20.9348 7.82556 24.3308C11.8046 30.8066 15.1229 35.6487 15.1229 35.6487" transform="translate(0.09392313 0.00786061)" id="Fill-9" fill="#ADC6FF" stroke="none" />
        </g>
      </g>
      <path d="M4.39661 0L0 7.67208L2.93968 12.9545L7.96941 4.17662L4.39661 0Z" transform="translate(38.75195 15.80504)" id="Fill-11" fill="#ADC6FF" stroke="none" />
      <path d="M10.2234 11.0771L9.269 0L0 1.32117L0.399222 12.547C0.540124 16.8934 2.90446 20.1997 5.62997 19.8617C5.6821 19.855 5.73377 19.8483 5.78637 19.8423C8.57341 19.4984 10.6038 15.487 10.2234 11.0771" transform="translate(23.23086 31.4186)" id="Fill-13" fill="#CE998A" stroke="none" />
      <path d="M0.193084 2.30113C0.193084 2.30113 2.32023 -2.32335 3.92088 1.53923C5.44215 5.20816 3.04729 10.8495 0.709255 10.1153C-0.488412 6.64598 0.193084 2.30113 0.193084 2.30113" transform="translate(35.50219 17.44538)" id="Fill-15" fill="#CE998A" stroke="none" />
      <path d="M3.98621 1.67282C3.98621 1.67282 1.37953 -2.28173 0.232116 1.96966C-0.857995 6.0087 2.12396 10.8889 4.3441 9.50865C5.13832 5.75822 3.98621 1.67282 3.98621 1.67282" transform="translate(15.21045 20.40918)" id="Fill-17" fill="#CE998A" stroke="none" />
      <path d="M18.7237 15.3096C19.4677 28.6343 15.5069 32.7451 10.3781 33.4711C5.24974 34.1971 1.25423 31.3537 0.15097 17.9385C-0.863993 5.59785 3.38467 0.804391 8.51302 0.0783803C13.6419 -0.64763 18.0699 3.61123 18.7237 15.3096" transform="translate(17.99348 5.209009)" id="Fill-19" fill="#CE998A" stroke="none" />
      <path d="M0.00273509 5.09684C0.0736557 7.79601 1.50569 9.89329 3.20168 9.78039C4.8972 9.66749 6.21463 7.38702 6.14324 4.68785C6.07232 1.98868 4.64029 -0.107856 2.94477 0.00429792C1.24878 0.117947 -0.0681855 2.39766 0.00273509 5.09684" transform="translate(28.35851 18.15232)" id="Fill-21" fill="#FFFFFF" stroke="none" />
      <path d="M0.00273509 5.09684C0.0736557 7.79601 1.50569 9.89329 3.20168 9.78039C4.8972 9.66749 6.21463 7.38702 6.14324 4.68785C6.07232 1.98868 4.64029 -0.107856 2.94477 0.00429792C1.24878 0.117947 -0.0681855 2.39766 0.00273509 5.09684Z" transform="translate(28.35851 18.15232)" id="Stroke-23" fill="none" stroke="#7D4556" stroke-width="0.7662373" />
      <path d="M0.000384192 1.87557C0.000384192 1.87557 -0.0475224 0.0668971 0.926579 0.00184776C1.90068 -0.0632016 2.02561 1.61088 2.02561 1.61088" transform="translate(30.47067 21.46742)" id="Stroke-25" fill="none" stroke="#7D4556" stroke-width="0.7662373" stroke-linecap="round" stroke-linejoin="round" />
      <path d="M0 1.4638C0 1.4638 0.993358 -1.35426 4.47833 0.829756" transform="translate(20.81299 17.16999)" id="Stroke-27" fill="none" stroke="#7D4556" stroke-width="0.7662373" stroke-linecap="round" stroke-linejoin="round" />
      <path d="M0 1.44308C0 1.44308 2.51369 -0.923367 4.12608 0.404538" transform="translate(29.03226 16.17863)" id="Stroke-29" fill="none" stroke="#7D4556" stroke-width="0.7662373" stroke-linecap="round" stroke-linejoin="round" />
      <path d="M1.84488 8.86241C-0.394056 8.79138 0.850578 6.81149 0.797505 3.97324C0.758991 1.93054 0 0 0 0" transform="translate(26.07971 19.43809)" id="Stroke-31" fill="none" stroke="#965C56" stroke-width="0.623295" stroke-linecap="round" stroke-linejoin="round" />
      <path d="M0 0.654231C0 0.654231 2.30891 1.3137 4.62534 0" transform="translate(25.33815 29.26943)" id="Stroke-33" fill="none" stroke="#7D4556" stroke-width="0.6548753" stroke-linecap="round" stroke-linejoin="round" />
      <path d="M0.0157795 5.38397C0.186271 8.07193 1.69345 10.0309 3.38192 9.75947C5.0704 9.48806 6.30094 7.08871 6.13045 4.40075C5.95996 1.71205 4.45278 -0.246909 2.7643 0.025251C1.07583 0.296664 -0.154712 2.69601 0.0157795 5.38397" transform="translate(20.51099 18.90568)" id="Fill-35" fill="#FFFFFF" stroke="none" />
      <path d="M0.0157795 5.38397C0.186271 8.07193 1.69345 10.0309 3.38192 9.75947C5.0704 9.48806 6.30094 7.08871 6.13045 4.40075C5.95996 1.71205 4.45278 -0.246909 2.7643 0.025251C1.07583 0.296664 -0.154712 2.69601 0.0157795 5.38397Z" transform="translate(20.51099 18.90568)" id="Stroke-37" fill="none" stroke="#7D4556" stroke-width="0.7662373" />
      <path d="M0.00414566 1.96784C0.00414566 1.96784 -0.109985 0.1659 0.85942 0.0103798C1.82976 -0.145888 2.01669 1.51399 2.01669 1.51399" transform="translate(22.63202 22.21773)" id="Stroke-39" fill="none" stroke="#7D4556" stroke-width="0.7662373" stroke-linecap="round" stroke-linejoin="round" />
      <g id="分组" transform="translate(26.30168 21.20977)">
        <path d="M0 0.662262C0 0.662262 0.794217 -0.24582 1.60628 0.408766" transform="translate(0.2565353 0.01448335)" id="Fill-41" fill="#FFFFFF" stroke="none" />
        <path d="M0 0.662262C0 0.662262 0.794217 -0.24582 1.60628 0.408766" transform="translate(0.2565353 0.01448335)" id="Stroke-43" fill="none" stroke="#7D4556" stroke-width="0.7662373" />
      </g>
      <path d="M0 1.42884C1.66029 2.08307 5.27912 2.93619 8.85239 0" transform="translate(24.0805 36.76289)" id="Stroke-44" fill="none" stroke="#965C56" stroke-width="0.623295" stroke-linecap="round" stroke-linejoin="round" />
      <path d="M0 0.471795L1.38319 0.275899" transform="translate(27.2251 31.94319)" id="Stroke-46" fill="none" stroke="#965C56" stroke-width="0.623295" stroke-linecap="round" stroke-linejoin="round" />
      <path d="M0.206421 0L0.263252 3.05134" transform="translate(27.4388 35.37906)" id="Stroke-48" fill="none" stroke="#965C56" stroke-width="0.623295" stroke-linecap="round" stroke-linejoin="round" />
      <path d="M0.113896 0L0.355777 2.30514" transform="translate(28.33997 36.18298)" id="Stroke-50" fill="none" stroke="#965C56" stroke-width="0.623295" stroke-linecap="round" stroke-linejoin="round" />
      <path d="M0.262547 0L0.207126 1.38174" transform="translate(26.75937 37.09352)" id="Stroke-52" fill="none" stroke="#965C56" stroke-width="0.623295" stroke-linecap="round" stroke-linejoin="round" />
      <path d="M0.0878289 0L0.381844 1.56567" transform="translate(29.10314 36.67481)" id="Stroke-54" fill="none" stroke="#965C56" stroke-width="0.623295" stroke-linecap="round" stroke-linejoin="round" />
      <path d="M0 0.880242C0 0.880242 0.427402 -0.97628 1.25168 0.703039C1.80636 2.31507 0.808307 2.80854 1.43861 4.05794C1.73732 4.65011 2.13278 4.59404 2.13278 4.59404" transform="translate(15.93919 23.19878)" id="Stroke-56" fill="none" stroke="#965C56" stroke-width="0.623295" stroke-linecap="round" stroke-linejoin="round" />
      <path d="M1.68753 0.709091C1.68753 0.709091 1.06099 -0.998641 0.435856 0.886294C0.0690419 2.62842 1.10561 2.83329 0.623256 4.24119C0.394995 4.90739 0 4.96347 0 4.96347" transform="translate(37.11242 20.13414)" id="Stroke-58" fill="none" stroke="#965C56" stroke-width="0.623295" stroke-linecap="round" stroke-linejoin="round" />
      <g id="分组" transform="translate(15.96888 0.3297328)">
        <path d="M0 0L21.8419 0L21.8419 26.486L0 26.486L0 0Z" transform="translate(0.1096264 0.4179606)" id="Clip-61" fill="none" stroke="none" />
        <g clip-path="url(#mask_2)">
          <path d="M1.8366 24.637C1.8366 24.637 0.299365 22.459 0.83761 19.4241C-0.586908 16.1028 0.0156823 12.6365 1.08701 11.2166C0.56426 8.19072 1.57687 2.55236 4.2681 1.60803C5.92698 2.3946 7.84278 2.22861 7.84278 2.22861C7.84278 2.22861 12.175 -2.61121 15.6173 1.97365C18.835 0.954544 20.8316 6.58991 20.6855 8.72383C22.6365 11.9703 21.5286 17.4816 21.5286 17.4816C21.5286 17.4816 21.4473 19.5639 21.0115 22.4866C20.5606 25.5095 20.0862 21.7718 20.0397 20.9329C19.9927 20.094 18.6368 19.5818 18.8646 15.7447C17.278 14.2784 17.4631 11.6458 17.4631 11.6458C17.4631 11.6458 16.4848 13.5457 13.2788 11.6039C11.2474 14.8512 7.7465 12.3875 7.7465 12.3875C7.7465 12.3875 5.16142 14.8317 3.49455 13.5173C3.49455 13.5173 4.05111 15.5525 2.98542 18.6622C3.58097 21.3957 2.35747 22.8724 2.80272 24.5002C3.2475 26.1279 2.37532 27.9418 1.8366 24.637" transform="translate(0.1096264 0.4178478)" id="Fill-60" fill="#7D4556" stroke="none" />
        </g>
      </g>
      <path d="M13.4214 66.162C14.0474 46.6196 14.5697 26.4072 14.7548 10.3138C14.7548 10.3138 13.6501 -1.42498 6.91546 0.144425C0.31515 1.68243 0 14.8575 0 14.8575L1.60111 66.8439C1.60111 66.8439 1.92096 75.3063 7.82663 74.8001C13.2133 74.3395 13.4214 66.162 13.4214 66.162" transform="translate(28.57273 122.989)" id="Fill-62" fill="#597EF7" stroke="none" />
      <path d="M4.36259 0.116644L4.36259 0.116644C2.0579 -0.622824 -0.077229 2.25056 0.00214569 5.99052C0.0927925 10.2942 0.19753 16.1091 0.256708 22.3725C0.317766 28.8191 0.376475 34.1606 0.665793 34.8395C1.94049 37.831 4.49128 38.9473 7.11111 41.9127C9.18425 44.2597 9.5412 45.3738 12.185 46.1663C15.9325 47.2894 14.1867 44.7562 10.0301 36.7446C6.3277 29.6072 6.57897 26.2627 6.57897 26.2627L7.28067 6.12286C7.38071 3.24499 6.13748 0.685639 4.36259 0.116644" transform="translate(32.14771 237.3076)" id="Fill-64" fill="#CE998A" stroke="none" />
      <path d="M9.44939 6.3853C12.1542 11.1803 15.255 14.9718 15.178 17.247C15.1014 19.5215 13.9733 21.5747 9.31319 18.9338C6.12411 17.1267 7.03762 16.0388 3.99461 12.8798C2.47475 11.3021 1.92054 11.4711 0.519503 9.63627C-0.283168 7.98985 0.0836464 0 0.0836464 0L5.41396 9.31701C5.41396 9.31701 4.02937 4.97889 5.1702 4.04128C6.31057 3.10293 7.36076 2.46514 8.03239 3.23676C8.70449 4.00764 9.44939 6.3853 9.44939 6.3853" transform="translate(32.35346 265.7727)" id="Fill-66" fill="#7D4556" stroke="none" />
      <path d="M11.9701 9.73445C10.763 43.5571 9.84105 77.4157 9.84105 77.4157L1.73779 77.6101L0 9.99913C0 9.99913 0.555153 -0.151559 6.46833 0.00171857C11.8038 0.140042 11.9701 9.73445 11.9701 9.73445" transform="translate(29.98687 181.1412)" id="Fill-68" fill="#597EF7" stroke="none" />
      <path d="M1.41465 66.1292C0.8177 46.5838 0.160628 27.5647 0 11.4698C0 11.4698 1.28784 -1.45854 8.02013 0.136289C14.6186 1.69972 14.9135 14.8763 14.9135 14.8763L13.234 66.856C13.234 66.856 12.9014 75.3176 6.99672 74.789C1.61098 74.3067 1.41465 66.1292 1.41465 66.1292" transform="translate(14.55709 122.8848)" id="Fill-70" fill="#597EF7" stroke="none" />
      <path d="M9.95325 0.113847L9.95325 0.113847C12.2589 -0.616649 14.3898 2.26421 14.3052 6.00493C14.2075 10.3079 14.0939 16.122 14.0253 22.3847C13.9549 28.8313 13.8877 34.1735 13.5974 34.8509C12.3181 37.8372 9.76585 38.9438 7.14179 41.8995C5.0649 44.2382 4.7056 45.3508 2.06087 46.1329C-1.68806 47.2417 0.0614727 44.7153 4.22982 36.7194C7.94399 29.5969 7.69694 26.2517 7.69694 26.2517L7.02672 6.10885C6.92997 3.23023 8.17742 0.676113 9.95325 0.113847" transform="translate(11.4294 237.1943)" id="Fill-72" fill="#CE998A" stroke="none" />
      <path d="M5.74633 6.34942C3.0349 11.1339 -0.0724511 14.9135 0.00128759 17.1887C0.0745566 19.4647 1.19942 21.5216 5.86374 18.8987C9.05564 17.1035 8.14354 16.0119 11.1912 12.8648C12.7135 11.2932 13.2677 11.4636 14.6715 9.63403C15.4765 7.9906 15.1224 0 15.1224 0L9.77706 9.29608C9.77706 9.29608 11.1687 4.96394 10.0293 4.02184C8.88985 3.079 7.84107 2.43748 7.16756 3.20611C6.49498 3.97474 5.74633 6.34942 5.74633 6.34942" transform="translate(10.29103 265.6721)" id="Fill-74" fill="#7D4556" stroke="none" />
      <path d="M0 9.71305C1.15633 43.5402 2.02523 77.404 2.02523 77.404L10.1294 77.6275L11.9701 10.0233C11.9701 10.0233 11.43 -0.129592 5.51678 0.00125394C0.180824 0.118642 0 9.71305 0 9.71305" transform="translate(16.00617 181.0257)" id="Fill-76" fill="#597EF7" stroke="none" />
      <path d="M23.5634 3.47378L22.9697 0L11.4237 0.501702L10.9597 3.83118C10.9597 3.83118 1.6414 5.71238 0.256807 11.2259C-1.17194 16.9143 3.75493 49.1609 5.34196 54.7753C3.93106 59.2667 4.95354 63.5644 4.95354 63.5644L28.4372 63.5644C28.4372 63.5644 31.2613 62.3539 29.4982 57.5821C30.438 47.4008 34.0535 12.7706 33.2011 7.33786C32.2617 1.35632 23.5634 3.47378 23.5634 3.47378" transform="translate(11.53287 44.02726)" id="Fill-78" fill="#ADC6FF" stroke="none" />
      <path d="M1.66707 26.4497C1.66707 26.4497 -0.365201 8.10051 0.0579743 0" transform="translate(12.98282 59.84561)" id="Stroke-80" fill="none" stroke="#965C56" stroke-width="0.623295" stroke-linecap="round" stroke-linejoin="round" />
      <path d="M0 0.565256C0 0.565256 6.68955 2.01653 11.2374 0" transform="translate(22.98109 48.13763)" id="Stroke-82" fill="none" stroke="#597EF7" stroke-width="0.623295" stroke-linecap="round" stroke-linejoin="round" />
      <path d="M29.0333 21.642C28.2837 9.01045 27.1189 2.37318 26.2289 0C7.10568 0.870315 2.34179 0.470299 2.34179 0.470299C2.34179 0.470299 0.235306 7.09412 0 21.9224C0 21.9224 7.15359 35.7711 14.7515 35.7711C21.6012 35.7711 29.0333 21.642 29.0333 21.642" transform="translate(14.39505 112.9482)" id="Fill-84" fill="#597EF7" stroke="none" />
      <path d="M23.8871 6.0294L23.5254 0.300573L0.108964 0L0 5.7378C0 5.7378 12.3928 7.24515 23.8871 6.0294" transform="translate(16.73698 107.6662)" id="Fill-86" fill="#597EF7" stroke="none" />
      <path d="M0.0540124 0C0.0540124 0 0.256442 24.5064 0.415661 35.084" transform="translate(28.31686 113.2611)" id="Stroke-88" fill="none" stroke="#1D39C4" stroke-width="0.637423038" stroke-linecap="round" stroke-linejoin="round" />
      <path d="M3.50987 0C3.50987 0 3.7029 14.8066 3.59863 21.7474C3.28442 26.3712 0 25.5435 0 25.5435" transform="translate(28.20329 113.539)" id="Stroke-90" fill="none" stroke="#1D39C4" stroke-width="0.637423038" stroke-linecap="round" stroke-linejoin="round" />
      <path d="M0 0C0 0 0.0878288 8.84222 2.99745 10.2456" transform="translate(38.5344 114.3323)" id="Stroke-92" fill="none" stroke="#1D39C4" stroke-width="0.637423038" stroke-linecap="round" stroke-linejoin="round" />
      <path d="M2.3385 0C2.3385 0 2.38077 9.16074 0 10.1432" transform="translate(16.49397 114.9953)" id="Stroke-94" fill="none" stroke="#1D39C4" stroke-width="0.637423038" stroke-linecap="round" stroke-linejoin="round" />
      <path d="M0 0.373848L23.4836 0.373848" transform="translate(16.72124 107.5917)" id="Stroke-96" fill="none" stroke="#1D39C4" stroke-width="0.637423038" stroke-linecap="round" stroke-linejoin="round" />
      <path d="M0 0.373848L23.9533 0.373848" transform="translate(16.72124 112.8256)" id="Stroke-98" fill="none" stroke="#1D39C4" stroke-width="0.637423038" stroke-linecap="round" stroke-linejoin="round" />
      <path d="M6.28914 7.64662C6.28914 7.64662 8.17769 -2.3792 13.9176 0.529329C19.7706 3.49543 17.6106 13.5212 17.6106 13.5212C17.6106 13.5212 16.3608 20.5466 14.6761 28.9716C13.3601 35.555 12.3658 40.6147 11.271 44.7001C10.0907 49.1077 7.14864 51.6686 4.46023 50.3063C0.374548 48.2359 -0.523467 43.4365 0.254311 38.8322C1.01095 34.355 2.1485 28.3637 3.05074 23.4588C4.78665 14.0274 6.28914 7.64662 6.28914 7.64662" transform="translate(3.185197 51.00552)" id="Fill-100" fill="#ADC6FF" stroke="none" />
      <path d="M24.2969 31.1859L1.06543 29.5073C0.449688 29.4632 -0.0265602 28.6325 0.00115046 27.6523L0.741355 1.69685C0.769066 0.716625 1.29087 -0.0422841 1.90661 0.00182978L25.1376 1.6804C25.7538 1.72526 26.23 2.5552 26.2023 3.53618L25.4621 29.4916C25.4344 30.4718 24.9126 31.2307 24.2969 31.1859" transform="translate(0.7908589 145.1386)" id="Fill-102" fill="#4E5C93" stroke="none" />
      <g id="分组" transform="translate(0 144.6346)">
        <path d="M0 0L26.2036 0L26.2036 31.1877L0 31.1877L0 0Z" transform="translate(0 0.4470106)" id="Clip-105" fill="none" stroke="none" />
        <g clip-path="url(#mask_3)">
          <path d="M24.2969 31.1859L1.0659 29.5073C0.450157 29.4625 -0.0265613 28.6318 0.0011494 27.6515L0.741354 1.6961C0.769065 0.716625 1.29134 -0.0422841 1.90661 0.0018298L25.138 1.6804C25.7543 1.72526 26.2305 2.5552 26.2028 3.53618L25.4621 29.4916C25.4344 30.4718 24.9131 31.23 24.2969 31.1859" transform="translate(-0.0003039882 0.4470106)" id="Fill-104" fill="#253368" stroke="none" />
        </g>
      </g>
      <path d="M9.53187 13.4017C8.09232 13.2342 6.95337 13.4017 6.33997 13.3576C4.75718 13.2447 5.19444 21.6989 4.87694 23.0313C4.39365 25.059 1.39995 23.9008 0.247847 16.2833C-0.079985 14.118 0.0125406 10.891 0.0106619 7.82317C0.0106619 7.82317 0.407066 0.454645 2.25852 0.0336936C3.86433 -0.331929 5.21886 2.39865 5.21886 2.39865C5.21886 2.39865 6.92331 6.19319 7.79596 9.6438L9.53187 13.4017Z" transform="translate(5.374889 132.6276)" id="Fill-106" fill="#CE998A" stroke="none" />
      <path d="M0.319525 0C0.319525 0 -0.0571524 3.53734 0.31295 7.38272" transform="translate(8.818148 148.2005)" id="Stroke-108" fill="none" stroke="#965C56" stroke-width="0.623295" stroke-linecap="round" stroke-linejoin="round" />
      <path d="M0.518563 7.6048C0.518563 7.6048 -0.39636 4.47719 0.204352 0" transform="translate(7.418767 147.3874)" id="Stroke-110" fill="none" stroke="#965C56" stroke-width="0.623295" stroke-linecap="round" stroke-linejoin="round" />
      <path d="M0.163676 0C0.163676 0 0.0096232 2.24757 0.341682 5.94641" transform="translate(6.10547 145.9205)" id="Stroke-112" fill="none" stroke="#965C56" stroke-width="0.623295" stroke-linecap="round" stroke-linejoin="round" />
      <path d="M11.7695 10.7324C11.7695 10.7324 11.546 -0.00373749 5.90426 9.76112e-07C0.0854805 0.00448714 0 10.3197 0 10.3197C0 10.3197 0.0526034 17.5805 0.0929952 26.5297C0.116949 31.9938 0.220277 38.0262 0.68948 42.3882C1.1972 47.1122 2.85091 47.5802 5.67224 47.578C9.02195 47.5757 10.407 47.0314 10.8278 42.3112C11.2299 37.8101 11.2726 31.6865 11.4408 26.9431C11.7611 17.899 11.7695 10.7324 11.7695 10.7324" transform="translate(2.812025 86.10394)" id="Fill-114" fill="#ADC6FF" stroke="none" />
      <path d="M0.471552 7.02234L6.99578 7.01785L7.46357 0L0 0.00523386L0.471552 7.02234Z" transform="translate(5.179317 131.2931)" id="Fill-116" fill="#ADC6FF" stroke="none" />
      <path d="M4.0638 12.5874C4.0638 12.5874 -1.98605 16.3528 0.677461 26.1349C3.39358 36.1091 9.40398 31.8749 9.40398 31.8749C9.40398 31.8749 13.6536 29.3634 18.7232 26.0294C22.6845 23.4252 25.7322 21.4536 28.1496 19.3578C30.7591 17.0952 31.9487 11.8801 30.7013 7.29897C28.8057 0.335701 25.649 -0.977996 22.8582 0.596646C20.144 2.12792 16.5303 4.39343 13.5672 6.19911C7.87003 9.67065 4.0638 12.5874 4.0638 12.5874" transform="translate(33.62575 37.85798)" id="Fill-118" fill="#ADC6FF" stroke="none" />
      <path d="M3.47088 0C3.47088 0 1.53113 31.4375 0.826155 34.5255C2.41271 39.5777 0 40.8816 0 40.8816" transform="translate(40.2047 67.08418)" id="Stroke-120" fill="none" stroke="#597EF7" stroke-width="0.623295" stroke-linecap="round" stroke-linejoin="round" />
      <path d="M0 0C0 0 0.528852 15.7188 3.35018 33.1213C2.292 36.2093 3.54932 42.2851 3.54932 42.2851" transform="translate(13.17207 65.68076)" id="Stroke-122" fill="none" stroke="#597EF7" stroke-width="0.623295" stroke-linecap="round" stroke-linejoin="round" />
    </g>
  </g>
</svg>
