<?xml version="1.0" encoding="utf-8"?>
<svg width="97px" height="349px" viewBox="0 0 97 349" version="1.1" xmlns:xlink="http://www.w3.org/1999/xlink" xmlns="http://www.w3.org/2000/svg">
  <desc>Created with Lunacy</desc>
  <defs>
    <path d="M0 0L23.0589 0L23.0589 31.3951L0 31.3951L0 0Z" transform="translate(0.0001621261 0.2401483)" id="path_1" />
    <path d="M0 0L17.6327 0L17.6327 31.5418L0 31.5418L0 0Z" transform="translate(0.1527433 0.09342386)" id="path_2" />
    <path d="M0 0L21.0675 0L21.0675 32.6969L0 32.6969L0 0Z" transform="translate(0.1833632 0.02762899)" id="path_3" />
    <clipPath id="mask_1">
      <use xlink:href="#path_1" />
    </clipPath>
    <clipPath id="mask_2">
      <use xlink:href="#path_2" />
    </clipPath>
    <clipPath id="mask_3">
      <use xlink:href="#path_3" />
    </clipPath>
  </defs>
  <g id="1.人物组件/2.保安/站立/自信" transform="translate(0.6826172 0.6826172)">
    <g id="分组" transform="translate(0.2157599 0.1556174)">
      <path d="M10.8845 41.913C22.4648 35.767 30.2958 26.5004 31.6119 19.0195C33.0716 10.722 32.0986 -2.0302 21.297 0.273917C16.3403 1.33182 10.5469 11.548 6.86305 19.4804C3.65162 26.3942 0.878107 32.6173 0.878107 32.6173C0.878107 32.6173 -0.598213 36.9965 0.277632 39.4547C1.15348 41.913 -0.0143159 43.9873 2.41843 48.7504C3.37256 50.619 1.83454 51.5926 4.85118 52.9755C6.41776 53.6938 10.0574 49.4419 10.8845 41.913" transform="translate(60.94923 116.2501)" id="Fill-1" fill="#FFC2BD" stroke="none" />
      <path d="M16.0821 77.0865C16.0821 77.0865 -1.57477 20.8434 0.113831 15.5102C1.80289 10.1764 14.2687 -1.81532 33.1114 0.232856C52.036 2.28976 58.6532 14.4283 58.6532 14.4283C58.6532 14.4283 53.7877 50.0755 49.7068 73.2076C51.8564 79.2678 47.9492 83.5706 47.9492 83.5706C47.9492 83.5706 23.4218 81.7798 17.5874 82.2648C14.8627 80.4209 16.0821 77.0865 16.0821 77.0865" transform="translate(13.95905 57.38371)" id="Fill-3" fill="#597EF7" stroke="none" />
      <path d="M42.4766 43.5205L21.5089 58.8255L0 45.4414C0 45.4414 2.62707 19.628 7.51744 7.64353C8.29566 4.26262 8.61201 1.72802 8.61201 1.72802C8.61201 1.72802 27.8797 -2.88166 38.3898 2.95678L38.7789 8.4884C38.7789 8.4884 40.445 14.7442 41.3088 20.4728C42.7686 30.1532 42.4766 43.5205 42.4766 43.5205" transform="translate(23.51847 137.9975)" id="Fill-5" fill="#4E5C93" stroke="none" />
      <path d="M15.6201 13.162C15.6201 13.162 30.6835 -22.3485 37.9823 23.2858C20.2545 121.237 17.3364 136.696 17.3364 136.696C17.3364 136.696 17.4671 144.993 13.9642 148.22L1.70284 148.22C1.70284 148.22 -2.96833 143.611 3.16258 133.009C13.6723 29.7561 15.6201 13.162 15.6201 13.162" transform="translate(8.51862 166.1454)" id="Fill-7" fill="#4E5C93" stroke="none" />
      <path d="M23.742 0.457681C23.742 0.457681 13.5758 -4.36503 2.77416 17.2997C1.84674 118.46 0.926693 120.703 0.926693 120.703C0.926693 120.703 -1.76623 129.668 2.0291 134.277L14.6777 134.277C14.6777 134.277 17.9546 128.388 16.4948 121.935C23.2096 32.9719 23.742 0.457681 23.742 0.457681" transform="translate(42.25316 179.5238)" id="Fill-9" fill="#4E5C93" stroke="none" />
      <g id="分组" transform="translate(0 313.2147)">
        <path d="M0 0L23.0589 0L23.0589 31.3951L0 31.3951L0 0Z" transform="translate(0.0001621261 0.2401483)" id="Clip-12" fill="none" stroke="none" />
        <g clip-path="url(#mask_1)">
          <path d="M0.762587 31.3953L17.091 31.3953L23.0589 0L10.3006 0L8.11103 20.9442L0.338019 29.1958C-0.28594 29.8575 0.0110737 31.3953 0.762587 31.3953" transform="translate(0.0001621261 0.2401483)" id="Fill-11" fill="#253368" stroke="none" />
        </g>
      </g>
      <g id="分组" transform="translate(43.28572 313.2147)">
        <path d="M0 0L17.6327 0L17.6327 31.5418L0 31.5418L0 0Z" transform="translate(0.1527433 0.09342386)" id="Clip-14" fill="none" stroke="none" />
        <g clip-path="url(#mask_2)">
          <path d="M0.901632 0L12.9742 0.0908848L11.0282 19.8645L17.2972 28.7705C17.9834 29.7455 17.5464 31.5421 16.624 31.5421L0 31.5421L0.901632 0Z" transform="translate(0.1527433 0.09342386)" id="Fill-13" fill="#253368" stroke="none" />
        </g>
      </g>
      <path d="M0 26.7616L0.971626 0L17.0279 0L17.0127 28.9123L12.4073 42.7413L0 26.7616Z" transform="translate(33.88203 26.61277)" id="Fill-15" fill="#FFC2BD" stroke="none" />
      <path d="M5.28847 1.02607C5.28847 1.02607 14.2412 -2.66168 16.674 3.94529C19.04 10.3712 19.2039 33.5999 14.5332 37.1335C10.7259 40.0142 2.95288 38.6698 1.10403 27.4539C1.10403 27.4539 -0.452874 18.8489 0.131023 11.1666C0.714459 3.48432 5.28847 1.02607 5.28847 1.02607" transform="translate(34.78807 10.6829)" id="Fill-17" fill="#FFC2BD" stroke="none" />
      <path d="M4.83938 4.5667C4.83938 4.5667 2.40663 -2.80879 0.55778 1.18651C-1.29107 5.18108 1.82274 12.5566 4.54743 12.249C7.27213 11.9422 4.83938 4.5667 4.83938 4.5667" transform="translate(31.05277 26.80924)" id="Fill-19" fill="#FFC2BD" stroke="none" />
      <g id="分组" transform="translate(32.23404 0.2147305)">
        <path d="M0 0L21.0675 0L21.0675 32.6969L0 32.6969L0 0Z" transform="translate(0.1833632 0.02762899)" id="Clip-22" fill="none" stroke="none" />
        <g clip-path="url(#mask_3)">
          <path d="M20.6016 27.7538C20.6016 27.7538 21.7694 18.842 20.4072 13.3104C19.0447 7.77874 17.293 2.24785 16.028 5.16707C15.8332 3.78417 14.6654 1.01836 13.79 0.0964269C12.9137 -0.825509 10.189 5.16707 10.189 5.16707C10.189 5.16707 10.3838 2.40127 9.3132 4.09172C8.24303 5.78145 1.723 11.0055 0.652834 13.7713C-0.417797 16.5371 0.150904 26.7046 0.150904 26.7046C0.150904 26.7046 2.24335 26.397 3.36234 32.6972C3.07039 27.6265 4.40718 24.9763 5.0933 23.9679C5.35348 23.5854 5.50268 23.0539 5.52984 22.4948C5.58142 21.4209 5.65786 19.6178 5.68641 17.856C5.6993 17.0795 6.05848 16.4375 6.54338 16.3052C11.477 14.9557 16.9006 16.1692 18.8324 16.6949C19.2689 16.8134 19.6037 17.3675 19.6617 18.0611L20.1484 23.8239C20.1484 23.8239 20.4072 24.8338 20.6016 27.7538" transform="translate(0.1833632 0.02732183)" id="Fill-21" fill="#253368" stroke="none" />
        </g>
      </g>
      <path d="M0 0.690725L1.64578 0L4.80195 0.87104" transform="translate(39.44407 26.53687)" id="Stroke-23" fill="none" stroke="#253368" stroke-width="1.36521959" stroke-linecap="round" stroke-linejoin="round" />
      <path d="M0 1.30583L3.11381 0L4.33041 0.537311" transform="translate(47.56958 25.99839)" id="Stroke-25" fill="none" stroke="#253368" stroke-width="1.36521959" stroke-linecap="round" stroke-linejoin="round" />
      <path d="M0.288332 0.200338C0.288332 0.200338 2.80305 3.29987 4.11682 6.52665C5.94172 2.95451 7.86379 1.41747 7.86379 1.41747C7.86379 1.41747 10.0681 4.00296 11.2359 3.19663C11.6006 2.50518 11.5615 1.80209 11.5615 1.80209C11.5615 1.80209 13.5319 2.95451 14.9184 6.18129C15.5028 3.87645 17.1477 0.89179 17.1477 0.89179C17.1477 0.89179 17.4976 15.938 10.4909 16.1677C3.41135 16.1677 1.05182 9.98391 0.249191 4.79766C0.0636151 3.17264 -0.222347 -0.952082 0.288332 0.200338" transform="translate(35.74974 34.13328)" id="Fill-27" fill="#EFADAB" stroke="none" />
      <path d="M0 0C0 0 2.98349 1.8555 5.31862 0.703085" transform="translate(42.25082 38.47026)" id="Stroke-29" fill="none" stroke="#D18682" stroke-width="1.092014" stroke-linecap="round" stroke-linejoin="round" />
      <path d="M0 8.0284C0 8.0284 2.55432 10.4488 3.21143 9.64179C3.86809 8.83473 2.87067 1.69046 2.87067 1.69046L2.96783 0" transform="translate(43.77438 27.68805)" id="Stroke-31" fill="none" stroke="#D18682" stroke-width="0.8083005" stroke-linecap="round" stroke-linejoin="round" />
      <path d="M1.63933 0.357359L0 0.369719" transform="translate(44.86896 42.03091)" id="Stroke-33" fill="none" stroke="#D18682" stroke-width="0.8083005" stroke-linecap="round" stroke-linejoin="round" />
      <path d="M1.45974 1.61339C1.45974 2.50479 1.1328 3.22678 0.729872 3.22678C0.326946 3.22678 0 2.50479 0 1.61339C0 0.722716 0.326946 0 0.729872 0C1.1328 0 1.45974 0.722716 1.45974 1.61339" transform="translate(40.56309 29.83926)" id="Fill-35" fill="#253368" stroke="none" />
      <path d="M1.45974 1.61339C1.45974 2.50479 1.13326 3.22678 0.729872 3.22678C0.326946 3.22678 0 2.50479 0 1.61339C0 0.722716 0.326946 0 0.729872 0C1.13326 0 1.45974 0.722716 1.45974 1.61339" transform="translate(48.22632 29.83926)" id="Fill-37" fill="#253368" stroke="none" />
      <path d="M1.26542 0L0 1.99728" transform="translate(41.37484 37.24121)" id="Stroke-39" fill="none" stroke="#D18682" stroke-width="0.8083005" stroke-linecap="round" stroke-linejoin="round" />
      <path d="M0 0C0 0 2.1164 13.5978 11.7507 10.4867" transform="translate(36.07155 39.39227)" id="Stroke-41" fill="none" stroke="#D18682" stroke-width="0.6822056" stroke-linecap="round" stroke-linejoin="round" />
      <path d="M0.437922 0C0.437922 0 1.38698 2.53532 0 3.91823" transform="translate(45.48643 46.30628)" id="Stroke-43" fill="none" stroke="#D18682" stroke-width="0.8083005" stroke-linecap="round" stroke-linejoin="round" />
      <path d="M0.0119005 1.19726C0.0119005 1.19726 -0.158479 -0.45394 0.790122 0.121906C1.73918 0.697752 1.5688 2.11919 1.37402 3.34795C1.17233 4.62325 1.49605 5.3845 2.22592 5.61498" transform="translate(32.31327 29.74418)" id="Stroke-45" fill="none" stroke="#D18682" stroke-width="0.6822056" stroke-linecap="round" stroke-linejoin="round" />
      <path d="M0.410294 0.410699C0.393717 0.567748 0.299777 0.673901 0.200312 0.647727C0.100847 0.622279 0.0336156 0.473228 0.0501931 0.316906C0.0667707 0.159858 0.16071 0.0537044 0.260175 0.0791521C0.359641 0.105327 0.426872 0.253651 0.410294 0.410699" transform="translate(42.99625 41.40136)" id="Fill-47" fill="#D18682" stroke="none" />
      <path d="M0.410294 0.410699C0.393717 0.567748 0.299777 0.673901 0.200312 0.647727C0.100847 0.622279 0.0336156 0.473228 0.0501931 0.316906C0.0667707 0.159858 0.16071 0.0537044 0.260175 0.0791521C0.359641 0.105327 0.426872 0.253651 0.410294 0.410699" transform="translate(40.25691 42.48565)" id="Fill-49" fill="#D18682" stroke="none" />
      <path d="M0.401315 0.263031C0.436312 0.412082 0.388421 0.577855 0.294021 0.63384C0.199621 0.689098 0.0941697 0.612755 0.0591726 0.463704C0.0241756 0.314653 0.0720663 0.14888 0.166466 0.0936217C0.260866 0.0376367 0.366318 0.11398 0.401315 0.263031" transform="translate(49.0907 43.57518)" id="Fill-51" fill="#D18682" stroke="none" />
      <path d="M0.401315 0.263031C0.436312 0.412082 0.388421 0.577855 0.294021 0.63384C0.199621 0.689098 0.0941697 0.612755 0.0591726 0.463704C0.0241756 0.314653 0.0720663 0.14888 0.166466 0.0936217C0.260866 0.0376367 0.365857 0.11398 0.401315 0.263031" transform="translate(50.80311 42.19765)" id="Fill-53" fill="#D18682" stroke="none" />
      <path d="M0.401286 0.263349C0.436283 0.4124 0.388392 0.578173 0.293992 0.633431C0.199592 0.688689 0.0941408 0.613073 0.0591438 0.464022C0.0241467 0.314971 0.0724979 0.149198 0.166898 0.0939396C0.261298 0.0379547 0.366289 0.114298 0.401286 0.263349" transform="translate(47.60451 44.41413)" id="Fill-55" fill="#D18682" stroke="none" />
      <path d="M0.401286 0.263031C0.436283 0.412082 0.388392 0.577855 0.293992 0.63384C0.199592 0.689098 0.0941408 0.612755 0.0591438 0.463704C0.0241467 0.314653 0.0724979 0.14888 0.166898 0.0936217C0.261298 0.0376367 0.366289 0.11398 0.401286 0.263031" transform="translate(45.47517 43.75338)" id="Fill-57" fill="#D18682" stroke="none" />
      <path d="M0.401193 0.263031C0.436651 0.412082 0.388299 0.578582 0.293899 0.63384C0.1995 0.689098 0.0945084 0.612755 0.0590509 0.463704C0.0240539 0.314653 0.072405 0.14888 0.166805 0.0936217C0.261205 0.0376367 0.366196 0.11398 0.401193 0.263031" transform="translate(38.14032 41.44862)" id="Fill-59" fill="#D18682" stroke="none" />
      <path d="M0.410294 0.410799C0.393717 0.567848 0.299777 0.674001 0.200312 0.647826C0.100847 0.621651 0.0336156 0.473327 0.0501931 0.316279C0.0667707 0.15923 0.16071 0.0530767 0.260175 0.0792514C0.359641 0.105426 0.426872 0.25375 0.410294 0.410799" transform="translate(41.61972 45.44498)" id="Fill-61" fill="#D18682" stroke="none" />
      <path d="M0.410294 0.410799C0.393717 0.567848 0.299777 0.674001 0.200312 0.647826C0.100847 0.621651 0.0336156 0.473327 0.0501931 0.316279C0.0667707 0.15923 0.16071 0.0530767 0.260175 0.0792514C0.359641 0.105426 0.426872 0.25375 0.410294 0.410799" transform="translate(43.03535 44.99797)" id="Fill-63" fill="#D18682" stroke="none" />
      <path d="M0.410232 0.410699C0.393654 0.567748 0.299715 0.673901 0.200249 0.647727C0.101245 0.622279 0.0340134 0.473228 0.0501304 0.316906C0.066708 0.159858 0.160647 0.0537044 0.260113 0.0791521C0.359578 0.105327 0.426809 0.253651 0.410232 0.410699" transform="translate(48.75281 45.77379)" id="Fill-65" fill="#D18682" stroke="none" />
      <path d="M0.410232 0.410799C0.393654 0.567848 0.299715 0.674001 0.200249 0.647826C0.101245 0.621651 0.0340134 0.473327 0.0501304 0.316279C0.066708 0.15923 0.160647 0.0530767 0.260113 0.0792514C0.359578 0.105426 0.426809 0.25375 0.410232 0.410799" transform="translate(47.84713 42.37046)" id="Fill-67" fill="#D18682" stroke="none" />
      <path d="M0.410294 0.410799C0.393717 0.567848 0.299777 0.674001 0.200312 0.647826C0.100847 0.621651 0.0336156 0.473327 0.0501931 0.316279C0.0667707 0.15923 0.16071 0.0530767 0.260175 0.0792514C0.359641 0.105426 0.426872 0.25375 0.410294 0.410799" transform="translate(48.50409 39.48948)" id="Fill-69" fill="#D18682" stroke="none" />
      <path d="M0.410232 0.410799C0.393654 0.567848 0.299715 0.674001 0.200249 0.647826C0.101245 0.621651 0.0340134 0.473327 0.0501304 0.316279C0.066708 0.15923 0.160647 0.0530767 0.260113 0.0792514C0.359578 0.105426 0.426809 0.25375 0.410232 0.410799" transform="translate(40.07734 44.28158)" id="Fill-71" fill="#D18682" stroke="none" />
      <path d="M21.3767 6.99086L20.6468 2.30411L17.37 2.76508L15.4074 14.671L11.0618 1.56249L1.36442 0L0 7.37476C0 7.37476 6.31649 20.926 16.56 18.438C21.6198 17.2085 21.3767 6.99086 21.3767 6.99086" transform="translate(31.1892 52.52956)" id="Fill-73" fill="#597EF7" stroke="none" />
      <path d="M0 0C0 0 6.22808 24.584 0.389111 46.8631C5.06028 60.077 9.92578 69.7566 12.8453 74.0588C15.7647 78.3609 26.9633 77.3873 27.8313 62.9963C28.6096 50.0899 14.3474 19.3868 12.2614 13.8283C9.14756 5.53161 2.1408 0 0 0" transform="translate(64.82722 65.0516)" id="Fill-75" fill="#FFC2BD" stroke="none" />
      <path d="M20.3867 34.0331C16.5407 23.5675 13.3472 16.7221 12.2609 13.8283C9.1471 5.53089 2.1408 0 0 0C0 0 6.22762 24.5833 0.389111 46.8631C2.37012 52.4667 2.15047 51.9665 4.03847 56.1588C4.03847 56.1588 5.49775 51.0882 11.0448 43.7127C16.8128 36.0435 20.3867 34.0331 20.3867 34.0331" transform="translate(64.58418 64.36051)" id="Fill-77" fill="#597EF7" stroke="none" />
      <path d="M3.3086 0C3.3086 0 5.35178 13.829 0 33.8033" transform="translate(65.6059 84.10404)" id="Stroke-79" fill="none" stroke="#1D39C4" stroke-width="0.6199665" stroke-linecap="round" stroke-linejoin="round" />
      <path d="M31.3831 9.25058C16.5674 6.25429 0 7.97092 0 7.97092L0.583897 1.40322C0.583897 1.40322 19.4136 -2.40012 31.0423 2.51638C31.3099 5.66681 31.3831 9.25058 31.3831 9.25058" transform="translate(30.96278 137.312)" id="Fill-81" fill="#253368" stroke="none" />
      <path d="M0 9.83373L4.8655 0" transform="translate(71.6392 118.5216)" id="Stroke-83" fill="none" stroke="#D18682" stroke-width="0.8083005" stroke-linecap="round" stroke-linejoin="round" />
      <path d="M3.11381 0C3.11381 0 2.33559 34.9841 0 49.7344" transform="translate(44.97584 145.8713)" id="Stroke-85" fill="none" stroke="#253368" stroke-width="0.910146356" stroke-linecap="round" stroke-linejoin="round" />
      <path d="M7.20108 0C7.20108 0 7.0063 31.2462 5.25461 33.3976C3.50338 35.5483 0 38.3141 0 38.3141" transform="translate(46.53265 146.1787)" id="Stroke-87" fill="none" stroke="#253368" stroke-width="0.910146356" stroke-linecap="round" stroke-linejoin="round" />
      <path d="M0 8.19583L0 1.63467C0 0.777444 0.413977 0.0758131 0.938011 0.0510924C2.67589 -0.0310675 6.53799 -0.104502 10.0414 0.597128C10.5299 0.695284 10.8988 1.36783 10.8988 2.17198L10.8988 8.34052C10.8988 9.22319 10.4609 9.93573 9.92072 9.92482C7.93464 9.88628 3.41082 9.80122 0.961035 9.7794C0.427792 9.77504 0 9.06687 0 8.19583" transform="translate(44.29446 136.2536)" id="Fill-89" fill="#E1E7F3" stroke="none" />
      <path d="M0 5.4233L0.00138146 1.08046C0.00138146 0.513343 0.339378 0.0487396 0.76717 0.0327439C2.18455 -0.0210599 5.33565 -0.0668659 8.19343 0.398464C8.59221 0.463901 8.89291 0.9096 8.89291 1.44182L8.89199 5.52509C8.89199 6.10894 8.53419 6.58009 8.09397 6.57354C6.47352 6.54664 2.78226 6.48775 0.784208 6.47248C0.349049 6.46884 0 5.99988 0 5.4233" transform="translate(45.41846 137.8936)" id="Fill-91" fill="#253368" stroke="none" />
      <path d="M9.20052 0L0 6.48337L0.379901 7.80374L9.65686 1.20041L9.20052 0Z" transform="translate(45.08051 137.4542)" id="Fill-93" fill="#E1E7F3" stroke="none" />
      <path d="M9.58641 6.40775L0.364245 0L0 1.33201L9.32946 7.74776L9.58641 6.40775Z" transform="translate(45.0899 137.3218)" id="Fill-95" fill="#E1E7F3" stroke="none" />
      <path d="M7.5902 0C7.5902 0 5.54656 15.4417 0 12.2149" transform="translate(28.33547 145.8713)" id="Stroke-97" fill="none" stroke="#253368" stroke-width="0.910146356" stroke-linecap="round" stroke-linejoin="round" />
      <path d="M0 0L5.8385 5.99258" transform="translate(49.06279 186.4347)" id="Stroke-99" fill="none" stroke="#253368" stroke-width="0.910146356" stroke-linecap="round" stroke-linejoin="round" />
      <path d="M0 0L2.62754 6.45282" transform="translate(46.43544 185.0519)" id="Stroke-101" fill="none" stroke="#253368" stroke-width="0.910146356" stroke-linecap="round" stroke-linejoin="round" />
      <path d="M0.732436 42.1096L0.000722677 6.35546C-0.0227621 5.20959 0.528901 4.23748 1.25279 4.14805L31.2074 0.00661043C31.9751 -0.0879098 32.6391 0.842751 32.6704 2.0577L33.6623 40.4773C33.6931 41.6719 33.0996 42.6752 32.343 42.7087L2.12771 44.1846C1.38034 44.2166 0.756381 43.2896 0.732436 42.1096" transform="translate(8.689852 163.8789)" id="Fill-103" fill="#FFC540" stroke="none" />
      <path d="M0.746604 42.4923L0.00061583 6.04241C-0.0191851 5.08703 0.440841 4.27634 1.04408 4.20218L31.4482 0.00547926C32.0882 -0.0730452 32.6417 0.702021 32.668 1.71484L33.6787 40.8666C33.7045 41.8619 33.2095 42.6988 32.5786 42.7264L1.90933 44.2213C1.28629 44.2489 0.766865 43.4761 0.746604 42.4923" transform="translate(7.351786 163.8994)" id="Fill-105" fill="#FF7A46" stroke="none" />
      <path d="M9.12293 0C9.12293 0 3.86832 1.84387 1.53273 15.9797C-0.802858 30.1149 0.0729871 43.022 0.656884 60.8456C1.24078 78.6684 5.32806 109.859 7.07975 121.229C8.83098 132.6 9.47243 136.395 11.2637 140.435C12.2855 142.74 13.9884 143.278 15.1567 142.587C16.7131 145.045 19.1947 143.355 19.1947 143.355C19.1947 143.355 22.9412 144.891 23.7199 141.511C26.7849 142.203 25.4716 135.519 25.8607 133.06C26.2498 130.601 24.6445 125.685 20.3625 118.925C17.6378 111.242 20.0705 42.7144 21.2383 34.1102C22.4061 25.5059 22.3573 1.84387 9.12293 0" transform="translate(7.826794 67.51014)" id="Fill-107" fill="#FFC2BD" stroke="none" />
      <path d="M20.5728 46.9995C20.5728 46.9995 23.3947 19.3421 20.67 10.7379C17.9453 2.13364 13.579 -4.39626 6.65741 3.66996C-1.51715 13.1961 0.137381 41.0069 0.137381 41.0069C0.137381 41.0069 9.18732 44.2337 20.5728 46.9995" transform="translate(7.762447 65.68362)" id="Fill-109" fill="#597EF7" stroke="none" />
      <path d="M0 0.0282048C0.121568 0.0507443 7.88215 -1.81567 8.36888 21.232L7.29825 40.5919" transform="translate(21.03695 73.01311)" id="Stroke-111" fill="none" stroke="#1D39C4" stroke-width="0.6199665" stroke-linecap="round" stroke-linejoin="round" />
      <path d="M0.0512189 0C0.0512189 0 -0.143106 6.76038 0.440329 8.75839" transform="translate(31.10612 200.2631)" id="Stroke-113" fill="none" stroke="#D18682" stroke-width="0.8083005" stroke-linecap="round" stroke-linejoin="round" />
      <path d="M0 0L6.4224 3.68774" transform="translate(32.13048 60.13495)" id="Stroke-115" fill="none" stroke="#1D39C4" stroke-width="0.6199665" stroke-linecap="round" stroke-linejoin="round" />
      <path d="M0 0C0 0 1.81708 9.88682 1.23318 17.2616" transform="translate(46.59643 67.20019)" id="Stroke-117" fill="none" stroke="#1D39C4" stroke-width="0.6199665" stroke-linecap="round" stroke-linejoin="round" />
    </g>
  </g>
</svg>
