<?xml version="1.0" encoding="utf-8"?>
<svg width="90px" height="305px" viewBox="0 0 90 305" version="1.1" xmlns:xlink="http://www.w3.org/1999/xlink" xmlns="http://www.w3.org/2000/svg">
  <desc>Created with Lunacy</desc>
  <defs>
    <path d="M0 0L18.4007 0L18.4007 16.5382L0 16.5382L0 0Z" transform="translate(0.2727683 0.2105006)" id="path_1" />
    <path d="M0 0L42.3791 0L42.3791 41.9458L0 41.9458L0 0Z" transform="translate(0.2426842 0.6079197)" id="path_2" />
    <clipPath id="mask_1">
      <use xlink:href="#path_1" />
    </clipPath>
    <clipPath id="mask_2">
      <use xlink:href="#path_2" />
    </clipPath>
  </defs>
  <g id="1.人物组件/5.用研/走路/看电脑" transform="translate(0.4233398 0.4232178)">
    <g id="分组" transform="translate(0.1601884 0)">
      <path d="M6.48529 54.7638L6.48529 54.7638C2.78831 54.578 -0.113826 49.679 0.00343174 43.8223L0.674781 10.2747C0.792039 4.41719 3.88448 -0.180322 7.58146 0.00543651C11.2789 0.191195 14.1811 5.09019 14.0638 10.9469L13.392 44.4945C13.2747 50.352 10.1823 54.9495 6.48529 54.7638" transform="translate(41.75158 55.70261)" id="Fill-1" fill="#CCD7EE" stroke="none" />
      <path d="M3.71849 0.0295556C1.30702 0.391936 -0.383613 3.96093 0.0753266 7.72786C0.86057 14.1685 1.98798 24.0951 2.70978 33.4013C3.35663 41.7422 2.75352 47.5502 3.86314 49.643C5.05927 51.8995 7.36983 49.7374 9.38532 52.5991C11.4008 55.4616 12.8579 57.6656 18.023 55.5012C24.0632 52.9699 18.5929 50.7514 15.6432 46.8513C10.4354 39.9653 9.73421 36.5828 9.31467 31.2621C8.45446 20.3655 8.24397 11.9318 8.20937 6.42146C8.18534 2.62027 6.10738 -0.329019 3.71849 0.0295556" transform="translate(32.38176 245.0422)" id="Fill-3" fill="#FFC6A0" stroke="none" />
      <g id="分组" transform="translate(35.08126 286.3683)">
        <path d="M0 0L18.4007 0L18.4007 16.5382L0 16.5382L0 0Z" transform="translate(0.2727683 0.2105006)" id="Clip-6" fill="none" stroke="none" />
        <g clip-path="url(#mask_1)">
          <path d="M0.111251 0C0.111251 0 1.02144 1.73882 4.10331 5.31923C6.53449 8.14291 8.11074 9.84595 9.36405 8.87528C11.652 7.10297 13.4263 6.162 13.4263 6.162C13.4263 6.162 15.6494 7.75845 17.34 9.61603C19.0297 11.4729 18.9292 14.7381 15.3562 15.9067C11.7827 17.0745 9.70285 16.8949 6.16445 13.0168C2.62557 9.13717 1.19348 10.9613 0.592778 8.63319C-0.345766 4.99339 0.111251 0 0.111251 0" transform="translate(0.2727683 0.2105006)" id="Fill-5" fill="#253368" stroke="none" />
        </g>
      </g>
      <path d="M7.81508 58.6782L0.33749 18.2392C-1.14121 9.8443 2.39815 1.31389 7.84824 0.133866C12.566 -0.887805 16.979 4.04088 17.9569 11.4232L23.4527 52.9059C23.4527 52.9059 25.4273 64.5874 17.609 67.3555C10.006 70.0482 7.81508 58.6782 7.81508 58.6782" transform="translate(16.34427 148.1434)" id="Fill-7" fill="#253368" stroke="none" />
      <path d="M0.0251273 12.3411L8.34419 86.1404C8.54266 87.9043 9.52254 89.1772 10.6533 89.1414L18.6369 88.8879C19.9811 88.8453 21.0162 86.9915 20.8778 84.8713L16.0717 11.26C16.0717 11.26 15.5517 -1.30148 7.08847 0.110738C-0.80577 1.42779 0.0251273 12.3411 0.0251273 12.3411" transform="translate(23.97651 188.2473)" id="Fill-9" fill="#253368" stroke="none" />
      <path d="M1.77028 10.8183L14.858 10.4034C15.1353 10.3943 15.3501 10.0174 15.3275 9.57967L14.8686 0.699046C14.8479 0.297838 14.634 -0.00820655 14.3798 0.000167806L0.471313 0.441725C0.166634 0.45086 -0.0558673 0.901553 0.0123729 1.37204L1.29212 10.2275C1.34258 10.5793 1.54201 10.8259 1.77028 10.8183" transform="translate(30.48871 267.1175)" id="Fill-11" fill="#4E5C93" stroke="none" />
      <path d="M17.4151 0.797289C15.2891 -1.0405 12.6267 0.41816 11.6767 3.94757C10.0524 9.98166 7.48037 19.2079 4.79064 27.5602C2.38061 35.0461 -0.171191 39.3246 0.00902138 42.0425C0.20365 44.9727 2.88232 45.2293 3.54166 49.3883C4.20099 53.5473 4.62966 56.6656 9.67463 59.4505C15.575 62.7073 11.8252 56.0192 10.7583 50.1732C8.87497 39.8484 9.48817 36.4233 11.0197 31.6423C14.1569 21.8496 16.9614 14.6736 18.8794 10.0761C20.2024 6.90447 19.5219 2.61757 17.4151 0.797289" transform="translate(13.80064 234.3899)" id="Fill-13" fill="#FFC6A0" stroke="none" />
      <path d="M2.68813 0C2.68813 0 2.82798 2.24813 4.11781 7.94725C5.13517 12.4435 5.84016 15.252 7.22178 15.5588C9.74379 16.1176 11.5464 16.9108 11.5464 16.9108C11.5464 16.9108 12.8247 20.205 13.5696 23.2426C14.314 26.2802 13.0775 28.8968 9.70342 26.6974C6.32937 24.4972 4.66902 22.5057 3.1067 16.1533C1.54439 9.80179 -0.287046 10.0439 0.037816 7.58107C0.545773 3.73267 2.68813 0 2.68813 0" transform="translate(13.33915 269.0232)" id="Fill-15" fill="#253368" stroke="none" />
      <path d="M21.6583 53.9952L18.0478 12.2468C17.2318 3.62807 11.8004 -1.8655 6.52191 0.586663C1.9527 2.70918 -0.802865 10.0657 0.208725 17.4358L5.89718 58.8531C5.89718 58.8531 7.10916 70.7926 14.9587 68.2567C22.5925 65.7901 21.6583 53.9952 21.6583 53.9952" transform="translate(27.33838 143.2613)" id="Fill-17" fill="#253368" stroke="none" />
      <path d="M32.2922 15.4592L11.9354 76.8507C11.4486 78.3185 10.2977 78.9915 9.22167 78.4373L1.62778 74.528C0.348515 73.8695 -0.329563 71.753 0.159172 69.9434L17.1246 7.09623C17.1246 7.09623 19.7321 -3.76681 27.5903 1.38798C34.9209 6.19637 32.2922 15.4592 32.2922 15.4592" transform="translate(16.2676 187.9744)" id="Fill-19" fill="#253368" stroke="none" />
      <path d="M12.4168 17.3358L0.298905 9.49131C0.0422829 9.32534 -0.0725721 8.85029 0.0480497 8.45517L2.49268 0.430273C2.60273 0.0678926 2.87185 -0.0950264 3.10685 0.056473L15.9846 8.39351C16.2671 8.57622 16.3714 9.12284 16.2013 9.52328L12.9974 17.0564C12.87 17.3556 12.6273 17.4728 12.4168 17.3358" transform="translate(14.86288 251.2101)" id="Fill-21" fill="#4E5C93" stroke="none" />
      <path d="M19.2137 43.8367L30.7117 26.5292C31.6906 25.3651 32.2048 23.4634 32.0626 21.5373L33.0208 0L0.167477 0.824493L0.000240211 23.6225C-0.0103322 25.0408 0.328466 26.4036 0.942148 27.4351C2.82548 30.5976 7.54655 36.8844 15.7584 43.6532C16.8729 44.5713 18.2396 45.0921 19.2137 43.8367" transform="translate(18.31415 137.2076)" id="Fill-23" fill="#253368" stroke="none" />
      <path d="M29.7619 0L0 0.967621" transform="translate(20.7708 143.8247)" id="Stroke-25" fill="none" stroke="#253368" stroke-width="0.649227142" stroke-linecap="round" stroke-linejoin="round" />
      <path d="M0.198713 0L0.281851 6.42921" transform="translate(33.20542 137.9495)" id="Stroke-27" fill="none" stroke="#253368" stroke-width="0.649227142" stroke-linecap="round" stroke-linejoin="round" />
      <path d="M2.75358 15.7346C2.75358 15.7346 0.971648 0.135512 13.462 0C20.4485 0.666902 20.8118 18.9854 20.8118 18.9854C20.8118 18.9854 21.4072 22.7934 20.6095 26.8147C19.7156 31.3185 17.1042 32.9926 13.6235 33.7433C7.11904 33.8476 4.33993 28.3784 4.33993 28.3784C4.33993 28.3784 -0.116832 29.231 0.00234837 20.2903C0.14844 11.9951 2.75358 15.7346 2.75358 15.7346" transform="translate(21.08144 5.491135)" id="Fill-29" fill="#FFC6A0" stroke="none" />
      <path d="M9.24132 6.84794C9.40904 10.8859 7.47813 14.375 4.92873 14.6399C2.37982 14.9048 0.177866 11.8467 0.0101492 7.8087C-0.157568 3.77075 1.77334 0.281688 4.32274 0.015993C6.87118 -0.248941 9.07361 2.80922 9.24132 6.84794" transform="translate(15.31925 3.474967)" id="Fill-31" fill="#253368" stroke="none" />
      <path d="M23.6988 25.0499C23.6988 25.0499 25.0424 20.7288 25.7465 15.6699C26.4505 10.611 20.0748 1.30332 19.2329 0.586937C18.3909 -0.12945 17.9536 -0.888471 12.5266 2.89293C-3.93469 5.65722 0.974288 29.2051 0.974288 29.2051C0.974288 29.2051 -0.856666 31.6086 0.501411 37.4173C2.06133 43.2055 7.23605 42.8743 7.23605 42.8743L7.03181 33.5872C7.03181 33.5872 5.29409 33.977 3.84711 30.9112C2.4006 27.8454 3.37471 23.8349 4.17005 23.4306C4.85437 22.5003 6.67235 22.7409 6.8146 26.1629C6.8862 27.8858 8.79597 23.809 9.33372 17.1651C15.0226 14.8043 16.2024 8.30047 16.2024 8.30047C16.2024 8.30047 16.6571 14.3643 15.8535 17.0212C18.8263 15.2641 20.3377 12.5341 19.7192 9.86419C23.2557 11.9083 23.6988 25.0499 23.6988 25.0499" transform="translate(18.15744 0.0001810317)" id="Fill-33" fill="#253368" stroke="none" />
      <path d="M1.7003 14.6026L1.27308 0.767395L12.6644 0C12.6644 0 13.0123 9.44017 13.3963 13.2444C21.068 18.9245 4.52698 25.5151 0.354716 18.6459C-0.933198 16.5241 1.7003 14.6026 1.7003 14.6026" transform="translate(23.74068 29.41283)" id="Fill-35" fill="#FFC6A0" stroke="none" />
      <path d="M6.97997 6.55256C6.91173 10.0774 5.29511 12.8592 3.36805 12.7663C1.44194 12.6734 -0.0651113 9.74014 0.00216779 6.21606C0.070408 2.69122 1.68703 -0.0913446 3.6141 0.00229577C5.54068 0.0951749 7.04773 3.02772 6.97997 6.55256" transform="translate(28.23892 16.20587)" id="Fill-37" fill="#FFFFFF" stroke="none" />
      <path d="M6.97997 6.55256C6.91173 10.0774 5.29511 12.8592 3.36805 12.7663C1.44194 12.6734 -0.0651113 9.74014 0.00216779 6.21606C0.070408 2.69122 1.68703 -0.0913446 3.6141 0.00229577C5.54068 0.0951749 7.04773 3.02772 6.97997 6.55256Z" transform="translate(28.23892 16.20587)" id="Stroke-39" fill="none" stroke="#4E5C93" stroke-width="0.84645" stroke-linecap="round" stroke-linejoin="round" />
      <path d="M6.53512 6.54161C6.46736 10.0664 4.95021 12.8536 3.14617 12.766C1.34213 12.6792 -0.0649636 9.75127 0.00231554 6.22643C0.0705558 2.70159 1.5877 -0.0855426 3.39174 0.0020074C5.19578 0.0887961 6.60336 3.01677 6.53512 6.54161" transform="translate(36.40617 14.94026)" id="Fill-41" fill="#FFFFFF" stroke="none" />
      <path d="M6.53512 6.54161C6.46736 10.0664 4.95021 12.8536 3.14617 12.766C1.34213 12.6792 -0.0649636 9.75127 0.00231554 6.22643C0.0705558 2.70159 1.5877 -0.0855426 3.39174 0.0020074C5.19578 0.0887961 6.60336 3.01677 6.53512 6.54161Z" transform="translate(36.40617 14.94026)" id="Stroke-43" fill="none" stroke="#4E5C93" stroke-width="0.84645" stroke-linecap="round" stroke-linejoin="round" />
      <path d="M0 0L1.34895 2.00756L0.0571872 4.05394" transform="translate(35.98996 23.72749)" id="Stroke-45" fill="none" stroke="#DD9987" stroke-width="0.6348375" stroke-linecap="round" stroke-linejoin="round" />
      <path d="M0 0.201747C0 0.201747 1.94485 0.843527 2.88579 0.408061" transform="translate(33.55661 29.18946)" id="Stroke-47" fill="none" stroke="#F5222D" stroke-width="0.84645" stroke-linecap="round" stroke-linejoin="round" />
      <g id="分组" transform="translate(35.08126 19.91191)">
        <path d="M0 0.556642C0 0.556642 0.581003 -0.148326 1.14807 0.437117" transform="translate(0.1211985 0.62003)" id="Fill-49" fill="#FFFFFF" stroke="none" />
        <path d="M0 0.556642C0 0.556642 0.581003 -0.148326 1.14807 0.437117" transform="translate(0.1211985 0.62003)" id="Stroke-51" fill="none" stroke="#4E5C93" stroke-width="0.84645" stroke-linecap="round" stroke-linejoin="round" />
      </g>
      <path d="M5.52025 0.363113C5.52025 0.363113 2.28605 0.842734 0 0.221511" transform="translate(30.82076 38.36481)" id="Stroke-52" fill="none" stroke="#DD9987" stroke-width="0.6348375" stroke-linecap="round" stroke-linejoin="round" />
      <path d="M1.08382 1.51299C1.11986 2.37935 0.906969 3.10716 0.609018 3.13761C0.310587 3.16882 0.0395476 2.49203 0.00398574 1.62566C-0.0320567 0.759297 0.180353 0.0322512 0.478785 0.00103768C0.776735 -0.0301758 1.04825 0.646624 1.08382 1.51299" transform="translate(32.12506 20.5458)" id="Fill-54" fill="#253368" stroke="none" />
      <path d="M1.0842 1.51299C1.11976 2.37935 0.90735 3.10716 0.609399 3.13761C0.310968 3.16882 0.0399293 2.49203 0.00388688 1.62566C-0.031675 0.759297 0.180735 0.0322512 0.479166 0.00103768C0.777117 -0.0301758 1.04816 0.646624 1.0842 1.51299" transform="translate(39.15155 19.95769)" id="Fill-56" fill="#253368" stroke="none" />
      <g id="分组" transform="translate(24.98939 22.19582)">
        <path d="M3.13521 0.182566L0 0.666579" transform="translate(0.1167293 0.06929029)" id="Fill-58" fill="#FFFFFF" stroke="none" />
        <path d="M3.13521 0.182566L0 0.666579" transform="translate(0.1167293 0.06929029)" id="Stroke-60" fill="none" stroke="#4E5C93" stroke-width="0.84645" stroke-linecap="round" stroke-linejoin="round" />
      </g>
      <path d="M17.506 0.991218L16.963 0.957721C17.3114 6.13459 5.00268 6.57386 3.16356 0.529106C3.11695 0.375323 3.07994 0.230675 3.04967 0.0928791L1.55174 0L0 90.0006C0 90.0006 10.6464 97.5269 20.992 91.6846C26.1999 19.9309 17.506 0.991218 17.506 0.991218" transform="translate(21.69492 45.35271)" id="Fill-61" fill="#597EF7" stroke="none" />
      <path d="M0 0C0 0 5.71825 4.21686 11.2327 0.269501" transform="translate(26.24583 52.94436)" id="Stroke-63" fill="none" stroke="#3C65D6" stroke-width="0.649227142" stroke-linecap="round" stroke-linejoin="round" />
      <path d="M0.00148654 0.266613C0.00148654 0.266613 3.02232 11.7547 3.2751 56.4806C3.47597 92.1027 2.38797 154.277 2.38797 154.277C2.38797 154.277 12.1742 153.115 14.1594 147.204C16.2066 141.109 16.2624 95.9344 16.1321 73.1539C15.8962 31.6658 16.7602 22.2812 14.6433 12.9971C12.2035 10.7635 8.34169 7.47845 4.56926 4.21854C3.65282 3.42679 2.06023 1.29742 1.47826 0.787345C-0.104718 -0.598228 0.00148654 0.266613 0.00148654 0.266613" transform="translate(37.02894 43.69452)" id="Fill-65" fill="#CCD7EE" stroke="none" />
      <path d="M0 0C0 0 1.81269 21.5647 1.60076 44.719" transform="translate(51.17894 65.67025)" id="Stroke-67" fill="none" stroke="#96A7CA" stroke-width="0.84645" stroke-linecap="round" stroke-linejoin="round" />
      <path d="M1.23457 9.62745C5.09399 6.86392 9.29701 5.83311 11.745 3.75247C13.3126 2.41942 14.5827 0.596101 15.8096 0C23.1051 56.035 20.1443 125.687 18.2663 157.748C9.01973 159.318 0 148.103 0 148.103C0 148.103 0.665102 96.7404 1.96551 67.5924C3.04678 43.3471 0.247491 10.3339 1.23457 9.62745" transform="translate(9.378373 42.7958)" id="Fill-69" fill="#CCD7EE" stroke="none" />
      <path d="M7.20249 67.9905C6.30864 53.0621 4.84532 46.5355 2.17674 30.3524C-0.491841 14.1694 0.0439889 4.00218 0.0439889 4.00218L3.88899 0" transform="translate(21.1979 42.59961)" id="Stroke-71" fill="none" stroke="#96A7CA" stroke-width="0.84645" stroke-linecap="round" stroke-linejoin="round" />
      <path d="M3.90507 68.3164C6.7529 22.5871 4.68551 4.67441 4.68551 4.67441L0 0" transform="translate(37.18339 43.25547)" id="Stroke-73" fill="none" stroke="#96A7CA" stroke-width="0.84645" stroke-linecap="round" stroke-linejoin="round" />
      <path d="M1.05532 0L9.3047 2.32502L8.62951 29.5904C8.57136 31.9382 7.22097 33.6679 5.75957 33.2659L0 31.6832" transform="translate(9.821359 129.7625)" id="Stroke-75" fill="none" stroke="#96A7CA" stroke-width="0.84645" stroke-linecap="round" stroke-linejoin="round" />
      <path d="M4.68768 0L0.42267 2.02355L0.000253319 31.1221C-0.0146442 32.1255 0.630274 32.8175 1.2132 32.424L5.20189 29.7282" transform="translate(46.877 130.8145)" id="Stroke-77" fill="none" stroke="#96A7CA" stroke-width="0.84645" stroke-linecap="round" stroke-linejoin="round" />
      <path d="M33.8382 41.4691L1.82581 41.9457C0.608541 41.9632 -0.271855 40.1094 0.0770358 38.2618L6.82609 2.51929C7.0534 1.31643 7.74878 0.48813 8.54075 0.47671L40.5541 0.000133911C41.7709 -0.0181374 42.6513 1.8364 42.3019 3.68408L35.5528 39.4266C35.326 40.6294 34.6306 41.457 33.8382 41.4691" transform="translate(43.10165 65.43678)" id="Fill-79" fill="#96A7CA" stroke="none" />
      <g id="分组" transform="translate(44.21199 64.82886)">
        <path d="M0 0L42.3791 0L42.3791 41.9458L0 41.9458L0 0Z" transform="translate(0.2426842 0.6079197)" id="Clip-82" fill="none" stroke="none" />
        <g clip-path="url(#mask_2)">
          <path d="M33.8382 41.4691L1.82581 41.9457C0.608541 41.9632 -0.271855 40.1094 0.0770358 38.2618L6.82657 2.51929C7.05388 1.31643 7.74878 0.48813 8.54075 0.47671L40.5541 0.000133911C41.7709 -0.0181374 42.6513 1.8364 42.3024 3.68408L35.5528 39.4266C35.326 40.6294 34.6306 41.457 33.8382 41.4691" transform="translate(0.2426842 0.6079197)" id="Fill-81" fill="#253368" stroke="none" />
        </g>
      </g>
      <path d="M1.82547 2.13406C1.82547 2.13406 5.95016 -0.644699 6.91658 0.139444C8.41402 1.35449 6.18179 5.4975 6.18179 5.4975C6.18179 5.4975 7.17416 7.70909 5.69834 9.6055C5.67912 12.3135 4.57622 12.9415 4.57622 12.9415C4.57622 12.9415 5.00585 15.2719 3.4123 15.97C1.81826 16.6681 -0.888283 14.5174 0.28766 11.6839C-0.418771 9.27509 0.928253 8.14303 0.928253 8.14303C0.928253 8.14303 0.510642 6.00758 1.83652 4.95545C1.19641 3.71377 1.3968 2.43097 1.82547 2.13406" transform="translate(79.23251 89.14318)" id="Fill-83" fill="#FFC999" stroke="none" />
      <path d="M0 0.912804L3.66046 0" transform="translate(81.06923 93.18591)" id="Stroke-85" fill="none" stroke="#DD936F" stroke-width="0.6280659" stroke-linecap="round" stroke-linejoin="round" />
      <path d="M3.19527 0.623891L0 0.137416" transform="translate(80.16087 97.14857)" id="Stroke-87" fill="none" stroke="#DD936F" stroke-width="0.6280659" stroke-linecap="round" stroke-linejoin="round" />
      <path d="M2.97182 0.910522L0 0" transform="translate(79.51989 100.8272)" id="Stroke-89" fill="none" stroke="#DD936F" stroke-width="0.6280659" stroke-linecap="round" stroke-linejoin="round" />
      <path d="M4.9657 58.221L4.9657 58.221C1.3927 56.7037 -0.728034 50.8858 0.230213 45.2255L6.54916 7.86678C7.50645 2.20648 11.1794 -1.15239 14.7519 0.364125C18.3254 1.8814 20.4457 7.69929 19.4884 13.3596L13.1689 50.7183C12.2112 56.3786 8.53918 59.7375 4.9657 58.221" transform="translate(0.0001222008 51.40342)" id="Fill-91" fill="#CCD7EE" stroke="none" />
      <path d="M6.58785 16.0253C6.58785 16.0253 1.01089 15.1186 0.140586 10.0665C-0.648021 5.49111 2.1383 3.69519 2.1383 3.69519C2.1383 3.69519 4.7295 1.21486 8.05694 0.417016C10.2493 -0.109045 14.4821 -0.43869 14.8118 1.34809C15.2423 3.67768 10.4381 3.60993 10.4122 5.37539C10.3862 7.18806 11.3786 7.31824 13.5724 8.79136C14.9439 9.71178 16.524 9.76431 17.5923 10.8956C19.6813 13.1072 14.8814 18.4896 6.58785 16.0253" transform="translate(35.24443 95.06301)" id="Fill-93" fill="#FFC6A0" stroke="none" />
      <path d="M0 0C0 0 2.30143 2.8016 6.23533 2.43694" transform="translate(46.0133 105.2673)" id="Stroke-95" fill="none" stroke="#DD9987" stroke-width="0.6348375" stroke-linecap="round" stroke-linejoin="round" />
      <path d="M5.37176 1.62691C5.37176 1.62691 2.61716 2.01593 0 0" transform="translate(44.95399 108.0246)" id="Stroke-97" fill="none" stroke="#DD9987" stroke-width="0.6348375" stroke-linecap="round" stroke-linejoin="round" />
      <path d="M0 0C0 0 1.42343 1.40308 4.60622 1.75328" transform="translate(43.15951 109.6299)" id="Stroke-99" fill="none" stroke="#DD9987" stroke-width="0.6348375" stroke-linecap="round" stroke-linejoin="round" />
      <path d="M38.1012 2.97219L37.7662 21.1399L6.50208 21.2161C2.80461 21.0455 -0.105209 16.158 0.00291844 10.3005C0.110565 4.44303 3.19579 -0.16667 6.89374 0.00462335L38.1012 2.97219Z" transform="translate(0.8130332 90.1663)" id="Fill-101" fill="#CCD7EE" stroke="none" />
      <path d="M2.448 0L31.7682 3.68319L31.4328 21.8517L0 21.9195" transform="translate(7.315019 89.46283)" id="Stroke-103" fill="none" stroke="#96A7CA" stroke-width="0.84645" stroke-linecap="round" stroke-linejoin="round" />
      <path d="M0.0980351 15.4271L0.382529 0" transform="translate(33.67916 94.31294)" id="Stroke-105" fill="none" stroke="#96A7CA" stroke-width="0.84645" stroke-linecap="round" stroke-linejoin="round" />
    </g>
  </g>
</svg>
