<?xml version="1.0" encoding="utf-8"?>
<svg width="58px" height="321px" viewBox="0 0 58 321" version="1.1" xmlns:xlink="http://www.w3.org/1999/xlink" xmlns="http://www.w3.org/2000/svg">
  <desc>Created with Lunacy</desc>
  <defs>
    <path d="M0 0L17.2705 0L17.2705 24.7264L0 24.7264L0 0Z" transform="translate(0 0.1514485)" id="path_1" />
    <clipPath id="mask_1">
      <use xlink:href="#path_1" />
    </clipPath>
  </defs>
  <g id="1.人物组件/4.商务拓展/站立/叉腰" transform="translate(0.4375 0.4373779)">
    <g id="分组" transform="translate(0 0.2621123)">
      <path d="M28.5482 69.649C20.9181 87.6805 10.6522 77.1696 8.04878 72.4783C5.10035 67.1642 1.40346 67.8287 0.280032 61.3343C-1.00495 53.9042 2.58922 49.1571 1.88714 45.8356C-0.218604 32.9947 5.57405 37.6082 4.679 29.674C3.18309 16.4148 4.47306 16.6727 8.04878 7.23826C12.3131 -4.01501 16.8467 1.21256 16.8467 1.21256C16.8467 1.21256 23.1176 -1.17476 25.9254 12.1096C26.4335 14.5111 28.4993 15.9469 28.5462 21.9986C28.6654 37.4187 33.9564 38.6383 35.0045 49.1571C36.0991 60.1383 31.0753 63.4496 28.5482 69.649" transform="translate(12.48874 0.0005219034)" id="Fill-1" fill="#253368" stroke="none" />
      <path d="M2.33711 3.40529C2.72056 -0.407661 0.929956 0.0138157 0.929956 0.0138157C0.929956 0.0138157 0.064324 3.97853 0 7.18678C2.52858 7.2261 2.33711 3.40529 2.33711 3.40529" transform="translate(34.69953 20.72811)" id="Fill-3" fill="#F4B784" stroke="none" />
      <path d="M0.0432055 3.40529C-0.339747 -0.407661 1.94899 0.0138157 1.94899 0.0138157C1.94899 0.0138157 2.81462 3.97853 2.87895 7.18678C0.350365 7.2261 0.0432055 3.40529 0.0432055 3.40529" transform="translate(19.66294 20.72811)" id="Fill-5" fill="#F4B784" stroke="none" />
      <path d="M4.40944 19.9258L4.40944 19.9258C2.18702 19.9258 0.410876 17.0116 0 13.5101L0.337577 0L7.98216 0L8.32024 13.5101C8.408 17.0116 6.63136 19.9258 4.40944 19.9258" transform="translate(23.92276 30.7814)" id="Fill-7" fill="#F4B784" stroke="none" />
      <path d="M0 0.428161L0.664682 0.358177" transform="translate(28.24918 31.53015)" id="Stroke-9" fill="none" stroke="#DD936F" stroke-width="0.6709716" stroke-linecap="round" stroke-linejoin="round" />
      <path d="M6.96348 30.1112C3.16387 30.1112 0.501154 23.8873 0.0837956 16.2732C-0.613796 3.54324 3.16387 0 6.96348 0C10.7626 0 14.7766 3.25072 13.8427 16.2732C13.2313 24.7971 10.7626 30.1112 6.96348 30.1112Z" transform="translate(21.57925 7.091031)" id="Fill-11" fill="#FFC999" stroke="none" />
      <path d="M18.1343 9.7491C17.2916 4.59938 15.701 -0.58337 10.927 0.74554C5.17078 -4.12582 -3.71043 16.4353 1.66088 17.3247C6.71555 18.1621 6.13015 11.9249 7.19973 7.83044C8.18254 4.06624 9.99109 8.27314 9.99109 8.27314C9.99109 8.27314 10.9904 6.50153 12.1133 7.16598C13.9956 8.27865 11.9567 14.177 16.7302 17.8672C17.3116 18.3162 16.8099 23.4447 17.0114 23.0335C17.9473 21.114 18.9765 14.8965 18.1343 9.7491" transform="translate(18.12734 3.689244)" id="Fill-13" fill="#253368" stroke="none" />
      <path d="M0 0L3.36978 0.936527" transform="translate(23.15785 16.53761)" id="Stroke-15" fill="none" stroke="#253368" stroke-width="0.8748" stroke-linecap="round" stroke-linejoin="round" />
      <path d="M0 0.713994L4.05541 0.072343" transform="translate(29.67906 16.76046)" id="Stroke-17" fill="none" stroke="#253368" stroke-width="0.8748" stroke-linecap="round" stroke-linejoin="round" />
      <path d="M0 0L0.514592 1.8707L0.327604 8.33911L1.42011 9.07748" transform="translate(26.9955 18.16132)" id="Stroke-19" fill="none" stroke="#DD936F" stroke-width="0.6709716" stroke-linecap="round" stroke-linejoin="round" />
      <path d="M0 1.88249C0 0.842953 0.439797 0 0.982812 0C1.52533 0 1.96562 0.842953 1.96562 1.88249" transform="translate(23.86003 20.25274)" id="Stroke-21" fill="none" stroke="#253368" stroke-width="0.8748" stroke-linecap="round" stroke-linejoin="round" />
      <path d="M0 1.88249C0 0.842953 0.439797 0 0.982812 0C1.52583 0 1.96562 0.842953 1.96562 1.88249" transform="translate(30.59895 20.25274)" id="Stroke-23" fill="none" stroke="#253368" stroke-width="0.8748" stroke-linecap="round" stroke-linejoin="round" />
      <path d="M3.46358 0.0772899C1.80096 0.110725 -1.23051e-14 -3.23018e-15 0 2.30727e-16C-1.23051e-14 -3.23018e-15 0.230504 2.10756 1.70551 2.07789C3.32123 2.0454 3.46358 0.0772899 3.46358 0.0772899Z" transform="matrix(0.9993908 -0.0348995 0.0348995 0.9993908 26.59884 28.88515)" id="Stroke-25" fill="#FFFFFF" stroke="#B53026" stroke-width="0.8748" stroke-linecap="round" stroke-linejoin="round" />
      <path d="M0 0.393169L0.982811 0.393169" transform="translate(27.93144 32.51433)" id="Stroke-27" fill="none" stroke="#DD936F" stroke-width="0.6709716" stroke-linecap="round" stroke-linejoin="round" />
      <path d="M0.814008 0.15938C0.770626 -0.0576496 0.575161 -0.0513589 0.537763 0.168029C0.204674 2.10871 -0.571204 7.33392 0.714779 7.45659C2.16481 7.59577 1.20843 2.14016 0.814008 0.15938" transform="translate(35.10629 26.6743)" id="Fill-29" fill="#FFFFFF" stroke="none" />
      <path d="M0.814008 0.15938C0.770626 -0.0576496 0.575161 -0.0513589 0.537763 0.168029C0.204674 2.10871 -0.571204 7.33392 0.714779 7.45659C2.16481 7.59577 1.20843 2.14016 0.814008 0.15938" transform="translate(20.53579 26.6743)" id="Fill-31" fill="#FFFFFF" stroke="none" />
      <path d="M1.96686 44.6832L1.96686 44.6832C-0.0521186 42.5593 -0.601117 38.1621 0.714784 34.6613L11.2869 5.41904C13.0406 0.756059 15.6724 -1.60688 18.3615 1.22314C21.0197 4.01936 20.5899 10.2361 18.6014 14.5799L8.36436 42.5522C6.83504 45.8926 4.01077 46.833 1.96686 44.6832" transform="translate(0.1657577 48.60216)" id="Fill-33" fill="#FFC999" stroke="none" />
      <path d="M7.58126 28.5148L0 18.9946L4.63283 5.71024C6.90012 -0.758956 9.69448 -0.436558 13.2383 0.530637L13.0762 0.80271C15.9509 3.49985 16.101 11.2712 14.3403 15.7565L7.58126 28.5148Z" transform="translate(6.644723 47.1048)" id="Fill-35" fill="#597EF7" stroke="none" />
      <g id="分组" transform="translate(0 81.22941)">
        <path d="M0 0L17.2705 0L17.2705 24.7264L0 24.7264L0 0Z" transform="translate(0 0.1514485)" id="Clip-38" fill="none" stroke="none" />
        <g clip-path="url(#mask_1)">
          <path d="M16.59 16.907L17.2706 24.7264C17.2706 24.7264 4.3709 17.6682 1.35465 11.8635C-3.53996 2.44472 6.40334 0 6.40334 0L16.59 16.907Z" transform="translate(-0.0001063378 0.1514485)" id="Fill-37" fill="#FFC999" stroke="none" />
        </g>
      </g>
      <path d="M3.79063 4.87057C3.79063 4.87057 2.24636 0 0 0" transform="translate(5.942794 82.26186)" id="Stroke-39" fill="none" stroke="#DD936F" stroke-width="0.5" stroke-linecap="round" stroke-linejoin="round" />
      <path d="M0 0L7.58126 9.52018L8.35365 7.97031" transform="translate(6.644674 66.0991)" id="Stroke-41" fill="none" stroke="#1D39C4" stroke-width="0.6561" stroke-linecap="round" stroke-linejoin="round" />
      <path d="M19.4083 43.6145L19.4083 43.6145C21.359 41.3373 21.7708 36.9024 20.3477 33.5085L9.72079 4.86935C7.82498 0.347912 4.28167 -1.56131 1.68328 1.47237C-0.884697 4.47068 -0.262399 10.6474 1.8588 14.8322L12.952 41.9797C14.5835 45.1982 17.4337 45.9201 19.4083 43.6145" transform="translate(35.3209 49.68656)" id="Fill-43" fill="#FFC999" stroke="none" />
      <path d="M7.9057 28.092L15.4875 18.5718L10.8541 5.2882C9.19568 0.706217 4.85605 -1.8423 2.53889 1.58062L2.41123 0.379887C-0.463901 3.07702 -0.613491 10.8484 1.14719 15.3337L7.9057 28.092Z" transform="translate(34.04744 48.16117)" id="Fill-45" fill="#597EF7" stroke="none" />
      <path d="M16.0986 25.5104C16.1076 25.3083 15.041 75.4987 15.1572 79.0977C15.4733 88.9199 16.2327 90.2102 12.9936 93.0867C12.1638 93.8235 10.8539 93.1747 9.58341 95.6761C6.10542 102.525 0.830352 106.67 0.0265512 102.964C-0.528929 99.4756 7.80876 87.5375 8.43954 80.1837C9.09474 72.5452 3.79923 13.4071 6.95061 8.85187C10.102 4.29741 13.6049 -15.6921 16.0986 25.5104" transform="translate(9.103225 211.4319)" id="Fill-47" fill="#FFC999" stroke="none" />
      <path d="M18.5332 11.8981C18.5332 11.8981 19.4398 6.4747 18.5307 0C18.5307 0 15.859 4.26903 13.5593 8.89347C10.9031 14.2327 10.226 14.5488 10.226 14.5488C6.72752 16.587 5.81851 13.4432 5.81851 13.4432C5.81851 13.4432 4.01145 17.5377 0.497566 22.078C-2.64883 26.1434 10.0943 25.8603 11.6655 20.65C13.2367 15.4405 15.4317 12.2905 15.4317 12.2905L16.6848 19.8833L17.8945 19.7284L18.5332 11.8981Z" transform="translate(5.748997 293.709)" id="Fill-49" fill="#253368" stroke="none" />
      <path d="M20.1449 23.4108L20.3195 96.5457L0.00502809 95.3166C0.00502809 95.3166 -0.0847264 62.377 0.49419 23.0334C0.49419 23.0334 -0.117636 0 10.1782 0C20.4735 0 20.1449 23.4108 20.1449 23.4108" transform="translate(8.018773 176.5004)" id="Fill-51" fill="#CCD7EE" stroke="none" />
      <path d="M0.0546388 79.0731C0.573719 47.3601 1.55005 8.22805 3.38054 1.30042C3.38054 1.30042 5.6269 -2.88368 12.366 3.75851C20.2235 11.5031 19.5114 22.7989 19.5114 22.7989L19.6101 80.1598C19.4496 84.3541 19.1713 97.3774 8.90244 97.3774C-1.20591 97.3774 0.0431702 79.7635 0.0546388 79.0731" transform="translate(8.545635 117.2005)" id="Fill-53" fill="#CCD7EE" stroke="none" />
      <path d="M5.63397e-05 25.5104C-0.00891911 25.3083 1.05766 75.4987 0.941481 79.0977C0.625346 88.9207 -0.134077 90.2103 3.10506 93.0867C3.93479 93.8235 5.24471 93.1747 6.51523 95.6761C9.99322 102.525 15.2683 106.671 16.0721 102.964C16.6276 99.4757 8.28988 87.5375 7.6591 80.1837C7.0039 72.5452 12.2994 13.4071 9.14803 8.85187C5.99665 4.29741 2.49373 -15.6921 5.63397e-05 25.5104" transform="translate(31.62927 211.554)" id="Fill-55" fill="#FFC999" stroke="none" />
      <path d="M0.40216 11.8981C0.40216 11.8981 -0.50436 6.4747 0.404653 0C0.404653 0 3.07635 4.26903 5.37605 8.89347C8.03229 14.2327 8.70944 14.5488 8.70944 14.5488C12.2079 16.587 13.1169 13.4432 13.1169 13.4432C13.1169 13.4432 14.9239 17.5377 18.4378 22.078C21.5842 26.1434 8.84108 25.8603 7.26987 20.65C5.69867 15.4405 3.50368 12.2905 3.50368 12.2905L2.2506 19.8833L1.04041 19.7284L0.40216 11.8981Z" transform="translate(32.14676 293.8311)" id="Fill-57" fill="#253368" stroke="none" />
      <path d="M0.174523 23.4108L0 96.5457L20.3144 95.3166C20.3144 95.3166 20.4042 62.377 19.8253 23.0334C19.8253 23.0334 20.4371 0 10.1413 0C-0.154079 0 0.174523 23.4108 0.174523 23.4108" transform="translate(28.99154 176.6225)" id="Fill-59" fill="#CCD7EE" stroke="none" />
      <path d="M19.5555 79.0737C19.0364 47.36 18.0601 8.22869 16.2296 1.30028C16.2296 1.30028 13.9832 -2.88382 7.24418 3.75916C-0.613322 11.503 0.0982313 22.7995 0.0982313 22.7995L0 80.1604C0.160561 84.354 0.4388 97.3781 10.7077 97.3781C20.8161 97.3781 19.5665 79.7641 19.5555 79.0737" transform="translate(29.23707 120.7426)" id="Fill-61" fill="#CCD7EE" stroke="none" />
      <path d="M35.9896 27.749C35.9896 27.749 35.3952 9.5941 27.6888 0.12031L7.0916 0C7.0916 0 0 9.96839 0 28.6345C0 28.6345 3.60165 29.7306 7.78471 34.0224C10.5132 36.8218 13.5634 40.6638 18.3304 40.6638C23.1906 40.6638 25.7406 37.1757 28.5015 34.3173C32.6008 30.0742 35.9896 27.749 35.9896 27.749" transform="translate(10.5998 102.9288)" id="Fill-63" fill="#CCD7EE" stroke="none" />
      <path d="M0 5.01762L20.7677 4.83519L19.8522 0L1.05362 0.0338125L0 5.01762Z" transform="translate(17.58909 98.21366)" id="Fill-65" fill="#CCD7EE" stroke="none" />
      <path d="M0 0.393169L19.3481 0.393169" transform="translate(18.35534 97.85438)" id="Stroke-67" fill="none" stroke="#DD936F" stroke-width="0.6709716" stroke-linecap="round" stroke-linejoin="round" />
      <path d="M19.4737 0.393169L0 0.393169" transform="translate(18.22225 102.5778)" id="Stroke-69" fill="none" stroke="#A3B5D6" stroke-width="0.6561" stroke-linecap="round" stroke-linejoin="round" />
      <path d="M0.249318 0L0.249318 43.8886" transform="translate(28.02564 98.13156)" id="Stroke-71" fill="none" stroke="#A3B5D6" stroke-width="0.6561" stroke-linecap="round" stroke-linejoin="round" />
      <path d="M28.2339 7.55355C24.3934 5.18353 21.5357 7.12185 20.2781 5.34002C19.5347 4.28554 19.598 0 19.598 0L10.3239 0C10.3239 0 10.5233 3.8735 9.78035 4.92797C8.52279 6.70981 5.56986 4.91932 2.10534 7.87988C-1.16621 10.6745 -0.0153582 20.1743 1.48254 26.5208C1.8286 27.9881 1.23123 30.7536 1.80965 32.7942C2.39206 34.8465 3.27664 37.3329 3.62768 38.6611C4.78102 43.0252 4.54417 47.7267 5.28813 51.6867C5.28813 51.6867 4.10288 55.3031 5.97376 56.7712L23.9476 56.7712C26.192 55.1553 24.6332 51.6867 24.6332 51.6867C25.3438 47.9076 24.912 44.8597 25.9651 39.3247C26.176 38.2183 26.9673 36.464 27.6425 34.1223C28.6956 30.469 28.2039 26.9635 28.3446 26.0781C29.5752 18.3169 31.5638 9.60904 28.2339 7.55355" transform="translate(13.15781 41.54101)" id="Fill-73" fill="#597EF7" stroke="none" />
      <path d="M0 0L5.6316 1.09065" transform="translate(25.02943 48.2833)" id="Stroke-75" fill="none" stroke="#1D39C4" stroke-width="0.6561" stroke-linecap="round" stroke-linejoin="round" />
      <path d="M1.4589 0C1.4589 0 -0.332197 5.94471 0.0547442 12.509C0.219793 15.306 0.889959 17.5078 2.0832 20.5651C2.0832 20.5651 3.31333 31.5864 3.67384 33.7268C2.79275 36.199 3.70177 38.6555 4.35947 38.8112L22.3921 38.8112C22.3921 38.8112 24.0626 37.5279 23.0189 33.7268C23.9997 25.6826 24.4276 20.8599 24.4276 20.8599C25.9863 17.2978 26.6261 14.5323 26.7303 11.5128C26.9417 5.35889 25.0519 0.294876 25.0519 0.294876" transform="translate(14.77235 59.50087)" id="Stroke-77" fill="none" stroke="#1D39C4" stroke-width="0.6561" stroke-linecap="round" stroke-linejoin="round" />
      <path d="M0 0.393169L22.1823 0.393169" transform="translate(16.65245 70.39942)" id="Stroke-79" fill="none" stroke="#1D39C4" stroke-width="0.6561" stroke-linecap="round" stroke-linejoin="round" />
      <path d="M1.07556 16.5713L0 24.6981C0 24.6981 13.8631 18.7746 17.2962 13.0312C22.8684 3.70994 12.5467 0 12.5467 0L1.07556 16.5713Z" transform="translate(37.8531 80.86227)" id="Fill-81" fill="#FFC999" stroke="none" />
      <path d="M0.0762063 5.0568C0.0762063 5.0568 2.163 0.157133 3.06453 0.0085155C4.46171 -0.221095 4.09222 4.26889 4.09222 4.26889C4.09222 4.26889 5.42208 5.09612 4.93492 7.47793C5.70082 9.37772 5.10994 10.6076 5.10994 10.6076C5.10994 10.6076 6.08078 11.9215 5.16628 13.554C4.25228 15.1856 1.73916 15.6322 1.74714 12.8132C0.559883 11.6432 1.1767 9.88648 1.1767 9.88648C1.1767 9.88648 0.270176 8.69911 0.895465 7.01321C0.0906668 6.60903 -0.138706 5.57106 0.0762063 5.0568" transform="translate(36.24778 91.51019)" id="Fill-83" fill="#FFC999" stroke="none" />
      <path d="M0 3.26566L2.29921 0" transform="translate(37.1433 95.25797)" id="Stroke-85" fill="none" stroke="#DD936F" stroke-width="0.5" stroke-linecap="round" stroke-linejoin="round" />
      <path d="M2.31018 12.5161L2.04541 10.599C2.04541 10.599 2.74998 9.40931 1.87038 7.46942C2.39894 5.51694 1.02769 4.26037 1.02769 4.26037C1.02769 4.26037 1.5348 0.222533 0 0" transform="translate(39.31231 91.51878)" id="Stroke-87" fill="none" stroke="#DD936F" stroke-width="0.5" stroke-linecap="round" stroke-linejoin="round" />
      <path d="M2.376 0L0 1.95719" transform="translate(37.42458 99.43932)" id="Stroke-89" fill="none" stroke="#DD936F" stroke-width="0.5" stroke-linecap="round" stroke-linejoin="round" />
      <path d="M2.34109 0L0 1.50111" transform="translate(37.99512 102.8224)" id="Stroke-91" fill="none" stroke="#DD936F" stroke-width="0.5" stroke-linecap="round" stroke-linejoin="round" />
      <path d="M0 4.87057C0 4.87057 2.04291 0 4.28927 0" transform="translate(45.94731 82.89542)" id="Stroke-93" fill="none" stroke="#DD936F" stroke-width="0.5" stroke-linecap="round" stroke-linejoin="round" />
      <path d="M8.35365 0L0.771889 9.52018L0 7.97031" transform="translate(41.18105 66.73305)" id="Stroke-95" fill="none" stroke="#1D39C4" stroke-width="0.6561" stroke-linecap="round" stroke-linejoin="round" />
      <path d="M5.48241 5.0568C5.48241 5.0568 3.39562 0.157133 2.49408 0.0085155C1.09691 -0.221095 1.46639 4.26889 1.46639 4.26889C1.46639 4.26889 0.136533 5.09612 0.623201 7.47793C-0.142205 9.37772 0.448679 10.6076 0.448679 10.6076C0.448679 10.6076 -0.522166 11.9215 0.392333 13.554C1.30633 15.1856 3.81946 15.6322 3.81148 12.8132C4.99823 11.6432 4.38142 9.88648 4.38142 9.88648C4.38142 9.88648 5.28794 8.69911 4.66265 7.01321C5.46795 6.60903 5.69682 5.57106 5.48241 5.0568" transform="translate(14.99433 91.51019)" id="Fill-97" fill="#FFC999" stroke="none" />
      <path d="M2.29871 3.26566L0 0" transform="translate(17.35847 95.25797)" id="Stroke-99" fill="none" stroke="#DD936F" stroke-width="0.5" stroke-linecap="round" stroke-linejoin="round" />
      <path d="M0.00264072 12.5161L0.267416 10.599C0.267416 10.599 -0.437655 9.40931 0.441939 7.46942C-0.0861165 5.51694 1.28513 4.26037 1.28513 4.26037C1.28513 4.26037 0.77802 0.222533 2.31282 0" transform="translate(15.17559 91.51878)" id="Stroke-101" fill="none" stroke="#DD936F" stroke-width="0.5" stroke-linecap="round" stroke-linejoin="round" />
      <path d="M0 0L2.376 1.95719" transform="translate(17.00015 99.43932)" id="Stroke-103" fill="none" stroke="#DD936F" stroke-width="0.5" stroke-linecap="round" stroke-linejoin="round" />
      <path d="M0 0L2.34159 1.50111" transform="translate(16.46426 102.8224)" id="Stroke-105" fill="none" stroke="#DD936F" stroke-width="0.5" stroke-linecap="round" stroke-linejoin="round" />
    </g>
  </g>
</svg>
