<?xml version="1.0" encoding="utf-8"?>
<svg width="71px" height="349px" viewBox="0 0 71 349" version="1.1" xmlns:xlink="http://www.w3.org/1999/xlink" xmlns="http://www.w3.org/2000/svg">
  <desc>Created with Lunacy</desc>
  <defs>
    <path d="M0 0L15.1123 0L15.1123 7.41989L0 7.41989L0 0Z" transform="translate(0.1999845 0.08815177)" id="path_1" />
    <clipPath id="mask_1">
      <use xlink:href="#path_1" />
    </clipPath>
  </defs>
  <g id="1.人物组件/9.互联网人群/站立/自信" transform="matrix(0.9993908 0.0348995 -0.0348995 0.9993908 12.677 0.6367188)">
    <g id="分组" transform="translate(0.2334162 0.2461652)">
      <path d="M0.224759 0L12.9772 0.0369248L14.1611 58.641L7.1082 67.4025L0.284981 66.1869C0.284981 66.1869 -0.313966 10.1713 0.224759 0" transform="translate(2.178401 191.42)" id="Fill-1" fill="#FF7A46" stroke="none" />
      <path d="M0.563934 1.83159C0.563934 1.83159 0.829561 20.1433 0.968211 28.8842C1.09659 36.9404 0 78.5576 0 78.5576L6.88951 79.0103C6.88951 79.0103 10.0962 52.7103 10.6765 39.6278C11.0597 30.9837 11.3454 1.79836 11.3454 1.79836C11.3454 1.79836 2.19971 -2.27001 0.563934 1.83159" transform="translate(1.484574 84.95997)" id="Fill-3" fill="#FFC999" stroke="none" />
      <path d="M37.3919 27.5407L20.733 40.2598C20.733 40.2598 16.6286 42.3387 13.7328 39.6417C9.19333 35.4109 2.87289 27.602 0 25.1022C0.407545 8.75561 3.73139 0 3.73139 0L32.344 0.323461C32.344 0.323461 36.0838 5.44788 37.3919 27.5407" transform="translate(10.7244 129.6611)" id="Fill-5" fill="#597EF7" stroke="none" />
      <path d="M0.0388923 41.0085C0.0388923 41.0085 -0.504968 14.5061 2.47482 8.37288C5.92145 -0.35393 13.4118 0.00202497 13.4118 0.00202497L12.6289 43.2587C12.6289 43.2587 5.75759 43.656 0.0388923 41.0085" transform="translate(1.648054 52.70294)" id="Fill-7" fill="#CCD7EE" stroke="none" />
      <path d="M3.60161 78.1005C11.3029 78.9291 31.9467 78.7615 31.9467 78.7615C34.2445 77.4566 33.6787 69.9158 33.6787 69.9158L37.5697 10.396C37.5697 10.396 32.4789 5.35353 24.4826 1.54215C15.9941 -2.50333 6.06182 2.06648 0 7.67462L0.274498 25.3631C0.274498 25.3631 0.898186 54.2722 3.01667 66.8673C0.950938 73.4487 3.60161 78.1005 3.60161 78.1005" transform="translate(10.92187 46.7791)" id="Fill-9" fill="#CCD7EE" stroke="none" />
      <path d="M19.9118 5.69159C19.9118 5.69159 20.2792 25.2462 17.2677 35.5475C16.2112 39.1595 14.5395 41.2516 11.4799 40.8876C4.84479 40.0974 0 1.65571 0 1.65571L6.07162 0L10.4314 11.4075L19.9118 5.69159Z" transform="translate(34.79256 84.6353)" id="Fill-11" fill="#FFC999" stroke="none" />
      <path d="M13.1719 0C13.1719 0 2.63732 3.59352 0.324631 14.1437C-0.863458 19.5679 1.38621 47.2113 4.20541 79.2701C4.68158 84.6863 4.90939 87.7695 5.40517 93.4352C7.68238 119.458 9.79713 135.529 11.3984 165.09C6.52043 184.705 19.6057 180.248 20.243 176.839C20.6463 174.682 19.5689 159.879 19.5689 159.879C19.5689 159.879 19.2496 153.61 19.4629 143.211C19.8966 122.009 20.397 94.5695 17.9041 75.8036C13.1957 40.3573 20.1104 30.5161 13.1719 0" transform="translate(31.72995 152.398)" id="Fill-13" fill="#FFC999" stroke="none" />
      <path d="M7.9472 6.91376C4.42355 15.354 5.95289 37.6396 8.41077 77.2311C10.1306 104.935 12.6169 156.245 12.6169 156.245C12.6169 156.245 13.6682 170.661 5.9571 174.958C2.5072 176.881 -0.804039 184.78 0.173975 186.602C1.80182 189.638 12.1972 185.811 17.3968 177.676C19.9294 177.558 22.5927 176.929 22.4311 173.988C21.0983 149.753 22.5474 133.141 22.7225 108.743C22.7925 99.0404 21.6394 88.3831 21.6711 79.7265C21.7813 49.5848 21.3808 16.9307 21.3808 16.9307C21.3808 16.9307 16.3371 -13.1844 7.9472 6.91376" transform="translate(5.545049 147.5129)" id="Fill-15" fill="#FFC999" stroke="none" />
      <path d="M19.0398 4.58003C19.0398 4.58003 8.38665 -12.1439 0 18.3234C1.09005 34.1686 3.82523 57.5605 3.82523 57.5605C3.82523 57.5605 12.3655 61.0528 22.435 55.5872C20.0509 13.6288 19.0398 4.58003 19.0398 4.58003" transform="translate(28.68947 149.0029)" id="Fill-17" fill="#597EF7" stroke="none" />
      <path d="M18.7727 59.6428C10.8501 63.7998 1.2319 60.4057 1.2319 60.4057C1.0349 49.5838 -0.993489 38.8394 0.617083 4.92178C11.9242 -10.4079 18.0047 14.9683 18.0047 14.9683L18.7727 59.6428Z" transform="translate(10.25362 145.6874)" id="Fill-19" fill="#597EF7" stroke="none" />
      <path d="M12.7754 23.4811C16.3167 22.7493 14.2711 14.6694 12.8351 6.14052C12.3972 3.53954 12.4234 4.25809 11.9038 1.89638C11.1755 -1.41577 2.25715 0.122516 2.32111 2.61568C2.44528 7.4196 1.46073 11.6534 1.46073 11.6534C-0.0658094 15.3798 -0.719375 20.6749 1.11341 22.606C5.88677 27.6374 12.7754 23.4811 12.7754 23.4811" transform="translate(40.07718 316.7155)" id="Fill-21" fill="#4E5C93" stroke="none" />
      <path d="M27.4746 12.3305C27.4746 12.3305 19.474 15.9476 16.786 18.1454C14.097 20.3432 6.07309 26.2135 0.595279 20.6681C-0.251088 19.2687 -0.0573529 17.576 0.332919 16.2571C0.704051 15.0024 1.37816 14.0386 2.19745 13.5483C4.6796 12.0654 10.6135 8.54202 13.5545 1.14968C13.8986 0.284163 14.5386 -0.153026 15.1721 0.0485831C15.9391 0.293025 16.9377 0.837296 17.6669 2.04326C18.2742 3.04835 16.6987 7.04287 17.3494 7.195C19.1379 7.61299 22.1139 6.68249 23.9948 4.59181C25.5699 2.8401 26.3294 1.06032 26.3294 1.06032C26.3294 1.06032 28.1855 8.2252 27.4746 12.3305" transform="translate(1.254965 315.1256)" id="Fill-23" fill="#4E5C93" stroke="none" />
      <path d="M0 19.8964C0 19.8964 0.762337 24.0837 6.93853 24.303C13.2464 24.5275 15.0194 20.0145 15.0194 20.0145L13.5003 18.9895C13.5003 18.9895 13.1222 11.9472 12.9135 1.67178C6.03988 -1.90032 1.30433 1.36309 1.30433 1.36309C1.30433 1.36309 1.44905 12.01 1.44858 18.9777C1.44858 18.9777 0.651231 19.5737 0 19.8964" transform="translate(20.57317 28.45234)" id="Fill-25" fill="#FFC999" stroke="none" />
      <path d="M16.9393 15.5884C16.9393 15.5884 17.2857 0.359128 10.0241 0.0157272C1.25323 -0.39783 0.867629 7.45016 0.339641 11.1227C-0.221491 15.0242 -0.749479 31.3959 4.55514 34.7523C6.80574 35.9243 8.19877 36.5772 12.0072 32.9822C17.548 27.7514 16.9393 15.5884 16.9393 15.5884" transform="translate(18.32455 6.745644)" id="Fill-27" fill="#FFC999" stroke="none" />
      <path d="M0 10.338L0.0163391 1.80987C0.0163391 1.80987 4.15621 -2.36337 4.6856 1.96422C5.22525 6.37673 3.33552 9.49613 1.58116 10.5965C0.453294 11.304 0 10.338 0 10.338" transform="translate(33.24739 23.33022)" id="Fill-29" fill="#FFC999" stroke="none" />
      <path d="M17.6921 4.07352C17.6921 4.07352 13.1148 -0.624791 11.0206 0.0701332C8.92689 0.765058 10.6257 3.27225 10.6257 3.27225C10.6257 3.27225 4.77908 1.94444 4.28144 4.04102C3.78426 6.13835 5.89948 7.0371 5.89948 7.0371C5.89948 7.0371 0.239604 9.79317 0.013657 12.5049C-0.212757 15.2159 2.45099 14.5018 2.45099 14.5018C2.45099 14.5018 0.487959 18.4506 1.17607 20.7148C1.86418 22.9797 3.17458 22.6578 3.17458 22.6578L4.13999 25.6753L4.3552 19.2215C4.3552 19.2215 6.37705 17.7313 10.1047 14.6938C7.87792 18.5126 9.29335 18.4624 11.1985 17.7763C13.4314 16.9721 16.0353 15.6354 15.9009 15.5372C15.9009 15.5372 16.0279 19.7267 17.8229 21.5729C20.0249 23.8371 18.5511 28.7245 19.123 28.9136C20.2238 29.2917 20.0072 24.5845 22.0981 23.6828C23.7381 23.4192 23.958 20.2222 23.4832 19.1647C25.6451 18.6056 25.5097 15.0742 22.6653 12.1202C25.0896 11.5183 23.5303 8.03555 19.897 6.7033C20.9287 0.324914 17.6921 4.07352 17.6921 4.07352" transform="translate(14.30111 9.771064E-05)" id="Fill-31" fill="#253368" stroke="none" />
      <path d="M4.56254 1.23592C4.09274 0.328943 2.36531 -0.701072 -6.89912e-13 0.653526" transform="matrix(0.9902681 -0.1391731 0.1391731 0.9902681 25.89675 21.22175)" id="Stroke-33" fill="none" stroke="#253368" stroke-width="1.2312" stroke-linecap="round" stroke-linejoin="round" />
      <path d="M1.7875 8.78071L0.195136 8.27337L0.374867 1.79011L0 0" transform="translate(23.27986 22.14919)" id="Stroke-35" fill="none" stroke="#DD936F" stroke-width="0.6090336" stroke-linecap="round" stroke-linejoin="round" />
      <path d="M2.47328 0.69425C2.47328 0.69425 1.38136 -0.849943 0 0.722313" transform="translate(27.20312 25.10007)" id="Stroke-37" fill="none" stroke="#253368" stroke-width="0.8208" stroke-linecap="round" stroke-linejoin="round" />
      <path d="M2.10261 0.622411C2.10261 0.622411 0.857104 -0.722388 0 0.693307" transform="translate(20.26221 25.16327)" id="Stroke-39" fill="none" stroke="#253368" stroke-width="0.8208" stroke-linecap="round" stroke-linejoin="round" />
      <path d="M4.83872 0C4.83872 0 2.37291 0.983676 0 0.509562C0 0.509562 0.668971 2.75237 2.33556 2.67262C4.43958 2.57144 4.83872 0 4.83872 0" transform="translate(22.71233 32.24752)" id="Fill-41" fill="#FFFFFF" stroke="none" />
      <path d="M4.83872 0C4.83872 0 2.37291 0.983676 0 0.509562C0 0.509562 0.668971 2.75237 2.33556 2.67262C4.43958 2.57144 4.83872 0 4.83872 0Z" transform="translate(22.71233 32.24752)" id="Stroke-43" fill="none" stroke="#FF7A46" stroke-width="0.6943968" stroke-linecap="round" stroke-linejoin="round" />
      <path d="M0 0C0 0 2.81827 3.26046 6.92313 0.553871" transform="translate(22.09084 41.0193)" id="Stroke-45" fill="none" stroke="#DD936F" stroke-width="0.6090336" stroke-linecap="round" stroke-linejoin="round" />
      <path d="M1.18482 0.320876L0 0.417619" transform="translate(24.7136 36.43184)" id="Stroke-47" fill="none" stroke="#DD936F" stroke-width="0.6090336" stroke-linecap="round" stroke-linejoin="round" />
      <path d="M2.36777 0.194877C2.36777 0.194877 1.65492 -0.681717 0.936933 1.28342C0.218478 3.24856 0.90052 1.87348 1.2231 3.04104C1.54568 4.20934 0.701183 4.93085 0 4.95374" transform="translate(34.52081 25.65498)" id="Stroke-49" fill="none" stroke="#DD936F" stroke-width="0.6090336" stroke-linecap="round" stroke-linejoin="round" />
      <path d="M3.03952 39.3218L12.6885 37.8065C12.6885 37.8065 12.793 9.78645 8.30118 2.96275C3.06753 -4.98789 0.0247114 5.58072 0.0247114 5.58072C0.0247114 5.58072 -0.174159 11.3971 0.556434 21.6829C1.08489 29.1328 1.61147 35.1279 1.86216 37.8677C1.94479 38.7746 2.46391 39.4119 3.03952 39.3218" transform="translate(42.37423 56.30072)" id="Fill-51" fill="#CCD7EE" stroke="none" />
      <path d="M12.4638 25.0978C12.4638 25.0978 12.6898 2.4046 9.20579 2.28053C7.67971 -1.15421 7.31745 0.612267 7.31745 0.612267C7.31745 0.612267 5.87914 -1.04049 5.62378 1.0849C4.16773 0.677993 4.69899 4.02412 5.60931 7.80005C6.35811 10.9039 5.32641 15.2773 4.5398 15.2493C3.75318 15.2212 1.95261 10.2253 0.174445 12.6328C-0.698532 13.8158 1.94001 15.0085 2.89608 18.9565C3.85215 22.9038 4.64577 27.17 6.87583 28.4942C9.10682 29.819 12.4335 27.2321 12.4638 25.0978" transform="translate(28.56521 59.19629)" id="Fill-53" fill="#FFC999" stroke="none" />
      <path d="M0.517656 0C0.517656 0 0.0531574 1.05531 0.725863 3.02045C1.3995 4.98558 1.42191 9.56204 1.40651 10.6705C1.39063 11.779 -1.06537 18.0702 0.549867 21.5936" transform="translate(37.25311 61.47652)" id="Stroke-55" fill="none" stroke="#DD936F" stroke-width="0.6090336" stroke-linecap="round" stroke-linejoin="round" />
      <path d="M0.187222 0C0.187222 0 -0.344501 0.624767 0.384225 2.68C1.47988 5.76913 1.41312 10.4807 1.56671 12.0124" transform="translate(35.6952 59.8084)" id="Stroke-57" fill="none" stroke="#DD936F" stroke-width="0.6090336" stroke-linecap="round" stroke-linejoin="round" />
      <path d="M0 0C0 0 0.140516 2.00649 0.81789 3.69396C1.4948 5.38216 1.506 10.7894 1.506 10.7894" transform="translate(34.1888 60.28148)" id="Stroke-59" fill="none" stroke="#DD936F" stroke-width="0.6090336" stroke-linecap="round" stroke-linejoin="round" />
      <path d="M0 5.39546L0.339854 0L28.692 0.176501L29.0571 5.31865C29.0571 5.31865 2.89109 5.49885 0 5.39546" transform="translate(14.18657 124.6717)" id="Fill-61" fill="#597EF7" stroke="none" />
      <path d="M1.35284 44.6908C-0.0630592 31.2332 0.000430026 0 0.000430026 0" transform="translate(25.78333 125.0719)" id="Stroke-63" fill="none" stroke="#1D39C4" stroke-width="0.6156" stroke-linecap="round" stroke-linejoin="round" />
      <path d="M3.70105 0C3.70105 0 4.24211 19.565 4.15948 25.3858C4.10019 29.5435 0 30.2296 0 30.2296" transform="translate(26.38612 130.6326)" id="Stroke-65" fill="none" stroke="#1D39C4" stroke-width="0.6156" stroke-linecap="round" stroke-linejoin="round" />
      <path d="M0 0L8.19338 3.20286L11.8944 38.8301C11.8944 38.8301 20.1602 43.1451 30.5047 36.8568" transform="translate(20.62013 167.7334)" id="Stroke-67" fill="none" stroke="#1D39C4" stroke-width="0.6156" stroke-linecap="round" stroke-linejoin="round" />
      <path d="M0.110988 7.40711C0.110988 7.40711 1.37424 11.1225 7.42299 10.305C13.4722 9.48745 16.1878 5.07937 19.3557 4.22345C25.2452 2.63274 27.7661 0 27.7661 0C27.7661 0 28.1018 1.40462 27.6373 3.35129C26.9202 6.35328 21.3309 5.66352 18.0906 8.25564C15.7461 10.1314 13.9064 11.22 9.96629 12.8867C6.02669 14.5543 0.983964 12.9879 0.360743 10.9002C-0.262478 8.8132 0.110988 7.40711 0.110988 7.40711" transform="translate(1.137416 326.6875)" id="Fill-69" fill="#96A7CA" stroke="none" />
      <path d="M6.8447 27.2169C6.8447 27.2169 1.42664 27.6046 1.14701 25.2938C0.0644229 16.3248 0 5.50954 0 5.50954C0 5.50954 0.415014 0.583777 2.75525 0.0358129C4.9643 -0.481134 6.90305 4.6972 8.20925 9.1806C9.97154 15.2289 8.84507 18.9073 8.85815 25.5848C8.86188 27.7058 8.61119 28.8837 6.8447 27.2169" transform="translate(1.547503 157.7997)" id="Fill-71" fill="#FFC999" stroke="none" />
      <g id="分组" transform="translate(39.68076 335.7706)">
        <path d="M0 0L15.1123 0L15.1123 7.41989L0 7.41989L0 0Z" transform="translate(0.1999845 0.08815177)" id="Clip-74" fill="none" stroke="none" />
        <g clip-path="url(#mask_1)">
          <path d="M0.354099 0.580458C0.354099 0.580458 7.46536 6.11548 14.952 0C15.5103 3.65408 14.9557 7.26458 7.5956 7.41671C3.832 7.49425 1.74573 6.17382 0.672946 5.14658C-0.433447 4.08684 0.0992084 1.55601 0.354099 0.580458" transform="translate(0.1999845 0.08815177)" id="Fill-73" fill="#96A7CA" stroke="none" />
        </g>
      </g>
      <path d="M0 35.1694C0 35.1694 10.1111 39.1336 17.2877 33.7042L16.9778 0" transform="translate(11.48543 170.9239)" id="Stroke-75" fill="none" stroke="#1D39C4" stroke-width="0.6156" stroke-linecap="round" stroke-linejoin="round" />
      <path d="M0 3.09209L6.61782 0" transform="translate(20.25087 172.1149)" id="Stroke-77" fill="none" stroke="#1D39C4" stroke-width="0.6156" stroke-linecap="round" stroke-linejoin="round" />
      <path d="M0 0.248585C0 0.248585 20.6471 -0.126571 29.051 0.588292" transform="translate(14.18657 129.8186)" id="Stroke-79" fill="none" stroke="#1D39C4" stroke-width="0.6156" stroke-linecap="round" stroke-linejoin="round" />
      <path d="M0 0C0 0 1.67453 11.7066 5.33029 13.4997" transform="translate(39.27975 131.3754)" id="Stroke-81" fill="none" stroke="#1D39C4" stroke-width="0.6156" stroke-linecap="round" stroke-linejoin="round" />
      <path d="M0 0C0 0 3.39621 8.83832 4.72528 26.3562C5.62393 38.2002 7.19389 74.6959 7.19389 74.6959" transform="translate(41.54734 131.0574)" id="Stroke-83" fill="none" stroke="#1D39C4" stroke-width="0.6156" stroke-linecap="round" stroke-linejoin="round" />
      <path d="M0 1.8876C0 1.8876 12.0601 4.39554 17.1187 0" transform="translate(33.5688 198.3352)" id="Stroke-85" fill="none" stroke="#1D39C4" stroke-width="0.6156" stroke-linecap="round" stroke-linejoin="round" />
      <path d="M0 0.668339C0 0.668339 7.56829 4.68132 16.3121 0" transform="translate(12.28096 198.7979)" id="Stroke-87" fill="none" stroke="#1D39C4" stroke-width="0.6156" stroke-linecap="round" stroke-linejoin="round" />
      <path d="M0 0C0 0 0.014005 23.7101 3.07923 41.9443C3.07923 41.9443 0.244153 48.5494 3.40554 53.3652C3.40554 53.3652 22.8865 52.8822 31.8394 53.9589" transform="translate(11.12074 71.30701)" id="Stroke-89" fill="none" stroke="#96A7CA" stroke-width="0.8208" stroke-linecap="round" stroke-linejoin="round" />
      <path d="M0 0C0 0 5.7229 2.23099 10.4781 2.7989" transform="translate(1.686946 93.71141)" id="Stroke-91" fill="none" stroke="#96A7CA" stroke-width="0.8208" stroke-linecap="round" stroke-linejoin="round" />
      <path d="M0 1.66752C0 1.66752 7.24571 7.82731 15.2453 0" transform="translate(21.03864 52.23506)" id="Stroke-93" fill="none" stroke="#96A7CA" stroke-width="0.8208" stroke-linecap="round" stroke-linejoin="round" />
      <path d="M0 0C0 0 5.78359 9.14922 15.4512 0.0723725" transform="translate(20.33746 48.63504)" id="Stroke-95" fill="none" stroke="#96A7CA" stroke-width="0.8208" stroke-linecap="round" stroke-linejoin="round" />
      <path d="M0 1.49176L10.0159 0" transform="translate(45.04676 94.10695)" id="Stroke-97" fill="none" stroke="#96A7CA" stroke-width="0.8208" stroke-linecap="round" stroke-linejoin="round" />
      <path d="M0 0C0 0 7.40023 17.7845 8.86001 21.4245" transform="translate(41.01758 85.78551)" id="Stroke-99" fill="none" stroke="#DD936F" stroke-width="0.6090336" stroke-linecap="round" stroke-linejoin="round" />
      <path d="M3.4709 0C3.4709 0 2.26647 10.7724 0 9.8604" transform="translate(12.59715 130.2727)" id="Stroke-101" fill="none" stroke="#1D39C4" stroke-width="0.6156" stroke-linecap="round" stroke-linejoin="round" />
      <path d="M1.57709 0.99886C1.56916 1.53501 1.21016 1.95669 0.774608 1.94044C0.33952 1.92567 -0.00780281 1.47814 0.00013334 0.942734C0.00806949 0.406587 0.366597 -0.015094 0.802618 0.000414415C1.23771 0.0159228 1.58456 0.462712 1.57709 0.99886" transform="translate(27.11186 126.2564)" id="Fill-103" fill="#1D39C4" stroke="none" />
      <path d="M2.43321 0C2.43321 0 0.510323 6.13764 0.000541431 21.6512C-0.0162645 22.1645 0.361403 23.5329 0.683051 23.4716C1.60598 23.2966 1.66947 21.2783 1.66947 21.2783C1.66947 21.2783 1.64613 9.12338 3.4369 3.36385C3.72073 1.91787 2.43321 0 2.43321 0" transform="translate(3.990456 176.7958)" id="Fill-105" fill="#4E5C93" stroke="none" />
      <path d="M0 0C0 0 1.97143 0.0701571 2.435 4.45387C2.89856 8.83831 3.86491 9.68906 4.65339 9.71638" transform="translate(4.992633 175.7053)" id="Stroke-107" fill="none" stroke="#DD936F" stroke-width="0.6090336" stroke-linecap="round" stroke-linejoin="round" />
      <path d="M0 0.0110775C0 0.0110775 2.42473 2.20294 7.09725 0" transform="translate(3.361894 330.8469)" id="Stroke-109" fill="none" stroke="#96A7CA" stroke-width="0.7641648" stroke-linecap="round" stroke-linejoin="round" />
      <path d="M0 0C0 0 1.96723 0.466728 2.86775 2.36096" transform="translate(13.01585 319.9716)" id="Stroke-111" fill="none" stroke="#96A7CA" stroke-width="0.8208" stroke-linecap="round" stroke-linejoin="round" />
      <path d="M0 1.34333C0 1.34333 2.40139 4.18211 6.20187 3.23462C10.0033 2.28565 9.97527 0 9.97527 0" transform="translate(42.41308 330.4543)" id="Stroke-113" fill="none" stroke="#96A7CA" stroke-width="0.8208" stroke-linecap="round" stroke-linejoin="round" />
      <path d="M0 0.61122C0 0.61122 5.15476 -0.817029 7.09866 0.728641" transform="translate(43.88743 322.7976)" id="Stroke-115" fill="none" stroke="#96A7CA" stroke-width="0.8208" stroke-linecap="round" stroke-linejoin="round" />
      <path d="M1.48873 0C1.48873 0 0.709118 3.16519 0 3.97902" transform="translate(31.75866 33.66824)" id="Stroke-117" fill="none" stroke="#DD936F" stroke-width="0.6090336" stroke-linecap="round" stroke-linejoin="round" />
      <path d="M3.50685 0.876832C3.04134 0.461202 2.62304 0.215278 2.24716 0.0941448C1.20722 -0.240991 0.491985 0.379073 0 1.00311" transform="translate(19.5924 21.20889)" id="Stroke-119" fill="none" stroke="#253368" stroke-width="1.2312" stroke-linecap="round" stroke-linejoin="round" />
      <path d="M9.41834 67.5243L8.18637 0.230411L1.70207 0L0 66.0939L9.41834 67.5243Z" transform="translate(9.336649E-05 191.3014)" id="Fill-121" fill="#FAAD14" stroke="none" />
    </g>
  </g>
</svg>
