<?xml version="1.0" encoding="utf-8"?>
<svg width="97px" height="339px" viewBox="0 0 97 339" version="1.1" xmlns:xlink="http://www.w3.org/1999/xlink" xmlns="http://www.w3.org/2000/svg">
  <desc>Created with Lunacy</desc>
  <defs>
    <path d="M0 0L21.4853 0L21.4853 25.6539L0 25.6539L0 0Z" transform="translate(0.06360245 0.2968156)" id="path_1" />
    <path d="M0 0L19.3585 0L19.3585 33.3161L0 33.3161L0 0Z" transform="translate(0.1118316 0.2850154)" id="path_2" />
    <path d="M0 0L25.9389 0L25.9389 35.3614L0 35.3614L0 0Z" transform="translate(0 0.2136139)" id="path_3" />
    <clipPath id="mask_1">
      <use xlink:href="#path_1" />
    </clipPath>
    <clipPath id="mask_2">
      <use xlink:href="#path_2" />
    </clipPath>
    <clipPath id="mask_3">
      <use xlink:href="#path_3" />
    </clipPath>
  </defs>
  <g id="1.人物组件/3.商务经理/站立/自信" transform="matrix(0.9993908 0.0348995 -0.0348995 0.9993908 12.11768 0.4262085)">
    <g id="分组" transform="translate(0.09867347 0.1821101)">
      <path d="M12.4233 3.0787C12.4233 3.0787 9.52624 15.9206 1.88738 19.5485C-3.11457 21.9234 2.45264 28.6587 11.2332 24.5325C16.2394 22.1799 14.8807 18.2221 17.7163 17.7853C19.3595 17.5318 22.5842 15.69 22.6264 13.6985C22.7 10.2181 22.6957 9.24385 22.6376 5.20073C22.5711 0.549622 15.2369 -2.66233 12.4233 3.0787" transform="translate(5.845445 305.4282)" id="Fill-1" fill="#253368" stroke="none" />
      <g id="分组" transform="translate(60.93087 307.5071)">
        <path d="M0 0L21.4853 0L21.4853 25.6539L0 25.6539L0 0Z" transform="translate(0.06360245 0.2968156)" id="Clip-4" fill="none" stroke="none" />
        <g clip-path="url(#mask_1)">
          <path d="M0 4.09879C0 4.09879 0.494946 10.2513 0.826316 12.4408C1.15769 14.6303 1.50031 15.9827 4.14236 16.5818C8.74452 17.6258 7.91726 23.5714 13.1512 25.0492C20.2858 27.0629 22.101 23.6374 21.316 20.7895C20.5304 17.9416 13.7699 15.0218 10.6113 3.04371C8.65593 -4.37374 0 4.09879 0 4.09879" transform="translate(0.06360245 0.2968156)" id="Fill-3" fill="#253368" stroke="none" />
        </g>
      </g>
      <path d="M0 19.684C0 19.684 6.93581 -11.4228 15.2613 4.5725C23.9576 44.6441 31.4206 126.612 36.5721 167.069C32.3918 170.234 25.7883 169.049 25.7883 169.049C25.7883 169.049 2.76064 44.8739 0 19.684" transform="translate(35.20824 143.4792)" id="Fill-5" fill="#4E5C93" stroke="none" />
      <path d="M18.2531 40.1924C18.2531 40.1924 16.427 40.747 14.6436 39.603C9.92662 36.5779 1.23648 29.2716 0.100349 26.0271C-0.443341 18.6734 1.32365 0.632456 2.95801 0.614661C6.09548 0.580554 16.7134 3.74951 21.1332 2.37634C24.5716 1.30717 28.9094 0 28.9094 0C28.9094 0 30.106 3.16005 30.967 6.12585C33.055 13.3179 32.9618 22.7135 32.9618 22.7135C32.9618 22.7135 20.5773 40.9843 18.2531 40.1924" transform="translate(17.64225 125.9631)" id="Fill-7" fill="#4E5C93" stroke="none" />
      <path d="M5.72016 67.7599C5.72016 67.7599 -2.1132 30.4896 0.553694 10.0626C5.28708 5.83862 9.37414 0.884259 18.9886 0.0605096C29.8164 -0.866301 40.1433 9.16031 40.1433 9.16031L38.6983 39.8555L33.4704 64.6607C33.4704 64.6607 38.3815 75.0602 28.5903 77.3365C21.7703 78.9224 11.2939 80.415 6.94393 76.5157C5.04899 74.817 4.8151 71.6333 5.72016 67.7599" transform="translate(13.33128 45.95979)" id="Fill-9" fill="#ADC6FF" stroke="none" />
      <path d="M13.6355 2.10737C13.6355 2.10737 4.87837 22.1613 0.236843 47.4647C-1.15613 55.0579 3.86176 60.377 8.31862 57.0672C12.7755 53.7581 22.9734 16.0763 23.5738 12.0257C24.7451 4.12633 18.4252 -3.9258 13.6355 2.10737" transform="translate(0.1192272 54.33384)" id="Fill-11" fill="#ADC6FF" stroke="none" />
      <path d="M0 16.5699L0.340744 5.34658L11.1072 0L12.2471 15.8321C12.2471 15.8321 6.99674 35.1973 0 16.5699" transform="translate(27.01839 28.70436)" id="Fill-13" fill="#A08889" stroke="none" />
      <path d="M19.8394 19.5246C18.6025 32.3887 12.9449 38.1565 7.53842 38.5546C1.09287 39.0291 -0.329162 30.2541 0.058921 17.5523C0.453097 4.65411 3.96365 0.274377 10.0235 0.00819707C16.3406 -0.269105 21.0923 6.49439 19.8394 19.5246" transform="translate(22.1224 1.252713)" id="Fill-15" fill="#A08889" stroke="none" />
      <g id="分组" transform="translate(23.43495 0.1312364)">
        <path d="M0 0L19.3585 0L19.3585 33.3161L0 33.3161L0 0Z" transform="translate(0.1118316 0.2850154)" id="Clip-18" fill="none" stroke="none" />
        <g clip-path="url(#mask_2)">
          <path d="M13.9579 22.231C14.1481 21.227 14.3323 19.5439 15.3522 18.8766C16.756 17.9572 17.9905 20.4708 17.789 23.1659C17.5443 26.432 15.7192 28.4065 14.6876 28.4169C14.7884 31.617 14.944 33.3164 14.944 33.3164C14.944 33.3164 17.2205 29.7737 18.4874 24.2529C20.4639 15.6387 19.2415 3.57612 13.1222 0.806064C3.56024 -3.06207 0 8.24798 0 8.24798L11.8515 7.99515L11.5469 14.2611C11.5469 14.2611 13.6593 14.448 13.2281 21.8639L13.9579 22.231Z" transform="translate(0.1118316 0.2847576)" id="Fill-17" fill="#604346" stroke="none" />
        </g>
      </g>
      <path d="M0 0.0170533L3.68444 0.146066L4.8665 0.724396" transform="translate(28.83183 16.1859)" id="Stroke-19" fill="none" stroke="#604346" stroke-width="0.8240818" stroke-linecap="round" stroke-linejoin="round" />
      <path d="M11.5089 5.59968C10.1516 2.55974 10.2725 -0.155447 4.66449 0.0069305C1.9362 0.085524 0.975831 1.50614 0 4.96055C0.748044 10.2767 3.49415 13.6281 7.13735 13.1825C14.7912 12.2468 15.1376 0.13446 15.1376 0.13446C15.1376 0.13446 14.0586 0.571173 13.7104 1.47945C12.7481 3.99073 12.1206 4.61948 11.5089 5.59968" transform="translate(22.82559 26.96148)" id="Fill-21" fill="#7F6567" stroke="none" />
      <path d="M0 0.260248C0 0.260248 1.98072 0.448576 5.01367 0C5.01367 0 4.56888 1.98782 2.38286 2.01007C0.667427 2.02786 0 0.260248 0 0.260248" transform="translate(25.58712 29.22189)" id="Fill-23" fill="#FFFFFF" stroke="none" />
      <path d="M0 0.260248C0 0.260248 1.98072 0.448576 5.01367 0C5.01367 0 4.56888 1.98782 2.38286 2.01007C0.667427 2.02786 0 0.260248 0 0.260248Z" transform="translate(25.58712 29.22189)" id="Stroke-25" fill="none" stroke="#604346" stroke-width="0.6180613" stroke-linecap="round" stroke-linejoin="round" />
      <path d="M3.51248 10.7992L0.548431 10.7443C0.202531 10.7384 -0.055722 10.2372 0.0103646 9.69963L0.950106 2.08421L0.589677 0" transform="translate(25.36331 16.15475)" id="Stroke-27" fill="none" stroke="#604346" stroke-width="0.6180613" stroke-linecap="round" stroke-linejoin="round" />
      <path d="M2.11008 0L0 4.30559L3.15059 13.4647L7.93554 5.7959L2.11008 0Z" transform="translate(24.79619 44.18736)" id="Fill-29" fill="#ADC6FF" stroke="none" />
      <path d="M0 6.17108L6.53132 0L8.76139 4.10095L4.43061 13.1459L0 6.17108Z" transform="translate(32.73159 43.81189)" id="Fill-31" fill="#ADC6FF" stroke="none" />
      <path d="M0 5.95309L3.6507 0L7.34967 5.98201L5.24427 12.552L1.57014 12.5134L0 5.95309Z" transform="translate(29.08268 50.04347)" id="Fill-33" fill="#4E5C93" stroke="none" />
      <path d="M3.88766 0.0370724L7.51679 0L11.0044 40.5483C11.0339 40.8961 10.9777 41.2483 10.8469 41.5315L5.79995 52.4397C5.43718 53.2241 4.68538 53.167 4.37136 52.3307L0.119786 40.9954C0.0185474 40.7255 -0.0203546 40.4089 0.0101108 40.0983L3.88766 0.0370724Z" transform="translate(26.83045 62.41483)" id="Fill-35" fill="#4E5C93" stroke="none" />
      <path d="M0 1.37316L0.0206228 6.38313C0.0206228 6.38313 3.72381 8.43249 12.5672 8.75947C21.0755 9.07384 26.6737 5.27392 26.6737 5.27392L26.4421 0C26.4421 0 15.7244 6.22149 0 1.37316" transform="translate(20.00988 120.6874)" id="Fill-37" fill="#12183F" stroke="none" />
      <path d="M0.891641 0.0771804C0.891641 0.0771804 12.2299 -1.37977 16.6549 8.36657C17.4789 20.5975 16.8368 41.4552 16.1797 69.1253C15.56 95.2465 11.6816 160.475 11.6816 160.475C11.6816 160.475 6.41291 163.035 1.03038 159.19C2.01324 147.348 0.745407 89.8354 0.152034 71.0746C-0.44087 52.313 0.891641 0.0771804 0.891641 0.0771804" transform="translate(16.84065 149.4649)" id="Fill-39" fill="#4E5C93" stroke="none" />
      <path d="M4.24993 47.4312C4.24993 47.4312 -0.376128 20.7954 0.0246096 0" transform="translate(14.48111 63.86436)" id="Stroke-41" fill="none" stroke="#597EF7" stroke-width="0.8240818" stroke-linecap="round" stroke-linejoin="round" />
      <path d="M0 0.352558L1.41828 0.388889" transform="translate(27.37999 33.22097)" id="Stroke-43" fill="none" stroke="#604346" stroke-width="0.6180613" stroke-linecap="round" stroke-linejoin="round" />
      <path d="M0 0.579813L3.12997 9.55727L7.93742 2.13018L12.3662 9.04493L16.6969 0" transform="translate(24.79619 47.91314)" id="Stroke-45" fill="none" stroke="#597EF7" stroke-width="0.8240818" stroke-linecap="round" stroke-linejoin="round" />
      <path d="M0 0.386665L3.10091 0.354783" transform="translate(30.71811 62.06524)" id="Stroke-47" fill="none" stroke="#597EF7" stroke-width="0.5" stroke-linecap="round" stroke-linejoin="round" />
      <path d="M0.0846794 5.58158L0.00078227 1.94403C-0.0226527 0.919349 0.483542 0.0800283 1.10363 0.121549C2.59034 0.220904 5.216 0.326189 7.11563 0.00884925C7.73666 -0.0942122 8.27379 0.716192 8.27801 1.74829L8.29347 5.46665C8.29675 6.33637 7.91664 7.07486 7.39732 7.21499C6.16324 7.5479 3.78178 7.95941 0.996299 7.26022C0.489167 7.13269 0.104365 6.42906 0.0846794 5.58158" transform="translate(28.01893 122.9918)" id="Fill-49" fill="#F1F2F6" stroke="none" />
      <path d="M0.0643285 3.95308L0.000585476 1.38025C-0.0172251 0.655111 0.37367 0.0604687 0.852211 0.0901266C1.99865 0.159081 4.02483 0.231743 5.48999 0.00634291C5.96947 -0.0670605 6.38333 0.506079 6.38661 1.23567L6.39739 3.86633C6.4002 4.48173 6.10633 5.00445 5.70559 5.1038C4.75366 5.33958 2.91589 5.63246 0.767377 5.14013C0.376013 5.05042 0.0793269 4.55291 0.0643285 3.95308" transform="translate(28.98906 124.1123)" id="Fill-51" fill="#12183F" stroke="none" />
      <path d="M0 0.302882L3.12763 0.438567" transform="translate(22.6495 15.71789)" id="Stroke-53" fill="none" stroke="#604346" stroke-width="0.8240818" stroke-linecap="round" stroke-linejoin="round" />
      <path d="M0 1.60227C0 1.60227 3.3062 3.23864 6.90019 0" transform="translate(27.32553 38.19861)" id="Stroke-55" fill="none" stroke="#7C5B4D" stroke-width="0.6180613" stroke-linecap="round" stroke-linejoin="round" />
      <path d="M1.48531 0.035942C1.48531 0.035942 0.119518 -0.506798 0 2.62582C1.14503 2.89274 0.974893 4.28592 0.449951 4.98734" transform="translate(38.30011 20.91739)" id="Stroke-57" fill="none" stroke="#7C5B4D" stroke-width="0.6180613" stroke-linecap="round" stroke-linejoin="round" />
      <path d="M24.2421 37.584L3.1352 41.2757C2.23483 41.4336 1.43523 40.3667 1.38086 38.9372L0.00288734 2.7545C-0.0514817 1.31683 0.668909 0.103077 1.57865 0.0986285L22.021 1.58586e-05C23.0821 -0.00517428 23.9726 1.26419 24.079 2.93393L26.0677 34.0125C26.1811 35.7934 25.3665 37.3875 24.2421 37.584" transform="translate(40.44382 135.871)" id="Fill-59" fill="#FAAD14" stroke="none" />
      <path d="M1.00912 0.001522L1.16754 3.91078e-05C1.70983 -0.00589248 2.15931 0.663635 2.18884 1.52075L3.48338 39.7001C3.51385 40.5891 3.08171 41.3476 2.52021 41.3914C1.96339 41.4359 1.48813 40.7626 1.45485 39.8833L0.00188772 1.70537C-0.0332647 0.785233 0.426998 0.00745359 1.00912 0.001522" transform="translate(40.40896 135.9653)" id="Fill-61" fill="#FF7A46" stroke="none" />
      <path d="M0 0.424112L1.90667 0.404834L23.681 0.317343" transform="translate(41.17455 148.1408)" id="Stroke-63" fill="none" stroke="#FF7A46" stroke-width="0.5" stroke-linecap="round" stroke-linejoin="round" />
      <path d="M8.38291 17.5517C7.77407 19.2281 7.15726 18.956 6.36657 19.2429C5.57587 19.5291 4.61551 21.3479 4.61551 21.3479C2.55558 23.2482 3.06224 18.024 2.66479 17.6103C2.46606 17.4041 2.35685 18.9782 1.531 19.9881C0.704687 20.9987 -0.184903 20.4663 0.0335104 19.5862C0.552829 17.4931 1.55866 12.383 1.7527 9.6864C2.00205 6.20456 3.26425 2.99038 3.26425 2.99038C4.79174 -1.92098 9.72105 0.697077 9.72105 0.697077C9.72105 0.697077 11.1914 15.8523 10.0501 16.421C10.0501 16.421 8.63882 16.848 8.38291 17.5517" transform="translate(53.81034 158.0143)" id="Fill-65" fill="#A08889" stroke="none" />
      <path d="M0.480902 21.4774C0.480902 21.4774 -2.21459 4.68063 5.15758 0.220821C10.9943 -3.30996 19.2481 36.27 19.361 63.826C19.4346 81.7764 17.2927 106.436 17.2927 106.436C17.2927 106.436 12.1642 108.296 8.71407 105.611C9.14762 93.429 8.48769 67.0668 7.42046 58.3741C6.35276 49.6814 0.480902 21.4774 0.480902 21.4774" transform="translate(47.1735 54.91069)" id="Fill-67" fill="#ADC6FF" stroke="none" />
      <path d="M0 0L2.82251 12.4971" transform="translate(47.94462 79.60235)" id="Stroke-69" fill="none" stroke="#597EF7" stroke-width="0.8240818" stroke-linecap="round" stroke-linejoin="round" />
      <path d="M0 16.5543C0 16.5543 0.602278 2.56096 6.0031 0" transform="translate(46.59388 55.54628)" id="Stroke-71" fill="none" stroke="#597EF7" stroke-width="0.8240818" stroke-linecap="round" stroke-linejoin="round" />
      <path d="M0 0C2.34115 2.41118 8.48814 1.09437 8.48814 1.09437" transform="translate(55.88776 160.5219)" id="Stroke-73" fill="none" stroke="#597EF7" stroke-width="0.8240818" stroke-linecap="round" stroke-linejoin="round" />
      <path d="M0 0.0394861C0 0.0394861 4.40343 1.10792 6.33634 0.531071" transform="translate(57.05402 155.2513)" id="Stroke-75" fill="none" stroke="#597EF7" stroke-width="0.8240818" stroke-linecap="round" stroke-linejoin="round" />
      <path d="M1.45908 1.14704C1.46189 1.78468 1.13708 2.30518 0.734 2.30889C0.331388 2.31333 0.00236164 1.79951 1.81499e-05 1.16187C-0.00279404 0.524223 0.321545 0.00446864 0.725095 1.99638e-05C1.12771 -0.00368727 1.45673 0.509394 1.45908 1.14704" transform="translate(61.61665 157.4221)" id="Fill-77" fill="#FFFFFF" stroke="none" />
      <path d="M8.49704 1.08771L0 0" transform="translate(27.39827 165.0678)" id="Stroke-79" fill="none" stroke="#12183F" stroke-width="0.8240818" stroke-linecap="round" stroke-linejoin="round" />
      <path d="M1.89167 0C1.89495 0.863046 1.47453 1.56742 0.952396 1.57261C0.429797 1.5778 0.00374959 0.882324 0 0.0192777" transform="translate(29.79219 19.75886)" id="Stroke-81" fill="none" stroke="#604346" stroke-width="0.8240818" stroke-linecap="round" stroke-linejoin="round" />
      <path d="M1.8912 0C1.89495 0.863046 1.47406 1.56742 0.951928 1.57261C0.429797 1.5778 0.00374959 0.882324 0 0.0192777" transform="translate(23.26017 19.82604)" id="Stroke-83" fill="none" stroke="#604346" stroke-width="0.8240818" stroke-linecap="round" stroke-linejoin="round" />
      <path d="M0 12.5626C0 12.5626 6.30072 0.475535 7.86711 0.233823C9.80143 -0.0642393 11.8993 -0.0405129 12.72 0.101104C12.9745 0.144849 13.1808 0.442911 13.2332 0.838845L14.0057 6.64216C14.0938 7.30576 14.0005 7.99827 13.7479 8.5462L11.5202 12.8177C11.4091 13.032 11.2727 13.2099 11.1185 13.3419L3.33198 20.0357C3.33198 20.0357 0.142953 15.4661 0 12.5626" transform="translate(21.9428 66.68909)" id="Fill-85" fill="#A08889" stroke="none" />
      <path d="M0 0.670268L4.13252 0.071179" transform="translate(31.14055 68.88345)" id="Stroke-87" fill="none" stroke="#7C5B4D" stroke-width="0.6180613" stroke-linecap="round" stroke-linejoin="round" />
      <path d="M0 1.98041L3.07138 0" transform="translate(32.29814 70.90175)" id="Stroke-89" fill="none" stroke="#7C5B4D" stroke-width="0.6180613" stroke-linecap="round" stroke-linejoin="round" />
      <path d="M0 2.80341L1.92401 0" transform="translate(33.62779 72.57023)" id="Stroke-91" fill="none" stroke="#7C5B4D" stroke-width="0.6180613" stroke-linecap="round" stroke-linejoin="round" />
      <g id="分组" transform="translate(0 77.98331)">
        <path d="M0 0L25.9389 0L25.9389 35.3614L0 35.3614L0 0Z" transform="translate(0 0.2136139)" id="Clip-94" fill="none" stroke="none" />
        <g clip-path="url(#mask_3)">
          <path d="M2.00305 19.5275L22.2049 0L25.939 9.56468C25.939 9.56468 11.7937 32.795 6.64458 35.0245C1.49545 37.2533 -2.60426 28.0067 2.00305 19.5275" transform="translate(-0.0001140345 0.2136139)" id="Fill-93" fill="#ADC6FF" stroke="none" />
        </g>
      </g>
      <path d="M0 17.0896C4.20564 12.8708 17.4815 0 17.4815 0L21.3478 9.5632C21.3478 9.5632 7.58121 31.4167 2.05337 35.0223" transform="translate(4.591328 78.19864)" id="Stroke-95" fill="none" stroke="#597EF7" stroke-width="0.8240818" stroke-linecap="round" stroke-linejoin="round" />
      <path d="M1.45954 1.14704C1.46235 1.78469 1.13754 2.30519 0.734463 2.30889C0.331851 2.31334 0.00282481 1.79952 1.26199e-05 1.16187C-0.00233087 0.524225 0.322009 0.00446866 0.72509 1.99639e-05C1.12817 -0.00368728 1.45673 0.509396 1.45954 1.14704" transform="translate(22.72514 85.90842)" id="Fill-97" fill="#FFFFFF" stroke="none" />
      <path d="M0 0L2.93593 7.9031" transform="translate(19.71967 83.65051)" id="Stroke-99" fill="none" stroke="#597EF7" stroke-width="0.8240818" stroke-linecap="round" stroke-linejoin="round" />
    </g>
  </g>
</svg>
