<?xml version="1.0" encoding="utf-8"?>
<svg width="63px" height="299px" viewBox="0 0 63 299" version="1.1" xmlns:xlink="http://www.w3.org/1999/xlink" xmlns="http://www.w3.org/2000/svg">
  <desc>Created with Lunacy</desc>
  <defs>
    <path d="M0 0L16.813 0L16.813 4.38173L0 4.38173L0 0Z" transform="translate(0.1845547 0.0663155)" id="path_1" />
    <path d="M0 0L17.2622 0L17.2622 4.86053L0 4.86053L0 0Z" transform="translate(0.1477713 0.2498336)" id="path_2" />
    <clipPath id="mask_1">
      <use xlink:href="#path_1" />
    </clipPath>
    <clipPath id="mask_2">
      <use xlink:href="#path_2" />
    </clipPath>
  </defs>
  <g id="1.人物组件/7.设计师/站立原型" transform="translate(0.4372559 0.4371338)">
    <path d="M9.74019 23.6961C9.74019 23.6961 5.0833 22.619 3.85251 30.4657C-0.660228 33.0807 0.570559 40.9267 0.570559 40.9267C0.570559 40.9267 -1.69617 47.0906 2.80643 50.2487C3.16659 56.563 7.66919 55.4157 7.66919 55.4157C7.66919 55.4157 8.74965 60.2952 12.1718 58.2858C15.8641 62.8625 22.8222 61.9442 25.2925 56.3487C30.1914 62.1775 38.7157 55.063 37.6463 49.7422C43.3677 49.1899 46.1414 39.5186 42.7894 31.3032C45.3643 24.8048 42.4288 20.9693 42.4288 20.9693C42.4288 20.9693 43.239 6.0426 36.7554 4.03316C33.424 -4.00457 26.2196 2.45442 26.2196 2.45442C26.2196 2.45442 21.4472 0.875683 19.7359 7.47801C14.4028 8.78484 14.6532 13.4578 14.2428 17.3811C9.4704 17.8118 9.74019 23.6961 9.74019 23.6961" id="Fill-1" fill="#253368" stroke="none" />
    <path d="M3.34234 49.9762L3.02056 49.7923C0.648066 48.4404 -0.582983 44.2988 0.271115 40.5423L8.39895 4.78319C9.25261 1.02602 11.8674 -0.922812 14.2399 0.429069L14.5621 0.612908C16.9342 1.96479 18.1648 6.10641 17.3107 9.86288L9.18331 45.622C8.32966 49.3792 5.71439 51.3287 3.34234 49.9762" transform="translate(7.940205 45.00492)" id="Fill-3" fill="#FFC999" stroke="none" />
    <path d="M8.75481 25.2028L12.223 9.76016C13.0591 6.03761 11.7661 1.85123 9.34931 0.456937C6.93256 -0.937361 4.27121 0.968202 3.43516 4.69075L0 19.9869L8.75481 25.2028Z" transform="translate(13.04462 44.10482)" id="Fill-5" fill="#597EF7" stroke="none" />
    <path d="M0 10.1334L8.93659 15.3017L12.4775 0" transform="translate(13.04462 54.0059)" id="Stroke-7" fill="none" stroke="#1D39C4" stroke-width="0.506115556" stroke-linecap="round" stroke-linejoin="round" />
    <path d="M6.47534 81.9073L6.47534 81.9073C4.49041 81.9816 2.82221 79.5533 2.69703 76.407L0.0109745 9.09598C-0.182351 4.24788 2.20259 0.116314 5.26149 0.00243276C8.32039 -0.112156 10.8251 3.83621 10.7753 8.69421L10.0866 76.1305C10.0545 79.2838 8.4607 81.833 6.47534 81.9073" transform="translate(15.31325 188.1206)" id="Fill-9" fill="#FFC999" stroke="none" />
    <path d="M5.81494 0.00272822L5.81494 0.00272822C2.47161 0.130499 -0.15108 4.71345 0.00676858 10.1498L1.70757 68.6004C1.83815 73.1026 4.15299 76.6116 6.92154 76.506C9.69009 76.3998 11.9008 72.7173 11.9012 68.2103L11.9103 9.69383C11.9111 4.25146 9.1587 -0.125043 5.81494 0.00272822" transform="translate(14.17894 135.0148)" id="Fill-11" fill="#FFC999" stroke="none" />
    <path d="M0.492563 16.9636L7.40877 17.1019L7.9402 0.159485L0 0L0.492563 16.9636Z" transform="translate(18.14904 257.4281)" id="Fill-13" fill="#597EF7" stroke="none" />
    <path d="M0 0.353284L7.37305 0.546802" transform="translate(18.14904 261.0285)" id="Stroke-15" fill="none" stroke="#DFE5F1" stroke-width="0.8116132" stroke-linecap="round" stroke-linejoin="round" />
    <path d="M16.2518 0.151655L16.4476 21.6024L0.0140312 21.2603L4.88623e-05 17.9674C-0.00206968 16.7569 0.53604 15.7177 1.27795 15.5008L5.80505 13.8872L7.91493 11.5312C8.5954 10.928 9.0136 9.77802 9.00301 8.53077C8.98055 5.85062 8.94623 1.30505 8.95894 0L16.2518 0.151655Z" transform="translate(9.641678 273.6299)" id="Fill-17" fill="#4E5C93" stroke="none" />
    <g id="分组" transform="translate(9.07452 291.6319)">
      <path d="M0 0L16.813 0L16.813 4.38173L0 4.38173L0 0Z" transform="translate(0.1845547 0.0663155)" id="Clip-20" fill="none" stroke="none" />
      <g clip-path="url(#mask_1)">
        <path d="M16.507 4.3818L0.274988 4.02506C0.120926 4.02222 -0.00207248 3.80761 2.64687e-05 3.54751L0.0235346 0.466205C0.0256336 0.205402 0.15199 -0.00281378 0.305633 2.87611e-05L16.5376 0.356767C16.6913 0.36032 16.8147 0.574221 16.813 0.834313L16.7891 3.91633C16.787 4.17642 16.6606 4.38535 16.507 4.3818" transform="translate(0.1845547 0.0663155)" id="Fill-19" fill="#CCD7EE" stroke="none" />
      </g>
    </g>
    <path d="M0 4.44377L0 4.44377C0.0141729 2.64133 0.82972 1.12182 1.92427 0.857361L5.47316 0L5.67158 4.50049L0 4.44377Z" transform="translate(9.07452 288.0315)" id="Fill-21" fill="#CCD7EE" stroke="none" />
    <path d="M0 0.224571L16.4476 0.675514" transform="translate(9.641678 291.6319)" id="Stroke-23" fill="none" stroke="#96A7CA" stroke-width="0.5" stroke-linecap="round" stroke-linejoin="round" />
    <path d="M1.32469 6.30069C0.825676 5.04799 0 4.82335 0 4.82335C0 4.82335 1.72389 4.1344 2.86788 4.36548C2.30468 3.11135 1.67333 2.47678 1.67333 2.47678C1.67333 2.47678 3.27017 1.78568 3.9701 1.79999C3.28072 0.439982 2.07518 0 2.07518 0" transform="translate(16.44757 281.7308)" id="Stroke-25" fill="none" stroke="#CCD7EE" stroke-width="0.83056134" stroke-linecap="round" stroke-linejoin="round" />
    <path d="M0.261795 1.58804e-07C0.261795 1.58804e-07 4.15832 -0.0087899 4.5171 4.10969C4.87664 8.22817 0.308709 1.17516 0.308709 1.17516C0.308709 1.17516 -0.353466 0.377297 0.261795 1.58804e-07Z" transform="translate(18.14904 278.1304)" id="Stroke-27" fill="none" stroke="#CCD7EE" stroke-width="0.83056134" stroke-linecap="round" stroke-linejoin="round" />
    <path d="M10.9639 80.0481L10.9639 80.0481C12.9165 79.6668 14.3302 77.619 14.166 74.5282L10.6598 7.71651C10.4069 2.95364 7.69255 -0.521964 4.6838 0.0646104C1.67506 0.652576 -0.420079 5.06684 0.0715962 9.78309L7.33858 75.947C7.65769 79.0072 9.01134 80.4294 10.9639 80.0481" transform="translate(35.16376 195.3214)" id="Fill-29" fill="#FFC999" stroke="none" />
    <path d="M5.36145 0.073985L5.36145 0.073985C8.76702 -0.590293 11.8529 3.29446 12.1929 8.67685L15.8542 66.5405C16.1362 70.9973 14.1101 74.9944 11.2893 75.545C8.46891 76.095 5.88516 72.9975 5.46916 68.5668L0.0667304 11.0426C-0.435772 5.69161 1.95546 0.738263 5.36145 0.073985" transform="translate(30.05935 136.815)" id="Fill-31" fill="#FFC999" stroke="none" />
    <path d="M9.07452 18.002L1.77313 18.002L0 0.288541L7.66457 0L9.07452 18.002Z" transform="translate(41.4025 258.3282)" id="Fill-33" fill="#597EF7" stroke="none" />
    <path d="M7.9402 0.282177L0 0.617909" transform="translate(41.4025 261.9286)" id="Stroke-35" fill="none" stroke="#DFE5F1" stroke-width="0.8116132" stroke-linecap="round" stroke-linejoin="round" />
    <path d="M0 0.250909L1.42248 20.7023L17.0147 20.1369L17.0084 16.9983C17.0039 15.8442 16.4213 14.8613 15.6271 14.6655L12.907 12.8528L10.4811 10.9778C9.7499 10.4131 9.10752 9.26159 8.84522 8.13347C8.36139 6.04581 7.81822 1.24352 7.79647 0L0 0.250909Z" transform="translate(42.53682 274.53)" id="Fill-37" fill="#4E5C93" stroke="none" />
    <g id="分组" transform="translate(43.67113 291.6319)">
      <path d="M0 0L17.2622 0L17.2622 4.86053L0 4.86053L0 0Z" transform="translate(0.1477713 0.2498336)" id="Clip-40" fill="none" stroke="none" />
      <g clip-path="url(#mask_2)">
        <path d="M0.334236 4.86041L16.9823 4.21381C17.1403 4.20786 17.2652 3.98167 17.2622 3.70859L17.22 0.483052C17.2161 0.209979 17.0852 -0.00654538 16.9276 0.000151241L0.279546 0.646747C0.121506 0.6527 -0.00337542 0.878897 6.95945e-05 1.15197L0.0418404 4.37825C0.045716 4.65058 0.176626 4.86636 0.334236 4.86041" transform="translate(0.1477713 0.2498336)" id="Fill-39" fill="#CCD7EE" stroke="none" />
      </g>
    </g>
    <path d="M5.67157 4.35614C5.64647 2.55542 4.82236 1.04932 3.72611 0.802152L0.172516 0L0 4.50049L5.67157 4.35614Z" transform="translate(55.01428 287.1314)" id="Fill-41" fill="#CCD7EE" stroke="none" />
    <path d="M17.0147 0.168047L0 0.732038" transform="translate(43.67113 291.6319)" id="Stroke-43" fill="none" stroke="#96A7CA" stroke-width="0.5" stroke-linecap="round" stroke-linejoin="round" />
    <path d="M2.65987 6.30069C3.14929 5.03783 3.9701 4.79988 3.9701 4.79988C3.9701 4.79988 2.24968 4.13691 1.11236 4.38633C1.6657 3.1206 2.29039 2.47555 2.29039 2.47555C2.29039 2.47555 0.696924 1.80757 0 1.83337C0.678538 0.459418 1.87627 0 1.87627 0" transform="translate(48.77555 280.8307)" id="Stroke-45" fill="none" stroke="#CCD7EE" stroke-width="0.83056134" stroke-linecap="round" stroke-linejoin="round" />
    <path d="M4.27192 0C4.27192 0 0.356544 0.0554592 0.0180258 4.13138C-0.320879 8.20729 4.23134 1.16264 4.23134 1.16264C4.23134 1.16264 4.89176 0.362823 4.27192 0Z" transform="translate(45.93976 279.0305)" id="Stroke-47" fill="none" stroke="#CCD7EE" stroke-width="0.83056134" stroke-linecap="round" stroke-linejoin="round" />
    <path d="M0.308893 7.14347C4.01143 8.18401 5.13764 3.6983 5.13764 3.6983C5.13764 3.6983 6.66502 -2.61902 7.05657 1.25942C7.26435 3.32024 9.25487 0.585064 10.1702 2.78285C10.7857 4.26155 9.24658 6.16722 11.2476 10.11C12.4065 12.3937 7.83314 14.2162 10.6548 18.4266C10.6548 18.4266 8.64855 23.5657 12.0944 25.2415L12.4598 31.2674C12.6719 34.7747 10.9486 37.8097 8.74764 37.8041C6.64886 37.7992 4.96784 35.02 5.03157 31.6622L5.17125 24.3148C-0.179133 24.3148 -0.440607 12.5432 0.308893 7.14347" transform="translate(24.38777 9.000984)" id="Fill-49" fill="#FFC999" stroke="none" />
    <path d="M2.26863 0C2.26863 0 1.38424 2.08376 0 1.76753" transform="translate(28.92503 22.50246)" id="Stroke-51" fill="none" stroke="#F5222D" stroke-width="0.874275148" stroke-linecap="round" stroke-linejoin="round" />
    <path d="M1.0038 0C1.0038 0 1.07338 1.51282 0 3.89C1.15687 5.01181 1.70147 5.40059 1.70147 5.40059" transform="translate(27.79072 17.10187)" id="Stroke-53" fill="none" stroke="#DD936F" stroke-width="0.655706346" stroke-linecap="round" stroke-linejoin="round" />
    <path d="M0 0C0 0.994242 0.507638 1.8002 1.13412 1.8002C1.7606 1.8002 2.26863 0.994242 2.26863 0" transform="translate(31.19366 17.10187)" id="Stroke-55" fill="none" stroke="#373A65" stroke-width="0.8701198" stroke-linecap="round" stroke-linejoin="round" />
    <path d="M0 0C0 0.994242 0.507785 1.8002 1.13453 1.8002C1.76084 1.8002 2.26863 0.994242 2.26863 0" transform="translate(25.52209 17.10187)" id="Stroke-57" fill="none" stroke="#373A65" stroke-width="0.8252426" stroke-linecap="round" stroke-linejoin="round" />
    <path d="M0 0.773092C0 0.773092 1.78745 -1.04817 3.40295 0.900099" transform="translate(30.62651 12.60138)" id="Stroke-59" fill="none" stroke="#373A65" stroke-width="0.8701198" stroke-linecap="round" stroke-linejoin="round" />
    <path d="M0 1.8002C1.1086 1.76997 2.26031 1.21791 3.40295 0" transform="translate(29.49219 31.50344)" id="Stroke-61" fill="none" stroke="#DD936F" stroke-width="0.655706346" stroke-linecap="round" stroke-linejoin="round" />
    <path d="M36.5124 0.644385C40.3142 1.1159 49.3369 39.1873 52.7456 52.8007C52.2918 55.5425 49.5194 60.3794 49.5194 60.3794C49.5194 60.3794 49.8161 62.5624 49.9986 63.8735C46.7542 68.1016 40.4807 70.3986 40.4807 70.3986L40.4665 72.2741C30.4352 79.5938 17.0024 72.5789 17.0024 72.5789C17.0024 72.5789 16.7519 72.1721 16.9318 70.7013C12.3769 70.6175 2.62494 61.4603 2.62494 61.4603L4.01134 56.9296L0 50.4241C0 50.4241 10.8319 18.8455 14.166 10.0127C17.093 2.25808 19.8382 0.0257895 19.8382 0.0257895C19.8382 0.0257895 29.7673 -0.193077 36.5124 0.644385" transform="translate(1.134315 93.61023)" id="Fill-63" fill="#4E5C93" stroke="none" />
    <path d="M16.4476 0L0 53.403C0 53.403 5.48811 60.2258 13.9592 63.0069" transform="translate(3.970103 100.811)" id="Stroke-65" fill="none" stroke="#253368" stroke-width="0.632436633" stroke-linecap="round" stroke-linejoin="round" />
    <path d="M0 0L10.776 45.1704C10.776 45.1704 6.5091 49.6094 1.2149 51.3056" transform="translate(40.26818 111.6122)" id="Stroke-67" fill="none" stroke="#253368" stroke-width="0.632436633" stroke-linecap="round" stroke-linejoin="round" />
    <path d="M7.62403 10.5072L0 70.1866C0 70.1866 12.1831 76.3319 23.8206 70.1531C21.1702 44.3043 15.5001 0 15.5001 0" transform="translate(17.58188 95.41043)" id="Stroke-69" fill="none" stroke="#253368" stroke-width="0.632436633" stroke-linecap="round" stroke-linejoin="round" />
    <path d="M1.70147 0L0 49.5054" transform="translate(27.79072 96.31052)" id="Stroke-71" fill="none" stroke="#253368" stroke-width="0.632436633" stroke-linecap="round" stroke-linejoin="round" />
    <path d="M6.80589 0L0 34.2037" transform="translate(18.14904 94.51033)" id="Stroke-73" fill="none" stroke="#253368" stroke-width="0.632436633" stroke-linecap="round" stroke-linejoin="round" />
    <path d="M0 3.77777L0.284353 0.550141C0.284353 0.550141 8.78852 0.62666 17.1294 0C17.3402 1.4334 17.5819 4.01128 17.5819 4.01128C16.8811 3.14847 9.30484 5.66962 0 3.77777" transform="translate(20.41767 90.00984)" id="Fill-75" fill="#4E5C93" stroke="none" />
    <path d="M0.00373523 0.470701C-0.183497 0.602116 6.68921 1.06387 15.8804 0.18987" transform="translate(20.98483 93.61023)" id="Stroke-77" fill="none" stroke="#253368" stroke-width="0.632436633" stroke-linecap="round" stroke-linejoin="round" />
    <path d="M2.92425 14.6419C1.98676 17.8467 0.25029 23.3626 0.0342883 27.0069C-0.316213 32.9148 2.13596 37.3115 2.13596 37.3115C2.13596 37.3115 2.16046 35.5732 2.39873 50.8809C13.6308 53.9718 20.7918 50.6853 20.7918 50.6853L20.5731 46.6275L22.3973 37.0362C22.3973 37.0362 23.5054 33.4639 25.7821 25.4957C27.3654 19.9559 27.2554 13.0874 27.0407 9.4159C26.9494 7.84251 27.6865 6.76726 26.7169 6.33968C23.3299 4.84594 20.6114 4.5518 20.6114 4.5518L20.2921 1.0466C20.2378 0.446447 19.91 0 19.5234 0L11.2668 0C10.9127 0 10.6028 0.377279 10.5146 0.915949L9.90979 4.61747L3.44889 5.21064C2.64679 5.45727 3.39278 7.47641 3.30905 8.75217L2.92425 14.6419Z" transform="translate(17.58188 38.70423)" id="Fill-79" fill="#597EF7" stroke="none" />
    <path d="M7.37305 0.450048L0 0.450048" transform="translate(28.35788 43.20472)" id="Stroke-81" fill="none" stroke="#1D39C4" stroke-width="0.528554142" stroke-linecap="round" stroke-linejoin="round" />
    <path d="M11.3432 0L3.18926 16.2018L0 0.970927" transform="translate(27.22356 42.30462)" id="Stroke-83" fill="none" stroke="#C9D4EA" stroke-width="0.678144932" stroke-linecap="round" stroke-linejoin="round" />
    <path d="M0.450511 2.34128C-0.396113 4.52144 -0.0146523 7.25538 1.30262 8.44812C2.6199 9.64086 4.37444 8.83988 5.22106 6.65971C6.06769 4.48024 5.68623 1.74561 4.36895 0.552868C3.05167 -0.63987 1.29759 0.161108 0.450511 2.34128" transform="translate(27.79072 57.6063)" id="Fill-85" fill="#C9D4EA" stroke="none" />
    <path d="M0.450501 2.341C-0.396105 4.52121 -0.014652 7.25519 1.3026 8.44795C2.61984 9.64071 4.37435 8.84041 5.22141 6.66021C6.06756 4.48001 5.68611 1.74532 4.36886 0.552567C3.05161 -0.639492 1.29757 0.160801 0.450501 2.341" transform="translate(27.22356 57.6063)" id="Fill-87" fill="#F0F0F5" stroke="none" />
    <path d="M0.360432 1.87278C-0.316796 3.61694 -0.0118783 5.80435 1.0419 6.75846C2.09615 7.71257 3.49962 7.07218 4.17685 5.32801C4.85408 3.58313 4.54916 1.39644 3.49491 0.442331C2.44113 -0.51178 1.03766 0.128611 0.360432 1.87278" transform="translate(27.79072 58.50639)" id="Fill-89" fill="#FAAD14" stroke="none" />
    <path d="M23.2535 21.2915L20.3204 35.0615L20.5821 39.2527C20.5821 39.2527 12.3427 42.1123 2.32991 39.1871C2.32991 38.0894 2.04832 26.1608 2.04832 26.1608C2.04832 26.1608 0 20.3306 0 16.2036C0 11.2603 0.959637 9.13181 2.87802 3.6389L2.96494 0" transform="translate(17.58188 50.40551)" id="Stroke-91" fill="none" stroke="#1D39C4" stroke-width="0.528554142" stroke-linecap="round" stroke-linejoin="round" />
    <path d="M0.00233495 6.2875L0.00233495 6.2875C-0.0567809 8.54666 1.01348 10.4764 2.43226 10.6693L29.8153 14.3915C32.3392 14.6015 34.4876 11.4969 34.5926 7.48776C34.6985 3.44296 32.685 0.0603907 30.136 0L2.53241 2.23377C1.15642 2.34494 0.0596862 4.10245 0.00233495 6.2875" transform="translate(11.34315 79.20866)" id="Fill-93" fill="#FFC999" stroke="none" />
    <path d="M3.89483 48.4839L4.08685 48.5281C6.51956 49.0881 8.73525 46.5419 9.03556 42.8405L11.8764 7.83797C12.1767 4.13657 10.4481 0.682211 8.01539 0.121457L7.82337 0.0772426C5.39067 -0.48281 3.17497 2.06269 2.8751 5.76479L0.033809 40.7674C-0.266059 44.4688 1.46213 47.9238 3.89483 48.4839" transform="translate(36.29808 45.00492)" id="Fill-95" fill="#FFC999" stroke="none" />
    <path d="M0 24.1656L1.24164 6.72034C1.47093 2.60942 3.79961 -0.395355 6.41654 0.0423629C9.03347 0.48008 10.987 4.20138 10.7577 8.31229L9.81566 25.2028L0 24.1656Z" transform="translate(37.4324 45.00492)" id="Fill-97" fill="#597EF7" stroke="none" />
    <path d="M9.64168 18.9021L0 17.6646L1.09997 0" transform="translate(37.4324 51.30561)" id="Stroke-99" fill="none" stroke="#1D39C4" stroke-width="0.521905661" stroke-linecap="round" stroke-linejoin="round" />
    <path d="M31.754 5.91873L31.754 5.91873C31.8509 8.29811 30.9043 10.3585 29.6054 10.5949L4.89291 15.2851C2.5791 15.5664 0.183577 12.2215 0.0116712 7.99798C-0.162021 3.73733 1.62402 0.123832 3.96372 0L29.3545 1.70496C30.6199 1.78961 31.6602 3.617 31.754 5.91873" transform="translate(7.940205 80.10876)" id="Fill-101" fill="#FFC999" stroke="none" />
    <path d="M10.6038 8.0818C11.4741 9.76293 9.81969 10.9972 9.81969 10.9972C9.81969 10.9972 10.4323 12.3019 9.04144 12.6853C7.80636 13.0259 0.148065 14.4016 0.148065 14.4016L0 5.55044L2.91932 4.94777C2.91932 4.94777 4.57692 2.56466 5.43326 1.63238C6.2887 0.700794 8.50696 0.993165 9.65582 0.136737C10.8047 -0.72038 10.2372 2.71016 7.50391 3.26801C11.81 3.32317 12.3693 1.57446 12.4722 3.29352C12.562 4.8002 11.4696 4.87398 11.4696 4.87398C11.4696 4.87398 12.6943 6.49375 10.6038 8.0818" transform="translate(35.16376 76.50836)" id="Fill-103" fill="#FFC999" stroke="none" />
    <path d="M3.5119 3.87365L25.7611 5.09855C25.7611 5.09855 27.3918 2.64236 28.2338 1.68248C29.0753 0.721889 31.2581 1.02314 32.3878 0.140703C33.5181 -0.741733 32.9603 2.79228 30.2708 3.36778C34.5071 3.42391 35.0573 1.6228 35.1585 3.39336C35.2474 4.9465 34.1727 5.02252 34.1727 5.02252C34.1727 5.02252 35.377 6.69148 33.3204 8.32704C34.1771 10.0592 32.5495 11.331 32.5495 11.331C32.5495 11.331 33.1681 12.8728 31.7839 13.0703C30.3992 13.2685 0 18.9021 0 18.9021" transform="translate(12.47747 76.50836)" id="Stroke-105" fill="none" stroke="#DD936F" stroke-width="0.5875594" stroke-linecap="round" stroke-linejoin="round" />
    <path d="M10.776 9.00098C10.776 9.00098 6.90467 0.234889 5.46598 0.0335532C4.02729 -0.167783 1.47976 0.551378 1.05641 1.80357C0.0598545 4.75844 0 8.79892 0 8.79892L4.8504 8.66711L10.776 9.00098Z" transform="translate(9.641678 71.10777)" id="Fill-107" fill="#FFC999" stroke="none" />
    <path d="M10.776 9.00098C10.776 9.00098 6.90467 0.234889 5.46598 0.0335532C4.02729 -0.167783 1.47976 0.551378 1.05641 1.80357C0.0598545 4.75844 0 8.79892 0 8.79892L4.8504 8.66711L10.776 9.00098Z" transform="translate(9.641678 71.10777)" id="Stroke-109" fill="none" stroke="#DD936F" stroke-width="0.623295" stroke-linecap="round" stroke-linejoin="round" />
    <path d="M0 0.80142C0 0.80142 2.28732 -0.0905795 3.9701 0.135346" transform="translate(10.20884 73.80807)" id="Stroke-111" fill="none" stroke="#DD936F" stroke-width="0.5" stroke-linecap="round" stroke-linejoin="round" />
    <path d="M0 0.592096C0 0.592096 2.49147 0.0790387 3.40294 0.431878" transform="translate(10.20884 75.60826)" id="Stroke-113" fill="none" stroke="#DD936F" stroke-width="0.5" stroke-linecap="round" stroke-linejoin="round" />
    <path d="M0 0.433398L3.9701 0.466702" transform="translate(10.20884 77.40846)" id="Stroke-115" fill="none" stroke="#DD936F" stroke-width="0.5" stroke-linecap="round" stroke-linejoin="round" />
  </g>
</svg>
