<?xml version="1.0" encoding="utf-8"?>
<svg width="87px" height="338px" viewBox="0 0 87 338" version="1.1" xmlns:xlink="http://www.w3.org/1999/xlink" xmlns="http://www.w3.org/2000/svg">
  <desc>Created with Lunacy</desc>
  <defs>
    <path d="M0 0L22.0211 0L22.0211 30.0644L0 30.0644L0 0Z" transform="translate(0 0.03858412)" id="path_1" />
    <clipPath id="mask_1">
      <use xlink:href="#path_1" />
    </clipPath>
  </defs>
  <g id="编组" transform="translate(0.8144531 0.8143921)">
    <path d="M5.23924 30.1801L0 9.2799L10.2117 0C10.2117 0 20.3826 28.8266 18.2142 35.1935C15.0334 44.5319 8.94818 45.7624 5.23924 30.1801" transform="translate(50.55009 81.26456)" id="Fill-1" fill="#FFC999" stroke="none" />
    <g id="编组" transform="translate(0 304.8851)">
      <path d="M0 0L22.0211 0L22.0211 30.0644L0 30.0644L0 0Z" transform="translate(0 0.03858412)" id="Clip-4" fill="none" stroke="none" />
      <g clip-path="url(#mask_1)">
        <path d="M9.44244 28.6324C3.1903 32.732 0.00947157 26.7263 0.00947157 26.7263C0.00947157 26.7263 -0.1604 24.6327 0.938653 22.3031C2.31466 19.3879 5.36066 18.371 8.98637 12.8011C11.771 8.52236 13.622 1.84258 13.622 1.84258C15.6391 -2.80429 22.0017 2.80331 22.0017 2.80331C22.0017 2.80331 22.0776 12.4414 21.9297 17.9537C21.9297 17.9537 21.6887 20.9881 16.8988 22.0333C13.3144 22.815 13.1864 26.1775 9.44244 28.6324" transform="translate(-0.0001262153 0.03858412)" id="Fill-3" fill="#4E5C93" stroke="none" />
      </g>
    </g>
    <path d="M0.0713062 4.37121C0.0713062 4.37121 -0.244586 18.4233 0.453395 22.1309C2.49769 25.8163 4.31663 24.1308 7.03359 27.8046C9.75105 31.4792 15.4731 37.5787 20.6642 31.2925C21.3081 27.0307 19.5997 25.0977 17.4838 22.8142C8.76151 13.4006 10.2957 11.725 8.71965 6.29037C6.30057 -2.04879 0.0318805 -1.47312 0.0713062 4.37121" transform="translate(46.5969 300.8726)" id="Fill-5" fill="#4E5C93" stroke="none" />
    <path d="M5.99446 66.1064C5.99446 66.1064 3.18404 43.2548 1.93459 34.8104C0.68562 26.3667 -1.18686 6.15981 1.02439 4.66645C3.23612 3.17385 8.53036 0.00804905 8.53036 0.00804905C8.53036 0.00804905 12.7372 -0.194858 17.4659 1.43685C21.2094 2.72961 21.1923 -0.758231 25.7317 0.466126C27.6543 0.984921 35.1739 4.77021 36.6287 6.59867C38.0836 8.42714 35.1841 67.5759 35.1841 67.5759C35.1841 67.5759 36.9719 70.5081 34.7796 74.2726C33.6932 76.035 29.0196 75.3955 23.0337 75.3686C16.2198 75.3371 8.20036 76.6199 6.72019 74.5616C3.93994 70.6949 5.99446 66.1064 5.99446 66.1064" transform="translate(18.00767 52.78503)" id="Fill-7" fill="#597EF7" stroke="none" />
    <path d="M4.36798 0L0 5.79975L4.86494 13.8123L7.35119 4.31407L4.36798 0Z" transform="translate(37.21802 49.12984)" id="Fill-9" fill="#597EF7" stroke="none" />
    <path d="M22.0002 38.7598L21.2847 49.0327C21.2847 49.0327 4.08872 34.1729 0.716601 25.6908C-2.27732 18.1594 5.07825 0 5.07825 0C5.07825 0 12.2299 8.0617 13.5402 13.0783L12.3136 18.6774L22.0002 38.7598Z" transform="translate(1.192966 84.46019)" id="Fill-11" fill="#FFC999" stroke="none" />
    <path d="M7.56502 46.9262C7.56502 46.9262 0.498087 27.2881 0.0244922 15.9207C-0.440342 4.77238 5.82689 -3.45918 9.00139 1.45132C13.6268 8.60762 18.4567 32.4184 18.4567 32.4184C18.4567 32.4184 13.1206 42.9757 7.56502 46.9262" transform="translate(46.82537 59.30791)" id="Fill-13" fill="#597EF7" stroke="none" />
    <path d="M0 11.7186C0 11.7186 5.03822 8.60355 8.81724 0" transform="translate(54.69271 87.62415)" id="Stroke-15" fill="none" stroke="#1D39C4" stroke-width="0.8148266" stroke-linecap="round" stroke-linejoin="round" />
    <path d="M0 11.993C0 11.993 5.03627 8.60278 8.8153 0" transform="translate(54.56294 93.96268)" id="Stroke-17" fill="none" stroke="#1D39C4" stroke-width="0.8148266" stroke-linecap="round" stroke-linejoin="round" />
    <path d="M0 36.5226C0 36.5226 8.57095 8.42468 13.1146 2.97925C17.6583 -2.46541 19.6452 0.478275 21.4349 4.45109C22.5617 6.9513 25.1439 14.0369 19.2208 28.7691C14.7603 39.8629 12.8946 43.971 12.3587 45.8256C5.02605 44.9118 0 36.5226 0 36.5226" transform="translate(3.108596 57.07227)" id="Fill-19" fill="#597EF7" stroke="none" />
    <path d="M8.32759 29.7427L12.5895 23.0683L12.0078 0L0.630811 0.812395L0 23.5479L8.32759 29.7427Z" transform="translate(28.97571 26.23421)" id="Fill-21" fill="#FFC999" stroke="none" />
    <path d="M1.1575 1.54253C1.1575 1.54253 2.92728 -1.25128 3.63792 0.680942C4.34904 2.61317 2.9925 9.41515 1.1064 9.54043C-1.41247 9.70875 1.1575 1.54253 1.1575 1.54253" transform="translate(42.78946 22.6421)" id="Fill-23" fill="#FFC999" stroke="none" />
    <path d="M4.76577 34.732C4.76577 34.732 8.41046 39.6126 13.3586 35.0057C16.9206 31.69 17.4886 19.3542 16.906 10.2733C16.5769 5.13534 15.1094 2.33615 11.9588 0.734421C8.80861 -0.867311 0.223544 -1.14631 0.00840594 13.9433C-0.232042 30.75 4.76577 34.732 4.76577 34.732" transform="translate(28.02615 6.666213)" id="Fill-25" fill="#FFC999" stroke="none" />
    <path d="M1.84425 0L1.2991 3.17733L2.28961 11.8078L0 11.7786" transform="translate(37.52291 19.44399)" id="Stroke-27" fill="none" stroke="#DD936F" stroke-width="0.610906661" stroke-linecap="round" stroke-linejoin="round" />
    <path d="M0 0.520252C0.831834 0.803091 3.05428 0.371915 4.53444 0.155174" transform="translate(32.20871 18.19681)" id="Stroke-29" fill="none" stroke="#253368" stroke-width="1.6288" stroke-linecap="round" stroke-linejoin="round" />
    <path d="M0 0.170197C0 0.170197 1.56973 0.853469 3.98735 0.493771" transform="translate(35.84308 33.49078)" id="Stroke-31" fill="none" stroke="#FF7A45" stroke-width="0.8148266" stroke-linecap="round" stroke-linejoin="round" />
    <path d="M2.22944 27.1072L0.432406 21.2421C0.432406 21.2421 -0.653505 12.8268 0.616392 9.25598C2.58622 3.71525 6.94884 3.98886 9.55678 2.57005C12.1637 1.15048 12.155 -0.22683 13.2034 0.0314146C14.2514 0.289659 18.2694 4.8858 18.6729 9.58417C19.0282 13.7145 18.2446 24.1904 18.2446 24.1904C18.2446 24.1904 17.6167 14.8759 17.0774 12.4056C15.0399 10.9938 7.58111 10.7155 4.44993 12.1436C4.44993 12.1436 4.14475 15.2994 3.96368 17.5229C2.27519 19.359 2.22944 27.1072 2.22944 27.1072" transform="translate(26.82118 0.0001742281)" id="Fill-33" fill="#253368" stroke="none" />
    <path d="M7.7985 0C7.7985 0 5.26698 4.22722 0 0.860048" transform="translate(33.78847 41.33892)" id="Stroke-35" fill="none" stroke="#DD936F" stroke-width="0.5" stroke-linecap="round" stroke-linejoin="round" />
    <path d="M0 0.415036L1.68509 0.353549" transform="translate(37.53999 22.30074)" id="Stroke-37" fill="none" stroke="#090D33" stroke-width="1.22181332" stroke-linecap="round" stroke-linejoin="round" />
    <path d="M0 0.645328C0 0.645328 1.13751 -0.509087 1.83159 0.615354" transform="translate(37.48674 23.97724)" id="Stroke-39" fill="none" stroke="#090D33" stroke-width="1.22181332" stroke-linecap="round" stroke-linejoin="round" />
    <path d="M0 1.13875C0 1.13875 2.62351 -1.14395 4.38063 0.754461" transform="translate(39.75596 17.78244)" id="Stroke-41" fill="none" stroke="#253368" stroke-width="1.6288" stroke-linecap="round" stroke-linejoin="round" />
    <path d="M0 0.395437L1.37309 0.373148" transform="translate(37.42736 36.20999)" id="Stroke-43" fill="none" stroke="#DD936F" stroke-width="0.5" stroke-linecap="round" stroke-linejoin="round" />
    <path d="M2.76369 0.374301L0 0.394284" transform="translate(28.53098 22.4218)" id="Stroke-45" fill="none" stroke="#090D33" stroke-width="1.22181332" stroke-linecap="round" stroke-linejoin="round" />
    <path d="M0.685698 0.0853733L5.9629 6.02817e-05C6.33136 -0.0060884 6.63265 0.458906 6.63411 1.04073C6.63655 2.12597 6.6088 3.86681 6.43942 5.35941C6.24034 7.12024 5.24643 8.2124 4.11574 8.31385C2.70322 8.4399 1.4343 8.46219 0.785966 7.31469C-0.202597 5.56539 0.017408 2.65629 0.0281162 1.11758C0.0324968 0.552673 0.328433 0.0907534 0.685698 0.0853733" transform="translate(30.81048 21.8453)" id="Fill-47" fill="#FFEDE1" stroke="none" />
    <path d="M0.685698 0.0853733L5.9629 6.02817e-05C6.33136 -0.0060884 6.63265 0.458906 6.63411 1.04073C6.63655 2.12597 6.6088 3.86681 6.43942 5.35941C6.24034 7.12024 5.24643 8.2124 4.11574 8.31385C2.70322 8.4399 1.4343 8.46219 0.785966 7.31469C-0.202597 5.56539 0.017408 2.65629 0.0281162 1.11758C0.0324968 0.552673 0.328433 0.0907534 0.685698 0.0853733Z" transform="translate(30.81048 21.8453)" id="Stroke-49" fill="none" stroke="#253368" stroke-width="0.5" stroke-linecap="round" stroke-linejoin="round" />
    <path d="M1.92018 0C1.9265 0.959195 1.50207 1.74392 0.971527 1.75237C0.440983 1.7616 0.00584084 0.990707 0 0.031512" transform="translate(33.20277 24.2923)" id="Stroke-51" fill="none" stroke="#090D33" stroke-width="0.8148266" stroke-linecap="round" stroke-linejoin="round" />
    <path d="M0.501837 0.0960732L6.47556 0C6.70579 1.375 6.52764 6.70898 5.50988 7.86801C4.14312 9.02627 1.3658 8.57895 0.927732 7.42915C0.262362 5.68369 -0.00193628 2.33804 1.06714e-05 0.896939C0.000984146 0.45654 0.223423 0.100685 0.501837 0.0960732" transform="translate(39.22419 21.60863)" id="Fill-53" fill="#FFEDE1" stroke="none" />
    <path d="M0.501837 0.0960732L6.47556 0C6.70579 1.375 6.52764 6.70898 5.50988 7.86801C4.14312 9.02627 1.3658 8.57895 0.927732 7.42915C0.262362 5.68369 -0.00193628 2.33804 1.06714e-05 0.896939C0.000984146 0.45654 0.223423 0.100685 0.501837 0.0960732Z" transform="translate(39.22419 21.60863)" id="Stroke-55" fill="none" stroke="#96A7CA" stroke-width="0.5" stroke-linecap="round" stroke-linejoin="round" />
    <path d="M1.92066 0C1.92699 0.959963 1.50207 1.74392 0.971527 1.75237C0.440984 1.7616 0.00584085 0.990707 0 0.031512" transform="translate(40.65925 24.17148)" id="Stroke-57" fill="none" stroke="#090D33" stroke-width="0.8148266" stroke-linecap="round" stroke-linejoin="round" />
    <path d="M0 0.302054L6.54272 0.466531" transform="translate(30.92387 21.69502)" id="Stroke-59" fill="none" stroke="#253368" stroke-width="1.22181332" stroke-linecap="round" stroke-linejoin="round" />
    <path d="M0 0.507266L6.40887 0.261319" transform="translate(39.3415 21.55399)" id="Stroke-61" fill="none" stroke="#253368" stroke-width="1.22181332" stroke-linecap="round" stroke-linejoin="round" />
    <path d="M2.97371 1.03845C2.35458 -0.136719 1.27987 -0.441078 0.516175 0.789427C-0.71381 2.77161 0.249443 10.4006 3.45899 10.8679C4.52738 10.615 3.88634 2.7693 2.97371 1.03845" transform="translate(25.29263 21.34784)" id="Fill-63" fill="#FFC999" stroke="none" />
    <path d="M0 36.6416C0 36.6416 1.99903 48.4524 8.61379 46.4126C13.1317 45.0191 17.801 7.99637 18.1806 3.69305C18.4517 0.617174 12.5734 0 12.5734 0L0 36.6416Z" transform="translate(57.73438 73.94324)" id="Fill-65" fill="#FFC999" stroke="none" />
    <path d="M0 21.1634C0 21.1634 0.247749 20.2818 0.742761 16.1415C1.23826 12.0011 6.33975 1.87497 6.66976 1.42458C7.79315 -0.109519 8.67998 2.07864 6.27599 7.6286C9.18862 6.33968 11.0061 4.24375 12.0331 1.33389C13.0601 -1.57598 15.0801 0.524564 14.4142 5.21909C13.7484 9.91284 13.6106 13.7212 11.6608 17.179C8.86932 22.1295 6.55927 23.7382 5.25676 24.5867C4.19859 25.2761 0.807497 24.4552 0 21.1634" transform="translate(70.2241 53.33246)" id="Fill-67" fill="#FFC999" stroke="none" />
    <path d="M11.5425 180.193L26.0385 36.7805L26.9088 36.4899L32.9618 179.842C32.9618 179.842 40.4649 183.423 44.4488 179.694C44.698 151.743 44.3787 61.037 42.756 19.5572C42.4946 12.879 41.2257 3.79431 40.9745 1.2695C28.92 -2.05232 12.4473 2.19488 12.4473 2.19488L0 177.909C0 177.909 5.9489 182.973 11.5425 180.193" transform="translate(12.01428 129.7792)" id="Fill-69" fill="#ADC6FF" stroke="none" />
    <path d="M0 4.6684L7.29473 0" transform="translate(37.87842 161.8941)" id="Stroke-71" fill="none" stroke="#597EF7" stroke-width="0.610906661" stroke-linecap="round" stroke-linejoin="round" />
    <path d="M0.0900464 1.48236C0.0900464 1.48236 15.4661 -1.9732 28.2249 1.66759C28.3242 3.45609 28.4264 5.65809 28.4264 5.65809C28.4264 5.65809 18.1066 1.56306 0 6.82711C0.0661962 1.97579 0.0900464 1.48236 0.0900464 1.48236" transform="translate(24.56519 125.8038)" id="Fill-73" fill="#ADC6FF" stroke="none" />
    <path d="M0 1.40077C0 1.40077 15.5045 -1.61593 27.9095 1.20478" transform="translate(24.74557 132.0536)" id="Stroke-75" fill="none" stroke="#597EF7" stroke-width="0.610906661" stroke-linecap="round" stroke-linejoin="round" />
    <path d="M0 1.40077C0 1.40077 15.505 -1.61593 27.9095 1.20478" transform="translate(24.7042 125.9942)" id="Stroke-77" fill="none" stroke="#1D39C4" stroke-width="0.8148266" stroke-linecap="round" stroke-linejoin="round" />
    <path d="M1.14334 0C1.14334 0 0.962279 24.7938 0 37.2057" transform="translate(38.91021 127.1357)" id="Stroke-79" fill="none" stroke="#597EF7" stroke-width="0.610906661" stroke-linecap="round" stroke-linejoin="round" />
    <path d="M1.22129 1.22901C1.22567 1.91382 0.956016 2.47335 0.619194 2.47873C0.281885 2.48411 0.00493224 1.9338 6.48702e-05 1.24976C-0.0048025 0.56495 0.26485 0.00541927 0.602645 3.91692e-05C0.939467 -0.00534093 1.21642 0.544198 1.22129 1.22901" transform="translate(41.80973 127.6469)" id="Fill-81" fill="#FFFFFF" stroke="none" />
    <path d="M2.49306 0L1.77123 2.90449C1.77123 2.90449 1.82429 10.7541 0 11.8178" transform="translate(74.00683 60.96114)" id="Stroke-83" fill="none" stroke="#DD936F" stroke-width="0.5" stroke-linecap="round" stroke-linejoin="round" />
    <path d="M0 5.6348C2.34753 4.56185 3.37212 1.23926 3.37212 1.23926C3.37212 1.23926 4.27355 -0.841304 4.80556 0.389202" transform="translate(79.08043 62.92665)" id="Stroke-85" fill="none" stroke="#DD936F" stroke-width="0.5" stroke-linecap="round" stroke-linejoin="round" />
    <path d="M0 5.78772C0 5.78772 1.43782 5.55715 3.5011 1.1839C3.5011 1.1839 4.7929 -1.31708 5.06985 0.951017" transform="translate(79.18742 59.25991)" id="Stroke-87" fill="none" stroke="#DD936F" stroke-width="0.5" stroke-linecap="round" stroke-linejoin="round" />
    <path d="M0 6.90379C0 6.90379 1.17304 6.26356 2.59674 3.9678C4.04381 1.6336 4.78657 -1.02801 5.71235 0.403097" transform="translate(78.7786 55.67184)" id="Stroke-89" fill="none" stroke="#DD936F" stroke-width="0.5" stroke-linecap="round" stroke-linejoin="round" />
    <path d="M5.26698 0L0 14.3441" transform="translate(59.8255 89.45699)" id="Stroke-91" fill="none" stroke="#E2A688" stroke-width="0.610906661" stroke-linecap="round" stroke-linejoin="round" />
    <path d="M10.5359 7.57364L6.27745 16.3225L0 4.54695L2.32952 0L10.5359 7.57364Z" transform="translate(26.72318 48.26633)" id="Fill-93" fill="#597EF7" stroke="none" />
    <path d="M0 0C0 0 3.27185 6.55604 10.0088 9.74721" transform="translate(7.822402 81.67921)" id="Stroke-95" fill="none" stroke="#ADC6FF" stroke-width="1.6288" stroke-linecap="round" stroke-linejoin="round" />
    <path d="M0 0C0 0 2.15089 8.50286 8.63034 12.2497" transform="translate(11.41447 71.15128)" id="Stroke-97" fill="none" stroke="#ADC6FF" stroke-width="1.6288" stroke-linecap="round" stroke-linejoin="round" />
    <path d="M20.2356 38.6353C18.0268 21.5942 14.2945 11.4658 14.2945 11.4658C11.231 8.52362 6.95888 6.04262 3.56681 5.10495L0 0" transform="translate(40.50427 52.06615)" id="Stroke-99" fill="none" stroke="#ADC6FF" stroke-width="1.6288" stroke-linecap="round" stroke-linejoin="round" />
    <path d="M0 33.4035C0 33.4035 7.87395 11.1652 9.50841 7.83189C11.1434 4.4993 20.6411 0 20.6411 0" transform="translate(7.792954 56.81532)" id="Stroke-101" fill="none" stroke="#ADC6FF" stroke-width="1.6288" stroke-linecap="round" stroke-linejoin="round" />
    <path d="M0 28.674C0 28.674 7.07472 8.47629 8.87663 6.41879C17.4451 -3.36685 37.4388 -0.468509 42.7107 5.22671L45.6623 28.8661" transform="translate(11.61744 66.02541)" id="Stroke-103" fill="none" stroke="#ADC6FF" stroke-width="1.6288" stroke-linecap="round" stroke-linejoin="round" />
    <path d="M31.2237 4.21782C14.5861 -5.41717 0 4.46992 0 4.46992" transform="translate(21.96367 78.89834)" id="Stroke-105" fill="none" stroke="#ADC6FF" stroke-width="1.6288" stroke-linecap="round" stroke-linejoin="round" />
    <path d="M0 3.82504C0 3.82504 15.6871 -4.56561 31.0052 3.50762" transform="translate(22.35277 91.93228)" id="Stroke-107" fill="none" stroke="#ADC6FF" stroke-width="1.6288" stroke-linecap="round" stroke-linejoin="round" />
    <path d="M0 2.38126C0 2.38126 14.6605 -2.96272 29.7421 2.36051" transform="translate(23.16937 104.4496)" id="Stroke-109" fill="none" stroke="#ADC6FF" stroke-width="1.6288" stroke-linecap="round" stroke-linejoin="round" />
    <path d="M0 0C0 0 3.70212 5.72212 6.00828 37.0843C7.27088 54.2652 7.6223 62.9502 7.43394 67.3612" transform="translate(21.96251 57.47584)" id="Stroke-111" fill="none" stroke="#ADC6FF" stroke-width="1.6288" stroke-linecap="round" stroke-linejoin="round" />
    <path d="M5.68071 72.2594C5.68071 72.2594 5.10782 48.6753 3.85106 34.0022C2.21757 14.9198 0 6.2463 0 6.2463L2.83573 0" transform="translate(29.81917 52.19865)" id="Stroke-113" fill="none" stroke="#ADC6FF" stroke-width="1.6288" stroke-linecap="round" stroke-linejoin="round" />
    <path d="M0 0C1.49769 8.6512 2.06863 54.2983 0.597226 68.7853" transform="translate(46.54273 55.06317)" id="Stroke-115" fill="none" stroke="#ADC6FF" stroke-width="1.6288" stroke-linecap="round" stroke-linejoin="round" />
    <path d="M5.17694 0C5.17694 0 2.57727 2.52327 0 8.35146" transform="translate(54.82948 72.60252)" id="Stroke-117" fill="none" stroke="#ADC6FF" stroke-width="1.6288" stroke-linecap="round" stroke-linejoin="round" />
    <path d="M6.85813 0C6.85813 0 3.61256 3.77376 0 11.2721" transform="translate(54.77015 80.21898)" id="Stroke-119" fill="none" stroke="#ADC6FF" stroke-width="1.6288" stroke-linecap="round" stroke-linejoin="round" />
    <path d="M0 1.44697C0 1.44697 18.5968 -2.24147 27.1302 2.15945" transform="translate(24.81021 115.8232)" id="Stroke-121" fill="none" stroke="#ADC6FF" stroke-width="1.6288" stroke-linecap="round" stroke-linejoin="round" />
    <path d="M0 0C0 0 1.88757 8.23155 2.83184 38.2402C3.29667 53.0047 2.91799 63.7872 2.68728 68.3365" transform="translate(37.52622 56.6619)" id="Stroke-123" fill="none" stroke="#1D39C4" stroke-width="0.8148266" stroke-linecap="round" stroke-linejoin="round" />
    <path d="M0 0L6.08665 10.0201" transform="translate(28.32669 50.61936)" id="Stroke-125" fill="none" stroke="#ADC6FF" stroke-width="1.6288" stroke-linecap="round" stroke-linejoin="round" />
    <path d="M3.00317 0L0 7.34998" transform="translate(40.03116 52.16145)" id="Stroke-127" fill="none" stroke="#ADC6FF" stroke-width="1.6288" stroke-linecap="round" stroke-linejoin="round" />
    <path d="M2.13677 0C2.13677 0 2.27111 7.0218 1.42711 11.1676C1.42711 11.1676 2.26965 31.0685 0.365539 58.9905C0.365539 58.9905 2.01022 62.1647 0 65.339" transform="translate(52.69236 61.5342)" id="Stroke-129" fill="none" stroke="#1D39C4" stroke-width="0.8148266" stroke-linecap="round" stroke-linejoin="round" />
    <path d="M0 0C0 0 6.34851 0.117594 9.04163 2.09363C9.09614 10.1815 8.84012 14.0052 8.84012 14.0052L5.19933 17.8858L0.516428 13.6962L0 0Z" transform="translate(42.83706 68.14111)" id="Stroke-131" fill="none" stroke="#1D39C4" stroke-width="0.8148266" stroke-linecap="round" stroke-linejoin="round" />
    <path d="M0 0C0 0 3.70748 6.54835 10.7029 9.1846" transform="translate(5.429115 88.88171)" id="Stroke-133" fill="none" stroke="#1D39C4" stroke-width="0.8148266" stroke-linecap="round" stroke-linejoin="round" />
    <path d="M6.67607 5.60312C6.67607 5.60312 2.84107 -0.217374 1.55997 0.00628447C-0.42494 0.351379 0.947659 6.42013 0.947659 6.42013C0.947659 6.42013 -0.741319 8.20325 0.390345 11.2845C-0.309583 14.2912 0.74615 15.72 0.74615 15.72C0.74615 15.72 -0.350956 18.0104 1.23094 19.8442C2.81284 21.6781 6.38841 21.1024 5.83839 17.1865C7.26356 14.9945 6.07105 12.844 6.07105 12.844C6.07105 12.844 7.10294 10.7611 5.91189 8.71513C6.95205 7.76823 7.07227 6.21646 6.67607 5.60312" transform="translate(20.93716 113.4103)" id="Fill-135" fill="#FFC999" stroke="none" />
    <path d="M3.81748 3.44788L0 0" transform="translate(23.03143 118.6774)" id="Stroke-137" fill="none" stroke="#E2A688" stroke-width="0.610906661" stroke-linecap="round" stroke-linejoin="round" />
    <path d="M0.937593 0C0.937593 0 -0.727047 2.40029 0.379793 4.86438C-0.471023 7.98022 0.736084 9.29988 0.736084 9.29988L0.734624 12.0922" transform="translate(20.94742 119.8303)" id="Stroke-139" fill="none" stroke="#E2A688" stroke-width="0.610906661" stroke-linecap="round" stroke-linejoin="round" />
    <path d="M0 0L3.67438 1.5902" transform="translate(23.33384 124.6637)" id="Stroke-141" fill="none" stroke="#E2A688" stroke-width="0.610906661" stroke-linecap="round" stroke-linejoin="round" />
    <path d="M0 0L3.53907 0.973022" transform="translate(23.23639 129.6234)" id="Stroke-143" fill="none" stroke="#E2A688" stroke-width="0.610906661" stroke-linecap="round" stroke-linejoin="round" />
    <path d="M1.3084 1.22825C1.31327 1.91306 1.02414 2.47259 0.662986 2.47874C0.301826 2.48489 0.0049165 1.93458 4.91292e-05 1.25054C-0.00433151 0.56573 0.284791 0.00619978 0.646437 5.10978e-05C1.0076 -0.00609759 1.30402 0.543441 1.3084 1.22825" transform="translate(36.25681 61.21749)" id="Fill-145" fill="#FFFFFF" stroke="none" />
    <path d="M1.30839 1.22825C1.31326 1.91306 1.02413 2.47259 0.662975 2.47874C0.301816 2.48489 0.00490631 1.93458 3.89391e-05 1.25054C-0.00385496 0.56573 0.28478 0.00619978 0.646426 5.10978e-05C1.00758 -0.00609759 1.30401 0.543441 1.30839 1.22825" transform="translate(37.25784 73.80277)" id="Fill-147" fill="#FFFFFF" stroke="none" />
    <path d="M1.3084 1.22825C1.31278 1.91306 1.02366 2.47259 0.662499 2.47874C0.30134 2.48489 0.00442985 1.93458 4.92107e-05 1.25054C-0.00433143 0.56573 0.284304 0.00619978 0.64595 5.10978e-05C1.00711 -0.00609759 1.30353 0.543441 1.3084 1.22825" transform="translate(37.87384 87.42711)" id="Fill-149" fill="#FFFFFF" stroke="none" />
    <path d="M1.3084 1.22825C1.31278 1.91306 1.02366 2.47259 0.662499 2.47874C0.30134 2.48489 0.00442985 1.93458 4.92107e-05 1.25054C-0.00433143 0.56573 0.284304 0.00619978 0.64595 5.10978e-05C1.00711 -0.00609759 1.30353 0.543441 1.3084 1.22825" transform="translate(38.09156 100.2323)" id="Fill-151" fill="#FFFFFF" stroke="none" />
    <path d="M1.3084 1.22825C1.31327 1.91306 1.02366 2.47259 0.662499 2.47874C0.301827 2.48489 0.00491659 1.93458 4.92107e-05 1.25054C-0.00433143 0.56573 0.284304 0.00619978 0.64595 5.10978e-05C1.00711 -0.00609759 1.30353 0.543441 1.3084 1.22825" transform="translate(38.0754 117.1731)" id="Fill-153" fill="#FFFFFF" stroke="none" />
    <path d="M0 0L6.06621 11.4181L10.5033 3.35564" transform="translate(26.80374 53.17245)" id="Stroke-155" fill="none" stroke="#1D39C4" stroke-width="0.8148266" stroke-linecap="round" stroke-linejoin="round" />
    <path d="M0 2.73693L4.7637 10.6449L7.08981 0" transform="translate(37.48056 53.6502)" id="Stroke-157" fill="none" stroke="#1D39C4" stroke-width="0.8148266" stroke-linecap="round" stroke-linejoin="round" />
    <path d="M4.05014 0C4.05014 0 5.23243 20.0194 0 20.1077" transform="translate(39.7528 133.4079)" id="Stroke-159" fill="none" stroke="#597EF7" stroke-width="0.610906661" stroke-linecap="round" stroke-linejoin="round" />
    <path d="M0 0C0 0 5.76102 5.78514 4.6644 24.5402" transform="translate(16.41638 62.80306)" id="Stroke-161" fill="none" stroke="#1D39C4" stroke-width="0.8148266" stroke-linecap="round" stroke-linejoin="round" />
    <path d="M0 0C0 0 5.55513 9.28067 12.3587 9.30296" transform="translate(3.108596 93.5949)" id="Stroke-163" fill="none" stroke="#1D39C4" stroke-width="0.8148266" stroke-linecap="round" stroke-linejoin="round" />
    <path d="M0 0C0 0 1.35167 0.876956 1.06547 2.77075C0.940376 3.60006 0.415187 3.29877 0.354831 4.12577C0.263812 5.38779 1.21636 5.76439 1.21636 5.76439" transform="translate(26.83319 23.27116)" id="Stroke-165" fill="none" stroke="#DD936F" stroke-width="0.5" stroke-linecap="round" stroke-linejoin="round" />
  </g>
</svg>
