<?xml version="1.0" encoding="utf-8"?>
<svg width="79px" height="300px" viewBox="0 0 79 300" version="1.1" xmlns:xlink="http://www.w3.org/1999/xlink" xmlns="http://www.w3.org/2000/svg">
  <desc>Created with Lunacy</desc>
  <defs>
    <path d="M0 0L30.995 0L30.995 11.7909L0 11.7909L0 0Z" transform="translate(0.003515288 0.4562847)" id="path_1" />
    <path d="M0 0L43.873 0L43.873 33.063L0 33.063L0 0Z" transform="translate(0 0.02509122)" id="path_2" />
    <clipPath id="mask_1">
      <use xlink:href="#path_1" />
    </clipPath>
    <clipPath id="mask_2">
      <use xlink:href="#path_2" />
    </clipPath>
  </defs>
  <g id="1.人物组件/1.商人/站立/思考" transform="translate(0.8505859 0.8505249)">
    <g id="分组">
      <path d="M13.6606 17.1534C13.6606 17.1534 6.99477 28.1736 1.05186 30.7042C-2.27719 32.1226 2.74762 38.4467 9.7873 37.0375C17.779 35.4378 15.9287 32.8482 22.6982 33.6014C26.6548 34.0416 30.7819 32.1103 30.7819 32.1103L29.4687 20.7511C29.4687 20.7511 22.5181 -23.4391 13.6606 17.1534" transform="translate(1.448003 255.0309)" id="Fill-1" fill="#CCD7EE" stroke="none" />
      <path d="M2.18253 2.51833C2.18253 2.51833 2.20819 4.13802 6.31831 6.47877C11.1059 9.20607 18.1751 4.67996 22.3215 2.65458C28.708 -0.463863 29.3239 1.49645 30.4918 0C31.6443 2.65688 30.5684 5.38953 30.5684 5.38953C30.5684 5.38953 29.2159 6.6265 24.3204 6.82169C19.4258 7.01612 19.5299 9.09661 13.435 10.5678C4.84868 12.6399 0.470305 9.04226 0.0892194 6.26291C-0.390165 2.76634 1.17098 1.25304 2.18253 2.51833" transform="translate(1.250538 283.4374)" id="Fill-3" fill="#B0BEDC" stroke="none" />
      <path d="M17.2835 16.6282C17.2835 16.6282 23.8268 27.8306 29.7407 30.5249C33.0533 32.0344 27.9597 38.2192 20.9365 36.6164C12.9637 34.7962 14.8425 32.2579 8.06576 32.8244C4.1043 33.1558 0 31.1097 0 31.1097L1.43815 19.7887C1.43815 19.7887 8.27979 -22.5476 17.2835 16.6282" transform="translate(46.50102 257.2122)" id="Fill-5" fill="#CCD7EE" stroke="none" />
      <g id="分组" transform="translate(46.46267 284.1764)">
        <path d="M0 0L30.995 0L30.995 11.7909L0 11.7909L0 0Z" transform="translate(0.003515288 0.4562847)" id="Clip-8" fill="none" stroke="none" />
        <g clip-path="url(#mask_1)">
          <path d="M28.84 3.29909C28.84 3.29909 28.7964 4.91725 24.6611 7.14471C19.8445 9.74035 12.8261 5.01982 8.70245 2.88039C2.35133 -0.414874 1.71409 1.5286 0.563087 0C-0.618909 2.62473 0.42702 5.38647 0.42702 5.38647C0.42702 5.38647 1.76542 6.66095 6.65756 6.99085C11.5497 7.32 11.4223 9.3982 17.5004 11.037C26.0624 13.3456 30.4796 9.86895 30.8916 7.10108C31.4098 3.61828 29.8656 2.06212 28.84 3.29909" transform="translate(0.003515288 0.4562847)" id="Fill-7" fill="#B0BEDC" stroke="none" />
        </g>
      </g>
      <path d="M1.64778 116.334C1.64778 116.334 -2.83325 5.54046 2.98376 1.08554C8.80125 -3.37091 25.5264 6.32122 26.5733 22.3291C27.6202 38.3377 22.1398 119.361 22.1398 119.361C22.1398 119.361 23.7658 129.073 21.1626 131.962C17.5682 134.372 13.9462 124.418 3.53239 126.778C-1.30503 123.088 1.64778 116.334 1.64778 116.334" transform="translate(10.71582 145.0208)" id="Fill-9" fill="#4E5C93" stroke="none" />
      <path d="M0 23.407L8.67588 115.455C8.67588 115.455 5.95841 128.69 11.7836 130.703C13.5956 131.329 16.8758 127.754 20.7268 126.834C24.5784 125.914 29.0003 127.649 29.9 125.132C31.6989 120.096 29.4661 112.603 29.4661 112.603C29.4661 112.603 30.3043 34.5398 27.6619 4.69332C26.5879 -7.44059 1.04738 5.79557 0 23.407" transform="translate(35.99777 147.8575)" id="Fill-11" fill="#4E5C93" stroke="none" />
      <path d="M1.89297 0C1.89297 0 -0.525259 24.091 0.104719 33.6094C0.734698 43.1285 17.1321 53.3672 26.3982 53.8257C31.3717 54.0721 49.4314 45.2917 51.1698 33.7793C53.3677 19.2258 51.8918 14.728 50.6085 8.4498C49.6837 3.92217 48.829 1.89219 48.829 1.89219C48.829 1.89219 5.98129 0.202844 1.89297 0" transform="translate(11.39464 132.4815)" id="Fill-13" fill="#4E5C93" stroke="none" />
      <path d="M0 0C0 0 4.42825 10.5693 15.7252 11.6509L23.1421 89.1145" transform="translate(21.53151 174.1985)" id="Stroke-15" fill="none" stroke="#3B4A7A" stroke-width="0.8505" stroke-linecap="round" stroke-linejoin="round" />
      <path d="M0.12773 0C0.12773 0 -0.906093 16.5368 2.90864 30.5261" transform="translate(31.46067 149.5744)" id="Stroke-17" fill="none" stroke="#3B4A7A" stroke-width="0.8505" stroke-linecap="round" stroke-linejoin="round" />
      <path d="M0 7.33684L8.60228 0" transform="translate(41.06796 176.3446)" id="Stroke-19" fill="none" stroke="#3B4A7A" stroke-width="0.8505" stroke-linecap="round" stroke-linejoin="round" />
      <path d="M0 0C0 0 17.9062 18.9747 47.4348 1.72379" transform="translate(13.65504 137.8236)" id="Stroke-21" fill="none" stroke="#3B4A7A" stroke-width="0.8505" stroke-linecap="round" stroke-linejoin="round" />
      <path d="M0.254703 12.5074L0.229523 0" transform="translate(31.23749 133.8131)" id="Stroke-23" fill="none" stroke="#3B4A7A" stroke-width="0.8505" stroke-linecap="round" stroke-linejoin="round" />
      <path d="M0 0L46.4785 1.994" transform="translate(13.48788 132.4916)" id="Stroke-25" fill="none" stroke="#3B4A7A" stroke-width="0.8505" stroke-linecap="round" stroke-linejoin="round" />
      <path d="M7.24066 66.8541L7.24066 66.8541C12.7458 69.651 18.6398 64.8348 20.3792 56.1179L27.2968 21.4514C29.0231 12.8011 26.0049 3.57126 20.5424 0.795736L20.5424 0.795736C15.0372 -2.00198 9.14319 2.81423 7.40384 11.5319L0.485704 46.1984C-1.24008 54.848 1.7781 64.0786 7.24066 66.8541" transform="translate(0.2329363 50.86525)" id="Fill-27" fill="#CCD7EE" stroke="none" />
      <path d="M5.98554 12.6574C5.98554 12.6574 7.34379 19.8404 4.71202 21.8666C2.39887 23.647 0.189349 22.9367 0.0150275 17.9681C-0.159294 13.0004 1.19944 -0.516722 3.23513 0.0152653C5.27033 0.547253 5.98554 12.6574 5.98554 12.6574" transform="translate(44.99792 16.51639)" id="Fill-29" fill="#51342D" stroke="none" />
      <path d="M11.0966 41.2894C11.0966 41.2894 5.9076 41.9676 2.72187 38.5369C-1.10206 34.4187 0.167578 21.4023 0.336089 17.1464C0.631951 9.68093 2.77901 5.81311 2.77901 5.81311C2.77901 5.81311 4.97207 -0.390097 13.2451 0.0194192C21.5181 0.428935 21.5733 12.5873 21.4624 18.192C21.351 23.7966 20.2417 34.395 17.9803 37.1889C15.2517 40.5599 11.0966 41.2894 11.0966 41.2894" transform="translate(28.2123 1.72374)" id="Fill-31" fill="#B69882" stroke="none" />
      <path d="M2.36018 14.2213C2.36018 14.2213 -1.07443 8.44059 0.342898 4.06987C1.76071 -0.301611 4.4288 -0.637643 7.36079 0.676634C10.2923 1.99091 21.9389 -2.637 23.0526 7.29778C27.9046 16.1869 24.1024 23.5605 24.1024 23.5605C24.1024 23.5605 22.0963 19.8473 21.2973 22.8471C20.4988 25.8462 19.8795 27.8807 19.3071 26.917C18.7348 25.9541 19.341 22.3741 18.3397 20.6878C17.3378 19.0023 16.1553 13.8952 17.0739 10.5081C17.4109 8.42069 6.3352 7.63917 3.93925 9.15629C2.58825 10.0121 2.36018 14.2213 2.36018 14.2213" transform="translate(26.7239 9.996317E-05)" id="Fill-33" fill="#51342D" stroke="none" />
      <path d="M0 0.994057C0 0.994057 0.574777 -0.58277 2.92473 0.235496" transform="translate(29.75793 16.53352)" id="Stroke-35" fill="none" stroke="#51342D" stroke-width="1.701" stroke-linecap="round" stroke-linejoin="round" />
      <path d="M0 0.151194C0 0.151194 1.78679 -0.461166 3.24092 0.778864" transform="translate(37.60177 17.06316)" id="Stroke-37" fill="none" stroke="#51342D" stroke-width="1.701" stroke-linecap="round" stroke-linejoin="round" />
      <path d="M1.55574 0C1.55574 0 -2.40862 7.13476 2.31937 7.36899" transform="translate(32.69097 20.43989)" id="Stroke-39" fill="none" stroke="#7C5B4D" stroke-width="0.637875" stroke-linecap="round" stroke-linejoin="round" />
      <path d="M1.62562 1.559C1.60916 2.39717 1.23195 3.05852 0.783067 3.03632C0.33419 3.01412 -0.015906 2.3168 0.00055766 1.47863C0.0170214 0.639694 0.394718 -0.0216552 0.843111 0.000542844C1.29199 0.0227409 1.64208 0.720066 1.62562 1.559" transform="translate(37.99343 22.06715)" id="Fill-41" fill="#51342D" stroke="none" />
      <path d="M1.62565 1.55896C1.60871 2.39713 1.23198 3.05848 0.783099 3.03705C0.334222 3.01408 -0.0163584 2.31676 0.000589486 1.47859C0.0170532 0.640423 0.394266 -0.0209261 0.843144 0.000506553C1.29202 0.0227046 1.64212 0.720795 1.62565 1.55896" transform="translate(30.3113 21.68668)" id="Fill-43" fill="#51342D" stroke="none" />
      <path d="M0.0886188 0.374305L0.000489639 13.9235C-0.0493857 21.6485 3.71693 28.0981 8.59212 28.6355C13.9578 29.2264 18.5062 22.4736 18.4689 13.9718L18.4074 0L0.0886188 0.374305Z" transform="translate(30.49114 29.22779)" id="Fill-45" fill="#B69882" stroke="none" />
      <path d="M0.0980791 3.44726C0.0980791 3.44726 0.345035 0.15353 3.25766 0.0103913C5.7737 -0.113612 7.35518 0.857745 8.1866 3.70369C9.01704 6.5504 3.64407 3.47941 3.64407 3.47941C3.64407 3.47941 -0.700894 6.4463 0.0980791 3.44726" transform="translate(30.48594 27.44883)" id="Fill-47" fill="#51342D" stroke="none" />
      <path d="M5.17395 6.4962C4.80545 9.64602 3.36827 11.8674 1.96352 11.4571C0.558783 11.0468 -0.281834 8.16029 0.0866627 5.01046C0.454675 1.85987 1.89234 -0.361469 3.29708 0.0488121C4.70182 0.459093 5.54196 3.34561 5.17395 6.4962" transform="translate(46.84586 20.4429)" id="Fill-49" fill="#B69882" stroke="none" />
      <path d="M0 4.06607C0 4.06607 6.3516 12.2097 15.2328 0" transform="translate(31.208 36.41942)" id="Stroke-51" fill="none" stroke="#7C5B4D" stroke-width="0.637875" stroke-linecap="round" stroke-linejoin="round" />
      <path d="M0.0171364 0C0.0171364 0 -0.226914 3.15059 1.12698 3.6489" transform="translate(34.92705 38.7307)" id="Stroke-53" fill="none" stroke="#7C5B4D" stroke-width="0.637875" stroke-linecap="round" stroke-linejoin="round" />
      <path d="M1.60666 0.000163532C1.60666 0.000163532 0.0624652 -0.0763815 0 3.08263C1.53258 3.73403 1.15246 4.89062 0.493911 5.85126" transform="translate(48.40481 23.37668)" id="Stroke-55" fill="none" stroke="#7C5B4D" stroke-width="0.637875" stroke-linecap="round" stroke-linejoin="round" />
      <path d="M3.32543 54.9895C3.32543 54.9895 -7.31108 88.6762 9.46154 96.1355C17.5259 99.7217 24.1321 100.838 30.0988 100.295C43.1424 99.1055 49.7167 95.4818 51.3466 92.6719C55.725 85.1268 53.376 73.2095 54.3697 55.1442C55.2747 38.6724 60.1949 19.3058 54.4733 10.2138C50.1642 6.1033 46.1112 2.78202 40.3169 0.207809C35.8926 -1.75787 32.8584 10.8721 28.5139 10.7389C24.9074 10.6286 21.8403 -0.791104 18.5839 0.585176C12.242 3.26425 9.65233 4.99876 4.38879 9.05029C4.38879 9.05029 2.30759 21.7001 4.68175 40.0342C4.68175 40.0342 2.97533 47.6979 3.32543 54.9895" transform="translate(9.820055 43.16634)" id="Fill-57" fill="#CCD7EE" stroke="none" />
      <path d="M0 3.21719C0 3.21719 0.803816 30.569 3.95855 43.4469C13.953 16.3416 20.4164 0.045927 20.6881 0L8.38438 8.23165L0 3.21719Z" transform="translate(29.65082 44.38049)" id="Fill-59" fill="#FFFFFF" stroke="none" />
      <path d="M0 4.74502L4.32269 0L8.84052 6.04552L6.21408 11.5598L0.727792 11.3363L0 4.74502Z" transform="translate(32.83587 51.26027)" id="Fill-61" fill="#253368" stroke="none" />
      <path d="M0 8.19874L3.10776 0L8.5587 0.270204L9.78476 6.95794L2.73588 26.1593L0 8.19874Z" transform="translate(30.554 62.51492)" id="Fill-63" fill="#253368" stroke="none" />
      <path d="M0.822701 15.3618L8.23282 8.54089L1.21783 0L0 1.80876L0.822701 15.3618Z" transform="translate(29.36978 42.97121)" id="Fill-65" fill="#FFFFFF" stroke="none" />
      <path d="M0 9.77709L6.21165 17.5594L12.8722 2.65152L11.5609 0L0 9.77709Z" transform="translate(37.60249 41.73524)" id="Fill-67" fill="#FFFFFF" stroke="none" />
      <path d="M0.813016 16.918L8.23281 9.32242L1.41539 0L0 2.58952L0.813016 16.918Z" transform="translate(29.10142 41.96151)" id="Fill-69" fill="#FFFFFF" stroke="none" />
      <path d="M0.813016 16.918L8.23281 9.32242L1.41539 0L0 2.58952L0.813016 16.918Z" transform="translate(29.10142 41.96151)" id="Stroke-71" fill="none" stroke="#CCD7EE" stroke-width="0.8505" stroke-linecap="round" stroke-linejoin="round" />
      <path d="M0 10.7201L6.59904 19.8726L13.8227 3.2922L11.3977 0L0 10.7201Z" transform="translate(37.33433 40.56349)" id="Fill-73" fill="#FFFFFF" stroke="none" />
      <path d="M0 10.7201L6.59904 19.8726L13.8227 3.2922L11.3977 0L0 10.7201Z" transform="translate(37.33433 40.56349)" id="Stroke-75" fill="none" stroke="#CCD7EE" stroke-width="0.8505" />
      <path d="M3.67695 0L3.53411 16.3806C3.53411 16.3806 -3.6 40.6087 2.40392 54.2742" transform="translate(29.44287 88.09067)" id="Stroke-77" fill="none" stroke="#96A7CA" stroke-width="0.8505" stroke-linecap="round" stroke-linejoin="round" />
      <path d="M5.10191 0C4.78668 2.14096 5.67911 9.08513 5.67911 9.08513L3.92185 36.1606C3.92185 36.1606 -6.93499 63.145 7.47898 74.2953C7.47898 74.2953 29.9592 87.9119 50.9969 72.5662C50.9969 72.5662 56.2226 63.553 52.9057 51.9603" transform="translate(9.61213 63.89188)" id="Stroke-79" fill="none" stroke="#96A7CA" stroke-width="0.8505" stroke-linecap="round" stroke-linejoin="round" />
      <path d="M0 0.0926195C0 0.0926195 0.782026 29.975 4.30187 45.0988C4.30187 45.0988 16.6341 11.1472 22.3112 0" transform="translate(28.9824 43.86243)" id="Stroke-81" fill="none" stroke="#96A7CA" stroke-width="0.8505" stroke-linecap="round" stroke-linejoin="round" />
      <path d="M0 1.04557C0 1.04557 6.29155 -1.82028 16.8569 1.93732" transform="translate(25.43229 104.7771)" id="Stroke-83" fill="none" stroke="#96A7CA" stroke-width="0.8505" stroke-linecap="round" stroke-linejoin="round" />
      <path d="M0 0C0 0 8.16502 0.979014 9.98765 0.781527" transform="translate(28.81098 100.5273)" id="Stroke-85" fill="none" stroke="#96A7CA" stroke-width="0.8505" stroke-linecap="round" stroke-linejoin="round" />
      <path d="M14.0502 69.0874L14.0502 69.0874C19.8101 68.1436 23.9807 59.9648 23.341 50.8674L20.7964 14.667C20.1636 5.6653 15.055 -0.844087 9.35562 0.0889967L9.35514 0.0889967C3.59575 1.0328 -0.574887 9.21163 0.0647757 18.309L2.60938 54.5094C3.24227 63.5111 8.35086 70.0213 14.0502 69.0874" transform="translate(48.96018 51.63391)" id="Fill-87" fill="#CCD7EE" stroke="none" />
      <path d="M5.30673 22.7957C5.30673 22.7957 11.0971 32.9318 15.0101 31.1284C18.5537 29.495 17.5121 22.0846 17.5121 22.0846C17.5121 22.0846 18.3804 15.9534 15.2639 11.6232C11.7237 6.70444 11.9813 -0.566567 10.5829 0.0350769C8.75975 0.819663 10.4066 8.93879 10.1994 10.2225C9.51369 14.4684 2.07936 1.654 1.77817 1.50398C1.05813 1.14498 0.847973 2.57178 0.661546 2.77845C0.262543 3.22165 -0.00571815 3.90596 9.2568e-05 5.18962C0.00348215 5.90378 0.44897 6.6256 0.431538 7.51046C0.430086 7.58241 0.0528732 10.7927 1.23051 13.0845C2.59119 15.7322 0.608765 15.785 5.30673 22.7957" transform="translate(29.12936 36.33826)" id="Fill-89" fill="#B69882" stroke="none" />
      <path d="M5.55069 9.46785C5.55069 9.46785 1.90834 5.67734 0 0" transform="translate(29.9969 39.63944)" id="Stroke-91" fill="none" stroke="#7C5B4D" stroke-width="0.637875" stroke-linecap="round" stroke-linejoin="round" />
      <path d="M5.05421 12.2939C5.05421 12.2939 3.27855 10.3106 0.890834 5.19358C0.890834 5.19358 -0.668375 0.819031 0.338816 0" transform="translate(29.40222 43.92963)" id="Stroke-93" fill="none" stroke="#7C5B4D" stroke-width="0.637875" stroke-linecap="round" stroke-linejoin="round" />
      <path d="M5.49541 16.535C1.56688 11.4968 0.593585 7.96655 0.593585 7.96655C0.593585 7.96655 -0.859578 3.29501 0.781464 3.08833C1.20177 0.234737 2.37699 2.55175 2.37699 2.55175C2.37699 2.55175 6.94228 10.23 9.06803 10.7566C11.2771 11.3031 9.77645 8.85064 9.71205 4.23881C9.63651 -1.20967 11.4223 -1.55948 12.2199 4.08572C12.9641 9.35737 15.0782 11.2718 16.3048 13.6324C17.5309 15.9931 17.7066 20.8889 17.7066 20.8889" transform="translate(29.1445 36.10646)" id="Stroke-95" fill="none" stroke="#7C5B4D" stroke-width="0.637875" stroke-linecap="round" stroke-linejoin="round" />
      <path d="M9.38201 1.36693L1.86536 10.0012C-0.0943038 12.2524 -0.584825 16.5427 0.752124 19.7362L16.7088 57.8434C20.095 65.2093 26.6176 66.842 31.2773 61.4884C35.9375 56.1356 36.9698 45.825 33.5832 38.4591L15.5825 2.69958C14.0746 -0.296389 11.3412 -0.884255 9.38201 1.36693" transform="translate(36.00215 57.07594)" id="Fill-97" fill="#CCD7EE" stroke="none" />
      <path d="M33.4581 38.7533L15.6545 2.74811C14.1626 -0.268532 11.4331 -0.89314 9.46128 1.33049L1.89718 9.86143C-0.074587 12.0851 -0.588835 16.3693 0.730681 19.5804L16.4772 57.9057C16.4772 57.9057 21.1616 66.68 26.8702 63.5792" transform="translate(36.15012 57.10917)" id="Stroke-99" fill="none" stroke="#96A7CA" stroke-width="0.8505" stroke-linecap="round" stroke-linejoin="round" />
      <path d="M10.494 21.989C10.494 21.989 1.41091 19.7523 0.177104 13.2085C-0.94049 7.28238 3.59671 0.973544 3.59671 0.973544C3.59671 0.973544 7.38142 0.402518 11.7985 0.0856216C14.6932 -0.121815 20.2008 -0.12947 20.6662 2.18449C21.2729 5.20113 15.5063 5.48893 14.9959 7.64597C13.9611 12.0167 23.0641 13.073 24.4819 14.4968C27.2531 17.2792 21.3765 24.8028 10.494 21.989" transform="translate(39.51677 100.1122)" id="Fill-101" fill="#B69882" stroke="none" />
      <path d="M0 0C0 0 4.24812 2.91101 8.56596 2.2887" transform="translate(55.05236 114.7087)" id="Stroke-103" fill="none" stroke="#7C5B4D" stroke-width="0.637875" stroke-linecap="round" stroke-linejoin="round" />
      <path d="M8.65942 1.82636C8.65942 1.82636 5.11973 2.58722 0 0" transform="translate(53.5731 118.0387)" id="Stroke-105" fill="none" stroke="#7C5B4D" stroke-width="0.637875" stroke-linecap="round" stroke-linejoin="round" />
      <path d="M0 0C0 0 2.14754 1.33954 6.42471 1.71614" transform="translate(51.64859 120.3801)" id="Stroke-107" fill="none" stroke="#7C5B4D" stroke-width="0.637875" stroke-linecap="round" stroke-linejoin="round" />
      <g id="分组" transform="translate(0 87.45573)">
        <path d="M0 0L43.873 0L43.873 33.063L0 33.063L0 0Z" transform="translate(0 0.02509122)" id="Clip-110" fill="none" stroke="none" />
        <g clip-path="url(#mask_2)">
          <path d="M43.3388 28.024L43.8695 9.77259C43.9518 6.94808 42.6125 4.52237 40.831 4.26977L10.9092 0.0176974C5.15513 -0.400238 0.275583 6.63501 0.0111955 15.7309C-0.253192 24.8267 4.19733 32.5394 9.95139 32.9573L39.9938 33.0629C41.7825 33.0691 43.257 30.8477 43.3388 28.024" transform="translate(-0.0001066752 0.02509122)" id="Fill-109" fill="#CCD7EE" stroke="none" />
        </g>
      </g>
      <path d="M0.403845 32.4359L30.4428 33.2045C32.2311 33.2504 33.7249 31.062 33.8319 28.2397L34.5239 10.0021C34.6309 7.17992 33.3128 4.72512 31.5343 4.43272L0 0" transform="translate(9.4873 87.77668)" id="Stroke-111" fill="none" stroke="#96A7CA" stroke-width="0.8505" stroke-linecap="round" stroke-linejoin="round" />
    </g>
  </g>
</svg>
