<?xml version="1.0" encoding="utf-8"?>
<svg width="204px" height="231px" viewBox="0 0 204 231" version="1.1" xmlns:xlink="http://www.w3.org/1999/xlink" xmlns="http://www.w3.org/2000/svg">
  <desc>Created with Lunacy</desc>
  <g id="2.通用组件/彩色版/关联" transform="matrix(0.9848077 -0.1736482 0.1736482 0.9848077 0 29.69385)" opacity="0.199102491">
    <g id="编组">
      <path d="M44.6351 27.436C44.6351 12.2835 34.6432 0 22.3176 0C9.99189 0 0 12.2835 0 27.436C0 41.7489 8.91527 53.502 20.2915 54.7605L20.1921 54.872C20.1921 54.872 20.5546 54.8396 21.2235 54.8397C21.586 54.8612 21.9507 54.872 22.3176 54.872C22.3585 54.872 22.3994 54.8719 22.4402 54.8716C31.5546 55.3299 65.8021 61.622 77.0488 129.341L77.136 129.225C79.9753 140.366 88.438 148.448 98.4364 148.448C110.762 148.448 120.754 136.165 120.754 121.012C120.754 106.059 111.023 93.9002 98.9218 93.5828C85.5119 90.5821 46.1769 77.5262 44.6351 27.436Z" transform="translate(0 54.83922)" id="形状结合" fill="#597EF7" fill-rule="evenodd" stroke="none" />
      <path d="M63.0661 5.25292C59.1384 -0.787284 51.9789 -1.76185 47.075 3.07666C44.7218 5.39855 43.3157 8.63711 42.9237 12.0454C40.9305 20.2607 33.3441 44.0465 12.6266 42.2L12.6266 42.2001C6.38163 41.35 0.75986 46.8974 0.0697744 54.5896C-0.620046 62.2822 3.88289 69.2075 10.1282 70.0572C16.0271 70.8601 21.3699 65.9553 22.5256 58.926L22.5659 58.994C22.5659 58.994 22.5727 58.7676 22.6099 58.3529C22.6393 58.1264 22.6643 57.898 22.685 57.6676C22.6874 57.6405 22.6898 57.6134 22.6921 57.5863C23.372 52.0872 27.6409 32.1548 53.9334 28.0239C56.5134 28.0965 59.1276 27.0938 61.2994 24.9511C66.2032 20.1126 66.9944 11.2935 63.0661 5.25292Z" transform="translate(104.9854 0.2550661)" id="形状结合" fill="#597EF7" fill-rule="evenodd" stroke="none" />
      <path d="M12.6646 0.0860925C18.9283 0.936994 23.445 7.86885 22.7529 15.5692C22.061 23.2691 16.4221 28.8221 10.1586 27.9712C3.89459 27.1206 -0.622126 20.1884 0.070031 12.4881C0.761922 4.78781 6.40084 -0.764809 12.6646 0.0860925" transform="translate(147.934 0)" id="Fill-9" fill="#597EF7" stroke="none" />
    </g>
  </g>
</svg>
