<?xml version="1.0" encoding="utf-8"?>
<svg width="120px" height="128px" viewBox="0 0 120 128" version="1.1" xmlns:xlink="http://www.w3.org/1999/xlink" xmlns="http://www.w3.org/2000/svg">
  <desc>Created with Lunacy</desc>
  <g id="2.通用组件/彩色版/点立法" transform="matrix(0.8829476 0.4694716 -0.4694716 0.8829476 47.41675 0)" opacity="0.199102491">
    <g id="编组">
      <path d="M0.331931 15.0131L0 13.8123L32.9205 0L33.0799 0.0605712L67.0674 12.9523L66.7644 14.1646L32.9364 1.33336L0.331931 15.0131Z" transform="translate(7.60764 9.537012)" id="Fill-1" fill="#597EF7" stroke="none" />
      <path d="M0 54.4163L35.1353 67.682L35.1353 13.0862L0 0L0 54.4163ZM34.1057 65.9693L1.02961 53.481L1.02961 1.70596L34.1057 14.0253L34.1057 65.9693Z" transform="translate(7.50754 23.44259)" id="Fill-2" fill="#597EF7" fill-rule="evenodd" stroke="none" />
      <path d="M0.132014 13.6593L0 68.7895L33.092 54.5737L33.2334 0L0.132014 13.6593ZM1.03461 67.0041L1.16018 14.5704L32.1985 1.7625L32.0639 53.6743L1.03461 67.0041Z" transform="translate(41.54172 22.45812)" id="Fill-3" fill="#597EF7" fill-rule="evenodd" stroke="none" />
      <g id="编组" transform="translate(0 0.06152911)">
        <path d="M12.6095 7.75162C12.6095 12.0327 9.78678 15.5032 6.30476 15.5032C2.82273 15.5032 0 12.0327 0 7.75162C0 3.47051 2.82273 0 6.30476 0C9.78678 0 12.6095 3.47051 12.6095 7.75162" transform="translate(1.158016 15.18685)" id="Fill-4" fill="#597EF7" stroke="none" />
        <path d="M14.9255 9.17539C14.9255 14.2429 11.5844 18.3508 7.46277 18.3508C3.34114 18.3508 0 14.2429 0 9.17539C0 4.10788 3.34114 0 7.46277 0C11.5844 0 14.9255 4.10788 14.9255 9.17539" transform="translate(0 68.8154)" id="Fill-6" fill="#597EF7" stroke="none" />
        <path d="M14.9255 9.17539C14.9255 14.2429 11.5844 18.3508 7.46277 18.3508C3.34113 18.3508 0 14.2429 0 9.17539C0 4.10788 3.34113 0 7.46277 0C11.5844 0 14.9255 4.10788 14.9255 9.17539" transform="translate(34.48316 80.99652)" id="Fill-8" fill="#597EF7" stroke="none" />
        <path d="M14.9255 9.17539C14.9255 14.2429 11.5844 18.3508 7.46277 18.3508C3.34113 18.3508 0 14.2429 0 9.17539C0 4.10788 3.34113 0 7.46277 0C11.5844 0 14.9255 4.10788 14.9255 9.17539" transform="translate(32.6818 0)" id="Fill-10" fill="#597EF7" stroke="none" />
        <path d="M14.9255 9.17539C14.9255 14.2429 11.5844 18.3508 7.46277 18.3508C3.34113 18.3508 0 14.2429 0 9.17539C0 4.10788 3.34113 0 7.46277 0C11.5844 0 14.9255 4.10788 14.9255 9.17539" transform="translate(66.52161 66.28426)" id="Fill-12" fill="#597EF7" stroke="none" />
        <path d="M11.8375 7.27703C11.8375 11.296 9.18757 14.5541 5.91875 14.5541C2.64993 14.5541 0 11.296 0 7.27703C0 3.25805 2.64993 0 5.91875 0C9.18757 0 11.8375 3.25805 11.8375 7.27703" transform="translate(68.06564 15.02865)" id="Fill-14" fill="#597EF7" stroke="none" />
        <path d="M10.5508 6.48605C10.5508 10.0682 8.18898 12.9721 5.27541 12.9721C2.36184 12.9721 0 10.0682 0 6.48605C0 2.90385 2.36184 0 5.27541 0C8.18898 0 10.5508 2.90385 10.5508 6.48605" transform="translate(36.79919 30.3737)" id="Fill-16" fill="#597EF7" stroke="none" />
      </g>
    </g>
  </g>
</svg>
