<?xml version="1.0" encoding="utf-8"?>
<svg width="184px" height="183px" viewBox="0 0 184 183" version="1.1" xmlns:xlink="http://www.w3.org/1999/xlink" xmlns="http://www.w3.org/2000/svg">
  <desc>Created with Lunacy</desc>
  <g id="编组" transform="matrix(0.6819984 0.7313537 -0.7313537 0.6819984 103.0046 2.07785)">
    <path d="M0 108.811L57.0158 0L98.5187 119.438L0 108.811Z" transform="translate(6.813187 8.710797)" id="路径-2" fill="none" stroke="none" />
    <path d="M0 0L14.9137 79.1376L41.5604 119.438L0 0Z" transform="translate(63.90769 8.543282)" id="路径-3" fill="none" stroke="#597EF7" stroke-width="2.1384" stroke-linejoin="round" />
    <path d="M0 108.885L71.9473 79.1917L57.0463 0L0 108.885Z" transform="translate(6.813187 8.543282)" id="路径-4" fill="none" stroke="#597EF7" stroke-width="2.9403" stroke-linejoin="round" />
    <path d="M0 29.6014L98.5187 40.2037L71.9088 4.4635e-15L0 29.6014Z" transform="translate(6.813187 87.77803)" id="路径-5" fill="none" stroke="#597EF7" stroke-width="2.1384" stroke-linejoin="round" />
    <path d="M6.94945 17.0866C10.7875 17.0866 13.8989 13.2616 13.8989 8.54328C13.8989 3.82496 10.7875 0 6.94945 0C3.11138 0 0 3.82496 0 8.54328C0 13.2616 3.11138 17.0866 6.94945 17.0866Z" transform="translate(56.95824 0)" id="椭圆形备份-12" fill="#597EF7" stroke="none" />
    <path d="M6.94945 17.0866C10.7875 17.0866 13.8989 13.2616 13.8989 8.54328C13.8989 3.82496 10.7875 0 6.94945 0C3.11138 0 0 3.82496 0 8.54328C0 13.2616 3.11138 17.0866 6.94945 17.0866Z" transform="translate(0 108.3824)" id="椭圆形备份-13" fill="#597EF7" stroke="none" />
    <path d="M6.94945 17.0866C10.7875 17.0866 13.8989 13.2616 13.8989 8.54328C13.8989 3.82496 10.7875 0 6.94945 0C3.11138 0 0 3.82496 0 8.54328C0 13.2616 3.11138 17.0866 6.94945 17.0866Z" transform="translate(100.1538 119.941)" id="椭圆形备份-14" fill="#597EF7" stroke="none" />
    <path d="M6.94945 17.0866C10.7875 17.0866 13.8989 13.2616 13.8989 8.54328C13.8989 3.82496 10.7875 0 6.94945 0C3.11138 0 0 3.82496 0 8.54328C0 13.2616 3.11138 17.0866 6.94945 17.0866Z" transform="translate(70.85715 79.23475)" id="椭圆形备份-15" fill="#597EF7" stroke="none" />
  </g>
</svg>
